<?xml version="1.0" encoding="utf-8"?>
<!-- Generator: Adobe Illustrator 25.0.1, SVG Export Plug-In . SVG Version: 6.00 Build 0)  -->
<svg version="1.1" id="Layer_1" xmlns="http://www.w3.org/2000/svg" xmlns:xlink="http://www.w3.org/1999/xlink" x="0px" y="0px"
	 viewBox="0 0 335 283" style="enable-background:new 0 0 335 283;" xml:space="preserve">
<style type="text/css">
	.st0{fill:#EEEEEE;}
	
		.st1{fill:none;stroke:#EEEEEE;stroke-width:3;stroke-linecap:round;stroke-linejoin:round;stroke-miterlimit:10;stroke-dasharray:6,8;}
	.st2{fill:none;stroke:#EEEEEE;stroke-width:3;stroke-linecap:round;stroke-linejoin:round;}
	.st3{fill:none;stroke:#EEEEEE;stroke-width:3;stroke-linecap:round;stroke-linejoin:round;stroke-dasharray:6.5303,8.7071;}
	.st4{fill:none;stroke:#EEEEEE;stroke-width:3;stroke-linecap:round;stroke-linejoin:round;stroke-dasharray:5.6936,7.5915;}
	.st5{fill:#DE4444;}
	.st6{fill:#FFFFFF;}
	.st7{fill:#68217A;}
	.st8{fill:#7BC0CB;}
	.st9{fill:#4198D3;}
	.st10{fill:#575756;}
	.st11{opacity:0.5;}
</style>
<g id="Aspose.CAD">
	<polygon class="st0" points="145.46,269.34 32.51,261.34 32.51,114.77 145.46,114.77 	"/>
	<polygon class="st0" points="151.46,269.34 220.05,261.34 220.05,114.77 151.46,114.77 	"/>
	<g id="lines_12_">
		<polyline class="st1" points="292.58,137.23 241.88,137.23 241.88,180.34 217.91,180.34 		"/>
		<polyline class="st1" points="233.2,61.76 233.2,96.47 167.98,96.47 167.98,110.24 		"/>
		<g>
			<g>
				<line class="st2" x1="101.65" y1="54.16" x2="98.65" y2="54.16"/>
				<line class="st3" x1="89.94" y1="54.16" x2="63.82" y2="54.16"/>
				<polyline class="st2" points="59.46,54.16 56.46,54.16 56.46,57.16 				"/>
				<line class="st4" x1="56.46" y1="64.75" x2="56.46" y2="100.81"/>
				<line class="st2" x1="56.46" y1="104.61" x2="56.46" y2="107.61"/>
			</g>
		</g>
	</g>
	<g id="circles_12_">
		<g>
			<circle class="st5" cx="233.04" cy="35.34" r="33.61"/>
			<g id="java_12_">
				<path id="XMLID_105_" class="st6" d="M232.9,19.69c-1.81,1.27-3.86,2.72-4.96,5.11c-1.91,4.17,3.91,8.71,4.16,8.91
					c0.06,0.04,0.13,0.07,0.2,0.07c0.07,0,0.15-0.03,0.21-0.07c0.12-0.1,0.15-0.26,0.08-0.39c-0.02-0.04-2.11-4.1-2.03-7.01
					c0.03-1.01,1.45-2.16,2.95-3.38c1.38-1.12,2.94-2.38,3.85-3.86c2-3.26-0.22-6.46-0.25-6.49c-0.09-0.12-0.25-0.17-0.39-0.11
					s-0.22,0.21-0.18,0.36c0,0.02,0.44,2.14-0.77,4.32C235.25,18.04,234.16,18.8,232.9,19.69z"/>
				<path id="XMLID_104_" class="st6" d="M240.53,21.13c0.13-0.1,0.17-0.27,0.09-0.41s-0.25-0.2-0.4-0.15
					c-0.31,0.12-7.54,2.9-7.54,6.27c0,2.32,0.99,3.55,1.71,4.44c0.28,0.35,0.53,0.65,0.61,0.91c0.23,0.75-0.31,2.09-0.54,2.55
					c-0.07,0.13-0.03,0.29,0.08,0.39c0.06,0.05,0.13,0.08,0.21,0.08c0.06,0,0.13-0.02,0.18-0.06c0.12-0.09,3.04-2.15,2.51-4.63
					c-0.19-0.94-0.66-1.63-1.07-2.24c-0.63-0.94-1.09-1.62-0.4-2.88C236.81,23.94,240.5,21.16,240.53,21.13z"/>
				<path id="XMLID_103_" class="st6" d="M221.72,35.26c-0.12,0.37-0.07,0.74,0.17,1.06c0.78,1.09,3.56,1.69,7.81,1.69l0,0
					c0.58,0,1.19-0.01,1.81-0.03c6.8-0.24,9.33-2.36,9.43-2.45c0.11-0.1,0.14-0.26,0.07-0.39c-0.07-0.13-0.22-0.2-0.37-0.16
					c-2.4,0.65-6.87,0.89-9.98,0.89c-3.47,0-5.24-0.25-5.67-0.43c0.22-0.31,1.59-0.85,3.29-1.18c0.16-0.03,0.27-0.18,0.26-0.35
					c-0.02-0.16-0.15-0.29-0.32-0.29C227.23,33.6,222.24,33.68,221.72,35.26z"/>
				<path id="XMLID_102_" class="st6" d="M244.49,33.08c-1.4,0-2.73,0.7-2.79,0.73c-0.13,0.07-0.2,0.22-0.16,0.36
					s0.16,0.24,0.31,0.24c0.03,0,2.99,0.02,3.26,1.72c0.24,1.46-2.8,3.83-4,4.62c-0.13,0.09-0.18,0.25-0.12,0.39
					c0.05,0.12,0.17,0.2,0.3,0.2c0.02,0,0.04,0,0.07-0.01c0.28-0.06,6.92-1.52,6.22-5.39C247.15,33.58,245.66,33.08,244.49,33.08z"
					/>
				<path id="XMLID_101_" class="st6" d="M239.94,40.28c0.02-0.12-0.03-0.25-0.13-0.32l-1.59-1.11c-0.08-0.05-0.18-0.07-0.27-0.05
					c-0.02,0-1.68,0.44-4.1,0.71c-0.96,0.11-2.03,0.16-3.11,0.16c-2.42,0-4-0.28-4.23-0.49c-0.03-0.06-0.02-0.09-0.02-0.1
					c0.04-0.12,0.27-0.25,0.41-0.31c0.16-0.06,0.25-0.23,0.2-0.39s-0.22-0.26-0.38-0.22c-1.6,0.39-2.38,0.92-2.32,1.6
					c0.1,1.2,2.88,1.82,5.23,1.98c0.34,0.02,0.7,0.03,1.09,0.03l0,0c3.91,0,8.92-1.23,8.97-1.24
					C239.82,40.5,239.91,40.4,239.94,40.28z"/>
				<path id="XMLID_100_" class="st6" d="M227.93,42.86c0.12-0.08,0.17-0.23,0.13-0.36c-0.04-0.14-0.17-0.23-0.32-0.23
					c-0.21,0.01-2.09,0.09-2.23,1.29c-0.04,0.36,0.06,0.68,0.3,0.97c0.68,0.8,2.5,1.28,5.57,1.45c0.36,0.02,0.73,0.03,1.1,0.03
					c3.91,0,6.54-1.22,6.65-1.27s0.18-0.16,0.18-0.27c0.01-0.12-0.05-0.23-0.15-0.29l-2.01-1.23c-0.07-0.04-0.15-0.06-0.23-0.04
					c-0.01,0-1.29,0.27-3.22,0.53c-0.36,0.05-0.82,0.07-1.36,0.07c-1.93,0-4.07-0.31-4.48-0.52
					C227.87,42.95,227.88,42.9,227.93,42.86z"/>
				<path id="XMLID_99_" class="st6" d="M230.68,49.7c8.95-0.01,13.75-1.6,14.67-2.6c0.33-0.35,0.36-0.69,0.33-0.91
					c-0.07-0.54-0.56-0.87-0.62-0.9c-0.13-0.09-0.31-0.06-0.42,0.06c-0.1,0.12-0.11,0.3,0,0.42c0.06,0.07,0.09,0.19-0.08,0.36
					c-0.37,0.35-4.1,1.39-10.31,1.71c-0.85,0.04-1.74,0.07-2.65,0.07c-5.56,0-9.63-0.76-10.16-1.21c0.21-0.3,1.65-0.77,3.18-1.04
					c0.17-0.03,0.29-0.19,0.26-0.37s-0.19-0.29-0.36-0.27c-0.04,0.01-0.19,0.01-0.36,0.03c-2.53,0.15-5.44,0.5-5.6,1.8
					c-0.05,0.4,0.07,0.76,0.35,1.07C219.6,48.68,221.56,49.7,230.68,49.7L230.68,49.7z"/>
				<path id="XMLID_98_" class="st6" d="M247.11,47.39c-0.13-0.06-0.28-0.03-0.37,0.07c-0.01,0.01-1.36,1.42-5.4,2.25
					c-1.55,0.31-4.45,0.47-8.64,0.47s-8.18-0.16-8.22-0.17c-0.17-0.01-0.31,0.11-0.33,0.28c-0.02,0.16,0.08,0.32,0.24,0.36
					c0.04,0.01,4.22,0.99,9.94,0.99c2.74,0,5.41-0.22,7.93-0.66c4.7-0.82,5.03-3.15,5.04-3.25
					C247.31,47.58,247.23,47.44,247.11,47.39z"/>
			</g>
		</g>
		<g>
			<circle class="st7" cx="115.63" cy="55.06" r="33.61"/>
			<path id="NET_12_" class="st6" d="M124.9,52.03h4.7V66.6h1.91V52.03h4.7V50.3H124.9V52.03z M116.37,59.18h5.89v-1.73h-5.89v-5.42
				h6.36V50.3h-8.27v16.3h8.64v-1.73h-6.72L116.37,59.18L116.37,59.18z M108.95,61.79l0.11,2.4h-0.05
				c-0.11-0.22-0.34-0.58-0.66-1.09l-8.16-12.79h-2.48v16.3h1.91V54.83l-0.09-2.24h0.07c0.14,0.37,0.31,0.71,0.51,1.02l8.41,12.99
				h2.32V50.3h-1.9L108.95,61.79L108.95,61.79z M93.66,64.3c-0.35,0-0.64,0.12-0.89,0.38c-0.24,0.25-0.36,0.55-0.36,0.91
				c0,0.34,0.13,0.66,0.36,0.9c0.24,0.25,0.54,0.38,0.89,0.38c0.36,0,0.66-0.13,0.91-0.38s0.38-0.56,0.38-0.91s-0.13-0.65-0.38-0.91
				c-0.24-0.25-0.57-0.39-0.91-0.38 M131.53,47.04c0,0.87,0.39,1.31,1.16,1.31c0.28,0,0.5-0.05,0.67-0.14V47.6
				c-0.13,0.1-0.3,0.15-0.46,0.14c-0.24,0-0.4-0.06-0.51-0.19c-0.1-0.12-0.15-0.34-0.15-0.63v-2.5h1.12v-0.6h-1.11v-1.31l-0.71,0.23
				v1.08h-0.76v0.6h0.76v2.63L131.53,47.04z M128.63,48.25h0.71v-3.83h1.04v-0.6h-1.04v-0.68c0-0.63,0.25-0.94,0.74-0.94
				c0.16,0,0.33,0.04,0.47,0.12v-0.64c-0.13-0.06-0.3-0.08-0.52-0.08c-0.38,0-0.7,0.11-0.96,0.36c-0.3,0.28-0.45,0.66-0.45,1.15
				v0.72h-0.75v0.6h0.75v3.84L128.63,48.25z M123.78,46.05c0-0.57,0.14-1,0.42-1.31c0.27-0.29,0.62-0.43,1.06-0.43
				c0.45,0,0.8,0.14,1.05,0.43c0.26,0.3,0.39,0.73,0.39,1.3c0,0.54-0.11,0.97-0.36,1.26c-0.24,0.3-0.6,0.45-1.07,0.45
				c-0.45,0-0.81-0.15-1.08-0.45C123.91,47,123.78,46.58,123.78,46.05 M126.82,47.71c0.4-0.43,0.6-0.99,0.6-1.7
				c0-0.72-0.19-1.28-0.56-1.7c-0.37-0.41-0.89-0.61-1.55-0.61c-0.67,0-1.21,0.2-1.61,0.59c-0.43,0.42-0.65,1.02-0.65,1.79
				c0,0.68,0.19,1.22,0.57,1.63c0.39,0.43,0.92,0.64,1.59,0.64C125.89,48.35,126.43,48.14,126.82,47.71 M121.94,47.96
				c0.27-0.22,0.42-0.56,0.41-0.9c0-0.33-0.11-0.6-0.33-0.81c-0.17-0.17-0.44-0.33-0.82-0.49c-0.34-0.14-0.56-0.27-0.67-0.37
				c-0.12-0.11-0.18-0.26-0.18-0.46c0-0.18,0.07-0.33,0.21-0.45s0.33-0.17,0.57-0.17c0.38,0,0.71,0.11,1.01,0.32v-0.72
				c-0.28-0.14-0.6-0.21-0.95-0.21c-0.45,0-0.84,0.12-1.13,0.37s-0.44,0.55-0.44,0.92c0,0.33,0.09,0.6,0.28,0.8
				c0.16,0.17,0.42,0.34,0.79,0.5c0.36,0.16,0.6,0.29,0.73,0.41s0.19,0.26,0.19,0.43c0,0.41-0.28,0.62-0.85,0.62
				c-0.42,0-0.81-0.14-1.15-0.43v0.76c0.31,0.18,0.68,0.27,1.1,0.27C121.23,48.35,121.64,48.22,121.94,47.96 M115.6,44.74
				c0.26-0.29,0.63-0.43,1.06-0.43c0.45,0,0.8,0.14,1.05,0.43c0.26,0.3,0.38,0.73,0.38,1.3c0,0.54-0.11,0.97-0.36,1.26
				c-0.24,0.3-0.6,0.45-1.07,0.45c-0.45,0-0.81-0.15-1.08-0.45s-0.4-0.71-0.4-1.25C115.19,45.48,115.33,45.04,115.6,44.74
				 M116.62,48.35c0.68,0,1.21-0.21,1.61-0.64s0.6-0.99,0.6-1.7c0-0.72-0.19-1.28-0.56-1.7c-0.37-0.41-0.89-0.61-1.55-0.61
				c-0.67,0-1.21,0.2-1.61,0.59c-0.43,0.42-0.65,1.02-0.65,1.79c0,0.68,0.19,1.22,0.57,1.63C115.42,48.13,115.95,48.35,116.62,48.35
				 M113.04,43.97c-0.22,0.17-0.38,0.43-0.48,0.75h-0.02V43.8h-0.71v4.44h0.71v-2.25c0-0.52,0.11-0.92,0.33-1.21
				c0.2-0.26,0.44-0.39,0.73-0.39c0.24,0,0.42,0.05,0.54,0.14v-0.74c-0.1-0.04-0.24-0.06-0.43-0.06
				C113.47,43.74,113.24,43.82,113.04,43.97 M109.54,48.35c0.47,0,0.88-0.1,1.22-0.31v-0.67c-0.34,0.25-0.7,0.38-1.09,0.38
				c-0.45,0-0.82-0.15-1.1-0.45c-0.27-0.3-0.41-0.71-0.41-1.23c0-0.54,0.15-0.97,0.45-1.29c0.28-0.31,0.65-0.47,1.1-0.47
				c0.38,0,0.75,0.12,1.06,0.35v-0.73c-0.3-0.15-0.64-0.23-1.03-0.23c-0.7,0-1.27,0.22-1.68,0.67s-0.63,1.04-0.63,1.76
				c0,0.65,0.19,1.18,0.57,1.59C108.39,48.15,108.91,48.36,109.54,48.35 M105.61,48.26h0.71v-4.44h-0.71V48.26L105.61,48.26z
				 M105.97,42.69c0.12,0,0.24-0.05,0.33-0.14c0.09-0.09,0.14-0.21,0.14-0.33c0-0.12-0.05-0.24-0.14-0.33s-0.21-0.13-0.33-0.13
				c-0.13,0-0.24,0.04-0.33,0.13c-0.09,0.09-0.14,0.2-0.14,0.33c0,0.14,0.05,0.25,0.14,0.33C105.73,42.65,105.85,42.69,105.97,42.69
				 M98.43,44.09l-0.03-1.21h0.02c0.06,0.29,0.13,0.5,0.19,0.64l2.12,4.74h0.36l2.13-4.78c0.05-0.13,0.12-0.33,0.19-0.6h0.02
				l-0.06,1.2v4.18h0.73v-6.22h-0.91l-1.95,4.31c-0.08,0.17-0.17,0.42-0.3,0.76h-0.03c-0.05-0.17-0.14-0.42-0.28-0.74l-1.91-4.34
				h-0.96v6.22h0.7v-4.16H98.43z M135.79,44.81c-0.2,0.2-0.45,0.3-0.74,0.3c-0.29,0-0.54-0.1-0.74-0.3S134,44.36,134,44.06
				c0-0.29,0.1-0.54,0.3-0.74c0.2-0.2,0.45-0.3,0.75-0.3c0.28-0.01,0.54,0.1,0.74,0.3s0.31,0.47,0.3,0.75
				C136.1,44.37,135.99,44.62,135.79,44.81 M135.06,42.9c-0.32-0.01-0.62,0.11-0.85,0.34c-0.22,0.22-0.35,0.52-0.34,0.84
				c0,0.34,0.11,0.61,0.34,0.84s0.51,0.33,0.84,0.33c0.32,0.01,0.62-0.11,0.85-0.34c0.23-0.23,0.34-0.5,0.34-0.84
				s-0.11-0.63-0.34-0.84C135.68,43.01,135.38,42.9,135.06,42.9 M135.03,43.99h-0.23v-0.51h0.19c0.13,0,0.22,0.02,0.28,0.07
				c0.05,0.04,0.07,0.1,0.07,0.19C135.34,43.91,135.24,43.99,135.03,43.99 M135.19,44.13L135.19,44.13
				c0.12-0.03,0.22-0.08,0.28-0.15c0.07-0.07,0.1-0.17,0.1-0.26c0-0.11-0.04-0.21-0.12-0.28c-0.1-0.09-0.24-0.13-0.43-0.13h-0.42
				v1.5h0.21v-0.63h0.14c0.1,0,0.19,0.09,0.27,0.27l0.16,0.36h0.26l-0.2-0.4C135.36,44.24,135.27,44.15,135.19,44.13"/>
		</g>
		<g>
			<circle class="st8" cx="299.26" cy="137.23" r="33.61"/>
			<g id="jasperreports_1_">
				<path class="st6" d="M311.24,122.29c3.59,0.6,6.16,3.66,6.34,7.24c0.17,3.45-0.82,6.53-2.67,9.33
					c-5.34,8.11-12.73,13.29-22.36,15c-2.63,0.47-5.31,0.39-7.86-0.66c-3.66-1.5-5.54-4.78-5.01-8.97c2.33,4.02,6.06,4.04,9.71,3.25
					c9.08-1.96,16.12-7.04,21.18-14.83c0.55-0.84,0.95-1.8,1.31-2.74c1.02-2.63,1.09-5.18-0.76-7.53L311.24,122.29z"/>
				<path class="st6" d="M307.55,129.29c-1.16-1.89-2.98-1.76-4.65-1.31c-6.36,1.7-11.45,5.28-15.1,10.78
					c-0.95,1.43-1.63,3.03-0.25,4.69c-4.13,0.29-6.37-2.29-5.43-6.23c0.58-2.41,1.91-4.43,3.55-6.24c3.99-4.41,8.75-7.58,14.69-8.72
					c0.85-0.16,1.73-0.2,2.6-0.18C307.22,122.19,309.17,125.19,307.55,129.29z"/>
				<path class="st6" d="M311.14,122.39c-0.08-0.05-0.15-0.1-0.23-0.14c0.04-0.03,0.09-0.1,0.1-0.09c0.08,0.04,0.15,0.09,0.22,0.14
					C311.24,122.29,311.14,122.39,311.14,122.39z"/>
			</g>
		</g>
	</g>
	<g>
		<g>
			<path class="st9" d="M74.46,173.19c-3.67,0-6.54,1.5-8.59,4.51c-2.06,3.01-3.09,7.16-3.09,12.44c0,10.99,4.18,16.48,12.54,16.48
				c2.53,0,4.97-0.35,7.34-1.05c2.37-0.7,4.75-1.55,7.15-2.54v13.05c-4.77,2.11-10.16,3.16-16.17,3.16c-8.62,0-15.23-2.5-19.82-7.5
				c-4.6-5-6.89-12.23-6.89-21.68c0-5.91,1.11-11.11,3.34-15.59c2.23-4.48,5.43-7.92,9.61-10.33c4.18-2.41,9.09-3.61,14.75-3.61
				c6.17,0,12.07,1.34,17.7,4.02l-4.73,12.15c-2.11-0.99-4.22-1.82-6.33-2.5C79.15,173.53,76.88,173.19,74.46,173.19z"/>
		</g>
		<g>
			<path class="st9" d="M123.72,218.71l-2.02-5.2h-0.27c-1.75,2.21-3.56,3.74-5.42,4.6c-1.86,0.85-4.28,1.28-7.26,1.28
				c-3.67,0-6.56-1.05-8.66-3.14c-2.11-2.1-3.16-5.08-3.16-8.96c0-4.06,1.42-7.05,4.26-8.97c2.84-1.92,7.11-2.99,12.83-3.2
				l6.63-0.21v-1.67c0-3.87-1.98-5.81-5.95-5.81c-3.05,0-6.64,0.92-10.77,2.77l-3.45-7.04c4.4-2.3,9.27-3.45,14.63-3.45
				c5.13,0,9.06,1.12,11.79,3.35c2.73,2.23,4.1,5.63,4.1,10.19v25.46H123.72z M120.64,201l-4.03,0.14
				c-3.03,0.09-5.29,0.64-6.77,1.64c-1.48,1-2.22,2.53-2.22,4.58c0,2.94,1.69,4.41,5.06,4.41c2.42,0,4.35-0.69,5.79-2.08
				c1.45-1.39,2.17-3.24,2.17-5.54V201z"/>
		</g>
	</g>
	<g id="CAD">
		<g>
			<g>
				<polygon class="st10" points="213.09,219.38 210.81,219.38 210.81,217.67 211.38,217.67 211.38,217.1 213.09,217.1 				"/>
			</g>
			<g>
				<path class="st10" d="M209.7,219.38h-2.78v-1.71h2.78V219.38z M205.8,219.38h-2.78v-1.71h2.78V219.38z M201.91,219.38h-2.78
					v-1.71h2.78V219.38z M198.01,219.38h-2.78v-1.71h2.78V219.38z M194.11,219.38h-2.78v-1.71h2.78V219.38z M190.22,219.38h-2.78
					v-1.71h2.78V219.38z M186.32,219.38h-2.78v-1.71h2.78V219.38z M182.43,219.38h-2.78v-1.71h2.78V219.38z M178.53,219.38h-2.78
					v-1.71h2.78V219.38z M174.63,219.38h-2.78v-1.71h2.78V219.38z M170.74,219.38h-2.78v-1.71h2.78V219.38z M166.84,219.38h-2.78
					v-1.71h2.78V219.38z"/>
			</g>
			<g>
				<polygon class="st10" points="162.95,219.38 160.67,219.38 160.67,217.1 162.38,217.1 162.38,217.67 162.95,217.67 				"/>
			</g>
			<g>
				<path class="st10" d="M162.38,216.05h-1.71v-2.62h1.71V216.05z M162.38,212.39h-1.71v-2.62h1.71V212.39z M162.38,208.73h-1.71
					v-2.62h1.71V208.73z M162.38,205.06h-1.71v-2.62h1.71V205.06z M162.38,201.4h-1.71v-2.62h1.71V201.4z"/>
			</g>
			<g>
				<polygon class="st10" points="162.38,197.74 160.67,197.74 160.67,195.95 161.93,194.7 163.14,195.92 162.38,196.67 				"/>
			</g>
			<g>
				<path class="st10" d="M163.95,195.12l-1.2-1.22l2.02-2l1.2,1.22L163.95,195.12z M166.78,192.31l-1.2-1.22l2.02-2l1.2,1.22
					L166.78,192.31z M169.61,189.51l-1.2-1.22l2.02-2l1.2,1.22L169.61,189.51z M172.45,186.71l-1.2-1.22l2.02-2l1.2,1.22
					L172.45,186.71z M175.28,183.91l-1.2-1.22l2.02-2l1.2,1.21L175.28,183.91z M178.12,181.1l-1.2-1.21l2.02-2l1.2,1.21
					L178.12,181.1z M180.95,178.3l-1.2-1.21l2.02-2l1.2,1.21L180.95,178.3z M183.78,175.5l-1.2-1.21l0.9-0.89h2.28v1.71h-1.58
					L183.78,175.5z M209.67,175.1h-2.85v-1.71h2.85V175.1z M205.69,175.1h-2.85v-1.71h2.85V175.1z M201.7,175.1h-2.85v-1.71h2.85
					V175.1z M197.72,175.1h-2.85v-1.71h2.85V175.1z M193.73,175.1h-2.85v-1.71h2.85V175.1z M189.74,175.1h-2.85v-1.71h2.85V175.1z"
					/>
			</g>
			<g>
				<polygon class="st10" points="213.09,175.67 211.38,175.67 211.38,175.1 210.81,175.1 210.81,173.39 213.09,173.39 				"/>
			</g>
			<g>
				<path class="st10" d="M213.09,215.95h-1.71v-2.88h1.71V215.95z M213.09,211.92h-1.71v-2.88h1.71V211.92z M213.09,207.89h-1.71
					v-2.88h1.71V207.89z M213.09,203.86h-1.71v-2.88h1.71V203.86z M213.09,199.84h-1.71v-2.88h1.71V199.84z M213.09,195.81h-1.71
					v-2.88h1.71V195.81z M213.09,191.78h-1.71v-2.88h1.71V191.78z M213.09,187.75h-1.71v-2.88h1.71V187.75z M213.09,183.72h-1.71
					v-2.88h1.71V183.72z M213.09,179.69h-1.71v-2.88h1.71V179.69z"/>
			</g>
		</g>
		<g>
			<path class="st10" d="M203.76,201.64h-10.08c-0.47,0-0.85-0.38-0.85-0.85v-8.81c0-0.47,0.38-0.85,0.85-0.85h10.08
				c0.47,0,0.85,0.38,0.85,0.85v8.81C204.61,201.26,204.23,201.64,203.76,201.64z M194.53,199.93h8.38v-7.1h-8.38V199.93z"/>
		</g>
		<g>
			<rect x="198.13" y="195.87" class="st10" width="1.17" height="1.02"/>
			<path class="st10" d="M199.3,196.99h-1.17c-0.05,0-0.1-0.04-0.1-0.1v-1.02c0-0.05,0.04-0.1,0.1-0.1h1.17c0.05,0,0.1,0.04,0.1,0.1
				v1.02C199.4,196.95,199.36,196.99,199.3,196.99z M198.23,196.79h0.97v-0.82h-0.97V196.79z"/>
		</g>
		<g>
			<path class="st10" d="M157.17,202.65v-35.09h35.43L157.17,202.65z M160.02,170.4v25.41l25.66-25.41H160.02z"/>
		</g>
		<g>
			<path class="st10" d="M163.74,188.37v-12.6h12.72L163.74,188.37z M165.45,177.48v6.79l6.86-6.79H165.45z"/>
		</g>
		<g>
			<path class="st10" d="M164.59,172.76c-0.47,0-0.85-0.38-0.85-0.85v-3.07c0-0.47,0.38-0.85,0.85-0.85s0.85,0.38,0.85,0.85v3.07
				C165.45,172.37,165.06,172.76,164.59,172.76z"/>
		</g>
		<g>
			<path class="st10" d="M172.04,172.03c-0.31,0-0.57-0.25-0.57-0.57v-2.63c0-0.31,0.26-0.57,0.57-0.57s0.57,0.25,0.57,0.57v2.63
				C172.61,171.78,172.36,172.03,172.04,172.03z"/>
		</g>
		<g>
			<path class="st10" d="M175.99,171.44c-0.47,0-0.85-0.38-0.85-0.85v-1.32c0-0.47,0.38-0.85,0.85-0.85c0.47,0,0.85,0.38,0.85,0.85
				v1.32C176.84,171.06,176.46,171.44,175.99,171.44z"/>
		</g>
		<g>
			<path class="st10" d="M179.94,171.16c-0.31,0-0.57-0.25-0.57-0.57v-1.32c0-0.31,0.26-0.57,0.57-0.57c0.31,0,0.57,0.25,0.57,0.57
				v1.32C180.51,170.9,180.25,171.16,179.94,171.16z"/>
		</g>
		<g>
			<path class="st10" d="M168.1,171.6c-0.31,0-0.57-0.25-0.57-0.57v-1.75c0-0.31,0.26-0.57,0.57-0.57s0.57,0.25,0.57,0.57v1.75
				C168.67,171.34,168.41,171.6,168.1,171.6z"/>
		</g>
		<g>
			<path class="st10" d="M198.72,192.84c-0.47,0-0.85-0.38-0.85-0.85v-17.74c0-0.47,0.38-0.85,0.85-0.85s0.85,0.38,0.85,0.85v17.74
				C199.57,192.45,199.19,192.84,198.72,192.84z"/>
		</g>
		<g>
			<path class="st10" d="M198.72,219.14c-0.47,0-0.85-0.38-0.85-0.85v-17.3c0-0.47,0.38-0.85,0.85-0.85s0.85,0.38,0.85,0.85v17.3
				C199.57,218.76,199.19,219.14,198.72,219.14z"/>
		</g>
		<g>
			<path class="st10" d="M193.67,197.24h-32.15c-0.47,0-0.85-0.38-0.85-0.85c0-0.47,0.38-0.85,0.85-0.85h32.15
				c0.47,0,0.85,0.38,0.85,0.85C194.53,196.86,194.15,197.24,193.67,197.24z"/>
		</g>
		<g>
			<path class="st10" d="M212.24,197.24h-8.48c-0.47,0-0.85-0.38-0.85-0.85c0-0.47,0.38-0.85,0.85-0.85h8.48
				c0.47,0,0.85,0.38,0.85,0.85C213.09,196.86,212.71,197.24,212.24,197.24z"/>
		</g>
		<g class="st11">
			<polygon class="st10" points="198.64,218.53 161.52,218.53 161.52,196.38 193.67,196.38 193.67,200.55 198.64,200.79 			"/>
			<path class="st10" d="M198.64,219.09h-37.12c-0.31,0-0.57-0.25-0.57-0.57v-22.14c0-0.31,0.26-0.57,0.57-0.57h32.15
				c0.31,0,0.57,0.25,0.57,0.57l0,3.62l4.43,0.21c0.3,0.01,0.54,0.26,0.54,0.57v17.74C199.21,218.84,198.96,219.09,198.64,219.09z
				 M162.09,217.96h35.98v-16.63l-4.43-0.21c-0.3-0.01-0.54-0.26-0.54-0.57l0-3.6h-31.01V217.96z"/>
		</g>
	</g>
</g>
<g>
</g>
<g>
</g>
<g>
</g>
<g>
</g>
<g>
</g>
</svg>
