<?xml version="1.0" encoding="iso-8859-1"?>
<!-- Generator: Adobe Illustrator 16.0.0, SVG Export Plug-In . SVG Version: 6.00 Build 0)  -->
<!DOCTYPE svg PUBLIC "-//W3C//DTD SVG 1.1//EN" "http://www.w3.org/Graphics/SVG/1.1/DTD/svg11.dtd">
<svg version="1.1" id="Layer_1" xmlns="http://www.w3.org/2000/svg" xmlns:xlink="http://www.w3.org/1999/xlink" x="0px" y="0px"
	 width="512px" height="512px" viewBox="0 0 512 512" style="enable-background:new 0 0 512 512;" xml:space="preserve">
<g>
	<g>
		<path style="fill:#3890C8;" d="M204.841,415.5h-38.574V304.27h-34.863v-31.543h108.203v31.543h-34.766V415.5z"/>
		<path style="fill:#3890C8;" d="M388.63,415.5h-44.629l-27.832-44.629L288.63,415.5h-43.652l47.363-73.047l-44.531-69.727h42.773
			l25.781,44.141l24.805-44.141h44.043l-45.215,72.754L388.63,415.5z"/>
		<path style="fill:#3890C8;" d="M467.634,415.5H429.06V304.27h-34.863v-31.543h108.203v31.543h-34.766V415.5z"/>
	</g>
	<path style="fill:#3790C9;" d="M305.205,457H81.641c-13.319,0-24.218-10.897-24.218-24.218V79.217
		C57.423,65.898,68.321,55,81.641,55h223.564c13.32,0,24.218,10.898,24.218,24.217v108.758l52.804-34.129l0,0V79.217
		c0-42.469-34.552-77.021-77.021-77.021H81.641c-42.47,0-77.021,34.552-77.021,77.021v353.565c0,42.47,34.551,77.021,77.021,77.021
		h223.564c37.437,0,68.705-26.852,75.595-62.304h-56.402C319.96,453.265,313,457,305.205,457z"/>
	<g>
		<polyline style="fill:#3790C9;" points="204.423,90.5 175.423,90.5 175.423,106.5 120.423,106.5 120.423,135.5 205.673,135.5 
			259.423,135.5 259.423,106.5 204.423,106.5 204.423,90.5 175.423,90.5 		"/>
		<path style="fill:#3790C9;" d="M235.623,135.5c0,0-8.729,19.394-13.75,27.667c-6.713,11.062-12.223,17.853-12.223,17.853
			l18.057,18.313l-10.958,29.5L201.123,213.5l-10.748-11.709l-1.252,1.375L173.789,218.5l-24.165,23l-21.333-21.334l13-11.667
			l9.667-9.333l16.999-18l1.5-1.75c0,0-10.166-12.917-13.499-18.917c-3.334-6-8-14.333-9.334-17.667
			c-1.333-3.333-1.583-4.166-1.583-4.166l30.5-0.167l6.125,12.041l3.957,6.625l2.168,3.458l2.022,2.562c0,0,0,0,2.31-3.687
			c5.331-8.509,5.331-8.509,8.084-13.499c1.93-3.497,5.084-10.5,5.084-10.5H235.623"/>
	</g>
</g>
<g>
</g>
<g>
</g>
<g>
</g>
<g>
</g>
<g>
</g>
<g>
</g>
</svg>
