<?xml version="1.0" encoding="iso-8859-1"?>
<!-- Generator: Adobe Illustrator 16.0.0, SVG Export Plug-In . SVG Version: 6.00 Build 0)  -->
<!DOCTYPE svg PUBLIC "-//W3C//DTD SVG 1.1//EN" "http://www.w3.org/Graphics/SVG/1.1/DTD/svg11.dtd">
<svg version="1.1" id="Layer_1" xmlns="http://www.w3.org/2000/svg" xmlns:xlink="http://www.w3.org/1999/xlink" x="0px" y="0px"
	 width="512px" height="512px" viewBox="0 0 512 512" style="enable-background:new 0 0 512 512;" xml:space="preserve">
<g>
	<g>
		<path style="fill:#3890C8;" d="M210.295,324.478c0,11.964-3.528,21.204-10.583,27.722c-7.057,6.52-17.078,9.778-30.066,9.778
			h-8.13V397.5h-28.931V290.42h37.061c13.524,0,23.681,2.955,30.469,8.862C206.9,305.19,210.295,313.59,210.295,324.478z
			 M161.516,338.394h5.273c4.345,0,7.8-1.22,10.364-3.662c2.563-2.441,3.845-5.811,3.845-10.107c0-7.226-4.004-10.84-12.012-10.84
			h-7.471V338.394z"/>
		<path style="fill:#3890C8;" d="M305.07,324.478c0,11.964-3.528,21.204-10.584,27.722c-7.056,6.52-17.077,9.778-30.065,9.778h-8.13
			V397.5H227.36V290.42h37.061c13.524,0,23.682,2.955,30.469,8.862C301.676,305.19,305.07,313.59,305.07,324.478z M256.291,338.394
			h5.273c4.346,0,7.801-1.22,10.363-3.662c2.564-2.441,3.846-5.811,3.846-10.107c0-7.226-4.004-10.84-12.012-10.84h-7.471V338.394z"
			/>
		<path style="fill:#3890C8;" d="M369.377,397.5h-28.931v-83.423h-26.147V290.42h81.152v23.657h-26.074V397.5z"/>
		<path style="fill:#3890C8;" d="M507.219,397.5h-33.472l-20.874-33.472L432.219,397.5h-32.739l35.522-54.785l-33.398-52.295h32.08
			l19.336,33.105l18.604-33.105h33.032l-33.911,54.565L507.219,397.5z"/>
	</g>
	<path style="fill:#3790C9;" d="M304.928,457H81.362c-13.319,0-24.217-10.897-24.217-24.218V79.217
		C57.146,65.898,68.043,55,81.362,55h223.565c13.32,0,24.218,10.898,24.218,24.217v108.758l52.804-34.129l0,0V79.217
		c0-42.469-34.552-77.021-77.021-77.021H81.362c-42.469,0-77.021,34.552-77.021,77.021v353.565c0,42.47,34.552,77.021,77.021,77.021
		h223.565c37.437,0,68.705-26.852,75.595-62.304H324.12C319.683,453.265,312.723,457,304.928,457z"/>
	<g>
		<polyline style="fill:#3790C9;" points="204.146,90.5 175.146,90.5 175.146,106.5 120.146,106.5 120.146,135.5 205.396,135.5 
			259.146,135.5 259.146,106.5 204.146,106.5 204.146,90.5 175.146,90.5 		"/>
		<path style="fill:#3790C9;" d="M235.346,135.5c0,0-8.729,19.394-13.75,27.667c-6.713,11.062-12.223,17.853-12.223,17.853
			l18.057,18.313l-10.958,29.5L200.846,213.5l-10.748-11.709l-1.252,1.375L173.512,218.5l-24.165,23l-21.334-21.334l13-11.667
			l9.667-9.333l17-18l1.5-1.75c0,0-10.167-12.917-13.5-18.917s-8-14.333-9.333-17.667c-1.334-3.333-1.584-4.166-1.584-4.166
			l30.501-0.167l6.125,12.041l3.957,6.625l2.168,3.458l2.022,2.562c0,0,0,0,2.31-3.687c5.331-8.509,5.331-8.509,8.084-13.499
			c1.93-3.497,5.084-10.5,5.084-10.5H235.346"/>
	</g>
</g>
<g>
</g>
<g>
</g>
<g>
</g>
<g>
</g>
<g>
</g>
<g>
</g>
</svg>
