<?xml version="1.0" encoding="iso-8859-1"?>
<!-- Generator: Adobe Illustrator 16.0.0, SVG Export Plug-In . SVG Version: 6.00 Build 0)  -->
<!DOCTYPE svg PUBLIC "-//W3C//DTD SVG 1.1//EN" "http://www.w3.org/Graphics/SVG/1.1/DTD/svg11.dtd">
<svg version="1.1" id="Layer_1" xmlns="http://www.w3.org/2000/svg" xmlns:xlink="http://www.w3.org/1999/xlink" x="0px" y="0px"
	 width="512px" height="512px" viewBox="0 0 512 512" style="enable-background:new 0 0 512 512;" xml:space="preserve">
<g id="Imaging">
	<path style="fill:#3A8FC6;" d="M475.703,395.146c0,20.139-16.477,36.617-36.617,36.617H72.914
		c-20.14,0-36.617-16.479-36.617-36.617V116.854c0-20.14,16.478-36.618,36.617-36.618h366.172c20.141,0,36.617,16.479,36.617,36.618
		V395.146z M72.914,109.53c-3.892,0-7.324,3.433-7.324,7.324v278.292c0,3.891,3.433,7.324,7.324,7.324h366.172
		c3.891,0,7.324-3.434,7.324-7.324V116.854c0-3.892-3.434-7.324-7.324-7.324H72.914z"/>
	<polygon style="fill:#3A8FC6;" points="203.489,378.403 257.318,309.062 368.816,415.038 439.786,424 204.09,417.987 	"/>
	<polygon style="fill:#3A8FC6;" points="61.489,351.003 147.667,256 326.168,409.652 439.786,424 62.452,414.374 	"/>
	<path style="fill:#3A8FC6;" d="M138.825,224.706c-24.259,0-43.94-19.682-43.94-43.941c0-24.259,19.682-43.94,43.94-43.94
		s43.94,19.682,43.94,43.94C182.766,205.024,163.084,224.706,138.825,224.706z"/>
	<polygon style="fill:#3A8FC6;" points="455.473,362.486 418.953,310.074 444.388,310.074 405.664,254.5 427.962,254.5 382,188.538 
		336.038,254.5 358.336,254.5 319.612,310.074 345.047,310.074 308.527,362.486 	"/>
	<rect x="372" y="358" style="fill:#3A8FC6;" width="20.5" height="62"/>
</g>
<g>
</g>
<g>
</g>
<g>
</g>
<g>
</g>
<g>
</g>
<g>
</g>
</svg>
