<svg version="1.1" id="GroupDocs.Viewer" xmlns="http://www.w3.org/2000/svg" x="0" y="0" viewBox="0 0 280 200" style="enable-background:new 0 0 280 200" xml:space="preserve"><style>.st0{fill:#dcdcdc}.st2{fill:#fff}</style><g id="Viewer_2_"><g id="Base_2_"><g id="Platforms_n_Lines"><g id="Lines_1_"><path class="st0" d="M164.5 118.5h100.4v1H164.5zM164 97.3h100.4v1H164zM154 49.8h33.9v1H154zM196 47.7h1v5h-1zM196 58.8h1v20h-1zM264.1 79.8h1v4h-1zM264 58.8h1v4h-1z"/><path class="st0" d="M264.1 89.8h1v29.7h-1zM172 107.8h37v1h-37zM166.4 128.8H202v1h-35.6z"/><path transform="rotate(90 201.476 148.81)" class="st0" d="M181.5 148.3h39.9v1h-39.9z"/><path transform="rotate(-180 160.009 166.278)" class="st0" d="M132 165.8h55.9v1H132z"/><path class="st0" d="M201 174.8h1v5h-1zM263.9 147.8h1v5h-1z"/><path transform="rotate(90 243.468 153.81)" class="st0" d="M212.5 153.3h61.9v1h-61.9z"/><path transform="rotate(90 217.442 153.278)" class="st0" d="M190.9 152.8H244v1h-53.1z"/><path transform="rotate(90 211.442 161.251)" class="st0" d="M210.9 158.7h1v5h-1z"/><path class="st0" d="M171 87h36v1h-36z"/><path class="st0" d="M206 60.8h1v26.7h-1zM217 74.8h1v4h-1z"/><path transform="rotate(90 212.867 61.322)" class="st0" d="M212.4 55.2h1v12.3h-1z"/><path transform="rotate(-180 227.579 67.653)" class="st0" d="M227.1 61.5h1v12.3h-1z"/><path transform="rotate(-90 240.536 61.206)" class="st0" d="M240 47.7h1v26.9h-1z"/><path class="st0" d="M253 57.7h1v4h-1z"/></g><g id="Platform_Icons_1_"><circle cx="237.9" cy="156.3" r="25" style="fill:#ea531a"/><path class="st2" d="M224.6 153.6c-1.5 0-2.7 1.2-2.7 2.7s1.2 2.7 2.7 2.7 2.7-1.2 2.7-2.7c0-1.5-1.2-2.7-2.7-2.7zm19.2 12.2c-1.3.7-1.7 2.4-1 3.7s2.4 1.7 3.7 1 1.7-2.4 1-3.7c-.8-1.3-2.5-1.7-3.7-1zm-13.4-9.5c0-2.6 1.3-5 3.3-6.4l-2-3.3c-2.4 1.6-4.1 4-4.8 6.8.9.7 1.4 1.7 1.4 2.9s-.5 2.2-1.4 2.9c.7 2.8 2.5 5.2 4.8 6.8l2-3.3c-2-1.4-3.3-3.8-3.3-6.4zm7.9-7.9c4.1 0 7.5 3.1 7.8 7.1l3.8-.1c-.2-3-1.5-5.6-3.5-7.6-1 .4-2.2.3-3.2-.3s-1.7-1.6-1.8-2.7c-1-.3-2-.4-3.1-.4-1.9 0-3.6.4-5.2 1.2l1.9 3.3c1-.2 2.1-.5 3.3-.5zm0 15.7c-1.2 0-2.3-.3-3.3-.7l-1.9 3.3c1.6.8 3.3 1.2 5.2 1.2 1.1 0 2.1-.1 3.1-.4.2-1.1.8-2.1 1.8-2.7 1-.6 2.2-.6 3.2-.3 2-1.9 3.3-4.6 3.5-7.6l-3.8-.1c-.4 4.2-3.7 7.3-7.8 7.3zm5.5-17.3c1.3.7 2.9.3 3.7-1s.3-2.9-1-3.7-2.9-.3-3.7 1c-.8 1.3-.3 2.9 1 3.7z" id="Ubuntu_Icon_1_"/><circle cx="238.1" cy="97.4" style="fill:#444" r="25"/><path class="st2" d="M244.5 97.8c0 4.1 3.6 5.4 3.6 5.5s-.6 1.9-1.9 3.8c-1.1 1.6-2.3 3.3-4.1 3.3s-2.4-1.1-4.5-1.1-2.7 1-4.4 1.1c-1.8.1-3.1-1.8-4.3-3.4-2.3-3.3-4.1-9.5-1.7-13.6 1.2-2.1 3.3-3.3 5.6-3.4 1.7 0 3.4 1.2 4.5 1.2s3.1-1.4 5.2-1.2c.9 0 3.4.4 4.9 2.7-.2 0-3 1.7-2.9 5.1m-3.4-10c.9-1.1 1.6-2.7 1.4-4.3-1.4.1-3 .9-4 2.1-.9 1-1.6 2.6-1.4 4.2 1.5 0 3-.9 4-2" id="Apple_Icon_1_"/><g><circle cx="237.9" cy="38.4" style="fill:#0079d8" r="25"/><path class="st2" d="M250.4 39.8v12.1c0 .3-.3.5-.6.5l-11.9-1.6c-.3 0-.5-.2-.5-.5V39.8c0-.3.2-.5.5-.5h12c.3 0 .5.2.5.5zm-14.3 0V50c0 .3-.3.5-.6.5l-11.2-1.4c-.3 0-.5-.3-.5-.5v-8.7c0-.3.2-.5.6-.5H235.7c.1-.1.4.1.4.4zm0-12.3v10c0 .3-.2.5-.5.5h-11.3c-.3 0-.6-.2-.6-.5V29c0-.3.2-.5.5-.5l11.3-1.4h.1c.2-.1.5.1.5.4zM249.9 38h-12c-.3 0-.6-.2-.6-.5V27.2c0-.3.2-.5.5-.5l11.9-1.6h.1c.3 0 .6.2.6.5v11.8c0 .3-.2.6-.5.6z" id="Windows_Icon_1_"/></g></g></g><circle class="st2" cx="97.4" cy="99.8" r="72.5"/><path d="M97.4 174.8c-41.4 0-75-33.6-75-75s33.6-75 75-75 75 33.6 75 75c0 41.3-33.6 75-75 75zm0-145c-38.6 0-70 31.4-70 70s31.4 70 70 70 70-31.4 70-70-31.4-70-70-70z" style="fill:#b4b4b4"/></g><path d="M97.5 77.1C73.3 77.1 61.9 99 61.9 99s11.5 22.8 36.6 22.8S133.2 99 133.2 99s-11.5-21.9-35.7-21.9zm.7 39c-20.4 0-29.8-17-29.8-17s9.4-16.3 29-16.3c19.7 0 29 16.3 29 16.3s-7.7 17-28.2 17zm-.7-29.9c-7.1 0-12.8 5.7-12.8 12.8s5.7 12.8 12.8 12.8c7.1 0 12.8-5.7 12.8-12.8s-5.7-12.8-12.8-12.8zm0 18.2c-3 0-5.5-2.4-5.5-5.5 0-3 2.5-5.5 5.5-5.5s5.5 2.4 5.5 5.5-2.5 5.5-5.5 5.5z" style="fill-rule:evenodd;clip-rule:evenodd;fill:#b4b4b4" id="Viewer"/></g></svg>