<svg version="1.1" id="GroupDocs.Search_2_" xmlns="http://www.w3.org/2000/svg" x="0" y="0" viewBox="0 0 280 200" style="enable-background:new 0 0 280 200" xml:space="preserve"><style>.st0{fill:#dcdcdc}.st2{fill:#fff}</style><g id="Search"><g id="Base_2_"><g id="Platforms_n_Lines"><g id="Lines_1_"><path class="st0" d="M164.5 118.7h100.4v1H164.5zM164 97.6h100.4v1H164zM154 50h33.9v1H154zM196 48h1v5h-1zM196 59h1v20h-1zM264.1 80h1v4h-1zM264 59h1v4h-1z"/><path class="st0" d="M264.1 90h1v29.7h-1zM172 108h37v1h-37zM166.4 129.1H202v1h-35.6z"/><path transform="rotate(90 201.476 149.022)" class="st0" d="M181.5 148.5h39.9v1h-39.9z"/><path transform="rotate(-180 160.009 166.49)" class="st0" d="M132 166h55.9v1H132z"/><path class="st0" d="M201 175h1v5h-1zM263.9 148h1v5h-1z"/><path transform="rotate(90 243.468 154.023)" class="st0" d="M212.5 153.5h61.9v1h-61.9z"/><path transform="rotate(90 217.442 153.49)" class="st0" d="M190.9 153H244v1h-53.1z"/><path transform="rotate(90 211.442 161.463)" class="st0" d="M210.9 159h1v5h-1z"/><path class="st0" d="M171 87.2h36v1h-36z"/><path class="st0" d="M206 61h1v26.7h-1zM217 75h1v4h-1z"/><path transform="rotate(90 212.867 61.534)" class="st0" d="M212.4 55.4h1v12.3h-1z"/><path transform="rotate(-180 227.579 67.865)" class="st0" d="M227.1 61.7h1V74h-1z"/><path transform="rotate(-90 240.536 61.418)" class="st0" d="M240 48h1v26.9h-1z"/><path class="st0" d="M253 57.9h1v4h-1z"/></g><g id="Platform_Icons_1_"><circle cx="237.9" cy="156.5" r="25" style="fill:#ea531a"/><path class="st2" d="M224.6 153.8c-1.5 0-2.7 1.2-2.7 2.7s1.2 2.7 2.7 2.7 2.7-1.2 2.7-2.7c0-1.5-1.2-2.7-2.7-2.7zm19.2 12.2c-1.3.7-1.7 2.4-1 3.7s2.4 1.7 3.7 1 1.7-2.4 1-3.7c-.8-1.3-2.5-1.7-3.7-1zm-13.4-9.5c0-2.6 1.3-5 3.3-6.4l-2-3.3c-2.4 1.6-4.1 4-4.8 6.8.9.7 1.4 1.7 1.4 2.9s-.5 2.2-1.4 2.9c.7 2.8 2.5 5.2 4.8 6.8l2-3.3c-2-1.4-3.3-3.8-3.3-6.4zm7.9-7.9c4.1 0 7.5 3.1 7.8 7.1l3.8-.1c-.2-3-1.5-5.6-3.5-7.6-1 .4-2.2.3-3.2-.3s-1.7-1.6-1.8-2.7c-1-.3-2-.4-3.1-.4-1.9 0-3.6.4-5.2 1.2l1.9 3.3c1-.2 2.1-.5 3.3-.5zm0 15.7c-1.2 0-2.3-.3-3.3-.7l-1.9 3.3c1.6.8 3.3 1.2 5.2 1.2 1.1 0 2.1-.1 3.1-.4.2-1.1.8-2.1 1.8-2.7 1-.6 2.2-.6 3.2-.3 2-1.9 3.3-4.6 3.5-7.6l-3.8-.1c-.4 4.2-3.7 7.3-7.8 7.3zm5.5-17.3c1.3.7 2.9.3 3.7-1s.3-2.9-1-3.7-2.9-.3-3.7 1c-.8 1.3-.3 2.9 1 3.7z" id="Ubuntu_Icon_1_"/><circle cx="238.1" cy="97.6" style="fill:#444" r="25"/><path class="st2" d="M244.5 98c0 4.1 3.6 5.4 3.6 5.5s-.6 1.9-1.9 3.8c-1.1 1.6-2.3 3.3-4.1 3.3s-2.4-1.1-4.5-1.1-2.7 1-4.4 1.1c-1.8.1-3.1-1.8-4.3-3.4-2.3-3.3-4.1-9.5-1.7-13.6 1.2-2.1 3.3-3.3 5.6-3.4 1.7 0 3.4 1.2 4.5 1.2s3.1-1.4 5.2-1.2c.9 0 3.4.4 4.9 2.7-.2 0-3 1.7-2.9 5.1m-3.4-10c.9-1.1 1.6-2.7 1.4-4.3-1.4.1-3 .9-4 2.1-.9 1-1.6 2.6-1.4 4.2 1.5 0 3-.9 4-2" id="Apple_Icon_1_"/><g><circle cx="237.9" cy="38.6" style="fill:#0079d8" r="25"/><path class="st2" d="M250.4 40v12.1c0 .3-.3.5-.6.5L237.9 51c-.3 0-.5-.2-.5-.5V40c0-.3.2-.5.5-.5h12c.3 0 .5.2.5.5zm-14.3 0v10.2c0 .3-.3.5-.6.5l-11.2-1.4c-.3 0-.5-.3-.5-.5v-8.7c0-.3.2-.5.6-.5H235.7c.1-.1.4.1.4.4zm0-12.3v10c0 .3-.2.5-.5.5h-11.3c-.3 0-.6-.2-.6-.5v-8.5c0-.3.2-.5.5-.5l11.3-1.4h.1c.2-.1.5.1.5.4zm13.8 10.5h-12c-.3 0-.6-.2-.6-.5V27.4c0-.3.2-.5.5-.5l11.9-1.6h.1c.3 0 .6.2.6.5v11.8c0 .3-.2.6-.5.6z" id="Windows_Icon_1_"/></g></g></g><circle class="st2" cx="97.4" cy="100" r="72.5"/><path d="M97.4 175c-41.4 0-75-33.6-75-75s33.6-75 75-75 75 33.6 75 75-33.6 75-75 75zm0-145c-38.6 0-70 31.4-70 70s31.4 70 70 70 70-31.4 70-70-31.4-70-70-70z" style="fill:#b4b4b4"/></g><path d="M130.6 121.2 119 111.1l-.1-.1c1.6-2.4 2.5-5.3 2.5-8.4 0-8.4-6.8-15.3-15.3-15.3-8.4 0-15.3 6.8-15.3 15.3 0 8.4 6.8 15.3 15.3 15.3 3.1 0 6-.9 8.4-2.5l.1.1 10.1 11.6c1.6 1.6 4.3 1.6 5.9 0 1.6-1.6 1.6-4.2 0-5.9zm-24.6-8.6c-5.5 0-10-4.5-10-10s4.5-10 10-10 10 4.5 10 10-4.5 10-10 10zm2.5 10.9H81.7c-1.5 0-2.8-1.2-2.8-2.8V79.2c0-1.5 1.2-2.8 2.8-2.8h26.8c1.5 0 2.8 1.2 2.8 2.8v5.9c2.3.5 4.5 1.4 6.5 2.6v-8.5c0-5.1-4.1-9.2-9.2-9.2H81.7c-5.1 0-9.2 4.1-9.2 9.2v41.5c0 5.1 4.1 9.2 9.2 9.2h26.8c5.1 0 9.2-4.1 9.2-9.2v-.5c-2.3 1.5-4.9 2.4-7.7 2.8-.4.4-.9.5-1.5.5zm-2.9-38.7v-.2c0-1.8-1.4-3.2-3.2-3.2H85.7c-1.8 0-3.2 1.4-3.2 3.2 0 1.8 1.4 3.2 3.2 3.2H97c2.5-1.6 5.4-2.7 8.6-3zM82.5 95.3c0 1.8 1.4 3.2 3.2 3.2H89c.7-2.4 1.8-4.6 3.3-6.5h-6.6c-1.8.1-3.2 1.5-3.2 3.3zm22.7-.3h-2c-6 2.7-5.1 7.7-5.1 7.7h7.1c1.9 0 3.5-1.7 3.5-3.9 0-2.1-1.6-3.8-3.5-3.8z" style="fill-rule:evenodd;clip-rule:evenodd;fill:#b4b4b4" id="GroupDocs.Search"/></g></svg>