<svg version="1.1" id="GroupDocs.Annotation" xmlns="http://www.w3.org/2000/svg" x="0" y="0" viewBox="0 0 280 200" style="enable-background:new 0 0 280 200" xml:space="preserve"><style>.st0{fill:#dcdcdc}.st2{fill:#fff}</style><g id="Base_2_"><g id="Platforms_n_Lines"><g id="Lines_1_"><path class="st0" d="M163.2 118.4h100.4v1H163.2zM162.7 97.3h100.4v1H162.7zM152.7 49.7h33.9v1h-33.9zM194.6 47.7h1v5h-1zM194.7 58.7h1v20h-1zM262.7 79.7h1v4h-1zM262.7 58.8h1v4h-1z"/><path class="st0" d="M262.7 89.7h1v29.7h-1zM170.6 107.7h37v1h-37zM165 128.8h35.6v1H165z"/><path transform="rotate(90 200.147 148.734)" class="st0" d="M180.2 148.2h39.9v1h-39.9z"/><path transform="rotate(-180 158.68 166.201)" class="st0" d="M130.7 165.7h55.9v1h-55.9z"/><path class="st0" d="M199.6 174.7h1v5h-1zM262.6 147.7h1v5h-1z"/><path transform="rotate(90 242.14 153.734)" class="st0" d="M211.2 153.2h61.9v1h-61.9z"/><path transform="rotate(90 216.113 153.202)" class="st0" d="M189.6 152.7h53.1v1h-53.1z"/><path transform="rotate(90 210.113 161.175)" class="st0" d="M209.6 158.7h1v5h-1z"/><path class="st0" d="M169.6 86.9h36v1h-36z"/><path class="st0" d="M204.7 60.7h1v26.7h-1zM215.7 74.7h1v4h-1z"/><path transform="rotate(90 211.538 61.246)" class="st0" d="M211 55.1h1v12.3h-1z"/><path transform="rotate(-180 226.25 67.576)" class="st0" d="M225.7 61.4h1v12.3h-1z"/><path transform="rotate(-90 239.207 61.13)" class="st0" d="M238.7 47.7h1v26.9h-1z"/><path class="st0" d="M251.7 57.7h1v4h-1z"/></g><g id="Platform_Icons_1_"><circle cx="236.5" cy="156.2" r="25" style="fill:#ea531a"/><path class="st2" d="M223.2 153.5c-1.5 0-2.7 1.2-2.7 2.7s1.2 2.7 2.7 2.7 2.7-1.2 2.7-2.7c0-1.5-1.2-2.7-2.7-2.7zm19.2 12.2c-1.3.7-1.7 2.4-1 3.7s2.4 1.7 3.7 1 1.7-2.4 1-3.7c-.8-1.3-2.5-1.7-3.7-1zm-13.4-9.5c0-2.6 1.3-5 3.3-6.4l-2-3.3c-2.4 1.6-4.1 4-4.8 6.8.9.7 1.4 1.7 1.4 2.9s-.5 2.2-1.4 2.9c.7 2.8 2.5 5.2 4.8 6.8l2-3.3c-2-1.4-3.3-3.8-3.3-6.4zm7.9-7.9c4.1 0 7.5 3.1 7.8 7.1l3.8-.1c-.2-3-1.5-5.6-3.5-7.6-1 .4-2.2.3-3.2-.3s-1.7-1.6-1.8-2.7c-1-.3-2-.4-3.1-.4-1.9 0-3.6.4-5.2 1.2l1.9 3.3c1-.2 2.1-.5 3.3-.5zm0 15.7c-1.2 0-2.3-.3-3.3-.7l-1.9 3.3c1.6.8 3.3 1.2 5.2 1.2 1.1 0 2.1-.1 3.1-.4.2-1.1.8-2.1 1.8-2.7 1-.6 2.2-.6 3.2-.3 2-1.9 3.3-4.6 3.5-7.6l-3.8-.1c-.4 4.2-3.7 7.3-7.8 7.3zm5.5-17.3c1.3.7 2.9.3 3.7-1s.3-2.9-1-3.7-2.9-.3-3.7 1c-.8 1.3-.3 2.9 1 3.7z" id="Ubuntu_Icon_1_"/><circle cx="236.8" cy="97.3" style="fill:#444" r="25"/><path class="st2" d="M243.1 97.7c0 4.1 3.6 5.4 3.6 5.5s-.6 1.9-1.9 3.8c-1.1 1.6-2.3 3.3-4.1 3.3s-2.4-1.1-4.5-1.1-2.7 1-4.4 1.1c-1.8.1-3.1-1.8-4.3-3.4-2.3-3.3-4.1-9.5-1.7-13.6 1.2-2.1 3.3-3.3 5.6-3.4 1.7 0 3.4 1.2 4.5 1.2s3.1-1.4 5.2-1.2c.9 0 3.4.4 4.9 2.7-.2 0-3 1.7-2.9 5.1m-3.4-10c.9-1.1 1.6-2.7 1.4-4.3-1.4.1-3 .9-4 2.1-.9 1-1.6 2.6-1.4 4.2 1.5 0 3-.9 4-2" id="Apple_Icon_1_"/><g><circle cx="236.6" cy="38.3" style="fill:#0079d8" r="25"/><path class="st2" d="M249 39.7v12.1c0 .3-.3.5-.6.5l-11.9-1.6c-.3 0-.5-.2-.5-.5V39.7c0-.3.2-.5.5-.5h12c.3 0 .5.2.5.5zm-14.3 0v10.2c0 .3-.3.5-.6.5L222.9 49c-.3 0-.5-.3-.5-.5v-8.7c0-.3.2-.5.6-.5H234.3c.1-.1.4.1.4.4zm0-12.3v10c0 .3-.2.5-.5.5h-11.3c-.3 0-.6-.2-.6-.5v-8.5c0-.3.2-.5.5-.5l11.3-1.4h.1c.2-.1.5.1.5.4zm13.8 10.5h-12c-.3 0-.6-.2-.6-.5V27.1c0-.3.2-.5.5-.5l11.9-1.6h.1c.3 0 .6.2.6.5v11.8c0 .3-.2.6-.5.6z" id="Windows_Icon_1_"/></g></g></g><circle cx="96.1" cy="99.7" r="72.5" style="fill:#fff;stroke:#b4b4b4;stroke-width:5;stroke-miterlimit:10"/></g><path d="m94.4 104.6 11-3.1 2.4-2.4-7.9-7.9-2.4 2.4-3.1 11zm26.9-13.8v21.6c0 1.5-1.2 2.8-2.8 2.8h-6.4l-.1 9.3-14.7-9.3H73.1c-1.5 0-2.8-1.2-2.8-2.8V85.6c0-1.5 1.2-2.8 2.8-2.8h28.7l6.5-6.5H73.1c-5.1 0-9.3 4.1-9.3 9.3v26.8c0 5.1 4.2 9.3 9.3 9.3h23.3l22.1 14.8v-14.8c5.1 0 9.3-4.1 9.3-9.3v-27l-6.5 5.4zm13.2-26.2c-2.2-2.2-5.7-2.2-7.9 0l-24.1 24.1 7.9 7.9 24.1-24.1c2.2-2.2 2.2-5.7 0-7.9zm-55.4 38.6c-1.8 0-3.2 1.5-3.2 3.2 0 1.8 1.5 3.2 3.2 3.2h8.3c1.8 0 3.2-1.5 3.2-3.2 0-1.8-1.5-3.2-3.2-3.2h-8.3z" style="fill-rule:evenodd;clip-rule:evenodd;fill:#b4b4b4" id="annotation"/></svg>