<svg version="1.1" id="GroupDocs.Redaction" xmlns="http://www.w3.org/2000/svg" x="0" y="0" viewBox="0 0 280 200" style="enable-background:new 0 0 280 200" xml:space="preserve"><style>.st0{fill:#dcdcdc}.st2{fill:#fff}.st5{fill:#b4b4b4}</style><g id="Redaction_1_"><g id="Base_2_"><g id="Platforms_n_Lines"><g id="Lines_1_"><path class="st0" d="M164.8 119h100.4v1H164.8zM164.2 97.9h100.4v1H164.2zM154.2 50.4h33.9v1h-33.9zM196.2 48.3h1v5h-1zM196.2 59.3h1v20h-1zM264.3 80.4h1v4h-1zM264.2 59.4h1v4h-1z"/><path class="st0" d="M264.3 90.4h1v29.7h-1zM172.2 108.3h37v1h-37zM166.6 129.4h35.6v1h-35.6z"/><path transform="rotate(90 201.707 149.387)" class="st0" d="M181.7 148.9h39.9v1h-39.9z"/><path transform="rotate(-180 160.24 166.854)" class="st0" d="M132.3 166.4h55.9v1h-55.9z"/><path class="st0" d="M201.2 175.4h1v5h-1zM264.1 148.3h1v5h-1z"/><path transform="rotate(90 243.699 154.388)" class="st0" d="M212.8 153.9h61.9v1h-61.9z"/><path transform="rotate(90 217.672 153.855)" class="st0" d="M191.1 153.4h53.1v1h-53.1z"/><path transform="rotate(90 211.672 161.828)" class="st0" d="M211.2 159.3h1v5h-1z"/><path class="st0" d="M171.2 87.6h36v1h-36z"/><path class="st0" d="M206.2 61.4h1v26.7h-1zM217.2 75.3h1v4h-1z"/><path transform="rotate(90 213.097 61.899)" class="st0" d="M212.6 55.8h1v12.3h-1z"/><path transform="rotate(-180 227.81 68.23)" class="st0" d="M227.3 62.1h1v12.3h-1z"/><path transform="rotate(-90 240.766 61.783)" class="st0" d="M240.3 48.3h1v26.9h-1z"/><path class="st0" d="M253.2 58.3h1v4h-1z"/></g><g id="Platform_Icons_1_"><circle cx="238.1" cy="156.9" r="25" style="fill:#ea531a"/><path class="st2" d="M224.8 154.2c-1.5 0-2.7 1.2-2.7 2.7s1.2 2.7 2.7 2.7 2.7-1.2 2.7-2.7c0-1.5-1.2-2.7-2.7-2.7zm19.2 12.2c-1.3.7-1.7 2.4-1 3.7s2.4 1.7 3.7 1 1.7-2.4 1-3.7c-.8-1.3-2.5-1.7-3.7-1zm-13.4-9.5c0-2.6 1.3-5 3.3-6.4l-2-3.3c-2.4 1.6-4.1 4-4.8 6.8.9.7 1.4 1.7 1.4 2.9s-.5 2.2-1.4 2.9c.7 2.8 2.5 5.2 4.8 6.8l2-3.3c-2-1.4-3.3-3.8-3.3-6.4zm7.9-7.9c4.1 0 7.5 3.1 7.8 7.1l3.8-.1c-.2-3-1.5-5.6-3.5-7.6-1 .4-2.2.3-3.2-.3s-1.7-1.6-1.8-2.7c-1-.3-2-.4-3.1-.4-1.9 0-3.6.4-5.2 1.2l1.9 3.3c1-.2 2.1-.5 3.3-.5zm0 15.7c-1.2 0-2.3-.3-3.3-.7l-1.9 3.3c1.6.8 3.3 1.2 5.2 1.2 1.1 0 2.1-.1 3.1-.4.2-1.1.8-2.1 1.8-2.7 1-.6 2.2-.6 3.2-.3 2-1.9 3.3-4.6 3.5-7.6l-3.8-.1c-.4 4.2-3.7 7.3-7.8 7.3zm5.5-17.3c1.3.7 2.9.3 3.7-1s.3-2.9-1-3.7-2.9-.3-3.7 1c-.8 1.3-.3 2.9 1 3.7z" id="Ubuntu_Icon_1_"/><circle cx="238.3" cy="97.9" style="fill:#444" r="25"/><path class="st2" d="M244.7 98.4c0 4.1 3.6 5.4 3.6 5.5s-.6 1.9-1.9 3.8c-1.1 1.6-2.3 3.3-4.1 3.3s-2.4-1.1-4.5-1.1-2.7 1-4.4 1.1c-1.8.1-3.1-1.8-4.3-3.4-2.3-3.3-4.1-9.5-1.7-13.6 1.2-2.1 3.3-3.3 5.6-3.4 1.7 0 3.4 1.2 4.5 1.2s3.1-1.4 5.2-1.2c.9 0 3.4.4 4.9 2.7-.2 0-3 1.7-2.9 5.1m-3.4-10c.9-1.1 1.6-2.7 1.4-4.3-1.4.1-3 .9-4 2.1-.9 1-1.6 2.6-1.4 4.2 1.5 0 3-.9 4-2" id="Apple_Icon_1_"/><g><circle cx="238.2" cy="39" style="fill:#0079d8" r="25"/><path class="st2" d="M250.6 40.4v12.1c0 .3-.3.5-.6.5l-11.9-1.6c-.3 0-.5-.2-.5-.5V40.4c0-.3.2-.5.5-.5h12c.3 0 .5.2.5.5zm-14.3 0v10.2c0 .3-.3.5-.6.5l-11.2-1.4c-.3 0-.5-.3-.5-.5v-8.7c0-.3.2-.5.6-.5H235.9c.1-.1.4.1.4.4zm0-12.3v10c0 .3-.2.5-.5.5h-11.3c-.3 0-.6-.2-.6-.5v-8.5c0-.3.2-.5.5-.5l11.3-1.4h.1c.2-.1.5.1.5.4zm13.8 10.5h-12c-.3 0-.6-.2-.6-.5V27.8c0-.3.2-.5.5-.5l11.9-1.6h.1c.3 0 .6.2.6.5V38c0 .3-.2.6-.5.6z" id="Windows_Icon_1_"/></g></g></g><circle class="st2" cx="97.6" cy="100.4" r="72.5"/><path class="st5" d="M97.6 175.4c-41.4 0-75-33.6-75-75s33.6-75 75-75 75 33.6 75 75-33.6 75-75 75zm0-145c-38.6 0-70 31.4-70 70s31.4 70 70 70 70-31.4 70-70-31.4-70-70-70z"/></g><g id="Redaction_2_"><path d="m98.2 114.2-1.1-1.1.5-.5L95 110l-9.5 9.3h13.6l2.7-2.3-3.2-3.2-.4.4zm5.4-21.5h-25c-1.9 0-3.5 1.6-3.5 3.6s1.6 3.6 3.5 3.6h18.1l6.9-7.2zm-25-5.5h21.7c2 0 3.5-1.6 3.5-3.5v-.1c0-2-1.6-3.5-3.5-3.5H78.6c-2 0-3.5 1.6-3.5 3.5v.1c0 1.9 1.6 3.5 3.5 3.5zm53.3-8.8a6.1 6.1 0 0 0-8.8 0l-28.2 30 3.4 3.5 15.3-15.6c-.5-.7-.8-1.6-.8-2.6 0-2.3 1.9-4.3 4.2-4.3.9 0 1.8.3 2.5.8l8-8.2 1.1 1.1-8 8.2c.4.7.6 1.4.6 2.3 0 2.3-1.9 4.3-4.2 4.3-.8 0-1.6-.2-2.2-.7L99.4 113l4.4 4.5 28.2-30c2.4-2.5 2.4-6.6-.1-9.1zm-14.9 18c1.5 0 2.7-1.2 2.7-2.7S118.4 91 117 91c-1.5 0-2.7 1.2-2.7 2.7s1.2 2.7 2.7 2.7z" style="fill-rule:evenodd;clip-rule:evenodd;fill:#b4b4b4" id="Redaction"/><path class="st5" d="M105.7 120.8v1.3c0 1.7-1.3 3-3 3H74.6c-1.6 0-3-1.4-3-3V77.4c0-1.7 1.3-3 3-3h28.1c1.6 0 2.9 1.3 3 2.9h6.7c0-5.4-4.4-9.7-9.7-9.7H74.6c-5.3 0-9.7 4.4-9.7 9.8v44.7c0 5.4 4.4 9.8 9.7 9.8h28.1c5.3 0 9.7-4.4 9.7-9.8v-1.3h-6.7z"/></g></g></svg>