<svg version="1.1" id="GroupDocs.Assembly" xmlns="http://www.w3.org/2000/svg" x="0" y="0" viewBox="0 0 280 200" style="enable-background:new 0 0 280 200" xml:space="preserve"><style>.st0{fill:#dcdcdc}.st2{fill:#fff}</style><g id="Assembly"><g id="Base_2_"><g id="Platforms_n_Lines"><g id="Lines_1_"><path class="st0" d="M163.6 118.9H264v1H163.6zM163.1 97.8h100.4v1H163.1zM153.1 50.3H187v1h-33.9zM195 48.2h1v5h-1zM195.1 59.2h1v20h-1zM263.1 80.3h1v4h-1zM263.1 59.3h1v4h-1z"/><path class="st0" d="M263.1 90.3h1V120h-1zM171.1 108.2h37v1h-37zM165.4 129.3H201v1h-35.6z"/><path transform="rotate(90 200.558 149.268)" class="st0" d="M180.6 148.8h39.9v1h-39.9z"/><path transform="rotate(-180 159.091 166.735)" class="st0" d="M131.1 166.2H187v1h-55.9z"/><path class="st0" d="M200.1 175.3h1v5h-1zM263 148.2h1v5h-1z"/><path transform="rotate(90 242.55 154.269)" class="st0" d="M211.6 153.8h61.9v1h-61.9z"/><path transform="rotate(90 216.524 153.736)" class="st0" d="M190 153.2h53.1v1H190z"/><path transform="rotate(90 210.524 161.709)" class="st0" d="M210 159.2h1v5h-1z"/><path class="st0" d="M170.1 87.5h36v1h-36z"/><path class="st0" d="M205.1 61.3h1V88h-1zM216.1 75.2h1v4h-1z"/><path transform="rotate(90 211.949 61.78)" class="st0" d="M211.4 55.6h1v12.3h-1z"/><path transform="rotate(-180 226.661 68.11)" class="st0" d="M226.2 62h1v12.3h-1z"/><path transform="rotate(-90 239.618 61.664)" class="st0" d="M239.1 48.2h1v26.9h-1z"/><path class="st0" d="M252.1 58.2h1v4h-1z"/></g><g id="Platform_Icons_1_"><circle cx="236.9" cy="156.8" r="25" style="fill:#ea531a"/><path class="st2" d="M223.6 154.1c-1.5 0-2.7 1.2-2.7 2.7s1.2 2.7 2.7 2.7 2.7-1.2 2.7-2.7c0-1.5-1.2-2.7-2.7-2.7zm19.2 12.2c-1.3.7-1.7 2.4-1 3.7s2.4 1.7 3.7 1 1.7-2.4 1-3.7c-.8-1.3-2.5-1.7-3.7-1zm-13.4-9.5c0-2.6 1.3-5 3.3-6.4l-2-3.3c-2.4 1.6-4.1 4-4.8 6.8.9.7 1.4 1.7 1.4 2.9s-.5 2.2-1.4 2.9c.7 2.8 2.5 5.2 4.8 6.8l2-3.3c-2-1.4-3.3-3.8-3.3-6.4zm7.9-7.9c4.1 0 7.5 3.1 7.8 7.1l3.8-.1c-.2-3-1.5-5.6-3.5-7.6-1 .4-2.2.3-3.2-.3s-1.7-1.6-1.8-2.7c-1-.3-2-.4-3.1-.4-1.9 0-3.6.4-5.2 1.2l1.9 3.3c1-.2 2.1-.5 3.3-.5zm0 15.7c-1.2 0-2.3-.3-3.3-.7l-1.9 3.3c1.6.8 3.3 1.2 5.2 1.2 1.1 0 2.1-.1 3.1-.4.2-1.1.8-2.1 1.8-2.7 1-.6 2.2-.6 3.2-.3 2-1.9 3.3-4.6 3.5-7.6l-3.8-.1c-.4 4.2-3.7 7.3-7.8 7.3zm5.5-17.3c1.3.7 2.9.3 3.7-1s.3-2.9-1-3.7-2.9-.3-3.7 1c-.8 1.3-.3 2.9 1 3.7z" id="Ubuntu_Icon_1_"/><circle cx="237.2" cy="97.8" style="fill:#444" r="25"/><path class="st2" d="M243.5 98.3c0 4.1 3.6 5.4 3.6 5.5s-.6 1.9-1.9 3.8c-1.1 1.6-2.3 3.3-4.1 3.3s-2.4-1.1-4.5-1.1-2.7 1-4.4 1.1c-1.8.1-3.1-1.8-4.3-3.4-2.3-3.3-4.1-9.5-1.7-13.6 1.2-2.1 3.3-3.3 5.6-3.4 1.7 0 3.4 1.2 4.5 1.2s3.1-1.4 5.2-1.2c.9 0 3.4.4 4.9 2.7-.2 0-3 1.7-2.9 5.1m-3.4-10c.9-1.1 1.6-2.7 1.4-4.3-1.4.1-3 .9-4 2.1-.9 1-1.6 2.6-1.4 4.2 1.5 0 3-.9 4-2" id="Apple_Icon_1_"/><g><circle cx="237" cy="38.8" style="fill:#0079d8" r="25"/><path class="st2" d="M249.4 40.3v12.1c0 .3-.3.5-.6.5l-11.9-1.6c-.3 0-.5-.2-.5-.5V40.3c0-.3.2-.5.5-.5h12c.3 0 .5.2.5.5zm-14.3 0v10.2c0 .3-.3.5-.6.5l-11.2-1.4c-.3 0-.5-.3-.5-.5v-8.7c0-.3.2-.5.6-.5H234.7c.1-.1.4.1.4.4zm0-12.3v10c0 .3-.2.5-.5.5h-11.3c-.3 0-.6-.2-.6-.5v-8.5c0-.3.2-.5.5-.5l11.3-1.4h.1c.2-.1.5.1.5.4zm13.8 10.5h-12c-.3 0-.6-.2-.6-.5V27.7c0-.3.2-.5.5-.5l11.9-1.6h.1c.3 0 .6.2.6.5v11.8c0 .3-.2.6-.5.6z" id="Windows_Icon_1_"/></g></g></g><circle class="st2" cx="96.5" cy="100.2" r="72.5"/><path d="M96.5 175.2c-41.4 0-75-33.6-75-75s33.6-75 75-75 75 33.6 75 75-33.7 75-75 75zm0-145c-38.6 0-70 31.4-70 70s31.4 70 70 70 70-31.4 70-70-31.4-70-70-70z" style="fill:#b4b4b4"/></g><path d="M63 91.9c0 1.4 1.1 2.4 2.4 2.4h6.9v-4.9h-6.9c-1.3 0-2.4 1.1-2.4 2.5zm-8.3-5.7v31.3c0 3.8 3.1 7 6.9 7h10.7v-4.9H61.6c-1.1 0-2.1-.9-2.1-2.1V86.2c0-1.2.9-2.1 2.1-2.1h10.7v-4.9H61.6c-3.8 0-6.9 3.1-6.9 7zm78.7 14.7c0-1.4-1.1-2.4-2.4-2.4h-6.9v4.9h6.9c1.3-.1 2.4-1.2 2.4-2.5zm0-9c0-1.3-1.1-2.4-2.4-2.4h-6.9v4.9h6.9c1.3-.1 2.4-1.2 2.4-2.5zm-70.4 9c0 1.4 1.1 2.4 2.4 2.4h6.9v-4.9h-6.9c-1.3 0-2.4 1.1-2.4 2.5zm71.8-21.7h-10.7v4.9h10.7c1.1 0 2.1.9 2.1 2.1v31.3c0 1.2-.9 2.1-2.1 2.1h-10.7v4.9h10.7c3.8 0 6.9-3.1 6.9-7V86.2c0-3.9-3.1-7-6.9-7zM111.2 70H84.3c-5.1 0-9.3 4.1-9.3 9.2v41.5c0 5.1 4.1 9.2 9.3 9.2h26.8c5.1 0 9.2-4.1 9.2-9.2V79.2c.1-5.1-4-9.2-9.1-9.2zm2.7 50.7c0 1.5-1.2 2.8-2.8 2.8H84.3c-1.5 0-2.8-1.2-2.8-2.8V79.2c0-1.5 1.2-2.8 2.8-2.8h26.8c1.5 0 2.8 1.2 2.8 2.8v41.5zm-7.8-39.6H89.4c-1.8 0-3.2 1.4-3.2 3.2 0 1.8 1.4 3.2 3.2 3.2H106c1.8 0 3.2-1.4 3.2-3.2.1-1.8-1.3-3.2-3.1-3.2zm0 12H89.4c-1.8 0-3.2 1.4-3.2 3.2 0 1.8 1.4 3.2 3.2 3.2H106c1.8 0 3.2-1.4 3.2-3.2.1-1.8-1.3-3.2-3.1-3.2z" style="fill-rule:evenodd;clip-rule:evenodd;fill:#b4b4b4" id="assembly"/></g></svg>