<?xml version="1.0" encoding="utf-8"?>
<!-- Generator: Adobe Illustrator 25.0.1, SVG Export Plug-In . SVG Version: 6.00 Build 0)  -->
<svg xmlns="http://www.w3.org/2000/svg" xmlns:xlink="http://www.w3.org/1999/xlink" version="1.1" id="Layer_1" x="0px" y="0px" viewBox="0 0 335 283" style="enable-background:new 0 0 335 283;" xml:space="preserve">
<style type="text/css">
	.st0{fill:#EEEEEE;}
	
		.st1{fill:none;stroke:#EEEEEE;stroke-width:3;stroke-linecap:round;stroke-linejoin:round;stroke-miterlimit:10;stroke-dasharray:6,8;}
	.st2{fill:none;stroke:#EEEEEE;stroke-width:3;stroke-linecap:round;stroke-linejoin:round;}
	.st3{fill:none;stroke:#EEEEEE;stroke-width:3;stroke-linecap:round;stroke-linejoin:round;stroke-dasharray:6.5303,8.7071;}
	.st4{fill:none;stroke:#EEEEEE;stroke-width:3;stroke-linecap:round;stroke-linejoin:round;stroke-dasharray:5.6936,7.5915;}
	.st5{fill:#68217A;}
	.st6{fill:#DE4444;}
	.st7{fill:#FFFFFF;}
	.st8{fill:#004482;}
	.st9{fill:#575756;}
	.st10{fill:#3F99D4;}
</style>
<g id="Aspose.Page">
	<polygon class="st0" points="145.32,268.36 32.37,260.36 32.37,113.79 145.32,113.79  "/>
	<polygon class="st0" points="151.32,268.36 219.91,260.36 219.91,113.79 151.32,113.79  "/>
	<g id="lines_17_">
		<polyline class="st1" points="233.79,60.9 233.79,95.61 168.57,95.61 168.57,109.38   "/>
		<polyline class="st1" points="292.44,136.25 241.74,136.25 241.74,179.36 217.77,179.36   "/>
		<g>
			<g>
				<line class="st2" x1="101.51" y1="53.18" x2="98.51" y2="53.18"/>
				<line class="st3" x1="89.8" y1="53.18" x2="63.68" y2="53.18"/>
				<polyline class="st2" points="59.32,53.18 56.32,53.18 56.32,56.18     "/>
				<line class="st4" x1="56.32" y1="63.77" x2="56.32" y2="99.83"/>
				<line class="st2" x1="56.32" y1="103.63" x2="56.32" y2="106.63"/>
			</g>
		</g>
	</g>
	<g id="circles_17_">
		<circle class="st5" cx="116.49" cy="54.08" r="33.61"/>
		<circle class="st6" cx="233.79" cy="34.32" r="33.61"/>
		<g id="java_16_">
			<path id="XMLID_137_" class="st7" d="M233.65,18.67c-1.81,1.27-3.86,2.72-4.96,5.11c-1.91,4.17,3.91,8.71,4.16,8.91     c0.06,0.04,0.13,0.07,0.2,0.07c0.07,0,0.15-0.03,0.21-0.07c0.12-0.1,0.15-0.26,0.08-0.39c-0.02-0.04-2.11-4.1-2.03-7.01     c0.03-1.01,1.45-2.16,2.95-3.38c1.38-1.12,2.94-2.38,3.85-3.86c2-3.26-0.22-6.46-0.25-6.49c-0.09-0.12-0.25-0.17-0.39-0.11     s-0.22,0.21-0.18,0.36c0,0.02,0.44,2.14-0.77,4.32C236,17.02,234.91,17.78,233.65,18.67z"/>
			<path id="XMLID_136_" class="st7" d="M241.28,20.11c0.13-0.1,0.17-0.27,0.09-0.41s-0.25-0.2-0.4-0.15     c-0.31,0.12-7.54,2.9-7.54,6.27c0,2.32,0.99,3.55,1.71,4.44c0.28,0.35,0.53,0.65,0.61,0.91c0.23,0.75-0.31,2.09-0.54,2.55     c-0.07,0.13-0.03,0.29,0.08,0.39c0.06,0.05,0.13,0.08,0.21,0.08c0.06,0,0.13-0.02,0.18-0.06c0.12-0.09,3.04-2.15,2.51-4.63     c-0.19-0.94-0.66-1.63-1.07-2.24c-0.63-0.94-1.09-1.62-0.4-2.88C237.56,22.92,241.25,20.14,241.28,20.11z"/>
			<path id="XMLID_135_" class="st7" d="M222.47,34.24c-0.12,0.37-0.07,0.74,0.17,1.06c0.78,1.09,3.56,1.69,7.81,1.69l0,0     c0.58,0,1.19-0.01,1.81-0.03c6.8-0.24,9.33-2.36,9.43-2.45c0.11-0.1,0.14-0.26,0.07-0.39c-0.07-0.13-0.22-0.2-0.37-0.16     c-2.4,0.65-6.87,0.89-9.98,0.89c-3.47,0-5.24-0.25-5.67-0.43c0.22-0.31,1.59-0.85,3.29-1.18c0.16-0.03,0.27-0.18,0.26-0.35     c-0.02-0.16-0.15-0.29-0.32-0.29C227.98,32.58,222.99,32.66,222.47,34.24z"/>
			<path id="XMLID_134_" class="st7" d="M245.24,32.06c-1.4,0-2.73,0.7-2.79,0.73c-0.13,0.07-0.2,0.22-0.16,0.36     s0.16,0.24,0.31,0.24c0.03,0,2.99,0.02,3.26,1.72c0.24,1.46-2.8,3.83-4,4.62c-0.13,0.09-0.18,0.25-0.12,0.39     c0.05,0.12,0.17,0.2,0.3,0.2c0.02,0,0.04,0,0.07-0.01c0.28-0.06,6.92-1.52,6.22-5.39C247.9,32.56,246.41,32.06,245.24,32.06z"/>
			<path id="XMLID_133_" class="st7" d="M240.69,39.26c0.02-0.12-0.03-0.25-0.13-0.32l-1.59-1.11c-0.08-0.05-0.18-0.07-0.27-0.05     c-0.02,0-1.68,0.44-4.1,0.71c-0.96,0.11-2.03,0.16-3.11,0.16c-2.42,0-4-0.28-4.23-0.49c-0.03-0.06-0.02-0.09-0.02-0.1     c0.04-0.12,0.27-0.25,0.41-0.31c0.16-0.06,0.25-0.23,0.2-0.39s-0.22-0.26-0.38-0.22c-1.6,0.39-2.38,0.92-2.32,1.6     c0.1,1.2,2.88,1.82,5.23,1.98c0.34,0.02,0.7,0.03,1.09,0.03l0,0c3.91,0,8.92-1.23,8.97-1.24     C240.57,39.48,240.66,39.38,240.69,39.26z"/>
			<path id="XMLID_132_" class="st7" d="M228.68,41.84c0.12-0.08,0.17-0.23,0.13-0.36c-0.04-0.14-0.17-0.23-0.32-0.23     c-0.21,0.01-2.09,0.09-2.23,1.29c-0.04,0.36,0.06,0.68,0.3,0.97c0.68,0.8,2.5,1.28,5.57,1.45c0.36,0.02,0.73,0.03,1.1,0.03     c3.91,0,6.54-1.22,6.65-1.27s0.18-0.16,0.18-0.27c0.01-0.12-0.05-0.23-0.15-0.29l-2.01-1.23c-0.07-0.04-0.15-0.06-0.23-0.04     c-0.01,0-1.29,0.27-3.22,0.53c-0.36,0.05-0.82,0.07-1.36,0.07c-1.93,0-4.07-0.31-4.48-0.52     C228.62,41.93,228.63,41.88,228.68,41.84z"/>
			<path id="XMLID_131_" class="st7" d="M231.43,48.68c8.95-0.01,13.75-1.6,14.67-2.6c0.33-0.35,0.36-0.69,0.33-0.91     c-0.07-0.54-0.56-0.87-0.62-0.9c-0.13-0.09-0.31-0.06-0.42,0.06c-0.1,0.12-0.11,0.3,0,0.42c0.06,0.07,0.09,0.19-0.08,0.36     c-0.37,0.35-4.1,1.39-10.31,1.71c-0.85,0.04-1.74,0.07-2.65,0.07c-5.56,0-9.63-0.76-10.16-1.21c0.21-0.3,1.65-0.77,3.18-1.04     c0.17-0.03,0.29-0.19,0.26-0.37s-0.19-0.29-0.36-0.27c-0.04,0.01-0.19,0.01-0.36,0.03c-2.53,0.15-5.44,0.5-5.6,1.8     c-0.05,0.4,0.07,0.76,0.35,1.07C220.35,47.66,222.31,48.68,231.43,48.68L231.43,48.68z"/>
			<path id="XMLID_130_" class="st7" d="M247.86,46.37c-0.13-0.06-0.28-0.03-0.37,0.07c-0.01,0.01-1.36,1.42-5.4,2.25     c-1.55,0.31-4.45,0.47-8.64,0.47s-8.18-0.16-8.22-0.17c-0.17-0.01-0.31,0.11-0.33,0.28c-0.02,0.16,0.08,0.32,0.24,0.36     c0.04,0.01,4.22,0.99,9.94,0.99c2.74,0,5.41-0.22,7.93-0.66c4.7-0.82,5.03-3.15,5.04-3.25     C248.06,46.56,247.98,46.42,247.86,46.37z"/>
		</g>
		<path id="NET_17_" class="st7" d="M125.76,51.05h4.7v14.57h1.91V51.05h4.7v-1.73h-11.31V51.05z M117.23,58.2h5.89v-1.73h-5.89    v-5.42h6.36v-1.73h-8.27v16.3h8.64v-1.73h-6.72L117.23,58.2L117.23,58.2z M109.81,60.81l0.11,2.4h-0.05    c-0.11-0.22-0.34-0.58-0.66-1.09l-8.16-12.79h-2.48v16.3h1.91V53.85l-0.09-2.24h0.07c0.14,0.37,0.31,0.71,0.51,1.02l8.41,12.99    h2.32v-16.3h-1.9L109.81,60.81L109.81,60.81z M94.52,63.32c-0.35,0-0.64,0.12-0.89,0.38c-0.24,0.25-0.36,0.55-0.36,0.91    c0,0.34,0.13,0.66,0.36,0.9c0.24,0.25,0.54,0.38,0.89,0.38c0.36,0,0.66-0.13,0.91-0.38s0.38-0.56,0.38-0.91s-0.13-0.65-0.38-0.91    c-0.24-0.25-0.57-0.39-0.91-0.38 M132.39,46.06c0,0.87,0.39,1.31,1.16,1.31c0.28,0,0.5-0.05,0.67-0.14v-0.61    c-0.13,0.1-0.3,0.15-0.46,0.14c-0.24,0-0.4-0.06-0.51-0.19c-0.1-0.12-0.15-0.34-0.15-0.63v-2.5h1.12v-0.6h-1.11v-1.31l-0.71,0.23    v1.08h-0.76v0.6h0.76v2.63L132.39,46.06z M129.49,47.27h0.71v-3.83h1.04v-0.6h-1.04v-0.68c0-0.63,0.25-0.94,0.74-0.94    c0.16,0,0.33,0.04,0.47,0.12V40.7c-0.13-0.06-0.3-0.08-0.52-0.08c-0.38,0-0.7,0.11-0.96,0.36c-0.3,0.28-0.45,0.66-0.45,1.15v0.72    h-0.75v0.6h0.75v3.84L129.49,47.27z M124.64,45.07c0-0.57,0.14-1,0.42-1.31c0.27-0.29,0.62-0.43,1.06-0.43    c0.45,0,0.8,0.14,1.05,0.43c0.26,0.3,0.39,0.73,0.39,1.3c0,0.54-0.11,0.97-0.36,1.26c-0.24,0.3-0.6,0.45-1.07,0.45    c-0.45,0-0.81-0.15-1.08-0.45C124.77,46.02,124.64,45.6,124.64,45.07 M127.68,46.73c0.4-0.43,0.6-0.99,0.6-1.7    c0-0.72-0.19-1.28-0.56-1.7c-0.37-0.41-0.89-0.61-1.55-0.61c-0.67,0-1.21,0.2-1.61,0.59c-0.43,0.42-0.65,1.02-0.65,1.79    c0,0.68,0.19,1.22,0.57,1.63c0.39,0.43,0.92,0.64,1.59,0.64C126.75,47.37,127.29,47.16,127.68,46.73 M122.8,46.98    c0.27-0.22,0.42-0.56,0.41-0.9c0-0.33-0.11-0.6-0.33-0.81c-0.17-0.17-0.44-0.33-0.82-0.49c-0.34-0.14-0.56-0.27-0.67-0.37    c-0.12-0.11-0.18-0.26-0.18-0.46c0-0.18,0.07-0.33,0.21-0.45s0.33-0.17,0.57-0.17c0.38,0,0.71,0.11,1.01,0.32v-0.72    c-0.28-0.14-0.6-0.21-0.95-0.21c-0.45,0-0.84,0.12-1.13,0.37s-0.44,0.55-0.44,0.92c0,0.33,0.09,0.6,0.28,0.8    c0.16,0.17,0.42,0.34,0.79,0.5c0.36,0.16,0.6,0.29,0.73,0.41s0.19,0.26,0.19,0.43c0,0.41-0.28,0.62-0.85,0.62    c-0.42,0-0.81-0.14-1.15-0.43v0.76c0.31,0.18,0.68,0.27,1.1,0.27C122.09,47.37,122.5,47.24,122.8,46.98 M116.46,43.76    c0.26-0.29,0.63-0.43,1.06-0.43c0.45,0,0.8,0.14,1.05,0.43c0.26,0.3,0.38,0.73,0.38,1.3c0,0.54-0.11,0.97-0.36,1.26    c-0.24,0.3-0.6,0.45-1.07,0.45c-0.45,0-0.81-0.15-1.08-0.45s-0.4-0.71-0.4-1.25C116.05,44.5,116.19,44.06,116.46,43.76     M117.48,47.37c0.68,0,1.21-0.21,1.61-0.64s0.6-0.99,0.6-1.7c0-0.72-0.19-1.28-0.56-1.7c-0.37-0.41-0.89-0.61-1.55-0.61    c-0.67,0-1.21,0.2-1.61,0.59c-0.43,0.42-0.65,1.02-0.65,1.79c0,0.68,0.19,1.22,0.57,1.63C116.28,47.15,116.81,47.37,117.48,47.37     M113.9,42.99c-0.22,0.17-0.38,0.43-0.48,0.75h-0.02v-0.92h-0.71v4.44h0.71v-2.25c0-0.52,0.11-0.92,0.33-1.21    c0.2-0.26,0.44-0.39,0.73-0.39c0.24,0,0.42,0.05,0.54,0.14v-0.74c-0.1-0.04-0.24-0.06-0.43-0.06    C114.33,42.76,114.1,42.84,113.9,42.99 M110.4,47.37c0.47,0,0.88-0.1,1.22-0.31v-0.67c-0.34,0.25-0.7,0.38-1.09,0.38    c-0.45,0-0.82-0.15-1.1-0.45c-0.27-0.3-0.41-0.71-0.41-1.23c0-0.54,0.15-0.97,0.45-1.29c0.28-0.31,0.65-0.47,1.1-0.47    c0.38,0,0.75,0.12,1.06,0.35v-0.73c-0.3-0.15-0.64-0.23-1.03-0.23c-0.7,0-1.27,0.22-1.68,0.67s-0.63,1.04-0.63,1.76    c0,0.65,0.19,1.18,0.57,1.59C109.25,47.17,109.77,47.38,110.4,47.37 M106.47,47.28h0.71v-4.44h-0.71V47.28L106.47,47.28z     M106.83,41.71c0.12,0,0.24-0.05,0.33-0.14c0.09-0.09,0.14-0.21,0.14-0.33c0-0.12-0.05-0.24-0.14-0.33s-0.21-0.13-0.33-0.13    c-0.13,0-0.24,0.04-0.33,0.13c-0.09,0.09-0.14,0.2-0.14,0.33c0,0.14,0.05,0.25,0.14,0.33C106.59,41.67,106.71,41.71,106.83,41.71     M99.29,43.11l-0.03-1.21h0.02c0.06,0.29,0.13,0.5,0.19,0.64l2.12,4.74h0.36l2.13-4.78c0.05-0.13,0.12-0.33,0.19-0.6h0.02    l-0.06,1.2v4.18h0.73v-6.22h-0.91l-1.95,4.31c-0.08,0.17-0.17,0.42-0.3,0.76h-0.03c-0.05-0.17-0.14-0.42-0.28-0.74l-1.91-4.34    h-0.96v6.22h0.7v-4.16H99.29z M136.65,43.83c-0.2,0.2-0.45,0.3-0.74,0.3c-0.29,0-0.54-0.1-0.74-0.3s-0.31-0.45-0.31-0.75    c0-0.29,0.1-0.54,0.3-0.74c0.2-0.2,0.45-0.3,0.75-0.3c0.28-0.01,0.54,0.1,0.74,0.3s0.31,0.47,0.3,0.75    C136.96,43.39,136.85,43.64,136.65,43.83 M135.92,41.92c-0.32-0.01-0.62,0.11-0.85,0.34c-0.22,0.22-0.35,0.52-0.34,0.84    c0,0.34,0.11,0.61,0.34,0.84s0.51,0.33,0.84,0.33c0.32,0.01,0.62-0.11,0.85-0.34c0.23-0.23,0.34-0.5,0.34-0.84    s-0.11-0.63-0.34-0.84C136.54,42.03,136.24,41.92,135.92,41.92 M135.89,43.01h-0.23V42.5h0.19c0.13,0,0.22,0.02,0.28,0.07    c0.05,0.04,0.07,0.1,0.07,0.19C136.2,42.93,136.1,43.01,135.89,43.01 M136.05,43.15L136.05,43.15c0.12-0.03,0.22-0.08,0.28-0.15    c0.07-0.07,0.1-0.17,0.1-0.26c0-0.11-0.04-0.21-0.12-0.28c-0.1-0.09-0.24-0.13-0.43-0.13h-0.42v1.5h0.21V43.2h0.14    c0.1,0,0.19,0.09,0.27,0.27l0.16,0.36h0.26l-0.2-0.4C136.22,43.26,136.13,43.17,136.05,43.15"/>
		
			<ellipse transform="matrix(0.1602 -0.9871 0.9871 0.1602 116.7239 410.1555)" class="st8" cx="299.4" cy="136.48" rx="33.61" ry="33.61"/>
		<g id="CPP_9_">
			<g>
				<path class="st7" d="M289.33,151.48c-2.83-1.5-5.05-3.6-6.67-6.28c-1.62-2.68-2.43-5.73-2.43-9.12c0-3.4,0.81-6.44,2.43-9.12      c1.62-2.68,3.84-4.78,6.67-6.28s6.02-2.26,9.58-2.26c3.11,0,5.9,0.55,8.39,1.65c2.49,1.1,4.56,2.69,6.21,4.75l-6.11,5.53      c-2.2-2.65-4.87-3.98-8.01-3.98c-1.84,0-3.49,0.4-4.92,1.21c-1.44,0.81-2.56,1.95-3.35,3.42s-1.19,3.16-1.19,5.07      s0.4,3.6,1.19,5.07s1.91,2.61,3.35,3.42s3.08,1.21,4.92,1.21c3.14,0,5.81-1.33,8.01-3.98l6.11,5.53      c-1.65,2.07-3.72,3.66-6.21,4.75c-2.49,1.1-5.29,1.65-8.39,1.65C295.35,153.73,292.16,152.98,289.33,151.48z"/>
			</g>
			<g>
				<path class="st7" d="M315.35,137.13h-2.36v2.31h-2.15v-2.31h-2.38v-2.04h2.38v-2.31h2.15v2.31h2.36V137.13z"/>
				<path class="st7" d="M323.98,137.13h-2.36v2.31h-2.15v-2.31h-2.38v-2.04h2.38v-2.31h2.15v2.31h2.36V137.13z"/>
			</g>
		</g>
	</g>
	<g id="Page">
		<path class="st9" d="M188.66,157.57l-17.29,7.07l-10.58,7.07h-5.05l-4.57-4.16c0.03,9.31-0.01,18.92-0.01,28.22v32.87l1.87,3.33    h10.25l7.57-6.81l17.82-4.87l15.2,4.87v-70.3L188.66,157.57z"/>
		<path class="st9" d="M159.35,239.01c-0.53,0-1.06-0.11-1.57-0.33c-1.43-0.62-2.36-2.04-2.36-3.6v-51.89    c0-13.22,8.36-22.94,24.17-28.12c11.39-3.73,23.03-3.92,25.25-3.92l0.27,0c2.15,0.03,3.88,1.78,3.88,3.93v71.42    c0,1.39-0.74,2.68-1.94,3.39c-1.2,0.7-2.68,0.72-3.9,0.05c-0.05-0.02-6.1-3.26-14.71-3.26c-9.48,0-18.37,3.8-26.42,11.28    C161.29,238.65,160.33,239.01,159.35,239.01z M201.13,159.14c-10.25,0.62-37.85,4.15-37.85,24.04v43.69    c7.79-5.35,16.22-8.06,25.16-8.06c5.11,0,9.48,0.92,12.69,1.91V159.14z"/>
		<path class="st9" d="M151.21,160.88c-0.07,3.51-0.06,7.03-0.02,10.55c2.6,3.09,4.22,6.94,4.22,11.75v43.69    c-1.26-0.87-2.96-1.92-4.25-2.64l-0.01,9.53c1.73,1.23,3.85,2.65,5.51,4.2c0.74,0.69,1.7,1.05,2.68,1.05    c0.53,0,1.06-0.11,1.57-0.33c1.43-0.62,2.36-2.04,2.36-3.6v-51.89C163.28,173.9,159.14,166.35,151.21,160.88z"/>
		<rect x="172.92" y="174.1" class="st0" width="25.18" height="3.46"/>
		<rect x="172.92" y="184.58" class="st0" width="25.18" height="3.46"/>
		<rect x="172.92" y="195.06" class="st0" width="25.18" height="3.46"/>
		<rect x="172.92" y="205.54" class="st0" width="25.18" height="3.46"/>
	</g>
	<g>
		<g>
			<path class="st10" d="M95.59,179.75c0,6.38-1.88,11.31-5.64,14.79c-3.76,3.48-9.11,5.21-16.04,5.21h-4.34v18.95H54.15v-57.11     h19.77c7.21,0,12.63,1.58,16.25,4.73C93.78,169.46,95.59,173.94,95.59,179.75z M69.58,187.17h2.81c2.32,0,4.16-0.65,5.53-1.95     c1.37-1.3,2.05-3.1,2.05-5.39c0-3.85-2.14-5.78-6.41-5.78h-3.98V187.17z"/>
		</g>
		<g>
			<path class="st10" d="M129.44,185.94v4.54l-5.13,1.32c0.94,1.46,1.41,3.11,1.41,4.92c0,3.52-1.23,6.25-3.68,8.22     c-2.45,1.96-5.85,2.94-10.21,2.94l-1.61-0.09l-1.32-0.15c-0.92,0.7-1.38,1.48-1.38,2.34c0,1.29,1.64,1.93,4.92,1.93h5.57     c3.59,0,6.33,0.77,8.22,2.31c1.88,1.54,2.83,3.81,2.83,6.8c0,3.83-1.6,6.8-4.79,8.91s-7.78,3.16-13.75,3.16     c-4.57,0-8.06-0.8-10.47-2.39c-2.41-1.59-3.62-3.82-3.62-6.69c0-1.97,0.62-3.62,1.85-4.95s3.04-2.28,5.42-2.84     c-0.92-0.39-1.72-1.03-2.4-1.92c-0.68-0.89-1.03-1.83-1.03-2.83c0-1.25,0.36-2.29,1.08-3.12c0.72-0.83,1.77-1.65,3.13-2.45     c-1.72-0.74-3.08-1.93-4.09-3.57c-1.01-1.64-1.51-3.57-1.51-5.8c0-3.57,1.16-6.34,3.49-8.29c2.32-1.95,5.64-2.93,9.96-2.93     c0.92,0,2.01,0.08,3.27,0.25s2.07,0.29,2.42,0.37H129.44z M104.15,223.33c0,1.23,0.59,2.2,1.77,2.9c1.18,0.7,2.84,1.05,4.97,1.05     c3.2,0,5.71-0.44,7.53-1.32s2.72-2.08,2.72-3.6c0-1.23-0.54-2.08-1.61-2.55c-1.07-0.47-2.73-0.7-4.98-0.7h-4.63     c-1.64,0-3.01,0.39-4.12,1.16C104.71,221.04,104.15,222.06,104.15,223.33z M107.41,196.67c0,1.78,0.41,3.18,1.22,4.22     c0.81,1.04,2.05,1.55,3.71,1.55c1.68,0,2.91-0.52,3.69-1.55c0.78-1.04,1.17-2.44,1.17-4.22c0-3.95-1.62-5.92-4.86-5.92     C109.05,190.75,107.41,192.72,107.41,196.67z"/>
		</g>
	</g>
</g>
<g>
</g>
<g>
</g>
<g>
</g>
<g>
</g>
<g>
</g>
</svg>
