<?xml version="1.0" encoding="utf-8"?>
<!-- Generator: Adobe Illustrator 25.2.0, SVG Export Plug-In . SVG Version: 6.00 Build 0)  -->
<svg version="1.1" id="Layer_1" xmlns="http://www.w3.org/2000/svg" xmlns:xlink="http://www.w3.org/1999/xlink" x="0px" y="0px"
	 viewBox="0 0 88.8 94.6" style="enable-background:new 0 0 88.8 94.6;" xml:space="preserve">
<style type="text/css">
	.st0{fill:url(#SVGID_1_);}
	.st1{fill:url(#SVGID_2_);}
	.st2{fill:url(#SVGID_3_);}
	.st3{fill:#606261;}
	.st4{fill:url(#SVGID_4_);}
	.st5{fill:url(#SVGID_5_);}
</style>
<g>
	<g>
		<g>
			<g>
				
					<linearGradient id="SVGID_1_" gradientUnits="userSpaceOnUse" x1="39.1117" y1="56.9226" x2="53.2752" y2="39.3493" gradientTransform="matrix(1 0 0 -1 0 96)">
					<stop  offset="0.2795" style="stop-color:#3965AF"/>
					<stop  offset="0.8076" style="stop-color:#253F6B"/>
				</linearGradient>
				<circle class="st0" cx="45.9" cy="47.5" r="8.4"/>
			</g>
		</g>
		<g>
			
				<linearGradient id="SVGID_2_" gradientUnits="userSpaceOnUse" x1="43.5787" y1="112.8405" x2="102.3311" y2="8.4501" gradientTransform="matrix(1 0 0 -1 0 96)">
				<stop  offset="0" style="stop-color:#57C8E6"/>
				<stop  offset="1" style="stop-color:#3965AF"/>
			</linearGradient>
			<circle class="st1" cx="63.3" cy="18.2" r="4.8"/>
		</g>
		
			<linearGradient id="SVGID_3_" gradientUnits="userSpaceOnUse" x1="-14.9005" y1="106.5035" x2="43.8519" y2="2.1131" gradientTransform="matrix(1 0 0 -1 0 96)">
			<stop  offset="0" style="stop-color:#57C8E6"/>
			<stop  offset="1" style="stop-color:#3965AF"/>
		</linearGradient>
		<circle class="st2" cx="4.8" cy="24.5" r="4.8"/>
		<path class="st3" d="M46.2,24c3.5-1.5,6.8-2.6,9.9-3.3c-0.2-0.6-0.3-1.3-0.4-2c-3.3,0.9-6.7,2.1-10.2,3.6
			c-0.5,0.2-0.7,0.8-0.5,1.2C45.2,24,45.8,24.2,46.2,24z"/>
		
			<linearGradient id="SVGID_4_" gradientUnits="userSpaceOnUse" x1="47.8702" y1="70.6557" x2="106.6226" y2="-33.7347" gradientTransform="matrix(1 0 0 -1 0 96)">
			<stop  offset="0" style="stop-color:#57C8E6"/>
			<stop  offset="1" style="stop-color:#3965AF"/>
		</linearGradient>
		<circle class="st4" cx="67.6" cy="60.4" r="4.8"/>
		
			<linearGradient id="SVGID_5_" gradientUnits="userSpaceOnUse" x1="4.4789" y1="71.3402" x2="63.2312" y2="-33.0502" gradientTransform="matrix(1 0 0 -1 0 96)">
			<stop  offset="0" style="stop-color:#57C8E6"/>
			<stop  offset="1" style="stop-color:#3965AF"/>
		</linearGradient>
		<circle class="st5" cx="24.2" cy="59.7" r="4.8"/>
		<path class="st3" d="M81.5,47.7c6.8-8.9,9.3-17.7,5.7-23.8c-2.8-4.7-8.7-7.2-16.5-7.3c0.1,0.5,0.2,1.1,0.2,1.6
			c0,0.4,0,0.9-0.1,1.3c6.1,0.8,10.6,3.4,12.9,7.3c3,5.2,1.6,12.1-3.5,19.3c-5.6-6.8-13.6-13.3-22.9-18.5c-9.2-5.2-18.6-8.6-26.9-10
			c3.6-8,8.7-12.7,14.8-12.7c4.7,0,10,1.5,14,6.9c0.6-0.4,1.3-0.7,2-0.9C57.2,3.9,51.9,0,46.5,0c-7.2,0-13.7,6.8-17.9,17.3
			c-7.4-1-13.8-0.4-18.4,1.9c0.5,0.5,0.8,1,1.2,1.5c4-1.9,9.7-2.2,16.3-1.1C25,27.5,23.3,37,23.3,47.3c0,1.6,0,3.2,0.1,4.8
			c0.2,0,0.5,0,0.7,0c0.4,0,0.8,0,1.1,0.1c-0.1-1.6-0.1-3.2-0.1-4.8c0-10.8,1.5-20.2,4.2-27.3c8.1,1.6,17.4,5.1,26.7,10.3
			c9.5,5.4,15.6,10.5,22.3,18.1c-1.7,2.1-3.6,4.2-5.9,6.3c0.1,0.1,0.2,0.2,0.4,0.3c0.3,0.3,0.6,0.6,0.8,1c2.2-2,4.2-4.1,5.9-6.2
			c0.4,0.4,0.8,0.9,1.2,1.3c6.1,7.1,7.3,14.1,4.6,18.9c-2.9,5.1-10.4,7.4-20.5,6.3c-0.1,0-0.1,0-0.2,0c1-2.6,1.9-5.4,2.6-8.5
			c-0.6,0-1.3-0.1-1.9-0.3c-3.5,14.6-10.7,22.7-18.8,22.7c-5.9,0-11.3-4.6-15.2-12.4c8.4-1.6,17.7-5.1,26.5-10.3
			c1.3-0.8,2.6-1.6,3.9-2.4c-0.4-0.5-0.7-1-1-1.6c-1.2,0.8-2.5,1.6-3.8,2.3c-8.9,5.2-18.1,8.7-26.4,10.2c-1.3-2.9-2.3-6.1-3.2-9.6
			c-0.6,0.3-1.2,0.5-1.9,0.6c0.8,3.4,1.7,6.5,2.8,9.4c-0.9,0.1-1.7,0.2-2.5,0.3c-9.3,0.8-14.3-2.5-17.1-7.3
			c-3-5.1-2.8-11.7,3.2-19.9c0,0,0,0,0-0.1c1.7,2,3.7,4.1,5.9,6.1c0.3-0.5,0.7-1,1.2-1.5c-8.2-7.5-13.2-15.5-13.8-22
			c-0.1,0-0.2,0-0.3,0c-0.5,0-1.1-0.1-1.6-0.2c0.4,4.9,3.1,10.6,7.6,16.3c-0.2,0.1-0.3,0.2-0.4,0.3c-6.5,8.8-8.4,17.2-5,23
			c2.8,4.8,8.7,7.3,16.9,7.3c1.2,0,2.4-0.1,3.6-0.2c1-0.1,2.1-0.2,3.1-0.4c4.2,10,10.5,16.4,17.5,16.4s13.4-6.4,17.7-16.8
			c0.2,0.2,0.4,0.3,0.6,0.3c1.7,0.2,3.4,0.3,5,0.3c8.4,0,14.6-2.6,17.4-7.5c3.1-5.5,1.6-13.1-4.1-21.3C82.5,49,82,48.3,81.5,47.7z"
			/>
	</g>
</g>
</svg>
