<?xml version="1.0" encoding="utf-8"?>
<!-- Generator: Adobe Illustrator 23.0.3, SVG Export Plug-In . SVG Version: 6.00 Build 0)  -->
<svg version="1.1" id="Layer_1" xmlns="http://www.w3.org/2000/svg" xmlns:xlink="http://www.w3.org/1999/xlink" x="0px" y="0px"
	 viewBox="0 0 1199 322" style="enable-background:new 0 0 1199 322;" xml:space="preserve">
<style type="text/css">
	.st0{fill:#528BBC;}
	.st1{fill:#5F6A6D;}
</style>
<g>
	<g>
		<path class="st0" d="M132.3,237.1c8-3.7,20.2-9.9,20.2-31.2c0-19-8.7-37.2-42.8-37.2H11V318h97.6c40.3,0,50.8-27.2,50.8-43.9
			C159.4,249,143.8,240.6,132.3,237.1z M42.3,192.1h53.2c18.2,0,25.7,5.9,25.7,18.2c0,17-11.5,19.1-20.3,19.1H42.3V192.1z
			 M98.6,294.5H42.3v-43h60.9c14,0,23.6,7.4,23.6,21.1C126.8,291.8,112.6,294.5,98.6,294.5z"/>
		<path class="st0" d="M280.3,168.8h-92V318h31.3v-56.9h61c33.7,0,48-23.2,48-46C328.8,191.1,317,168.8,280.3,168.8z M270,237.8
			h-50.4v-45.5h52.7c12.1,0,25.1,4.6,25.1,23C297.5,232.9,287.9,237.8,270,237.8z"/>
		<path class="st0" d="M335.5,65C442.5,20,809.1-90.4,1155.2,317.6l38.6-0.2C1193.8,317.5,846.1-163.4,335.5,65z"/>
		<g>
			<path class="st1" d="M1133.5,229.9L1195,169h-38.9l-42,42.2C1114,211.3,1130.2,226.4,1133.5,229.9z"/>
		</g>
		<g>
			<path class="st1" d="M1074.7,249.6l-67.4,68.3h38.8l48-48.2C1094.2,269.7,1083.3,256.6,1074.7,249.6z"/>
		</g>
		<g>
			<polygon class="st1" points="421.4,169.3 400.4,169.3 400.2,317.5 510.4,317.5 510.4,297.5 421.4,297.5 			"/>
		</g>
		<g>
			<rect x="932.8" y="169.1" class="st1" width="20.8" height="148.7"/>
		</g>
		<g>
			<g>
				<path class="st1" d="M614.2,166.6c-56.9,0-78.7,39.4-78.7,76.9c0,37.6,21.8,76.9,78.7,76.9s78.7-39.4,78.7-76.9
					S671.1,166.6,614.2,166.6z M614.2,301.7c-32.3,0-57.8-19.3-57.8-58c0-38.8,25.5-58,57.8-58c32.3,0,57.8,19.2,57.8,58
					S646.5,301.7,614.2,301.7z"/>
			</g>
		</g>
		<g>
			<path class="st1" d="M799,257.7h53.5c-8,50.5-59.8,42.7-59.8,42.7c-48.3-7-48.9-53.2-48.9-53.2c0.4-59.5,53.2-60.5,53.2-60.5
				c51.9-2.4,54.9,37.7,54.9,37.7H873c-4-37.7-35.3-50.2-35.3-50.2c-37.1-14.8-65.8-3-65.8-3c-66.4,27.5-45.9,98.1-45.9,98.1
				c18.8,54.9,73.4,51.2,73.4,51.2c35.3,1.4,55.2-21.5,55.2-21.5v18.2h19.8v-80h-75.6L799,257.7z"/>
		</g>
	</g>
</g>
</svg>
