<svg version="1.1" id="Aspose.Email_for_Android_via_Java" xmlns="http://www.w3.org/2000/svg" x="0" y="0" viewBox="0 0 272 272" style="enable-background:new 0 0 272 272" xml:space="preserve"><style>.st0{fill:#fff}.st1{fill-rule:evenodd;clip-rule:evenodd;fill:#c0bb2f}</style><g id="Android_via_Java"><g id="Android"><path class="st0" d="m222.4 54.3-7.6-4.8H16.4L8.8 57v199.1l4.9 6.5H162l60.4-76.6z"/><path class="st1" d="M72.4 191.9c0-22 7.7-40.6 23.1-56.1 15.3-15.4 34-23.1 56-23.1 21.7 0 40.3 7.7 55.9 23.1 15.5 15.4 23.3 34.1 23.3 56.1 0 21.9-7.8 40.5-23.3 55.9-15.5 15.5-34.1 23.3-55.9 23.3-22 0-40.7-7.8-56-23.3-15.4-15.4-23.1-34.1-23.1-55.9"/><path class="st1" d="M230.6 191.9h-9.3V58.3c0-3.4-1.2-5.7-3.7-6.9-.8-.4-1.8-.7-3-1l-1.4-.2H17.9c-3.5 0-5.8 1.2-6.9 3.6-.7 1.4-1.1 2.9-1.1 4.4v195.5c0 3.4 1.2 5.7 3.6 6.8 1.4.7 2.8 1.1 4.4 1.2h129.6l4.1 9.3H15c-2.4 0-4.8-.6-7.2-1.8C3 266.8.6 262.6.6 256.6V55.4c0-2.4.6-4.8 1.8-7.2C4.8 43.4 9 41 15 41h201.2l2.2.2c1.8.3 3.5.8 5 1.6 4.8 2.4 7.2 6.6 7.2 12.5v136.6z"/><path d="M62.1 122.3H34.2V73h27.9v6.8H42.3v13.4h18.6v6.7H42.3v15.5h19.8v6.9z" style="fill:#c0bb2f"/><path d="m126.6 234.3-24.4-53.8 73.2-33.1 24.3 53.8-73.1 33.1zm48-79.3L163 185.4l30.5 11.5-18.9-41.9zm-64.9 26.4 38.7 14.6c4.3 1.6 6.4.7 8-3.6l14.6-38.7-61.3 27.7zm82.6 19-30.5-11.5c-2.3 6-3.7 10-6.5 11.3-2.8 1.3-6.8-.3-12.8-2.6L131 228.1l61.3-27.7zm-83.9-15.6 19 42 11.5-30.5-30.5-11.5z" style="fill-rule:evenodd;clip-rule:evenodd;fill:#fff"/></g><circle cx="216.4" cy="56" r="55" style="fill:#dd4443"/><path class="st0" d="M205.8 73.6s-3.1 1.8 2.2 2.4c6.4.7 9.7.6 16.8-.7 0 0 1.8 1.1 4.5 2.2-15.9 6.8-36.1-.4-23.5-3.9m-1.9-8.9s-3.5 2.6 1.8 3.1c6.8.7 12.3.8 21.6-1 0 0 1.3 1.3 3.4 2-19.2 5.7-40.5.5-26.8-4.1m16.3-14.9c3.9 4.5-1 8.5-1 8.5s9.9-5.1 5.4-11.5c-4.2-6-7.5-8.9 10.1-19.2-.1 0-27.8 6.9-14.5 22.2"/><path class="st0" d="M241.1 80.2s2.2 1.9-2.5 3.4c-9.2 2.8-38 3.6-46 .1-2.8-1.3 2.5-3 4.2-3.4 1.8-.3 2.8-.3 2.8-.3-3.2-2.2-20.7 4.4-8.9 6.4 32.2 5.1 58.8-2.5 50.4-6.2m-33.9-24.6s-14.7 3.5-5.2 4.7c4 .5 12 .4 19.4-.2 6-.5 12.2-1.6 12.2-1.6s-2.2.9-3.7 2c-14.9 3.9-43.8 2.1-35.5-1.9 7.1-3.4 12.8-3 12.8-3m26.5 14.8c15.2-7.9 8.1-15.5 3.3-14.4-1.2.3-1.7.4-1.7.4s.4-.7 1.3-1c9.7-3.4 17.1 10-3.1 15.4-.3-.1.1-.3.2-.4m-9.2-59.3s8.4 8.4-7.9 21.3c-13.1 10.4-3 16.2 0 23.1-7.7-6.9-13.3-13-9.5-18.6 5.4-8.4 20.8-12.5 17.4-25.8"/><path class="st0" d="M208.8 91.7c14.6.9 37-.5 37.5-7.4 0 0-1 2.6-12 4.7-12.4 2.3-27.7 2.1-36.9.6-.2-.1 1.8 1.5 11.4 2.1"/></g></svg>