<?xml version="1.0" encoding="utf-8"?>
<!-- Generator: Adobe Illustrator 25.2.0, SVG Export Plug-In . SVG Version: 6.00 Build 0)  -->
<svg version="1.1" id="Aspose.Cells" xmlns="http://www.w3.org/2000/svg" xmlns:xlink="http://www.w3.org/1999/xlink" x="0px"
	 y="0px" viewBox="0 0 277 277" style="enable-background:new 0 0 277 277;" xml:space="preserve">
<style type="text/css">
	.st0{fill:#FFFFFF;}
	.st1{fill-rule:evenodd;clip-rule:evenodd;fill:#A4C648;}
	.st2{fill:#A4C648;}
	.st3{fill-rule:evenodd;clip-rule:evenodd;fill:#FFFFFF;}
</style>
<g id="NET">
	<polygon class="st0" points="263.83,19.1 254.97,13.4 22.03,13.4 13.17,22.27 13.17,256 18.86,263.6 192.94,263.6 263.83,173.65 	
		"/>
	<path class="st1" d="M87.76,180.57c0-25.77,9.03-47.7,27.11-65.8c17.96-18.08,39.88-27.13,65.76-27.13
		c25.5,0,47.36,9.04,65.57,27.13c18.2,18.1,27.3,40.03,27.3,65.8c0,25.66-9.1,47.52-27.3,65.61
		c-18.21,18.21-40.07,27.32-65.57,27.32c-25.88,0-47.8-9.11-65.76-27.32C96.79,228.09,87.76,206.22,87.76,180.57"/>
	<path class="st1" d="M273.5,180.57h-10.88V23.77c0-4.01-1.43-6.69-4.31-8.07c-0.99-0.5-2.15-0.88-3.47-1.12l-1.6-0.19H23.75
		c-4.07,0-6.75,1.4-8.06,4.21c-0.81,1.63-1.25,3.35-1.31,5.16v229.46c0,4,1.4,6.66,4.22,7.98c1.62,0.81,3.34,1.29,5.16,1.41h152.1
		l4.78,10.89H20.37c-2.81,0-5.62-0.69-8.43-2.07c-5.63-2.81-8.44-7.75-8.44-14.82V20.39c0-2.82,0.72-5.63,2.16-8.45
		C8.47,6.31,13.38,3.5,20.37,3.5h236.25l2.62,0.28c2.13,0.32,4.07,0.94,5.82,1.88c5.62,2.81,8.44,7.72,8.44,14.73V180.57z"/>
	<g>
		<path class="st2" d="M75.69,98.9H42.96V41h32.73v8H52.42v15.76h21.81v7.92H52.42v18.18h23.27V98.9z"/>
	</g>
	<path class="st3" d="M151.39,230.33l-28.59-63.1l85.93-38.8l28.58,63.1L151.39,230.33z M207.71,137.23L194.19,173l35.83,13.5
		L207.71,137.23z M131.62,168.26l45.48,17.13c5.03,1.9,7.53,0.77,9.42-4.25l17.17-45.42L131.62,168.26z M228.5,190.51l-35.83-13.49
		c-2.66,7.03-4.35,11.79-7.67,13.29c-3.33,1.51-8.02-0.38-15.06-3.03l-13.51,35.77L228.5,190.51z M130.1,172.27l22.32,49.27
		l13.51-35.77L130.1,172.27z"/>
</g>
</svg>
