<svg version="1.1" id="Aspose.Totaly_for_Python_via_Java" xmlns="http://www.w3.org/2000/svg" x="0" y="0" viewBox="0 0 272 272" style="enable-background:new 0 0 272 272" xml:space="preserve"><style>.st0{fill-rule:evenodd;clip-rule:evenodd}.st0,.st4{fill:#fff}</style><g id="Python_via_Java"><g id="Python"><path id="XMLID_45_" class="st0" d="M151.7 112.6c-21.9 0-40.6 7.8-56 23.2-15.4 15.3-23.2 34-23.2 56s7.8 40.6 23.2 55.9c5.7 5.8 11.9 10.5 18.4 14.2H17.9c-1.6-.1-2.9-.5-4.4-1.3-2.4-1.2-3.6-3.4-3.6-6.7V58.2c.2-1.7.6-3.3 1.2-4.4 1.3-2.4 3.6-3.6 6.9-3.6h195.7l1.3.2c1.2.2 2.1.5 3 .8 2.5 1.2 3.8 3.4 3.8 6.9v96.2c-3.7-6.6-8.4-12.9-14.2-18.6-15.7-15.4-34.4-23.1-55.9-23.1z"/><path id="XMLID_42_" d="M151.7 112.6c21.6 0 40.3 7.8 55.9 23.2 5.8 5.7 10.5 12 14.1 18.6V58.2c0-3.5-1.3-5.8-3.8-6.9-.8-.3-1.9-.6-3-.8l-1.3-.2H17.9c-3.4 0-5.7 1.2-6.9 3.6-.6 1.3-.9 2.7-1.2 4.4v195.4c0 3.4 1.2 5.7 3.6 6.7 1.5.7 2.9 1.2 4.4 1.3H114c-6.6-3.7-12.8-8.4-18.4-14.2-15.5-15.2-23.2-33.9-23.2-55.9s7.8-40.6 23.2-56c15.2-15.3 34-23 56.1-23zm67-71.4c2.1.4 3.8.9 4.8 1.6 4.7 2.3 7.1 6.5 7.1 12.5v136.5c0 21.9-7.8 40.5-23.3 55.9-15.5 15.5-34.1 23.3-55.9 23.3H14.9c-2.3 0-4.7-.6-7.1-1.7-4.7-2.5-7.1-6.7-7.1-12.7V55.2c0-2.4.6-4.7 1.9-7.1C4.9 43.4 9.1 41 15.1 41h201.3c0-.1 2.3.2 2.3.2z" style="fill-rule:evenodd;clip-rule:evenodd;fill:#ffcd38"/><path d="M49.2 120.1H41v-43H26.4v-7h37.5v7H49.1v43h.1z" style="fill:#ffcd38"/><path id="XMLID_37_" class="st0" d="m154.4 159.2-30.8 15.4 30.8 15.4 30.8-15.4-30.8-15.4zm0 38.4-46-23 46-23 46 23-46 23zm0 8 36.9-18.4 9.2 4.6-46 23-46-23 9.2-4.6 36.7 18.4zm-36.9-1.1 36.9 18.4 36.9-18.4 9.2 4.6-46 23-46-23 9-4.6z"/></g><circle cx="216.4" cy="56" r="55" style="fill:#dd4443"/><path class="st4" d="M205.8 73.6s-3.1 1.8 2.2 2.4c6.4.7 9.7.6 16.8-.7 0 0 1.8 1.1 4.5 2.2-15.9 6.8-36.1-.4-23.5-3.9M203.9 64.7s-3.5 2.6 1.8 3.1c6.8.7 12.3.8 21.6-1 0 0 1.3 1.3 3.4 2-19.2 5.7-40.5.5-26.8-4.1M220.2 49.8c3.9 4.5-1 8.5-1 8.5s9.9-5.1 5.4-11.5c-4.2-6-7.5-8.9 10.1-19.2-.1 0-27.8 6.9-14.5 22.2"/><path class="st4" d="M241.1 80.2s2.2 1.9-2.5 3.4c-9.2 2.8-38 3.6-46 .1-2.8-1.3 2.5-3 4.2-3.4 1.8-.3 2.8-.3 2.8-.3-3.2-2.2-20.7 4.4-8.9 6.4 32.2 5.1 58.8-2.5 50.4-6.2M207.2 55.6s-14.7 3.5-5.2 4.7c4 .5 12 .4 19.4-.2 6-.5 12.2-1.6 12.2-1.6s-2.2.9-3.7 2c-14.9 3.9-43.8 2.1-35.5-1.9 7.1-3.4 12.8-3 12.8-3M233.7 70.4c15.2-7.9 8.1-15.5 3.3-14.4-1.2.3-1.7.4-1.7.4s.4-.7 1.3-1c9.7-3.4 17.1 10-3.1 15.4-.3-.1.1-.3.2-.4M224.5 11.1s8.4 8.4-7.9 21.3c-13.1 10.4-3 16.2 0 23.1-7.7-6.9-13.3-13-9.5-18.6 5.4-8.4 20.8-12.5 17.4-25.8"/><path class="st4" d="M208.8 91.7c14.6.9 37-.5 37.5-7.4 0 0-1 2.6-12 4.7-12.4 2.3-27.7 2.1-36.9.6-.2-.1 1.8 1.5 11.4 2.1"/></g></svg>