<svg xmlns="http://www.w3.org/2000/svg" xml:space="preserve" id="Layer_1" x="0" y="0" style="enable-background:new 0 0 170 70" version="1.1" viewBox="0 0 170 70">
  <style>
    .st0{fill:#0083ca}
  </style>
  <path d="M84 1.6h2c10.1.6 17.3 4.4 22.6 9.8 5.3 5.4 9.3 12.5 9.8 22.6v2c-.5 10.3-4.5 17.1-9.8 22.6-5.5 5.3-12.4 9.2-22.7 9.7h-2c-10.1-.6-17.3-4.4-22.6-9.8C56 53.2 52 46.1 51.5 36v-2.1c.5-10.1 4.5-17.3 9.8-22.6C66.7 6 73.9 2.2 84 1.6zm-6.6 4.8c-2 .5-3.8 1.2-5.4 2-4.9 2.4-9 5.9-11.8 10.4-2.8 4.4-5.2 10-4.8 17.3.2 4.6 1.3 8.5 2.9 11.9 3.3 6.6 8.3 11.4 15.3 14.3 3.4 1.5 7.7 2.5 12.5 2.2 4.6-.2 8.6-1.3 11.9-2.9 6.5-3.3 11.6-8.3 14.4-15.2 1.4-3.5 2.5-7.6 2.3-12.5-.4-9.3-4.2-15.6-9.2-20.4A28.72 28.72 0 0 0 84 5.4c-2.4.2-4.6.5-6.6 1z" class="st0"/>
  <path d="M81.9 26.3c1.1.7 2.1 1.4 3.1 2.1-2.3 1.4-4.5 2.9-6.7 4.3.3.3.7.5 1.1.7 2.3-1.4 4.5-2.9 6.8-4.3 1 .6 2 1.3 2.9 2-2.3 1.4-4.5 2.9-6.7 4.4.3.3.7.5 1.1.7 2.3-1.4 4.6-2.9 6.9-4.4V27h5v9.5c1.4.1 3 0 4.5 0V41h-9.5v-4.5c-2.8 1.7-5.6 3.6-8.4 5.4-2.9-1.9-5.7-3.9-8.6-5.8-.8 2.7-2.8 4.7-6.2 4.9-2.1.1-4.4-.1-6.8 0V27c3 .2 6.2-.4 8.6.3 2.1.6 3.6 2.3 4.3 4.4 2.9-1.6 5.7-3.5 8.6-5.4zm-16.7 5.4v5c1.2 0 2.1.1 2.8-.5 1.1-.8 1.3-2.8.3-3.9-.6-.7-1.7-.9-3.1-.8v.2zm36-4.5h5v9.5h4.4v4.5h-9.5l.1-14z" class="st0"/>
</svg>
