<svg version="1.1" id="Layer_1" xmlns="http://www.w3.org/2000/svg" x="0" y="0" viewBox="0 0 280 200" style="enable-background:new 0 0 280 200" xml:space="preserve"><style>.st0{fill:none;stroke:#c1c1c1;stroke-miterlimit:10}.st1{fill:#fff}.st6{fill:#b5b5b5}</style><g id="Base"><g id="Lines"><path class="st0" d="M176.52 51.09h11.08M176.61 167.3h11.04M195.61 49.01v4.54M195.61 58.86v21.83M201.01 129.88v39.63M187.65 130.24h13.86M201.01 174.84v6.04M264.1 59.65v4.54M264.1 80.74v4.55M264.1 90.85v29.26M208.59 109.32h-20.94M206.57 88.29h-18.92M206.12 61.76v27.03M229.52 162.12h-20.93M243.07 120.69v65.12M227.41 61.27v16.35M253.87 57.58v4.55M264.1 149.17v4.55M205.63 61.74h13.81M227.41 61.76h26.97M216.64 74.79v5.19M187.65 98.65h26.97M187.65 119.6h76.45M216.73 127.86v53.02"/></g><g id="Left_Right_Boxes"><path class="st1" d="m111.88 177.27-95.98-8.26V44.69h95.98z"/><path style="fill:#eaeaea" d="m176.81 168.01-58.29 9.26V44.69h58.29z"/></g><g id="Platform_Icons"><circle cx="237.9" cy="157.08" r="25" style="fill:#ea531a"/><path id="Ubuntu_Icon" class="st1" d="M224.59 154.39a2.69 2.69 0 0 0-2.69 2.69c0 1.48 1.2 2.68 2.69 2.68 1.48 0 2.68-1.2 2.68-2.68 0-1.48-1.2-2.69-2.68-2.69zm19.17 12.21a2.69 2.69 0 0 0-.98 3.67 2.69 2.69 0 0 0 3.67.98 2.69 2.69 0 0 0 .98-3.67 2.692 2.692 0 0 0-3.67-.98zm-13.34-9.52c0-2.65 1.32-5 3.33-6.42l-1.96-3.29c-2.35 1.57-4.1 3.97-4.82 6.78.85.69 1.39 1.74 1.39 2.92s-.54 2.23-1.39 2.92c.73 2.81 2.47 5.21 4.82 6.78l1.96-3.29a7.792 7.792 0 0 1-3.33-6.4zm7.84-7.84c4.1 0 7.46 3.14 7.81 7.15l3.83-.06c-.19-2.96-1.48-5.61-3.47-7.57a3.777 3.777 0 0 1-5.06-2.92c-.99-.27-2.04-.42-3.12-.42-1.86 0-3.61.44-5.17 1.21l1.87 3.34c1.01-.47 2.13-.73 3.31-.73zm0 15.68c-1.18 0-2.3-.26-3.3-.73l-1.87 3.34c1.56.77 3.31 1.21 5.17 1.21 1.08 0 2.12-.15 3.12-.42a3.777 3.777 0 0 1 5.06-2.92 11.62 11.62 0 0 0 3.47-7.57l-3.83-.06c-.36 4.01-3.72 7.15-7.82 7.15zm5.5-17.36c1.28.74 2.93.3 3.67-.98s.3-2.93-.98-3.67-2.93-.3-3.67.98a2.69 2.69 0 0 0 .98 3.67z"/><circle transform="rotate(-80.781 238.142 98.096)" cx="238.14" cy="98.1" style="fill:#444" r="25"/><path class="st1" d="M244.46 98.6c.04 4.09 3.58 5.45 3.62 5.46-.03.1-.57 1.94-1.87 3.84-1.13 1.64-2.29 3.28-4.13 3.32-1.81.03-2.39-1.07-4.46-1.07s-2.71 1.04-4.42 1.11c-1.78.07-3.13-1.78-4.26-3.42-2.32-3.35-4.09-9.47-1.71-13.6 1.18-2.05 3.29-3.35 5.59-3.38 1.74-.03 3.39 1.17 4.46 1.17s3.07-1.45 5.17-1.24c.88.04 3.35.36 4.94 2.68-.14.07-2.96 1.71-2.93 5.13m-3.4-10.03c.94-1.14 1.58-2.73 1.4-4.31-1.36.05-3 .91-3.98 2.05-.87 1.01-1.64 2.63-1.43 4.18 1.52.11 3.07-.78 4.01-1.92" id="Apple_Icon"/><g><circle transform="rotate(-78.018 237.963 39.191)" cx="237.96" cy="39.19" style="fill:#0079d8" r="25"/><path id="Windows_Icon" class="st1" d="M250.4 40.64v12.01c0 .03-.01.05-.01.07-.04.3-.31.51-.61.47l-11.93-1.58a.54.54 0 0 1-.52-.54V40.62h.01c0-.3.24-.55.54-.55l11.93.02h.05c.3 0 .54.25.54.55zm-14.35-.02v10.22c-.04.3-.31.51-.61.47l-11.24-1.4a.551.551 0 0 1-.5-.54v-8.73c0-.3.24-.54.55-.54l11.21-.03h.05c.29 0 .54.24.54.55zm0-12.32v9.96c0 .3-.24.54-.54.54h-11.32c-.3 0-.55-.24-.55-.54v-8.53c0-.27.21-.51.48-.54l11.27-1.42c.04-.01.08-.01.12-.01.29-.01.54.24.54.54zm13.8 10.5h-11.97c-.3 0-.55-.24-.55-.54V28.01h.01c0-.27.2-.5.47-.54l11.93-1.56c.04-.01.08-.01.12-.01.3 0 .55.24.55.55v11.81c-.01.29-.25.54-.56.54z"/></g></g></g><g id="Aspose.SVG"><path class="st6" d="M66.88 119.18c0 5.5-1.98 9.83-5.94 13s-9.46 4.75-16.51 4.75c-6.5 0-12.25-1.22-17.24-3.67v-12c4.11 1.83 7.59 3.12 10.43 3.87 2.85.75 5.45 1.12 7.81 1.12 2.83 0 5-.54 6.52-1.62 1.51-1.08 2.27-2.69 2.27-4.83 0-1.19-.33-2.26-1-3.19s-1.65-1.83-2.94-2.69-3.92-2.24-7.89-4.12c-3.72-1.75-6.51-3.43-8.37-5.04-1.86-1.61-3.35-3.48-4.46-5.62-1.11-2.14-1.67-4.64-1.67-7.5 0-5.39 1.83-9.62 5.48-12.7 3.65-3.08 8.7-4.62 15.14-4.62 3.17 0 6.19.37 9.06 1.12 2.87.75 5.88 1.8 9.02 3.17l-4.17 10.04c-3.25-1.33-5.94-2.26-8.06-2.79-2.12-.53-4.21-.79-6.27-.79-2.44 0-4.32.57-5.62 1.71-1.31 1.14-1.96 2.62-1.96 4.46 0 1.14.26 2.13.79 2.98.53.85 1.37 1.67 2.52 2.46s3.88 2.21 8.18 4.27c5.69 2.72 9.59 5.45 11.7 8.18 2.13 2.73 3.18 6.08 3.18 10.05zM74.89 130.6l-5.91-15.52h4.43l3 8.84c.33 1.12.54 2.18.62 3.18h.08c.05-.89.25-1.95.62-3.18l2.99-8.84h4.43l-5.91 15.52h-4.35zM100.6 115.08v2.15l-2.43.62c.44.69.67 1.47.67 2.33 0 1.67-.58 2.96-1.74 3.89-1.16.93-2.77 1.39-4.84 1.39l-.76-.04-.62-.07c-.44.33-.65.7-.65 1.11 0 .61.78.92 2.33.92h2.64c1.7 0 3 .37 3.89 1.1.89.73 1.34 1.8 1.34 3.22 0 1.81-.76 3.22-2.27 4.22s-3.69 1.5-6.52 1.5c-2.17 0-3.82-.38-4.96-1.13-1.14-.76-1.71-1.81-1.71-3.17 0-.93.29-1.72.87-2.35s1.44-1.08 2.57-1.35c-.44-.19-.81-.49-1.14-.91-.32-.42-.49-.87-.49-1.34 0-.59.17-1.08.51-1.48.34-.39.84-.78 1.49-1.16-.81-.35-1.46-.92-1.94-1.69-.48-.78-.72-1.69-.72-2.75 0-1.69.55-3 1.65-3.93s2.67-1.39 4.72-1.39c.44 0 .95.04 1.55.12.6.08.98.14 1.15.17h5.41v.02zm-11.99 17.71c0 .58.28 1.04.84 1.37s1.34.5 2.35.5c1.52 0 2.71-.21 3.57-.62s1.29-.99 1.29-1.71c0-.58-.25-.99-.76-1.21s-1.3-.33-2.36-.33h-2.19c-.78 0-1.43.18-1.95.55-.52.37-.79.85-.79 1.45zm1.55-12.63c0 .84.19 1.51.58 2s.97.74 1.76.74c.8 0 1.38-.25 1.75-.74s.56-1.16.56-2c0-1.87-.77-2.8-2.3-2.8-1.58 0-2.35.93-2.35 2.8z"/><g id="SVG"><path class="st6" d="M123.54 109.32h51.65v1.21h-51.65zM134.48 125.9a4.12 4.12 0 1 1-8.241-.001 4.12 4.12 0 0 1 8.241.001zM172.12 94.1a4.12 4.12 0 1 1-4.12-4.12c2.27 0 4.12 1.85 4.12 4.12z"/><path class="st6" d="M145.14 105.88h8.25v8.25h-8.25z"/><path class="st6" d="M130.23 129.98a.85.85 0 0 1-.85-.85c0-14.73 10.28-19.98 19.89-19.98h.49c4.23.01 9.5.01 13.07-3.56 2.86-2.85 4.3-7.75 4.3-14.55a.85.85 0 1 1 1.7 0c0 7.37-1.57 12.52-4.8 15.75-4.07 4.07-9.96 4.07-14.28 4.05h-.49c-4.27 0-18.19 1.32-18.19 18.27a.84.84 0 0 1-.84.87z"/></g></g></svg>