<svg version="1.1" id="Layer_1" xmlns="http://www.w3.org/2000/svg" x="0" y="0" viewBox="0 0 280 200" style="enable-background:new 0 0 280 200" xml:space="preserve"><style>.st0{fill:#c1c1c1}.st1{fill:#fff}.st6{fill:#b5b5b5}</style><g id="Base"><g id="Lines"><path class="st0" d="M176.27 51.09h11.08M176.27 50.59h11.08v1h-11.08zM176.36 167.3h11.04M176.36 166.8h11.04v1h-11.04zM195.36 49.01v4.54M194.86 49.01h1v4.55h-1zM195.36 58.86v21.83M194.86 58.86h1V80.7h-1zM200.76 129.87v39.64M200.26 129.87h1v39.64h-1zM187.4 130.24h13.86"/><path class="st0" d="M187.4 129.74h13.86v1H187.4zM200.76 174.84v6.04M200.26 174.84h1v6.04h-1zM263.85 59.65v4.54M263.35 59.65h1v4.55h-1zM263.85 80.74v4.55M263.35 80.74h1v4.55h-1zM263.85 90.85v29.26M263.35 90.85h1v29.26h-1zM208.34 109.32H187.4M187.4 108.82h20.94v1H187.4zM206.32 88.29H187.4M187.4 87.79h18.92v1H187.4z"/><g><path class="st0" d="M205.87 61.76v27.03M205.37 61.76h1v27.02h-1z"/></g><g><path class="st0" d="M229.27 162.12h-20.93M208.34 161.62h20.94v1h-20.94z"/></g><g><path class="st0" d="M242.82 120.69v65.12M242.32 120.69h1v65.12h-1z"/></g><g><path class="st0" d="M227.16 61.27v16.35M226.66 61.27h1v16.35h-1z"/></g><g><path class="st0" d="M253.62 57.58v4.55M253.12 57.58h1v4.55h-1z"/></g><g><path class="st0" d="M263.85 149.17v4.55M263.35 149.17h1v4.55h-1z"/></g><g><path class="st0" d="M205.38 61.74h13.81M205.38 61.24h13.81v1h-13.81z"/></g><g><path class="st0" d="M227.16 61.76h26.97M227.16 61.26h26.97v1h-26.97z"/></g><g><path class="st0" d="M216.39 74.79v5.19M215.89 74.79h1v5.19h-1z"/></g><g><path class="st0" d="M187.4 98.65h26.97M187.4 98.15h26.97v1H187.4z"/></g><g><path class="st0" d="M187.4 119.6h76.45M187.4 119.1h76.45v1H187.4z"/></g><g><path class="st0" d="M216.48 127.86v53.02M215.98 127.86h1v53.02h-1z"/></g></g><g id="Left_Right_Boxes"><path class="st1" d="m111.64 177.26-95.99-8.25V44.69h95.99z"/><path style="fill:#eaeaea" d="m176.56 168.01-58.29 9.25V44.69h58.29z"/></g><g id="Platform_Icons"><circle cx="237.65" cy="157.08" r="25" style="fill:#ea531a"/><path class="st1" d="M224.34 154.39a2.69 2.69 0 0 0-2.69 2.69c0 1.48 1.2 2.68 2.69 2.68 1.48 0 2.68-1.2 2.68-2.68 0-1.48-1.2-2.69-2.68-2.69zm19.17 12.21a2.69 2.69 0 0 0-.98 3.67 2.69 2.69 0 0 0 3.67.98 2.69 2.69 0 0 0 .98-3.67 2.692 2.692 0 0 0-3.67-.98zm-13.34-9.52c0-2.65 1.32-5 3.33-6.42l-1.96-3.29c-2.35 1.57-4.1 3.97-4.82 6.78.85.69 1.39 1.74 1.39 2.92s-.54 2.23-1.39 2.92c.73 2.81 2.47 5.21 4.82 6.78l1.96-3.29a7.792 7.792 0 0 1-3.33-6.4zm7.84-7.84c4.1 0 7.46 3.14 7.81 7.15l3.83-.06c-.19-2.96-1.48-5.61-3.47-7.57a3.777 3.777 0 0 1-5.06-2.92c-.99-.27-2.04-.42-3.12-.42-1.86 0-3.61.44-5.17 1.21l1.87 3.34c1.01-.47 2.13-.73 3.31-.73zm0 15.68c-1.18 0-2.3-.26-3.3-.73l-1.87 3.34c1.56.77 3.31 1.21 5.17 1.21 1.08 0 2.12-.15 3.12-.42a3.777 3.777 0 0 1 5.06-2.92 11.62 11.62 0 0 0 3.47-7.57l-3.83-.06c-.36 4.01-3.72 7.15-7.82 7.15zm5.5-17.36c1.28.74 2.93.3 3.67-.98.74-1.28.3-2.93-.98-3.67-1.28-.74-2.93-.3-3.67.98a2.69 2.69 0 0 0 .98 3.67z" id="Ubuntu_Icon"/><circle cx="237.89" cy="98.1" r="25" style="fill:#444"/><path class="st1" d="M244.21 98.6c.04 4.09 3.58 5.45 3.62 5.46-.03.1-.57 1.94-1.87 3.84-1.13 1.64-2.29 3.28-4.13 3.32-1.81.03-2.39-1.07-4.46-1.07s-2.71 1.04-4.42 1.11c-1.78.07-3.13-1.78-4.26-3.42-2.32-3.35-4.09-9.47-1.71-13.6 1.18-2.05 3.29-3.35 5.59-3.38 1.74-.03 3.39 1.17 4.46 1.17 1.07 0 3.07-1.45 5.17-1.24.88.04 3.35.36 4.94 2.68-.14.07-2.96 1.71-2.93 5.13m-3.39-10.03c.94-1.14 1.58-2.73 1.4-4.31-1.36.05-3 .91-3.98 2.05-.87 1.01-1.64 2.63-1.43 4.18 1.51.11 3.06-.78 4.01-1.92" id="Apple_Icon"/><g><circle cx="237.71" cy="39.19" r="25" style="fill:#0079d8"/><path class="st1" d="M250.15 40.64v12.01c0 .03-.01.05-.01.07-.04.3-.31.51-.61.47l-11.93-1.58a.54.54 0 0 1-.52-.54V40.62h.01c0-.3.24-.55.54-.55l11.93.02h.05c.3 0 .54.25.54.55zm-14.35-.02v10.22c-.04.3-.31.51-.61.47l-11.24-1.4a.551.551 0 0 1-.5-.54v-8.73c0-.3.24-.54.55-.54l11.21-.03h.05c.29 0 .54.24.54.55zm0-12.32v9.96c0 .3-.24.54-.54.54h-11.32c-.3 0-.55-.24-.55-.54v-8.53c0-.27.21-.51.48-.54l11.27-1.42c.04-.01.08-.01.12-.01.29-.01.54.23.54.54zm13.8 10.5h-11.97c-.3 0-.55-.24-.55-.54V28.01h.01c0-.27.2-.5.47-.54l11.93-1.56c.04-.01.08-.01.12-.01.3 0 .55.24.55.55v11.81c-.01.29-.25.54-.56.54z" id="Windows_Icon"/></g></g></g><g id="Aspose.CAD"><path class="st6" d="M51.58 95.06c-3.31 0-5.89 1.35-7.74 4.06-1.85 2.71-2.78 6.45-2.78 11.21 0 9.9 3.76 14.85 11.29 14.85 2.27 0 4.48-.32 6.62-.95 2.13-.63 4.28-1.4 6.44-2.29v11.75c-4.29 1.9-9.15 2.85-14.57 2.85-7.76 0-13.72-2.25-17.86-6.76-4.14-4.5-6.21-11.01-6.21-19.53 0-5.32 1-10 3.01-14.04 2.01-4.03 4.89-7.14 8.66-9.31 3.76-2.17 8.19-3.25 13.28-3.25 5.56 0 10.87 1.21 15.94 3.62L63.4 98.21c-1.9-.89-3.8-1.64-5.7-2.25-1.9-.59-3.94-.9-6.12-.9zM95.96 136.06l-1.82-4.68h-.25c-1.58 1.99-3.21 3.37-4.88 4.14-1.67.77-3.85 1.15-6.54 1.15-3.3 0-5.91-.94-7.8-2.83-1.9-1.89-2.85-4.58-2.85-8.07 0-3.65 1.28-6.35 3.83-8.08 2.56-1.73 6.41-2.69 11.56-2.88l5.97-.18v-1.51c0-3.49-1.79-5.23-5.36-5.23-2.75 0-5.98.83-9.7 2.49l-3.11-6.34c3.96-2.07 8.35-3.11 13.18-3.11 4.62 0 8.16 1.01 10.62 3.02 2.46 2.01 3.69 5.07 3.69 9.17v22.94h-6.54zm-2.78-15.95-3.63.12c-2.73.08-4.76.58-6.1 1.48-1.33.9-2 2.28-2 4.13 0 2.65 1.52 3.97 4.56 3.97 2.18 0 3.91-.63 5.22-1.88 1.3-1.25 1.96-2.91 1.96-4.99v-2.83z"/><g id="CAD"><path class="st6" d="M170.68 136.58h-1.94v-1.45h.49v-.48h1.45zM167.8 136.58h-2.36v-1.45h2.36v1.45zm-3.3 0h-2.36v-1.45h2.36v1.45zm-3.31 0h-2.36v-1.45h2.36v1.45zm-3.3 0h-2.36v-1.45h2.36v1.45zm-3.31 0h-2.36v-1.45h2.36v1.45zm-3.3 0h-2.36v-1.45h2.36v1.45zm-3.31 0h-2.36v-1.45h2.36v1.45zm-3.3 0h-2.36v-1.45h2.36v1.45zm-3.3 0h-2.36v-1.45h2.36v1.45zm-3.31 0h-2.36v-1.45h2.36v1.45zm-3.3 0h-2.36v-1.45h2.36v1.45zm-3.31 0h-2.36v-1.45h2.36v1.45zM128.15 136.58h-1.93v-1.93h1.45v.48h.48zM127.67 133.76h-1.45v-2.22h1.45v2.22zm0-3.1h-1.45v-2.22h1.45v2.22zm0-3.11h-1.45v-2.22h1.45v2.22zm0-3.11h-1.45v-2.22h1.45v2.22zm0-3.1h-1.45v-2.22h1.45v2.22zM127.67 118.23h-1.45v-1.51l1.07-1.07 1.02 1.04-.64.63zM129 116.01l-1.02-1.03 1.72-1.7 1.02 1.03-1.72 1.7zm2.4-2.38-1.02-1.03 1.72-1.7 1.02 1.03-1.72 1.7zm2.4-2.38-1.02-1.03 1.72-1.7 1.02 1.03-1.72 1.7zm2.41-2.37-1.02-1.03 1.72-1.7 1.02 1.03-1.72 1.7zm2.4-2.38-1.02-1.03 1.72-1.7 1.02 1.03-1.72 1.7zm2.41-2.38-1.02-1.03 1.72-1.7 1.02 1.03-1.72 1.7zm2.4-2.37-1.02-1.03 1.72-1.7 1.02 1.03-1.72 1.7zm2.4-2.38-1.02-1.03.77-.76h1.93v1.45h-1.34l-.34.34zm21.96-.34h-2.41v-1.45h2.41v1.45zm-3.38 0h-2.41v-1.45h2.41v1.45zm-3.38 0h-2.41v-1.45h2.41v1.45zm-3.38 0h-2.41v-1.45h2.41v1.45zm-3.38 0h-2.41v-1.45h2.41v1.45zm-3.38 0h-2.41v-1.45h2.41v1.45zM170.68 99.51h-1.45v-.48h-.49v-1.45h1.94zM170.68 133.68h-1.45v-2.44h1.45v2.44zm0-3.42h-1.45v-2.44h1.45v2.44zm0-3.42h-1.45v-2.44h1.45v2.44zm0-3.41h-1.45v-2.44h1.45v2.44zm0-3.42h-1.45v-2.44h1.45v2.44zm0-3.42h-1.45v-2.44h1.45v2.44zm0-3.41h-1.45v-2.44h1.45v2.44zm0-3.42h-1.45v-2.44h1.45v2.44zm0-3.42h-1.45v-2.44h1.45v2.44zm0-3.41h-1.45v-2.44h1.45v2.44zM162.76 121.54h-8.55c-.4 0-.72-.32-.72-.72v-7.47c0-.4.32-.72.72-.72h8.55c.4 0 .72.32.72.72v7.47c.01.4-.32.72-.72.72zm-7.83-1.45h7.1v-6.02h-7.1v6.02z"/><path class="st6" d="M157.99 116.65h.99v.87h-.99z"/><path class="st6" d="M158.98 117.6h-.99c-.05 0-.08-.04-.08-.08v-.87c0-.05.04-.08.08-.08h.99c.05 0 .08.04.08.08v.87c.01.04-.03.08-.08.08zm-.91-.17h.82v-.7h-.82v.7zM123.25 122.4V92.63h30.05l-30.05 29.77zm2.42-27.35v21.55l21.76-21.55h-21.76z"/><path class="st6" d="M128.82 110.29V99.6h10.79l-10.79 10.69zm1.45-9.24v5.76l5.82-5.76h-5.82zM129.54 97.04c-.4 0-.72-.32-.72-.72v-2.6c0-.4.32-.72.72-.72s.72.32.72.72v2.6c.01.4-.32.72-.72.72zM135.87 96.43a.48.48 0 0 1-.48-.48v-2.23a.48.48 0 0 1 .96 0v2.23c0 .26-.22.48-.48.48z"/><g><path class="st6" d="M139.21 95.93c-.4 0-.72-.32-.72-.72v-1.12c0-.4.32-.72.72-.72s.72.32.72.72v1.12c.01.39-.32.72-.72.72z"/></g><g><path class="st6" d="M142.56 95.69a.48.48 0 0 1-.48-.48v-1.12a.48.48 0 0 1 .96 0v1.12c0 .26-.21.48-.48.48z"/></g><g><path class="st6" d="M132.52 96.06a.48.48 0 0 1-.48-.48v-1.49a.48.48 0 0 1 .96 0v1.49c0 .26-.21.48-.48.48z"/></g><g><path class="st6" d="M158.49 114.07c-.4 0-.72-.32-.72-.72V98.3c0-.4.32-.72.72-.72s.72.32.72.72v15.04c0 .41-.32.73-.72.73z"/></g><g><path class="st6" d="M158.49 136.38c-.4 0-.72-.32-.72-.72v-14.67c0-.4.32-.72.72-.72s.72.32.72.72v14.67c0 .4-.32.72-.72.72z"/></g><g><path class="st6" d="M154.21 117.81h-27.27c-.4 0-.72-.32-.72-.72 0-.4.32-.72.72-.72h27.27c.4 0 .72.32.72.72 0 .39-.32.72-.72.72z"/></g><g><path class="st6" d="M169.95 117.81h-7.19c-.4 0-.72-.32-.72-.72 0-.4.32-.72.72-.72h7.19c.4 0 .72.32.72.72.01.39-.32.72-.72.72z"/></g><g style="opacity:.5"><path class="st6" d="M158.42 135.86h-31.48v-18.78h27.27v3.53l4.21.21z"/><path class="st6" d="M158.42 136.34h-31.48a.48.48 0 0 1-.48-.48v-18.78c0-.27.22-.48.48-.48h27.27c.27 0 .48.22.48.48v3.07l3.75.18c.26.01.46.22.46.48v15.04a.47.47 0 0 1-.48.49zm-31-.96h30.52v-14.1l-3.75-.18a.476.476 0 0 1-.46-.48v-3.05h-26.3v17.81z"/></g></g></g></svg>