<svg version="1.1" id="Layer_1" xmlns="http://www.w3.org/2000/svg" x="0" y="0" viewBox="0 0 280 200" style="enable-background:new 0 0 280 200" xml:space="preserve"><style>.st0{fill:none;stroke:#c1c1c1;stroke-miterlimit:10}.st1{fill:#fff}.st6{fill:#b5b5b5}</style><g id="Base"><g id="Lines"><path class="st0" d="M176.52 51.09h11.08M176.61 167.3h11.04M195.61 49.01v4.54M195.61 58.86v21.83M201.01 129.88v39.63M187.65 130.24h13.86M201.01 174.84v6.04M264.1 59.65v4.54M264.1 80.74v4.55M264.1 90.85v29.26M208.59 109.32h-20.94M206.57 88.29h-18.92M206.12 61.76v27.03M229.52 162.12h-20.93M243.07 120.69v65.12M227.41 61.27v16.35M253.87 57.58v4.55M264.1 149.17v4.55M205.63 61.74h13.81M227.41 61.76h26.97M216.64 74.79v5.19M187.65 98.65h26.97M187.65 119.6h76.45M216.73 127.86v53.02"/></g><g id="Left_Right_Boxes"><path class="st1" d="m111.88 177.27-95.98-8.26V44.69h95.98z"/><path style="fill:#eaeaea" d="m176.81 168.01-58.29 9.26V44.69h58.29z"/></g><g id="Platform_Icons"><circle cx="237.9" cy="157.08" r="25" style="fill:#ea531a"/><path id="Ubuntu_Icon" class="st1" d="M224.59 154.39a2.69 2.69 0 0 0-2.69 2.69c0 1.48 1.2 2.68 2.69 2.68 1.48 0 2.68-1.2 2.68-2.68 0-1.48-1.2-2.69-2.68-2.69zm19.17 12.21a2.69 2.69 0 0 0-.98 3.67 2.69 2.69 0 0 0 3.67.98 2.69 2.69 0 0 0 .98-3.67 2.692 2.692 0 0 0-3.67-.98zm-13.34-9.52c0-2.65 1.32-5 3.33-6.42l-1.96-3.29c-2.35 1.57-4.1 3.97-4.82 6.78.85.69 1.39 1.74 1.39 2.92s-.54 2.23-1.39 2.92c.73 2.81 2.47 5.21 4.82 6.78l1.96-3.29a7.792 7.792 0 0 1-3.33-6.4zm7.84-7.84c4.1 0 7.46 3.14 7.81 7.15l3.83-.06c-.19-2.96-1.48-5.61-3.47-7.57a3.777 3.777 0 0 1-5.06-2.92c-.99-.27-2.04-.42-3.12-.42-1.86 0-3.61.44-5.17 1.21l1.87 3.34c1.01-.47 2.13-.73 3.31-.73zm0 15.68c-1.18 0-2.3-.26-3.3-.73l-1.87 3.34c1.56.77 3.31 1.21 5.17 1.21 1.08 0 2.12-.15 3.12-.42a3.777 3.777 0 0 1 5.06-2.92 11.62 11.62 0 0 0 3.47-7.57l-3.83-.06c-.36 4.01-3.72 7.15-7.82 7.15zm5.5-17.36c1.28.74 2.93.3 3.67-.98s.3-2.93-.98-3.67-2.93-.3-3.67.98a2.69 2.69 0 0 0 .98 3.67z"/><circle transform="rotate(-80.781 238.142 98.096)" cx="238.14" cy="98.1" style="fill:#444" r="25"/><path class="st1" d="M244.46 98.6c.04 4.09 3.58 5.45 3.62 5.46-.03.1-.57 1.94-1.87 3.84-1.13 1.64-2.29 3.28-4.13 3.32-1.81.03-2.39-1.07-4.46-1.07s-2.71 1.04-4.42 1.11c-1.78.07-3.13-1.78-4.26-3.42-2.32-3.35-4.09-9.47-1.71-13.6 1.18-2.05 3.29-3.35 5.59-3.38 1.74-.03 3.39 1.17 4.46 1.17s3.07-1.45 5.17-1.24c.88.04 3.35.36 4.94 2.68-.14.07-2.96 1.71-2.93 5.13m-3.4-10.03c.94-1.14 1.58-2.73 1.4-4.31-1.36.05-3 .91-3.98 2.05-.87 1.01-1.64 2.63-1.43 4.18 1.52.11 3.07-.78 4.01-1.92" id="Apple_Icon"/><g><circle transform="rotate(-78.018 237.963 39.191)" cx="237.96" cy="39.19" style="fill:#0079d8" r="25"/><path id="Windows_Icon" class="st1" d="M250.4 40.64v12.01c0 .03-.01.05-.01.07-.04.3-.31.51-.61.47l-11.93-1.58a.54.54 0 0 1-.52-.54V40.62h.01c0-.3.24-.55.54-.55l11.93.02h.05c.3 0 .54.25.54.55zm-14.35-.02v10.22c-.04.3-.31.51-.61.47l-11.24-1.4a.551.551 0 0 1-.5-.54v-8.73c0-.3.24-.54.55-.54l11.21-.03h.05c.29 0 .54.24.54.55zm0-12.32v9.96c0 .3-.24.54-.54.54h-11.32c-.3 0-.55-.24-.55-.54v-8.53c0-.27.21-.51.48-.54l11.27-1.42c.04-.01.08-.01.12-.01.29-.01.54.24.54.54zm13.8 10.5h-11.97c-.3 0-.55-.24-.55-.54V28.01h.01c0-.27.2-.5.47-.54l11.93-1.56c.04-.01.08-.01.12-.01.3 0 .55.24.55.55v11.81c-.01.29-.25.54-.56.54z"/></g></g></g><g id="Aspose.PUB"><path class="st6" d="M78.74 92.17c0 6.82-2.13 12.03-6.39 15.64s-10.32 5.41-18.17 5.41h-5.76v23.57H34.99V72.42h20.23c7.68 0 13.52 1.65 17.52 4.96s6 8.24 6 14.79zm-30.32 10.05h4.42c4.13 0 7.22-.82 9.27-2.45s3.08-4.01 3.08-7.13c0-3.15-.86-5.47-2.58-6.97s-4.41-2.25-8.08-2.25h-6.11v18.8z"/><path class="st6" d="M76.22 115.76v13.98c0 1.6-.36 3-1.07 4.2s-1.75 2.12-3.1 2.76-2.95.96-4.79.96c-2.78 0-4.94-.71-6.47-2.14-1.54-1.42-2.31-3.37-2.31-5.85v-13.93h4.57v13.23c0 1.67.34 2.89 1.01 3.67s1.78 1.17 3.33 1.17c1.5 0 2.58-.39 3.26-1.17s1.01-2.01 1.01-3.69v-13.2h4.56v.01zM77.88 115.76h6.73c3.06 0 5.29.44 6.67 1.31 1.38.87 2.08 2.26 2.08 4.16 0 1.29-.3 2.35-.91 3.18s-1.41 1.33-2.42 1.49v.15c1.37.31 2.36.88 2.96 1.71.61.84.91 1.95.91 3.34 0 1.97-.71 3.51-2.14 4.61s-3.36 1.66-5.8 1.66h-8.09v-21.61h.01zm4.58 8.56h2.66c1.24 0 2.14-.19 2.7-.58s.84-1.02.84-1.91c0-.83-.3-1.42-.91-1.78s-1.56-.54-2.88-.54h-2.41v4.81zm0 3.64v5.63h2.99c1.26 0 2.19-.24 2.79-.72s.9-1.22.9-2.22c0-1.79-1.28-2.69-3.84-2.69h-2.84z"/><g id="Shape_1_"><path class="st6" d="M165.81 136.89h-34.04c-1.7 0-1.94-1.07-1.97-1.53-.01-.16-.04-1.54 1.64-1.74 1.47-.18 2.14-.41 2.42-.55v-29.92c0-.9.73-1.62 1.62-1.62h33.53c.9 0 1.62.73 1.62 1.62v28.92c.01 2.65-2.15 4.82-4.82 4.82zm-28.7-3.25h28.7c.87 0 1.58-.71 1.58-1.58v-27.29h-30.28v28.69c.01.06 0 .12 0 .18z"/><path class="st6" d="M130.88 136.85c-3.41 0-6.19-2.78-6.19-6.19v-23.78c0-.9.73-1.62 1.62-1.62h9.12c.9 0 1.62.73 1.62 1.62v23.78a6.178 6.178 0 0 1-6.17 6.19zm-2.94-28.35v22.16c0 1.62 1.32 2.94 2.94 2.94s2.94-1.32 2.94-2.94V108.5h-5.88z"/><g><path class="st6" d="M152.15 117.21h10.77v8.85h-10.77zM161.32 115.15h-18.3c-.88 0-1.61-.72-1.61-1.61 0-.88.72-1.61 1.61-1.61h18.3c.88 0 1.61.72 1.61 1.61-.01.88-.73 1.61-1.61 1.61zM148.66 117.13h-5.64c-.88 0-1.61.72-1.61 1.61 0 .88.72 1.61 1.61 1.61h5.64c.88 0 1.61-.72 1.61-1.61-.01-.89-.73-1.61-1.61-1.61zM148.66 122.79h-5.64c-.88 0-1.61.72-1.61 1.61 0 .88.72 1.61 1.61 1.61h5.64c.88 0 1.61-.72 1.61-1.61-.01-.88-.73-1.61-1.61-1.61z"/></g></g></g></svg>