<svg version="1.1" id="Layer_1" xmlns="http://www.w3.org/2000/svg" x="0" y="0" viewBox="0 0 280 200" style="enable-background:new 0 0 280 200" xml:space="preserve"><style>.st0{fill:#c1c1c1;stroke:#c1c1c1;stroke-miterlimit:10}.st1{fill:#fff}.st6{fill:#b5b5b5}</style><g id="Base"><g id="Lines"><path class="st0" d="M176.52 51.09h11.08M176.61 167.3h11.04M195.61 49.01v4.54M195.61 58.86v21.83M201.01 129.88v39.63M187.65 130.24h13.86M201.01 174.84v6.04M264.1 59.65v4.54M264.1 80.74v4.55M264.1 90.85v29.26M208.59 109.32h-20.94M206.57 88.29h-18.92M206.12 61.76v27.03M229.52 162.12h-20.93M243.07 120.69v65.12M227.41 61.27v16.35M253.87 57.58v4.55M264.1 149.17v4.55M205.63 61.74h13.81M227.41 61.76h26.97M216.64 74.79v5.19M187.65 98.65h26.97M187.65 119.6h76.45M216.73 127.86v53.02"/></g><g id="Left_Right_Boxes"><path class="st1" d="m111.88 177.27-95.98-8.26V44.69h95.98z"/><path style="fill:#eaeaea" d="m176.81 168.01-58.29 9.26V44.69h58.29z"/></g><g id="Platform_Icons"><circle cx="237.9" cy="157.08" r="25" style="fill:#ea531a"/><path id="Ubuntu_Icon" class="st1" d="M224.59 154.39a2.69 2.69 0 0 0-2.69 2.69c0 1.48 1.2 2.68 2.69 2.68 1.48 0 2.68-1.2 2.68-2.68 0-1.48-1.2-2.69-2.68-2.69zm19.17 12.21a2.69 2.69 0 0 0-.98 3.67 2.69 2.69 0 0 0 3.67.98 2.69 2.69 0 0 0 .98-3.67 2.692 2.692 0 0 0-3.67-.98zm-13.34-9.52c0-2.65 1.32-5 3.33-6.42l-1.96-3.29c-2.35 1.57-4.1 3.97-4.82 6.78.85.69 1.39 1.74 1.39 2.92s-.54 2.23-1.39 2.92c.73 2.81 2.47 5.21 4.82 6.78l1.96-3.29a7.792 7.792 0 0 1-3.33-6.4zm7.84-7.84c4.1 0 7.46 3.14 7.81 7.15l3.83-.06c-.19-2.96-1.48-5.61-3.47-7.57a3.777 3.777 0 0 1-5.06-2.92c-.99-.27-2.04-.42-3.12-.42-1.86 0-3.61.44-5.17 1.21l1.87 3.34c1.01-.47 2.13-.73 3.31-.73zm0 15.68c-1.18 0-2.3-.26-3.3-.73l-1.87 3.34c1.56.77 3.31 1.21 5.17 1.21 1.08 0 2.12-.15 3.12-.42a3.777 3.777 0 0 1 5.06-2.92 11.62 11.62 0 0 0 3.47-7.57l-3.83-.06c-.36 4.01-3.72 7.15-7.82 7.15zm5.5-17.36c1.28.74 2.93.3 3.67-.98.74-1.28.3-2.93-.98-3.67-1.28-.74-2.93-.3-3.67.98a2.69 2.69 0 0 0 .98 3.67z"/><circle cx="238.14" cy="98.1" r="25" style="fill:#444"/><path class="st1" d="M244.46 98.6c.04 4.09 3.58 5.45 3.62 5.46-.03.1-.57 1.94-1.87 3.84-1.13 1.64-2.29 3.28-4.13 3.32-1.81.03-2.39-1.07-4.46-1.07s-2.71 1.04-4.42 1.11c-1.78.07-3.13-1.78-4.26-3.42-2.32-3.35-4.09-9.47-1.71-13.6 1.18-2.05 3.29-3.35 5.59-3.38 1.74-.03 3.39 1.17 4.46 1.17 1.07 0 3.07-1.45 5.17-1.24.88.04 3.35.36 4.94 2.68-.14.07-2.96 1.71-2.93 5.13m-3.4-10.03c.94-1.14 1.58-2.73 1.4-4.31-1.36.05-3 .91-3.98 2.05-.87 1.01-1.64 2.63-1.43 4.18 1.52.11 3.07-.78 4.01-1.92" id="Apple_Icon"/><g><circle cx="237.96" cy="39.19" r="25" style="fill:#0079d8"/><path id="Windows_Icon" class="st1" d="M250.4 40.64v12.01c0 .03-.01.05-.01.07-.04.3-.31.51-.61.47l-11.93-1.58a.54.54 0 0 1-.52-.54V40.62h.01c0-.3.24-.55.54-.55l11.93.02h.05c.3 0 .54.25.54.55zm-14.35-.02v10.22c-.04.3-.31.51-.61.47l-11.24-1.4a.551.551 0 0 1-.5-.54v-8.73c0-.3.24-.54.55-.54l11.21-.03h.05c.29 0 .54.24.54.55zm0-12.32v9.96c0 .3-.24.54-.54.54h-11.32c-.3 0-.55-.24-.55-.54v-8.53c0-.27.21-.51.48-.54l11.27-1.42c.04-.01.08-.01.12-.01.29-.01.54.24.54.54zm13.8 10.5h-11.97c-.3 0-.55-.24-.55-.54V28.01h.01c0-.27.2-.5.47-.54l11.93-1.56c.04-.01.08-.01.12-.01.3 0 .55.24.55.55v11.81c-.01.29-.25.54-.56.54z"/></g></g></g><g id="Aspose.OMR"><path class="st6" d="M51.08 107.32c0 5.17-1.28 9.15-3.85 11.93-2.57 2.78-6.24 4.17-11.03 4.17-4.79 0-8.47-1.39-11.03-4.17-2.57-2.78-3.85-6.77-3.85-11.97s1.29-9.18 3.86-11.92 6.26-4.12 11.07-4.12c4.8 0 8.48 1.38 11.02 4.15 2.54 2.76 3.81 6.74 3.81 11.93zm-22.81 0c0 3.49.66 6.12 1.99 7.89s3.31 2.65 5.94 2.65c5.29 0 7.93-3.51 7.93-10.54 0-7.04-2.63-10.56-7.89-10.56-2.64 0-4.63.89-5.97 2.66-1.33 1.77-2 4.4-2 7.9zM74.07 122.99h-6.52v-13.96c0-1.72-.29-3.02-.87-3.88-.58-.86-1.49-1.29-2.73-1.29-1.67 0-2.88.61-3.63 1.84-.76 1.23-1.13 3.24-1.13 6.05V123h-6.52V99.08h4.98l.88 3.06h.36c.64-1.1 1.57-1.96 2.78-2.58s2.6-.93 4.17-.93c3.58 0 6 1.17 7.27 3.51h.58c.64-1.11 1.59-1.97 2.83-2.59 1.25-.61 2.65-.92 4.22-.92 2.71 0 4.76.7 6.15 2.08 1.39 1.39 2.08 3.62 2.08 6.68v15.59h-6.54v-13.96c0-1.72-.29-3.02-.87-3.88-.58-.86-1.49-1.29-2.73-1.29-1.6 0-2.79.57-3.58 1.71-.79 1.14-1.19 2.95-1.19 5.43v12zM104.63 98.63c.88 0 1.62.06 2.2.19l-.49 6.11c-.53-.14-1.17-.21-1.92-.21-2.08 0-3.7.54-4.86 1.6-1.16 1.07-1.74 2.57-1.74 4.49v12.17H91.3v-23.9h4.94l.96 4.02h.32a8.982 8.982 0 0 1 3-3.24 7.388 7.388 0 0 1 4.11-1.23z"/><g id="OMR"><path class="st6" d="M146.56 126.81c-13.62 0-24.71-11.08-24.71-24.71s11.08-24.71 24.71-24.71 24.71 11.08 24.71 24.71-11.09 24.71-24.71 24.71zm0-40.78c-8.86 0-16.07 7.21-16.07 16.07s7.21 16.07 16.07 16.07 16.07-7.21 16.07-16.07-7.21-16.07-16.07-16.07z"/><path class="st6" d="m166.94 115.08 9.87 8.68v12.32l-15.39-15.22z"/><g><circle class="st6" cx="125.21" cy="133.75" r="3.89"/><circle class="st6" cx="150.44" cy="145.94" r="3.89"/><path class="st6" d="M137.55 137.64c-2.14 0-3.89-1.74-3.89-3.89 0-2.14 1.74-3.89 3.89-3.89s3.89 1.74 3.89 3.89c0 2.14-1.74 3.89-3.89 3.89zm0-6.05c-1.19 0-2.16.97-2.16 2.16s.97 2.16 2.16 2.16 2.16-.97 2.16-2.16-.97-2.16-2.16-2.16zM151 137.64c-2.14 0-3.89-1.74-3.89-3.89 0-2.14 1.74-3.89 3.89-3.89s3.89 1.74 3.89 3.89a3.9 3.9 0 0 1-3.89 3.89zm0-6.05c-1.19 0-2.16.97-2.16 2.16s.97 2.16 2.16 2.16 2.16-.97 2.16-2.16-.97-2.16-2.16-2.16zM162.73 149.83c-2.14 0-3.89-1.74-3.89-3.89 0-2.14 1.74-3.89 3.89-3.89 2.14 0 3.89 1.74 3.89 3.89 0 2.15-1.74 3.89-3.89 3.89zm0-6.05c-1.19 0-2.16.97-2.16 2.16s.97 2.16 2.16 2.16 2.16-.97 2.16-2.16-.97-2.16-2.16-2.16zM138.42 149.83c-2.14 0-3.89-1.74-3.89-3.89 0-2.14 1.74-3.89 3.89-3.89 2.14 0 3.89 1.74 3.89 3.89-.01 2.15-1.75 3.89-3.89 3.89zm0-6.05c-1.19 0-2.16.97-2.16 2.16s.97 2.16 2.16 2.16 2.16-.97 2.16-2.16-.97-2.16-2.16-2.16zM125.21 149.83c-2.14 0-3.89-1.74-3.89-3.89 0-2.14 1.74-3.89 3.89-3.89s3.89 1.74 3.89 3.89c-.01 2.15-1.75 3.89-3.89 3.89zm0-6.05c-1.19 0-2.16.97-2.16 2.16s.97 2.16 2.16 2.16 2.16-.97 2.16-2.16-.97-2.16-2.16-2.16z"/></g></g></g></svg>