<svg version="1.1" id="Layer_1" xmlns="http://www.w3.org/2000/svg" x="0" y="0" viewBox="0 0 280 200" style="enable-background:new 0 0 280 200" xml:space="preserve"><style>.st0{fill:none;stroke:#c1c1c1;stroke-miterlimit:10}.st1{fill:#fff}.st2{fill:#eaeaea}.st6{fill:#b5b5b5}</style><g id="Base"><g id="Lines"><path class="st0" d="M176.52 51.09h11.08M176.61 167.3h11.04M195.61 49.01v4.54M195.61 58.86v21.83M201.01 129.88v39.63M187.65 130.24h13.86M201.01 174.84v6.04M264.1 59.65v4.54M264.1 80.74v4.55M264.1 90.85v29.26M208.59 109.32h-20.94M206.57 88.29h-18.92M206.12 61.76v27.03M229.52 162.12h-20.93M243.07 120.69v65.12M227.41 61.27v16.35M253.87 57.58v4.55M264.1 149.17v4.55M205.63 61.74h13.81M227.41 61.76h26.97M216.64 74.79v5.19M187.65 98.65h26.97M187.65 119.6h76.45M216.73 127.86v53.02"/></g><g id="Left_Right_Boxes"><path class="st1" d="m111.88 177.27-95.98-8.26V44.69h95.98z"/><path class="st2" d="m176.81 168.01-58.29 9.26V44.69h58.29z"/></g><g id="Platform_Icons"><circle cx="237.9" cy="157.08" r="25" style="fill:#ea531a"/><path id="Ubuntu_Icon" class="st1" d="M224.59 154.39a2.69 2.69 0 0 0-2.69 2.69c0 1.48 1.2 2.68 2.69 2.68 1.48 0 2.68-1.2 2.68-2.68 0-1.48-1.2-2.69-2.68-2.69zm19.17 12.21a2.69 2.69 0 0 0-.98 3.67 2.69 2.69 0 0 0 3.67.98 2.69 2.69 0 0 0 .98-3.67 2.692 2.692 0 0 0-3.67-.98zm-13.34-9.52c0-2.65 1.32-5 3.33-6.42l-1.96-3.29c-2.35 1.57-4.1 3.97-4.82 6.78.85.69 1.39 1.74 1.39 2.92s-.54 2.23-1.39 2.92c.73 2.81 2.47 5.21 4.82 6.78l1.96-3.29a7.792 7.792 0 0 1-3.33-6.4zm7.84-7.84c4.1 0 7.46 3.14 7.81 7.15l3.83-.06c-.19-2.96-1.48-5.61-3.47-7.57a3.777 3.777 0 0 1-5.06-2.92c-.99-.27-2.04-.42-3.12-.42-1.86 0-3.61.44-5.17 1.21l1.87 3.34c1.01-.47 2.13-.73 3.31-.73zm0 15.68c-1.18 0-2.3-.26-3.3-.73l-1.87 3.34c1.56.77 3.31 1.21 5.17 1.21 1.08 0 2.12-.15 3.12-.42a3.777 3.777 0 0 1 5.06-2.92 11.62 11.62 0 0 0 3.47-7.57l-3.83-.06c-.36 4.01-3.72 7.15-7.82 7.15zm5.5-17.36c1.28.74 2.93.3 3.67-.98s.3-2.93-.98-3.67-2.93-.3-3.67.98a2.69 2.69 0 0 0 .98 3.67z"/><circle transform="rotate(-80.781 238.142 98.096)" cx="238.14" cy="98.1" style="fill:#444" r="25"/><path class="st1" d="M244.46 98.6c.04 4.09 3.58 5.45 3.62 5.46-.03.1-.57 1.94-1.87 3.84-1.13 1.64-2.29 3.28-4.13 3.32-1.81.03-2.39-1.07-4.46-1.07s-2.71 1.04-4.42 1.11c-1.78.07-3.13-1.78-4.26-3.42-2.32-3.35-4.09-9.47-1.71-13.6 1.18-2.05 3.29-3.35 5.59-3.38 1.74-.03 3.39 1.17 4.46 1.17s3.07-1.45 5.17-1.24c.88.04 3.35.36 4.94 2.68-.14.07-2.96 1.71-2.93 5.13m-3.4-10.03c.94-1.14 1.58-2.73 1.4-4.31-1.36.05-3 .91-3.98 2.05-.87 1.01-1.64 2.63-1.43 4.18 1.52.11 3.07-.78 4.01-1.92" id="Apple_Icon"/><g><circle transform="rotate(-78.018 237.963 39.191)" cx="237.96" cy="39.19" style="fill:#0079d8" r="25"/><path id="Windows_Icon" class="st1" d="M250.4 40.64v12.01c0 .03-.01.05-.01.07-.04.3-.31.51-.61.47l-11.93-1.58a.54.54 0 0 1-.52-.54V40.62h.01c0-.3.24-.55.54-.55l11.93.02h.05c.3 0 .54.25.54.55zm-14.35-.02v10.22c-.04.3-.31.51-.61.47l-11.24-1.4a.551.551 0 0 1-.5-.54v-8.73c0-.3.24-.54.55-.54l11.21-.03h.05c.29 0 .54.24.54.55zm0-12.32v9.96c0 .3-.24.54-.54.54h-11.32c-.3 0-.55-.24-.55-.54v-8.53c0-.27.21-.51.48-.54l11.27-1.42c.04-.01.08-.01.12-.01.29-.01.54.24.54.54zm13.8 10.5h-11.97c-.3 0-.55-.24-.55-.54V28.01h.01c0-.27.2-.5.47-.54l11.93-1.56c.04-.01.08-.01.12-.01.3 0 .55.24.55.55v11.81c-.01.29-.25.54-.56.54z"/></g></g></g><g id="Aspose.ZIP"><g id="ZIP"><path class="st6" d="M162.2 98.09h-30.74l-5.17-8.03h-7.73v23.65c0 4.65-.09 9.37 0 14.02.03 1.36-.02 2.61 0 3.97h43.64l-12.79-5.75 12.79-27.86z"/><path class="st6" d="M118.56 101.39v.84h32.02l.32-.84h-32.34z"/><path class="st2" d="M153.49 95.85c-4.51 7.76-7.64 22.77-7.64 28.07 0 7.27 5.89 13.17 13.17 13.17s13.17-5.89 13.17-13.17c0-5.35-3.05-20.37-7.63-28.06m-5.83 32.54c-2.81 0-5.09-2.28-5.09-5.09s2.28-8.04 5.09-8.04 5.09 5.23 5.09 8.04c0 2.81-2.28 5.09-5.09 5.09z"/><path class="st6" d="M154.09 59.31h4.93v4.86h-4.93zM154.09 68.99h4.93v4.86h-4.93zM159.02 64.13h4.93v4.86h-4.93zM159.02 73.85h4.93v4.86h-4.93z"/><g><path class="st6" d="M154.09 49.59h4.93v4.86h-4.93zM159.02 44.73h4.93v4.86h-4.93zM159.02 54.45h4.93v4.86h-4.93z"/></g><g><path class="st6" d="M154.09 78.71h4.93v4.86h-4.93zM154.09 88.39h4.93v4.86h-4.93zM159.02 83.53h4.93v4.86h-4.93zM159.02 93.25h4.93v4.86h-4.93z"/></g><path class="st6" d="M154.09 98.1c-4.02 6.92-6.8 20.29-6.8 25.01 0 6.48 5.25 11.73 11.73 11.73s11.73-5.25 11.73-11.73c0-4.76-2.72-18.15-6.8-25m-5.19 28.99c-2.51 0-4.54-2.03-4.54-4.54s2.03-7.17 4.54-7.17 4.54 4.66 4.54 7.17-2.04 4.54-4.54 4.54z"/></g><path class="st6" d="m84.55 138.86-44.46-1.68.36-9.52L66.49 93.5l-24.12-.91.47-12.45 43.25 1.64-.36 9.49-26.04 34.2 25.33.96-.47 12.43z"/></g></svg>