<?xml version="1.0" encoding="utf-8"?>
<!-- Generator: Adobe Illustrator 25.2.0, SVG Export Plug-In . SVG Version: 6.00 Build 0)  -->
<svg version="1.1" id="Layer_1" xmlns="http://www.w3.org/2000/svg" xmlns:xlink="http://www.w3.org/1999/xlink" x="0px" y="0px"
	 viewBox="0 0 320 320" style="enable-background:new 0 0 320 320;" xml:space="preserve">
<style type="text/css">
	.st0{fill:none;stroke:#EFEFEF;stroke-linecap:round;stroke-linejoin:round;stroke-miterlimit:10;stroke-dasharray:4,8;}
	.st1{fill-rule:evenodd;clip-rule:evenodd;fill:#FFFFFF;}
	.st2{fill-rule:evenodd;clip-rule:evenodd;fill:#82C2CC;}
	.st3{fill:#82C2CC;}
	.st4{fill:#FFFFFF;}
	.st5{display:none;fill:#FFFFFF;}
	.st6{fill:#EFEFEF;}
	.st7{fill:#DEDFDF;}
	.st8{fill:#4296D2;}
	.st9{fill:#0380BA;}
</style>
<circle class="st0" cx="154.17" cy="163.2" r="123.74"/>
<g id="PDF">
	<path id="XMLID_36_" class="st1" d="M227.95,153.65c-19.63,0-36.29,6.91-50.01,20.71c-13.79,13.72-20.69,30.4-20.69,50.03
		s6.9,36.28,20.69,49.91c5.06,5.16,10.54,9.36,16.45,12.61h-85.87c-1.37-0.08-2.7-0.47-3.98-1.16c-2.14-1.03-3.21-3.05-3.21-6.04
		V105.03c0.17-1.55,0.51-2.87,1.03-3.99c1.11-2.15,3.17-3.21,6.17-3.21h174.7l1.16,0.26c1.03,0.18,1.93,0.43,2.7,0.77
		c2.23,1.03,3.34,3.08,3.34,6.17v85.93c-3.24-5.93-7.44-11.47-12.6-16.59C263.94,160.56,247.32,153.65,227.95,153.65z"/>
	<path id="XMLID_33_" class="st2" d="M227.95,153.65c19.37,0,35.99,6.91,49.87,20.71c5.16,5.13,9.36,10.66,12.6,16.59v-85.91
		c0-3.09-1.11-5.15-3.34-6.17c-0.77-0.34-1.67-0.6-2.7-0.77l-1.16-0.26h-174.7c-3,0-5.06,1.07-6.17,3.21
		c-0.52,1.11-0.86,2.44-1.03,3.99v174.68c0,3,1.07,5.02,3.21,6.04c1.29,0.69,2.61,1.07,3.98,1.16h85.87
		c-5.91-3.24-11.39-7.45-16.45-12.61c-13.79-13.63-20.69-30.27-20.69-49.91s6.9-36.31,20.69-50.03
		C191.65,160.56,208.32,153.65,227.95,153.65z M287.85,89.85c1.89,0.34,3.34,0.81,4.37,1.42c4.29,2.06,6.43,5.79,6.43,11.19v121.95
		c0,19.55-6.94,36.19-20.83,49.91c-13.88,13.89-30.51,20.84-49.87,20.84H105.95c-2.06,0-4.2-0.51-6.43-1.55
		c-4.29-2.23-6.43-6-6.43-11.32V102.46c0-2.15,0.56-4.29,1.67-6.43c2.06-4.29,5.79-6.43,11.18-6.43h179.84L287.85,89.85z"/>
	<g>
		<path class="st3" d="M144.63,129.25c0,4.65-1.52,8.22-4.58,10.7c-3.05,2.48-7.38,3.72-13.02,3.72h-4.64v16.67h-7.29v-44.56h12.84
			c5.57,0,9.74,1.14,12.52,3.41C143.25,121.47,144.63,124.82,144.63,129.25z M122.42,137.54h3.87c3.74,0,6.48-0.65,8.23-1.95
			c1.74-1.3,2.62-3.33,2.62-6.1c0-2.56-0.78-4.47-2.34-5.73c-1.57-1.26-4-1.89-7.32-1.89h-5.06L122.42,137.54L122.42,137.54z"/>
	</g>
	<g id="_x33__8_">
		<g>
			<g>
				<path class="st4" d="M271.92,229.48h-38.1c-1.29,0-2.34-1.05-2.34-2.34v-24.81c0-1.29,1.05-2.34,2.34-2.34h38.1
					c1.29,0,2.34,1.05,2.34,2.34v24.81C274.26,228.43,273.21,229.48,271.92,229.48z"/>
				<polygon class="st3" points="236.35,224.19 245.19,214.9 251.24,220.81 260.53,208.49 270.8,224 				"/>
				<circle class="st3" cx="238.75" cy="209.22" r="2.39"/>
			</g>
			<g id="Lines_9_">
				<path class="st4" d="M220.45,228.86h-19.76c-2.57,0-4.67-2.1-4.67-4.67l0,0c0-2.57,2.1-4.67,4.67-4.67h19.76
					c2.57,0,4.67,2.1,4.67,4.67l0,0C225.12,226.76,223.02,228.86,220.45,228.86z"/>
				<ellipse class="st4" cx="186.52" cy="224.19" rx="4.66" ry="4.66"/>
				<g>
					<path class="st4" d="M220.45,209.33h-33.93c-2.57,0-4.67-2.1-4.67-4.67l0,0c0-2.57,2.1-4.67,4.67-4.67h33.93
						c2.57,0,4.67,2.1,4.67,4.67l0,0C225.12,207.22,223.02,209.33,220.45,209.33z"/>
					<ellipse class="st5" cx="188.11" cy="249.58" rx="4.66" ry="4.66"/>
				</g>
				<g>
					<path class="st4" d="M237.43,248.19h-50.9c-2.57,0-4.67-2.1-4.67-4.67l0,0c0-2.57,2.1-4.67,4.67-4.67h50.9
						c2.57,0,4.67,2.1,4.67,4.67l0,0C242.09,246.09,239.99,248.19,237.43,248.19z"/>
					<ellipse class="st5" cx="188.11" cy="233.57" rx="4.66" ry="4.66"/>
				</g>
			</g>
		</g>
		<path class="st5" d="M210.01,222.03h-21.68c-2.57,0-4.67-2.1-4.67-4.67l0,0c0-2.57,2.1-4.67,4.67-4.67h21.68
			c2.57,0,4.67,2.1,4.67,4.67l0,0C214.67,219.93,212.57,222.03,210.01,222.03z"/>
		<path class="st5" d="M210.01,201.88h-21.68c-2.57,0-4.67-2.1-4.67-4.67l0,0c0-2.57,2.1-4.67,4.67-4.67h21.68
			c2.57,0,4.67,2.1,4.67,4.67l0,0C214.67,199.78,212.57,201.88,210.01,201.88z"/>
		<path class="st4" d="M237.43,248.19h-1.36c-2.57,0-4.67-2.1-4.67-4.67l0,0c0-2.57,2.1-4.67,4.67-4.67h1.36
			c2.57,0,4.67,2.1,4.67,4.67l0,0C242.09,246.09,239.99,248.19,237.43,248.19z"/>
		<path class="st4" d="M269.6,248.19h-15.97c-2.57,0-4.67-2.1-4.67-4.67l0,0c0-2.57,2.1-4.67,4.67-4.67h15.97
			c2.57,0,4.67,2.1,4.67,4.67l0,0C274.26,246.09,272.17,248.19,269.6,248.19z"/>
	</g>
</g>
<g>
	<path class="st6" d="M274.83,141.96c-19.03,0-34.51-15.48-34.51-34.51s15.48-34.51,34.51-34.51s34.51,15.48,34.51,34.51
		S293.86,141.96,274.83,141.96z"/>
	<path class="st7" d="M274.83,74.45c18.2,0,33.01,14.81,33.01,33.01s-14.81,33.01-33.01,33.01s-33.01-14.81-33.01-33.01
		S256.63,74.45,274.83,74.45 M274.83,71.45c-19.89,0-36.01,16.12-36.01,36.01s16.12,36.01,36.01,36.01s36.01-16.12,36.01-36.01
		S294.72,71.45,274.83,71.45L274.83,71.45z"/>
</g>
<g>
	<g>
		<polygon class="st8" points="212.94,47.07 231.19,48.19 229.78,65.23 222.61,70.15 215.36,66.73 		"/>
		<polygon class="st8" points="159.28,50.4 163.44,50.4 164.78,47.07 165.44,27.68 158.78,23.9 146.28,23.9 145.28,38.07 
			145.78,49.98 		"/>
		<polygon class="st8" points="89.03,54.9 82.11,48.65 70.36,49.07 69.94,74.9 70.69,75.82 89.03,75.82 		"/>
		<polygon class="st8" points="46.53,116.48 40.28,110.32 28.11,110.32 28.11,137.23 46.53,137.57 		"/>
		<polygon class="st8" points="51.03,191.07 44.94,185.65 28.69,185.32 27.19,187.15 27.19,208.69 50.53,209.07 		"/>
		<polygon class="st8" points="78.78,247.15 72.78,241.15 58.44,240.67 59.03,267.98 77.69,267.98 		"/>
	</g>
	<g>
		<g>
			<path class="st6" d="M210.79,45.07h22.5l-2.05,23.2l-9.2,3.05l-9.2-3.05L210.79,45.07z M228.83,52.57l0.29-2.81H215l0.7,8.55
				h9.79l-0.35,3.63l-3.11,0.82l-3.16-0.82l-0.23-2.23h-2.75l0.35,4.45l5.8,1.58h0.06l5.68-1.58l0.82-8.73h-10.31l-0.23-2.87h10.77
				V52.57z"/>
		</g>
		<g>
			<path class="st6" d="M165.44,27.68c0.55,0.55,0.82,1.21,0.82,1.99v19.45c0,0.78-0.27,1.44-0.82,1.99
				c-0.55,0.55-1.21,0.82-1.99,0.82h-16.87c-0.78,0-1.45-0.27-1.99-0.82c-0.55-0.55-0.82-1.21-0.82-1.99V24.75
				c0-0.78,0.27-1.44,0.82-1.99s1.21-0.82,1.99-0.82h11.95c0.78,0,1.44,0.27,1.99,0.82L165.44,27.68z M146.57,49.12h16.87V32.25
				h-6.09c-0.39,0-0.72-0.14-1-0.41c-0.27-0.27-0.41-0.6-0.41-1v-6.09h-9.38v24.37C146.56,49.12,146.57,49.12,146.57,49.12z
				 M149.27,33.07c0.55-0.55,1.21-0.82,1.99-0.82s1.44,0.27,1.99,0.82s0.82,1.21,0.82,1.99c0,0.78-0.27,1.45-0.82,1.99
				c-0.55,0.55-1.21,0.82-1.99,0.82s-1.45-0.27-1.99-0.82c-0.55-0.55-0.82-1.21-0.82-1.99S148.72,33.62,149.27,33.07z M148.45,46.31
				v-3.75l2.34-2.34c0.31-0.31,0.62-0.31,0.94,0l2.34,2.34l5.16-5.16c0.31-0.31,0.62-0.31,0.94,0l1.41,1.41v7.5H148.45z
				 M163.21,29.44l-4.45-4.45v4.45C158.76,29.44,163.21,29.44,163.21,29.44z"/>
		</g>
		<g>
			<path class="st6" d="M89.97,53.39c0.55,0.55,0.82,1.21,0.82,1.99v19.45c0,0.78-0.27,1.44-0.82,1.99
				c-0.55,0.55-1.21,0.82-1.99,0.82H71.1c-0.78,0-1.45-0.27-1.99-0.82c-0.55-0.55-0.82-1.21-0.82-1.99V50.46
				c0-0.78,0.27-1.44,0.82-1.99c0.55-0.55,1.21-0.82,1.99-0.82h11.95c0.78,0,1.44,0.27,1.99,0.82L89.97,53.39z M71.1,74.83h16.88
				V57.96h-6.09c-0.39,0-0.72-0.14-1-0.41c-0.27-0.27-0.41-0.6-0.41-1v-6.09H71.1V74.83z M83.53,60.77c0.27,0,0.48,0.12,0.62,0.35
				s0.13,0.47-0.03,0.7c-1.37,2.38-2.27,3.91-2.7,4.57l2.7,4.57c0.16,0.23,0.17,0.47,0.03,0.7c-0.14,0.23-0.34,0.35-0.62,0.35h-1.7
				c-0.27,0-0.47-0.12-0.59-0.35c-0.08-0.12-0.64-1.25-1.7-3.4c-0.47,1.05-1.04,2.19-1.7,3.4c-0.12,0.23-0.31,0.35-0.59,0.35h-1.7
				c-0.27,0-0.48-0.12-0.62-0.35c-0.14-0.23-0.13-0.47,0.03-0.7l2.7-4.57l-2.7-4.57c-0.16-0.23-0.17-0.47-0.03-0.7
				s0.34-0.35,0.62-0.35h1.7c0.27,0,0.49,0.12,0.64,0.35c0.35,0.7,0.9,1.84,1.64,3.4c0.35-0.86,0.92-1.99,1.7-3.4
				c0.12-0.23,0.31-0.35,0.59-0.35C81.82,60.77,83.53,60.77,83.53,60.77z M87.74,55.15l-4.45-4.45v4.45H87.74z"/>
		</g>
		<g>
			<path class="st6" d="M47.5,115.02c0.55,0.55,0.82,1.21,0.82,1.99v19.45c0,0.78-0.27,1.44-0.82,1.99s-1.21,0.82-1.99,0.82H28.64
				c-0.78,0-1.45-0.27-1.99-0.82c-0.55-0.55-0.82-1.21-0.82-1.99v-24.38c0-0.78,0.27-1.44,0.82-1.99c0.55-0.55,1.21-0.82,1.99-0.82
				h11.95c0.78,0,1.44,0.27,1.99,0.82L47.5,115.02z M28.64,136.47h16.88v-16.88h-6.09c-0.39,0-0.72-0.14-1-0.41
				c-0.27-0.27-0.41-0.6-0.41-1v-6.09h-9.38C28.64,112.09,28.64,136.47,28.64,136.47z M41.53,124.28h0.94
				c0.23,0,0.42,0.09,0.56,0.26c0.14,0.18,0.18,0.38,0.15,0.62c-0.39,1.48-1.08,4.14-2.05,7.97c-0.08,0.35-0.31,0.53-0.7,0.53h-1.41
				c-0.39,0-0.62-0.18-0.7-0.53c-0.27-1.13-0.62-2.54-1.05-4.22l-0.18-1c0,0.31-0.06,0.64-0.18,1l-1.05,4.22
				c-0.08,0.35-0.29,0.53-0.64,0.53h-1.46c-0.39,0-0.62-0.18-0.7-0.53c-0.12-0.47-0.43-1.75-0.94-3.84c-0.51-2.09-0.84-3.47-1-4.13
				c-0.08-0.23-0.04-0.44,0.12-0.62c0.16-0.18,0.33-0.26,0.53-0.26h1c0.39,0,0.62,0.2,0.7,0.59c0.74,3.75,1.11,5.68,1.11,5.8
				c0,0.04,0.02,0.12,0.06,0.23c0-0.23,0.47-2.27,1.41-6.09c0.12-0.35,0.35-0.53,0.7-0.53h0.76c0.39,0,0.62,0.18,0.7,0.53
				c0.9,3.79,1.37,5.74,1.41,5.86c0,0.04,0,0.12,0,0.23c0.04-0.23,0.45-2.25,1.23-6.04C40.9,124.47,41.14,124.28,41.53,124.28z
				 M45.28,116.78l-4.45-4.45v4.45H45.28z"/>
		</g>
		<g>
			<path class="st6" d="M51.25,190.05c0.55,0.55,0.82,1.21,0.82,1.99v15.7c0,0.78-0.27,1.45-0.82,1.99
				c-0.55,0.55-1.21,0.82-1.99,0.82H28.64c-0.78,0-1.45-0.27-1.99-0.82c-0.55-0.55-0.82-1.21-0.82-1.99v-20.62
				c0-0.78,0.27-1.44,0.82-1.99s1.21-0.82,1.99-0.82h15.7c0.78,0,1.44,0.27,1.99,0.82L51.25,190.05z M48.91,207.75
				c0.23,0,0.35-0.12,0.35-0.35v-15.23c0-0.08-0.04-0.16-0.12-0.23l-4.57-4.57v5.86c0,0.39-0.14,0.72-0.41,1
				c-0.27,0.27-0.61,0.41-1,0.41H32.85c-0.39,0-0.72-0.14-1-0.41c-0.27-0.27-0.41-0.6-0.41-1v-6.09h-2.46
				c-0.23,0-0.35,0.12-0.35,0.35v19.92c0,0.23,0.12,0.35,0.35,0.35h19.93V207.75z M35.31,197.55c1.02-1.01,2.23-1.52,3.63-1.52
				s2.62,0.51,3.63,1.52c1.02,1.02,1.52,2.23,1.52,3.63s-0.51,2.62-1.52,3.63c-1.02,1.02-2.23,1.52-3.63,1.52s-2.62-0.51-3.63-1.52
				c-1.02-1.01-1.52-2.23-1.52-3.63S34.3,198.57,35.31,197.55z M41.76,187.12h-7.5v4.69h7.5V187.12z M37.28,202.86
				c0.45,0.45,1,0.67,1.67,0.67c0.66,0,1.22-0.22,1.67-0.67c0.45-0.45,0.67-1,0.67-1.67c0-0.66-0.23-1.22-0.67-1.67
				c-0.45-0.45-1.01-0.67-1.67-0.67c-0.67,0-1.22,0.23-1.67,0.67c-0.45,0.45-0.67,1.01-0.67,1.67
				C36.6,201.85,36.83,202.41,37.28,202.86z"/>
		</g>
		<g>
			<path class="st6" d="M79.3,245.59c0.55,0.55,0.82,1.21,0.82,1.99v19.45c0,0.78-0.27,1.44-0.82,1.99s-1.21,0.82-1.99,0.82H60.44
				c-0.78,0-1.45-0.27-1.99-0.82c-0.55-0.55-0.82-1.21-0.82-1.99v-24.38c0-0.78,0.27-1.45,0.82-1.99c0.55-0.55,1.21-0.82,1.99-0.82
				h11.95c0.78,0,1.44,0.27,1.99,0.82L79.3,245.59z M77.31,267.03v-16.88h-6.09c-0.39,0-0.72-0.14-1-0.41
				c-0.27-0.27-0.41-0.61-0.41-1v-6.09h-9.38v24.38H77.31z M66.41,260.29c0.23,0.23,0.23,0.49,0,0.76l-1,1.05
				c-0.12,0.12-0.25,0.18-0.41,0.18c-0.12,0-0.23-0.06-0.35-0.18l-3.34-3.16c-0.27-0.23-0.27-0.47,0-0.7l3.34-3.16
				c0.27-0.27,0.53-0.27,0.76,0l1,1.05v0.06c0.23,0.23,0.23,0.47,0,0.7l-1.93,1.7L66.41,260.29z M69.93,252.38l1.41,0.41
				c0.35,0.08,0.47,0.29,0.35,0.64l-3.22,11.02c-0.08,0.35-0.29,0.47-0.64,0.35l-1.41-0.41c-0.35-0.08-0.47-0.29-0.35-0.64
				l3.22-11.02C69.36,252.42,69.58,252.31,69.93,252.38z M71.33,256.9c-0.23-0.23-0.23-0.49,0-0.76l1-1.05
				c0.23-0.27,0.49-0.27,0.76,0l3.34,3.16c0.27,0.23,0.27,0.47,0,0.7l-3.34,3.16c-0.27,0.27-0.53,0.27-0.76,0l-1-1.05V261
				c-0.23-0.23-0.23-0.47,0-0.7l1.93-1.7L71.33,256.9z M72.62,242.89v4.45h4.45L72.62,242.89z"/>
		</g>
	</g>
</g>
<g id="Sharepoint">
	<path class="st9" d="M295.12,92.79c-2.05-2.95-5.51-4.57-9.67-4.91c2.15,0.49,3.89,1.52,4.99,3.11c3.8,5.47-1.19,15.52-11.14,22.43
		c-9.96,6.91-21.11,8.08-24.91,2.6c-1.64-2.36-1.64-5.56-0.33-8.99c-2.55,5.28-2.81,10.55-0.16,14.37
		c4.96,7.14,18.21,6.53,29.59-1.38C294.87,112.14,300.08,99.94,295.12,92.79z"/>
	<path class="st9" d="M258.92,111.39c1.28,1.69,3.44,2.63,6.03,2.82c-1.34-0.28-2.42-0.87-3.12-1.79
		c-2.37-3.14,0.74-8.91,6.95-12.88s13.17-4.64,15.54-1.5c1.02,1.35,1.02,3.19,0.2,5.16c1.59-3.03,1.75-6.06,0.1-8.25
		c-3.09-4.1-11.36-3.75-18.46,0.79C259.07,100.28,255.82,107.28,258.92,111.39z"/>
</g>
</svg>
