<?xml version="1.0" encoding="utf-8"?>
<!-- Generator: Adobe Illustrator 25.2.0, SVG Export Plug-In . SVG Version: 6.00 Build 0)  -->
<svg version="1.1" id="Layer_1" xmlns="http://www.w3.org/2000/svg" xmlns:xlink="http://www.w3.org/1999/xlink" x="0px" y="0px"
	 viewBox="0 0 320 320" style="enable-background:new 0 0 320 320;" xml:space="preserve">
<style type="text/css">
	.st0{fill:none;stroke:#EFEFEF;stroke-linecap:round;stroke-linejoin:round;stroke-miterlimit:10;stroke-dasharray:4,8;}
	.st1{fill-rule:evenodd;clip-rule:evenodd;fill:#FFFFFF;}
	.st2{fill-rule:evenodd;clip-rule:evenodd;fill:#2E86C7;}
	.st3{fill:#2E86C7;}
	.st4{fill:#FFFFFF;}
	.st5{fill:#EFEFEF;}
	.st6{fill:#DEDFDF;}
	.st7{fill:#4296D2;}
	.st8{fill:#BFBFBF;}
	.st9{fill:url(#SVGID_1_);}
</style>
<circle class="st0" cx="154.2" cy="163.2" r="123.7"/>
<g id="NET">
	<path id="XMLID_45_" class="st1" d="M227.8,153.3c-19.7,0-36.3,6.9-50.1,20.7c-13.8,13.7-20.7,30.4-20.7,50.1s6.9,36.3,20.7,50
		c5.1,5.2,10.6,9.4,16.5,12.6h-86c-1.4-0.1-2.7-0.5-4-1.1c-2.1-1.1-3.2-3-3.2-6v-175c0.2-1.5,0.5-2.9,1.1-4c1.1-2.1,3.2-3.2,6.2-3.2
		h174.9l1.1,0.2c1.1,0.2,1.9,0.5,2.7,0.8c2.2,1.1,3.4,3,3.4,6.2v86c-3.3-5.9-7.5-11.5-12.6-16.6
		C263.7,160.2,247.1,153.3,227.8,153.3z"/>
	<path id="XMLID_42_" class="st2" d="M227.8,153.3c19.4,0,36,6.9,49.9,20.7c5.2,5.1,9.4,10.7,12.6,16.6v-86c0-3.1-1.1-5.2-3.4-6.2
		c-0.8-0.3-1.7-0.6-2.7-0.8l-1.1-0.2H108.2c-3,0-5,1.1-6.2,3.2c-0.5,1.1-0.8,2.4-1.1,4v174.8c0,3,1.1,5,3.2,6c1.3,0.7,2.6,1.1,4,1.1
		h86c-5.9-3.3-11.4-7.5-16.5-12.6c-13.8-13.6-20.7-30.3-20.7-50s6.9-36.3,20.7-50.1C191.4,160.2,208.1,153.3,227.8,153.3z
		 M287.7,89.4c1.9,0.4,3.4,0.8,4.3,1.4c4.3,2.1,6.4,5.8,6.4,11.2v122.1c0,19.6-6.9,36.2-20.9,50C263.7,288,247,295,227.6,295h-122
		c-2.1,0-4.2-0.5-6.4-1.5c-4.3-2.2-6.4-6-6.4-11.4V102c0-2.1,0.5-4.3,1.7-6.4c2.1-4.3,5.8-6.4,11.2-6.4h180L287.7,89.4z"/>
	<g>
		<path class="st3" d="M120.3,155.6v-44.4h5.2v44.5L120.3,155.6L120.3,155.6z"/>
	</g>
	<g>
		<g>
			<path class="st4" d="M262.2,199.8v46.1h-71.1v-46.1H262.2 M268.3,193.7h-83.2V252h83.3L268.3,193.7L268.3,193.7z"/>
		</g>
		<path class="st1" d="M205.9,222.9L205.9,222.9c-4.8,0-8.8-4-8.8-8.8l0,0c0-4.8,4-8.8,8.8-8.8l0,0c4.8,0,8.8,4,8.8,8.8l0,0
			C214.7,218.9,210.8,222.9,205.9,222.9z"/>
		<polygon class="st1" points="185.9,250.3 224.6,217.9 236.1,232.1 249.2,222.9 265.2,245.8 265.2,249.8 		"/>
	</g>
</g>
<g>
	<path class="st5" d="M274.8,142c-19,0-34.5-15.5-34.5-34.5S255.8,73,274.8,73s34.5,15.5,34.5,34.5S293.9,142,274.8,142z"/>
	<path class="st6" d="M274.8,74.4c18.2,0,33,14.8,33,33s-14.8,33-33,33s-33-14.8-33-33S256.6,74.4,274.8,74.4 M274.8,71.4
		c-19.9,0-36,16.1-36,36s16.1,36,36,36s36-16.1,36-36S294.7,71.4,274.8,71.4L274.8,71.4z"/>
</g>
<g>
	<g>
		<polygon class="st7" points="212.9,47.1 231.2,48.2 229.8,65.2 222.6,70.2 215.4,66.7 		"/>
		<polygon class="st7" points="159.3,50.4 163.4,50.4 164.8,47.1 165.4,27.7 158.8,23.9 146.3,23.9 145.3,38.1 145.8,50 		"/>
		<polygon class="st7" points="89,54.9 82.1,48.7 70.4,49.1 69.9,74.9 70.7,75.8 89,75.8 		"/>
		<polygon class="st7" points="46.5,116.5 40.3,110.3 28.1,110.3 28.1,137.2 46.5,137.6 		"/>
		<polygon class="st7" points="51,191.1 44.9,185.6 28.7,185.3 27.2,187.1 27.2,208.7 50.5,209.1 		"/>
		<polygon class="st7" points="78.8,247.1 72.8,241.1 58.4,240.7 59,268 77.7,268 		"/>
	</g>
	<g>
		<g>
			<path class="st5" d="M210.8,45.1h22.5l-2.1,23.2l-9.2,3.1l-9.2-3.1L210.8,45.1z M228.8,52.6l0.3-2.8H215l0.7,8.5h9.8l-0.4,3.6
				l-3.1,0.8l-3.2-0.8l-0.2-2.2h-2.8l0.4,4.4l5.8,1.6h0.1l5.7-1.6l0.8-8.7h-10.3l-0.2-2.9L228.8,52.6L228.8,52.6z"/>
		</g>
		<g>
			<path class="st5" d="M165.4,27.7c0.6,0.5,0.8,1.2,0.8,2v19.5c0,0.8-0.3,1.4-0.8,2c-0.6,0.5-1.2,0.8-2,0.8h-16.9
				c-0.8,0-1.4-0.3-2-0.8s-0.8-1.2-0.8-2V24.8c0-0.8,0.3-1.4,0.8-2s1.2-0.8,2-0.8h11.9c0.8,0,1.4,0.3,2,0.8L165.4,27.7z M146.6,49.1
				h16.9V32.2h-6.1c-0.4,0-0.7-0.1-1-0.4c-0.3-0.3-0.4-0.6-0.4-1v-6.1h-9.4V49.1L146.6,49.1z M149.3,33.1c0.6-0.5,1.2-0.8,2-0.8
				s1.4,0.3,2,0.8s0.8,1.2,0.8,2s-0.3,1.5-0.8,2c-0.6,0.5-1.2,0.8-2,0.8s-1.4-0.3-2-0.8s-0.8-1.2-0.8-2S148.7,33.6,149.3,33.1z
				 M148.4,46.3v-3.8l2.3-2.3c0.3-0.3,0.6-0.3,0.9,0l2.3,2.3l5.2-5.2c0.3-0.3,0.6-0.3,0.9,0l1.4,1.4v7.5L148.4,46.3L148.4,46.3z
				 M163.2,29.4l-4.4-4.4v4.5C158.8,29.4,163.2,29.4,163.2,29.4z"/>
		</g>
		<g>
			<path class="st5" d="M90,53.4c0.6,0.5,0.8,1.2,0.8,2v19.5c0,0.8-0.3,1.4-0.8,2c-0.6,0.6-1.2,0.8-2,0.8H71.1c-0.8,0-1.4-0.3-2-0.8
				c-0.6-0.6-0.8-1.2-0.8-2V50.5c0-0.8,0.3-1.4,0.8-2c0.6-0.5,1.2-0.8,2-0.8H83c0.8,0,1.4,0.3,2,0.8L90,53.4z M71.1,74.8H88V58h-6.1
				c-0.4,0-0.7-0.1-1-0.4c-0.3-0.3-0.4-0.6-0.4-1v-6.1h-9.4V74.8z M83.5,60.8c0.3,0,0.5,0.1,0.6,0.3s0.1,0.5,0,0.7
				c-1.4,2.4-2.3,3.9-2.7,4.6l2.7,4.6c0.2,0.2,0.2,0.5,0,0.7C84,71.9,83.8,72,83.5,72h-1.7c-0.3,0-0.5-0.1-0.6-0.3
				c-0.1-0.1-0.6-1.2-1.7-3.4c-0.5,1.1-1,2.2-1.7,3.4c-0.1,0.2-0.3,0.3-0.6,0.3h-1.7c-0.3,0-0.5-0.1-0.6-0.3c-0.1-0.2-0.1-0.5,0-0.7
				l2.7-4.6L75,61.8c-0.2-0.2-0.2-0.5,0-0.7s0.3-0.3,0.6-0.3h1.7c0.3,0,0.5,0.1,0.6,0.3c0.3,0.7,0.9,1.8,1.6,3.4
				c0.3-0.9,0.9-2,1.7-3.4c0.1-0.2,0.3-0.3,0.6-0.3C81.8,60.8,83.5,60.8,83.5,60.8z M87.7,55.2l-4.4-4.5v4.5H87.7z"/>
		</g>
		<g>
			<path class="st5" d="M47.5,115c0.5,0.6,0.8,1.2,0.8,2v19.4c0,0.8-0.3,1.4-0.8,2s-1.2,0.8-2,0.8H28.6c-0.8,0-1.5-0.3-2-0.8
				c-0.5-0.6-0.8-1.2-0.8-2V112c0-0.8,0.3-1.4,0.8-2s1.2-0.8,2-0.8h12c0.8,0,1.4,0.3,2,0.8L47.5,115z M28.6,136.5h16.9v-16.9h-6.1
				c-0.4,0-0.7-0.1-1-0.4s-0.4-0.6-0.4-1v-6.1h-9.4V136.5z M41.5,124.3h0.9c0.2,0,0.4,0.1,0.6,0.3c0.1,0.2,0.2,0.4,0.2,0.6
				c-0.4,1.5-1.1,4.1-2,8c-0.1,0.4-0.3,0.5-0.7,0.5H39c-0.4,0-0.6-0.2-0.7-0.5c-0.3-1.1-0.6-2.5-1-4.2l-0.2-1c0,0.3-0.1,0.6-0.2,1
				l-1,4.2c-0.1,0.4-0.3,0.5-0.6,0.5h-1.5c-0.4,0-0.6-0.2-0.7-0.5c-0.1-0.5-0.4-1.8-0.9-3.8c-0.5-2.1-0.8-3.5-1-4.1
				c-0.1-0.2,0-0.4,0.1-0.6c0.2-0.2,0.3-0.3,0.5-0.3h1c0.4,0,0.6,0.2,0.7,0.6c0.7,3.7,1.1,5.7,1.1,5.8c0,0,0,0.1,0.1,0.2
				c0-0.2,0.5-2.3,1.4-6.1c0.1-0.3,0.3-0.5,0.7-0.5h0.8c0.4,0,0.6,0.2,0.7,0.5c0.9,3.8,1.4,5.7,1.4,5.9c0,0,0,0.1,0,0.2
				c0-0.2,0.5-2.2,1.2-6C40.9,124.5,41.1,124.3,41.5,124.3z M45.3,116.8l-4.5-4.4v4.4H45.3z"/>
		</g>
		<g>
			<path class="st5" d="M51.2,190.1c0.5,0.6,0.8,1.2,0.8,2v15.7c0,0.8-0.3,1.4-0.8,2s-1.2,0.8-2,0.8H28.6c-0.8,0-1.5-0.3-2-0.8
				c-0.5-0.6-0.8-1.2-0.8-2v-20.6c0-0.8,0.3-1.4,0.8-2s1.2-0.8,2-0.8h15.7c0.8,0,1.4,0.3,2,0.8L51.2,190.1z M48.9,207.8
				c0.2,0,0.3-0.1,0.3-0.4v-15.2c0-0.1,0-0.2-0.1-0.2l-4.6-4.6v5.9c0,0.4-0.1,0.7-0.4,1c-0.3,0.3-0.6,0.4-1,0.4H32.8
				c-0.4,0-0.7-0.1-1-0.4c-0.3-0.3-0.4-0.6-0.4-1v-6.1H29c-0.2,0-0.4,0.1-0.4,0.4v19.9c0,0.2,0.1,0.4,0.4,0.4L48.9,207.8L48.9,207.8
				z M35.3,197.6c1-1,2.2-1.5,3.6-1.5s2.6,0.5,3.6,1.5s1.5,2.2,1.5,3.6s-0.5,2.6-1.5,3.6s-2.2,1.5-3.6,1.5s-2.6-0.5-3.6-1.5
				s-1.5-2.2-1.5-3.6S34.3,198.6,35.3,197.6z M41.8,187.1h-7.5v4.7h7.5V187.1z M37.3,202.9c0.5,0.4,1,0.7,1.7,0.7s1.2-0.2,1.7-0.7
				c0.5-0.4,0.7-1,0.7-1.7s-0.2-1.2-0.7-1.7c-0.5-0.4-1-0.7-1.7-0.7s-1.2,0.2-1.7,0.7c-0.5,0.4-0.7,1-0.7,1.7S36.8,202.4,37.3,202.9
				z"/>
		</g>
		<g>
			<path class="st5" d="M79.3,245.6c0.6,0.6,0.8,1.2,0.8,2V267c0,0.8-0.3,1.4-0.8,2s-1.2,0.8-2,0.8H60.4c-0.8,0-1.5-0.3-2-0.8
				s-0.8-1.2-0.8-2v-24.4c0-0.8,0.3-1.4,0.8-2s1.2-0.8,2-0.8h12c0.8,0,1.4,0.3,2,0.8L79.3,245.6z M77.3,267v-16.9h-6.1
				c-0.4,0-0.7-0.1-1-0.4c-0.3-0.3-0.4-0.6-0.4-1v-6.1h-9.4V267H77.3z M66.4,260.3c0.2,0.2,0.2,0.5,0,0.8l-1,1
				c-0.1,0.1-0.2,0.2-0.4,0.2c-0.1,0-0.2-0.1-0.3-0.2l-3.3-3.2c-0.3-0.2-0.3-0.5,0-0.7l3.3-3.2c0.3-0.3,0.5-0.3,0.8,0l1,1v0.1
				c0.2,0.2,0.2,0.5,0,0.7l-1.9,1.7L66.4,260.3z M69.9,252.4l1.4,0.4c0.3,0.1,0.5,0.3,0.3,0.6l-3.2,11c-0.1,0.4-0.3,0.5-0.6,0.4
				l-1.4-0.4c-0.3-0.1-0.5-0.3-0.3-0.6l3.2-11C69.4,252.4,69.6,252.3,69.9,252.4z M71.3,256.9c-0.2-0.2-0.2-0.5,0-0.8l1-1.1
				c0.2-0.3,0.5-0.3,0.8,0l3.3,3.2c0.3,0.2,0.3,0.5,0,0.7l-3.3,3.2c-0.3,0.3-0.5,0.3-0.8,0l-1-1V261c-0.2-0.2-0.2-0.5,0-0.7l1.9-1.7
				L71.3,256.9z M72.6,242.9v4.4H77L72.6,242.9z"/>
		</g>
	</g>
</g>
<g transform="matrix(.569 0 0 .569 199.451 -82.735)">
	<path class="st8" d="M146.6,329.3l-14.5,4.7l-12.6,5.6l-3.5,0.9c-0.9,0.9-1.8,1.7-2.9,2.6c-1.1,1-2.2,1.8-3,2.5
		c-0.9,0.7-2.2,2-2.9,2.9c-1,1.2-1.8,2.6-2.1,3.6c-0.6,1.8-0.3,3.7,0.9,5.4c1.5,2.2,4.5,4.4,7.9,6c1.8,0.8,4.7,1.8,7,2.3
		c3.7,0.9,10.9,2,14.9,2.1c0.8,0,1.9,0,1.9,0c0.1-0.1,0.7-1.2,1.4-2.7c2.4-5,4.2-9.6,5.1-13.6c0.6-2.4,1-5.6,1.3-9.4
		c0.1-1.1,0.1-4.6,0-5.8c-0.1-2-0.3-3.6-0.6-5.1c0-0.2-0.1-0.4,0-0.5c0,0,0.2-0.1,2-0.6L146.6,329.3L146.6,329.3L146.6,329.3
		L146.6,329.3z M143.3,331.3c0.1,0,0.5,3.4,0.6,5.5c0,0.5,0,0.8,0,0.8c-0.1,0-1.9-1-3.1-1.8c-1.1-0.7-3.2-2.1-3.5-2.3
		c-0.1-0.1-0.1-0.1,0.8-0.4C139.5,332.4,143.1,331.3,143.3,331.3z M135.9,333.7c0.1,0,0.4,0.1,0.9,0.5c2.3,1.4,5.3,3.1,6.6,3.7
		c0.4,0.2,0.4,0.1-0.5,0.8c-2,1.4-4.5,2.7-7.5,4c-0.5,0.2-1,0.4-1,0.4s0-0.3,0.1-0.6c0.7-2.7,1.1-5.5,1.2-7.7
		C135.8,333.7,135.8,333.7,135.9,333.7C135.8,333.7,135.9,333.7,135.9,333.7L135.9,333.7z M134.3,334.3c0.1,0.1,0,2.5-0.1,3.2
		c-0.2,1.6-0.5,3.1-1,4.8c-0.1,0.4-0.2,0.8-0.2,0.8s-1.6-1.4-2-2c-0.9-1-1.5-2-2-2.9c-0.2-0.5-0.6-1.5-0.6-1.5
		C128.5,336.5,134.3,334.2,134.3,334.3L134.3,334.3z M127.2,337.1L127.2,337.1c0,0,0.1,0.2,0.2,0.4c0.3,1,1.1,2.4,1.8,3.3
		c0.8,1,1.7,2,2.5,2.7c0.3,0.2,0.5,0.4,0.5,0.5c0.1,0.1,0.1,0-1.7,0.7c-2.1,0.8-4.3,1.6-6.9,2.4c-0.6,0.2-1.2,0.4-1.8,0.6
		c-0.1,0-0.1,0,0.2-0.5c1.3-2,3.2-6,4.3-8.7c0.2-0.5,0.4-1,0.4-1.1s0.1-0.2,0.2-0.3C127.1,337.1,127.1,337.1,127.2,337.1
		L127.2,337.1z M125,338c0,0-0.5,1.2-1.1,2.3c-1.1,2.1-2.2,4.1-3.8,6.6c-0.3,0.4-0.5,0.8-0.6,0.9s-0.1,0-0.2-0.3
		c-0.4-0.7-0.7-1.7-0.8-2.5c-0.2-0.9-0.1-2.4,0.1-3.3c0.1-0.7,0.1-0.7,0.5-0.8C120.4,340.1,124.9,338,125,338L125,338z M143.9,338.8
		v0.5c0,2.5-0.3,5.8-0.6,8.2c-0.1,0.4-0.1,0.8-0.1,0.8s-0.3-0.1-0.7-0.2c-1.6-0.5-3.4-1.3-5.1-2.2c-1.1-0.6-2.6-1.5-2.6-1.6
		c0,0,0.5-0.2,1-0.5c2.1-1.1,4.2-2.3,6-3.5c0.7-0.5,1.7-1.2,1.9-1.4L143.9,338.8L143.9,338.8z M116.7,342c0,0,0,0.1,0,0.5
		c0,0.3-0.1,0.8-0.1,1.2c-0.1,1.6,0.2,2.8,1,4.4c0.2,0.5,0.4,0.8,0.4,0.8c-0.1,0.1-7.3,2.2-9.6,2.8c-0.7,0.2-1.3,0.4-1.3,0.4
		c-0.1,0-0.1,0-0.1-0.2c0.2-1.6,1.5-3.7,3.2-5.5c1.1-1.2,2.1-1.9,3.6-2.8C114.8,343,116.5,342.1,116.7,342L116.7,342L116.7,342z
		 M133.8,345.1c0,0,0.3,0.1,0.6,0.3c2.4,1.4,5.6,2.6,8.4,3.3h0.2l-0.4,0.2c-1.5,0.8-6.3,2.8-11.2,4.6c-0.7,0.3-1.4,0.5-1.6,0.6
		s-0.2,0.1-0.2,0.1s0.2-0.4,0.4-0.9c1.4-2.6,2.8-5.7,3.5-7.9C133.7,345.3,133.8,345.1,133.8,345.1L133.8,345.1z M132.1,345.7
		c0,0-0.1,0.2-0.2,0.5c-0.9,2.3-2.2,4.8-3.8,7.7c-0.4,0.7-0.8,1.3-0.8,1.3s-0.3-0.2-0.7-0.4c-2.3-1.4-4.4-3.2-5.7-4.9l-0.2-0.2
		l1-0.3c3.6-1,6.6-2,9.6-3.3C131.7,345.8,132.1,345.7,132.1,345.7z M142.9,349.5L142.9,349.5c0,0.2-0.6,2.5-1,4.1
		c-0.4,1.4-0.7,2.5-1.3,4.4c-0.3,0.8-0.5,1.5-0.5,1.5H140c-3.3-0.6-6.2-1.4-8.9-2.5c-0.8-0.3-1.9-0.8-1.9-0.9c0,0,0.6-0.3,1.5-0.7
		c5-2.2,10.2-4.7,11.9-5.7C142.7,349.5,142.9,349.5,142.9,349.5L142.9,349.5z M117.9,350.3c0,0-1.4,2-3.3,4.8
		c-0.7,1-1.5,2.1-1.8,2.5s-0.8,1.1-1,1.5l-0.5,0.7l-0.5-0.4c-0.6-0.5-1.6-1.5-2-2.1c-0.9-1.2-1.6-2.4-1.8-3.5
		c-0.1-0.5-0.1-0.8,0-0.8c0.2,0,3.1-0.7,5.8-1.4c1.5-0.4,3.3-0.8,3.9-0.9C117.3,350.4,117.9,350.3,117.9,350.3L117.9,350.3z
		 M119.3,350.8l0.3,0.4c1.6,1.8,3.2,3.1,5.2,4.2c0.3,0.2,0.6,0.4,0.6,0.4c-0.1,0-6.8,2.4-9.9,3.5c-1.7,0.6-3.2,1.1-3.2,1.1
		s-0.1-0.1-0.2-0.1l-0.2-0.1l0.3-0.5c1-1.5,2.3-3.1,5.2-6.5L119.3,350.8L119.3,350.8z M128,357.1c0,0,0.5,0.2,1.1,0.4
		c1.4,0.5,2.6,0.9,4.1,1.3c1.9,0.5,4.6,0.9,6.2,1.1c0.2,0,0.4,0,0.3,0.1c-0.1,0-1.7,0.6-2.9,1c-1.9,0.6-7.6,2.3-12.3,3.6
		c-0.9,0.2-1.6,0.5-1.7,0.5s-0.5-0.1-0.5-0.1s0.3-0.4,0.6-0.7c1.6-1.9,3.2-4,4.5-6C127.7,357.6,128,357.1,128,357.1L128,357.1z
		 M126.1,357.2c0,0-0.8,1.3-2.1,3.4c-0.6,0.9-1.2,1.9-1.5,2.3c-0.2,0.4-0.6,0.9-0.7,1.2l-0.3,0.6h-0.2c-0.4-0.1-3.2-1.1-3.9-1.4
		c-0.9-0.4-1.8-0.8-2.6-1.2c-0.9-0.5-2-1.2-1.9-1.2c0,0,1.5-0.4,3.3-0.9c4.8-1.3,7.5-2.1,9.2-2.6
		C125.8,357.2,126.1,357.1,126.1,357.2L126.1,357.2z M139.8,360.4L139.8,360.4c0.1,0.1-1.7,5-2.4,6.6c-0.1,0.4-0.2,0.4-0.3,0.4
		c-0.2,0-2.8-0.4-4.3-0.6c-2.7-0.4-7.3-1.2-8.5-1.5H124l1.6-0.4c3.5-0.8,5.2-1.2,6.9-1.7c2.2-0.7,4.3-1.5,6.5-2.5
		C139.4,360.5,139.7,360.4,139.8,360.4L139.8,360.4z"/>
	<path class="st8" d="M131.6,295.5c-0.2,0-4.1,1.4-6.7,2.4c-3.4,1.4-6,2.7-7.7,3.8c-0.6,0.4-1.4,1.2-1.5,1.5c0,0.1-0.1,0.2-0.1,0.4
		l1.5,1.4l3.5,1.1l8.3,1.5l9.5,1.6l0.1-0.8h-0.1l-1.2-0.2l-0.2-0.5c-1.3-2.3-2.7-5.1-3.6-7c-0.6-1.5-1.3-3.2-1.6-4.4
		C131.8,295.5,131.7,295.5,131.6,295.5L131.6,295.5L131.6,295.5L131.6,295.5z M131.4,296L131.4,296c0,0,0.1,0.3,0.1,0.7
		c0.2,1.5,0.5,3,1.1,4.6c0.4,1.2,0.4,1.1-0.1,1c-1.1-0.3-6.1-1.2-9.8-1.7c-0.6-0.1-1.1-0.1-1.1-0.2c0,0,2.6-1.4,3.8-2
		C127,297.8,131.1,296.1,131.4,296L131.4,296z M120.8,301l0.4,0.1c2.3,0.8,8.2,1.9,11.4,2.2c0.4,0,0.7,0.1,0.7,0.1s-0.3,0.2-0.7,0.4
		c-1.6,0.8-3.3,1.7-4.5,2.5c-0.3,0.2-0.7,0.4-0.7,0.4s-0.3,0-0.5-0.1l-0.4-0.1l-1.1-1.1c-1.9-1.9-3.4-3.3-4-3.9L120.8,301z
		 M120.4,301.3l1.6,1.9c0.8,1.1,1.7,2.1,1.9,2.3s0.3,0.4,0.3,0.4s-2.2-0.4-3.4-0.7c-1.2-0.3-1.7-0.4-2.4-0.6l-0.6-0.2v-0.1
		C117.8,303.6,118.7,302.5,120.4,301.3L120.4,301.3L120.4,301.3z M133.6,303.9c0,0,0.1,0.1,0.2,0.4c0.4,0.8,1.5,3,1.8,3.5
		c0.1,0.1,0.2,0.1-1.3-0.1c-3.7-0.6-4.9-0.8-4.9-0.8s0.1-0.1,0.2-0.2c1.1-0.6,2.3-1.5,3.4-2.3C133.2,304.2,133.5,304,133.6,303.9
		C133.5,303.9,133.6,303.9,133.6,303.9L133.6,303.9z"/>
	
		<radialGradient id="SVGID_1_" cx="140.65" cy="324.25" r="14.9397" gradientTransform="matrix(-6.798981e-03 -1.019900e-03 -2.063264e-03 1.359796e-02 -187.2299 -2197.9558)" gradientUnits="userSpaceOnUse">
		<stop  offset="0" style="stop-color:#FCCE6D"/>
		<stop  offset="1" style="stop-color:#FD9134"/>
	</radialGradient>
	<path class="st9" d="M115.9,303c0,0-0.2,0.4,0,1c0.1,0.4,0.6,0.8,1,1.2c0,0,4.9,4.8,5.5,5.4c2.7,3.1,3.9,6.2,4,10.4
		c0.1,2.7-0.4,5.1-1.7,7.9c-2.3,5-7.1,10.5-14.5,16.6l1.1-0.4c0.7-0.5,1.7-1.1,3.9-2.3c5.2-2.8,11-5.4,18.1-8.1
		c10.3-3.9,27.2-8.4,36.8-9.9l1-0.1l-0.1-0.2c-0.9-1.4-1.5-2.2-2.2-3.1c-2.1-2.6-4.7-4.7-7.8-6.5c-4.3-2.4-9.9-4.3-16.9-5.7
		c-1.3-0.3-4.2-0.8-6.6-1.1c-5-0.8-8.3-1.3-11.8-1.9c-1.3-0.2-3.2-0.5-4.5-0.8c-0.7-0.1-1.9-0.4-2.9-0.8
		C117.3,304.3,116.1,304,115.9,303L115.9,303z M118.7,305.8c0,0,0.2,0,0.4,0.1c0.4,0.1,0.9,0.3,1.6,0.5c0.5,0.1,1,0.3,1.4,0.4
		c0.7,0.2,1.2,0.3,1.2,0.3c0.1,0.1,1.2,3.6,1.6,5c0.1,0.5,0.2,1,0.2,1s-0.1-0.2-0.3-0.4c-1.3-2.3-3.3-4.5-5.7-6.4
		C119,306,118.7,305.8,118.7,305.8L118.7,305.8z M124.1,307.3c0.1,0,0.3,0,0.6,0.1c1.9,0.4,5.2,1,7.3,1.4c0.4,0,0.6,0.1,0.6,0.1
		s-0.1,0.1-0.3,0.2c-0.4,0.2-1.8,1-2.3,1.4c-1.2,0.8-2.3,1.7-3.1,2.5c-0.3,0.3-0.6,0.6-0.6,0.6s-0.1-0.2-0.1-0.4
		c-0.4-1.5-1.2-3.8-2-5.4C124.2,307.5,124.1,307.3,124.1,307.3L124.1,307.3L124.1,307.3z M133.6,309.1c0.1,0,0.2,0.4,0.4,1.2
		c0.4,1.6,0.6,3.4,0.5,5c0,0.5,0,0.9-0.1,0.9v0.1l-0.6-0.2c-1.2-0.4-3.1-0.9-4.7-1.4c-0.9-0.2-1.7-0.5-1.7-0.5
		c0-0.1,1.4-1.4,1.9-1.9C130.5,311.4,133.5,309,133.6,309.1L133.6,309.1z M134.4,309.2c0,0,4.5,0.8,6.6,1.1c1.5,0.3,3.7,0.8,3.9,0.8
		c0.1,0-0.2,0.1-0.9,0.5c-2.9,1.3-5.1,2.5-7.2,3.9c-0.6,0.4-1,0.7-1,0.7s0-0.3,0-0.7c0-2.1-0.4-4.2-1.2-6
		C134.4,309.4,134.4,309.2,134.4,309.2z M146.1,311.5c0,0-0.1,0.9-0.2,1.5c-0.4,1.6-1.5,4.1-2.8,6.3c-0.2,0.4-0.4,0.7-0.5,0.8
		s-0.3-0.1-0.7-0.4c-1.3-0.8-2.7-1.5-4.3-2.1c-0.4-0.2-0.8-0.3-0.8-0.4c-0.1-0.1,3.5-2.4,5.3-3.5C143.6,312.8,146,311.5,146.1,311.5
		L146.1,311.5z M146.9,311.6c0.1,0,2.1,0.5,3.1,0.9c2.6,0.8,5.5,1.9,7.5,2.7l0.8,0.4l-0.6,0.1c-4.7,1.1-8.8,2.3-12.6,3.9
		c-0.3,0.1-0.6,0.2-0.6,0.2s0.1-0.2,0.2-0.6c1.2-2.5,1.9-5.1,2.1-7.3C146.8,311.8,146.9,311.6,146.9,311.6L146.9,311.6z M127,316.2
		c0,0,1.6,0.3,2.4,0.6c1.2,0.4,3.9,1.2,3.9,1.3c0,0-0.3,0.3-0.6,0.6c-1.4,1.2-2.8,2.5-4.5,4.1c-0.5,0.5-0.9,0.9-0.9,0.9v-0.1
		c0.2-1.8,0.2-4.2-0.2-6.6C127,316.5,127,316.2,127,316.2z M159.1,316.2c0,0-0.7,1.2-1.2,1.8c-0.7,0.9-1.6,2.2-3.8,4.9
		c-1.1,1.5-2.4,3.1-2.9,3.6c-0.4,0.5-0.8,1-0.8,1s-0.1-0.2-0.3-0.4c-1.2-1.8-2.7-3.5-4.4-4.9c-0.3-0.3-0.7-0.6-0.8-0.7
		s-0.2-0.2-0.2-0.2s1.9-0.8,3.3-1.4c2.5-1,5.9-2.2,8.4-3C157.6,316.6,159,316.2,159.1,316.2L159.1,316.2z M159.9,316.5
		c0,0,0.3,0.1,0.6,0.3c2.7,1.5,5.3,3.5,7.3,5.5c0.6,0.6,2,2.1,2,2.1s-0.5,0-1.1,0.1c-4.6,0.4-10.5,1.3-16.2,2.7
		c-0.4,0.1-0.7,0.2-0.8,0.2c0,0,0.4-0.4,0.9-0.9c3.3-3.2,4.9-5.2,6.7-8.9C159.7,317,159.9,316.5,159.9,316.5L159.9,316.5
		L159.9,316.5z M135.5,319c0.1,0,1.6,0.7,2.7,1.2c1,0.5,2.5,1.3,2.6,1.4c0,0-0.5,0.3-1.2,0.6c-2.1,1-3.8,2-5.7,3.1
		c-0.5,0.3-1,0.6-1,0.6s0,0,0.3-0.6c1-1.8,1.8-4,2.2-6C135.4,319.1,135.4,319,135.5,319L135.5,319z M134,319.2c0,0-0.3,1.4-0.6,2.1
		c-0.4,1.4-1.2,3.1-1.9,4.5c-0.2,0.3-0.4,0.8-0.6,1l-0.3,0.4l-0.6-0.6c-0.7-0.7-1.3-1.1-2-1.5c-0.3-0.1-0.5-0.3-0.5-0.3
		c0-0.1,1.9-1.8,3.3-3C131.8,320.9,134,319.2,134,319.2L134,319.2z M142.8,322.8l0.5,0.4c1.2,0.8,2.7,1.9,3.8,2.8
		c0.6,0.5,1.8,1.6,2.1,1.9l0.1,0.1l-0.9,0.2c-5,1.4-8.9,2.6-13.4,4.3c-0.5,0.2-0.9,0.3-1,0.3s-0.1,0,1-1c2.9-2.7,5.5-5.6,7.4-8.5
		L142.8,322.8L142.8,322.8z M140.5,323.4c0,0-1.5,2.1-2.4,3.3c-1.1,1.4-3,3.8-4.3,5.4c-0.6,0.6-1,1.2-1,1.2s0-0.1,0-0.4
		c0-1.3-0.3-2.7-0.9-4c-0.2-0.5-0.3-0.6-0.2-0.7c0.2-0.2,3.4-2,5.4-3.1C138.3,324.4,140.4,323.4,140.5,323.4L140.5,323.4z
		 M126.6,326.8c0,0,0.3,0.1,0.6,0.3c0.7,0.4,1.3,0.8,1.9,1.3c0,0-0.3,0.2-0.6,0.5c-1,0.8-2.6,1.9-3.5,2.7c-1,0.8-1,0.8-0.9,0.6
		c0.7-1.1,1.1-1.7,1.5-2.5c0.3-0.7,0.7-1.6,0.9-2.3C126.5,327,126.6,326.8,126.6,326.8L126.6,326.8z M130.3,329.7
		c0.1,0,0.1,0.1,0.4,0.5c0.6,0.9,1.1,2.2,1.2,3.2v0.2l-1.5,0.6c-2.7,1-5.2,2.1-6.8,2.8c-0.5,0.2-1.3,0.6-1.8,0.9s-1,0.5-1,0.5
		s0.3-0.3,0.8-0.6c3.3-2.4,6.1-5,8.3-7.6C130.1,329.9,130.3,329.7,130.3,329.7L130.3,329.7L130.3,329.7z M128.6,330.1
		c0,0-1.2,1.5-2.1,2.3c-2.1,2.2-4.2,3.9-6.8,5.5c-0.3,0.2-0.6,0.4-0.7,0.4s0-0.1,1.2-1.3c0.7-0.8,1.3-1.4,1.9-2.2
		c0.4-0.5,0.5-0.6,1.1-1C124.8,332.6,128.6,330,128.6,330.1z"/>
</g>
</svg>
