<?xml version="1.0" encoding="utf-8"?>
<!-- Generator: Adobe Illustrator 25.2.0, SVG Export Plug-In . SVG Version: 6.00 Build 0)  -->
<svg version="1.1" id="Layer_1" xmlns="http://www.w3.org/2000/svg" xmlns:xlink="http://www.w3.org/1999/xlink" x="0px" y="0px"
	 viewBox="0 0 277 277" style="enable-background:new 0 0 277 277;" xml:space="preserve">
<style type="text/css">
	.st0{fill-rule:evenodd;clip-rule:evenodd;fill:#FFFFFF;}
	.st1{fill-rule:evenodd;clip-rule:evenodd;fill:#A4C547;}
	.st2{fill:#A4C547;}
	.st3{fill:#FFFFFF;}
</style>
<g id="_x2E_NET">
	<path id="XMLID_8_" class="st0" d="M180.46,87.48c-25.78,0-47.67,9.07-65.69,27.2c-18.12,18.02-27.18,39.93-27.18,65.72
		s9.06,47.65,27.18,65.56c6.65,6.78,13.85,12.3,21.61,16.56H23.59c-1.8-0.11-3.55-0.62-5.23-1.52c-2.81-1.35-4.22-4-4.22-7.94V23.62
		c0.22-2.03,0.67-3.77,1.35-5.24c1.46-2.82,4.17-4.22,8.1-4.22h229.47l1.52,0.34c1.35,0.23,2.53,0.56,3.55,1.01
		c2.93,1.35,4.39,4.05,4.39,8.11v112.87c-4.26-7.79-9.77-15.06-16.55-21.79C227.74,96.55,205.9,87.48,180.46,87.48z"/>
	<path id="XMLID_2_" class="st1" d="M180.46,87.48c25.44,0,47.28,9.07,65.51,27.2c6.78,6.74,12.29,14,16.55,21.79V23.62
		c0-4.06-1.46-6.76-4.39-8.11c-1.01-0.45-2.2-0.79-3.55-1.01l-1.52-0.34H23.59c-3.94,0-6.64,1.41-8.1,4.22
		c-0.68,1.46-1.13,3.21-1.35,5.24v229.45c0,3.94,1.41,6.59,4.22,7.94c1.69,0.9,3.43,1.41,5.23,1.52h112.79
		c-7.76-4.26-14.96-9.78-21.61-16.56c-18.12-17.91-27.18-39.76-27.18-65.56s9.06-47.7,27.18-65.72
		C132.78,96.55,154.68,87.48,180.46,87.48z M259.14,3.68c2.48,0.45,4.39,1.07,5.74,1.86c5.63,2.7,8.44,7.6,8.44,14.7v160.18
		c0,25.68-9.12,47.54-27.36,65.56c-18.23,18.25-40.07,27.37-65.51,27.37H20.21c-2.7,0-5.52-0.67-8.44-2.03
		c-5.63-2.93-8.44-7.88-8.44-14.87V20.24c0-2.82,0.73-5.63,2.19-8.45c2.7-5.63,7.6-8.45,14.69-8.45h236.23L259.14,3.68z"/>
	<g>
		<path class="st2" d="M41.76,96.27h-9.49V37.73H65.3v8.09H41.76v18.3h22.06v8.13H41.76V96.27z"/>
		<path class="st2" d="M104.39,96.27H96.9V74.69c0-2.71-0.54-4.73-1.63-6.06c-1.09-1.33-2.82-2-5.19-2c-3.15,0-5.46,0.93-6.92,2.79
			c-1.46,1.86-2.19,4.98-2.19,9.36v17.49h-7.46v-35.1h5.84l1.05,4.6h0.38c1.06-1.67,2.56-2.96,4.51-3.87
			c1.95-0.91,4.1-1.36,6.47-1.36c8.42,0,12.63,4.28,12.63,12.85V96.27z"/>
	</g>
	<g>
		<g>
			<rect x="157.4" y="177.7" class="st0" width="13.53" height="56.35"/>
			<rect x="181.07" y="166.43" class="st0" width="13.53" height="67.62"/>
			<rect x="204.73" y="155.16" class="st0" width="13.53" height="78.9"/>
			<rect x="133.73" y="188.97" class="st0" width="13.53" height="45.08"/>
		</g>
		<g>
			
				<rect x="158.51" y="146.8" transform="matrix(0.8349 -0.5505 0.5505 0.8349 -58.3228 114.4274)" class="st0" width="6.09" height="15.23"/>
			
				<rect x="163.84" y="145.32" transform="matrix(0.8347 -0.5506 0.5506 0.8347 -52.1048 123.1212)" class="st0" width="30.46" height="6.09"/>
			
				<rect x="176" y="136.33" transform="matrix(0.8348 -0.5505 0.5505 0.8348 -44.8907 129.129)" class="st0" width="33.51" height="6.09"/>
			<polygon class="st0" points="201.04,123.01 215.47,124.19 211.45,138.1 			"/>
			
				<rect x="133.15" y="154.58" transform="matrix(0.8348 -0.5505 0.5505 0.8348 -62.2679 107.7278)" class="st0" width="30.46" height="6.09"/>
		</g>
		<rect x="130.62" y="233.77" class="st3" width="91.56" height="5.07"/>
	</g>
</g>
<g>
</g>
<g>
</g>
<g>
</g>
<g>
</g>
<g>
</g>
<g>
</g>
</svg>
