<svg xmlns="http://www.w3.org/2000/svg" xml:space="preserve" id="Layer_1" x="0" y="0" style="enable-background:new 0 0 170 70" version="1.1" viewBox="0 0 170 70">
  <style>
    .st0{fill:#00558c}
  </style>
  <g id="Layer_1_1_">
    <g id="Kpfax">
      <path d="M9.7 21h8.6v11l10.8-11h11.5L28.9 32l12.6 17H30l-8-11.2-3.7 3.3V49H9.7V21z" class="st0"/>
      <path d="M55.8 20.1c9.1 0 16.9 3.3 16.9 15S65 50 55.8 50c-9.1 0-16.9-3.3-16.9-14.9.1-11.7 7.8-15 16.9-15zm0 23.6c4.6 0 7.7-2.7 7.7-8.6 0-5.8-3-8.6-7.7-8.6-4.5 0-7.7 2.8-7.7 8.6s3.1 8.6 7.7 8.6zM75 21h24.6v6.3h-16v4.8h14.9v6H83.6V49H75V21zm33.1 0h10.5l11.1 28.1h-9.2l-1.5-4.6h-11.3l-1.5 4.6h-9.3L108.1 21zm5.2 7-3.7 10.6h7.2L113.3 28z" class="st0"/>
      <path d="M139.2 34.5 129.1 21h10.2l4.7 7.5 4.7-7.5h10.2l-10 13.5L160.3 49h-10.7l-5.5-8.5-5.5 8.5h-10.7l11.3-14.5z" class="st0"/>
    </g>
  </g>
</svg>
