<svg xmlns="http://www.w3.org/2000/svg" xml:space="preserve" viewBox="0 0 170 70">
  <path fill="#d40e2a" d="M113.1 18.3c-9.9 0-16.4 7.3-16.4 16.7 0 9.9 6.6 16.7 16.4 16.7 9.6 0 16.4-7.1 16.4-16.7s-6.8-16.7-16.4-16.7zm-56.1 0c-3.1 0-7.1 1.1-10 3.5-3.5 2.9-6.2 7.3-6.2 13.4 0 5.2 1.7 9.4 4.7 12.2s7.2 4.3 12.4 4.3c4.2 0 9.3-1.6 11.4-2.9.8-.5 1-.7.8-1.4l-1.4-3.8c-.2-.6-.9-.8-1.4-.5-1 .5-1.7.8-2.6 1.2-1.9.7-3.8 1.2-5.7 1.2-3.9 0-6.1-1.1-7.8-3a7.97 7.97 0 0 1-1.9-4.6h21.5c.8 0 1.1-.5 1.1-1.5v-1.5c0-.8 0-1.9-.1-2.6-.4-4.3-2-7.8-4.6-10.2-2.6-2.5-6-3.8-10.2-3.8zm35 .1c-6.2 0-10 1.4-12.4 4.6-1.9 2.4-2.2 5.1-2.2 10.9v15.8c.1 1.1.5 1.7 1.6 1.7h4.9c1.1 0 1.6-.6 1.6-1.7V33.5c0-3.6 0-5.6 1.3-7 1.1-1.2 2.6-1.9 5.7-1.9.6 0 2.1.2 2.6.2h.4c.5 0 .7-.2.9-.9l.7-3.6c.1-.7 0-1.3-.7-1.5-1.1-.3-2.9-.4-4.4-.4zm-81.5.4c-.5 0-.9.4-.7 1.1 1.5 4.8 5.2 10.5 9 15.1-4.9 4.4-8.3 10.3-10.1 15-.3.7.1 1.1.5 1.1H15c.8 0 1.2-.3 1.6-1.1 1.6-3.5 3.9-7.4 6.9-10.7 2.8 2.7 5.2 6.8 6.8 10.7.4 1.1.9 1.1 1.6 1.1h6.3c1.2 0 1.3-.7 1.1-1.2-2.4-6.3-7.5-12.8-10.4-15.6 2.6-2.8 7.4-8.3 9.5-14.5.3-.9-.3-1.1-.7-1.1h-5.3c-.6 0-1.1.2-1.5 1.1a45.3 45.3 0 0 1-6.5 9.7c-1.7-2.1-4-5.8-5.7-9.7-.4-.8-.7-1.1-1.5-1.1.1.1-6.7.1-6.7.1zm121.7 0c-.5 0-.9.4-.7 1.1 1.5 4.8 5.2 10.5 9 15.1-4.9 4.4-8.3 10.3-10.1 15-.3.7.1 1.1.5 1.1h5.8c.8 0 1.2-.3 1.6-1.1 1.6-3.5 3.9-7.4 6.9-10.7 2.8 2.7 5.2 6.8 6.8 10.7.4 1.1.9 1.1 1.6 1.1h6.3c1.2 0 1.3-.7 1.1-1.2-2.4-6.3-7.5-12.8-10.4-15.6 2.6-2.8 7.4-8.3 9.5-14.5.3-.9-.3-1.1-.7-1.1h-5.3c-.6 0-1.1.2-1.5 1.1a45.3 45.3 0 0 1-6.5 9.7c-1.7-2.1-4-5.8-5.7-9.7-.4-.8-.7-1.1-1.5-1.1h-6.7v.1zm-19.1 5.6c5.7 0 7.9 5 7.9 10.6s-2.2 10.6-7.9 10.6-8-5-8-10.6 2.3-10.6 8-10.6zm-55.9.1c4.3 0 6.9 2.9 6.9 7.2v.2H49.3c.2-1.1.5-2.1 1-3.1 1.3-2.6 3.8-4.3 6.9-4.3z"/>
</svg>
