<svg version="1.1" id="Aspose.Total_for_Python" xmlns="http://www.w3.org/2000/svg" x="0" y="0" viewBox="0 0 277 277" style="enable-background:new 0 0 277 277" xml:space="preserve"><style>.st0{fill-rule:evenodd;clip-rule:evenodd;fill:#fff}</style><g id="Python"><path id="XMLID_45_" class="st0" d="M180.5 87.5c-25.8 0-47.7 9.1-65.7 27.2-18.1 18-27.2 39.9-27.2 65.7s9.1 47.7 27.2 65.6c6.7 6.8 13.9 12.3 21.6 16.6H23.6c-1.8-.1-3.5-.6-5.2-1.5-2.8-1.4-4.2-4-4.2-7.9V23.6c.2-2 .7-3.8 1.4-5.2 1.5-2.8 4.2-4.2 8.1-4.2h229.5l1.5.3c1.4.2 2.5.6 3.6 1 2.9 1.4 4.4 4 4.4 8.1v112.9c-4.3-7.8-9.8-15.1-16.6-21.8-18.4-18.1-40.2-27.2-65.6-27.2z"/><path id="XMLID_42_" d="M180.5 87.5c25.4 0 47.3 9.1 65.5 27.2 6.8 6.7 12.3 14 16.5 21.8V23.6c0-4.1-1.5-6.8-4.4-8.1-1-.4-2.2-.8-3.6-1l-1.5-.3H23.6c-3.9 0-6.6 1.4-8.1 4.2-.7 1.5-1.1 3.2-1.4 5.2V253c0 3.9 1.4 6.6 4.2 7.9 1.7.9 3.4 1.4 5.2 1.5h112.8c-7.8-4.3-15-9.8-21.6-16.6-18.1-17.9-27.2-39.8-27.2-65.6s9.1-47.7 27.2-65.7c18.1-17.9 40-27 65.8-27zm78.6-83.8c2.5.5 4.4 1.1 5.7 1.9 5.6 2.7 8.4 7.6 8.4 14.7v160.2c0 25.7-9.1 47.5-27.4 65.6-18.2 18.2-40.1 27.4-65.5 27.4H20.2c-2.7 0-5.5-.7-8.4-2-5.6-2.9-8.4-7.9-8.4-14.9V20.2c0-2.8.7-5.6 2.2-8.4 2.7-5.6 7.6-8.4 14.7-8.4h236.2l2.6.3z" style="fill-rule:evenodd;clip-rule:evenodd;fill:#ffcd38"/><path d="M60.5 96.3h-9.6V45.9H33.7v-8.2h44v8.2H60.5v50.4z" style="fill:#ffcd38"/><path id="XMLID_37_" class="st0" d="m183.8 142.1-36.1 18.1 36.1 18.1 36.1-18.1-36.1-18.1zm0 45.1-54-27 54-27 54 27-54 27zm0 9.4L227 175l10.8 5.4-54 27-54-27 10.8-5.4 43.2 21.6zm-43.2-1.3 43.2 21.6 43.2-21.6 10.8 5.4-54 27-54-27 10.8-5.4z"/></g></svg>