<?xml version="1.0" encoding="utf-8"?>
<!-- Generator: Adobe Illustrator 25.0.1, SVG Export Plug-In . SVG Version: 6.00 Build 0)  -->
<svg version="1.1" id="Layer_1" xmlns="http://www.w3.org/2000/svg" xmlns:xlink="http://www.w3.org/1999/xlink" x="0px" y="0px"
	 viewBox="0 0 320 320" style="enable-background:new 0 0 320 320;" xml:space="preserve">
<style type="text/css">
	.st0{fill:none;stroke:#EFEFEF;stroke-linecap:round;stroke-linejoin:round;stroke-miterlimit:10;stroke-dasharray:4,8;}
	.st1{fill-rule:evenodd;clip-rule:evenodd;fill:#FFFFFF;}
	.st2{fill-rule:evenodd;clip-rule:evenodd;fill:#81C1CC;}
	.st3{fill:#81C1CC;}
	.st4{fill:none;stroke:#FFFFFF;stroke-width:3;stroke-miterlimit:10;}
	.st5{fill:none;stroke:#FFFFFF;stroke-width:3;stroke-miterlimit:10;stroke-dasharray:4.8543,1.9417;}
	.st6{fill:none;stroke:#FFFFFF;stroke-width:3;stroke-miterlimit:10;stroke-dasharray:4.9649,1.9859;}
	.st7{fill:none;stroke:#FFFFFF;stroke-width:3;stroke-miterlimit:10;stroke-dasharray:5.0156,2.0062;}
	.st8{fill:none;stroke:#FFFFFF;stroke-width:3;stroke-miterlimit:10;stroke-dasharray:4.9498,1.9799;}
	.st9{fill:none;stroke:#FFFFFF;stroke-width:3;stroke-linecap:round;stroke-linejoin:round;stroke-miterlimit:10;}
	.st10{fill:#FFFFFF;stroke:#FFFFFF;stroke-width:0.3479;stroke-linecap:round;stroke-linejoin:round;stroke-miterlimit:10;}
	.st11{fill:none;stroke:#FFFFFF;stroke-width:5;stroke-miterlimit:10;}
	.st12{fill:none;stroke:#FFFFFF;stroke-width:2;stroke-linecap:round;stroke-linejoin:round;stroke-miterlimit:10;}
	
		.st13{opacity:0.5;fill:#FFFFFF;stroke:#FFFFFF;stroke-width:2;stroke-linecap:round;stroke-linejoin:round;stroke-miterlimit:10;enable-background:new    ;}
	.st14{fill:#EFEFEF;}
	.st15{fill:#DEDFDF;}
	.st16{fill:#4296D2;}
	.st17{fill:#0980BA;}
</style>
<circle class="st0" cx="154.2" cy="163.2" r="123.7"/>
<g id="_x2E_NET">
	<path id="XMLID_8_" class="st1" d="M227.4,154c-19.6,0-36.2,6.9-49.9,20.7c-13.8,13.7-20.6,30.3-20.6,49.9s6.9,36.2,20.6,49.8
		c5.1,5.2,10.5,9.3,16.4,12.6h-85.7c-1.4-0.1-2.7-0.5-4-1.2c-2.1-1-3.2-3-3.2-6V105.5c0.2-1.5,0.5-2.9,1-4c1.1-2.1,3.2-3.2,6.2-3.2
		h174.3l1.2,0.3c1,0.2,1.9,0.4,2.7,0.8c2.2,1,3.3,3.1,3.3,6.2v85.8c-3.2-5.9-7.4-11.4-12.6-16.6C263.3,160.9,246.7,154,227.4,154z"
		/>
	<g>
		<path id="XMLID_2_" class="st2" d="M227.4,154c19.3,0,35.9,6.9,49.8,20.7c5.2,5.1,9.3,10.6,12.6,16.6v-85.8c0-3.1-1.1-5.1-3.3-6.2
			c-0.8-0.3-1.7-0.6-2.7-0.8l-1.2-0.3H108.2c-3,0-5,1.1-6.2,3.2c-0.5,1.1-0.9,2.4-1,4v174.4c0,3,1.1,5,3.2,6c1.3,0.7,2.6,1.1,4,1.2
			h85.7c-5.9-3.2-11.4-7.4-16.4-12.6c-13.8-13.6-20.6-30.2-20.6-49.8s6.9-36.3,20.6-49.9C191.1,160.9,207.8,154,227.4,154z
			 M287.1,90.4c1.9,0.3,3.3,0.8,4.4,1.4c4.3,2.1,6.4,5.8,6.4,11.2v121.7c0,19.5-6.9,36.1-20.8,49.8c-13.8,13.9-30.4,20.8-49.8,20.8
			H105.6c-2.1,0-4.2-0.5-6.4-1.5c-4.3-2.2-6.4-6-6.4-11.3V102.9c0-2.1,0.6-4.3,1.7-6.4c2.1-4.3,5.8-6.4,11.2-6.4h179.5L287.1,90.4z"
			/>
		<g>
			<path class="st3" d="M136,121.8c-4.2,0-7.5,1.5-9.9,4.4c-2.4,3-3.6,7.1-3.6,12.3c0,5.5,1.1,9.6,3.4,12.4c2.3,2.8,5.6,4.2,10,4.2
				c1.9,0,3.7-0.2,5.5-0.6c1.8-0.4,3.6-0.9,5.5-1.4v6.2c-3.5,1.3-7.4,2-11.9,2c-6.5,0-11.5-2-15-5.9s-5.2-9.6-5.2-16.9
				c0-4.6,0.8-8.7,2.5-12.1c1.7-3.5,4.1-6.1,7.3-8s7-2.8,11.3-2.8c4.5,0,8.7,0.9,12.6,2.9l-2.6,6.1c-1.5-0.7-3.1-1.3-4.8-1.9
				C139.6,122.1,137.8,121.8,136,121.8z"/>
			<path class="st3" d="M171.4,160.7l-1.1-3.7h-0.2c-1.3,1.6-2.6,2.7-3.9,3.3c-1.3,0.6-3,0.9-5,0.9c-2.6,0-4.7-0.7-6.1-2.1
				s-2.2-3.4-2.2-6c0-2.8,1-4.8,3.1-6.2c2-1.4,5.2-2.2,9.3-2.3l4.6-0.1V143c0-1.7-0.4-3-1.2-3.8s-2-1.3-3.7-1.3
				c-1.4,0-2.7,0.2-3.9,0.6c-1.3,0.4-2.5,0.9-3.6,1.4l-1.8-4.1c1.4-0.8,3-1.3,4.7-1.7s3.3-0.6,4.9-0.6c3.4,0,5.9,0.7,7.7,2.2
				c1.7,1.5,2.6,3.8,2.6,7v18L171.4,160.7L171.4,160.7z M163,156.9c2.1,0,3.7-0.6,5-1.7c1.2-1.1,1.9-2.8,1.9-4.8V148l-3.4,0.1
				c-2.7,0.1-4.6,0.5-5.8,1.3s-1.8,2-1.8,3.7c0,1.2,0.3,2.1,1.1,2.8C160.5,156.5,161.5,156.9,163,156.9z"/>
		</g>
	</g>
	<g>
		<g>
			<g>
				<polyline class="st4" points="265.2,256.6 265.2,258.5 263.3,258.5 				"/>
				<line class="st5" x1="261.8" y1="258.5" x2="195.4" y2="258.5"/>
				<polyline class="st4" points="194.7,258.5 192.8,258.5 192.8,256.6 				"/>
				<line class="st6" x1="192.8" y1="255.1" x2="192.8" y2="229.4"/>
				<polyline class="st4" points="192.8,228.7 192.8,226.8 194.2,225.4 				"/>
				<polyline class="st7" points="195.2,224.3 211.9,207.9 224.6,195.2 262.5,195.2 				"/>
				<polyline class="st4" points="263.3,195.2 265.2,195.2 265.2,197.1 				"/>
				<line class="st8" x1="265.2" y1="198.6" x2="265.2" y2="255.8"/>
			</g>
		</g>
		<rect x="238.7" y="220.6" class="st9" width="14.4" height="12.6"/>
		<rect x="245.1" y="226.1" class="st10" width="1.7" height="1.5"/>
		<polygon class="st11" points="232.2,187.7 188.6,187.7 188.6,230.9 		"/>
		<polygon class="st4" points="211.2,198.7 197.2,198.7 197.2,212.5 		"/>
		<line class="st9" x1="197.2" y1="187.5" x2="197.2" y2="191.9"/>
		<line class="st12" x1="207.8" y1="187.5" x2="207.8" y2="191.3"/>
		<line class="st9" x1="213.5" y1="188.2" x2="213.5" y2="190"/>
		<line class="st12" x1="219.1" y1="188.2" x2="219.1" y2="190"/>
		<line class="st12" x1="202.2" y1="188.2" x2="202.2" y2="190.7"/>
		<line class="st9" x1="245.9" y1="220.6" x2="245.9" y2="195.2"/>
		<line class="st9" x1="245.9" y1="258.1" x2="245.9" y2="233.4"/>
		<line class="st9" x1="238.7" y1="226.9" x2="192.8" y2="226.9"/>
		<line class="st9" x1="253.1" y1="226.9" x2="265.2" y2="226.9"/>
		<polygon class="st13" points="245.8,258.5 192.8,258.5 192.8,226.9 238.7,226.9 238.7,232.8 245.8,233.1 		"/>
	</g>
</g>
<g>
	<path class="st14" d="M274.8,142c-19,0-34.5-15.5-34.5-34.5S255.8,73,274.8,73s34.5,15.5,34.5,34.5S293.9,142,274.8,142z"/>
	<path class="st15" d="M274.8,74.4c18.2,0,33,14.8,33,33s-14.8,33-33,33s-33-14.8-33-33S256.6,74.4,274.8,74.4 M274.8,71.4
		c-19.9,0-36,16.1-36,36s16.1,36,36,36s36-16.1,36-36S294.7,71.4,274.8,71.4L274.8,71.4z"/>
</g>
<g>
	<g>
		<polygon class="st16" points="212.9,47.1 231.2,48.2 229.8,65.2 222.6,70.2 215.4,66.7 		"/>
		<polygon class="st16" points="159.3,50.4 163.4,50.4 164.8,47.1 165.4,27.7 158.8,23.9 146.3,23.9 145.3,38.1 145.8,50 		"/>
		<polygon class="st16" points="51,191.1 44.9,185.6 28.7,185.3 27.2,187.1 27.2,208.7 50.5,209.1 		"/>
		<polygon class="st16" points="78.8,247.1 72.8,241.1 58.4,240.7 59,268 77.7,268 		"/>
	</g>
	<g>
		<g>
			<path class="st14" d="M210.8,45.1h22.5l-2.1,23.2l-9.2,3.1l-9.2-3.1L210.8,45.1z M228.8,52.6l0.3-2.8H215l0.7,8.5h9.8l-0.4,3.6
				l-3.1,0.8l-3.2-0.8l-0.2-2.2h-2.8l0.4,4.4l5.8,1.6h0.1l5.7-1.6l0.8-8.7h-10.3l-0.2-2.9L228.8,52.6L228.8,52.6z"/>
		</g>
		<g>
			<path class="st14" d="M165.4,27.7c0.6,0.5,0.8,1.2,0.8,2v19.5c0,0.8-0.3,1.4-0.8,2c-0.6,0.5-1.2,0.8-2,0.8h-16.9
				c-0.8,0-1.4-0.3-2-0.8s-0.8-1.2-0.8-2V24.8c0-0.8,0.3-1.4,0.8-2s1.2-0.8,2-0.8h11.9c0.8,0,1.4,0.3,2,0.8L165.4,27.7z M146.6,49.1
				h16.9V32.2h-6.1c-0.4,0-0.7-0.1-1-0.4c-0.3-0.3-0.4-0.6-0.4-1v-6.1h-9.4V49.1L146.6,49.1z M149.3,33.1c0.6-0.5,1.2-0.8,2-0.8
				s1.4,0.3,2,0.8s0.8,1.2,0.8,2s-0.3,1.5-0.8,2c-0.6,0.5-1.2,0.8-2,0.8s-1.4-0.3-2-0.8s-0.8-1.2-0.8-2S148.7,33.6,149.3,33.1z
				 M148.4,46.3v-3.8l2.3-2.3c0.3-0.3,0.6-0.3,0.9,0l2.3,2.3l5.2-5.2c0.3-0.3,0.6-0.3,0.9,0l1.4,1.4v7.5L148.4,46.3L148.4,46.3z
				 M163.2,29.4l-4.4-4.4v4.5C158.8,29.4,163.2,29.4,163.2,29.4z"/>
		</g>
		<g>
			<path class="st14" d="M51.2,190.1c0.5,0.6,0.8,1.2,0.8,2v15.7c0,0.8-0.3,1.4-0.8,2s-1.2,0.8-2,0.8H28.6c-0.8,0-1.5-0.3-2-0.8
				c-0.5-0.6-0.8-1.2-0.8-2v-20.6c0-0.8,0.3-1.4,0.8-2s1.2-0.8,2-0.8h15.7c0.8,0,1.4,0.3,2,0.8L51.2,190.1z M48.9,207.8
				c0.2,0,0.3-0.1,0.3-0.4v-15.2c0-0.1,0-0.2-0.1-0.2l-4.6-4.6v5.9c0,0.4-0.1,0.7-0.4,1c-0.3,0.3-0.6,0.4-1,0.4H32.8
				c-0.4,0-0.7-0.1-1-0.4c-0.3-0.3-0.4-0.6-0.4-1v-6.1H29c-0.2,0-0.4,0.1-0.4,0.4v19.9c0,0.2,0.1,0.4,0.4,0.4L48.9,207.8L48.9,207.8
				z M35.3,197.6c1-1,2.2-1.5,3.6-1.5s2.6,0.5,3.6,1.5s1.5,2.2,1.5,3.6s-0.5,2.6-1.5,3.6s-2.2,1.5-3.6,1.5s-2.6-0.5-3.6-1.5
				s-1.5-2.2-1.5-3.6S34.3,198.6,35.3,197.6z M41.8,187.1h-7.5v4.7h7.5V187.1z M37.3,202.9c0.5,0.4,1,0.7,1.7,0.7s1.2-0.2,1.7-0.7
				c0.5-0.4,0.7-1,0.7-1.7s-0.2-1.2-0.7-1.7c-0.5-0.4-1-0.7-1.7-0.7s-1.2,0.2-1.7,0.7c-0.5,0.4-0.7,1-0.7,1.7S36.8,202.4,37.3,202.9
				z"/>
		</g>
		<g>
			<path class="st14" d="M79.3,245.6c0.6,0.6,0.8,1.2,0.8,2V267c0,0.8-0.3,1.4-0.8,2s-1.2,0.8-2,0.8H60.4c-0.8,0-1.5-0.3-2-0.8
				s-0.8-1.2-0.8-2v-24.4c0-0.8,0.3-1.4,0.8-2s1.2-0.8,2-0.8h12c0.8,0,1.4,0.3,2,0.8L79.3,245.6z M77.3,267v-16.9h-6.1
				c-0.4,0-0.7-0.1-1-0.4c-0.3-0.3-0.4-0.6-0.4-1v-6.1h-9.4V267H77.3z M66.4,260.3c0.2,0.2,0.2,0.5,0,0.8l-1,1
				c-0.1,0.1-0.2,0.2-0.4,0.2c-0.1,0-0.2-0.1-0.3-0.2l-3.3-3.2c-0.3-0.2-0.3-0.5,0-0.7l3.3-3.2c0.3-0.3,0.5-0.3,0.8,0l1,1v0.1
				c0.2,0.2,0.2,0.5,0,0.7l-1.9,1.7L66.4,260.3z M69.9,252.4l1.4,0.4c0.3,0.1,0.5,0.3,0.3,0.6l-3.2,11c-0.1,0.4-0.3,0.5-0.6,0.4
				l-1.4-0.4c-0.3-0.1-0.5-0.3-0.3-0.6l3.2-11C69.4,252.4,69.6,252.3,69.9,252.4z M71.3,256.9c-0.2-0.2-0.2-0.5,0-0.8l1-1.1
				c0.2-0.3,0.5-0.3,0.8,0l3.3,3.2c0.3,0.2,0.3,0.5,0,0.7l-3.3,3.2c-0.3,0.3-0.5,0.3-0.8,0l-1-1V261c-0.2-0.2-0.2-0.5,0-0.7l1.9-1.7
				L71.3,256.9z M72.6,242.9v4.4H77L72.6,242.9z"/>
		</g>
		<g>
			<polygon class="st16" points="28.6,132.8 23.2,125.5 35.5,116.3 44,127.6 38.9,133.7 			"/>
			<g>
				<path class="st14" d="M50.4,123.9l-8,8h8.1c0.5,0,0.7,0.2,0.7,0.7v2.3c0,0.5-0.2,0.7-0.7,0.7h-20c-0.8,0-1.4-0.3-1.9-0.8
					l-5.4-5.4c-0.5-0.5-0.8-1.2-0.8-1.9c0-0.8,0.3-1.4,0.8-1.9l14.4-14.4c0.5-0.5,1.2-0.8,1.9-0.8c0.8,0,1.4,0.3,1.9,0.8l9,9
					c0.5,0.5,0.8,1.2,0.8,1.9C51.2,122.7,51,123.4,50.4,123.9z M33.4,120.4l-7,7l4.5,4.5h6.4l3.8-3.8L33.4,120.4z"/>
			</g>
			<polygon class="st16" points="91.6,71 91.6,53.6 73.5,53.6 70.8,58.7 65.4,58.7 65.4,76.7 72.3,79.4 88.1,78.6 87.5,74.4 			"/>
			<g>
				<path class="st14" d="M91.6,50.6c0.8,0,1.4,0.3,1.9,0.8s0.8,1.2,0.8,1.9v18c0,0.8-0.3,1.4-0.8,1.9S92.3,74,91.6,74h-2.7v2.7
					c0,0.8-0.3,1.4-0.8,1.9s-1.2,0.8-1.9,0.8h-18c-0.8,0-1.4-0.3-1.9-0.8s-0.8-1.2-0.8-1.9v-18c0-0.8,0.3-1.4,0.8-1.9
					s1.2-0.8,1.9-0.8h2.7v-2.7c0-0.8,0.3-1.4,0.8-1.9s1.2-0.8,1.9-0.8C73.6,50.6,91.6,50.6,91.6,50.6z M85.8,76.7
					c0.2,0,0.3-0.1,0.3-0.3V74H73.5c-0.8,0-1.4-0.3-1.9-0.8s-0.8-1.2-0.8-1.9V58.7h-2.4c-0.2,0-0.3,0.1-0.3,0.3v17.3
					c0,0.2,0.1,0.3,0.3,0.3L85.8,76.7L85.8,76.7z M91.2,71.3c0.2,0,0.3-0.1,0.3-0.3V53.6c0-0.2-0.1-0.3-0.3-0.3H73.9
					c-0.2,0-0.3,0.1-0.3,0.3V71c0,0.2,0.1,0.3,0.3,0.3H91.2z"/>
			</g>
		</g>
	</g>
</g>
<g id="Sharepoint">
	<g>
		<path class="st17" d="M295.4,92.8c-2-2.9-5.5-4.6-9.7-4.9c2.1,0.5,3.9,1.5,5,3.1c3.8,5.5-1.2,15.5-11.1,22.4
			c-10,6.9-21.1,8.1-24.9,2.6c-1.6-2.4-1.6-5.6-0.3-9c-2.6,5.3-2.8,10.6-0.2,14.4c5,7.1,18.2,6.5,29.6-1.4S300.4,99.9,295.4,92.8z"
			/>
	</g>
	<g>
		<path class="st17" d="M259.2,111.4c1.3,1.7,3.4,2.6,6,2.8c-1.3-0.3-2.4-0.9-3.1-1.8c-2.4-3.1,0.7-8.9,7-12.9s13.2-4.6,15.5-1.5
			c1,1.3,1,3.2,0.2,5.2c1.6-3,1.8-6.1,0.1-8.2c-3.1-4.1-11.4-3.8-18.5,0.8C259.4,100.3,256.1,107.3,259.2,111.4z"/>
	</g>
</g>
</svg>
