<?xml version="1.0" standalone="no"?>
<!DOCTYPE svg PUBLIC "-//W3C//DTD SVG 20010904//EN"
 "http://www.w3.org/TR/2001/REC-SVG-20010904/DTD/svg10.dtd">
<svg version="1.0" xmlns="http://www.w3.org/2000/svg"
 width="700.000000pt" height="700.000000pt" viewBox="0 0 700.000000 700.000000"
 preserveAspectRatio="xMidYMid meet">
<metadata>
Created by potrace 1.11, written by Peter Selinger 2001-2013
</metadata>
<g transform="translate(0.000000,700.000000) scale(0.100000,-0.100000)"
fill="#000000" stroke="none">
<path d="M4394 6875 c-23 -7 -52 -20 -65 -29 -54 -37 -1263 -1254 -1287 -1296
-23 -39 -27 -56 -27 -125 0 -62 5 -89 22 -120 12 -23 91 -111 177 -196 l155
-156 -180 -179 c-99 -98 -182 -181 -184 -183 -2 -2 -75 68 -162 155 -187 187
-225 209 -332 202 -36 -3 -82 -13 -101 -23 -19 -9 -318 -299 -663 -644 -467
-465 -635 -639 -655 -676 -20 -39 -26 -64 -26 -115 0 -123 -20 -100 672 -791
682 -682 666 -669 783 -674 98 -4 140 22 319 200 l155 155 170 -169 c93 -92
171 -174 173 -180 2 -6 -57 -73 -132 -147 -165 -164 -188 -200 -193 -298 -7
-122 -23 -102 677 -802 462 -461 636 -629 669 -645 69 -32 135 -35 206 -9 57
21 87 49 688 649 697 695 683 678 681 801 -1 49 -7 77 -27 115 -19 38 -182
206 -654 676 -345 345 -644 634 -663 644 -19 9 -66 19 -103 21 -105 5 -147
-18 -293 -164 l-121 -122 -176 177 -177 177 114 115 c62 64 121 132 131 151
10 19 20 65 23 101 7 100 -19 149 -152 282 l-108 109 33 35 c19 19 101 102
184 184 l149 148 109 -110 c125 -125 166 -150 254 -155 130 -6 89 -40 790 659
451 450 639 644 659 680 20 37 27 67 29 113 5 121 22 100 -668 792 -673 674
-674 675 -782 678 -27 1 -69 -4 -91 -11z"/>
</g>
</svg>
