<?xml version="1.0" standalone="no"?>
<!DOCTYPE svg PUBLIC "-//W3C//DTD SVG 20010904//EN"
 "http://www.w3.org/TR/2001/REC-SVG-20010904/DTD/svg10.dtd">
<svg version="1.0" xmlns="http://www.w3.org/2000/svg"
 width="700.000000pt" height="700.000000pt" viewBox="0 0 700.000000 700.000000"
 preserveAspectRatio="xMidYMid meet">
<metadata>
Created by potrace 1.11, written by Peter Selinger 2001-2013
</metadata>
<g transform="translate(0.000000,700.000000) scale(0.100000,-0.100000)"
fill="#000000" stroke="none">
<path d="M949 6468 c-6 -10 -4 -1910 1 -1913 6 -4 42 1 160 20 14 2 48 7 75
11 28 3 57 8 66 9 9 2 40 6 70 10 30 3 61 8 69 10 16 4 62 11 140 20 25 3 52
7 60 10 8 2 38 6 65 10 28 3 77 10 110 15 33 5 80 12 105 15 25 3 56 8 70 10
14 2 43 7 65 10 22 3 67 10 100 15 33 5 83 11 110 15 28 3 75 10 105 15 30 5
75 12 100 15 25 3 56 7 70 10 14 3 45 7 70 10 25 3 106 15 180 26 74 12 151
23 170 25 19 2 53 6 75 9 22 4 51 8 65 10 14 2 54 9 90 14 36 6 88 13 115 17
28 3 52 8 55 9 3 2 37 6 75 10 39 4 72 9 75 10 3 2 33 6 65 10 33 3 67 8 75
10 8 2 38 7 65 10 28 3 61 8 75 10 14 3 43 7 65 11 22 3 51 7 65 9 14 2 90 13
170 25 79 11 156 22 170 25 14 2 43 7 65 9 22 3 56 8 75 11 19 3 49 7 65 9 70
10 455 66 481 70 16 3 65 10 110 16 44 6 91 13 105 15 13 3 42 7 64 10 106 13
159 21 206 31 16 3 33 18 46 42 21 37 264 498 376 712 33 63 70 133 82 155 12
22 57 108 100 190 43 83 82 156 88 163 7 9 -505 12 -2557 12 -1411 0 -2567 -1
-2567 -2z"/>
<path d="M944 3405 c0 -884 2 -985 16 -980 27 8 412 125 495 150 88 26 476
144 680 206 72 22 166 50 210 63 78 23 506 152 735 222 63 20 127 40 141 45
24 9 201 315 717 1237 l24 42 -1509 0 -1509 0 0 -985z"/>
<path d="M944 1408 c0 -483 1 -878 2 -878 4 0 169 87 219 115 44 25 152 83
390 210 50 27 124 67 165 89 41 23 92 50 112 61 33 17 42 31 79 120 23 55 50
118 59 140 21 46 44 99 165 390 48 116 95 228 105 250 75 173 147 346 152 365
3 12 -100 14 -723 14 l-725 1 0 -877z"/>
</g>
</svg>
