<?xml version="1.0" encoding="utf-8"?>
<!-- Generator: Adobe Illustrator 25.2.0, SVG Export Plug-In . SVG Version: 6.00 Build 0)  -->
<svg version="1.1" id="NET" xmlns="http://www.w3.org/2000/svg" xmlns:xlink="http://www.w3.org/1999/xlink" x="0px" y="0px"
	 viewBox="0 0 512 512" style="enable-background:new 0 0 512 512;" xml:space="preserve">
<style type="text/css">
	.st0{fill:#FFFFFF;}
	.st1{fill:#EF4047;}
</style>
<g id="App">
	<g id="NET-BG">
		<circle class="st0" cx="256" cy="256.1" r="242.7"/>
		<path class="st1" d="M256,20.9c129.6,0,235.2,105.4,235.2,235.2s-105.6,235-235.2,235S20.8,385.7,20.8,255.9S126.1,20.9,256,20.9
			 M256,6C118.1,6,6.1,117.9,6.1,255.9S117.8,506,256,506s249.9-111.9,249.9-249.9S393.9,6,256,6L256,6z"/>
	</g>
</g>
<g id="Classification">
	<g>
		<path class="st1" d="M166.7,241.4c0,8.3,6.5,15.2,14.6,15.2l62.1-0.6l0.6-29.7h-62.7C173.3,226.3,166.7,233.1,166.7,241.4z
			 M282.9,120.8H166.4c-22.3,0-40.1,18.7-40.1,41.6v187.2c0,22.9,18.1,41.6,40.1,41.6h89.1l-0.3-29.1h-89.1
			c-6.5,0-12.2-5.6-12.2-12.5V162.4c0-6.8,5.3-12.5,12.2-12.5h116.5c6.5,0,11.9,5.3,11.9,12.2h28.2
			C322.7,139.2,304.9,120.8,282.9,120.8z M181.3,172.8c-8,0-14.6,6.8-14.6,15.2s6.5,15.2,14.6,15.2l62.1-0.6l0.6-29.7L181.3,172.8
			L181.3,172.8z"/>
		<g>
			<path class="st1" d="M274.9,168c8.6,0,15.5,6.8,15.5,15.5s-6.8,15.5-15.5,15.5s-15.5-6.8-15.5-15.5S266.3,168,274.9,168
				 M274.9,160.6c-12.5,0-22.9,10.1-22.9,22.9c0,12.5,10.1,22.9,22.9,22.9c12.5,0,22.9-10.1,22.9-22.9S287.4,160.6,274.9,160.6
				L274.9,160.6z"/>
		</g>
		<g>
			<path class="st1" d="M366.1,304.1c9.5,0,17.2,7.7,17.2,17.2s-7.7,17.2-17.2,17.2s-17.2-7.7-17.2-17.2
				C348.9,311.9,356.6,304.1,366.1,304.1 M366.1,295.8c-14,0-25.6,11.6-25.6,25.6s11.6,25.6,25.6,25.6s25.6-11.6,25.6-25.6
				S380.4,295.8,366.1,295.8L366.1,295.8z"/>
		</g>
		<g>
			<path class="st1" d="M278.2,260.5c10.1,0,18.4,8.3,18.4,18.4s-8.3,18.4-18.4,18.4s-18.4-8.3-18.4-18.4S267.8,260.5,278.2,260.5
				 M278.2,251.5c-15.2,0-27.3,12.2-27.3,27.3s12.2,27.3,27.3,27.3c15.2,0,27.3-12.2,27.3-27.3S293,251.5,278.2,251.5L278.2,251.5z"
				/>
		</g>
		<g>
			<path class="st1" d="M354.5,202.5c11.9,0,21.7,9.8,21.7,21.7s-9.8,21.7-21.7,21.7c-11.9,0-21.7-9.8-21.7-21.7
				C332.5,212.3,342.4,202.5,354.5,202.5 M354.5,192.1c-17.8,0-32.4,14.6-32.4,32.4s14.6,32.4,32.4,32.4s32.4-14.6,32.4-32.4
				C386.6,206.4,372.1,192.1,354.5,192.1L354.5,192.1z"/>
		</g>
		<g>
			<path class="st1" d="M288.9,350.8c8.6,0,15.5,6.8,15.5,15.5s-6.8,15.5-15.5,15.5s-15.5-6.8-15.5-15.5S280.2,350.8,288.9,350.8
				 M288.9,343.4c-12.5,0-22.9,10.1-22.9,22.9s10.1,22.9,22.9,22.9s22.9-10.1,22.9-22.9S301.3,343.4,288.9,343.4L288.9,343.4z"/>
		</g>
		<g>
			<path class="st1" d="M201.8,280.7c7.1,0,13.1,5.9,13.1,13.1c0,7.1-5.9,13.1-13.1,13.1s-13.1-5.9-13.1-13.1
				S194.7,280.7,201.8,280.7 M201.8,274.4c-10.7,0-19.3,8.6-19.3,19.3s8.6,19.3,19.3,19.3s19.3-8.6,19.3-19.3
				S212.5,274.4,201.8,274.4L201.8,274.4z"/>
		</g>
		<g>
			<g>
				
					<rect x="273.1" y="201.6" transform="matrix(0.9995 -3.306631e-02 3.306631e-02 0.9995 -7.4139 9.2944)" class="st1" width="8.3" height="54.4"/>
			</g>
			
				<rect x="290.7" y="248.4" transform="matrix(0.7704 -0.6376 0.6376 0.7704 -88.6895 258.9278)" class="st1" width="48.9" height="8.3"/>
			
				<rect x="318.4" y="272.8" transform="matrix(0.4501 -0.893 0.893 0.4501 -91.029 453.3803)" class="st1" width="8.3" height="55.5"/>
			
				<rect x="217.1" y="280.1" transform="matrix(0.9633 -0.2684 0.2684 0.9633 -67.5956 74.0393)" class="st1" width="39.9" height="8.3"/>
			
				<rect x="280.4" y="300.6" transform="matrix(0.9988 -4.799041e-02 4.799041e-02 0.9988 -15.1466 14.0272)" class="st1" width="8.3" height="43.8"/>
		</g>
	</g>
</g>
</svg>
