<?xml version="1.0" encoding="utf-8"?>
<!-- Generator: Adobe Illustrator 25.2.0, SVG Export Plug-In . SVG Version: 6.00 Build 0)  -->
<svg version="1.1" id="NET" xmlns="http://www.w3.org/2000/svg" xmlns:xlink="http://www.w3.org/1999/xlink" x="0px" y="0px"
	 viewBox="0 0 512 512" style="enable-background:new 0 0 512 512;" xml:space="preserve">
<style type="text/css">
	.st0{fill:#EF4047;}
</style>
<g id="GroupDocs.Editor">
	<g>
		<path class="st0" d="M124.1,133.2c0-10.2,2.1-20.5,5.4-29.4H59c-25,0-45.5,20.9-45.5,46.8V360c0,25.9,20.5,46.4,45.5,46.4h69.6
			c-2.9-8.7-4.5-17.6-4.5-27.1v-5.8H58.9c-7.4,0-13.5-6.2-13.5-13.9V149.9c0-7.8,6.2-13.9,13.5-13.9h65.2V133.2L124.1,133.2z
			 M68,292c0,9.1,7,16.4,16,16.4h40.2v-32.3h-40C75,275.7,68,283.1,68,292z M124.1,220h-40c-8.7,0-16,7.4-16,16.4
			c0,9.1,7,16.4,16,16.4h40.2V220H124.1z M124.1,159.3h-40c-8.7,0-16,7.4-16,16.4c0,8.9,7,16.4,16,16.4h40.2v-32.7L124.1,159.3
			L124.1,159.3z M489.6,128.2c-11.8-11.4-31.5-11.4-43.5,0L313,256.8l43.5,41.8L489.6,170C501.5,158.5,501.5,139.6,489.6,128.2z
			 M358.9,158.9c0-11-9.1-20.1-20.1-20.1H235.7c-11,0-20.1,9.1-20.1,20.1s9.1,20.1,20.1,20.1h103.2C349.9,179,358.9,170,358.9,158.9
			z M387.6,384.6c0,9.4-7.8,17.2-17.2,17.2h-166c-9.4,0-17.2-7.8-17.2-17.2V127.4c0-9.4,7.8-17.2,17.2-17.2h165.9
			c9.4,0,17.2,7.8,17.2,17.2v11.8l37.7-28.6c-7.4-23.4-29-40.6-54.9-40.6H204.4c-31.5,0-57.4,25.5-57.4,57.4v257.3
			c0,31.5,25.9,57.4,57.4,57.4h165.9c31.5,0,57.4-25.5,57.4-57.4v-91.3c-10.2,8.7-23.8,17.6-40.2,21.7v69.5H387.6z M328.7,326
			l13.5-13.1l-43.5-41.8l-13.5,13.1L268,342.4L328.7,326z"/>
	</g>
</g>
</svg>
