<?xml version="1.0" encoding="utf-8"?>
<!-- Generator: Adobe Illustrator 25.0.1, SVG Export Plug-In . SVG Version: 6.00 Build 0)  -->
<svg version="1.1" id="Aspose.Words_1_" xmlns="http://www.w3.org/2000/svg" xmlns:xlink="http://www.w3.org/1999/xlink" x="0px"
	 y="0px" viewBox="0 0 280 200" style="enable-background:new 0 0 280 200;" xml:space="preserve">
<style type="text/css">
	.st0{fill:#C1C1C1;stroke:#C1C1C1;stroke-miterlimit:10;}
	.st1{fill:#EA531A;}
	.st2{fill:#FFFFFF;}
	.st3{fill:#444444;}
	.st4{fill:#0079D8;}
	.st5{fill:#B5B5B5;}
</style>
<g id="Aspose.Words">
	<g id="Lines">
		<line class="st0" x1="176.52" y1="51.09" x2="187.6" y2="51.09"/>
		<line class="st0" x1="176.61" y1="167.3" x2="187.65" y2="167.3"/>
		<line class="st0" x1="195.61" y1="49.01" x2="195.61" y2="53.55"/>
		<line class="st0" x1="195.61" y1="58.86" x2="195.61" y2="80.69"/>
		<line class="st0" x1="201.01" y1="129.88" x2="201.01" y2="169.51"/>
		<line class="st0" x1="187.65" y1="130.24" x2="201.51" y2="130.24"/>
		<line class="st0" x1="201.01" y1="174.84" x2="201.01" y2="180.88"/>
		<line class="st0" x1="264.1" y1="59.65" x2="264.1" y2="64.19"/>
		<line class="st0" x1="264.1" y1="80.74" x2="264.1" y2="85.29"/>
		<line class="st0" x1="264.1" y1="90.85" x2="264.1" y2="120.11"/>
		<line class="st0" x1="208.59" y1="109.32" x2="187.65" y2="109.32"/>
		<line class="st0" x1="206.57" y1="88.29" x2="187.65" y2="88.29"/>
		<line class="st0" x1="206.12" y1="61.76" x2="206.12" y2="88.79"/>
		<line class="st0" x1="229.52" y1="162.12" x2="208.59" y2="162.12"/>
		<line class="st0" x1="243.07" y1="120.69" x2="243.07" y2="185.81"/>
		<line class="st0" x1="227.41" y1="61.27" x2="227.41" y2="77.62"/>
		<line class="st0" x1="253.87" y1="57.58" x2="253.87" y2="62.13"/>
		<line class="st0" x1="264.1" y1="149.17" x2="264.1" y2="153.72"/>
		<line class="st0" x1="205.63" y1="61.74" x2="219.44" y2="61.74"/>
		<line class="st0" x1="227.41" y1="61.76" x2="254.38" y2="61.76"/>
		<line class="st0" x1="216.64" y1="74.79" x2="216.64" y2="79.98"/>
		<line class="st0" x1="187.65" y1="98.65" x2="214.62" y2="98.65"/>
		<line class="st0" x1="187.65" y1="119.6" x2="264.1" y2="119.6"/>
		<line class="st0" x1="216.73" y1="127.86" x2="216.73" y2="180.88"/>
	</g>
	<g>
		<circle class="st1" cx="237.9" cy="157.08" r="25"/>
		<path id="Ubuntu_Icon" class="st2" d="M224.59,154.39c-1.48,0-2.69,1.2-2.69,2.69c0,1.48,1.2,2.68,2.69,2.68
			c1.48,0,2.68-1.2,2.68-2.68C227.27,155.6,226.07,154.39,224.59,154.39L224.59,154.39z M243.76,166.6
			c-1.28,0.74-1.72,2.38-0.98,3.67c0.74,1.28,2.38,1.72,3.67,0.98c1.28-0.74,1.72-2.38,0.98-3.67
			C246.69,166.3,245.04,165.86,243.76,166.6L243.76,166.6z M230.42,157.08c0-2.65,1.32-5,3.33-6.42l-1.96-3.29
			c-2.35,1.57-4.1,3.97-4.82,6.78c0.85,0.69,1.39,1.74,1.39,2.92c0,1.18-0.54,2.23-1.39,2.92c0.73,2.81,2.47,5.21,4.82,6.78
			l1.96-3.29C231.74,162.08,230.42,159.73,230.42,157.08L230.42,157.08z M238.26,149.24c4.1,0,7.46,3.14,7.81,7.15l3.83-0.06
			c-0.19-2.96-1.48-5.61-3.47-7.57c-1.02,0.39-2.2,0.33-3.22-0.26c-1.02-0.59-1.66-1.58-1.84-2.66c-0.99-0.27-2.04-0.42-3.12-0.42
			c-1.86,0-3.61,0.44-5.17,1.21l1.87,3.34C235.96,149.5,237.08,149.24,238.26,149.24L238.26,149.24z M238.26,164.92
			c-1.18,0-2.3-0.26-3.3-0.73l-1.87,3.34c1.56,0.77,3.31,1.21,5.17,1.21c1.08,0,2.12-0.15,3.12-0.42c0.18-1.08,0.82-2.07,1.84-2.66
			c1.02-0.59,2.2-0.65,3.22-0.26c1.99-1.95,3.28-4.61,3.47-7.57l-3.83-0.06C245.72,161.78,242.36,164.92,238.26,164.92
			L238.26,164.92z M243.76,147.56c1.28,0.74,2.93,0.3,3.67-0.98c0.74-1.28,0.3-2.93-0.98-3.67c-1.28-0.74-2.93-0.3-3.67,0.98
			C242.04,145.18,242.48,146.82,243.76,147.56L243.76,147.56z"/>
	</g>
	<g>
		<circle class="st3" cx="238.14" cy="98.1" r="25"/>
		<g id="Apple_Icon">
			<path class="st2" d="M245.46,98.6c0.04,4.09,3.58,5.45,3.62,5.46c-0.03,0.1-0.57,1.94-1.87,3.84c-1.13,1.64-2.29,3.28-4.13,3.32
				c-1.81,0.03-2.39-1.07-4.46-1.07c-2.07,0-2.71,1.04-4.42,1.11c-1.78,0.07-3.13-1.78-4.26-3.42c-2.32-3.35-4.09-9.47-1.71-13.6
				c1.18-2.05,3.29-3.35,5.59-3.38c1.74-0.03,3.39,1.17,4.46,1.17c1.07,0,3.07-1.45,5.17-1.24c0.88,0.04,3.35,0.36,4.94,2.68
				C248.25,93.54,245.43,95.18,245.46,98.6 M242.06,88.57c0.94-1.14,1.58-2.73,1.4-4.31c-1.36,0.05-3,0.91-3.98,2.05
				c-0.87,1.01-1.64,2.63-1.43,4.18C239.57,90.6,241.12,89.71,242.06,88.57"/>
		</g>
	</g>
	<g id="Left_Right_Boxes">
		<polygon class="st2" points="111.88,177.27 15.9,169.01 15.9,44.69 111.88,44.69 		"/>
		<polygon class="st2" points="176.81,168.01 118.52,177.27 118.52,44.69 176.81,44.69 		"/>
	</g>
	<g>
		<circle class="st4" cx="237.96" cy="39.19" r="25"/>
		<path id="Windows_Icon" class="st2" d="M250.4,40.64v12.01l0,0c0,0.03-0.01,0.05-0.01,0.07c-0.04,0.3-0.31,0.51-0.61,0.47
			l-11.93-1.58c-0.29-0.01-0.52-0.25-0.52-0.54V40.62h0.01c0-0.3,0.24-0.55,0.54-0.55l11.93,0.02c0.01,0,0.03,0,0.05,0
			C250.16,40.09,250.4,40.34,250.4,40.64z M236.05,40.62v10.15c0,0.03,0,0.05,0,0.07c-0.04,0.3-0.31,0.51-0.61,0.47l-11.24-1.4
			c-0.28-0.03-0.5-0.26-0.5-0.54v-8.73l0,0c0-0.3,0.24-0.54,0.55-0.54l11.21-0.03c0.01,0,0.03,0,0.05,0
			C235.8,40.07,236.05,40.31,236.05,40.62z M236.05,28.3v9.96c0,0.3-0.24,0.54-0.54,0.54h-11.32c-0.3,0-0.55-0.24-0.55-0.54v-8.53
			l0,0c0-0.27,0.21-0.51,0.48-0.54l11.27-1.42c0.04-0.01,0.08-0.01,0.12-0.01C235.8,27.75,236.05,28,236.05,28.3z M249.85,38.8
			h-11.97c-0.3,0-0.55-0.24-0.55-0.54V28.01h0.01c0-0.27,0.2-0.5,0.47-0.54l11.93-1.56c0.04-0.01,0.08-0.01,0.12-0.01
			c0.3,0,0.55,0.24,0.55,0.55v11.81C250.4,38.55,250.16,38.8,249.85,38.8z"/>
	</g>
	<g>
		<g>
			<rect x="128.35" y="76.87" class="st5" width="36.63" height="7.08"/>
		</g>
		<g>
			<rect x="128.35" y="93.58" class="st5" width="36.63" height="7.08"/>
		</g>
		<g>
			<rect x="128.35" y="110.29" class="st5" width="36.63" height="7.08"/>
		</g>
		<g>
			<rect x="128.35" y="127" class="st5" width="36.63" height="7.08"/>
		</g>
	</g>
	<g>
		<path class="st5" d="M85.3,134.09H69.34l-4.79-21.77c-0.23-0.91-0.59-2.72-1.08-5.43c-0.49-2.71-0.85-4.98-1.08-6.8
			c-0.18,1.48-0.48,3.32-0.89,5.52c-0.41,2.2-0.81,4.22-1.21,6.07c-0.4,1.85-2.06,9.32-4.97,22.42H39.37L26.99,84.12h13.02
			l5.43,25.05c1.23,5.54,2.07,9.95,2.53,13.23c0.3-2.32,0.83-5.48,1.59-9.47c0.76-3.99,1.48-7.29,2.14-9.91l4.41-18.9h12.51
			l4.27,18.9c0.73,3.03,1.47,6.53,2.22,10.49s1.25,6.93,1.5,8.89c0.3-2.53,1.1-6.92,2.43-13.16l5.54-25.12h13.02L85.3,134.09z"/>
	</g>
</g>
<g>
</g>
<g>
</g>
<g>
</g>
<g>
</g>
<g>
</g>
</svg>
