<?xml version="1.0" encoding="utf-8"?>
<!-- Generator: Adobe Illustrator 25.2.0, SVG Export Plug-In . SVG Version: 6.00 Build 0)  -->
<svg version="1.1" id="Aspose.Cells" xmlns="http://www.w3.org/2000/svg" xmlns:xlink="http://www.w3.org/1999/xlink" x="0px"
	 y="0px" viewBox="0 0 277 277" style="enable-background:new 0 0 277 277;" xml:space="preserve">
<style type="text/css">
	.st0{fill:#FFFFFF;}
	.st1{fill-rule:evenodd;clip-rule:evenodd;fill:#2D86C7;}
	.st2{fill:#2D86C7;}
	.st3{fill-rule:evenodd;clip-rule:evenodd;fill:#FFFFFF;}
</style>
<g id="SharePoint">
	<polygon class="st0" points="267.16,16.01 258.07,10.16 18.93,10.16 9.84,19.26 9.84,259.04 15.68,266.84 194.38,266.84 
		267.16,174.56 	"/>
	<path class="st1" d="M87.76,180.58c0-25.77,9.04-47.71,27.12-65.8c17.96-18.09,39.87-27.13,65.76-27.13
		c25.51,0,47.36,9.04,65.57,27.13c18.2,18.09,27.3,40.02,27.3,65.8c0,25.65-9.1,47.52-27.3,65.61
		c-18.21,18.21-40.06,27.32-65.57,27.32c-25.89,0-47.8-9.1-65.76-27.32C96.8,228.1,87.76,206.23,87.76,180.58"/>
	<path class="st1" d="M273.5,180.58h-10.87V23.77c0-4-1.44-6.69-4.31-8.07c-1-0.5-2.16-0.88-3.48-1.13l-1.59-0.18H23.76
		c-4.07,0-6.75,1.41-8.06,4.22c-0.81,1.62-1.25,3.34-1.32,5.16v229.47c0,4,1.41,6.66,4.22,7.97c1.63,0.81,3.34,1.28,5.16,1.41h152.1
		l4.78,10.88H20.38c-2.81,0-5.62-0.69-8.43-2.06c-5.63-2.81-8.45-7.75-8.45-14.82V20.39c0-2.81,0.72-5.63,2.16-8.44
		C8.48,6.32,13.38,3.5,20.38,3.5h236.25l2.62,0.28c2.13,0.31,4.07,0.94,5.82,1.88c5.63,2.82,8.44,7.73,8.44,14.73v160.19H273.5z"/>
	<g>
		<path class="st2" d="M61.8,47.02c-5.42,0-9.68,1.92-12.79,5.77c-3.11,3.84-4.66,9.15-4.66,15.92c0,7.08,1.49,12.44,4.48,16.08
			c2.99,3.63,7.31,5.45,12.97,5.45c2.45,0,4.82-0.24,7.1-0.73c2.29-0.49,4.67-1.11,7.14-1.88v8.1c-4.53,1.71-9.66,2.57-15.39,2.57
			c-8.45,0-14.93-2.56-19.46-7.68S34.4,78.17,34.4,68.64c0-6,1.1-11.26,3.3-15.76s5.37-7.95,9.53-10.35
			c4.16-2.4,9.04-3.59,14.64-3.59c5.89,0,11.34,1.24,16.34,3.71l-3.39,7.86c-1.95-0.92-4.01-1.73-6.18-2.43
			C66.48,47.37,64.2,47.02,61.8,47.02z"/>
	</g>
	<g>
		<rect x="132.76" y="137.85" class="st3" width="37.77" height="19.54"/>
		<rect x="132.76" y="172.39" class="st3" width="37.77" height="19.55"/>
		<rect x="132.76" y="203.73" class="st3" width="37.77" height="19.55"/>
		<rect x="190.72" y="137.85" class="st3" width="37.78" height="19.54"/>
		<rect x="190.72" y="172.39" class="st3" width="37.78" height="19.55"/>
	</g>
</g>
</svg>
