<?xml version="1.0" encoding="utf-8"?>
<!-- Generator: Adobe Illustrator 25.2.0, SVG Export Plug-In . SVG Version: 6.00 Build 0)  -->
<svg version="1.1" id="Aspose.FONTs" xmlns="http://www.w3.org/2000/svg" xmlns:xlink="http://www.w3.org/1999/xlink" x="0px"
	 y="0px" viewBox="0 0 277 277" style="enable-background:new 0 0 277 277;" xml:space="preserve">
<style type="text/css">
	.st0{fill-rule:evenodd;clip-rule:evenodd;fill:#FFFFFF;}
	.st1{fill-rule:evenodd;clip-rule:evenodd;fill:#DD4443;}
	.st2{fill:#DD4443;}
	.st3{fill:#FFFFFF;}
</style>
<g id="Java">
	<path id="XMLID_3_" class="st0" d="M180.46,87.48c-25.78,0-47.67,9.07-65.69,27.2c-18.12,18.02-27.18,39.93-27.18,65.72
		s9.06,47.65,27.18,65.56c6.65,6.78,13.85,12.3,21.61,16.56H23.59c-1.8-0.11-3.55-0.62-5.23-1.52c-2.81-1.35-4.22-4-4.22-7.94V23.62
		c0.22-2.03,0.67-3.77,1.35-5.24c1.46-2.82,4.17-4.22,8.1-4.22h229.47l1.52,0.34c1.35,0.23,2.53,0.56,3.55,1.01
		c2.93,1.35,4.39,4.05,4.39,8.11v112.87c-4.26-7.79-9.77-15.06-16.55-21.79C227.74,96.55,205.9,87.48,180.46,87.48z"/>
	<path id="XMLID_1_" class="st1" d="M180.46,87.48c25.44,0,47.28,9.07,65.51,27.2c6.78,6.74,12.29,14,16.55,21.79V23.62
		c0-4.06-1.46-6.76-4.39-8.11c-1.01-0.45-2.2-0.79-3.55-1.01l-1.52-0.34H23.59c-3.94,0-6.64,1.41-8.1,4.22
		c-0.68,1.46-1.13,3.21-1.35,5.24v229.45c0,3.94,1.41,6.59,4.22,7.94c1.69,0.9,3.43,1.41,5.23,1.52h112.79
		c-7.76-4.26-14.96-9.78-21.61-16.56c-18.12-17.91-27.18-39.76-27.18-65.56s9.06-47.7,27.18-65.72
		C132.78,96.55,154.68,87.48,180.46,87.48z M259.14,3.68c2.48,0.45,4.39,1.07,5.74,1.86c5.63,2.7,8.44,7.6,8.44,14.7v160.18
		c0,25.68-9.12,47.54-27.36,65.56c-18.23,18.25-40.07,27.37-65.51,27.37H20.21c-2.7,0-5.52-0.67-8.44-2.03
		c-5.63-2.93-8.44-7.88-8.44-14.87V20.24c0-2.82,0.73-5.63,2.19-8.45c2.7-5.63,7.6-8.45,14.69-8.45h236.23L259.14,3.68z"/>
	<g>
		<path class="st2" d="M41.76,96.27h-9.49V37.73H65.3v8.09H41.76v18.3h22.06v8.13H41.76V96.27z"/>
	</g>
	<g>
		<path class="st3" d="M167.36,184.84h-26.99l-4.73,11c-1.17,2.71-1.75,4.73-1.75,6.07c0,1.06,0.51,2,1.52,2.8
			c1.01,0.81,3.19,1.33,6.55,1.57v1.9h-21.95v-1.9c2.91-0.51,4.8-1.18,5.65-2c1.75-1.65,3.68-4.99,5.81-10.02L156,136.88h1.8
			l24.26,57.98c1.95,4.66,3.73,7.68,5.32,9.07c1.59,1.39,3.81,2.17,6.66,2.34v1.9h-27.5v-1.9c2.78-0.14,4.65-0.6,5.63-1.39
			c0.98-0.79,1.46-1.75,1.46-2.88c0-1.51-0.69-3.89-2.06-7.15L167.36,184.84z M165.92,181.03l-11.82-28.17l-12.13,28.17H165.92z"/>
		<path class="st3" d="M225.19,201.39c-4.83,3.74-7.86,5.89-9.1,6.48c-1.85,0.86-3.82,1.29-5.91,1.29c-3.26,0-5.94-1.11-8.04-3.34
			c-2.11-2.23-3.16-5.16-3.16-8.79c0-2.29,0.51-4.28,1.54-5.96c1.41-2.33,3.85-4.52,7.33-6.58s9.26-4.56,17.35-7.5v-1.85
			c0-4.69-0.75-7.92-2.24-9.66c-1.49-1.75-3.66-2.62-6.5-2.62c-2.16,0-3.87,0.58-5.14,1.75c-1.3,1.17-1.95,2.5-1.95,4.01l0.1,2.98
			c0,1.58-0.4,2.79-1.21,3.65c-0.81,0.86-1.86,1.29-3.16,1.29c-1.27,0-2.3-0.44-3.11-1.34c-0.81-0.89-1.21-2.11-1.21-3.65
			c0-2.95,1.51-5.65,4.52-8.12c3.01-2.47,7.25-3.7,12.7-3.7c4.18,0,7.61,0.7,10.28,2.11c2.02,1.06,3.51,2.72,4.47,4.99
			c0.62,1.47,0.92,4.49,0.92,9.05v15.99c0,4.49,0.08,7.24,0.26,8.25s0.45,1.69,0.85,2.03c0.39,0.34,0.85,0.51,1.36,0.51
			c0.55,0,1.03-0.12,1.44-0.36c0.72-0.45,2.11-1.7,4.16-3.75v2.88c-3.84,5.14-7.5,7.71-11,7.71c-1.68,0-3.02-0.58-4.01-1.75
			C225.74,206.19,225.22,204.2,225.19,201.39z M225.19,198.05v-17.94c-5.17,2.06-8.52,3.51-10.02,4.37
			c-2.71,1.51-4.64,3.08-5.81,4.73s-1.75,3.44-1.75,5.4c0,2.47,0.74,4.52,2.21,6.14c1.47,1.63,3.17,2.44,5.09,2.44
			C217.51,203.19,220.94,201.47,225.19,198.05z"/>
	</g>
</g>
</svg>
