<svg xmlns="http://www.w3.org/2000/svg" xml:space="preserve" id="Layer_1" x="0" y="0" style="enable-background:new 0 0 170 42" version="1.1" viewBox="0 0 170 42">
  <style>
    .st0{fill-rule:evenodd;clip-rule:evenodd;fill:#fff}
  </style>
  <g id="oracle">
    <path d="M113.4 12.2h2.9v15H129l-1.9 2.9h-13.7V12.2zM90.5 30.1 79.6 13c-.7-1.1-2.4-1.1-3.2 0L65.7 30h3.5l3.2-5.1h6.9l1.8-2.9h-6.9l3.8-5.9 8.8 14h3.7zM97 12.2c-4.9 0-8.2 4-8.2 9 0 4.9 3.3 9 8.2 9h12l1.9-2.9H97.1c-3.3 0-5.3-2.7-5.3-6s1.9-6 5.3-6h12.3l1.8-2.9-14.2-.2zm-75 2.9h12.7c3.3 0 5.3 2.7 5.3 6s-1.9 6-5.3 6H22c-3.3 0-5.3-2.7-5.3-6s2-6 5.3-6zm0-2.9c-4.9 0-8.2 4-8.2 9 0 4.9 3.3 9 8.2 9h12.7c4.9 0 8.2-4 8.2-9 0-4.9-3.3-9-8.2-9H22zm110.2 10.4c.5 2.6 2.3 4.6 5.1 4.6h13.8l-1.9 2.9h-12c-4.9 0-8.2-4-8.2-9 0-4.9 3.3-9 8.2-9h14.2l-1.8 2.9h-12.3c-2.8 0-4.6 1.9-5.1 4.5h17.4l-1.9 2.9-15.5.2zm-72.8.2c2.9-.1 5.3-2.5 5.2-5.4 0-2.9-2.4-5.2-5.2-5.2H44.5v17.9h3.3v-15h11.6c1.3 0 2.4 1.1 2.4 2.4s-1.1 2.4-2.4 2.4h-9.3l10.5 10.2h4.2l-7.5-7.3h2.1zm95.1-10.6c.8 0 1.4.6 1.4 1.4 0 .8-.6 1.4-1.4 1.4-.8 0-1.4-.6-1.4-1.4s.6-1.4 1.4-1.4v-.3c-.9 0-1.7.7-1.7 1.7s.8 1.7 1.7 1.7 1.7-.7 1.7-1.7-.8-1.7-1.7-1.7v.3z" class="st0"/>
    <path d="M154.1 12.9h.4c.2 0 .4 0 .4.3s-.2.3-.5.3h-.4v.2h.3l.5.8h.3l-.6-.9c.3 0 .5-.2.5-.5 0-.4-.2-.6-.7-.6h-.7v1.9h.3l.2-1.5z" class="st0"/>
  </g>
</svg>
