<svg xmlns="http://www.w3.org/2000/svg" xml:space="preserve" id="Layer_1" x="0" y="0" style="enable-background:new 0 0 170 70" version="1.1" viewBox="0 0 170 70">
  <style>
    .st2{fill:#0052cc}
  </style>
  <g id="Layer_1_1_">
    <g id="Atlasian">
      <linearGradient id="path13_1_" x1="17.31" x2="12.5" y1="67.63" y2="75.96" gradientTransform="translate(0 -31.96)" gradientUnits="userSpaceOnUse">
        <stop offset="0" style="stop-color:#0052cc"/>
        <stop offset=".92" style="stop-color:#2684ff"/>
      </linearGradient>
      <path id="path13" d="M14.8 34.3c-.2-.2-.5-.3-.7-.1-.1 0-.1.1-.1.2l-4.6 9.1c-.1.3 0 .6.2.7.1 0 .2.1.2.1h6.3c.2 0 .4-.1.5-.3 1.5-2.8.7-7.1-1.8-9.7z" style="fill:url(#path13_1_)"/>
      <path id="path15" d="M18.2 26c-2.3 3.6-2.6 8.1-.7 11.9l3.1 6.1c.1.2.3.3.5.3h6.3c.3 0 .5-.3.5-.6v-.2L19.1 26c-.1-.3-.4-.4-.7-.2-.1 0-.2.1-.2.2z" style="fill:#2684ff"/>
      <path id="polygon17" d="m152.2 35.7 4.6 8.6h4.1V29h-3.2v9.9l-1.3-2.9-3.7-7h-5.1v15.3h3.3V32.6z" class="st2"/>
      <path id="rect19" d="M123.3 29h3.6v15.3h-3.6z" class="st2"/>
      <path id="path21" d="M119.2 39.8c0-2.7-1.4-3.9-5.4-4.8-2.2-.5-2.7-1-2.7-1.7 0-.9.8-1.3 2.2-1.3 1.8 0 3.5.5 5.2 1.3v-3.5c-1.6-.7-3.3-1.1-5.1-1-4 0-6 1.7-6 4.5 0 2.2 1 4 5.1 4.8 2.4.5 3 .9 3 1.7s-.5 1.3-2.2 1.3c-2.1 0-4.1-.6-5.9-1.6v3.7c1.2.6 2.9 1.3 5.9 1.3 4.2 0 5.9-1.9 5.9-4.7" class="st2"/>
      <path id="path23" d="M104.4 39.8c0-2.7-1.4-3.9-5.4-4.8-2.2-.5-2.7-1-2.7-1.7 0-.9.8-1.3 2.2-1.3 1.8 0 3.5.5 5.2 1.3v-3.5c-1.6-.7-3.3-1.1-5.1-1-4 0-6 1.7-6 4.5 0 2.2 1 4 5.1 4.8 2.4.5 3 .9 3 1.7s-.5 1.3-2.2 1.3c-2.1 0-4.1-.6-5.9-1.6v3.7c1.2.6 2.9 1.3 5.9 1.3 4.2 0 5.9-1.9 5.9-4.7" class="st2"/>
      <path id="polygon25" d="M68.6 41V29H65v15.3h7.3l1.1-3.3z" class="st2"/>
      <path id="polygon27" d="M58.1 44.3v-12h4.2V29H50.5v3.3h4v12z" class="st2"/>
      <path id="path29" d="M45.3 29h-4.7l-5.3 15.3h4.1l.8-2.6c1.9.5 3.8.5 5.7 0l.8 2.6h4.1L45.3 29zM43 39c-.7 0-1.3-.1-2-.3l2-6.7 2 6.7c-.7.2-1.4.3-2 .3z" class="st2"/>
      <path id="path31" d="M84.9 29h-4.7l-5.3 15.3H79l.8-2.6c1.9.5 3.8.5 5.7 0l.8 2.6h4.1L84.9 29zm-2.4 10c-.7 0-1.3-.1-2-.3l2-6.7 2 6.7c-.6.2-1.3.3-2 .3z" class="st2"/>
      <path id="path33" d="M139.7 29H135l-5.3 15.3h4.1l.8-2.6c1.9.5 3.8.5 5.7 0l.8 2.6h4.1L139.7 29zm-2.3 10c-.7 0-1.3-.1-2-.3l2-6.7 2 6.7c-.7.2-1.4.3-2 .3z" class="st2"/>
    </g>
  </g>
</svg>
