<?xml version="1.0" encoding="iso-8859-1"?>
<!-- Generator: Adobe Illustrator 16.0.0, SVG Export Plug-In . SVG Version: 6.00 Build 0)  -->
<!DOCTYPE svg PUBLIC "-//W3C//DTD SVG 1.1//EN" "http://www.w3.org/Graphics/SVG/1.1/DTD/svg11.dtd">
<svg version="1.1" id="Layer_1" xmlns="http://www.w3.org/2000/svg" xmlns:xlink="http://www.w3.org/1999/xlink" x="0px" y="0px"
	 width="90px" height="90px" viewBox="0 0 90 90" style="enable-background:new 0 0 90 90;" xml:space="preserve">
<g>
	<ellipse style="fill:#FFFFFF;stroke:#A5C545;stroke-width:1.9212;stroke-miterlimit:10;" cx="45" cy="45" rx="43.5" ry="43.5"/>
	<g id="Unlock">
		<path style="fill:#A5C545;" d="M55.583,31.47c-0.425-5.474-5-9.785-10.583-9.785c-5.863,0-10.615,4.752-10.615,10.615v9.589
			c0,3.858,2.058-1.385,5.137,0.473v-9.973c0-2.976,2.413-5.388,5.389-5.388c2.71,0,4.952,2,5.332,4.605
			c-0.013,0.092-0.017,0.186-0.017,0.281v3.556c0,1.488,1.206,2.693,2.692,2.693c1.489,0,2.693-1.206,2.693-2.693v-2.822v-0.32
			v-0.414C55.614,31.745,55.604,31.605,55.583,31.47z"/>
		<g>
			<path style="fill:#A5C545;" d="M27.754,46.64v16.884c0,2.646,2.145,4.792,4.79,4.792h24.913c2.645,0,4.79-2.146,4.79-4.792V46.64
				c0-2.646-2.146-4.79-4.79-4.79H32.544C29.899,41.85,27.754,43.995,27.754,46.64z M55.968,45.323c0.999,0,1.809,0.81,1.809,1.808
				v15.901c0,0.998-0.81,1.808-1.809,1.808H34.032c-0.999,0-1.809-0.81-1.809-1.808V47.131c0-0.998,0.809-1.808,1.809-1.808H55.968z
				"/>
			<g>
				<path style="fill:#A5C545;" d="M37.371,60.869h7.988c1.279,0,2.314-1.036,2.314-2.313c0-1.28-1.035-2.316-2.314-2.316h-7.988
					c-1.278,0-2.315,1.034-2.315,2.316C35.056,59.833,36.092,60.869,37.371,60.869z"/>
				<path style="fill:#A5C545;" d="M37.371,53.684h7.988c1.279,0,2.314-1.035,2.314-2.314c0-1.277-1.035-2.316-2.314-2.316h-7.988
					c-1.278,0-2.315,1.037-2.315,2.316S36.092,53.684,37.371,53.684z"/>
			</g>
		</g>
	</g>
</g>
</svg>
