<?xml version="1.0" encoding="utf-8"?>
<!-- Generator: Adobe Illustrator 25.2.0, SVG Export Plug-In . SVG Version: 6.00 Build 0)  -->
<svg version="1.1" id="NET" xmlns="http://www.w3.org/2000/svg" xmlns:xlink="http://www.w3.org/1999/xlink" x="0px" y="0px"
	 viewBox="0 0 512 512" style="enable-background:new 0 0 512 512;" xml:space="preserve">
<style type="text/css">
	.st0{fill:none;stroke:#9DC825;stroke-width:48.8458;stroke-miterlimit:10;}
	.st1{fill:none;stroke:#9DC825;stroke-width:48.8458;stroke-linecap:round;stroke-linejoin:round;stroke-miterlimit:10;}
</style>
<g id="Dark_1_">
	<path class="st0" d="M316.3,198.8V92.2c0,0,7.6-34.5-34.5-34.5s-217.7,0-217.7,0S31,54.7,31,90.9c0,36,0,333.8,0,333.8
		s4.5,29.6,29.6,29.6s96.2,0,96.2,0"/>
	<line class="st1" x1="198.6" y1="247.4" x2="224.6" y2="247.4"/>
	<line class="st1" x1="284.2" y1="247.4" x2="310.2" y2="247.4"/>
	<line class="st1" x1="369.4" y1="247.4" x2="395.8" y2="247.4"/>
	<line class="st1" x1="198.6" y1="308.4" x2="224.6" y2="308.4"/>
	<line class="st1" x1="284.2" y1="308.4" x2="310.2" y2="308.4"/>
	<line class="st1" x1="198.6" y1="430.6" x2="224.6" y2="430.6"/>
	<line class="st1" x1="369.4" y1="430.6" x2="395.8" y2="430.6"/>
	<line class="st1" x1="284.2" y1="369.4" x2="310.2" y2="369.4"/>
	<line class="st1" x1="454.9" y1="308.4" x2="481" y2="308.4"/>
	<line class="st1" x1="113" y1="308.4" x2="139.1" y2="308.4"/>
	<line class="st1" x1="113" y1="369.4" x2="139.1" y2="369.4"/>
	<line class="st1" x1="369.4" y1="369.4" x2="395.8" y2="369.4"/>
</g>
</svg>
