<?xml version="1.0" encoding="utf-8"?>
<!-- Generator: Adobe Illustrator 25.2.0, SVG Export Plug-In . SVG Version: 6.00 Build 0)  -->
<svg version="1.1" id="Layer_1" xmlns="http://www.w3.org/2000/svg" xmlns:xlink="http://www.w3.org/1999/xlink" x="0px" y="0px"
	 viewBox="0 0 320 320" style="enable-background:new 0 0 320 320;" xml:space="preserve">
<style type="text/css">
	.st0{fill:none;stroke:#EFEFEF;stroke-linecap:round;stroke-linejoin:round;stroke-miterlimit:10;stroke-dasharray:4,8;}
	.st1{fill:#FFFFFF;}
	.st2{fill-rule:evenodd;clip-rule:evenodd;fill:#FECD36;}
	.st3{fill:#FECD36;}
	.st4{fill:#EFEFEF;}
	.st5{fill:#DEDFDF;}
	.st6{fill:#4296D2;}
	.st7{display:none;fill:#FFFFFF;}
	.st8{fill:url(#SVGID_1_);}
	.st9{fill:url(#SVGID_2_);}
</style>
<circle class="st0" cx="154.2" cy="163.2" r="123.7"/>
<g id="NET_8_">
	<path class="st1" d="M278.6,266.4c-23.8,28.2-99.6,23.3-99.6,23.3H97.4V95.4h196.6v95.1C294.1,190.5,295,247.1,278.6,266.4z"/>
	<g>
		<path class="st2" d="M156.6,223.9c0-19.7,6.9-36.4,20.7-50.2c13.7-13.8,30.4-20.7,50.2-20.7c19.4,0,36.2,6.9,50,20.7
			c13.9,13.8,20.8,30.5,20.8,50.2c0,19.6-6.9,36.2-20.8,50c-13.9,13.9-30.6,20.8-50,20.8c-19.8,0-36.5-6.9-50.2-20.8
			C163.5,260.2,156.6,243.5,156.6,223.9"/>
		<path class="st2" d="M298.4,223.9h-8.3V104.3c0-3.1-1.1-5.1-3.3-6.2c-0.8-0.4-1.7-0.7-2.7-0.8l-1.2-0.2H107.8
			c-3.1,0-5.2,1.1-6.2,3.2c-0.6,1.2-1,2.6-1,4v175c0,3.1,1.1,5.1,3.2,6.1c1.2,0.6,2.5,1,4,1.1h116.1l3.7,8.3H105.2
			c-2.1,0-4.3-0.5-6.4-1.6c-4.3-2.1-6.4-5.9-6.4-11.3V101.8c0-2.1,0.5-4.3,1.7-6.4c2.1-4.3,5.9-6.4,11.2-6.4h180.3l2,0.2
			c1.6,0.2,3.1,0.7,4.4,1.4c4.3,2.1,6.4,5.9,6.4,11.2V223.9L298.4,223.9z"/>
		<g>
			<g>
				<path class="st3" d="M117.3,157.1v-43.6h16.4c3.4,0,6,0.5,8,1.3c2,0.9,3.6,2.2,4.7,4.1c1.1,1.8,1.7,3.7,1.7,5.8
					c0,1.8-0.5,3.7-1.5,5.3c-1,1.7-2.5,3-4.6,4c2.7,0.8,4.7,2.1,6.1,4c1.4,1.8,2.1,4,2.1,6.6c0,2.1-0.5,4-1.3,5.7
					c-0.8,1.8-1.9,3.1-3.2,4c-1.3,1-2.9,1.7-4.8,2.1c-1.9,0.5-4.3,0.8-7,0.8L117.3,157.1L117.3,157.1z M123.1,131.8h9.5
					c2.6,0,4.4-0.2,5.5-0.5c1.4-0.5,2.6-1.1,3.4-2.2c0.8-1,1.1-2.3,1.1-3.8c0-1.4-0.4-2.7-1.1-3.8c-0.7-1.1-1.7-1.8-3-2.3
					c-1.3-0.4-3.5-0.6-6.6-0.6h-8.8V131.8z M123.1,152H134c1.8,0,3.2-0.1,4-0.2c1.3-0.2,2.4-0.6,3.4-1.2c0.9-0.5,1.6-1.4,2.2-2.4
					s0.8-2.3,0.8-3.7c0-1.6-0.4-3.1-1.2-4.3s-2-2.1-3.5-2.5c-1.4-0.5-3.6-0.8-6.4-0.8h-10.1V152z"/>
			</g>
		</g>
	</g>
	<g id="Bars_8_">
		<rect x="190.4" y="196.6" class="st1" width="8.8" height="45.8"/>
		<rect x="203.1" y="196.6" class="st1" width="5.2" height="45.8"/>
		<rect x="211.8" y="196.6" class="st1" width="5.2" height="45.8"/>
		<rect x="220.5" y="196.6" class="st1" width="3.4" height="45.8"/>
		<rect x="225.4" y="196.6" class="st1" width="4.9" height="45.8"/>
		<rect x="234.2" y="196.6" class="st1" width="3" height="45.8"/>
		<rect x="243.2" y="196.6" class="st1" width="5.1" height="45.8"/>
		<rect x="249.8" y="196.2" class="st1" width="2.5" height="45.8"/>
		<rect x="256.4" y="196.2" class="st1" width="5.5" height="45.8"/>
		<rect x="256.4" y="245.8" class="st1" width="5.5" height="5.1"/>
		<rect x="243.2" y="245.8" class="st1" width="9.3" height="5.1"/>
		<rect x="234.2" y="245.8" class="st1" width="4.7" height="5.1"/>
		<rect x="211.8" y="245.8" class="st1" width="5.2" height="5.1"/>
		<rect x="190.4" y="245.8" class="st1" width="5.2" height="5.1"/>
		<rect x="203.1" y="245.8" class="st1" width="5.2" height="5.1"/>
		<rect x="220.5" y="245.8" class="st1" width="9.6" height="5.1"/>
	</g>
</g>
<g>
	<path class="st4" d="M274.8,142c-19,0-34.5-15.5-34.5-34.5S255.8,73,274.8,73s34.5,15.5,34.5,34.5S293.9,142,274.8,142z"/>
	<path class="st5" d="M274.8,74.4c18.2,0,33,14.8,33,33s-14.8,33-33,33s-33-14.8-33-33S256.6,74.4,274.8,74.4 M274.8,71.4
		c-19.9,0-36,16.1-36,36s16.1,36,36,36s36-16.1,36-36S294.7,71.4,274.8,71.4L274.8,71.4z"/>
</g>
<g>
	<g>
		<polygon class="st6" points="212.9,47.1 231.2,48.2 229.8,65.2 222.6,70.2 215.4,66.7 		"/>
		<polygon class="st6" points="159.3,50.4 163.4,50.4 164.8,47.1 165.4,27.7 158.8,23.9 146.3,23.9 145.3,38.1 145.8,50 		"/>
		<polygon class="st6" points="92.1,52.9 92.1,49.2 66.5,49.2 66.5,74.3 77.5,74.8 92.1,74.8 		"/>
		<polygon class="st6" points="46.5,116.5 40.3,110.3 28.1,110.3 28.1,137.2 46.5,137.6 		"/>
		<polygon class="st6" points="51,191.1 44.9,185.6 28.7,185.3 27.2,187.1 27.2,208.7 50.5,209.1 		"/>
		<polygon class="st6" points="78.8,247.1 72.8,241.1 58.4,240.7 59,268 77.7,268 		"/>
	</g>
	<g>
		<g>
			<path class="st4" d="M210.8,45.1h22.5l-2.1,23.2l-9.2,3.1l-9.2-3.1L210.8,45.1z M228.8,52.6l0.3-2.8H215l0.7,8.5h9.8l-0.4,3.6
				l-3.1,0.8l-3.2-0.8l-0.2-2.2h-2.8l0.4,4.4l5.8,1.6h0.1l5.7-1.6l0.8-8.7h-10.3l-0.2-2.9L228.8,52.6L228.8,52.6z"/>
		</g>
		<g>
			<path class="st4" d="M165.4,27.7c0.6,0.5,0.8,1.2,0.8,2v19.5c0,0.8-0.3,1.4-0.8,2c-0.6,0.5-1.2,0.8-2,0.8h-16.9
				c-0.8,0-1.4-0.3-2-0.8s-0.8-1.2-0.8-2V24.8c0-0.8,0.3-1.4,0.8-2s1.2-0.8,2-0.8h11.9c0.8,0,1.4,0.3,2,0.8L165.4,27.7z M146.6,49.1
				h16.9V32.2h-6.1c-0.4,0-0.7-0.1-1-0.4c-0.3-0.3-0.4-0.6-0.4-1v-6.1h-9.4V49.1L146.6,49.1z M149.3,33.1c0.6-0.5,1.2-0.8,2-0.8
				s1.4,0.3,2,0.8s0.8,1.2,0.8,2s-0.3,1.5-0.8,2c-0.6,0.5-1.2,0.8-2,0.8s-1.4-0.3-2-0.8s-0.8-1.2-0.8-2S148.7,33.6,149.3,33.1z
				 M148.4,46.3v-3.8l2.3-2.3c0.3-0.3,0.6-0.3,0.9,0l2.3,2.3l5.2-5.2c0.3-0.3,0.6-0.3,0.9,0l1.4,1.4v7.5L148.4,46.3L148.4,46.3z
				 M163.2,29.4l-4.4-4.4v4.5C158.8,29.4,163.2,29.4,163.2,29.4z"/>
		</g>
		<g>
			<path class="st4" d="M48,117.1v19c0,0.8-0.3,1.4-0.8,1.9c-0.5,0.5-1.2,0.8-1.9,0.8H28.8c-0.8,0-1.4-0.3-1.9-0.8
				c-0.5-0.5-0.8-1.2-0.8-1.9v-23.8c0-0.8,0.3-1.4,0.8-1.9c0.5-0.5,1.2-0.8,1.9-0.8h11.7c0.8,0,1.4,0.3,1.9,0.8l4.8,4.8
				C47.8,115.7,48,116.3,48,117.1z M45.3,136.1v-16.5h-5.9c-0.4,0-0.7-0.1-1-0.4c-0.3-0.3-0.4-0.6-0.4-1v-5.9h-9.1v23.8H45.3z
				 M42.5,123.7v1.6c0,0.5-0.2,0.7-0.7,0.7h-9.6c-0.5,0-0.7-0.2-0.7-0.7v-1.6c0-0.5,0.2-0.7,0.7-0.7h9.6
				C42.3,123,42.5,123.3,42.5,123.7z M41.9,127.8c0.5,0,0.7,0.2,0.7,0.7v1.6c0,0.5-0.2,0.7-0.7,0.7h-9.6c-0.5,0-0.7-0.2-0.7-0.7
				v-1.6c0-0.5,0.2-0.7,0.7-0.7H41.9z M40.7,112.5v4.3h4.3L40.7,112.5z"/>
		</g>
		<g>
			<path class="st4" d="M66.5,60.2v-11h11v11H66.5z M66.5,74.8v-11h11v11H66.5z M70.1,52.9v3.7h3.7v-3.7H70.1z M70.1,67.5v3.7h3.7
				v-3.7H70.1z M81.1,49.2h11v11h-11V49.2z M90.3,63.9h1.8v7.3h-5.5v-1.8h-1.8v5.5h-3.7v-11h5.5v1.8h3.7V63.9z M88.4,56.5v-3.7h-3.7
				v3.7H88.4z M86.6,73h1.8v1.8h-1.8V73z M90.3,73h1.8v1.8h-1.8V73z"/>
		</g>
		<g>
			<path class="st4" d="M51.2,190.1c0.5,0.6,0.8,1.2,0.8,2v15.7c0,0.8-0.3,1.4-0.8,2s-1.2,0.8-2,0.8H28.6c-0.8,0-1.5-0.3-2-0.8
				c-0.5-0.6-0.8-1.2-0.8-2v-20.6c0-0.8,0.3-1.4,0.8-2s1.2-0.8,2-0.8h15.7c0.8,0,1.4,0.3,2,0.8L51.2,190.1z M48.9,207.8
				c0.2,0,0.3-0.1,0.3-0.4v-15.2c0-0.1,0-0.2-0.1-0.2l-4.6-4.6v5.9c0,0.4-0.1,0.7-0.4,1c-0.3,0.3-0.6,0.4-1,0.4H32.8
				c-0.4,0-0.7-0.1-1-0.4c-0.3-0.3-0.4-0.6-0.4-1v-6.1H29c-0.2,0-0.4,0.1-0.4,0.4v19.9c0,0.2,0.1,0.4,0.4,0.4L48.9,207.8L48.9,207.8
				z M35.3,197.6c1-1,2.2-1.5,3.6-1.5s2.6,0.5,3.6,1.5s1.5,2.2,1.5,3.6s-0.5,2.6-1.5,3.6s-2.2,1.5-3.6,1.5s-2.6-0.5-3.6-1.5
				s-1.5-2.2-1.5-3.6S34.3,198.6,35.3,197.6z M41.8,187.1h-7.5v4.7h7.5V187.1z M37.3,202.9c0.5,0.4,1,0.7,1.7,0.7s1.2-0.2,1.7-0.7
				c0.5-0.4,0.7-1,0.7-1.7s-0.2-1.2-0.7-1.7c-0.5-0.4-1-0.7-1.7-0.7s-1.2,0.2-1.7,0.7c-0.5,0.4-0.7,1-0.7,1.7S36.8,202.4,37.3,202.9
				z"/>
		</g>
		<g>
			<path class="st4" d="M79.3,245.6c0.6,0.6,0.8,1.2,0.8,2V267c0,0.8-0.3,1.4-0.8,2s-1.2,0.8-2,0.8H60.4c-0.8,0-1.5-0.3-2-0.8
				s-0.8-1.2-0.8-2v-24.4c0-0.8,0.3-1.4,0.8-2s1.2-0.8,2-0.8h12c0.8,0,1.4,0.3,2,0.8L79.3,245.6z M77.3,267v-16.9h-6.1
				c-0.4,0-0.7-0.1-1-0.4c-0.3-0.3-0.4-0.6-0.4-1v-6.1h-9.4V267H77.3z M66.4,260.3c0.2,0.2,0.2,0.5,0,0.8l-1,1
				c-0.1,0.1-0.2,0.2-0.4,0.2c-0.1,0-0.2-0.1-0.3-0.2l-3.3-3.2c-0.3-0.2-0.3-0.5,0-0.7l3.3-3.2c0.3-0.3,0.5-0.3,0.8,0l1,1v0.1
				c0.2,0.2,0.2,0.5,0,0.7l-1.9,1.7L66.4,260.3z M69.9,252.4l1.4,0.4c0.3,0.1,0.5,0.3,0.3,0.6l-3.2,11c-0.1,0.4-0.3,0.5-0.6,0.4
				l-1.4-0.4c-0.3-0.1-0.5-0.3-0.3-0.6l3.2-11C69.4,252.4,69.6,252.3,69.9,252.4z M71.3,256.9c-0.2-0.2-0.2-0.5,0-0.8l1-1.1
				c0.2-0.3,0.5-0.3,0.8,0l3.3,3.2c0.3,0.2,0.3,0.5,0,0.7l-3.3,3.2c-0.3,0.3-0.5,0.3-0.8,0l-1-1V261c-0.2-0.2-0.2-0.5,0-0.7l1.9-1.7
				L71.3,256.9z M72.6,242.9v4.4H77L72.6,242.9z"/>
		</g>
	</g>
</g>
<g>
	<g>
		<g>
			<circle class="st7" cx="923.5" cy="-48.5" r="8.1"/>
		</g>
	</g>
</g>
<g>
	
		<linearGradient id="SVGID_1_" gradientUnits="userSpaceOnUse" x1="-61.3043" y1="-66.4561" x2="-61.1962" y2="-66.3489" gradientTransform="matrix(189.3834 0 0 189.8058 11868.2998 12704.0479)">
		<stop  offset="0" style="stop-color:#387EB8"/>
		<stop  offset="1" style="stop-color:#366994"/>
	</linearGradient>
	<path class="st8" d="M275,86.5c-10.5,0-9.9,4.6-9.9,4.6l0,4.7h10v1.4h-14c0,0-6.7-0.8-6.7,9.8s5.9,10.2,5.9,10.2h3.5v-4.9
		c0,0-0.2-5.9,5.8-5.9h10c0,0,5.6,0.1,5.6-5.4V92C285.1,92,285.9,86.5,275,86.5L275,86.5L275,86.5z M269.4,89.7c1,0,1.8,0.8,1.8,1.8
		s-0.8,1.8-1.8,1.8s-1.8-0.8-1.8-1.8S268.4,89.7,269.4,89.7L269.4,89.7L269.4,89.7z"/>
	
		<linearGradient id="SVGID_2_" gradientUnits="userSpaceOnUse" x1="-61.5863" y1="-66.7259" x2="-61.4702" y2="-66.616" gradientTransform="matrix(189.3834 0 0 189.8058 11934.3008 12768.3057)">
		<stop  offset="0" style="stop-color:#FFE052"/>
		<stop  offset="1" style="stop-color:#FFC331"/>
	</linearGradient>
	<path class="st9" d="M275.2,127.7c10.5,0,9.9-4.6,9.9-4.6l0-4.7h-10V117h14c0,0,6.7,0.8,6.7-9.8c0-10.6-5.9-10.2-5.9-10.2h-3.5v4.9
		c0,0,0.2,5.9-5.8,5.9h-10c0,0-5.6-0.1-5.6,5.4v9.1C265.1,122.2,264.3,127.7,275.2,127.7L275.2,127.7L275.2,127.7z M280.8,124.5
		c-1,0-1.8-0.8-1.8-1.8c0-1,0.8-1.8,1.8-1.8s1.8,0.8,1.8,1.8C282.6,123.7,281.8,124.5,280.8,124.5L280.8,124.5L280.8,124.5z"/>
</g>
</svg>
