<svg version="1.1" id="Aspose.Diagram_for_Python_via_Java" xmlns="http://www.w3.org/2000/svg" x="0" y="0" viewBox="0 0 272 272" style="enable-background:new 0 0 272 272" xml:space="preserve"><style>.st0{fill:#fff}.st1{fill-rule:evenodd;clip-rule:evenodd;fill:#ffcc49}</style><g id="Python_via_Java"><g id="Python"><path class="st0" d="M208.6 239.1c-26.6 31.5-111.2 26-111.2 26H6.3V48.3h219.4v106.2s1 63-17.1 84.6z"/><path class="st1" d="M72.3 191.7c0-21.9 7.7-40.6 23.1-56 15.3-15.4 34-23.1 56-23.1 21.7 0 40.3 7.7 55.9 23.1 15.5 15.4 23.3 34.1 23.3 56 0 21.8-7.8 40.5-23.3 55.9-15.5 15.5-34.1 23.3-55.9 23.3-22 0-40.7-7.8-56-23.3-15.4-15.4-23.1-34.1-23.1-55.9"/><path class="st1" d="M230.5 191.7h-9.3V58.2c0-3.4-1.2-5.7-3.7-6.9-.8-.4-1.8-.7-3-1l-1.4-.2H17.8c-3.5 0-5.8 1.2-6.9 3.6-.7 1.4-1.1 2.9-1.1 4.4v195.3c0 3.4 1.2 5.7 3.6 6.8 1.4.7 2.9 1.1 4.4 1.2h129.6l4.1 9.3H14.9c-2.4 0-4.8-.6-7.2-1.8-4.8-2.4-7.2-6.6-7.2-12.6V55.4c0-2.4.6-4.8 1.8-7.2C4.8 43.4 9 41 14.9 41h201.2l2.2.2c1.8.3 3.5.8 5 1.6 4.8 2.4 7.2 6.6 7.2 12.5v136.4z"/><path d="M70.6 91.8c0 8.2-2.3 14.5-6.9 18.9-4.6 4.4-11.1 6.5-19.7 6.5H30.1V67.4h15.4c7.9 0 14.1 2.1 18.5 6.4 4.4 4.3 6.6 10.3 6.6 18zm-8.6.3c0-11.9-5.6-17.9-16.7-17.9h-7.1v36.2H44c12 0 18-6.1 18-18.3z" style="fill:#ffcc49"/><g id="Shape_1_"><path d="M110.7 204.8c0-5.6.3-11.1-.1-16.6-.4-6 4.5-11.2 11.1-10.9 6.7.3 13.4.1 20.1.1h2.2v-10.5c-.4-.1-.8-.3-1.2-.3-2.8-.2-4.4-1.9-4.4-4.7v-12.4c0-3.6 1.8-5.6 5.3-5.7 4.2-.1 8.4-.1 12.6 0 3.1.1 4.9 1.9 4.9 5 .1 3.8.1 7.6 0 11.4-.2 5.2-.5 5.6-5.5 6.6v10.5h11.7c4.7.1 9.3-.1 14 .4 4.4.5 7.7 4.8 7.7 9.2V205c.8.1 1.4.1 2 .3 2.1.4 3.3 1.9 3.4 4.1 0 4.6.1 9.2.1 13.8 0 3.2-1.4 4.8-4.6 4.9-4.5.1-9 .1-13.5 0-2.8-.1-4.4-1.9-4.4-4.9 0-3.9.2-7.8-.1-11.7-.3-4.3 1.4-6 5.6-6.5v-15.9h-21.7v15.8c5.2 1.5 5.5 2 5.5 7.5v10.5c0 3.7-1.6 5.2-5.3 5.2H144c-3.6 0-5.4-1.9-5.4-5.5v-10.7c0-4.8.9-5.9 5.7-7V189h-21.8v15.8c5 1.2 5.5 1.9 5.5 7.2v10.7c0 3.5-1.7 5.2-5.1 5.2-4.1.1-8.3.1-12.4 0-3.8 0-5.3-1.7-5.3-5.5v-10.7c-.2-4.7.6-5.7 5.5-6.9zm33.8 17.2h10.8v-10.6h-10.8V222zm.1-61.7h10.7v-10.4h-10.7v10.4zm-33.3 51.1v10.5h10.5v-10.5h-10.5zm77.2 0h-10.3v10.5h10.3v-10.5z" style="fill-rule:evenodd;clip-rule:evenodd;fill:#f9f8f6"/><path class="st1" d="M144.5 222v-10.6h10.8V222h-10.8zM144.6 160.3v-10.4h10.7v10.4h-10.7zM111.3 211.4h10.5v10.5h-10.5v-10.5zM188.5 211.4v10.5h-10.3v-10.5h10.3z"/></g></g><circle cx="216.4" cy="56" r="55" style="fill:#dd4443"/><path class="st0" d="M205.8 73.6s-3.1 1.8 2.2 2.4c6.4.7 9.7.6 16.8-.7 0 0 1.8 1.1 4.5 2.2-15.9 6.8-36.1-.4-23.5-3.9m-1.9-8.9s-3.5 2.6 1.8 3.1c6.8.7 12.3.8 21.6-1 0 0 1.3 1.3 3.4 2-19.2 5.7-40.5.5-26.8-4.1m16.3-14.9c3.9 4.5-1 8.5-1 8.5s9.9-5.1 5.4-11.5c-4.2-6-7.5-8.9 10.1-19.2-.1 0-27.8 6.9-14.5 22.2"/><path class="st0" d="M241.1 80.2s2.2 1.9-2.5 3.4c-9.2 2.8-38 3.6-46 .1-2.8-1.3 2.5-3 4.2-3.4 1.8-.3 2.8-.3 2.8-.3-3.2-2.2-20.7 4.4-8.9 6.4 32.2 5.1 58.8-2.5 50.4-6.2m-33.9-24.6s-14.7 3.5-5.2 4.7c4 .5 12 .4 19.4-.2 6-.5 12.2-1.6 12.2-1.6s-2.2.9-3.7 2c-14.9 3.9-43.8 2.1-35.5-1.9 7.1-3.4 12.8-3 12.8-3m26.5 14.8c15.2-7.9 8.1-15.5 3.3-14.4-1.2.3-1.7.4-1.7.4s.4-.7 1.3-1c9.7-3.4 17.1 10-3.1 15.4-.3-.1.1-.3.2-.4m-9.2-59.3s8.4 8.4-7.9 21.3c-13.1 10.4-3 16.2 0 23.1-7.7-6.9-13.3-13-9.5-18.6 5.4-8.4 20.8-12.5 17.4-25.8"/><path class="st0" d="M208.8 91.7c14.6.9 37-.5 37.5-7.4 0 0-1 2.6-12 4.7-12.4 2.3-27.7 2.1-36.9.6-.2-.1 1.8 1.5 11.4 2.1"/></g></svg>