<svg version="1.1" id="Aspose.Diagram_for_Node.js_via_Java" xmlns="http://www.w3.org/2000/svg" x="0" y="0" viewBox="0 0 272 272" style="enable-background:new 0 0 272 272" xml:space="preserve"><style>.st0{fill:#fff}.st1{fill-rule:evenodd;clip-rule:evenodd;fill:#68a165}</style><g id="Node.js_via_Java"><g id="NodeJs"><path class="st0" d="M208.5 239.1c-26.6 31.5-111.2 26-111.2 26H6.2V48.2h219.5v106.2s1 63.1-17.2 84.7z"/><path class="st1" d="M72.2 191.6c0-22 7.7-40.6 23.1-56 15.3-15.4 34-23.1 56-23.1 21.7 0 40.4 7.7 55.9 23.1s23.2 34.1 23.2 56-7.7 40.4-23.2 55.9-34.1 23.2-55.9 23.2c-22.1 0-40.7-7.7-56-23.2-15.4-15.3-23.1-34-23.1-55.9"/><path class="st1" d="M230.6 191.6h-9.3V58.1c0-3.4-1.2-5.7-3.7-6.9-.9-.4-1.9-.8-3-.9l-1.4-.2H17.8c-3.5 0-5.8 1.2-6.9 3.6-.7 1.4-1.1 2.9-1.1 4.4v195.4c0 3.4 1.2 5.7 3.6 6.8 1.4.7 2.8 1.1 4.4 1.2h129.6l4.1 9.3H14.9c-2.4 0-4.8-.6-7.2-1.8-4.8-2.4-7.2-6.6-7.2-12.6V55.3c0-2.4.6-4.8 1.9-7.2C4.8 43.4 9 41 14.9 41h201.3l2.2.3c1.8.3 3.5.8 4.9 1.6 4.8 2.4 7.2 6.6 7.2 12.5l.1 136.2z"/><path d="M70.5 91.7c0 8.3-2.3 14.6-6.8 18.9-4.6 4.3-11.2 6.6-19.8 6.6H30V67.3h15.4c7.9 0 14.1 2.1 18.5 6.4 4.4 4.2 6.6 10.3 6.6 18zm-8.6.3c0-11.9-5.6-17.9-16.8-17.9H38v36.2h5.8c12.2 0 18.1-6.1 18.1-18.3z" style="fill:#68a165"/><g id="Shape_2_"><path d="M110.7 204.8c0-5.6.3-11.2-.1-16.6-.4-6 4.5-11.2 11.2-11 6.7.3 13.4.1 20.1.1h2.2v-10.5c-.3-.1-.8-.3-1.3-.3-2.8-.3-4.4-1.9-4.4-4.7-.1-4.1 0-8.3 0-12.3 0-3.6 1.8-5.6 5.3-5.7 4.2-.1 8.3-.1 12.6 0 3.2.1 4.9 1.9 4.9 5 .1 3.8.1 7.6 0 11.4-.2 5.3-.5 5.6-5.5 6.6v10.5h11.7c4.7.1 9.4-.1 14 .4 4.3.4 7.7 4.8 7.7 9.2V205c.8.1 1.4.2 2 .3 2.1.4 3.3 1.9 3.3 4.1 0 4.6.1 9.2.1 13.8 0 3.2-1.4 4.9-4.6 4.9-4.5.1-9 .1-13.5 0-2.8-.1-4.4-2-4.4-4.9 0-3.9.2-7.8-.1-11.7-.3-4.3 1.4-6 5.5-6.6V189h-21.7v15.8c5.2 1.5 5.5 2 5.4 7.5v10.5c0 3.7-1.6 5.2-5.3 5.3h-12.1c-3.6 0-5.4-1.9-5.4-5.4V212c0-4.9.9-6 5.7-7v-15.8h-21.8V205c4.9 1.2 5.5 2 5.5 7.2v10.7c0 3.5-1.7 5.2-5.1 5.2-4.1.1-8.3.1-12.3 0-3.7 0-5.3-1.7-5.4-5.5v-10.7c0-5 .9-6 5.8-7.1zm33.8 17.1h10.8v-10.6h-10.8v10.6zm0-61.7h10.7v-10.4h-10.7v10.4zm-33.3 51.1v10.6h10.5v-10.6h-10.5zm77.3.1h-10.3v10.5h10.3v-10.5z" style="fill-rule:evenodd;clip-rule:evenodd;fill:#fcfcfb"/></g></g><circle cx="216.4" cy="56" r="55" style="fill:#dd4443"/><path class="st0" d="M205.8 73.6s-3.1 1.8 2.2 2.4c6.4.7 9.7.6 16.8-.7 0 0 1.8 1.1 4.5 2.2-15.9 6.8-36.1-.4-23.5-3.9m-1.9-8.9s-3.5 2.6 1.8 3.1c6.8.7 12.3.8 21.6-1 0 0 1.3 1.3 3.4 2-19.2 5.7-40.5.5-26.8-4.1m16.3-14.9c3.9 4.5-1 8.5-1 8.5s9.9-5.1 5.4-11.5c-4.2-6-7.5-8.9 10.1-19.2-.1 0-27.8 6.9-14.5 22.2"/><path class="st0" d="M241.1 80.2s2.2 1.9-2.5 3.4c-9.2 2.8-38 3.6-46 .1-2.8-1.3 2.5-3 4.2-3.4 1.8-.3 2.8-.3 2.8-.3-3.2-2.2-20.7 4.4-8.9 6.4 32.2 5.1 58.8-2.5 50.4-6.2m-33.9-24.6s-14.7 3.5-5.2 4.7c4 .5 12 .4 19.4-.2 6-.5 12.2-1.6 12.2-1.6s-2.2.9-3.7 2c-14.9 3.9-43.8 2.1-35.5-1.9 7.1-3.4 12.8-3 12.8-3m26.5 14.8c15.2-7.9 8.1-15.5 3.3-14.4-1.2.3-1.7.4-1.7.4s.4-.7 1.3-1c9.7-3.4 17.1 10-3.1 15.4-.3-.1.1-.3.2-.4m-9.2-59.3s8.4 8.4-7.9 21.3c-13.1 10.4-3 16.2 0 23.1-7.7-6.9-13.3-13-9.5-18.6 5.4-8.4 20.8-12.5 17.4-25.8"/><path class="st0" d="M208.8 91.7c14.6.9 37-.5 37.5-7.4 0 0-1 2.6-12 4.7-12.4 2.3-27.7 2.1-36.9.6-.2-.1 1.8 1.5 11.4 2.1"/></g></svg>