<?xml version="1.0" encoding="utf-8"?>
<!-- Generator: Adobe Illustrator 25.0.1, SVG Export Plug-In . SVG Version: 6.00 Build 0)  -->
<svg xmlns="http://www.w3.org/2000/svg" xmlns:xlink="http://www.w3.org/1999/xlink" version="1.1" id="Layer_1" x="0px" y="0px" viewBox="0 0 335 283" style="enable-background:new 0 0 335 283;" xml:space="preserve">
<style type="text/css">
	.st0{fill:#EEEEEE;}
	
		.st1{fill:none;stroke:#EEEEEE;stroke-width:3;stroke-linecap:round;stroke-linejoin:round;stroke-miterlimit:10;stroke-dasharray:6,8;}
	.st2{fill:none;stroke:#EEEEEE;stroke-width:3;stroke-linecap:round;stroke-linejoin:round;}
	.st3{fill:none;stroke:#EEEEEE;stroke-width:3;stroke-linecap:round;stroke-linejoin:round;stroke-dasharray:6.5303,8.7071;}
	.st4{fill:none;stroke:#EEEEEE;stroke-width:3;stroke-linecap:round;stroke-linejoin:round;stroke-dasharray:5.6936,7.5915;}
	.st5{fill:#68217A;}
	.st6{fill:#DE4444;}
	.st7{fill:#FFFFFF;}
	.st8{fill:#004482;}
	.st9{fill:none;stroke:#575756;stroke-width:10;stroke-miterlimit:10;}
	.st10{fill:#575756;}
	.st11{fill:#3F99D4;}
</style>
<g id="Aspose.OCR">
	<polygon class="st0" points="146.32,269.36 33.37,261.36 33.37,114.79 146.32,114.79  "/>
	<polygon class="st0" points="152.32,269.36 220.91,261.36 220.91,114.79 152.32,114.79  "/>
	<g id="lines_10_">
		<polyline class="st1" points="234.79,61.9 234.79,96.61 169.57,96.61 169.57,110.38   "/>
		<polyline class="st1" points="293.44,137.25 242.74,137.25 242.74,180.36 218.77,180.36   "/>
		<g>
			<g>
				<line class="st2" x1="102.51" y1="54.18" x2="99.51" y2="54.18"/>
				<line class="st3" x1="90.8" y1="54.18" x2="64.68" y2="54.18"/>
				<polyline class="st2" points="60.32,54.18 57.32,54.18 57.32,57.18     "/>
				<line class="st4" x1="57.32" y1="64.77" x2="57.32" y2="100.83"/>
				<line class="st2" x1="57.32" y1="104.63" x2="57.32" y2="107.63"/>
			</g>
		</g>
	</g>
	<g id="circles_10_">
		<circle class="st5" cx="117.49" cy="55.08" r="33.61"/>
		<circle class="st6" cx="234.79" cy="35.32" r="33.61"/>
		<g id="java_10_">
			<path id="XMLID_89_" class="st7" d="M234.65,19.67c-1.81,1.27-3.86,2.72-4.96,5.11c-1.91,4.17,3.91,8.71,4.16,8.91     c0.06,0.04,0.13,0.07,0.2,0.07c0.07,0,0.15-0.03,0.21-0.07c0.12-0.1,0.15-0.26,0.08-0.39c-0.02-0.04-2.11-4.1-2.03-7.01     c0.03-1.01,1.45-2.16,2.95-3.38c1.38-1.12,2.94-2.38,3.85-3.86c2-3.26-0.22-6.46-0.25-6.49c-0.09-0.12-0.25-0.17-0.39-0.11     s-0.22,0.21-0.18,0.36c0,0.02,0.44,2.14-0.77,4.32C237,18.02,235.91,18.78,234.65,19.67z"/>
			<path id="XMLID_88_" class="st7" d="M242.28,21.11c0.13-0.1,0.17-0.27,0.09-0.41s-0.25-0.2-0.4-0.15     c-0.31,0.12-7.54,2.9-7.54,6.27c0,2.32,0.99,3.55,1.71,4.44c0.28,0.35,0.53,0.65,0.61,0.91c0.23,0.75-0.31,2.09-0.54,2.55     c-0.07,0.13-0.03,0.29,0.08,0.39c0.06,0.05,0.13,0.08,0.21,0.08c0.06,0,0.13-0.02,0.18-0.06c0.12-0.09,3.04-2.15,2.51-4.63     c-0.19-0.94-0.66-1.63-1.07-2.24c-0.63-0.94-1.09-1.62-0.4-2.88C238.56,23.92,242.25,21.14,242.28,21.11z"/>
			<path id="XMLID_87_" class="st7" d="M223.47,35.24c-0.12,0.37-0.07,0.74,0.17,1.06c0.78,1.09,3.56,1.69,7.81,1.69l0,0     c0.58,0,1.19-0.01,1.81-0.03c6.8-0.24,9.33-2.36,9.43-2.45c0.11-0.1,0.14-0.26,0.07-0.39c-0.07-0.13-0.22-0.2-0.37-0.16     c-2.4,0.65-6.87,0.89-9.98,0.89c-3.47,0-5.24-0.25-5.67-0.43c0.22-0.31,1.59-0.85,3.29-1.18c0.16-0.03,0.27-0.18,0.26-0.35     c-0.02-0.16-0.15-0.29-0.32-0.29C228.98,33.58,223.99,33.66,223.47,35.24z"/>
			<path id="XMLID_86_" class="st7" d="M246.24,33.06c-1.4,0-2.73,0.7-2.79,0.73c-0.13,0.07-0.2,0.22-0.16,0.36s0.16,0.24,0.31,0.24     c0.03,0,2.99,0.02,3.26,1.72c0.24,1.46-2.8,3.83-4,4.62c-0.13,0.09-0.18,0.25-0.12,0.39c0.05,0.12,0.17,0.2,0.3,0.2     c0.02,0,0.04,0,0.07-0.01c0.28-0.06,6.92-1.52,6.22-5.39C248.9,33.56,247.41,33.06,246.24,33.06z"/>
			<path id="XMLID_85_" class="st7" d="M241.69,40.26c0.02-0.12-0.03-0.25-0.13-0.32l-1.59-1.11c-0.08-0.05-0.18-0.07-0.27-0.05     c-0.02,0-1.68,0.44-4.1,0.71c-0.96,0.11-2.03,0.16-3.11,0.16c-2.42,0-4-0.28-4.23-0.49c-0.03-0.06-0.02-0.09-0.02-0.1     c0.04-0.12,0.27-0.25,0.41-0.31c0.16-0.06,0.25-0.23,0.2-0.39s-0.22-0.26-0.38-0.22c-1.6,0.39-2.38,0.92-2.32,1.6     c0.1,1.2,2.88,1.82,5.23,1.98c0.34,0.02,0.7,0.03,1.09,0.03l0,0c3.91,0,8.92-1.23,8.97-1.24     C241.57,40.48,241.66,40.38,241.69,40.26z"/>
			<path id="XMLID_84_" class="st7" d="M229.68,42.84c0.12-0.08,0.17-0.23,0.13-0.36c-0.04-0.14-0.17-0.23-0.32-0.23     c-0.21,0.01-2.09,0.09-2.23,1.29c-0.04,0.36,0.06,0.68,0.3,0.97c0.68,0.8,2.5,1.28,5.57,1.45c0.36,0.02,0.73,0.03,1.1,0.03     c3.91,0,6.54-1.22,6.65-1.27s0.18-0.16,0.18-0.27c0.01-0.12-0.05-0.23-0.15-0.29l-2.01-1.23c-0.07-0.04-0.15-0.06-0.23-0.04     c-0.01,0-1.29,0.27-3.22,0.53c-0.36,0.05-0.82,0.07-1.36,0.07c-1.93,0-4.07-0.31-4.48-0.52     C229.62,42.93,229.63,42.88,229.68,42.84z"/>
			<path id="XMLID_83_" class="st7" d="M232.43,49.68c8.95-0.01,13.75-1.6,14.67-2.6c0.33-0.35,0.36-0.69,0.33-0.91     c-0.07-0.54-0.56-0.87-0.62-0.9c-0.13-0.09-0.31-0.06-0.42,0.06c-0.1,0.12-0.11,0.3,0,0.42c0.06,0.07,0.09,0.19-0.08,0.36     c-0.37,0.35-4.1,1.39-10.31,1.71c-0.85,0.04-1.74,0.07-2.65,0.07c-5.56,0-9.63-0.76-10.16-1.21c0.21-0.3,1.65-0.77,3.18-1.04     c0.17-0.03,0.29-0.19,0.26-0.37s-0.19-0.29-0.36-0.27c-0.04,0.01-0.19,0.01-0.36,0.03c-2.53,0.15-5.44,0.5-5.6,1.8     c-0.05,0.4,0.07,0.76,0.35,1.07C221.35,48.66,223.31,49.68,232.43,49.68L232.43,49.68z"/>
			<path id="XMLID_82_" class="st7" d="M248.86,47.37c-0.13-0.06-0.28-0.03-0.37,0.07c-0.01,0.01-1.36,1.42-5.4,2.25     c-1.55,0.31-4.45,0.47-8.64,0.47s-8.18-0.16-8.22-0.17c-0.17-0.01-0.31,0.11-0.33,0.28c-0.02,0.16,0.08,0.32,0.24,0.36     c0.04,0.01,4.22,0.99,9.94,0.99c2.74,0,5.41-0.22,7.93-0.66c4.7-0.82,5.03-3.15,5.04-3.25     C249.06,47.56,248.98,47.42,248.86,47.37z"/>
		</g>
		<path id="NET_10_" class="st7" d="M126.76,52.05h4.7v14.57h1.91V52.05h4.7v-1.73h-11.31V52.05z M118.23,59.2h5.89v-1.73h-5.89    v-5.42h6.36v-1.73h-8.27v16.3h8.64v-1.73h-6.72L118.23,59.2L118.23,59.2z M110.81,61.81l0.11,2.4h-0.05    c-0.11-0.22-0.34-0.58-0.66-1.09l-8.16-12.79h-2.48v16.3h1.91V54.85l-0.09-2.24h0.07c0.14,0.37,0.31,0.71,0.51,1.02l8.41,12.99    h2.32v-16.3h-1.9L110.81,61.81L110.81,61.81z M95.52,64.32c-0.35,0-0.64,0.12-0.89,0.38c-0.24,0.25-0.36,0.55-0.36,0.91    c0,0.34,0.13,0.66,0.36,0.9c0.24,0.25,0.54,0.38,0.89,0.38c0.36,0,0.66-0.13,0.91-0.38s0.38-0.56,0.38-0.91s-0.13-0.65-0.38-0.91    c-0.24-0.25-0.57-0.39-0.91-0.38 M133.39,47.06c0,0.87,0.39,1.31,1.16,1.31c0.28,0,0.5-0.05,0.67-0.14v-0.61    c-0.13,0.1-0.3,0.15-0.46,0.14c-0.24,0-0.4-0.06-0.51-0.19c-0.1-0.12-0.15-0.34-0.15-0.63v-2.5h1.12v-0.6h-1.11v-1.31l-0.71,0.23    v1.08h-0.76v0.6h0.76v2.63L133.39,47.06z M130.49,48.27h0.71v-3.83h1.04v-0.6h-1.04v-0.68c0-0.63,0.25-0.94,0.74-0.94    c0.16,0,0.33,0.04,0.47,0.12V41.7c-0.13-0.06-0.3-0.08-0.52-0.08c-0.38,0-0.7,0.11-0.96,0.36c-0.3,0.28-0.45,0.66-0.45,1.15v0.72    h-0.75v0.6h0.75v3.84L130.49,48.27z M125.64,46.07c0-0.57,0.14-1,0.42-1.31c0.27-0.29,0.62-0.43,1.06-0.43    c0.45,0,0.8,0.14,1.05,0.43c0.26,0.3,0.39,0.73,0.39,1.3c0,0.54-0.11,0.97-0.36,1.26c-0.24,0.3-0.6,0.45-1.07,0.45    c-0.45,0-0.81-0.15-1.08-0.45C125.77,47.02,125.64,46.6,125.64,46.07 M128.68,47.73c0.4-0.43,0.6-0.99,0.6-1.7    c0-0.72-0.19-1.28-0.56-1.7c-0.37-0.41-0.89-0.61-1.55-0.61c-0.67,0-1.21,0.2-1.61,0.59c-0.43,0.42-0.65,1.02-0.65,1.79    c0,0.68,0.19,1.22,0.57,1.63c0.39,0.43,0.92,0.64,1.59,0.64C127.75,48.37,128.29,48.16,128.68,47.73 M123.8,47.98    c0.27-0.22,0.42-0.56,0.41-0.9c0-0.33-0.11-0.6-0.33-0.81c-0.17-0.17-0.44-0.33-0.82-0.49c-0.34-0.14-0.56-0.27-0.67-0.37    c-0.12-0.11-0.18-0.26-0.18-0.46c0-0.18,0.07-0.33,0.21-0.45s0.33-0.17,0.57-0.17c0.38,0,0.71,0.11,1.01,0.32v-0.72    c-0.28-0.14-0.6-0.21-0.95-0.21c-0.45,0-0.84,0.12-1.13,0.37s-0.44,0.55-0.44,0.92c0,0.33,0.09,0.6,0.28,0.8    c0.16,0.17,0.42,0.34,0.79,0.5c0.36,0.16,0.6,0.29,0.73,0.41s0.19,0.26,0.19,0.43c0,0.41-0.28,0.62-0.85,0.62    c-0.42,0-0.81-0.14-1.15-0.43v0.76c0.31,0.18,0.68,0.27,1.1,0.27C123.09,48.37,123.5,48.24,123.8,47.98 M117.46,44.76    c0.26-0.29,0.63-0.43,1.06-0.43c0.45,0,0.8,0.14,1.05,0.43c0.26,0.3,0.38,0.73,0.38,1.3c0,0.54-0.11,0.97-0.36,1.26    c-0.24,0.3-0.6,0.45-1.07,0.45c-0.45,0-0.81-0.15-1.08-0.45s-0.4-0.71-0.4-1.25C117.05,45.5,117.19,45.06,117.46,44.76     M118.48,48.37c0.68,0,1.21-0.21,1.61-0.64s0.6-0.99,0.6-1.7c0-0.72-0.19-1.28-0.56-1.7c-0.37-0.41-0.89-0.61-1.55-0.61    c-0.67,0-1.21,0.2-1.61,0.59c-0.43,0.42-0.65,1.02-0.65,1.79c0,0.68,0.19,1.22,0.57,1.63C117.28,48.15,117.81,48.37,118.48,48.37     M114.9,43.99c-0.22,0.17-0.38,0.43-0.48,0.75h-0.02v-0.92h-0.71v4.44h0.71v-2.25c0-0.52,0.11-0.92,0.33-1.21    c0.2-0.26,0.44-0.39,0.73-0.39c0.24,0,0.42,0.05,0.54,0.14v-0.74c-0.1-0.04-0.24-0.06-0.43-0.06    C115.33,43.76,115.1,43.84,114.9,43.99 M111.4,48.37c0.47,0,0.88-0.1,1.22-0.31v-0.67c-0.34,0.25-0.7,0.38-1.09,0.38    c-0.45,0-0.82-0.15-1.1-0.45c-0.27-0.3-0.41-0.71-0.41-1.23c0-0.54,0.15-0.97,0.45-1.29c0.28-0.31,0.65-0.47,1.1-0.47    c0.38,0,0.75,0.12,1.06,0.35v-0.73c-0.3-0.15-0.64-0.23-1.03-0.23c-0.7,0-1.27,0.22-1.68,0.67s-0.63,1.04-0.63,1.76    c0,0.65,0.19,1.18,0.57,1.59C110.25,48.17,110.77,48.38,111.4,48.37 M107.47,48.28h0.71v-4.44h-0.71V48.28L107.47,48.28z     M107.83,42.71c0.12,0,0.24-0.05,0.33-0.14c0.09-0.09,0.14-0.21,0.14-0.33c0-0.12-0.05-0.24-0.14-0.33s-0.21-0.13-0.33-0.13    c-0.13,0-0.24,0.04-0.33,0.13c-0.09,0.09-0.14,0.2-0.14,0.33c0,0.14,0.05,0.25,0.14,0.33C107.59,42.67,107.71,42.71,107.83,42.71     M100.29,44.11l-0.03-1.21h0.02c0.06,0.29,0.13,0.5,0.19,0.64l2.12,4.74h0.36l2.13-4.78c0.05-0.13,0.12-0.33,0.19-0.6h0.02    l-0.06,1.2v4.18h0.73v-6.22h-0.91l-1.95,4.31c-0.08,0.17-0.17,0.42-0.3,0.76h-0.03c-0.05-0.17-0.14-0.42-0.28-0.74l-1.91-4.34    h-0.96v6.22h0.7v-4.16H100.29z M137.65,44.83c-0.2,0.2-0.45,0.3-0.74,0.3c-0.29,0-0.54-0.1-0.74-0.3s-0.31-0.45-0.31-0.75    c0-0.29,0.1-0.54,0.3-0.74c0.2-0.2,0.45-0.3,0.75-0.3c0.28-0.01,0.54,0.1,0.74,0.3s0.31,0.47,0.3,0.75    C137.96,44.39,137.85,44.64,137.65,44.83 M136.92,42.92c-0.32-0.01-0.62,0.11-0.85,0.34c-0.22,0.22-0.35,0.52-0.34,0.84    c0,0.34,0.11,0.61,0.34,0.84s0.51,0.33,0.84,0.33c0.32,0.01,0.62-0.11,0.85-0.34c0.23-0.23,0.34-0.5,0.34-0.84    s-0.11-0.63-0.34-0.84C137.54,43.03,137.24,42.92,136.92,42.92 M136.89,44.01h-0.23V43.5h0.19c0.13,0,0.22,0.02,0.28,0.07    c0.05,0.04,0.07,0.1,0.07,0.19C137.2,43.93,137.1,44.01,136.89,44.01 M137.05,44.15L137.05,44.15c0.12-0.03,0.22-0.08,0.28-0.15    c0.07-0.07,0.1-0.17,0.1-0.26c0-0.11-0.04-0.21-0.12-0.28c-0.1-0.09-0.24-0.13-0.43-0.13h-0.42v1.5h0.21V44.2h0.14    c0.1,0,0.19,0.09,0.27,0.27l0.16,0.36h0.26l-0.2-0.4C137.22,44.26,137.13,44.17,137.05,44.15"/>
		
			<ellipse transform="matrix(0.1602 -0.9871 0.9871 0.1602 116.5766 411.9824)" class="st8" cx="300.4" cy="137.48" rx="33.61" ry="33.61"/>
		<g id="CPP_8_">
			<g>
				<path class="st7" d="M290.33,152.48c-2.83-1.5-5.05-3.6-6.67-6.28c-1.62-2.68-2.43-5.73-2.43-9.12c0-3.4,0.81-6.44,2.43-9.12      c1.62-2.68,3.84-4.78,6.67-6.28s6.02-2.26,9.58-2.26c3.11,0,5.9,0.55,8.39,1.65c2.49,1.1,4.56,2.69,6.21,4.75l-6.11,5.53      c-2.2-2.65-4.87-3.98-8.01-3.98c-1.84,0-3.49,0.4-4.92,1.21c-1.44,0.81-2.56,1.95-3.35,3.42s-1.19,3.16-1.19,5.07      s0.4,3.6,1.19,5.07s1.91,2.61,3.35,3.42s3.08,1.21,4.92,1.21c3.14,0,5.81-1.33,8.01-3.98l6.11,5.53      c-1.65,2.07-3.72,3.66-6.21,4.75c-2.49,1.1-5.29,1.65-8.39,1.65C296.35,154.73,293.16,153.98,290.33,152.48z"/>
			</g>
			<g>
				<path class="st7" d="M316.35,138.13h-2.36v2.31h-2.15v-2.31h-2.38v-2.04h2.38v-2.31h2.15v2.31h2.36V138.13z"/>
				<path class="st7" d="M324.98,138.13h-2.36v2.31h-2.15v-2.31h-2.38v-2.04h2.38v-2.31h2.15v2.31h2.36V138.13z"/>
			</g>
		</g>
	</g>
	<g id="OCR">
		<circle class="st9" cx="186.62" cy="187.47" r="24.5"/>
		<polygon class="st10" points="220.79,214.58 211.12,204.1 203.49,211.17 220.79,228.98   "/>
		<path class="st10" d="M190.1,183.38h-22.67c-2.06,0-3.73-1.67-3.73-3.73l0,0c0-2.06,1.67-3.73,3.73-3.73h22.67    c2.06,0,3.73,1.67,3.73,3.73l0,0C193.82,181.71,192.15,183.38,190.1,183.38z"/>
		<path class="st10" d="M197.96,196.27h-9.19c-2.06,0-3.73-1.67-3.73-3.73v0c0-2.06,1.67-3.73,3.73-3.73h9.19    c2.06,0,3.73,1.67,3.73,3.73v0C201.69,194.6,200.02,196.27,197.96,196.27z"/>
		<ellipse class="st10" cx="163.89" cy="223.05" rx="3.22" ry="2.65"/>
		<ellipse class="st10" cx="171.84" cy="223.05" rx="3.22" ry="2.65"/>
		<ellipse class="st10" cx="163.7" cy="230.06" rx="3.22" ry="2.65"/>
		<ellipse class="st10" cx="171.84" cy="230.06" rx="3.22" ry="2.65"/>
		<ellipse class="st10" cx="179.99" cy="230.06" rx="3.22" ry="2.65"/>
	</g>
	<g>
		<path class="st11" d="M120.93,192.49c0,10.81-2.65,19.03-7.95,24.65c-5.3,5.62-13.07,8.44-23.29,8.44    c-10.08,0-17.81-2.83-23.18-8.48c-5.38-5.65-8.06-13.89-8.06-24.7c0-10.69,2.67-18.86,8.02-24.5c5.35-5.64,13.12-8.46,23.31-8.46    c10.22,0,17.97,2.8,23.25,8.39S120.93,181.65,120.93,192.49z M76.72,192.49c0,12.42,4.32,18.63,12.96,18.63    c4.39,0,7.65-1.51,9.78-4.53c2.12-3.02,3.19-7.72,3.19-14.11c0-6.42-1.08-11.15-3.23-14.22s-5.37-4.59-9.65-4.59    C81.07,173.68,76.72,179.95,76.72,192.49z"/>
	</g>
</g>
<g>
</g>
<g>
</g>
<g>
</g>
<g>
</g>
<g>
</g>
</svg>
