<svg xmlns="http://www.w3.org/2000/svg" xml:space="preserve" width="500" height="100">
  <path fill="#FFF" d="m118.808 37.543-3.795 4.729c-2.805-3.024-6.819-4.895-10.724-4.895-7.699 0-13.748 5.939-13.748 13.527 0 7.59 6.049 13.584 13.748 13.584 3.85 0 7.809-1.76 10.724-4.564l3.85 4.29c-3.904 3.851-9.458 6.324-14.903 6.324-11.273 0-20.018-8.524-20.018-19.578 0-10.944 8.854-19.357 20.237-19.357 5.445.001 10.889 2.255 14.629 5.94zm43.449 13.473c0 11-8.909 19.523-20.402 19.523s-20.402-8.523-20.402-19.523c0-11.053 8.909-19.412 20.402-19.412s20.402 8.414 20.402 19.412zm-34.206 0c0 7.646 6.324 13.693 13.858 13.693 7.534 0 13.693-6.049 13.693-13.693 0-7.644-6.159-13.583-13.693-13.583-7.588 0-13.858 5.939-13.858 13.583zm68.142 19.248L175.681 42.66v27.604h-6.489V31.769h6.379l20.622 27.661V31.769h6.379v38.495h-6.379zm30.637-32.666v32.666h-6.489V37.598h-12.153v-5.83h30.851v5.83H226.83zm19.416 23.976-3.685 8.689h-6.764l16.993-38.498h6.653l16.828 38.498h-6.933l-3.685-8.689h-19.407zm9.678-22.876-7.258 17.103h14.518l-7.26-17.103zm25.467 31.566V31.769h6.49v38.495h-6.49zm43.611 0L304.49 42.657v27.606H298V31.769h6.379l20.623 27.661V31.769h6.379v38.495h-6.379zm23.047-32.666v10.394h18.808v5.828h-18.808v10.615h21.668v5.828h-28.156V31.769h27.496v5.83l-21.008-.001zm46.969 21.007c-.551.055-1.151.055-1.76.055h-9.129v11.604h-6.488V31.769h15.617c9.844 0 15.508 4.785 15.508 13.144 0 6.159-2.856 10.504-7.975 12.483l8.635 12.867h-7.369l-7.039-11.658zm-1.76-5.774c5.939 0 9.353-2.53 9.353-7.754 0-5.06-3.41-7.479-9.353-7.479h-9.129v15.233h9.129zm24.146 17.433V31.769h6.485v38.495h-6.485zm22.383-5.828h23.701v5.828h-32.5V65.59l23.479-27.992H431.7v-5.83h31.512v4.675l-23.425 27.993zm37.346-26.838v10.394h18.81v5.828h-18.81v10.615h21.666v5.828h-28.156V31.769h27.496v5.83l-21.006-.001z"/>
  <path fill="#3CBEEE" d="m55.723 30.884-25.69 25.69L23 49.54l25.69-25.69z"/>
  <path fill="#3CBEEE" d="m48.689 75.87-25.69-25.69 7.033-7.033 25.69 25.69z"/>
  <path fill="#418CCB" d="M49.601 44.434a2.602 2.602 0 0 1-3.682 0l-11.66-11.659a2.603 2.603 0 0 1 0-3.682l11.659-11.66a2.605 2.605 0 0 1 3.682 0l11.661 11.66a2.604 2.604 0 0 1-.001 3.682L49.601 44.434z"/>
  <path fill="#F38121" d="M49.601 81.896a2.601 2.601 0 0 1-3.682 0L34.26 70.236a2.603 2.603 0 0 1 0-3.682l11.659-11.66a2.6 2.6 0 0 1 3.682 0l11.661 11.66a2.604 2.604 0 0 1-.001 3.682l-11.66 11.66z"/>
  <path fill="#F8AD1A" d="M30.653 63.293a2.598 2.598 0 0 1-3.682 0l-11.66-11.658a2.604 2.604 0 0 1 0-3.683l11.66-11.659a2.605 2.605 0 0 1 3.682 0l11.66 11.659a2.605 2.605 0 0 1-.001 3.683L30.653 63.293z"/>
</svg>
