<?xml version="1.0" encoding="iso-8859-1"?>
<!-- Generator: Adobe Illustrator 16.0.0, SVG Export Plug-In . SVG Version: 6.00 Build 0)  -->
<!DOCTYPE svg PUBLIC "-//W3C//DTD SVG 1.1//EN" "http://www.w3.org/Graphics/SVG/1.1/DTD/svg11.dtd">
<svg version="1.1" id="Layer_1" xmlns="http://www.w3.org/2000/svg" xmlns:xlink="http://www.w3.org/1999/xlink" x="0px" y="0px"
	 width="90px" height="90px" viewBox="0 0 90 90" style="enable-background:new 0 0 90 90;" xml:space="preserve">
<g id="Unlock">
	<path style="fill:#A5C545;" d="M65.427,18.885C64.608,8.319,55.775,0,45,0C33.685,0,24.512,9.173,24.512,20.489v18.509
		c0,7.446,3.973-2.676,9.915,0.912V20.659c0-5.743,4.656-10.399,10.4-10.399c5.23,0,9.558,3.861,10.289,8.889
		c-0.018,0.178-0.028,0.358-0.028,0.541v6.863c0,2.872,2.329,5.2,5.201,5.2s5.2-2.328,5.2-5.2v-5.447v-0.616v-0.8
		C65.488,19.416,65.467,19.147,65.427,18.885z"/>
	<g>
		<path style="fill:#A5C545;" d="M11.713,48.165v32.59c0,5.106,4.139,9.245,9.245,9.245h48.084c5.106,0,9.245-4.139,9.245-9.245
			v-32.59c0-5.106-4.139-9.245-9.245-9.245H20.958C15.852,38.92,11.713,43.059,11.713,48.165z M66.17,45.623
			c1.928,0,3.491,1.563,3.491,3.491v30.691c0,1.929-1.563,3.492-3.491,3.492H23.83c-1.928,0-3.491-1.563-3.491-3.492V49.114
			c0-1.929,1.563-3.491,3.491-3.491H66.17z"/>
		<g>
			<path style="fill:#A5C545;" d="M30.273,75.632H45.69c2.468,0,4.468-2,4.468-4.469s-2-4.469-4.468-4.469H30.273
				c-2.468,0-4.468,2-4.468,4.469S27.805,75.632,30.273,75.632z"/>
			<path style="fill:#A5C545;" d="M30.273,61.764H45.69c2.468,0,4.468-2.001,4.468-4.469s-2-4.469-4.468-4.469H30.273
				c-2.468,0-4.468,2.001-4.468,4.469S27.805,61.764,30.273,61.764z"/>
		</g>
	</g>
</g>
<g>
</g>
<g>
</g>
<g>
</g>
<g>
</g>
<g>
</g>
<g>
</g>
</svg>
