<?xml version="1.0" encoding="utf-8"?>
<!-- Generator: Adobe Illustrator 25.2.0, SVG Export Plug-In . SVG Version: 6.00 Build 0)  -->
<svg version="1.1" id="Layer_1" xmlns="http://www.w3.org/2000/svg" xmlns:xlink="http://www.w3.org/1999/xlink" x="0px" y="0px"
	 viewBox="0 0 320 320" style="enable-background:new 0 0 320 320;" xml:space="preserve">
<style type="text/css">
	.st0{fill:none;stroke:#EFEFEF;stroke-linecap:round;stroke-linejoin:round;stroke-miterlimit:10;stroke-dasharray:4,8;}
	.st1{fill:#FFFFFF;}
	.st2{fill:#E04645;}
	.st3{fill-rule:evenodd;clip-rule:evenodd;fill:#E04645;}
	.st4{fill:#EFEFEF;}
	.st5{fill:#DEDFDF;}
	.st6{fill:#4296D2;}
</style>
<circle class="st0" cx="154.2" cy="163.2" r="123.7"/>
<g>
	<polygon class="st1" points="293.9,98.6 293.9,223.4 201.6,290.7 105.9,290.7 96.2,281.8 96.2,100.5 104.4,94.2 287.2,94.2 	"/>
	<path class="st2" d="M118.5,116h19.3c3.8,0,6.9,1.1,9.2,3.2c2.3,2.2,3.5,5.2,3.5,9.1c0,3.4-1,6.3-3.1,8.8s-5.3,3.7-9.6,3.7h-13.4
		V159h-5.8L118.5,116L118.5,116z M141.1,121.9c-1.3-0.6-3-0.9-5.3-0.9h-11.5v14.9h11.5c2.6,0,4.7-0.6,6.3-1.7s2.4-3.1,2.4-5.9
		C144.6,125.2,143.5,123,141.1,121.9z"/>
	<path class="st2" d="M155.1,133.9v15.5c0,1.8,0.3,3.3,1,4.6c1,1.8,2.7,2.7,5.2,2.7c2.9,0,4.9-1,5.9-3c0.6-1.1,0.8-2.5,0.8-4.3
		v-15.5h3.4V148c0,3.1-0.4,5.5-1.2,7.1c-1.5,3-4.4,4.6-8.7,4.6s-7.1-1.5-8.7-4.6c-0.8-1.7-1.2-4-1.2-7.1v-14.1H155.1z"/>
	<path class="st2" d="M173.7,133.9h10.9c3,0,5.1,0.9,6.3,2.6c0.7,1,1.1,2.2,1.1,3.6c0,1.6-0.4,2.9-1.4,3.9c-0.5,0.5-1.1,1-2,1.5
		c1.3,0.5,2.2,1,2.9,1.7c1.1,1.1,1.7,2.6,1.7,4.5c0,1.6-0.5,3.1-1.5,4.4c-1.5,2-3.9,2.9-7.3,2.9h-10.7V133.9L173.7,133.9z
		 M183.3,144.5c1.4,0,2.6-0.2,3.4-0.6c1.3-0.6,1.9-1.8,1.9-3.4c0-1.6-0.7-2.8-2-3.3c-0.8-0.3-1.9-0.5-3.4-0.5H177v7.8H183.3
		L183.3,144.5z M184.4,156.1c2.1,0,3.6-0.6,4.5-1.8c0.6-0.8,0.9-1.7,0.9-2.8c0-1.8-0.8-3.1-2.5-3.7c-0.9-0.4-2-0.5-3.5-0.5H177v8.8
		H184.4z"/>
	<path class="st3" d="M291.9,91.7c-1.3-0.7-2.8-1.2-4.4-1.4l-2-0.2H105.9c-5.3,0-9.1,2.1-11.2,6.4c-1.1,2.1-1.6,4.3-1.6,6.4v179.5
		c0,5.4,2.1,9.1,6.4,11.3c2.1,1,4.3,1.6,6.4,1.6h121.8l0,0l0,0c19.4,0,36-6.9,49.8-20.8c13.8-13.8,20.8-30.4,20.8-49.9l0,0V102.9
		C298.4,97.6,296.2,93.8,291.9,91.7z M277.6,174.6c-13.9-13.7-30.5-20.6-49.8-20.6c-19.7,0-36.3,6.9-50,20.6
		c-13.7,13.7-20.6,30.4-20.6,50c0,19.5,6.9,36.1,20.6,49.9c5,5.1,10.5,9.3,16.4,12.5h-85.6c-1.4-0.1-2.7-0.5-3.9-1.1
		c-2.1-1-3.2-3-3.2-6V105.5c0.1-1.4,0.4-2.7,1-3.9c1-2.1,3-3.2,6.1-3.2H283l1.2,0.1c1,0.2,1.9,0.5,2.6,0.9c2.2,1,3.3,3.1,3.3,6.1
		V191C286.9,185.2,282.7,179.7,277.6,174.6z"/>
	<g>
		<path class="st1" d="M260.2,257.4h-62.1c-3.1,0-3.5-2-3.6-2.8c0-0.3-0.1-2.8,3-3.2c2.7-0.3,3.9-0.8,4.4-1v-54.6c0-1.6,1.3-3,3-3
			h61.2c1.6,0,3,1.3,3,3v52.7C269.1,253.4,265.1,257.4,260.2,257.4z M207.9,251.4h52.4c1.6,0,2.9-1.3,2.9-2.9v-49.8H208V251
			C207.9,251.2,207.9,251.3,207.9,251.4z"/>
		<path class="st1" d="M196.5,257.3c-6.2,0-11.3-5.1-11.3-11.3v-43.4c0-1.6,1.3-3,3-3h16.6c1.6,0,3,1.3,3,3V246
			C207.8,252.2,202.7,257.3,196.5,257.3z M191.1,205.6V246c0,2.9,2.4,5.4,5.4,5.4c2.9,0,5.4-2.4,5.4-5.4v-40.4H191.1z"/>
		<rect x="235.3" y="221.5" class="st1" width="19.6" height="16.1"/>
		<path class="st1" d="M252.1,217.7h-33.4c-1.6,0-2.9-1.3-2.9-2.9l0,0c0-1.6,1.3-2.9,2.9-2.9H252c1.6,0,2.9,1.3,2.9,2.9l0,0
			C255,216.4,253.7,217.7,252.1,217.7z"/>
		<path class="st1" d="M228.9,221.3h-10.3c-1.6,0-2.9,1.3-2.9,2.9l0,0c0,1.6,1.3,2.9,2.9,2.9h10.3c1.6,0,2.9-1.3,2.9-2.9l0,0
			C231.9,222.6,230.6,221.3,228.9,221.3z"/>
		<path class="st1" d="M228.9,231.6h-10.3c-1.6,0-2.9,1.3-2.9,2.9l0,0c0,1.6,1.3,2.9,2.9,2.9h10.3c1.6,0,2.9-1.3,2.9-2.9l0,0
			C231.9,233,230.6,231.6,228.9,231.6z"/>
	</g>
</g>
<g>
	<path class="st4" d="M274.8,142c-19,0-34.5-15.5-34.5-34.5S255.8,73,274.8,73s34.5,15.5,34.5,34.5S293.9,142,274.8,142z"/>
	<path class="st5" d="M274.8,74.4c18.2,0,33,14.8,33,33s-14.8,33-33,33s-33-14.8-33-33S256.6,74.4,274.8,74.4 M274.8,71.4
		c-19.9,0-36,16.1-36,36s16.1,36,36,36s36-16.1,36-36S294.7,71.4,274.8,71.4L274.8,71.4z"/>
</g>
<g>
	<g>
		<polygon class="st6" points="212.9,47.1 231.2,48.2 229.8,65.2 222.6,70.2 215.4,66.7 		"/>
		<polygon class="st6" points="159.3,50.4 163.4,50.4 164.8,47.1 165.4,27.7 158.8,23.9 146.3,23.9 145.3,38.1 145.8,50 		"/>
		<polygon class="st6" points="89,54.9 82.1,48.7 70.4,49.1 69.9,74.9 70.7,75.8 89,75.8 		"/>
		<polygon class="st6" points="46.5,116.5 40.3,110.3 28.1,110.3 28.1,137.2 46.5,137.6 		"/>
		<polygon class="st6" points="51,191.1 44.9,185.6 28.7,185.3 27.2,187.1 27.2,208.7 50.5,209.1 		"/>
		<polygon class="st6" points="78.8,247.1 72.8,241.1 58.4,240.7 59,268 77.7,268 		"/>
	</g>
	<g>
		<g>
			<path class="st4" d="M210.8,45.1h22.5l-2.1,23.2l-9.2,3.1l-9.2-3.1L210.8,45.1z M228.8,52.6l0.3-2.8H215l0.7,8.5h9.8l-0.4,3.6
				l-3.1,0.8l-3.2-0.8l-0.2-2.2h-2.8l0.4,4.4l5.8,1.6h0.1l5.7-1.6l0.8-8.7h-10.3l-0.2-2.9L228.8,52.6L228.8,52.6z"/>
		</g>
		<g>
			<path class="st4" d="M165.4,27.7c0.6,0.5,0.8,1.2,0.8,2v19.5c0,0.8-0.3,1.4-0.8,2c-0.6,0.5-1.2,0.8-2,0.8h-16.9
				c-0.8,0-1.4-0.3-2-0.8s-0.8-1.2-0.8-2V24.8c0-0.8,0.3-1.4,0.8-2s1.2-0.8,2-0.8h11.9c0.8,0,1.4,0.3,2,0.8L165.4,27.7z M146.6,49.1
				h16.9V32.2h-6.1c-0.4,0-0.7-0.1-1-0.4c-0.3-0.3-0.4-0.6-0.4-1v-6.1h-9.4V49.1L146.6,49.1z M149.3,33.1c0.6-0.5,1.2-0.8,2-0.8
				s1.4,0.3,2,0.8s0.8,1.2,0.8,2s-0.3,1.5-0.8,2c-0.6,0.5-1.2,0.8-2,0.8s-1.4-0.3-2-0.8s-0.8-1.2-0.8-2S148.7,33.6,149.3,33.1z
				 M148.4,46.3v-3.8l2.3-2.3c0.3-0.3,0.6-0.3,0.9,0l2.3,2.3l5.2-5.2c0.3-0.3,0.6-0.3,0.9,0l1.4,1.4v7.5L148.4,46.3L148.4,46.3z
				 M163.2,29.4l-4.4-4.4v4.5C158.8,29.4,163.2,29.4,163.2,29.4z"/>
		</g>
		<g>
			<path class="st4" d="M51.2,190.1c0.5,0.6,0.8,1.2,0.8,2v15.7c0,0.8-0.3,1.4-0.8,2s-1.2,0.8-2,0.8H28.6c-0.8,0-1.5-0.3-2-0.8
				c-0.5-0.6-0.8-1.2-0.8-2v-20.6c0-0.8,0.3-1.4,0.8-2s1.2-0.8,2-0.8h15.7c0.8,0,1.4,0.3,2,0.8L51.2,190.1z M48.9,207.8
				c0.2,0,0.3-0.1,0.3-0.4v-15.2c0-0.1,0-0.2-0.1-0.2l-4.6-4.6v5.9c0,0.4-0.1,0.7-0.4,1c-0.3,0.3-0.6,0.4-1,0.4H32.8
				c-0.4,0-0.7-0.1-1-0.4c-0.3-0.3-0.4-0.6-0.4-1v-6.1H29c-0.2,0-0.4,0.1-0.4,0.4v19.9c0,0.2,0.1,0.4,0.4,0.4L48.9,207.8L48.9,207.8
				z M35.3,197.6c1-1,2.2-1.5,3.6-1.5s2.6,0.5,3.6,1.5s1.5,2.2,1.5,3.6s-0.5,2.6-1.5,3.6s-2.2,1.5-3.6,1.5s-2.6-0.5-3.6-1.5
				s-1.5-2.2-1.5-3.6S34.3,198.6,35.3,197.6z M41.8,187.1h-7.5v4.7h7.5V187.1z M37.3,202.9c0.5,0.4,1,0.7,1.7,0.7s1.2-0.2,1.7-0.7
				c0.5-0.4,0.7-1,0.7-1.7s-0.2-1.2-0.7-1.7c-0.5-0.4-1-0.7-1.7-0.7s-1.2,0.2-1.7,0.7c-0.5,0.4-0.7,1-0.7,1.7S36.8,202.4,37.3,202.9
				z"/>
		</g>
		<g>
			<path class="st4" d="M79.3,245.6c0.6,0.6,0.8,1.2,0.8,2V267c0,0.8-0.3,1.4-0.8,2s-1.2,0.8-2,0.8H60.4c-0.8,0-1.5-0.3-2-0.8
				s-0.8-1.2-0.8-2v-24.4c0-0.8,0.3-1.4,0.8-2s1.2-0.8,2-0.8h12c0.8,0,1.4,0.3,2,0.8L79.3,245.6z M77.3,267v-16.9h-6.1
				c-0.4,0-0.7-0.1-1-0.4c-0.3-0.3-0.4-0.6-0.4-1v-6.1h-9.4V267H77.3z M66.4,260.3c0.2,0.2,0.2,0.5,0,0.8l-1,1
				c-0.1,0.1-0.2,0.2-0.4,0.2c-0.1,0-0.2-0.1-0.3-0.2l-3.3-3.2c-0.3-0.2-0.3-0.5,0-0.7l3.3-3.2c0.3-0.3,0.5-0.3,0.8,0l1,1v0.1
				c0.2,0.2,0.2,0.5,0,0.7l-1.9,1.7L66.4,260.3z M69.9,252.4l1.4,0.4c0.3,0.1,0.5,0.3,0.3,0.6l-3.2,11c-0.1,0.4-0.3,0.5-0.6,0.4
				l-1.4-0.4c-0.3-0.1-0.5-0.3-0.3-0.6l3.2-11C69.4,252.4,69.6,252.3,69.9,252.4z M71.3,256.9c-0.2-0.2-0.2-0.5,0-0.8l1-1.1
				c0.2-0.3,0.5-0.3,0.8,0l3.3,3.2c0.3,0.2,0.3,0.5,0,0.7l-3.3,3.2c-0.3,0.3-0.5,0.3-0.8,0l-1-1V261c-0.2-0.2-0.2-0.5,0-0.7l1.9-1.7
				L71.3,256.9z M72.6,242.9v4.4H77L72.6,242.9z"/>
		</g>
		<g>
			<path class="st4" d="M48.3,117.1v19c0,0.8-0.3,1.4-0.8,1.9s-1.2,0.8-2,0.8H28.6c-0.8,0-1.4-0.3-2-0.8c-0.5-0.5-0.8-1.2-0.8-1.9
				v-23.7c0-0.8,0.3-1.4,0.8-1.9s1.2-0.8,2-0.8h12c0.8,0,1.4,0.3,2,0.8l4.9,4.8C48,115.7,48.3,116.3,48.3,117.1z M45.5,136.1v-16.4
				h-6.1c-0.4,0-0.7-0.1-1-0.4s-0.4-0.6-0.4-1v-5.9h-9.4v23.7H45.5z M42.7,123.7v1.6c0,0.5-0.2,0.7-0.7,0.7h-9.8
				c-0.5,0-0.7-0.2-0.7-0.7v-1.6c0-0.5,0.2-0.7,0.7-0.7H42C42.4,123,42.7,123.3,42.7,123.7z M42,127.8c0.5,0,0.7,0.2,0.7,0.7v1.6
				c0,0.5-0.2,0.7-0.7,0.7h-9.8c-0.5,0-0.7-0.2-0.7-0.7v-1.6c0-0.5,0.2-0.7,0.7-0.7H42z M40.8,112.5v4.3h4.5L40.8,112.5z"/>
		</g>
	</g>
	<g>
		<polygon class="st6" points="89.6,54.6 83.4,48.4 71.2,48.4 71.2,75.3 89.6,75.7 		"/>
		<g>
			<path class="st4" d="M90.6,53.1c0.5,0.6,0.8,1.2,0.8,2v19.4c0,0.8-0.3,1.4-0.8,2s-1.2,0.8-2,0.8H71.7c-0.8,0-1.5-0.3-2-0.8
				c-0.5-0.6-0.8-1.2-0.8-2V50.1c0-0.8,0.3-1.4,0.8-2s1.2-0.8,2-0.8h12c0.8,0,1.4,0.3,2,0.8L90.6,53.1z M71.7,74.6h16.9V57.7h-6.1
				c-0.4,0-0.7-0.1-1-0.4c-0.3-0.3-0.4-0.6-0.4-1v-6.1h-9.4V74.6z M84.6,62.4h0.9c0.2,0,0.4,0.1,0.6,0.3c0.1,0.2,0.2,0.4,0.2,0.6
				c-0.4,1.5-1.1,4.1-2,8c-0.1,0.4-0.3,0.5-0.7,0.5h-1.5c-0.4,0-0.6-0.2-0.7-0.5c-0.3-1.1-0.6-2.5-1-4.2l-0.2-1c0,0.3-0.1,0.6-0.2,1
				l-1,4.2c-0.1,0.4-0.3,0.5-0.6,0.5h-1.5c-0.4,0-0.6-0.2-0.7-0.5c-0.1-0.5-0.4-1.8-0.9-3.8c-0.5-2.1-0.8-3.5-1-4.1
				c-0.1-0.2,0-0.4,0.1-0.6c0.2-0.2,0.3-0.3,0.5-0.3h1c0.4,0,0.6,0.2,0.7,0.6c0.7,3.7,1.1,5.7,1.1,5.8c0,0,0,0.1,0.1,0.2
				c0-0.2,0.5-2.3,1.4-6.1c0.1-0.3,0.3-0.5,0.7-0.5h0.8c0.4,0,0.6,0.2,0.7,0.5c0.9,3.8,1.4,5.7,1.4,5.9c0,0,0,0.1,0,0.2
				c0-0.2,0.5-2.2,1.2-6C84,62.6,84.2,62.4,84.6,62.4z M88.4,54.9l-4.5-4.4v4.4H88.4z"/>
		</g>
	</g>
</g>
<g id="java_1_">
	<path id="XMLID_17_" class="st2" d="M274.2,91.8c-1.8,1.3-3.9,2.7-5,5.1c-1.9,4.2,3.9,8.7,4.2,8.9c0.1,0,0.1,0.1,0.2,0.1
		s0.1,0,0.2-0.1s0.1-0.3,0.1-0.4c0,0-2.1-4.1-2-7c0-1,1.5-2.2,3-3.4c1.4-1.1,2.9-2.4,3.9-3.9c2-3.3-0.2-6.5-0.2-6.5
		c-0.1-0.1-0.2-0.2-0.4-0.1s-0.2,0.2-0.2,0.4c0,0,0.4,2.1-0.8,4.3C276.6,90.1,275.5,90.9,274.2,91.8z"/>
	<path id="XMLID_16_" class="st2" d="M281.9,93.2c0.1-0.1,0.2-0.3,0.1-0.4s-0.2-0.2-0.4-0.2c-0.3,0.1-7.5,2.9-7.5,6.3
		c0,2.3,1,3.6,1.7,4.4c0.3,0.3,0.5,0.7,0.6,0.9c0.2,0.8-0.3,2.1-0.5,2.6c-0.1,0.1,0,0.3,0.1,0.4s0.1,0.1,0.2,0.1s0.1,0,0.2-0.1
		s3-2.2,2.5-4.6c-0.2-0.9-0.7-1.6-1.1-2.2c-0.6-0.9-1.1-1.6-0.4-2.9C278.1,96,281.8,93.3,281.9,93.2z"/>
	<path id="XMLID_7_" class="st2" d="M263,107.4c-0.1,0.4-0.1,0.7,0.2,1.1c0.8,1.1,3.6,1.7,7.8,1.7l0,0c0.6,0,1.2,0,1.8,0
		c6.8-0.2,9.3-2.4,9.4-2.4c0.1-0.1,0.1-0.3,0.1-0.4s-0.2-0.2-0.4-0.2c-2.4,0.7-6.9,0.9-10,0.9c-3.5,0-5.2-0.2-5.7-0.4
		c0.2-0.3,1.6-0.8,3.3-1.2c0.2,0,0.3-0.2,0.3-0.3c0-0.2-0.1-0.3-0.3-0.3C268.6,105.7,263.6,105.8,263,107.4z"/>
	<path id="XMLID_6_" class="st2" d="M285.8,105.2c-1.4,0-2.7,0.7-2.8,0.7c-0.1,0.1-0.2,0.2-0.2,0.4s0.2,0.2,0.3,0.2c0,0,3,0,3.3,1.7
		c0.2,1.5-2.8,3.8-4,4.6c-0.1,0.1-0.2,0.2-0.1,0.4c0,0.1,0.2,0.2,0.3,0.2c0,0,0,0,0.1,0c0.3-0.1,6.9-1.5,6.2-5.4
		C288.5,105.7,287,105.2,285.8,105.2z"/>
	<path id="XMLID_5_" class="st2" d="M281.3,112.4c0-0.1,0-0.2-0.1-0.3l-1.6-1.1c-0.1-0.1-0.2-0.1-0.3-0.1c0,0-1.7,0.4-4.1,0.7
		c-1,0.1-2,0.2-3.1,0.2c-2.4,0-4-0.3-4.2-0.5c0-0.1,0-0.1,0-0.1c0-0.1,0.3-0.2,0.4-0.3c0.2-0.1,0.2-0.2,0.2-0.4
		c0-0.2-0.2-0.3-0.4-0.2c-1.6,0.4-2.4,0.9-2.3,1.6c0.1,1.2,2.9,1.8,5.2,2c0.3,0,0.7,0,1.1,0l0,0c3.9,0,8.9-1.2,9-1.2
		C281.1,112.6,281.2,112.5,281.3,112.4z"/>
	<path id="XMLID_4_" class="st2" d="M269.3,115c0.1-0.1,0.2-0.2,0.1-0.4c0-0.1-0.2-0.2-0.3-0.2c-0.2,0-2.1,0.1-2.2,1.3
		c0,0.4,0.1,0.7,0.3,1c0.7,0.8,2.5,1.3,5.6,1.4c0.4,0,0.7,0,1.1,0c3.9,0,6.5-1.2,6.6-1.3c0.1-0.1,0.2-0.2,0.2-0.3
		c0-0.1,0-0.2-0.1-0.3l-2-1.2c-0.1,0-0.1-0.1-0.2,0c0,0-1.3,0.3-3.2,0.5c-0.4,0.1-0.8,0.1-1.4,0.1
		C271.9,115.6,269.7,115.3,269.3,115C269.2,115.1,269.2,115,269.3,115z"/>
	<path id="XMLID_3_" class="st2" d="M272,121.8c9,0,13.8-1.6,14.7-2.6c0.3-0.3,0.4-0.7,0.3-0.9c-0.1-0.5-0.6-0.9-0.6-0.9
		c-0.1-0.1-0.3-0.1-0.4,0.1c-0.1,0.1-0.1,0.3,0,0.4s0.1,0.2-0.1,0.4c-0.4,0.3-4.1,1.4-10.3,1.7c-0.9,0-1.7,0.1-2.6,0.1
		c-5.6,0-9.6-0.8-10.2-1.2c0.2-0.3,1.6-0.8,3.2-1c0.2,0,0.3-0.2,0.3-0.4s-0.2-0.3-0.4-0.3c0,0-0.2,0-0.4,0c-2.5,0.2-5.4,0.5-5.6,1.8
		c0,0.4,0.1,0.8,0.4,1.1C260.9,120.8,262.9,121.8,272,121.8L272,121.8z"/>
	<path id="XMLID_2_" class="st2" d="M288.4,119.5c-0.1-0.1-0.3,0-0.4,0.1c0,0-1.4,1.4-5.4,2.2c-1.5,0.3-4.5,0.5-8.6,0.5
		s-8.2-0.2-8.2-0.2c-0.2,0-0.3,0.1-0.3,0.3c0,0.2,0.1,0.3,0.2,0.4c0,0,4.2,1,9.9,1c2.7,0,5.4-0.2,7.9-0.7c4.7-0.8,5-3.2,5-3.2
		C288.6,119.7,288.6,119.5,288.4,119.5z"/>
</g>
</svg>
