<?xml version="1.0" encoding="utf-8"?>
<!-- Generator: Adobe Illustrator 25.2.0, SVG Export Plug-In . SVG Version: 6.00 Build 0)  -->
<svg version="1.1" id="Layer_1" xmlns="http://www.w3.org/2000/svg" xmlns:xlink="http://www.w3.org/1999/xlink" x="0px" y="0px"
	 viewBox="0 0 320 320" style="enable-background:new 0 0 320 320;" xml:space="preserve">
<style type="text/css">
	.st0{fill:none;stroke:#EFEFEF;stroke-linecap:round;stroke-linejoin:round;stroke-miterlimit:10;stroke-dasharray:4,8;}
	.st1{fill:#FFFFFF;}
	.st2{fill-rule:evenodd;clip-rule:evenodd;fill:#E04645;}
	.st3{fill:#E04645;}
	.st4{fill-rule:evenodd;clip-rule:evenodd;fill:#FFFFFF;}
	.st5{fill:#EFEFEF;}
	.st6{fill:#DEDFDF;}
	.st7{fill:#4296D2;}
</style>
<circle class="st0" cx="154.17" cy="163.2" r="123.74"/>
<g id="Cells">
	<polygon class="st1" points="293.62,99.54 286.7,95.1 104.83,95.1 97.92,102 97.92,284.02 102.36,289.94 238.27,289.94 
		293.62,219.89 	"/>
	<path class="st2" d="M157.18,224.46c0-19.56,6.88-36.22,20.62-49.95c13.66-13.73,30.32-20.59,50.01-20.59
		c19.4,0,36.02,6.86,49.87,20.59c13.84,13.73,20.76,30.38,20.76,49.95c0,19.47-6.92,36.07-20.76,49.8
		c-13.85,13.82-30.47,20.74-49.87,20.74c-19.69,0-36.35-6.91-50.01-20.74C164.06,260.53,157.18,243.93,157.18,224.46"/>
	<path class="st2" d="M298.44,224.46h-8.27V105.43c0-3.04-1.1-5.08-3.28-6.13c-0.76-0.38-1.64-0.67-2.65-0.86l-1.21-0.14H108.51
		c-3.1,0-5.13,1.07-6.13,3.2c-0.62,1.23-0.95,2.54-1,3.92v174.19c0,3.04,1.07,5.06,3.21,6.05c1.24,0.61,2.54,0.97,3.92,1.07h115.67
		l3.64,8.26H105.94c-2.14,0-4.27-0.52-6.41-1.56c-4.28-2.13-6.43-5.88-6.43-11.25V102.86c0-2.13,0.55-4.27,1.64-6.41
		c2.14-4.27,5.87-6.41,11.19-6.41h179.67l1.99,0.21c1.62,0.24,3.1,0.71,4.43,1.43c4.28,2.14,6.42,5.87,6.42,11.18L298.44,224.46
		L298.44,224.46z"/>
	<g>
		<path class="st3" d="M137.44,123.08c-4.12,0-7.36,1.46-9.73,4.38c-2.37,2.91-3.54,6.95-3.54,12.08c0,5.37,1.13,9.44,3.41,12.21
			c2.27,2.76,5.56,4.14,9.86,4.14c1.86,0,3.67-0.18,5.4-0.55c1.74-0.37,3.55-0.84,5.43-1.43v6.15c-3.45,1.3-7.35,1.95-11.7,1.95
			c-6.43,0-11.35-1.94-14.8-5.83s-5.16-9.45-5.16-16.69c0-4.55,0.84-8.55,2.51-11.96c1.67-3.42,4.08-6.03,7.25-7.86
			c3.16-1.82,6.88-2.73,11.13-2.73c4.48,0,8.62,0.94,12.43,2.82l-2.58,5.97c-1.48-0.7-3.05-1.31-4.7-1.84
			C141,123.34,139.26,123.08,137.44,123.08z"/>
	</g>
	<g>
		<rect x="191.4" y="192.03" class="st4" width="28.72" height="14.83"/>
		<rect x="191.4" y="218.24" class="st4" width="28.72" height="14.84"/>
		<rect x="191.4" y="242.03" class="st4" width="28.72" height="14.84"/>
		<rect x="235.48" y="192.03" class="st4" width="28.73" height="14.83"/>
		<rect x="235.48" y="218.24" class="st4" width="28.73" height="14.84"/>
	</g>
</g>
<g>
	<path class="st5" d="M274.83,141.96c-19.03,0-34.51-15.48-34.51-34.51s15.48-34.51,34.51-34.51s34.51,15.48,34.51,34.51
		S293.86,141.96,274.83,141.96z"/>
	<path class="st6" d="M274.83,74.45c18.2,0,33.01,14.81,33.01,33.01s-14.81,33.01-33.01,33.01s-33.01-14.81-33.01-33.01
		S256.63,74.45,274.83,74.45 M274.83,71.45c-19.89,0-36.01,16.12-36.01,36.01s16.12,36.01,36.01,36.01s36.01-16.12,36.01-36.01
		S294.72,71.45,274.83,71.45L274.83,71.45z"/>
</g>
<g>
	<g>
		<polygon class="st7" points="212.94,47.07 231.19,48.19 229.78,65.23 222.61,70.15 215.36,66.73 		"/>
		<polygon class="st7" points="159.28,50.4 163.44,50.4 164.78,47.07 165.44,27.68 158.78,23.9 146.28,23.9 145.28,38.07 
			145.78,49.98 		"/>
		<polygon class="st7" points="89.03,54.9 82.11,48.65 70.36,49.07 69.94,74.9 70.69,75.82 89.03,75.82 		"/>
		<polygon class="st7" points="46.53,116.48 40.28,110.32 28.11,110.32 28.11,137.23 46.53,137.57 		"/>
		<polygon class="st7" points="51.03,191.07 44.94,185.65 28.69,185.32 27.19,187.15 27.19,208.69 50.53,209.07 		"/>
		<polygon class="st7" points="78.78,247.15 72.78,241.15 58.44,240.67 59.03,267.98 77.69,267.98 		"/>
	</g>
	<g>
		<g>
			<path class="st5" d="M210.79,45.07h22.5l-2.05,23.2l-9.2,3.05l-9.2-3.05L210.79,45.07z M228.83,52.57l0.29-2.81H215l0.7,8.55
				h9.79l-0.35,3.63l-3.11,0.82l-3.16-0.82l-0.23-2.23h-2.75l0.35,4.45l5.8,1.58h0.06l5.68-1.58l0.82-8.73h-10.31l-0.23-2.87h10.77
				V52.57z"/>
		</g>
		<g>
			<path class="st5" d="M165.44,27.68c0.55,0.55,0.82,1.21,0.82,1.99v19.45c0,0.78-0.27,1.44-0.82,1.99
				c-0.55,0.55-1.21,0.82-1.99,0.82h-16.87c-0.78,0-1.45-0.27-1.99-0.82c-0.55-0.55-0.82-1.21-0.82-1.99V24.75
				c0-0.78,0.27-1.44,0.82-1.99s1.21-0.82,1.99-0.82h11.95c0.78,0,1.44,0.27,1.99,0.82L165.44,27.68z M146.57,49.12h16.87V32.25
				h-6.09c-0.39,0-0.72-0.14-1-0.41c-0.27-0.27-0.41-0.6-0.41-1v-6.09h-9.38v24.37H146.57z M149.27,33.07
				c0.55-0.55,1.21-0.82,1.99-0.82s1.44,0.27,1.99,0.82s0.82,1.21,0.82,1.99c0,0.78-0.27,1.45-0.82,1.99
				c-0.55,0.55-1.21,0.82-1.99,0.82s-1.45-0.27-1.99-0.82c-0.55-0.55-0.82-1.21-0.82-1.99S148.72,33.62,149.27,33.07z M148.45,46.31
				v-3.75l2.34-2.34c0.31-0.31,0.62-0.31,0.94,0l2.34,2.34l5.16-5.16c0.31-0.31,0.62-0.31,0.94,0l1.41,1.41v7.5H148.45z
				 M163.21,29.44l-4.45-4.45v4.45C158.76,29.44,163.21,29.44,163.21,29.44z"/>
		</g>
		<g>
			<path class="st5" d="M89.97,53.39c0.55,0.55,0.82,1.21,0.82,1.99v19.45c0,0.78-0.27,1.44-0.82,1.99
				c-0.55,0.55-1.21,0.82-1.99,0.82H71.1c-0.78,0-1.45-0.27-1.99-0.82c-0.55-0.55-0.82-1.21-0.82-1.99V50.46
				c0-0.78,0.27-1.44,0.82-1.99c0.55-0.55,1.21-0.82,1.99-0.82h11.95c0.78,0,1.44,0.27,1.99,0.82L89.97,53.39z M71.1,74.83h16.88
				V57.96h-6.09c-0.39,0-0.72-0.14-1-0.41c-0.27-0.27-0.41-0.6-0.41-1v-6.09H71.1V74.83z M83.53,60.77c0.27,0,0.48,0.12,0.62,0.35
				s0.13,0.47-0.03,0.7c-1.37,2.38-2.27,3.91-2.7,4.57l2.7,4.57c0.16,0.23,0.17,0.47,0.03,0.7c-0.14,0.23-0.34,0.35-0.62,0.35h-1.7
				c-0.27,0-0.47-0.12-0.59-0.35c-0.08-0.12-0.64-1.25-1.7-3.4c-0.47,1.05-1.04,2.19-1.7,3.4c-0.12,0.23-0.31,0.35-0.59,0.35h-1.7
				c-0.27,0-0.48-0.12-0.62-0.35c-0.14-0.23-0.13-0.47,0.03-0.7l2.7-4.57l-2.7-4.57c-0.16-0.23-0.17-0.47-0.03-0.7
				s0.34-0.35,0.62-0.35h1.7c0.27,0,0.49,0.12,0.64,0.35c0.35,0.7,0.9,1.84,1.64,3.4c0.35-0.86,0.92-1.99,1.7-3.4
				c0.12-0.23,0.31-0.35,0.59-0.35C81.82,60.77,83.53,60.77,83.53,60.77z M87.74,55.15l-4.45-4.45v4.45H87.74z"/>
		</g>
		<g>
			<path class="st5" d="M47.5,115.02c0.55,0.55,0.82,1.21,0.82,1.99v19.45c0,0.78-0.27,1.44-0.82,1.99s-1.21,0.82-1.99,0.82H28.64
				c-0.78,0-1.45-0.27-1.99-0.82c-0.55-0.55-0.82-1.21-0.82-1.99v-24.38c0-0.78,0.27-1.44,0.82-1.99c0.55-0.55,1.21-0.82,1.99-0.82
				h11.95c0.78,0,1.44,0.27,1.99,0.82L47.5,115.02z M28.64,136.47h16.88v-16.88h-6.09c-0.39,0-0.72-0.14-1-0.41
				c-0.27-0.27-0.41-0.6-0.41-1v-6.09h-9.38C28.64,112.09,28.64,136.47,28.64,136.47z M41.53,124.28h0.94
				c0.23,0,0.42,0.09,0.56,0.26c0.14,0.18,0.18,0.38,0.15,0.62c-0.39,1.48-1.08,4.14-2.05,7.97c-0.08,0.35-0.31,0.53-0.7,0.53h-1.41
				c-0.39,0-0.62-0.18-0.7-0.53c-0.27-1.13-0.62-2.54-1.05-4.22l-0.18-1c0,0.31-0.06,0.64-0.18,1l-1.05,4.22
				c-0.08,0.35-0.29,0.53-0.64,0.53h-1.46c-0.39,0-0.62-0.18-0.7-0.53c-0.12-0.47-0.43-1.75-0.94-3.84c-0.51-2.09-0.84-3.47-1-4.13
				c-0.08-0.23-0.04-0.44,0.12-0.62c0.16-0.18,0.33-0.26,0.53-0.26h1c0.39,0,0.62,0.2,0.7,0.59c0.74,3.75,1.11,5.68,1.11,5.8
				c0,0.04,0.02,0.12,0.06,0.23c0-0.23,0.47-2.27,1.41-6.09c0.12-0.35,0.35-0.53,0.7-0.53h0.76c0.39,0,0.62,0.18,0.7,0.53
				c0.9,3.79,1.37,5.74,1.41,5.86c0,0.04,0,0.12,0,0.23c0.04-0.23,0.45-2.25,1.23-6.04C40.9,124.47,41.14,124.28,41.53,124.28z
				 M45.28,116.78l-4.45-4.45v4.45H45.28z"/>
		</g>
		<g>
			<path class="st5" d="M51.25,190.05c0.55,0.55,0.82,1.21,0.82,1.99v15.7c0,0.78-0.27,1.45-0.82,1.99
				c-0.55,0.55-1.21,0.82-1.99,0.82H28.64c-0.78,0-1.45-0.27-1.99-0.82c-0.55-0.55-0.82-1.21-0.82-1.99v-20.62
				c0-0.78,0.27-1.44,0.82-1.99s1.21-0.82,1.99-0.82h15.7c0.78,0,1.44,0.27,1.99,0.82L51.25,190.05z M48.91,207.75
				c0.23,0,0.35-0.12,0.35-0.35v-15.23c0-0.08-0.04-0.16-0.12-0.23l-4.57-4.57v5.86c0,0.39-0.14,0.72-0.41,1
				c-0.27,0.27-0.61,0.41-1,0.41H32.85c-0.39,0-0.72-0.14-1-0.41c-0.27-0.27-0.41-0.6-0.41-1v-6.09h-2.46
				c-0.23,0-0.35,0.12-0.35,0.35v19.92c0,0.23,0.12,0.35,0.35,0.35h19.93V207.75z M35.31,197.55c1.02-1.01,2.23-1.52,3.63-1.52
				s2.62,0.51,3.63,1.52c1.02,1.02,1.52,2.23,1.52,3.63s-0.51,2.62-1.52,3.63c-1.02,1.02-2.23,1.52-3.63,1.52s-2.62-0.51-3.63-1.52
				c-1.02-1.01-1.52-2.23-1.52-3.63S34.3,198.57,35.31,197.55z M41.76,187.12h-7.5v4.69h7.5V187.12z M37.28,202.86
				c0.45,0.45,1,0.67,1.67,0.67c0.66,0,1.22-0.22,1.67-0.67c0.45-0.45,0.67-1,0.67-1.67c0-0.66-0.23-1.22-0.67-1.67
				c-0.45-0.45-1.01-0.67-1.67-0.67c-0.67,0-1.22,0.23-1.67,0.67c-0.45,0.45-0.67,1.01-0.67,1.67
				C36.6,201.85,36.83,202.41,37.28,202.86z"/>
		</g>
		<g>
			<path class="st5" d="M79.3,245.59c0.55,0.55,0.82,1.21,0.82,1.99v19.45c0,0.78-0.27,1.44-0.82,1.99s-1.21,0.82-1.99,0.82H60.44
				c-0.78,0-1.45-0.27-1.99-0.82c-0.55-0.55-0.82-1.21-0.82-1.99v-24.38c0-0.78,0.27-1.45,0.82-1.99c0.55-0.55,1.21-0.82,1.99-0.82
				h11.95c0.78,0,1.44,0.27,1.99,0.82L79.3,245.59z M77.31,267.03v-16.88h-6.09c-0.39,0-0.72-0.14-1-0.41
				c-0.27-0.27-0.41-0.61-0.41-1v-6.09h-9.38v24.38H77.31z M66.41,260.29c0.23,0.23,0.23,0.49,0,0.76l-1,1.05
				c-0.12,0.12-0.25,0.18-0.41,0.18c-0.12,0-0.23-0.06-0.35-0.18l-3.34-3.16c-0.27-0.23-0.27-0.47,0-0.7l3.34-3.16
				c0.27-0.27,0.53-0.27,0.76,0l1,1.05v0.06c0.23,0.23,0.23,0.47,0,0.7l-1.93,1.7L66.41,260.29z M69.93,252.38l1.41,0.41
				c0.35,0.08,0.47,0.29,0.35,0.64l-3.22,11.02c-0.08,0.35-0.29,0.47-0.64,0.35l-1.41-0.41c-0.35-0.08-0.47-0.29-0.35-0.64
				l3.22-11.02C69.36,252.42,69.58,252.31,69.93,252.38z M71.33,256.9c-0.23-0.23-0.23-0.49,0-0.76l1-1.05
				c0.23-0.27,0.49-0.27,0.76,0l3.34,3.16c0.27,0.23,0.27,0.47,0,0.7l-3.34,3.16c-0.27,0.27-0.53,0.27-0.76,0l-1-1.05V261
				c-0.23-0.23-0.23-0.47,0-0.7l1.93-1.7L71.33,256.9z M72.62,242.89v4.45h4.45L72.62,242.89z"/>
		</g>
	</g>
</g>
<g id="java_1_">
	<path id="XMLID_17_" class="st3" d="M274.23,91.79c-1.81,1.27-3.86,2.72-4.96,5.11c-1.91,4.17,3.91,8.71,4.16,8.91
		c0.06,0.04,0.13,0.07,0.2,0.07s0.15-0.03,0.21-0.07c0.12-0.1,0.15-0.26,0.08-0.39c-0.02-0.04-2.11-4.1-2.03-7.01
		c0.03-1.01,1.45-2.16,2.95-3.38c1.38-1.12,2.94-2.38,3.85-3.86c2-3.26-0.22-6.46-0.25-6.49c-0.09-0.12-0.25-0.17-0.39-0.11
		s-0.22,0.21-0.18,0.36c0,0.02,0.44,2.14-0.77,4.32C276.58,90.14,275.49,90.9,274.23,91.79z"/>
	<path id="XMLID_16_" class="st3" d="M281.86,93.23c0.13-0.1,0.17-0.27,0.09-0.41c-0.08-0.14-0.25-0.2-0.4-0.15
		c-0.31,0.12-7.54,2.9-7.54,6.27c0,2.32,0.99,3.55,1.71,4.44c0.28,0.35,0.53,0.65,0.61,0.91c0.23,0.75-0.31,2.09-0.54,2.55
		c-0.07,0.13-0.03,0.29,0.08,0.39c0.06,0.05,0.13,0.08,0.21,0.08c0.06,0,0.13-0.02,0.18-0.06c0.12-0.09,3.04-2.15,2.51-4.63
		c-0.19-0.94-0.66-1.63-1.07-2.24c-0.63-0.94-1.09-1.62-0.4-2.88C278.14,96.04,281.83,93.26,281.86,93.23z"/>
	<path id="XMLID_7_" class="st3" d="M263.05,107.36c-0.12,0.37-0.07,0.74,0.17,1.06c0.78,1.09,3.56,1.69,7.81,1.69l0,0
		c0.58,0,1.19-0.01,1.81-0.03c6.8-0.24,9.33-2.36,9.43-2.45c0.11-0.1,0.14-0.26,0.07-0.39s-0.22-0.2-0.37-0.16
		c-2.4,0.65-6.87,0.89-9.98,0.89c-3.47,0-5.24-0.25-5.67-0.43c0.22-0.31,1.59-0.85,3.29-1.18c0.16-0.03,0.27-0.18,0.26-0.35
		c-0.02-0.16-0.15-0.29-0.32-0.29C268.56,105.7,263.57,105.78,263.05,107.36z"/>
	<path id="XMLID_6_" class="st3" d="M285.82,105.18c-1.4,0-2.73,0.7-2.79,0.73c-0.13,0.07-0.2,0.22-0.16,0.36s0.16,0.24,0.31,0.24
		c0.03,0,2.99,0.02,3.26,1.72c0.24,1.46-2.8,3.83-4,4.62c-0.13,0.09-0.18,0.25-0.12,0.39c0.05,0.12,0.17,0.2,0.3,0.2
		c0.02,0,0.04,0,0.07-0.01c0.28-0.06,6.92-1.52,6.22-5.39C288.48,105.68,286.99,105.18,285.82,105.18z"/>
	<path id="XMLID_5_" class="st3" d="M281.27,112.38c0.02-0.12-0.03-0.25-0.13-0.32l-1.59-1.11c-0.08-0.05-0.18-0.07-0.27-0.05
		c-0.02,0-1.68,0.44-4.1,0.71c-0.96,0.11-2.03,0.16-3.11,0.16c-2.42,0-4-0.28-4.23-0.49c-0.03-0.06-0.02-0.09-0.02-0.1
		c0.04-0.12,0.27-0.25,0.41-0.31c0.16-0.06,0.25-0.23,0.2-0.39c-0.05-0.16-0.22-0.26-0.38-0.22c-1.6,0.39-2.38,0.92-2.32,1.6
		c0.1,1.2,2.88,1.82,5.23,1.98c0.34,0.02,0.7,0.03,1.09,0.03l0,0c3.91,0,8.92-1.23,8.97-1.24
		C281.15,112.6,281.24,112.5,281.27,112.38z"/>
	<path id="XMLID_4_" class="st3" d="M269.26,114.96c0.12-0.08,0.17-0.23,0.13-0.36c-0.04-0.14-0.17-0.23-0.32-0.23
		c-0.21,0.01-2.09,0.09-2.23,1.29c-0.04,0.36,0.06,0.68,0.3,0.97c0.68,0.8,2.5,1.28,5.57,1.45c0.36,0.02,0.73,0.03,1.1,0.03
		c3.91,0,6.54-1.22,6.65-1.27c0.11-0.05,0.18-0.16,0.18-0.27c0.01-0.12-0.05-0.23-0.15-0.29l-2.01-1.23
		c-0.07-0.04-0.15-0.06-0.23-0.04c-0.01,0-1.29,0.27-3.22,0.53c-0.36,0.05-0.82,0.07-1.36,0.07c-1.93,0-4.07-0.31-4.48-0.52
		C269.2,115.05,269.21,115,269.26,114.96z"/>
	<path id="XMLID_3_" class="st3" d="M272.01,121.8c8.95-0.01,13.75-1.6,14.67-2.6c0.33-0.35,0.36-0.69,0.33-0.91
		c-0.07-0.54-0.56-0.87-0.62-0.9c-0.13-0.09-0.31-0.06-0.42,0.06c-0.1,0.12-0.11,0.3,0,0.42c0.06,0.07,0.09,0.19-0.08,0.36
		c-0.37,0.35-4.1,1.39-10.31,1.71c-0.85,0.04-1.74,0.07-2.65,0.07c-5.56,0-9.63-0.76-10.16-1.21c0.21-0.3,1.65-0.77,3.18-1.04
		c0.17-0.03,0.29-0.19,0.26-0.37s-0.19-0.29-0.36-0.27c-0.04,0.01-0.19,0.01-0.36,0.03c-2.53,0.15-5.44,0.5-5.6,1.8
		c-0.05,0.4,0.07,0.76,0.35,1.07C260.93,120.78,262.89,121.8,272.01,121.8L272.01,121.8z"/>
	<path id="XMLID_2_" class="st3" d="M288.44,119.49c-0.13-0.06-0.28-0.03-0.37,0.07c-0.01,0.01-1.36,1.42-5.4,2.25
		c-1.55,0.31-4.45,0.47-8.64,0.47s-8.18-0.16-8.22-0.17c-0.17-0.01-0.31,0.11-0.33,0.28c-0.02,0.16,0.08,0.32,0.24,0.36
		c0.04,0.01,4.22,0.99,9.94,0.99c2.74,0,5.41-0.22,7.93-0.66c4.7-0.82,5.03-3.15,5.04-3.25
		C288.64,119.68,288.56,119.54,288.44,119.49z"/>
</g>
</svg>
