<?xml version="1.0" encoding="utf-8"?>
<!-- Generator: Adobe Illustrator 25.2.0, SVG Export Plug-In . SVG Version: 6.00 Build 0)  -->
<svg version="1.1" id="Aspose.BarCode" xmlns="http://www.w3.org/2000/svg" xmlns:xlink="http://www.w3.org/1999/xlink" x="0px"
	 y="0px" viewBox="0 0 277 277" style="enable-background:new 0 0 277 277;" xml:space="preserve">
<style type="text/css">
	.st0{fill:#FFFFFF;}
	.st1{fill-rule:evenodd;clip-rule:evenodd;fill:#115AA2;}
	.st2{fill:#115AA2;}
</style>
<g id="C_x2B__x2B_">
	<path class="st0" d="M247.8,236.5c-31.2,37-130.6,30.5-130.6,30.5h-107V12.3H268V137C268,137,269.2,211.1,247.8,236.5z"/>
	<g>
		<path class="st1" d="M87.8,180.7c0-25.8,9-47.7,27.1-65.8c18-18.1,39.9-27.1,65.8-27.1c25.5,0,47.4,9,65.6,27.1s27.3,40,27.3,65.8
			c0,25.7-9.1,47.5-27.3,65.6c-18.2,18.2-40.1,27.3-65.6,27.3c-25.9,0-47.8-9.1-65.8-27.3C96.8,228.3,87.8,206.4,87.8,180.7"/>
		<path class="st1" d="M273.7,180.7h-10.9V23.9c0-4-1.4-6.7-4.3-8.1c-1-0.5-2.2-0.9-3.5-1.1l-1.6-0.2H23.8c-4.1,0-6.8,1.4-8.1,4.2
			c-0.8,1.6-1.3,3.4-1.3,5.2v229.5c0,4,1.4,6.7,4.2,8c1.6,0.8,3.3,1.3,5.2,1.4H176l4.8,10.9H20.4c-2.8,0-5.6-0.7-8.4-2.1
			c-5.6-2.8-8.4-7.7-8.4-14.8V20.6c0-2.8,0.7-5.6,2.2-8.4c2.8-5.6,7.7-8.4,14.7-8.4h236.4l2.6,0.3c2.1,0.3,4.1,0.9,5.8,1.9
			c5.6,2.8,8.4,7.7,8.4,14.7L273.7,180.7L273.7,180.7z"/>
		<g>
			<g>
				<path class="st2" d="M36.3,93.2V36h21.5c4.4,0,7.9,0.6,10.5,1.7c2.6,1.2,4.7,2.9,6.2,5.4c1.5,2.4,2.2,4.9,2.2,7.6
					c0,2.4-0.7,4.8-2,6.9c-1.3,2.2-3.3,3.9-6,5.2c3.5,1,6.1,2.7,8,5.2c1.9,2.4,2.8,5.3,2.8,8.7c0,2.7-0.6,5.2-1.7,7.5
					s-2.5,4.1-4.2,5.3c-1.7,1.3-3.8,2.2-6.3,2.8s-5.6,1-9.2,1H36.3V93.2z M43.9,60h12.4c3.4,0,5.8-0.2,7.2-0.7
					c1.9-0.6,3.4-1.5,4.4-2.9c1-1.3,1.5-3,1.5-5c0-1.9-0.5-3.6-1.4-5s-2.2-2.4-3.9-3c-1.7-0.5-4.6-0.8-8.7-0.8H43.9V60z M43.9,86.5
					h14.3c2.4,0,4.2-0.1,5.2-0.3c1.7-0.3,3.2-0.8,4.4-1.6c1.2-0.7,2.1-1.8,2.9-3.2c0.8-1.4,1.1-3,1.1-4.8c0-2.1-0.5-4-1.6-5.6
					s-2.6-2.7-4.6-3.3c-1.9-0.6-4.7-1-8.4-1H43.9V86.5z"/>
			</g>
		</g>
	</g>
	<g id="Bars_6_">
		<rect x="132.1" y="145" class="st0" width="11.6" height="60"/>
		<rect x="148.7" y="145" class="st0" width="6.8" height="60"/>
		<rect x="160.2" y="145" class="st0" width="6.8" height="60"/>
		<rect x="171.6" y="145" class="st0" width="4.4" height="60"/>
		<rect x="178" y="145" class="st0" width="6.4" height="60"/>
		<rect x="189.5" y="145" class="st0" width="3.9" height="60"/>
		<rect x="201.3" y="145" class="st0" width="6.7" height="60"/>
		<rect x="210" y="144.4" class="st0" width="3.3" height="60"/>
		<rect x="218.6" y="144.4" class="st0" width="7.2" height="60"/>
		<rect x="218.6" y="209.5" class="st0" width="7.2" height="6.7"/>
		<rect x="201.3" y="209.5" class="st0" width="12.2" height="6.7"/>
		<rect x="189.5" y="209.5" class="st0" width="6.1" height="6.7"/>
		<rect x="160.2" y="209.5" class="st0" width="6.8" height="6.7"/>
		<rect x="132.1" y="209.5" class="st0" width="6.8" height="6.7"/>
		<rect x="148.7" y="209.5" class="st0" width="6.8" height="6.7"/>
		<rect x="171.6" y="209.5" class="st0" width="12.6" height="6.7"/>
	</g>
</g>
</svg>
