<svg version="1.1" id="Aspose.Words_for_Android_via_Java" xmlns="http://www.w3.org/2000/svg" x="0" y="0" viewBox="0 0 272 272" style="enable-background:new 0 0 272 272" xml:space="preserve"><style>.st0{fill:#fff}.st1{fill-rule:evenodd;clip-rule:evenodd;fill:#c0bb2f}.st3{fill:#fdfdfd}</style><g id="Android_via_Java"><g id="Android"><path class="st0" d="m225.2 50.6-7.8-5H13.9l-7.8 7.8v204.1l5 6.6h152.1l62-78.5z"/><path class="st1" d="M72.6 191.8c0-21.9 7.7-40.6 23.1-56 15.3-15.4 34-23.1 56-23.1 21.7 0 40.3 7.7 55.9 23.1 15.5 15.4 23.3 34.1 23.3 56 0 21.8-7.8 40.5-23.3 55.9-15.5 15.5-34.1 23.3-55.9 23.3-22 0-40.7-7.8-56-23.3-15.4-15.4-23.1-34.1-23.1-55.9"/><path class="st1" d="M230.9 191.8h-9.3V58.3c0-3.4-1.2-5.7-3.7-6.9-.8-.4-1.8-.7-3-1l-1.4-.2H18.1c-3.5 0-5.8 1.2-6.9 3.6-.7 1.4-1.1 2.9-1.1 4.4v195.3c0 3.4 1.2 5.7 3.6 6.8 1.4.7 2.9 1.1 4.4 1.2h129.6l4.1 9.3H15.2c-2.4 0-4.8-.6-7.2-1.8-4.8-2.4-7.2-6.6-7.2-12.6v-201c0-2.4.6-4.8 1.8-7.2C5 43.4 9.2 41 15.1 41h201.2l2.2.2c1.8.3 3.5.8 5 1.6 4.8 2.4 7.2 6.6 7.2 12.5l.2 136.5z"/><path d="M80.5 122.3h-8.9l-8.4-29.7c-.4-1.3-.8-3.2-1.4-5.6s-.9-4.1-1-5.1c-.2 1.5-.6 3.3-1.1 5.7-.5 2.3-.9 4-1.3 5.2l-8.2 29.6h-8.9l-6.4-25-6.5-24.9h8.3l7.1 29c1.1 4.7 1.9 8.8 2.4 12.3.2-1.9.6-4.1 1.1-6.5.5-2.4 1-4.3 1.4-5.8l8.1-29.1h8.1l8.3 29.2c.8 2.7 1.6 6.8 2.5 12.1.3-3.3 1.2-7.4 2.5-12.4l7.1-29h8.3l-13.1 50z" style="fill:#c0bb2f"/><path class="st3" d="M103.2 152.4h96.3v7.2h-96.3zM103.2 177.3h96.3v7.2h-96.3zM103.2 201.4H169v7.2h-65.8zM103.2 226.2h35.1v7.2h-35.1z"/></g><circle cx="216.4" cy="56" r="55" style="fill:#dd4443"/><path class="st0" d="M205.8 73.6s-3.1 1.8 2.2 2.4c6.4.7 9.7.6 16.8-.7 0 0 1.8 1.1 4.5 2.2-15.9 6.8-36.1-.4-23.5-3.9m-1.9-8.9s-3.5 2.6 1.8 3.1c6.8.7 12.3.8 21.6-1 0 0 1.3 1.3 3.4 2-19.2 5.7-40.5.5-26.8-4.1m16.3-14.9c3.9 4.5-1 8.5-1 8.5s9.9-5.1 5.4-11.5c-4.2-6-7.5-8.9 10.1-19.2-.1 0-27.8 6.9-14.5 22.2"/><path class="st0" d="M241.1 80.2s2.2 1.9-2.5 3.4c-9.2 2.8-38 3.6-46 .1-2.8-1.3 2.5-3 4.2-3.4 1.8-.3 2.8-.3 2.8-.3-3.2-2.2-20.7 4.4-8.9 6.4 32.2 5.1 58.8-2.5 50.4-6.2m-33.9-24.6s-14.7 3.5-5.2 4.7c4 .5 12 .4 19.4-.2 6-.5 12.2-1.6 12.2-1.6s-2.2.9-3.7 2c-14.9 3.9-43.8 2.1-35.5-1.9 7.1-3.4 12.8-3 12.8-3m26.5 14.8c15.2-7.9 8.1-15.5 3.3-14.4-1.2.3-1.7.4-1.7.4s.4-.7 1.3-1c9.7-3.4 17.1 10-3.1 15.4-.3-.1.1-.3.2-.4m-9.2-59.3s8.4 8.4-7.9 21.3c-13.1 10.4-3 16.2 0 23.1-7.7-6.9-13.3-13-9.5-18.6 5.4-8.4 20.8-12.5 17.4-25.8"/><path class="st0" d="M208.8 91.7c14.6.9 37-.5 37.5-7.4 0 0-1 2.6-12 4.7-12.4 2.3-27.7 2.1-36.9.6-.2-.1 1.8 1.5 11.4 2.1"/></g></svg>