<?xml version="1.0" encoding="utf-8"?>
<!-- Generator: Adobe Illustrator 25.2.0, SVG Export Plug-In . SVG Version: 6.00 Build 0)  -->
<svg version="1.1" id="NET" xmlns="http://www.w3.org/2000/svg" xmlns:xlink="http://www.w3.org/1999/xlink" x="0px" y="0px"
	 viewBox="0 0 512 512" style="enable-background:new 0 0 512 512;" xml:space="preserve">
<style type="text/css">
	.st0{fill:#EF4047;}
</style>
<g id="Redaction">
	<g>
		<path class="st0" d="M287.1,125.5c0-7.8-6.2-13.9-13.9-13.9H92.7c-7.8,0-13.9,6.2-13.9,13.9v24.8c0,7.8,6.2,13.9,13.9,13.9h181
			c7.8,0,13.9-6.2,13.9-13.9v-24.8H287.1z M222.5,330.3l-68.6,67.5H253l19.1-17L249.4,357l-3.1,3.6l-7.8-7.8l3.1-3.6L222.5,330.3z
			 M301.5,418.4c0,11.8-9.2,21.7-21.2,21.7H78.1c-11.3,0-21.2-9.7-21.2-21.7V93.6c0-11.8,9.2-21.7,21.2-21.7h202.2
			c11.3,0,20.7,9.2,20.7,21.2h48.9c-0.5-39.7-31.4-71.7-69.6-71.7H78.1c-38.7,0-69.6,32.5-69.6,72.2v324.9
			c0,39.7,31.4,72.2,69.6,72.2h202.2c38.7,0,69.6-32.5,69.6-72.2v-9.2H301v9.2L301.5,418.4L301.5,418.4z M78.6,230.7
			c0,14.4,11.3,26.4,25.3,26.4h131l49.5-52.6H104C90.1,204.5,78.6,216.3,78.6,230.7z M490.3,100.3c-17.5-18-46.3-18-63.9,0
			L222,318.5l24.8,25.3l110.9-114c-3.6-5.2-6.2-11.8-6.2-18.6c0-17,13.4-30.9,30.4-30.9c6.8,0,12.8,2.6,18,6.2l57.8-59.4l7.8,7.8
			l-58.3,59.9c3.1,4.7,4.7,10.2,4.7,16.5c0,17-13.4,30.9-29.9,30.9c-5.7,0-11.3-1.6-16-4.7L255.1,352.1l31.9,32.5l203.8-218.2
			C507.8,148.2,507.8,118.4,490.3,100.3z M382,231.2c10.8,0,19.1-8.9,19.1-19.6S392.2,192,382,192c-10.8,0-19.1,8.9-19.1,19.6
			C362.9,222.5,371.1,231.2,382,231.2z"/>
	</g>
</g>
</svg>
