<?xml version="1.0" encoding="utf-8"?>
<!-- Generator: Adobe Illustrator 16.0.0, SVG Export Plug-In . SVG Version: 6.00 Build 0)  -->
<!DOCTYPE svg PUBLIC "-//W3C//DTD SVG 1.1 Tiny//EN" "http://www.w3.org/Graphics/SVG/1.1/DTD/svg11-tiny.dtd">
<svg version="1.1" baseProfile="tiny" xmlns="http://www.w3.org/2000/svg" xmlns:xlink="http://www.w3.org/1999/xlink" x="0px"
	 y="0px" width="26px" height="903.052px" viewBox="0 0 26 903.052" xml:space="preserve">
<g id="footer">
	<g id="Rss">
		<path id="svg_1_3_" fill="#838894" d="M6.535,522.318c1.939,0,3.764,0.758,5.133,2.137c1.372,1.377,2.129,3.213,2.129,5.167h2.988
			c0-5.675-4.599-10.292-10.25-10.292V522.318L6.535,522.318z M6.541,517.021c6.911,0,12.535,5.655,12.535,12.604h2.988
			c0-8.598-6.965-15.593-15.523-15.593V517.021z M10.673,527.537c0,1.144-0.927,2.07-2.069,2.07c-1.144,0-2.07-0.927-2.07-2.07
			c0-1.143,0.926-2.07,2.07-2.07C9.746,525.467,10.673,526.395,10.673,527.537z"/>
	</g>
	<g id="DEV">
		
			<path id="svg_5" fill="none" stroke="#838894" stroke-width="1.3287" stroke-linecap="round" stroke-linejoin="round" stroke-miterlimit="10" d="
			M20.155,499.33H8.453c-0.894,0-1.619-0.725-1.619-1.619V486.01c0-0.895,0.726-1.619,1.619-1.619h11.702
			c0.894,0,1.619,0.725,1.619,1.619v11.701C21.774,498.605,21.049,499.33,20.155,499.33z"/>
		<path id="svg_2_3_" fill="#838894" d="M11.957,490.676c0-0.643-0.407-1.613-1.617-1.613H8.724v5.646h1.583
			c1.255,0.002,1.65-0.971,1.65-1.613V490.676L11.957,490.676z M10.993,493.09c0,0.197-0.065,0.347-0.198,0.445
			c-0.133,0.1-0.266,0.148-0.397,0.148H9.802v-3.564h0.595c0.133,0,0.266,0.049,0.398,0.148c0.132,0.099,0.198,0.248,0.198,0.445
			V493.09L10.993,493.09z"/>
		<path id="svg_3_1_" fill="#838894" d="M15.393,490.07h-1.817v1.312h1.11v1.009h-1.11v1.311h1.818v1.01h-2.122
			c-0.381,0.01-0.697-0.291-0.707-0.672v-4.27c-0.01-0.381,0.292-0.696,0.673-0.705h2.156L15.393,490.07L15.393,490.07
			L15.393,490.07z"/>
		<path id="svg_4_1_" fill="#838894" d="M18.93,494.005c-0.45,1.05-1.258,0.841-1.619,0l-1.314-4.94h1.111l1.014,3.88l1.009-3.88
			h1.111L18.93,494.005L18.93,494.005L18.93,494.005z"/>
	</g>
	<g id="Insta">
		<path id="svg_2" fill="#838894" d="M14.31,457.709c-2.252,0-4.119,1.834-4.119,4.119s1.834,4.119,4.119,4.119
			c2.284,0,4.119-1.866,4.119-4.119C18.429,459.576,16.562,457.709,14.31,457.709z M14.31,464.467c-1.448,0-2.639-1.189-2.639-2.639
			c0-1.448,1.19-2.639,2.639-2.639c1.447,0,2.64,1.19,2.64,2.639C16.949,463.277,15.757,464.467,14.31,464.467z"/>
		<path id="svg_3" fill="#838894" d="M18.59,456.68c0.515,0,0.933,0.418,0.933,0.934s-0.418,0.934-0.933,0.934
			c-0.516,0-0.934-0.418-0.934-0.934S18.074,456.68,18.59,456.68z"/>
		<path id="svg_4" fill="#838894" d="M21.003,455.199c-0.836-0.869-2.027-1.319-3.379-1.319h-6.63c-2.799,0-4.666,1.866-4.666,4.667
			v6.596c0,1.385,0.451,2.574,1.352,3.443c0.869,0.838,2.028,1.256,3.348,1.256h6.564c1.384,0,2.543-0.451,3.38-1.256
			c0.868-0.836,1.318-2.027,1.318-3.41v-6.629C22.29,457.195,21.84,456.036,21.003,455.199z M20.874,465.176
			c0,0.998-0.354,1.802-0.934,2.349c-0.579,0.548-1.383,0.837-2.349,0.837h-6.564c-0.967,0-1.771-0.289-2.35-0.837
			c-0.579-0.579-0.869-1.384-0.869-2.382v-6.596c0-0.967,0.29-1.771,0.869-2.35c0.547-0.547,1.383-0.838,2.35-0.838h6.629
			c0.966,0,1.77,0.291,2.35,0.87c0.546,0.579,0.868,1.384,0.868,2.317V465.176L20.874,465.176z"/>
	</g>
	<g id="Tumblr">
		<path id="svg_1_5_" fill="#838894" d="M16.843,437.371c-0.464,0-0.881-0.109-1.238-0.326c-0.271-0.16-0.452-0.377-0.55-0.645
			c-0.102-0.271-0.142-0.876-0.142-1.823V430.6h3.772v-2.516h-3.772v-4.401H12.48c-0.106,0.845-0.295,1.757-0.57,2.304
			c-0.274,0.546-0.55,1.014-1.006,1.402c-0.455,0.389-1.006,0.703-1.646,0.916v2.295h1.887v5.518c0,0.748,0.078,1.316,0.231,1.71
			c0.157,0.394,0.437,0.767,0.841,1.116c0.405,0.35,0.896,0.617,1.466,0.806c0.574,0.188,1.234,0.283,1.98,0.283
			c0.657,0,1.191-0.067,1.758-0.2c0.565-0.134,1.198-0.365,1.894-0.691v-2.578C18.493,437.1,17.672,437.371,16.843,437.371
			L16.843,437.371z"/>
	</g>
	<g id="Pin">
		<path id="svg_2_2_" fill="#838894" d="M14.301,393.733c-4.475,0-8.102,3.626-8.102,8.101c0,3.318,1.994,6.168,4.849,7.42
			c-0.022-0.565-0.004-1.244,0.142-1.859c0.155-0.658,1.043-4.414,1.043-4.414s-0.26-0.518-0.26-1.283
			c0-1.199,0.695-2.096,1.563-2.096c0.737,0,1.093,0.553,1.093,1.215c0,0.742-0.473,1.85-0.716,2.875
			c-0.203,0.859,0.432,1.561,1.279,1.561c1.535,0,2.568-1.971,2.568-4.307c0-1.775-1.196-3.105-3.371-3.105
			c-2.457,0-3.988,1.834-3.988,3.881c0,0.705,0.209,1.203,0.535,1.588c0.149,0.176,0.171,0.248,0.116,0.451
			c-0.039,0.148-0.128,0.509-0.165,0.65c-0.055,0.206-0.221,0.279-0.406,0.203c-1.131-0.462-1.658-1.701-1.658-3.095
			c0-2.302,1.939-5.061,5.789-5.061c3.093,0,5.128,2.238,5.128,4.641c0,3.178-1.766,5.552-4.369,5.552
			c-0.875,0-1.698-0.473-1.979-1.01c0,0-0.472,1.867-0.57,2.227c-0.172,0.625-0.508,1.25-0.815,1.736
			c0.729,0.215,1.498,0.332,2.296,0.332c4.474,0,8.101-3.627,8.101-8.102S18.773,393.733,14.301,393.733L14.301,393.733z"/>
	</g>
	<g id="Git">
		<path id="svg_1_2_" fill="#838894" d="M17.044,372.955c-0.622,0-1.125,0.696-1.125,1.557c0,0.859,0.503,1.557,1.125,1.557
			c0.62,0,1.124-0.697,1.124-1.557C18.168,373.651,17.664,372.955,17.044,372.955z M20.958,368.904
			c0.128-0.315,0.135-2.109-0.549-3.828c0,0-1.565,0.172-3.936,1.799c-0.498-0.137-1.339-0.206-2.18-0.206s-1.682,0.068-2.179,0.206
			c-2.37-1.627-3.938-1.799-3.938-1.799c-0.682,1.719-0.676,3.513-0.548,3.828c-0.802,0.872-1.292,1.918-1.292,3.348
			c0,6.215,5.156,6.314,6.457,6.314c0.295,0,0.881,0.002,1.499,0.002c0.619,0,1.204-0.002,1.499-0.002
			c1.302,0,6.457-0.1,6.457-6.314C22.25,370.822,21.761,369.776,20.958,368.904z M14.318,377.803H14.27
			c-3.261,0-5.803-0.39-5.803-3.56c0-0.759,0.269-1.464,0.905-2.05c1.062-0.975,2.858-0.458,4.897-0.458
			c0.008,0,0.017,0,0.024-0.001c0.009,0.001,0.017,0.001,0.025,0.001c2.038,0,3.835-0.517,4.897,0.458
			c0.637,0.586,0.903,1.291,0.903,2.05C20.12,377.413,17.58,377.803,14.318,377.803z M11.545,372.955
			c-0.621,0-1.125,0.696-1.125,1.557c0,0.859,0.504,1.557,1.125,1.557s1.124-0.697,1.124-1.557
			C12.669,373.651,12.166,372.955,11.545,372.955z"/>
	</g>
	<g id="Stack">
		<path id="svg_1_4_" fill="#838894" d="M19.071,348.561v-4.363h1.453v5.816H7.395v-5.816h1.451v4.363H19.071L19.071,348.561z
			 M10.302,347.105h7.313v-1.455h-7.313V347.105z M10.479,343.801l7.137,1.492l0.308-1.41l-7.136-1.49L10.479,343.801z
			 M11.403,340.358l6.609,3.085l0.616-1.329l-6.611-3.085l-0.614,1.318V340.358L11.403,340.358z M13.252,337.1l5.599,4.668
			l0.924-1.104l-5.595-4.668l-0.919,1.102L13.252,337.1z M16.868,333.667l-1.189,0.882l4.362,5.86l1.189-0.882l-4.364-5.86H16.868z"
			/>
	</g>
	<g id="Linked">
		<path id="svg_2_1_" fill="#838894" d="M22.415,313.592v6.02h-3.489v-5.617c0-1.412-0.505-2.375-1.768-2.375
			c-0.966,0-1.539,0.649-1.792,1.277c-0.092,0.225-0.115,0.536-0.115,0.852v5.863h-3.492c0,0,0.047-9.514,0-10.499h3.491v1.489
			c-0.007,0.011-0.016,0.023-0.022,0.033h0.022v-0.033c0.464-0.715,1.293-1.734,3.146-1.734
			C20.693,308.865,22.415,310.367,22.415,313.592L22.415,313.592z M8.108,304.051c-1.194,0-1.976,0.785-1.976,1.815
			c0,1.007,0.759,1.813,1.93,1.813h0.023c1.216,0,1.974-0.807,1.974-1.813C10.037,304.836,9.302,304.051,8.108,304.051
			L8.108,304.051z M6.341,319.611H9.83v-10.498H6.341V319.611z"/>
	</g>
	<g id="YT">
		<title>Layer 1</title>
		<path id="svg_1" fill="#838894" d="M22.357,278.369c-0.101-1.117-0.987-2-2.104-2.098c-1.294-0.105-3.213-0.219-5.581-0.219
			c-2.851,0-5.004,0.115-6.395,0.225c-1.124,0.092-2.018,0.979-2.117,2.1c-0.086,0.896-0.16,2.08-0.16,3.492
			c0,1.375,0.074,2.539,0.158,3.424c0.102,1.121,0.995,2.006,2.117,2.096c1.391,0.109,3.544,0.226,6.396,0.226
			c2.368,0,4.287-0.111,5.581-0.22c1.117-0.096,2.005-0.979,2.104-2.096c0.085-0.893,0.159-2.068,0.159-3.465
			C22.517,280.437,22.442,279.261,22.357,278.369z M12.422,284.261v-4.854l4.788,2.428L12.422,284.261z"/>
	</g>
	<g id="TW">
		<path id="svg_1_6_" fill="#838894" d="M22.188,246.937c-0.585,0.259-1.208,0.433-1.866,0.514c0.671-0.402,1.188-1.04,1.43-1.798
			c-0.628,0.372-1.322,0.645-2.063,0.788c-0.594-0.634-1.439-1.03-2.371-1.03c-1.794,0-3.247,1.457-3.247,3.251
			c0,0.255,0.027,0.503,0.084,0.741c-2.7-0.135-5.096-1.43-6.695-3.398c-0.278,0.48-0.439,1.04-0.439,1.635
			c0,1.126,0.574,2.123,1.445,2.706c-0.533-0.013-1.036-0.161-1.473-0.405c0,0.013,0,0.026,0,0.04c0,1.576,1.121,2.888,2.607,3.187
			c-0.272,0.073-0.561,0.113-0.855,0.113c-0.209,0-0.413-0.02-0.611-0.061c0.413,1.293,1.613,2.231,3.036,2.258
			c-1.11,0.873-2.513,1.393-4.036,1.393c-0.261,0-0.52-0.017-0.773-0.047c1.436,0.932,3.143,1.469,4.974,1.469
			c5.978,0,9.245-4.954,9.245-9.251c0-0.142-0.004-0.282-0.011-0.419C21.201,248.161,21.752,247.588,22.188,246.937L22.188,246.937z
			"/>
	</g>
	<g id="FB">
		<path id="svg_1_1_" fill="#838894" d="M17.947,219.098h-2.481v-1.627c0-0.611,0.405-0.754,0.69-0.754c0.284,0,1.751,0,1.751,0
			v-2.688l-2.411-0.009c-2.677,0-3.286,2.004-3.286,3.286v1.791h-1.548v2.769h1.548c0,3.553,0,7.833,0,7.833h3.256
			c0,0,0-4.322,0-7.833h2.197L17.947,219.098z"/>
	</g>
	<path fill="#838894" d="M21.422,614.904h-1.483v0.372c0,0.484-0.394,0.876-0.877,0.876c-0.033,0-0.066-0.007-0.098-0.01
		c-0.001,0.001-0.002,0.002-0.004,0.003c-0.01-0.002-0.021-0.004-0.03-0.006c-0.025-0.004-0.052-0.008-0.076-0.013
		c-0.85-0.159-1.261-0.74-1.421-1.04c-0.006-0.009-0.011-0.02-0.018-0.031c-0.046-0.091-0.068-0.151-0.068-0.151h-0.016
		c-0.001-0.002-0.002-0.003-0.003-0.004c1.869-1.383,3.076-3.54,3.076-5.971c0-4.173-3.546-7.557-7.917-7.557
		c-4.373,0-7.918,3.384-7.918,7.557c0,4.174,3.545,7.557,7.918,7.557c0.701,0,1.378-0.095,2.026-0.259
		c0.087,0.173,0.174,0.351,0.262,0.538c0.598,1.108,1.77,1.861,3.116,1.861c1.955,0,3.54-1.585,3.54-3.54
		C21.431,615.026,21.425,614.966,21.422,614.904z M12.487,614.908c-1.299,0-2.445-0.653-3.13-1.646
		c-0.123-0.118-0.237-0.31-0.339-0.604c-0.001-0.004-0.001-0.008-0.003-0.011c-0.177-0.399-0.285-0.835-0.314-1.293
		c-0.325-1.96-0.107-4.148,0.006-5.018c0.006-0.063,0.017-0.126,0.026-0.188c0.018-0.125,0.03-0.197,0.03-0.197l0,0
		c0.346-1.741,1.882-3.054,3.725-3.054c1.842,0,3.378,1.313,3.725,3.054l0,0c0,0,0.809,4.237-0.173,6.504
		c-0.003,0.006-0.007,0.011-0.009,0.017c-0.028,0.072-0.067,0.141-0.1,0.211c-0.316-0.435-0.641-0.822-0.928-1.051
		c-1.004-0.802-2.916-1.459-4.962-0.161c0.415,1.137,0.415,1.137,0.415,1.137l0.053-0.03c0.259-0.128,1.452-0.515,3.157,2.144
		C13.293,614.843,12.898,614.908,12.487,614.908z"/>
</g>
<g id="top">
	<path id="search" fill="#FFFFFF" d="M20.974,17.63l-3.411-3.411c0.705-1.063,1.118-2.335,1.118-3.702c0-3.705-3.015-6.72-6.72-6.72
		c-3.706,0-6.72,3.015-6.72,6.72s3.014,6.72,6.72,6.72c1.367,0,2.64-0.413,3.702-1.118l3.411,3.412c0.523,0.524,1.376,0.524,1.899,0
		C21.499,19.005,21.499,18.156,20.974,17.63z M7.257,10.517c0-2.594,2.11-4.704,4.704-4.704s4.703,2.11,4.703,4.704
		c0,2.594-2.109,4.704-4.703,4.704S7.257,13.111,7.257,10.517z"/>
	<g id="user_1_">
		<path fill="#FFFFFF" d="M16.694,42.134c-1.94,1.702-4.84,1.702-6.781,0c-2.665,1.296-4.358,3.999-4.361,6.962
			c0,0.286,0.231,0.517,0.517,0.517h14.47c0.286,0,0.518-0.231,0.518-0.517C21.053,46.133,19.359,43.431,16.694,42.134z"/>
		<circle fill="#FFFFFF" cx="13.305" cy="38.243" r="4.135"/>
	</g>
	<path id="Signout_1_" fill="#FFFFFF" d="M11.897,197.61c0,0.028,0.004,0.101,0.011,0.214c0.007,0.114,0.009,0.209,0.006,0.283
		c-0.004,0.075-0.015,0.158-0.032,0.252c-0.019,0.092-0.053,0.162-0.106,0.208s-0.127,0.069-0.221,0.069h-3.42
		c-0.848,0-1.574-0.301-2.176-0.903c-0.602-0.603-0.903-1.327-0.903-2.176v-7.526c0-0.85,0.301-1.574,0.903-2.176
		c0.603-0.604,1.328-0.904,2.176-0.904h3.42c0.094,0,0.174,0.034,0.241,0.102c0.067,0.068,0.102,0.148,0.102,0.241
		c0,0.028,0.004,0.1,0.011,0.214c0.007,0.113,0.009,0.208,0.006,0.283c-0.004,0.074-0.015,0.158-0.032,0.251
		c-0.019,0.093-0.053,0.162-0.106,0.208c-0.054,0.047-0.127,0.07-0.221,0.07h-3.42c-0.471,0-0.874,0.167-1.208,0.502
		c-0.335,0.336-0.503,0.738-0.503,1.209v7.526c0,0.471,0.167,0.874,0.503,1.208c0.334,0.335,0.737,0.503,1.208,0.503h3.335
		l0.123,0.011l0.123,0.031l0.085,0.06l0.076,0.097L11.897,197.61z M21.819,191.794c0,0.186-0.067,0.346-0.203,0.481l-5.815,5.816
		c-0.137,0.135-0.296,0.203-0.481,0.203s-0.346-0.068-0.481-0.203c-0.136-0.136-0.203-0.296-0.203-0.481v-3.079h-4.79
		c-0.186,0-0.346-0.068-0.481-0.203c-0.136-0.135-0.204-0.296-0.204-0.48v-4.105c0-0.186,0.068-0.346,0.204-0.482
		c0.135-0.135,0.295-0.203,0.481-0.203h4.79v-3.078c0-0.186,0.067-0.346,0.203-0.481s0.296-0.203,0.481-0.203
		s0.345,0.067,0.481,0.203l5.815,5.815C21.752,191.448,21.819,191.609,21.819,191.794z"/>
	<g id="Upgrade_1_">
		
			<polyline id="Done__x2014__Displayed_on_the_left_side_of_a_contextual_action_bar__x28_CAB_x29__to_allow_the_user_to_dismiss_it._1_" fill="none" stroke="#FFFFFF" stroke-width="2.3917" stroke-linecap="round" stroke-linejoin="round" stroke-miterlimit="10" points="
			19.229,158.066 12.015,164.991 8.841,161.816 		"/>
		<path id="upgrade_1_" fill="#FFFFFF" d="M18.974,162.516c-0.361,2.813-2.813,5.049-5.699,5.049c-3.174,0-5.77-2.596-5.77-5.771
			c0-3.173,2.596-5.771,5.77-5.771c1.01,0,1.947,0.289,2.813,0.721l1.082-1.082c-1.153-0.648-2.453-1.082-3.896-1.082
			c-3.968,0-7.214,3.246-7.214,7.214s3.246,7.214,7.214,7.214c3.751,0,6.781-2.813,7.142-6.492H18.974z"/>
	</g>
	<path id="Carrt_1_" fill="#FFFFFF" d="M11.2,138.25c0,0.336-0.122,0.627-0.367,0.873c-0.246,0.244-0.536,0.367-0.873,0.367
		c-0.335,0-0.626-0.123-0.872-0.367c-0.246-0.246-0.369-0.537-0.369-0.873s0.123-0.626,0.369-0.871
		c0.245-0.246,0.536-0.369,0.872-0.369c0.336,0,0.626,0.123,0.873,0.369C11.078,137.624,11.2,137.914,11.2,138.25z M19.882,138.25
		c0,0.336-0.123,0.627-0.368,0.873c-0.246,0.244-0.536,0.367-0.872,0.367s-0.626-0.123-0.872-0.367
		c-0.245-0.246-0.368-0.537-0.368-0.873s0.123-0.626,0.368-0.871c0.246-0.246,0.536-0.369,0.872-0.369s0.626,0.123,0.872,0.369
		C19.759,137.624,19.882,137.914,19.882,138.25z M21.121,127.709v4.961c0,0.154-0.053,0.292-0.16,0.412
		c-0.105,0.119-0.236,0.188-0.392,0.208l-10.115,1.182c0.085,0.388,0.126,0.614,0.126,0.679c0,0.104-0.077,0.31-0.232,0.619h8.914
		c0.167,0,0.313,0.063,0.436,0.185c0.123,0.123,0.185,0.269,0.185,0.437s-0.062,0.313-0.185,0.436
		c-0.122,0.123-0.269,0.184-0.436,0.184H9.34c-0.168,0-0.313-0.061-0.436-0.184c-0.122-0.123-0.184-0.268-0.184-0.436
		c0-0.072,0.026-0.174,0.078-0.306s0.104-0.249,0.155-0.349c0.052-0.101,0.121-0.229,0.209-0.388
		c0.086-0.158,0.137-0.253,0.15-0.286l-1.715-7.973H5.62c-0.168,0-0.313-0.063-0.436-0.186C5.061,126.782,5,126.637,5,126.469
		s0.061-0.313,0.184-0.436s0.268-0.184,0.436-0.184H8.1c0.104,0,0.196,0.021,0.276,0.063s0.144,0.092,0.189,0.15
		c0.045,0.058,0.087,0.137,0.126,0.237s0.064,0.184,0.078,0.252c0.013,0.067,0.031,0.163,0.053,0.286
		c0.023,0.122,0.037,0.206,0.044,0.252h11.636c0.168,0,0.313,0.061,0.437,0.184C21.061,127.396,21.121,127.541,21.121,127.709z"/>
	<g id="Order_1_" transform="matrix(1.4033843,0,0,1.3953112,96.113039,8.7429717)">
		<g id="g1584_1_" transform="matrix(0.82034858,0,0,0.81914972,-1000.8153,8.5908661)">
			
				<path id="path1325_1_" fill="none" stroke="#FFFFFF" stroke-width="1.435" stroke-linecap="round" stroke-linejoin="round" stroke-miterlimit="6.2" d="
				M1152.964,68.382v8.98h-9.81V64.603l0,0h6.031"/>
			<path id="rect1297_1_" fill="none" stroke="#FFFFFF" stroke-width="1.435" stroke-linecap="round" stroke-linejoin="round" d="
				M1152.833,68.513h-3.648c-0.072,0-0.131-0.059-0.131-0.131v-3.648c0-0.073,0.058-0.131,0.131-0.131l3.779,3.779
				C1152.964,68.454,1152.905,68.513,1152.833,68.513z"/>
		</g>
		<path id="path1343_1_" fill="none" stroke="#FFFFFF" stroke-width="1.435" stroke-linecap="round" stroke-linejoin="round" d="
			M-61.264,68.338h4.653"/>
		<path id="path1345_1_" fill="none" stroke="#FFFFFF" stroke-width="1.435" stroke-linecap="round" stroke-linejoin="round" d="
			M-61.264,66.618h4.653"/>
		<path id="path1347_1_" fill="none" stroke="#FFFFFF" stroke-width="1.435" stroke-linecap="round" stroke-linejoin="round" d="
			M-61.264,70.058h4.653"/>
	</g>
	<path id="setting_1_" fill="#FFFFFF" d="M19.646,70.454l-1.196-0.398c-0.081-0.248-0.181-0.489-0.295-0.723l0.583-1.12
		c0.131-0.265,0.078-0.582-0.13-0.791l-0.996-0.977c-0.204-0.215-0.522-0.276-0.792-0.15l-1.12,0.563
		c-0.233-0.115-0.475-0.214-0.723-0.295l-0.364-1.176c-0.098-0.292-0.379-0.484-0.688-0.468H12.55c-0.295,0-0.558,0.188-0.652,0.468
		l-0.398,1.196c-0.248,0.081-0.49,0.181-0.724,0.296l-1.12-0.584c-0.264-0.131-0.582-0.078-0.791,0.13l-0.976,0.997
		c-0.216,0.203-0.277,0.521-0.151,0.791l0.563,1.12c-0.116,0.233-0.214,0.475-0.295,0.723l-1.196,0.398
		c-0.272,0.101-0.451,0.362-0.447,0.653v1.375c0,0.295,0.188,0.558,0.468,0.652l1.196,0.398c0.082,0.248,0.181,0.489,0.296,0.723
		l-0.583,1.121c-0.131,0.264-0.078,0.582,0.13,0.791l0.977,0.975c0.206,0.227,0.537,0.288,0.811,0.152l1.12-0.564
		c0.233,0.116,0.476,0.215,0.724,0.296l0.398,1.196c0.101,0.271,0.362,0.451,0.652,0.447h1.375c0.296,0,0.559-0.188,0.653-0.468
		l0.398-1.196c0.248-0.081,0.489-0.18,0.723-0.295l1.12,0.563c0.265,0.13,0.583,0.077,0.792-0.132l0.975-0.975
		c0.216-0.205,0.277-0.523,0.151-0.791l-0.563-1.121c0.116-0.233,0.215-0.475,0.296-0.723l1.176-0.364
		c0.292-0.099,0.484-0.379,0.468-0.687v-1.375C20.113,70.813,19.926,70.549,19.646,70.454z M13.237,74.545
		c-1.519,0-2.751-1.232-2.751-2.75c0-1.519,1.232-2.751,2.751-2.751s2.751,1.232,2.751,2.751
		C15.988,73.313,14.756,74.545,13.237,74.545z"/>
	<g>
		<path fill="#838894" d="M20.249,547.747l-6.805,6.806c-0.088,0.087-0.22,0.146-0.336,0.146c-0.117,0-0.248-0.059-0.336-0.146
			l-6.805-6.806c-0.088-0.087-0.146-0.219-0.146-0.335c0-0.117,0.058-0.249,0.146-0.336l0.73-0.73
			c0.088-0.088,0.205-0.146,0.336-0.146c0.117,0,0.248,0.059,0.336,0.146l5.739,5.738l5.739-5.738
			c0.087-0.088,0.219-0.146,0.336-0.146c0.116,0,0.248,0.059,0.335,0.146l0.73,0.73c0.088,0.087,0.146,0.219,0.146,0.336
			C20.396,547.528,20.337,547.66,20.249,547.747z"/>
	</g>
	<g>
		<path fill="#838894" d="M5.968,580.866l6.805-6.806c0.088-0.087,0.22-0.146,0.336-0.146c0.117,0,0.248,0.059,0.336,0.146
			l6.805,6.806c0.088,0.087,0.146,0.219,0.146,0.335c0,0.117-0.058,0.249-0.146,0.336l-0.73,0.73
			c-0.088,0.088-0.205,0.146-0.336,0.146c-0.117,0-0.248-0.059-0.336-0.146l-5.739-5.738l-5.739,5.738
			c-0.087,0.088-0.219,0.146-0.336,0.146c-0.116,0-0.248-0.059-0.335-0.146l-0.73-0.73c-0.088-0.087-0.146-0.219-0.146-0.336
			C5.822,581.085,5.88,580.953,5.968,580.866z"/>
	</g>
</g>
</svg>
