<?xml version="1.0" encoding="utf-8"?>
<!-- Generator: Adobe Illustrator 25.2.0, SVG Export Plug-In . SVG Version: 6.00 Build 0)  -->
<svg version="1.1" id="Layer_1" xmlns="http://www.w3.org/2000/svg" xmlns:xlink="http://www.w3.org/1999/xlink" x="0px" y="0px"
	 viewBox="0 0 320 320" style="enable-background:new 0 0 320 320;" xml:space="preserve">
<style type="text/css">
	.st0{fill:none;stroke:#EFEFEF;stroke-linecap:round;stroke-linejoin:round;stroke-miterlimit:10;stroke-dasharray:4,8;}
	.st1{fill:#FFFFFF;}
	.st2{fill:#E04645;}
	.st3{fill-rule:evenodd;clip-rule:evenodd;fill:#E04645;}
	.st4{fill:none;stroke:#FFFFFF;stroke-width:3.6835;}
	.st5{fill:none;stroke:#FFFFFF;stroke-width:3.3883;stroke-miterlimit:10;}
	.st6{fill:#EFEFEF;}
	.st7{fill:#DEDFDF;}
	.st8{fill:#4296D2;}
	.st9{display:none;fill:#FFFFFF;}
</style>
<circle class="st0" cx="154.2" cy="163.2" r="123.7"/>
<g id="_x2E_NET_1_">
	<polygon class="st1" points="287.4,95.8 101.7,95.8 97.8,101.7 97.8,283.1 101.2,289.5 227,289.5 293.8,218.6 293.8,103.7 	"/>
	<g id="Aspose.AutoCad">
		<g>
			<path class="st2" d="M132.7,157.1h-7v-36.9h-12.6v-6h32.3v6h-12.6L132.7,157.1L132.7,157.1z"/>
			<path class="st2" d="M160.9,157.6c-5,0-9-1.5-11.8-4.4c-2.8-2.9-4.3-7-4.3-12.2c0-5.3,1.3-9.5,4-12.5c2.6-3,6.3-4.5,10.9-4.5
				c4.3,0,7.7,1.3,10.2,3.9c2.5,2.6,3.7,6.2,3.7,10.7v3.7h-21.6c0.1,3.2,1,5.6,2.6,7.3c1.6,1.7,3.9,2.5,6.8,2.5
				c1.9,0,3.7-0.2,5.4-0.5c1.7-0.4,3.4-1,5.3-1.8v5.6c-1.7,0.8-3.4,1.4-5.1,1.7S163.1,157.6,160.9,157.6z M159.6,129.3
				c-2.2,0-3.9,0.7-5.3,2.1c-1.3,1.4-2.1,3.4-2.4,6.1h14.7c0-2.7-0.7-4.7-1.9-6.1S161.8,129.3,159.6,129.3z"/>
		</g>
		<g id="Layer_9_143_">
			<g>
				<path class="st3" d="M157.2,224.5c0-19.6,6.9-36.2,20.6-49.9c13.7-13.7,30.3-20.6,50-20.6c19.4,0,36,6.9,49.9,20.6
					s20.8,30.4,20.8,49.9c0,19.5-6.9,36.1-20.8,49.8c-13.8,13.8-30.5,20.7-49.9,20.7c-19.7,0-36.3-6.9-50-20.7
					C164.1,260.5,157.2,243.9,157.2,224.5z"/>
			</g>
		</g>
		<g>
			<g id="Layer_3_97_">
				<g>
					<path class="st3" d="M298.4,224.5h-8.3v-119c0-3-1.1-5.1-3.3-6.1c-0.8-0.4-1.6-0.7-2.6-0.9l-1.2-0.1H108.5
						c-3.1,0-5.1,1.1-6.1,3.2c-0.6,1.2-1,2.5-1,3.9v174.2c0,3,1.1,5.1,3.2,6.1c1.2,0.6,2.5,1,3.9,1.1h115.7l3.6,8.3H105.9
						c-2.1,0-4.3-0.5-6.4-1.6c-4.3-2.1-6.4-5.9-6.4-11.3V102.9c0-2.1,0.5-4.3,1.6-6.4c2.1-4.3,5.9-6.4,11.2-6.4h179.7l2,0.2
						c1.6,0.2,3.1,0.7,4.4,1.4c4.3,2.1,6.4,5.9,6.4,11.2L298.4,224.5L298.4,224.5z"/>
				</g>
			</g>
		</g>
	</g>
	<g>
		<g>
			<path class="st4" d="M242.3,207.1v9.6h-1c-0.6-2.2-1.2-3.8-1.9-4.8c-0.7-1-1.6-1.7-2.8-2.3c-0.7-0.3-1.8-0.6-3.5-0.6h-2.7v27.6
				c0,1.8,0.1,3,0.3,3.4c0.2,0.5,0.6,0.9,1.2,1.2c0.6,0.3,1.4,0.5,2.4,0.5h1.2v1h-18.7v-1h1.2c1,0,1.9-0.2,2.5-0.6
				c0.5-0.2,0.8-0.7,1.1-1.3c0.2-0.4,0.3-1.5,0.3-3.3V209h-2.6c-2.4,0-4.2,0.6-5.2,1.7c-1.5,1.4-2.5,3.4-2.9,6.1h-1v-9.6H242.3
				L242.3,207.1z"/>
			<g>
				<polygon class="st1" points="214.6,211 210.9,212.2 210.9,207.6 215.6,207.8 				"/>
				<polygon class="st1" points="238.1,211 241.7,212.2 241.7,207.6 237.1,207.8 				"/>
				<rect x="223.3" y="208.2" class="st1" width="6" height="2.1"/>
			</g>
		</g>
		<g>
			<g>
				<rect x="191.2" y="189.5" class="st5" width="10" height="10"/>
				<rect x="191.2" y="249.5" class="st5" width="10" height="10"/>
				<rect x="251.3" y="189.5" class="st5" width="10" height="10"/>
				<rect x="251.3" y="249.5" class="st5" width="10" height="10"/>
			</g>
			<g>
				<g>
					<rect x="204.6" y="192.4" class="st1" width="4.3" height="4.3"/>
					<rect x="214.4" y="192.4" class="st1" width="4.3" height="4.3"/>
					<rect x="224.1" y="192.4" class="st1" width="4.3" height="4.3"/>
					<rect x="233.8" y="192.4" class="st1" width="4.3" height="4.3"/>
					<rect x="243.7" y="192.4" class="st1" width="4.3" height="4.3"/>
				</g>
				<g>
					<rect x="204.5" y="252.4" class="st1" width="4.3" height="4.3"/>
					<rect x="214.3" y="252.4" class="st1" width="4.3" height="4.3"/>
					<rect x="224" y="252.4" class="st1" width="4.3" height="4.3"/>
					<rect x="233.6" y="252.4" class="st1" width="4.3" height="4.3"/>
					<rect x="243.5" y="252.4" class="st1" width="4.3" height="4.3"/>
				</g>
				<g>
					<rect x="194.1" y="241.8" class="st1" width="4.3" height="4.3"/>
					<rect x="194.1" y="232.1" class="st1" width="4.3" height="4.3"/>
					<rect x="194.1" y="222.4" class="st1" width="4.3" height="4.3"/>
					<rect x="194.1" y="212.8" class="st1" width="4.3" height="4.3"/>
					<rect x="194.1" y="202.9" class="st1" width="4.3" height="4.3"/>
				</g>
				<g>
					<rect x="254.2" y="241.8" class="st1" width="4.3" height="4.3"/>
					<rect x="254.2" y="232.1" class="st1" width="4.3" height="4.3"/>
					<rect x="254.2" y="222.3" class="st1" width="4.3" height="4.3"/>
					<rect x="254.2" y="212.7" class="st1" width="4.3" height="4.3"/>
					<rect x="254.2" y="202.8" class="st1" width="4.3" height="4.3"/>
				</g>
			</g>
		</g>
	</g>
</g>
<g>
	<path class="st6" d="M274.8,142c-19,0-34.5-15.5-34.5-34.5s15.5-34.5,34.5-34.5s34.5,15.5,34.5,34.5S293.9,142,274.8,142z"/>
	<path class="st7" d="M274.8,74.4c18.2,0,33,14.8,33,33s-14.8,33-33,33s-33-14.8-33-33S256.6,74.4,274.8,74.4 M274.8,71.4
		c-19.9,0-36,16.1-36,36s16.1,36,36,36s36-16.1,36-36S294.7,71.4,274.8,71.4L274.8,71.4z"/>
</g>
<g>
	<g>
		<polygon class="st8" points="212.9,47.1 231.2,48.2 229.8,65.2 222.6,70.2 215.4,66.7 		"/>
		<polygon class="st8" points="159.3,50.4 163.4,50.4 164.8,47.1 165.4,27.7 158.8,23.9 146.3,23.9 145.3,38.1 145.8,50 		"/>
		<polygon class="st8" points="89,54.9 82.1,48.7 70.4,49.1 69.9,74.9 70.7,75.8 89,75.8 		"/>
		<polygon class="st8" points="46.5,116.5 40.3,110.3 28.1,110.3 28.1,137.2 46.5,137.6 		"/>
		<polygon class="st8" points="51,191.1 44.9,185.6 28.7,185.3 27.2,187.1 27.2,208.7 50.5,209.1 		"/>
		<polygon class="st8" points="78.8,247.1 72.8,241.1 58.4,240.7 59,268 77.7,268 		"/>
	</g>
	<g>
		<g>
			<path class="st6" d="M210.8,45.1h22.5l-2.1,23.2l-9.2,3.1l-9.2-3.1L210.8,45.1z M228.8,52.6l0.3-2.8H215l0.7,8.5h9.8l-0.4,3.6
				l-3.1,0.8l-3.2-0.8l-0.2-2.2h-2.8l0.4,4.4l5.8,1.6h0.1l5.7-1.6l0.8-8.7h-10.3l-0.2-2.9L228.8,52.6L228.8,52.6z"/>
		</g>
		<g>
			<path class="st6" d="M165.4,27.7c0.6,0.5,0.8,1.2,0.8,2v19.5c0,0.8-0.3,1.4-0.8,2c-0.6,0.5-1.2,0.8-2,0.8h-16.9
				c-0.8,0-1.4-0.3-2-0.8c-0.6-0.5-0.8-1.2-0.8-2V24.8c0-0.8,0.3-1.4,0.8-2s1.2-0.8,2-0.8h11.9c0.8,0,1.4,0.3,2,0.8L165.4,27.7z
				 M146.6,49.1h16.9V32.2h-6.1c-0.4,0-0.7-0.1-1-0.4c-0.3-0.3-0.4-0.6-0.4-1v-6.1h-9.4L146.6,49.1
				C146.6,49.1,146.6,49.1,146.6,49.1z M149.3,33.1c0.6-0.5,1.2-0.8,2-0.8s1.4,0.3,2,0.8s0.8,1.2,0.8,2c0,0.8-0.3,1.5-0.8,2
				c-0.6,0.5-1.2,0.8-2,0.8s-1.4-0.3-2-0.8c-0.6-0.5-0.8-1.2-0.8-2S148.7,33.6,149.3,33.1z M148.4,46.3v-3.8l2.3-2.3
				c0.3-0.3,0.6-0.3,0.9,0l2.3,2.3l5.2-5.2c0.3-0.3,0.6-0.3,0.9,0l1.4,1.4v7.5H148.4z M163.2,29.4l-4.4-4.4v4.5
				C158.8,29.4,163.2,29.4,163.2,29.4z"/>
		</g>
		<g>
			<path class="st6" d="M90,53.4c0.6,0.5,0.8,1.2,0.8,2v19.5c0,0.8-0.3,1.4-0.8,2c-0.6,0.6-1.2,0.8-2,0.8H71.1c-0.8,0-1.4-0.3-2-0.8
				c-0.6-0.6-0.8-1.2-0.8-2V50.5c0-0.8,0.3-1.4,0.8-2c0.6-0.5,1.2-0.8,2-0.8H83c0.8,0,1.4,0.3,2,0.8L90,53.4z M71.1,74.8H88V58h-6.1
				c-0.4,0-0.7-0.1-1-0.4c-0.3-0.3-0.4-0.6-0.4-1v-6.1h-9.4V74.8z M83.5,60.8c0.3,0,0.5,0.1,0.6,0.3s0.1,0.5,0,0.7
				c-1.4,2.4-2.3,3.9-2.7,4.6l2.7,4.6c0.2,0.2,0.2,0.5,0,0.7C84,71.9,83.8,72,83.5,72h-1.7c-0.3,0-0.5-0.1-0.6-0.3
				c-0.1-0.1-0.6-1.2-1.7-3.4c-0.5,1.1-1,2.2-1.7,3.4c-0.1,0.2-0.3,0.3-0.6,0.3h-1.7c-0.3,0-0.5-0.1-0.6-0.3c-0.1-0.2-0.1-0.5,0-0.7
				l2.7-4.6L75,61.8c-0.2-0.2-0.2-0.5,0-0.7s0.3-0.3,0.6-0.3h1.7c0.3,0,0.5,0.1,0.6,0.3c0.3,0.7,0.9,1.8,1.6,3.4
				c0.3-0.9,0.9-2,1.7-3.4c0.1-0.2,0.3-0.3,0.6-0.3C81.8,60.8,83.5,60.8,83.5,60.8z M87.7,55.2l-4.4-4.5v4.5H87.7z"/>
		</g>
		<g>
			<path class="st6" d="M47.5,115c0.5,0.6,0.8,1.2,0.8,2v19.4c0,0.8-0.3,1.4-0.8,2s-1.2,0.8-2,0.8H28.6c-0.8,0-1.5-0.3-2-0.8
				c-0.5-0.6-0.8-1.2-0.8-2v-24.4c0-0.8,0.3-1.4,0.8-2c0.5-0.6,1.2-0.8,2-0.8h12c0.8,0,1.4,0.3,2,0.8L47.5,115z M28.6,136.5h16.9
				v-16.9h-6.1c-0.4,0-0.7-0.1-1-0.4c-0.3-0.3-0.4-0.6-0.4-1v-6.1h-9.4C28.6,112.1,28.6,136.5,28.6,136.5z M41.5,124.3h0.9
				c0.2,0,0.4,0.1,0.6,0.3c0.1,0.2,0.2,0.4,0.2,0.6c-0.4,1.5-1.1,4.1-2,8c-0.1,0.4-0.3,0.5-0.7,0.5H39c-0.4,0-0.6-0.2-0.7-0.5
				c-0.3-1.1-0.6-2.5-1-4.2l-0.2-1c0,0.3-0.1,0.6-0.2,1l-1,4.2c-0.1,0.4-0.3,0.5-0.6,0.5h-1.5c-0.4,0-0.6-0.2-0.7-0.5
				c-0.1-0.5-0.4-1.8-0.9-3.8c-0.5-2.1-0.8-3.5-1-4.1c-0.1-0.2,0-0.4,0.1-0.6c0.2-0.2,0.3-0.3,0.5-0.3h1c0.4,0,0.6,0.2,0.7,0.6
				c0.7,3.7,1.1,5.7,1.1,5.8c0,0,0,0.1,0.1,0.2c0-0.2,0.5-2.3,1.4-6.1c0.1-0.3,0.3-0.5,0.7-0.5h0.8c0.4,0,0.6,0.2,0.7,0.5
				c0.9,3.8,1.4,5.7,1.4,5.9c0,0,0,0.1,0,0.2c0-0.2,0.5-2.2,1.2-6C40.9,124.5,41.1,124.3,41.5,124.3z M45.3,116.8l-4.5-4.4v4.4H45.3
				z"/>
		</g>
		<g>
			<path class="st6" d="M51.2,190.1c0.5,0.6,0.8,1.2,0.8,2v15.7c0,0.8-0.3,1.4-0.8,2c-0.5,0.6-1.2,0.8-2,0.8H28.6
				c-0.8,0-1.5-0.3-2-0.8c-0.5-0.6-0.8-1.2-0.8-2v-20.6c0-0.8,0.3-1.4,0.8-2s1.2-0.8,2-0.8h15.7c0.8,0,1.4,0.3,2,0.8L51.2,190.1z
				 M48.9,207.8c0.2,0,0.3-0.1,0.3-0.4v-15.2c0-0.1,0-0.2-0.1-0.2l-4.6-4.6v5.9c0,0.4-0.1,0.7-0.4,1c-0.3,0.3-0.6,0.4-1,0.4H32.8
				c-0.4,0-0.7-0.1-1-0.4c-0.3-0.3-0.4-0.6-0.4-1v-6.1H29c-0.2,0-0.4,0.1-0.4,0.4v19.9c0,0.2,0.1,0.4,0.4,0.4L48.9,207.8L48.9,207.8
				z M35.3,197.6c1-1,2.2-1.5,3.6-1.5s2.6,0.5,3.6,1.5c1,1,1.5,2.2,1.5,3.6s-0.5,2.6-1.5,3.6c-1,1-2.2,1.5-3.6,1.5s-2.6-0.5-3.6-1.5
				c-1-1-1.5-2.2-1.5-3.6S34.3,198.6,35.3,197.6z M41.8,187.1h-7.5v4.7h7.5V187.1z M37.3,202.9c0.5,0.4,1,0.7,1.7,0.7
				c0.7,0,1.2-0.2,1.7-0.7c0.5-0.4,0.7-1,0.7-1.7c0-0.7-0.2-1.2-0.7-1.7c-0.5-0.4-1-0.7-1.7-0.7c-0.7,0-1.2,0.2-1.7,0.7
				c-0.5,0.4-0.7,1-0.7,1.7C36.6,201.9,36.8,202.4,37.3,202.9z"/>
		</g>
		<g>
			<path class="st6" d="M79.3,245.6c0.6,0.6,0.8,1.2,0.8,2V267c0,0.8-0.3,1.4-0.8,2s-1.2,0.8-2,0.8H60.4c-0.8,0-1.5-0.3-2-0.8
				c-0.5-0.5-0.8-1.2-0.8-2v-24.4c0-0.8,0.3-1.4,0.8-2c0.5-0.6,1.2-0.8,2-0.8h12c0.8,0,1.4,0.3,2,0.8L79.3,245.6z M77.3,267v-16.9
				h-6.1c-0.4,0-0.7-0.1-1-0.4c-0.3-0.3-0.4-0.6-0.4-1v-6.1h-9.4V267H77.3z M66.4,260.3c0.2,0.2,0.2,0.5,0,0.8l-1,1
				c-0.1,0.1-0.2,0.2-0.4,0.2c-0.1,0-0.2-0.1-0.3-0.2l-3.3-3.2c-0.3-0.2-0.3-0.5,0-0.7l3.3-3.2c0.3-0.3,0.5-0.3,0.8,0l1,1v0.1
				c0.2,0.2,0.2,0.5,0,0.7l-1.9,1.7L66.4,260.3z M69.9,252.4l1.4,0.4c0.3,0.1,0.5,0.3,0.3,0.6l-3.2,11c-0.1,0.4-0.3,0.5-0.6,0.4
				l-1.4-0.4c-0.3-0.1-0.5-0.3-0.3-0.6l3.2-11C69.4,252.4,69.6,252.3,69.9,252.4z M71.3,256.9c-0.2-0.2-0.2-0.5,0-0.8l1-1.1
				c0.2-0.3,0.5-0.3,0.8,0l3.3,3.2c0.3,0.2,0.3,0.5,0,0.7l-3.3,3.2c-0.3,0.3-0.5,0.3-0.8,0l-1-1V261c-0.2-0.2-0.2-0.5,0-0.7l1.9-1.7
				L71.3,256.9z M72.6,242.9v4.4h4.4L72.6,242.9z"/>
		</g>
	</g>
</g>
<g>
	<g>
		<g>
			<circle class="st9" cx="923.5" cy="-48.5" r="8.1"/>
		</g>
	</g>
</g>
<g id="java_1_">
	<path id="XMLID_17_" class="st2" d="M274.2,91.8c-1.8,1.3-3.9,2.7-5,5.1c-1.9,4.2,3.9,8.7,4.2,8.9c0.1,0,0.1,0.1,0.2,0.1
		s0.1,0,0.2-0.1c0.1-0.1,0.1-0.3,0.1-0.4c0,0-2.1-4.1-2-7c0-1,1.5-2.2,3-3.4c1.4-1.1,2.9-2.4,3.9-3.9c2-3.3-0.2-6.5-0.2-6.5
		c-0.1-0.1-0.2-0.2-0.4-0.1s-0.2,0.2-0.2,0.4c0,0,0.4,2.1-0.8,4.3C276.6,90.1,275.5,90.9,274.2,91.8z"/>
	<path id="XMLID_16_" class="st2" d="M281.9,93.2c0.1-0.1,0.2-0.3,0.1-0.4c-0.1-0.1-0.2-0.2-0.4-0.2c-0.3,0.1-7.5,2.9-7.5,6.3
		c0,2.3,1,3.6,1.7,4.4c0.3,0.3,0.5,0.7,0.6,0.9c0.2,0.8-0.3,2.1-0.5,2.6c-0.1,0.1,0,0.3,0.1,0.4c0.1,0.1,0.1,0.1,0.2,0.1
		c0.1,0,0.1,0,0.2-0.1c0.1-0.1,3-2.2,2.5-4.6c-0.2-0.9-0.7-1.6-1.1-2.2c-0.6-0.9-1.1-1.6-0.4-2.9C278.1,96,281.8,93.3,281.9,93.2z"
		/>
	<path id="XMLID_7_" class="st2" d="M263,107.4c-0.1,0.4-0.1,0.7,0.2,1.1c0.8,1.1,3.6,1.7,7.8,1.7l0,0c0.6,0,1.2,0,1.8,0
		c6.8-0.2,9.3-2.4,9.4-2.4c0.1-0.1,0.1-0.3,0.1-0.4s-0.2-0.2-0.4-0.2c-2.4,0.7-6.9,0.9-10,0.9c-3.5,0-5.2-0.2-5.7-0.4
		c0.2-0.3,1.6-0.8,3.3-1.2c0.2,0,0.3-0.2,0.3-0.3c0-0.2-0.1-0.3-0.3-0.3C268.6,105.7,263.6,105.8,263,107.4z"/>
	<path id="XMLID_6_" class="st2" d="M285.8,105.2c-1.4,0-2.7,0.7-2.8,0.7c-0.1,0.1-0.2,0.2-0.2,0.4s0.2,0.2,0.3,0.2c0,0,3,0,3.3,1.7
		c0.2,1.5-2.8,3.8-4,4.6c-0.1,0.1-0.2,0.2-0.1,0.4c0,0.1,0.2,0.2,0.3,0.2c0,0,0,0,0.1,0c0.3-0.1,6.9-1.5,6.2-5.4
		C288.5,105.7,287,105.2,285.8,105.2z"/>
	<path id="XMLID_5_" class="st2" d="M281.3,112.4c0-0.1,0-0.2-0.1-0.3l-1.6-1.1c-0.1-0.1-0.2-0.1-0.3-0.1c0,0-1.7,0.4-4.1,0.7
		c-1,0.1-2,0.2-3.1,0.2c-2.4,0-4-0.3-4.2-0.5c0-0.1,0-0.1,0-0.1c0-0.1,0.3-0.2,0.4-0.3c0.2-0.1,0.2-0.2,0.2-0.4
		c0-0.2-0.2-0.3-0.4-0.2c-1.6,0.4-2.4,0.9-2.3,1.6c0.1,1.2,2.9,1.8,5.2,2c0.3,0,0.7,0,1.1,0l0,0c3.9,0,8.9-1.2,9-1.2
		C281.1,112.6,281.2,112.5,281.3,112.4z"/>
	<path id="XMLID_4_" class="st2" d="M269.3,115c0.1-0.1,0.2-0.2,0.1-0.4c0-0.1-0.2-0.2-0.3-0.2c-0.2,0-2.1,0.1-2.2,1.3
		c0,0.4,0.1,0.7,0.3,1c0.7,0.8,2.5,1.3,5.6,1.4c0.4,0,0.7,0,1.1,0c3.9,0,6.5-1.2,6.6-1.3c0.1-0.1,0.2-0.2,0.2-0.3
		c0-0.1,0-0.2-0.1-0.3l-2-1.2c-0.1,0-0.1-0.1-0.2,0c0,0-1.3,0.3-3.2,0.5c-0.4,0.1-0.8,0.1-1.4,0.1c-1.9,0-4.1-0.3-4.5-0.5
		C269.2,115.1,269.2,115,269.3,115z"/>
	<path id="XMLID_3_" class="st2" d="M272,121.8c9,0,13.8-1.6,14.7-2.6c0.3-0.3,0.4-0.7,0.3-0.9c-0.1-0.5-0.6-0.9-0.6-0.9
		c-0.1-0.1-0.3-0.1-0.4,0.1c-0.1,0.1-0.1,0.3,0,0.4c0.1,0.1,0.1,0.2-0.1,0.4c-0.4,0.3-4.1,1.4-10.3,1.7c-0.9,0-1.7,0.1-2.6,0.1
		c-5.6,0-9.6-0.8-10.2-1.2c0.2-0.3,1.6-0.8,3.2-1c0.2,0,0.3-0.2,0.3-0.4s-0.2-0.3-0.4-0.3c0,0-0.2,0-0.4,0c-2.5,0.2-5.4,0.5-5.6,1.8
		c0,0.4,0.1,0.8,0.4,1.1C260.9,120.8,262.9,121.8,272,121.8L272,121.8z"/>
	<path id="XMLID_2_" class="st2" d="M288.4,119.5c-0.1-0.1-0.3,0-0.4,0.1c0,0-1.4,1.4-5.4,2.2c-1.5,0.3-4.5,0.5-8.6,0.5
		s-8.2-0.2-8.2-0.2c-0.2,0-0.3,0.1-0.3,0.3c0,0.2,0.1,0.3,0.2,0.4c0,0,4.2,1,9.9,1c2.7,0,5.4-0.2,7.9-0.7c4.7-0.8,5-3.2,5-3.2
		C288.6,119.7,288.6,119.5,288.4,119.5z"/>
</g>
</svg>
