<?xml version="1.0" encoding="utf-8"?>
<!-- Generator: Adobe Illustrator 25.2.0, SVG Export Plug-In . SVG Version: 6.00 Build 0)  -->
<svg version="1.1" id="NET" xmlns="http://www.w3.org/2000/svg" xmlns:xlink="http://www.w3.org/1999/xlink" x="0px" y="0px"
	 viewBox="0 0 512 512" style="enable-background:new 0 0 512 512;" xml:space="preserve">
<style type="text/css">
	.st0{fill:#EF4047;}
</style>
<g id="dark">
	<g>
		<path class="st0" d="M216.8,289.7l76-20.7l17.1-16.6l-54.1-54.1l-17.1,16.6L216.8,289.7z M403.4,194.6v148.3
			c0,10.7-8.4,19.1-19.1,19.1h-44.7l-0.5,63.8L237,362H70.1c-10.7,0-19.1-8.4-19.1-19.1V159.1c0-10.7,8.4-19.1,19.1-19.1h198.3
			L313,95.3H70.3C34.8,95.3,6,123.9,6,159.1v184.3c0,35,28.6,63.8,64.3,63.8h161l152.4,101.5V407.2c35.5,0,64.3-28.6,64.3-63.8
			V159.1c0-0.5,0-1,0-1.6L403.4,194.6z M494.8,14.4c-14.8-14.8-39.3-14.8-54.1,0l-167,165.9l54.1,54.1l167-165.2
			C509.7,53.7,509.7,29.4,494.8,14.4z M112.2,279.6c-12.2,0-22.2,10.2-22.2,22.2c0,12.2,10.2,22.2,22.2,22.2h57.4
			c12.2,0,22.2-10.2,22.2-22.2c0-12.2-10.2-22.2-22.2-22.2H112.2z"/>
	</g>
</g>
</svg>
