<?xml version="1.0" encoding="utf-8"?>
<!-- Generator: Adobe Illustrator 16.0.0, SVG Export Plug-In . SVG Version: 6.00 Build 0)  -->
<!DOCTYPE svg PUBLIC "-//W3C//DTD SVG 1.1//EN" "http://www.w3.org/Graphics/SVG/1.1/DTD/svg11.dtd">
<svg version="1.1" id="Layer_1" xmlns="http://www.w3.org/2000/svg" xmlns:xlink="http://www.w3.org/1999/xlink" x="0px" y="0px"
	 width="448.5px" height="100px" viewBox="0 0 448.5 100" enable-background="new 0 0 448.5 100" xml:space="preserve">
<g id="GroupDocs_1_">
	<g>
		<path fill="#FFFFFF" d="M119.138,51.346v14.188c-3.904,2.97-9.679,5.005-14.958,5.005c-11.383,0-20.237-8.523-20.237-19.523
			c0-10.998,8.964-19.412,20.623-19.412c5.499,0,10.999,2.089,14.793,5.389l-3.685,4.784c-2.97-2.75-7.094-4.399-11.108-4.399
			c-7.864,0-14.023,5.994-14.023,13.638c0,7.699,6.214,13.693,14.078,13.693c2.86,0,6.104-0.988,8.854-2.639V51.346H119.138z"/>
		<path fill="#FFFFFF" d="M145.705,58.605c-0.55,0.055-1.155,0.055-1.76,0.055h-9.129v11.604h-6.489V31.769h15.618
			c9.844,0,15.508,4.785,15.508,13.144c0,6.159-2.859,10.504-7.974,12.483l8.634,12.867h-7.369L145.705,58.605z M143.945,52.831
			c5.939,0,9.349-2.53,9.349-7.754c0-5.06-3.409-7.479-9.349-7.479h-9.129v15.233H143.945z"/>
		<path fill="#FFFFFF" d="M205.706,51.016c0,11-8.909,19.523-20.402,19.523c-11.493,0-20.402-8.523-20.402-19.523
			c0-11.053,8.909-19.412,20.402-19.412C196.797,31.604,205.706,40.018,205.706,51.016z M171.5,51.016
			c0,7.646,6.324,13.693,13.858,13.693c7.534,0,13.693-6.049,13.693-13.693c0-7.644-6.159-13.583-13.693-13.583
			C177.77,37.433,171.5,43.372,171.5,51.016z"/>
		<path fill="#FFFFFF" d="M245.361,54.316c0,10.063-6.324,16.223-16.718,16.223s-16.772-6.16-16.772-16.223V31.769h6.489v22.547
			c0,6.488,4.015,10.394,10.339,10.394c6.269,0,10.174-3.851,10.174-10.394V31.769h6.489L245.361,54.316L245.361,54.316z"/>
		<path fill="#FFFFFF" d="M270.004,31.769c9.678,0,15.232,4.785,15.232,13.144c0,8.688-5.555,13.748-15.232,13.748h-8.854v11.604
			h-6.49V31.769H270.004z M261.15,52.831h8.578c5.938,0,9.295-2.53,9.295-7.754c0-5.06-3.355-7.479-9.295-7.479h-8.578V52.831z"/>
		<path fill="#FFFFFF" d="M307.457,31.769c11.549,0,19.908,8.084,19.908,19.247c0,11.109-8.414,19.248-20.072,19.248h-15.617V31.769
			H307.457z M298.164,64.436h9.459c7.479,0,13.197-5.555,13.197-13.362c0-7.864-5.883-13.473-13.473-13.473h-9.186L298.164,64.436
			L298.164,64.436z"/>
		<path fill="#FFFFFF" d="M370.375,51.016c0,11-8.908,19.523-20.402,19.523s-20.402-8.523-20.402-19.523
			c0-11.053,8.908-19.412,20.402-19.412S370.375,40.018,370.375,51.016z M336.17,51.016c0,7.646,6.324,13.693,13.857,13.693
			c7.535,0,13.693-6.049,13.693-13.693c0-7.644-6.158-13.583-13.693-13.583C342.439,37.433,336.17,43.372,336.17,51.016z"/>
		<path fill="#FFFFFF" d="M407.445,37.543l-3.795,4.729c-2.807-3.024-6.818-4.895-10.725-4.895c-7.697,0-13.746,5.939-13.746,13.527
			c0,7.59,6.049,13.584,13.746,13.584c3.852,0,7.811-1.76,10.725-4.564l3.85,4.29c-3.904,3.851-9.459,6.324-14.902,6.324
			c-11.271,0-20.018-8.524-20.018-19.578c0-10.944,8.854-19.357,20.238-19.357C398.262,31.604,403.705,33.858,407.445,37.543z"/>
		<path fill="#FFFFFF" d="M440.225,35.453l-2.691,5.719c-4.182-2.529-8.359-3.574-11.273-3.574c-3.795,0-6.27,1.43-6.27,4.014
			c0,8.414,20.787,3.905,20.73,17.763c0,6.874-6.049,11.107-14.52,11.107c-6.049,0-11.77-2.476-15.729-6.104l2.807-5.608
			c3.959,3.631,8.908,5.608,13.033,5.608c4.51,0,7.201-1.704,7.201-4.674c0-8.579-20.786-3.795-20.786-17.488
			c0-6.599,5.663-10.724,14.022-10.724C431.756,31.494,436.65,33.089,440.225,35.453z"/>
	</g>
	<g id="Symbol_2_">
		<g>
			<path fill="#278ACA" d="M39.184,46.411c7.646,0,13.846-6.401,13.846-14.299s-6.199-14.3-13.846-14.3s-13.846,6.402-13.846,14.3
				S31.537,46.411,39.184,46.411z M52.664,42.495c1.557,0.763,3.296,1.192,5.133,1.192c6.644,0,12.03-5.59,12.03-12.484
				c0-6.895-5.386-12.484-12.03-12.484c-2.386,0-4.607,0.724-6.477,1.966c3.015,2.965,4.888,7.09,4.888,11.653
				C56.208,36.177,54.88,39.705,52.664,42.495z M20.183,43.687c1.846,0,3.595-0.429,5.161-1.192
				c-2.229-2.79-3.563-6.318-3.563-10.157c0-4.563,1.882-8.688,4.915-11.653c-1.88-1.242-4.114-1.966-6.512-1.966
				c-6.68,0-12.095,5.59-12.095,12.484C8.088,38.097,13.502,43.687,20.183,43.687z M15.815,48.23c-4.525,0-6.849-3.635-6.849-3.635
				c-3.741,0-5.419,3.052-5.419,6.816v14.541c0,3.25,5.725,6.024,12.644,7.7V54.139c0-3.49,2.608-6.364,5.969-6.764
				C20.302,47.566,17.036,48.23,15.815,48.23z M51.214,49.589c0,0-3.699,3.632-8.247,3.632c-1.434,0-2.497-2.271-4.01-2.271
				c-2.399,0-2.972,2.271-4.994,2.271c-3.174,0-7.717-3.632-7.717-3.632c-3.761,0-6.81,3.047-6.81,6.808v19.977
				c0,7.938,38.587,8.21,38.587,0V56.396C58.023,52.637,54.975,49.589,51.214,49.589z M49.171,72.74
				c-4.346,0.85-16.438,0.883-20.882,0c-1.57-0.313-2.497-0.688-2.497-1.815s0.758-1.808,2.497-1.362
				c3.374,0.865,14.477,0.817,20.882,0c2.658-0.338,2.834,0.24,2.951,1.362C52.252,72.184,50.967,72.389,49.171,72.74z
				 M49.171,66.839c-4.346,0.851-16.438,0.882-20.882,0c-1.57-0.312-2.497-0.688-2.497-1.815s0.758-1.807,2.497-1.36
				c3.374,0.862,14.477,0.815,20.882,0c2.658-0.339,2.834,0.239,2.951,1.36C52.252,66.282,50.967,66.486,49.171,66.839z
				 M68.465,44.595c0,0-2.336,3.632-6.885,3.632c-1.228,0-4.511-0.665-6.379-0.856c3.378,0.4,6,3.27,6,6.757v19.496
				c6.956-1.674,12.711-4.444,12.711-7.692V51.404C73.913,47.643,72.226,44.595,68.465,44.595z"/>
		</g>
	</g>
</g>
</svg>
