<?xml version="1.0" encoding="utf-8"?>
<!-- Generator: Adobe Illustrator 25.2.0, SVG Export Plug-In . SVG Version: 6.00 Build 0)  -->
<svg version="1.1" id="Layer_1" xmlns="http://www.w3.org/2000/svg" xmlns:xlink="http://www.w3.org/1999/xlink" x="0px" y="0px"
	 viewBox="0 0 320 320" style="enable-background:new 0 0 320 320;" xml:space="preserve">
<style type="text/css">
	.st0{fill:none;stroke:#EFEFEF;stroke-linecap:round;stroke-linejoin:round;stroke-miterlimit:10;stroke-dasharray:4,8;}
	.st1{fill-rule:evenodd;clip-rule:evenodd;fill:#FFFFFF;}
	.st2{fill-rule:evenodd;clip-rule:evenodd;fill:#A4C547;}
	.st3{fill:#A4C547;}
	.st4{fill:#FFFFFF;}
	.st5{fill:none;stroke:#9DB546;stroke-miterlimit:10;}
	.st6{fill:#A5C547;}
	.st7{fill:#EFEFEF;}
	.st8{fill:#DEDFDF;}
	.st9{fill:#4296D2;}
	.st10{fill:#0866AA;}
	.st11{fill:#2178BD;}
	.st12{fill:#4096D2;}
	.st13{display:none;fill:#FFFFFF;}
</style>
<circle class="st0" cx="154.2" cy="163.2" r="123.7"/>
<g id="_x2E_NET">
	<path id="XMLID_8_" class="st1" d="M227.4,154c-19.6,0-36.2,6.9-49.9,20.7c-13.8,13.7-20.6,30.3-20.6,49.9s6.9,36.2,20.6,49.8
		c5.1,5.2,10.5,9.3,16.4,12.6h-85.7c-1.4-0.1-2.7-0.5-4-1.2c-2.1-1-3.2-3-3.2-6V105.5c0.2-1.5,0.5-2.9,1-4c1.1-2.1,3.2-3.2,6.2-3.2
		h174.3l1.2,0.3c1,0.2,1.9,0.4,2.7,0.8c2.2,1,3.3,3.1,3.3,6.2v85.8c-3.2-5.9-7.4-11.4-12.6-16.6C263.3,160.9,246.7,154,227.4,154z"
		/>
	<path id="XMLID_2_" class="st2" d="M227.4,154c19.3,0,35.9,6.9,49.8,20.7c5.2,5.1,9.3,10.6,12.6,16.6v-85.8c0-3.1-1.1-5.1-3.3-6.2
		c-0.8-0.3-1.7-0.6-2.7-0.8l-1.2-0.3H108.2c-3,0-5,1.1-6.2,3.2c-0.5,1.1-0.9,2.4-1,4v174.4c0,3,1.1,5,3.2,6c1.3,0.7,2.6,1.1,4,1.2
		h85.7c-5.9-3.2-11.4-7.4-16.4-12.6c-13.8-13.6-20.6-30.2-20.6-49.8s6.9-36.3,20.6-49.9C191.1,160.9,207.8,154,227.4,154z
		 M287.1,90.4c1.9,0.3,3.3,0.8,4.4,1.4c4.3,2.1,6.4,5.8,6.4,11.2v121.7c0,19.5-6.9,36.1-20.8,49.8c-13.8,13.9-30.4,20.8-49.8,20.8
		H105.6c-2.1,0-4.2-0.5-6.4-1.5c-4.3-2.2-6.4-6-6.4-11.3V102.9c0-2.1,0.6-4.3,1.7-6.4c2.1-4.3,5.8-6.4,11.2-6.4h179.5L287.1,90.4z"
		/>
	<g>
		<path class="st3" d="M148.8,160.7H117v-5.1l22.4-33.2h-21.8v-6.2h30.6v5.1l-22.5,33.1h23.1V160.7z"/>
	</g>
	<g id="Zip">
		<polygon class="st4" points="255.9,260.7 194.7,260.7 194.7,207 209.6,207 216.2,217.4 255.9,217.4 239.4,253.3 		"/>
		<line class="st5" x1="255.9" y1="222.5" x2="194.7" y2="222.5"/>
		<path class="st6" d="M244.7,214.5c-5.8,10-9.9,29.4-9.9,36.2c0,9.4,7.6,17,17,17s17-7.6,17-17c0-6.9-3.9-26.3-9.8-36.2
			 M251.4,256.5c-3.6,0-6.6-2.9-6.6-6.6c0-3.6,2.9-10.4,6.6-10.4s6.6,6.8,6.6,10.4C258,253.5,255.1,256.5,251.4,256.5z"/>
		<g>
			<g>
				<rect x="245.4" y="167.3" class="st4" width="6.4" height="6.3"/>
				<rect x="245.4" y="179.8" class="st4" width="6.4" height="6.3"/>
				<rect x="251.8" y="173.5" class="st4" width="6.4" height="6.3"/>
				<rect x="251.8" y="186.1" class="st4" width="6.4" height="6.3"/>
			</g>
			<g>
				<rect x="245.4" y="154.8" class="st4" width="6.4" height="6.3"/>
				<rect x="251.8" y="148.5" class="st4" width="6.4" height="6.3"/>
				<rect x="251.8" y="161" class="st4" width="6.4" height="6.3"/>
			</g>
			<g>
				<rect x="245.4" y="192.3" class="st4" width="6.4" height="6.3"/>
				<rect x="245.4" y="204.8" class="st4" width="6.4" height="6.3"/>
				<rect x="251.8" y="198.6" class="st4" width="6.4" height="6.3"/>
				<rect x="251.8" y="211.1" class="st4" width="6.4" height="6.3"/>
			</g>
		</g>
		<path class="st4" d="M245.4,217.4c-5.2,8.9-8.8,26.2-8.8,32.3c0,8.4,6.8,15.1,15.1,15.1c8.4,0,15.1-6.8,15.1-15.1
			c0-6.1-3.5-23.4-8.8-32.3 M251.5,254.8c-3.2,0-5.8-2.6-5.8-5.9c0-3.2,2.6-9.2,5.8-9.2c3.2,0,5.8,6,5.8,9.2
			S254.7,254.8,251.5,254.8z"/>
	</g>
</g>
<g>
	<path class="st7" d="M274.8,142c-19,0-34.5-15.5-34.5-34.5S255.8,73,274.8,73s34.5,15.5,34.5,34.5S293.9,142,274.8,142z"/>
	<path class="st8" d="M274.8,74.4c18.2,0,33,14.8,33,33s-14.8,33-33,33s-33-14.8-33-33S256.6,74.4,274.8,74.4 M274.8,71.4
		c-19.9,0-36,16.1-36,36s16.1,36,36,36s36-16.1,36-36S294.7,71.4,274.8,71.4L274.8,71.4z"/>
</g>
<g>
	<g>
		<polygon class="st9" points="212.9,47.1 231.2,48.2 229.8,65.2 222.6,70.2 215.4,66.7 		"/>
		<polygon class="st9" points="159.3,50.4 163.4,50.4 164.8,47.1 165.4,27.7 158.8,23.9 146.3,23.9 145.3,38.1 145.8,50 		"/>
		<polygon class="st9" points="89,54.9 82.1,48.7 70.4,49.1 69.9,74.9 70.7,75.8 89,75.8 		"/>
		<polygon class="st9" points="46.5,116.5 40.3,110.3 28.1,110.3 28.1,137.2 46.5,137.6 		"/>
		<polygon class="st9" points="51,191.1 44.9,185.6 28.7,185.3 27.2,187.1 27.2,208.7 50.5,209.1 		"/>
		<polygon class="st9" points="78.8,247.1 72.8,241.1 58.4,240.7 59,268 77.7,268 		"/>
	</g>
	<g>
		<g>
			<path class="st7" d="M210.8,45.1h22.5l-2.1,23.2l-9.2,3.1l-9.2-3.1L210.8,45.1z M228.8,52.6l0.3-2.8H215l0.7,8.5h9.8l-0.4,3.6
				l-3.1,0.8l-3.2-0.8l-0.2-2.2h-2.8l0.4,4.4l5.8,1.6h0.1l5.7-1.6l0.8-8.7h-10.3l-0.2-2.9L228.8,52.6L228.8,52.6z"/>
		</g>
		<g>
			<path class="st7" d="M165.4,27.7c0.6,0.5,0.8,1.2,0.8,2v19.5c0,0.8-0.3,1.4-0.8,2c-0.6,0.5-1.2,0.8-2,0.8h-16.9
				c-0.8,0-1.4-0.3-2-0.8s-0.8-1.2-0.8-2V24.8c0-0.8,0.3-1.4,0.8-2s1.2-0.8,2-0.8h11.9c0.8,0,1.4,0.3,2,0.8L165.4,27.7z M146.6,49.1
				h16.9V32.2h-6.1c-0.4,0-0.7-0.1-1-0.4c-0.3-0.3-0.4-0.6-0.4-1v-6.1h-9.4V49.1L146.6,49.1z M149.3,33.1c0.6-0.5,1.2-0.8,2-0.8
				s1.4,0.3,2,0.8s0.8,1.2,0.8,2s-0.3,1.5-0.8,2c-0.6,0.5-1.2,0.8-2,0.8s-1.4-0.3-2-0.8s-0.8-1.2-0.8-2S148.7,33.6,149.3,33.1z
				 M148.4,46.3v-3.8l2.3-2.3c0.3-0.3,0.6-0.3,0.9,0l2.3,2.3l5.2-5.2c0.3-0.3,0.6-0.3,0.9,0l1.4,1.4v7.5L148.4,46.3L148.4,46.3z
				 M163.2,29.4l-4.4-4.4v4.5C158.8,29.4,163.2,29.4,163.2,29.4z"/>
		</g>
		<g>
			<path class="st7" d="M51.2,190.1c0.5,0.6,0.8,1.2,0.8,2v15.7c0,0.8-0.3,1.4-0.8,2s-1.2,0.8-2,0.8H28.6c-0.8,0-1.5-0.3-2-0.8
				c-0.5-0.6-0.8-1.2-0.8-2v-20.6c0-0.8,0.3-1.4,0.8-2s1.2-0.8,2-0.8h15.7c0.8,0,1.4,0.3,2,0.8L51.2,190.1z M48.9,207.8
				c0.2,0,0.3-0.1,0.3-0.4v-15.2c0-0.1,0-0.2-0.1-0.2l-4.6-4.6v5.9c0,0.4-0.1,0.7-0.4,1c-0.3,0.3-0.6,0.4-1,0.4H32.8
				c-0.4,0-0.7-0.1-1-0.4c-0.3-0.3-0.4-0.6-0.4-1v-6.1H29c-0.2,0-0.4,0.1-0.4,0.4v19.9c0,0.2,0.1,0.4,0.4,0.4L48.9,207.8L48.9,207.8
				z M35.3,197.6c1-1,2.2-1.5,3.6-1.5s2.6,0.5,3.6,1.5s1.5,2.2,1.5,3.6s-0.5,2.6-1.5,3.6s-2.2,1.5-3.6,1.5s-2.6-0.5-3.6-1.5
				s-1.5-2.2-1.5-3.6S34.3,198.6,35.3,197.6z M41.8,187.1h-7.5v4.7h7.5V187.1z M37.3,202.9c0.5,0.4,1,0.7,1.7,0.7s1.2-0.2,1.7-0.7
				c0.5-0.4,0.7-1,0.7-1.7s-0.2-1.2-0.7-1.7c-0.5-0.4-1-0.7-1.7-0.7s-1.2,0.2-1.7,0.7c-0.5,0.4-0.7,1-0.7,1.7S36.8,202.4,37.3,202.9
				z"/>
		</g>
		<g>
			<path class="st7" d="M79.3,245.6c0.6,0.6,0.8,1.2,0.8,2V267c0,0.8-0.3,1.4-0.8,2s-1.2,0.8-2,0.8H60.4c-0.8,0-1.5-0.3-2-0.8
				s-0.8-1.2-0.8-2v-24.4c0-0.8,0.3-1.4,0.8-2s1.2-0.8,2-0.8h12c0.8,0,1.4,0.3,2,0.8L79.3,245.6z M77.3,267v-16.9h-6.1
				c-0.4,0-0.7-0.1-1-0.4c-0.3-0.3-0.4-0.6-0.4-1v-6.1h-9.4V267H77.3z M66.4,260.3c0.2,0.2,0.2,0.5,0,0.8l-1,1
				c-0.1,0.1-0.2,0.2-0.4,0.2c-0.1,0-0.2-0.1-0.3-0.2l-3.3-3.2c-0.3-0.2-0.3-0.5,0-0.7l3.3-3.2c0.3-0.3,0.5-0.3,0.8,0l1,1v0.1
				c0.2,0.2,0.2,0.5,0,0.7l-1.9,1.7L66.4,260.3z M69.9,252.4l1.4,0.4c0.3,0.1,0.5,0.3,0.3,0.6l-3.2,11c-0.1,0.4-0.3,0.5-0.6,0.4
				l-1.4-0.4c-0.3-0.1-0.5-0.3-0.3-0.6l3.2-11C69.4,252.4,69.6,252.3,69.9,252.4z M71.3,256.9c-0.2-0.2-0.2-0.5,0-0.8l1-1.1
				c0.2-0.3,0.5-0.3,0.8,0l3.3,3.2c0.3,0.2,0.3,0.5,0,0.7l-3.3,3.2c-0.3,0.3-0.5,0.3-0.8,0l-1-1V261c-0.2-0.2-0.2-0.5,0-0.7l1.9-1.7
				L71.3,256.9z M72.6,242.9v4.4H77L72.6,242.9z"/>
		</g>
		<g>
			<path class="st7" d="M48.3,117.1v19c0,0.8-0.3,1.4-0.8,1.9s-1.2,0.8-2,0.8H28.6c-0.8,0-1.4-0.3-2-0.8c-0.5-0.5-0.8-1.2-0.8-1.9
				v-23.7c0-0.8,0.3-1.4,0.8-1.9s1.2-0.8,2-0.8h12c0.8,0,1.4,0.3,2,0.8l4.9,4.8C48,115.7,48.3,116.3,48.3,117.1z M45.5,136.1v-16.4
				h-6.1c-0.4,0-0.7-0.1-1-0.4s-0.4-0.6-0.4-1v-5.9h-9.4v23.7H45.5z M42.7,123.7v1.6c0,0.5-0.2,0.7-0.7,0.7h-9.8
				c-0.5,0-0.7-0.2-0.7-0.7v-1.6c0-0.5,0.2-0.7,0.7-0.7H42C42.4,123,42.7,123.3,42.7,123.7z M42,127.8c0.5,0,0.7,0.2,0.7,0.7v1.6
				c0,0.5-0.2,0.7-0.7,0.7h-9.8c-0.5,0-0.7-0.2-0.7-0.7v-1.6c0-0.5,0.2-0.7,0.7-0.7H42z M40.8,112.5v4.3h4.5L40.8,112.5z"/>
		</g>
		<g>
			<path class="st7" d="M90,53.5c0.5,0.5,0.8,1.2,0.8,1.9v18.7c0,0.8-0.3,1.4-0.8,1.9c-0.5,0.5-1.2,0.8-2,0.8H71.1
				c-0.8,0-1.4-0.3-2-0.8c-0.5-0.5-0.8-1.2-0.8-1.9V50.7c0-0.8,0.3-1.4,0.8-1.9c0.5-0.5,1.2-0.8,2-0.8h12c0.8,0,1.4,0.3,2,0.8
				L90,53.5z M88,74.2V57.9h-6.1c-0.4,0-0.7-0.1-1-0.4c-0.3-0.3-0.4-0.6-0.4-1v-5.9h-2.8v0.9h-1.9v-0.9h-4.7v23.4H88z M79.7,63
				l1.1,4.9c0.2,0.9-0.1,1.8-0.7,2.5c-0.6,0.7-1.4,1.1-2.4,1.1c-1,0-1.8-0.4-2.4-1.1c-0.6-0.7-0.8-1.5-0.6-2.5l1.1-5.5v-1.8h1.9v1.8
				H79C79.4,62.5,79.6,62.6,79.7,63z M75.8,53.4h1.9v1.8h-1.9V53.4z M75.8,57h1.9v1.8h-1.9V57z M76.4,69.6c0.4,0.3,0.8,0.5,1.3,0.5
				s1-0.1,1.3-0.5c0.4-0.3,0.6-0.7,0.6-1.1c0-0.4-0.2-0.8-0.6-1.1c-0.4-0.3-0.8-0.5-1.3-0.5s-1,0.2-1.3,0.5
				c-0.4,0.3-0.6,0.7-0.6,1.1C75.8,68.9,76,69.3,76.4,69.6z M79.5,51.6v1.8h-1.9v-1.8H79.5z M79.5,55.2V57h-1.9v-1.8H79.5z
				 M79.5,58.8v1.8h-1.9v-1.8H79.5z M83.3,51v4.3h4.5L83.3,51z"/>
		</g>
	</g>
</g>
<g>
	<path class="st10" d="M290.9,92.2l-7.3-3.5c-0.8-0.4-1.9-0.2-2.5,0.4l-23.9,21.8c-0.6,0.6-0.6,1.6,0,2.2l2,1.8
		c0.5,0.5,1.3,0.5,1.9,0.1l28.8-21.8c1-0.7,2.4,0,2.4,1.2v-0.1C292.1,93.4,291.7,92.6,290.9,92.2z"/>
	<g>
		<path class="st11" d="M290.9,120l-7.3,3.5c-0.8,0.4-1.9,0.2-2.5-0.4l-23.9-21.8c-0.6-0.6-0.6-1.6,0-2.2l2-1.8
			c0.5-0.5,1.3-0.5,1.9-0.1l28.8,21.8c1,0.7,2.4,0,2.4-1.2v0.1C292.1,118.9,291.7,119.6,290.9,120z"/>
	</g>
	<g>
		<path class="st12" d="M283.6,123.5c-0.8,0.4-1.9,0.2-2.5-0.4c0.8,0.8,2.2,0.2,2.2-0.9V90.1c0-1.2-1.4-1.7-2.2-0.9
			c0.7-0.7,1.7-0.8,2.5-0.4l7.3,3.5c0.8,0.4,1.2,1.1,1.2,2V118c0,0.8-0.5,1.6-1.2,2L283.6,123.5z"/>
	</g>
</g>
<g>
	<g>
		<g>
			<circle class="st13" cx="923.5" cy="-48.5" r="8.1"/>
		</g>
	</g>
</g>
</svg>
