<?xml version="1.0" encoding="utf-8"?>
<!-- Generator: Adobe Illustrator 16.0.0, SVG Export Plug-In . SVG Version: 6.00 Build 0)  -->
<!DOCTYPE svg PUBLIC "-//W3C//DTD SVG 1.1//EN" "http://www.w3.org/Graphics/SVG/1.1/DTD/svg11.dtd">
<svg version="1.1" id="Layer_2" xmlns="http://www.w3.org/2000/svg" xmlns:xlink="http://www.w3.org/1999/xlink" x="0px" y="0px"
	 width="500.25px" height="100px" viewBox="0 0 500.25 100" enable-background="new 0 0 500.25 100" xml:space="preserve">
<g id="GroupDocs_1_">
	<g id="Symbol_4_">
		<g>
			<path fill-rule="evenodd" clip-rule="evenodd" fill="#2689C9" d="M41.859,46.424c8.124,0,14.709-6.802,14.709-15.192
				c0-8.391-6.585-15.192-14.709-15.192s-14.71,6.801-14.71,15.192C27.149,39.622,33.735,46.424,41.859,46.424z M56.18,42.264
				c1.654,0.811,3.502,1.267,5.454,1.267c7.058,0,12.779-5.938,12.779-13.263c0-7.324-5.721-13.263-12.779-13.263
				c-2.535,0-4.895,0.769-6.881,2.089c3.203,3.149,5.193,7.532,5.193,12.38C59.945,35.551,58.534,39.299,56.18,42.264z
				 M21.672,43.53c1.961,0,3.818-0.456,5.482-1.267c-2.367-2.964-3.785-6.712-3.785-10.791c0-4.848,2-9.231,5.221-12.38
				c-1.997-1.32-4.37-2.089-6.917-2.089c-7.097,0-12.85,5.939-12.85,13.263C8.823,37.592,14.576,43.53,21.672,43.53z M17.033,48.356
				c-4.808,0-7.276-3.862-7.276-3.862C5.782,44.494,4,47.737,4,51.734v15.449c0,3.453,6.082,6.4,13.433,8.181V54.632
				c0-3.708,2.771-6.76,6.341-7.184C21.798,47.651,18.329,48.356,17.033,48.356z M54.64,49.8c0,0-3.929,3.858-8.761,3.858
				c-1.522,0-2.653-2.412-4.26-2.412c-2.549,0-3.158,2.412-5.306,2.412c-3.373,0-8.198-3.858-8.198-3.858
				c-3.996,0-7.235,3.239-7.235,7.233v21.22c0,8.434,40.995,8.723,40.995,0v-21.22C61.874,53.039,58.634,49.8,54.64,49.8z
				 M52.47,74.396c-4.617,0.901-17.463,0.938-22.186,0c-1.668-0.331-2.652-0.73-2.652-1.93c0-1.198,0.806-1.921,2.652-1.447
				c3.585,0.918,15.38,0.869,22.186,0c2.823-0.358,3.011,0.255,3.135,1.447C55.742,73.805,54.377,74.022,52.47,74.396z
				 M52.47,68.126c-4.617,0.903-17.463,0.938-22.186,0c-1.668-0.331-2.652-0.73-2.652-1.93c0-1.197,0.806-1.918,2.652-1.446
				c3.585,0.918,15.38,0.868,22.186,0c2.823-0.36,3.011,0.255,3.135,1.446C55.742,67.535,54.377,67.753,52.47,68.126z
				 M72.966,44.494c0,0-2.482,3.859-7.314,3.859c-1.304,0-4.792-0.706-6.777-0.91c3.589,0.426,6.375,3.475,6.375,7.179v20.712
				c7.39-1.776,13.504-4.722,13.504-8.172V51.729C78.753,47.732,76.961,44.494,72.966,44.494z"/>
		</g>
	</g>
	<g>
		<path fill="#333333" d="M131.061,54.646h7.537v15.267c-4.216,4.642-10.242,6.962-18.077,6.962c-6.601,0-12.126-2.172-16.576-6.515
			c-4.45-4.344-6.675-9.837-6.675-16.48c0-6.643,2.268-12.178,6.803-16.607c4.535-4.428,10.018-6.643,16.448-6.643
			c6.429,0,11.774,1.875,16.033,5.621L132.53,42c-1.747-1.49-3.503-2.523-5.27-3.098c-1.768-0.575-3.823-0.862-6.164-0.862
			c-4.514,0-8.304,1.459-11.37,4.375c-3.066,2.917-4.599,6.75-4.599,11.498c0,4.749,1.49,8.56,4.471,11.434
			c2.98,2.874,6.589,4.312,10.827,4.312c4.236,0,7.782-0.915,10.635-2.746V54.646z"/>
		<path fill="#333333" d="M180.947,46.215c0,7.368-3.216,12.009-9.646,13.925l11.689,16.225h-9.582l-10.667-15.011h-9.9v15.011
			h-7.538V31.715h16.608c6.813,0,11.688,1.15,14.627,3.449C179.478,37.464,180.947,41.148,180.947,46.215z M170.918,52.539
			c1.533-1.32,2.3-3.438,2.3-6.356c0-2.917-0.789-4.918-2.363-6.004c-1.576-1.086-4.387-1.629-8.432-1.629h-9.581v15.969h9.39
			C166.488,54.519,169.385,53.859,170.918,52.539z"/>
		<path fill="#333333" d="M225.979,70.2c-4.515,4.407-10.093,6.611-16.735,6.611c-6.644,0-12.223-2.204-16.735-6.611
			c-4.515-4.407-6.771-9.9-6.771-16.479c0-6.58,2.257-12.073,6.771-16.48c4.513-4.408,10.092-6.611,16.735-6.611
			c6.643,0,12.221,2.204,16.735,6.611c4.513,4.407,6.771,9.9,6.771,16.48C232.75,60.3,230.492,65.793,225.979,70.2z M220.454,42.255
			c-3.045-3.151-6.782-4.727-11.21-4.727c-4.43,0-8.167,1.576-11.211,4.727c-3.045,3.152-4.566,6.973-4.566,11.466
			c0,4.493,1.521,8.314,4.566,11.466c3.044,3.151,6.781,4.727,11.211,4.727c4.428,0,8.165-1.575,11.21-4.727
			c3.044-3.151,4.566-6.973,4.566-11.466C225.021,49.228,223.498,45.407,220.454,42.255z"/>
		<path fill="#333333" d="M249.102,66.145c2.044,2.385,4.812,3.577,8.304,3.577c3.491,0,6.26-1.192,8.304-3.577
			s3.066-5.621,3.066-9.709v-24.72h7.537v25.04c0,6.43-1.768,11.381-5.302,14.851c-3.535,3.472-8.07,5.206-13.605,5.206
			c-5.536,0-10.071-1.734-13.605-5.206c-3.535-3.47-5.302-8.421-5.302-14.851v-25.04h7.537v24.72
			C246.035,60.523,247.058,63.76,249.102,66.145z"/>
		<path fill="#333333" d="M315.084,35.612c3.108,2.598,4.663,6.601,4.663,12.008c0,5.408-1.587,9.369-4.759,11.881
			c-3.173,2.514-8.038,3.769-14.596,3.769h-7.92v13.095h-7.537V31.715h15.33C307.036,31.715,311.976,33.015,315.084,35.612z
			 M309.751,54.04c1.511-1.597,2.268-3.938,2.268-7.026c0-3.087-0.958-5.27-2.875-6.547c-1.916-1.277-4.918-1.917-9.006-1.917
			h-7.665v17.886h8.751C305.396,56.436,308.238,55.637,309.751,54.04z"/>
		<path fill="#333333" d="M359.222,37.56c4.301,3.896,6.451,9.316,6.451,16.256c0,6.941-2.087,12.435-6.26,16.479
			c-4.174,4.046-10.562,6.068-19.163,6.068h-14.818V31.715h15.33C348.767,31.715,354.92,33.664,359.222,37.56z M358.071,54.008
			c0-10.22-5.855-15.33-17.565-15.33h-7.537v30.597h8.367c5.408,0,9.55-1.288,12.424-3.865
			C356.635,62.834,358.071,59.033,358.071,54.008z"/>
		<path fill="#333333" d="M409.556,70.2c-4.515,4.407-10.093,6.611-16.735,6.611c-6.644,0-12.223-2.204-16.735-6.611
			c-4.515-4.407-6.771-9.9-6.771-16.479c0-6.58,2.257-12.073,6.771-16.48c4.513-4.408,10.092-6.611,16.735-6.611
			c6.643,0,12.221,2.204,16.735,6.611c4.513,4.407,6.771,9.9,6.771,16.48C416.326,60.3,414.068,65.793,409.556,70.2z M404.03,42.255
			c-3.045-3.151-6.782-4.727-11.21-4.727c-4.43,0-8.167,1.576-11.211,4.727c-3.045,3.152-4.566,6.973-4.566,11.466
			c0,4.493,1.521,8.314,4.566,11.466c3.044,3.151,6.781,4.727,11.211,4.727c4.428,0,8.165-1.575,11.21-4.727
			c3.044-3.151,4.566-6.973,4.566-11.466C408.597,49.228,407.074,45.407,404.03,42.255z"/>
		<path fill="#333333" d="M443.025,69.529c2.597,0,4.832-0.436,6.707-1.31c1.873-0.872,3.832-2.268,5.876-4.184l4.854,4.982
			c-4.727,5.238-10.465,7.856-17.214,7.856c-6.75,0-12.35-2.172-16.8-6.515c-4.45-4.344-6.675-9.837-6.675-16.48
			c0-6.643,2.268-12.178,6.803-16.607c4.535-4.428,10.263-6.643,17.183-6.643s12.7,2.555,17.342,7.665l-4.79,5.238
			c-2.13-2.044-4.142-3.47-6.036-4.28c-1.896-0.808-4.12-1.213-6.675-1.213c-4.515,0-8.305,1.459-11.37,4.375
			c-3.066,2.917-4.6,6.643-4.6,11.178s1.522,8.325,4.567,11.37C435.242,68.008,438.852,69.529,443.025,69.529z"/>
		<path fill="#333333" d="M479.658,37.592c-2.193,0-3.992,0.447-5.397,1.341c-1.404,0.895-2.107,2.247-2.107,4.056
			c0,1.811,0.703,3.194,2.107,4.152c1.405,0.958,4.396,1.991,8.975,3.098c4.577,1.108,8.026,2.662,10.349,4.663
			c2.32,2.002,3.48,4.95,3.48,8.847s-1.469,7.058-4.407,9.485s-6.793,3.641-11.562,3.641c-6.984,0-13.18-2.405-18.588-7.218
			l4.728-5.685c4.513,3.918,9.197,5.876,14.052,5.876c2.428,0,4.354-0.521,5.781-1.564c1.426-1.043,2.14-2.428,2.14-4.152
			s-0.671-3.065-2.012-4.023c-1.342-0.959-3.652-1.831-6.931-2.619c-3.279-0.788-5.771-1.512-7.474-2.172s-3.216-1.522-4.535-2.587
			c-2.641-2.001-3.96-5.067-3.96-9.198c0-4.13,1.501-7.313,4.503-9.549s6.717-3.354,11.146-3.354c2.853,0,5.685,0.469,8.495,1.405
			c2.811,0.937,5.238,2.258,7.282,3.96l-4.024,5.685c-1.32-1.191-3.109-2.171-5.365-2.938
			C484.076,37.975,481.852,37.592,479.658,37.592z"/>
	</g>
</g>
</svg>
