<?xml version="1.0" encoding="utf-8"?>
<!-- Generator: Adobe Illustrator 16.0.0, SVG Export Plug-In . SVG Version: 6.00 Build 0)  -->
<!DOCTYPE svg PUBLIC "-//W3C//DTD SVG 1.1//EN" "http://www.w3.org/Graphics/SVG/1.1/DTD/svg11.dtd">
<svg version="1.1" id="Layer_1" xmlns="http://www.w3.org/2000/svg" xmlns:xlink="http://www.w3.org/1999/xlink" x="0px" y="0px"
	 width="512px" height="512px" viewBox="0 0 512 512" enable-background="new 0 0 512 512" xml:space="preserve">
<g id="Symbol_4_">
	<g>
		<path fill-rule="evenodd" clip-rule="evenodd" fill="#2689C9" d="M126.49,209.321c12.926,0,25.17-3.003,36.136-8.349
			c-15.604-19.54-24.951-44.246-24.951-71.128c0-31.957,13.183-60.848,34.413-81.607c-13.164-8.7-28.806-13.769-45.598-13.769
			c-46.779,0-84.7,39.151-84.7,87.427C41.79,170.177,79.711,209.321,126.49,209.321z M95.907,241.131
			c-31.693,0-47.963-25.456-47.963-25.456C21.748,215.675,10,237.05,10,263.4v101.836c0,22.763,40.087,42.189,88.547,53.925V282.5
			c0-24.442,18.262-44.559,41.796-47.355C127.321,236.483,104.453,241.131,95.907,241.131z M259.557,228.395
			c53.545,0,96.957-44.835,96.957-100.14c0-55.309-43.412-100.14-96.957-100.14c-53.551,0-96.966,44.832-96.966,100.14
			C162.59,183.56,206.006,228.395,259.557,228.395z M353.952,200.973c10.904,5.346,23.083,8.349,35.945,8.349
			c46.527,0,84.236-39.145,84.236-87.426c0-48.276-37.709-87.427-84.236-87.427c-16.705,0-32.264,5.069-45.356,13.769
			c21.113,20.76,34.232,49.65,34.232,81.607C378.773,156.727,369.472,181.433,353.952,200.973z M464.607,215.675
			c0,0-16.363,25.437-48.215,25.437c-8.6,0-31.587-4.654-44.674-5.996c23.656,2.807,42.021,22.903,42.021,47.32v136.525
			c48.704-11.709,89.014-31.123,89.014-53.866V263.368C502.754,237.021,490.936,215.675,464.607,215.675z M343.801,250.648
			c0,0-25.897,25.434-57.748,25.434c-10.042,0-17.49-15.9-28.086-15.9c-16.804,0-20.818,15.9-34.973,15.9
			c-22.231,0-54.04-25.434-54.04-25.434c-26.338,0-47.69,21.352-47.69,47.68v139.874c0,55.592,270.224,57.497,270.224,0V298.328
			C391.487,272,370.129,250.648,343.801,250.648z M329.497,412.781c-30.436,5.942-115.113,6.18-146.24,0
			c-10.995-2.182-17.483-4.814-17.483-12.72c0-7.898,5.311-12.661,17.483-9.54c23.631,6.052,101.379,5.729,146.24,0
			c18.609-2.362,19.846,1.681,20.663,9.54C351.068,408.881,342.068,410.316,329.497,412.781z M329.497,371.448
			c-30.436,5.955-115.113,6.18-146.24,0c-10.995-2.182-17.483-4.814-17.483-12.72c0-7.892,5.311-12.643,17.483-9.533
			c23.631,6.051,101.379,5.723,146.24,0c18.609-2.375,19.846,1.68,20.663,9.533C351.068,367.554,342.068,368.989,329.497,371.448z"
			/>
	</g>
</g>
</svg>
