<?xml version="1.0" encoding="utf-8"?>
<!-- Generator: Adobe Illustrator 25.2.0, SVG Export Plug-In . SVG Version: 6.00 Build 0)  -->
<svg version="1.1" id="Layer_1" xmlns="http://www.w3.org/2000/svg" xmlns:xlink="http://www.w3.org/1999/xlink" x="0px" y="0px"
	 viewBox="0 0 320 320" style="enable-background:new 0 0 320 320;" xml:space="preserve">
<style type="text/css">
	.st0{fill:none;stroke:#EFEFEF;stroke-linecap:round;stroke-linejoin:round;stroke-miterlimit:10;stroke-dasharray:4,8;}
	.st1{fill-rule:evenodd;clip-rule:evenodd;fill:#FFFFFF;}
	.st2{fill-rule:evenodd;clip-rule:evenodd;fill:#2E86C7;}
	.st3{fill:#2E86C7;}
	.st4{fill:#FFFFFF;}
	.st5{display:none;fill:#FFFFFF;}
	.st6{fill:#EFEFEF;}
	.st7{fill:#DEDFDF;}
	.st8{fill:#4296D2;}
	.st9{fill:#BFBFBF;}
	.st10{fill:url(#SVGID_1_);}
</style>
<circle class="st0" cx="154.17" cy="163.2" r="123.74"/>
<g id="PDF">
	<path id="XMLID_36_" class="st1" d="M227.95,153.65c-19.63,0-36.29,6.91-50.01,20.71c-13.79,13.72-20.69,30.4-20.69,50.03
		s6.9,36.28,20.69,49.91c5.06,5.16,10.54,9.36,16.45,12.61h-85.87c-1.37-0.08-2.7-0.47-3.98-1.16c-2.14-1.03-3.21-3.05-3.21-6.04
		V105.03c0.17-1.55,0.51-2.87,1.03-3.99c1.11-2.15,3.17-3.21,6.17-3.21h174.7l1.16,0.26c1.03,0.18,1.93,0.43,2.7,0.77
		c2.23,1.03,3.34,3.08,3.34,6.17v85.93c-3.24-5.93-7.44-11.47-12.6-16.59C263.94,160.56,247.32,153.65,227.95,153.65z"/>
	<path id="XMLID_33_" class="st2" d="M227.95,153.65c19.37,0,35.99,6.91,49.87,20.71c5.16,5.13,9.36,10.66,12.6,16.59v-85.91
		c0-3.09-1.11-5.15-3.34-6.17c-0.77-0.34-1.67-0.6-2.7-0.77l-1.16-0.26h-174.7c-3,0-5.06,1.07-6.17,3.21
		c-0.52,1.11-0.86,2.44-1.03,3.99v174.68c0,3,1.07,5.02,3.21,6.04c1.29,0.69,2.61,1.07,3.98,1.16h85.87
		c-5.91-3.24-11.39-7.45-16.45-12.61c-13.79-13.63-20.69-30.27-20.69-49.91s6.9-36.31,20.69-50.03
		C191.65,160.56,208.32,153.65,227.95,153.65z M287.85,89.85c1.89,0.34,3.34,0.81,4.37,1.42c4.29,2.06,6.43,5.79,6.43,11.19v121.95
		c0,19.55-6.94,36.19-20.83,49.91c-13.88,13.89-30.51,20.84-49.87,20.84H105.95c-2.06,0-4.2-0.51-6.43-1.55
		c-4.29-2.23-6.43-6-6.43-11.32V102.46c0-2.15,0.56-4.29,1.67-6.43c2.06-4.29,5.79-6.43,11.18-6.43h179.84L287.85,89.85z"/>
	<g>
		<path class="st3" d="M144.63,129.25c0,4.65-1.52,8.22-4.58,10.7c-3.05,2.48-7.38,3.72-13.02,3.72h-4.64v16.67h-7.29v-44.56h12.84
			c5.57,0,9.74,1.14,12.52,3.41C143.25,121.47,144.63,124.82,144.63,129.25z M122.42,137.54h3.87c3.74,0,6.48-0.65,8.23-1.95
			c1.74-1.3,2.62-3.33,2.62-6.1c0-2.56-0.78-4.47-2.34-5.73c-1.57-1.26-4-1.89-7.32-1.89h-5.06L122.42,137.54L122.42,137.54z"/>
	</g>
	<g id="_x33__8_">
		<g>
			<g>
				<path class="st4" d="M271.92,229.48h-38.1c-1.29,0-2.34-1.05-2.34-2.34v-24.81c0-1.29,1.05-2.34,2.34-2.34h38.1
					c1.29,0,2.34,1.05,2.34,2.34v24.81C274.26,228.43,273.21,229.48,271.92,229.48z"/>
				<polygon class="st3" points="236.35,224.19 245.19,214.9 251.24,220.81 260.53,208.49 270.8,224 				"/>
				<circle class="st3" cx="238.75" cy="209.22" r="2.39"/>
			</g>
			<g id="Lines_9_">
				<path class="st4" d="M220.45,228.86h-19.76c-2.57,0-4.67-2.1-4.67-4.67l0,0c0-2.57,2.1-4.67,4.67-4.67h19.76
					c2.57,0,4.67,2.1,4.67,4.67l0,0C225.12,226.76,223.02,228.86,220.45,228.86z"/>
				<ellipse class="st4" cx="186.52" cy="224.19" rx="4.66" ry="4.66"/>
				<g>
					<path class="st4" d="M220.45,209.33h-33.93c-2.57,0-4.67-2.1-4.67-4.67l0,0c0-2.57,2.1-4.67,4.67-4.67h33.93
						c2.57,0,4.67,2.1,4.67,4.67l0,0C225.12,207.22,223.02,209.33,220.45,209.33z"/>
					<ellipse class="st5" cx="188.11" cy="249.58" rx="4.66" ry="4.66"/>
				</g>
				<g>
					<path class="st4" d="M237.43,248.19h-50.9c-2.57,0-4.67-2.1-4.67-4.67l0,0c0-2.57,2.1-4.67,4.67-4.67h50.9
						c2.57,0,4.67,2.1,4.67,4.67l0,0C242.09,246.09,239.99,248.19,237.43,248.19z"/>
					<ellipse class="st5" cx="188.11" cy="233.57" rx="4.66" ry="4.66"/>
				</g>
			</g>
		</g>
		<path class="st5" d="M210.01,222.03h-21.68c-2.57,0-4.67-2.1-4.67-4.67l0,0c0-2.57,2.1-4.67,4.67-4.67h21.68
			c2.57,0,4.67,2.1,4.67,4.67l0,0C214.67,219.93,212.57,222.03,210.01,222.03z"/>
		<path class="st5" d="M210.01,201.88h-21.68c-2.57,0-4.67-2.1-4.67-4.67l0,0c0-2.57,2.1-4.67,4.67-4.67h21.68
			c2.57,0,4.67,2.1,4.67,4.67l0,0C214.67,199.78,212.57,201.88,210.01,201.88z"/>
		<path class="st4" d="M237.43,248.19h-1.36c-2.57,0-4.67-2.1-4.67-4.67l0,0c0-2.57,2.1-4.67,4.67-4.67h1.36
			c2.57,0,4.67,2.1,4.67,4.67l0,0C242.09,246.09,239.99,248.19,237.43,248.19z"/>
		<path class="st4" d="M269.6,248.19h-15.97c-2.57,0-4.67-2.1-4.67-4.67l0,0c0-2.57,2.1-4.67,4.67-4.67h15.97
			c2.57,0,4.67,2.1,4.67,4.67l0,0C274.26,246.09,272.17,248.19,269.6,248.19z"/>
	</g>
</g>
<g>
	<path class="st6" d="M274.83,141.96c-19.03,0-34.51-15.48-34.51-34.51s15.48-34.51,34.51-34.51s34.51,15.48,34.51,34.51
		S293.86,141.96,274.83,141.96z"/>
	<path class="st7" d="M274.83,74.45c18.2,0,33.01,14.81,33.01,33.01s-14.81,33.01-33.01,33.01s-33.01-14.81-33.01-33.01
		S256.63,74.45,274.83,74.45 M274.83,71.45c-19.89,0-36.01,16.12-36.01,36.01s16.12,36.01,36.01,36.01s36.01-16.12,36.01-36.01
		S294.72,71.45,274.83,71.45L274.83,71.45z"/>
</g>
<g>
	<g>
		<polygon class="st8" points="212.94,47.07 231.19,48.19 229.78,65.23 222.61,70.15 215.36,66.73 		"/>
		<polygon class="st8" points="159.28,50.4 163.44,50.4 164.78,47.07 165.44,27.68 158.78,23.9 146.28,23.9 145.28,38.07 
			145.78,49.98 		"/>
		<polygon class="st8" points="89.03,54.9 82.11,48.65 70.36,49.07 69.94,74.9 70.69,75.82 89.03,75.82 		"/>
		<polygon class="st8" points="46.53,116.48 40.28,110.32 28.11,110.32 28.11,137.23 46.53,137.57 		"/>
		<polygon class="st8" points="51.03,191.07 44.94,185.65 28.69,185.32 27.19,187.15 27.19,208.69 50.53,209.07 		"/>
		<polygon class="st8" points="78.78,247.15 72.78,241.15 58.44,240.67 59.03,267.98 77.69,267.98 		"/>
	</g>
	<g>
		<g>
			<path class="st6" d="M210.79,45.07h22.5l-2.05,23.2l-9.2,3.05l-9.2-3.05L210.79,45.07z M228.83,52.57l0.29-2.81H215l0.7,8.55
				h9.79l-0.35,3.63l-3.11,0.82l-3.16-0.82l-0.23-2.23h-2.75l0.35,4.45l5.8,1.58h0.06l5.68-1.58l0.82-8.73h-10.31l-0.23-2.87h10.77
				V52.57z"/>
		</g>
		<g>
			<path class="st6" d="M165.44,27.68c0.55,0.55,0.82,1.21,0.82,1.99v19.45c0,0.78-0.27,1.44-0.82,1.99
				c-0.55,0.55-1.21,0.82-1.99,0.82h-16.87c-0.78,0-1.45-0.27-1.99-0.82c-0.55-0.55-0.82-1.21-0.82-1.99V24.75
				c0-0.78,0.27-1.44,0.82-1.99s1.21-0.82,1.99-0.82h11.95c0.78,0,1.44,0.27,1.99,0.82L165.44,27.68z M146.57,49.12h16.87V32.25
				h-6.09c-0.39,0-0.72-0.14-1-0.41c-0.27-0.27-0.41-0.6-0.41-1v-6.09h-9.38v24.37C146.56,49.12,146.57,49.12,146.57,49.12z
				 M149.27,33.07c0.55-0.55,1.21-0.82,1.99-0.82s1.44,0.27,1.99,0.82s0.82,1.21,0.82,1.99c0,0.78-0.27,1.45-0.82,1.99
				c-0.55,0.55-1.21,0.82-1.99,0.82s-1.45-0.27-1.99-0.82c-0.55-0.55-0.82-1.21-0.82-1.99S148.72,33.62,149.27,33.07z M148.45,46.31
				v-3.75l2.34-2.34c0.31-0.31,0.62-0.31,0.94,0l2.34,2.34l5.16-5.16c0.31-0.31,0.62-0.31,0.94,0l1.41,1.41v7.5H148.45z
				 M163.21,29.44l-4.45-4.45v4.45C158.76,29.44,163.21,29.44,163.21,29.44z"/>
		</g>
		<g>
			<path class="st6" d="M89.97,53.39c0.55,0.55,0.82,1.21,0.82,1.99v19.45c0,0.78-0.27,1.44-0.82,1.99
				c-0.55,0.55-1.21,0.82-1.99,0.82H71.1c-0.78,0-1.45-0.27-1.99-0.82c-0.55-0.55-0.82-1.21-0.82-1.99V50.46
				c0-0.78,0.27-1.44,0.82-1.99c0.55-0.55,1.21-0.82,1.99-0.82h11.95c0.78,0,1.44,0.27,1.99,0.82L89.97,53.39z M71.1,74.83h16.88
				V57.96h-6.09c-0.39,0-0.72-0.14-1-0.41c-0.27-0.27-0.41-0.6-0.41-1v-6.09H71.1V74.83z M83.53,60.77c0.27,0,0.48,0.12,0.62,0.35
				s0.13,0.47-0.03,0.7c-1.37,2.38-2.27,3.91-2.7,4.57l2.7,4.57c0.16,0.23,0.17,0.47,0.03,0.7c-0.14,0.23-0.34,0.35-0.62,0.35h-1.7
				c-0.27,0-0.47-0.12-0.59-0.35c-0.08-0.12-0.64-1.25-1.7-3.4c-0.47,1.05-1.04,2.19-1.7,3.4c-0.12,0.23-0.31,0.35-0.59,0.35h-1.7
				c-0.27,0-0.48-0.12-0.62-0.35c-0.14-0.23-0.13-0.47,0.03-0.7l2.7-4.57l-2.7-4.57c-0.16-0.23-0.17-0.47-0.03-0.7
				s0.34-0.35,0.62-0.35h1.7c0.27,0,0.49,0.12,0.64,0.35c0.35,0.7,0.9,1.84,1.64,3.4c0.35-0.86,0.92-1.99,1.7-3.4
				c0.12-0.23,0.31-0.35,0.59-0.35C81.82,60.77,83.53,60.77,83.53,60.77z M87.74,55.15l-4.45-4.45v4.45H87.74z"/>
		</g>
		<g>
			<path class="st6" d="M47.5,115.02c0.55,0.55,0.82,1.21,0.82,1.99v19.45c0,0.78-0.27,1.44-0.82,1.99s-1.21,0.82-1.99,0.82H28.64
				c-0.78,0-1.45-0.27-1.99-0.82c-0.55-0.55-0.82-1.21-0.82-1.99v-24.38c0-0.78,0.27-1.44,0.82-1.99c0.55-0.55,1.21-0.82,1.99-0.82
				h11.95c0.78,0,1.44,0.27,1.99,0.82L47.5,115.02z M28.64,136.47h16.88v-16.88h-6.09c-0.39,0-0.72-0.14-1-0.41
				c-0.27-0.27-0.41-0.6-0.41-1v-6.09h-9.38C28.64,112.09,28.64,136.47,28.64,136.47z M41.53,124.28h0.94
				c0.23,0,0.42,0.09,0.56,0.26c0.14,0.18,0.18,0.38,0.15,0.62c-0.39,1.48-1.08,4.14-2.05,7.97c-0.08,0.35-0.31,0.53-0.7,0.53h-1.41
				c-0.39,0-0.62-0.18-0.7-0.53c-0.27-1.13-0.62-2.54-1.05-4.22l-0.18-1c0,0.31-0.06,0.64-0.18,1l-1.05,4.22
				c-0.08,0.35-0.29,0.53-0.64,0.53h-1.46c-0.39,0-0.62-0.18-0.7-0.53c-0.12-0.47-0.43-1.75-0.94-3.84c-0.51-2.09-0.84-3.47-1-4.13
				c-0.08-0.23-0.04-0.44,0.12-0.62c0.16-0.18,0.33-0.26,0.53-0.26h1c0.39,0,0.62,0.2,0.7,0.59c0.74,3.75,1.11,5.68,1.11,5.8
				c0,0.04,0.02,0.12,0.06,0.23c0-0.23,0.47-2.27,1.41-6.09c0.12-0.35,0.35-0.53,0.7-0.53h0.76c0.39,0,0.62,0.18,0.7,0.53
				c0.9,3.79,1.37,5.74,1.41,5.86c0,0.04,0,0.12,0,0.23c0.04-0.23,0.45-2.25,1.23-6.04C40.9,124.47,41.14,124.28,41.53,124.28z
				 M45.28,116.78l-4.45-4.45v4.45H45.28z"/>
		</g>
		<g>
			<path class="st6" d="M51.25,190.05c0.55,0.55,0.82,1.21,0.82,1.99v15.7c0,0.78-0.27,1.45-0.82,1.99
				c-0.55,0.55-1.21,0.82-1.99,0.82H28.64c-0.78,0-1.45-0.27-1.99-0.82c-0.55-0.55-0.82-1.21-0.82-1.99v-20.62
				c0-0.78,0.27-1.44,0.82-1.99s1.21-0.82,1.99-0.82h15.7c0.78,0,1.44,0.27,1.99,0.82L51.25,190.05z M48.91,207.75
				c0.23,0,0.35-0.12,0.35-0.35v-15.23c0-0.08-0.04-0.16-0.12-0.23l-4.57-4.57v5.86c0,0.39-0.14,0.72-0.41,1
				c-0.27,0.27-0.61,0.41-1,0.41H32.85c-0.39,0-0.72-0.14-1-0.41c-0.27-0.27-0.41-0.6-0.41-1v-6.09h-2.46
				c-0.23,0-0.35,0.12-0.35,0.35v19.92c0,0.23,0.12,0.35,0.35,0.35h19.93V207.75z M35.31,197.55c1.02-1.01,2.23-1.52,3.63-1.52
				s2.62,0.51,3.63,1.52c1.02,1.02,1.52,2.23,1.52,3.63s-0.51,2.62-1.52,3.63c-1.02,1.02-2.23,1.52-3.63,1.52s-2.62-0.51-3.63-1.52
				c-1.02-1.01-1.52-2.23-1.52-3.63S34.3,198.57,35.31,197.55z M41.76,187.12h-7.5v4.69h7.5V187.12z M37.28,202.86
				c0.45,0.45,1,0.67,1.67,0.67c0.66,0,1.22-0.22,1.67-0.67c0.45-0.45,0.67-1,0.67-1.67c0-0.66-0.23-1.22-0.67-1.67
				c-0.45-0.45-1.01-0.67-1.67-0.67c-0.67,0-1.22,0.23-1.67,0.67c-0.45,0.45-0.67,1.01-0.67,1.67
				C36.6,201.85,36.83,202.41,37.28,202.86z"/>
		</g>
		<g>
			<path class="st6" d="M79.3,245.59c0.55,0.55,0.82,1.21,0.82,1.99v19.45c0,0.78-0.27,1.44-0.82,1.99s-1.21,0.82-1.99,0.82H60.44
				c-0.78,0-1.45-0.27-1.99-0.82c-0.55-0.55-0.82-1.21-0.82-1.99v-24.38c0-0.78,0.27-1.45,0.82-1.99c0.55-0.55,1.21-0.82,1.99-0.82
				h11.95c0.78,0,1.44,0.27,1.99,0.82L79.3,245.59z M77.31,267.03v-16.88h-6.09c-0.39,0-0.72-0.14-1-0.41
				c-0.27-0.27-0.41-0.61-0.41-1v-6.09h-9.38v24.38H77.31z M66.41,260.29c0.23,0.23,0.23,0.49,0,0.76l-1,1.05
				c-0.12,0.12-0.25,0.18-0.41,0.18c-0.12,0-0.23-0.06-0.35-0.18l-3.34-3.16c-0.27-0.23-0.27-0.47,0-0.7l3.34-3.16
				c0.27-0.27,0.53-0.27,0.76,0l1,1.05v0.06c0.23,0.23,0.23,0.47,0,0.7l-1.93,1.7L66.41,260.29z M69.93,252.38l1.41,0.41
				c0.35,0.08,0.47,0.29,0.35,0.64l-3.22,11.02c-0.08,0.35-0.29,0.47-0.64,0.35l-1.41-0.41c-0.35-0.08-0.47-0.29-0.35-0.64
				l3.22-11.02C69.36,252.42,69.58,252.31,69.93,252.38z M71.33,256.9c-0.23-0.23-0.23-0.49,0-0.76l1-1.05
				c0.23-0.27,0.49-0.27,0.76,0l3.34,3.16c0.27,0.23,0.27,0.47,0,0.7l-3.34,3.16c-0.27,0.27-0.53,0.27-0.76,0l-1-1.05V261
				c-0.23-0.23-0.23-0.47,0-0.7l1.93-1.7L71.33,256.9z M72.62,242.89v4.45h4.45L72.62,242.89z"/>
		</g>
	</g>
</g>
<g transform="matrix(.569 0 0 .569 199.451 -82.735)">
	<path class="st9" d="M146.58,329.32l-14.52,4.74l-12.63,5.57l-3.53,0.93c-0.9,0.86-1.84,1.72-2.86,2.6
		c-1.12,0.97-2.16,1.84-2.96,2.48c-0.89,0.7-2.21,2.02-2.88,2.85c-1,1.25-1.79,2.58-2.13,3.6c-0.6,1.84-0.31,3.71,0.86,5.43
		c1.49,2.19,4.47,4.43,7.93,5.96c1.77,0.78,4.74,1.78,6.98,2.34c3.72,0.94,10.92,1.96,14.88,2.12c0.8,0.03,1.88,0.03,1.92,0
		c0.09-0.06,0.7-1.23,1.42-2.69c2.44-4.97,4.19-9.64,5.15-13.62c0.57-2.41,1.02-5.63,1.32-9.44c0.08-1.06,0.11-4.63,0.04-5.84
		c-0.1-1.98-0.27-3.58-0.55-5.15c-0.04-0.23-0.06-0.44-0.03-0.45c0.04-0.03,0.18-0.08,1.96-0.59L146.58,329.32L146.58,329.32
		L146.58,329.32L146.58,329.32z M143.26,331.27c0.13,0,0.48,3.37,0.57,5.5c0.02,0.45,0.01,0.75-0.01,0.75
		c-0.09,0-1.85-1.04-3.12-1.83c-1.1-0.69-3.18-2.07-3.51-2.34c-0.11-0.08-0.1-0.09,0.8-0.4
		C139.52,332.43,143.14,331.27,143.26,331.27z M135.86,333.7c0.1,0,0.35,0.14,0.95,0.52c2.26,1.42,5.33,3.13,6.65,3.7
		c0.41,0.18,0.45,0.11-0.48,0.75c-2,1.36-4.49,2.7-7.54,4.05c-0.54,0.24-0.99,0.43-1,0.43c-0.02,0,0.04-0.27,0.13-0.6
		c0.74-2.73,1.15-5.5,1.17-7.71C135.75,333.74,135.75,333.74,135.86,333.7C135.84,333.7,135.85,333.7,135.86,333.7L135.86,333.7z
		 M134.34,334.28c0.07,0.07,0.02,2.52-0.07,3.19c-0.2,1.6-0.5,3.09-1.01,4.77c-0.12,0.41-0.23,0.75-0.25,0.77
		c-0.04,0.05-1.55-1.42-2.04-1.99c-0.86-0.99-1.53-1.98-2.02-2.94c-0.25-0.49-0.65-1.46-0.61-1.49
		C128.51,336.48,134.3,334.24,134.34,334.28L134.34,334.28z M127.16,337.1c0.01,0,0.02,0,0.03,0.01c0.02,0.02,0.1,0.2,0.16,0.4
		c0.35,0.95,1.14,2.36,1.82,3.26c0.75,0.99,1.72,2.04,2.53,2.73c0.26,0.22,0.5,0.43,0.54,0.46c0.07,0.07,0.09,0.05-1.7,0.74
		c-2.07,0.79-4.33,1.58-6.92,2.41c-0.62,0.2-1.24,0.4-1.85,0.6c-0.1,0.03-0.07-0.02,0.22-0.47c1.28-2.01,3.24-5.95,4.33-8.74
		c0.19-0.48,0.37-0.97,0.41-1.08c0.04-0.15,0.1-0.21,0.24-0.29C127.05,337.13,127.13,337.1,127.16,337.1L127.16,337.1z
		 M124.97,338.02c0.03,0.02-0.53,1.2-1.08,2.27c-1.06,2.07-2.23,4.12-3.79,6.6c-0.26,0.43-0.52,0.82-0.55,0.87
		c-0.05,0.08-0.08,0.05-0.25-0.29c-0.37-0.74-0.68-1.68-0.85-2.55c-0.16-0.86-0.13-2.35,0.05-3.27c0.14-0.68,0.13-0.67,0.46-0.83
		C120.38,340.1,124.92,337.97,124.97,338.02L124.97,338.02z M143.9,338.78v0.46c0,2.45-0.26,5.81-0.65,8.25
		c-0.07,0.43-0.12,0.78-0.13,0.79c0,0-0.32-0.09-0.69-0.2c-1.65-0.52-3.43-1.27-5.05-2.16c-1.06-0.58-2.61-1.54-2.57-1.58
		c0.01-0.01,0.47-0.25,1.01-0.54c2.15-1.12,4.21-2.33,6-3.52c0.67-0.45,1.68-1.17,1.9-1.37L143.9,338.78L143.9,338.78z
		 M116.68,342.03c0.04,0,0.03,0.09-0.03,0.48c-0.04,0.29-0.1,0.81-0.12,1.17c-0.09,1.6,0.18,2.79,0.97,4.41
		c0.22,0.45,0.4,0.82,0.38,0.83c-0.08,0.07-7.34,2.2-9.62,2.82c-0.68,0.19-1.27,0.35-1.32,0.36c-0.08,0.02-0.09,0.01-0.05-0.18
		c0.25-1.61,1.48-3.72,3.19-5.5c1.14-1.19,2.05-1.88,3.61-2.77c1.12-0.64,2.84-1.59,2.97-1.64
		C116.66,342.03,116.67,342.03,116.68,342.03L116.68,342.03z M133.8,345.09c0.01-0.01,0.27,0.13,0.59,0.32
		c2.35,1.36,5.62,2.62,8.41,3.27l0.25,0.05l-0.35,0.2c-1.46,0.81-6.26,2.81-11.16,4.64c-0.71,0.26-1.42,0.53-1.55,0.58
		s-0.25,0.09-0.25,0.08s0.2-0.4,0.45-0.87c1.37-2.57,2.75-5.7,3.46-7.87C133.74,345.29,133.79,345.1,133.8,345.09L133.8,345.09z
		 M132.06,345.66c0.01,0.01-0.08,0.24-0.19,0.5c-0.95,2.32-2.21,4.84-3.81,7.67c-0.41,0.72-0.75,1.31-0.76,1.31s-0.34-0.2-0.74-0.44
		c-2.33-1.43-4.39-3.18-5.74-4.88l-0.2-0.24l1-0.27c3.58-0.98,6.62-2.03,9.64-3.33C131.69,345.81,132.05,345.66,132.06,345.66z
		 M142.9,349.45C142.9,349.45,142.91,349.46,142.9,349.45c0.01,0.25-0.55,2.51-1.01,4.15c-0.38,1.37-0.71,2.45-1.32,4.35
		c-0.26,0.83-0.49,1.53-0.5,1.53s-0.08-0.01-0.14-0.03c-3.26-0.59-6.18-1.42-8.92-2.51c-0.77-0.31-1.87-0.8-1.93-0.86
		c-0.02-0.02,0.64-0.33,1.47-0.69c4.99-2.18,10.17-4.66,11.95-5.73C142.7,349.52,142.87,349.45,142.9,349.45L142.9,349.45z
		 M117.87,350.31c0.02,0.02-1.37,2.03-3.33,4.76c-0.68,0.95-1.47,2.07-1.77,2.49c-0.3,0.42-0.75,1.08-1,1.47l-0.46,0.71l-0.49-0.42
		c-0.58-0.48-1.59-1.51-2.04-2.09c-0.94-1.17-1.58-2.41-1.83-3.54c-0.12-0.53-0.12-0.79-0.01-0.82c0.16-0.04,3.09-0.74,5.84-1.37
		c1.53-0.35,3.29-0.77,3.93-0.92C117.34,350.43,117.86,350.31,117.87,350.31L117.87,350.31z M119.27,350.84l0.35,0.4
		c1.58,1.77,3.19,3.07,5.15,4.21c0.35,0.2,0.61,0.37,0.59,0.38c-0.08,0.05-6.78,2.44-9.89,3.51c-1.74,0.61-3.18,1.11-3.19,1.11
		s-0.11-0.07-0.22-0.14l-0.2-0.14l0.32-0.46c1.03-1.49,2.33-3.13,5.15-6.53L119.27,350.84L119.27,350.84z M128.03,357.11
		c0.01-0.01,0.49,0.16,1.09,0.38c1.43,0.54,2.56,0.88,4.07,1.26c1.87,0.47,4.57,0.93,6.16,1.06c0.24,0.02,0.37,0.04,0.33,0.08
		c-0.08,0.04-1.69,0.58-2.88,0.95c-1.89,0.59-7.65,2.29-12.35,3.64c-0.87,0.25-1.61,0.46-1.66,0.47c-0.11,0.02-0.47-0.08-0.47-0.12
		c0-0.02,0.26-0.36,0.58-0.74c1.58-1.89,3.15-3.99,4.46-5.99C127.72,357.57,128.03,357.12,128.03,357.11L128.03,357.11z
		 M126.1,357.17c0.01,0.01-0.77,1.26-2.13,3.41c-0.58,0.91-1.23,1.94-1.46,2.3c-0.22,0.35-0.55,0.9-0.74,1.21l-0.32,0.56l-0.16-0.04
		c-0.4-0.11-3.17-1.09-3.91-1.38c-0.91-0.36-1.85-0.8-2.56-1.17c-0.88-0.47-1.98-1.17-1.89-1.2c0.02-0.01,1.53-0.42,3.34-0.91
		c4.81-1.31,7.47-2.06,9.22-2.61C125.81,357.23,126.09,357.15,126.1,357.17L126.1,357.17z M139.76,360.37L139.76,360.37
		c0.05,0.11-1.72,5.05-2.37,6.61c-0.14,0.35-0.2,0.44-0.27,0.43c-0.19-0.01-2.77-0.37-4.33-0.6c-2.73-0.42-7.32-1.22-8.47-1.48
		l-0.26-0.05l1.63-0.37c3.51-0.79,5.2-1.22,6.91-1.74c2.16-0.66,4.3-1.48,6.46-2.49C139.4,360.5,139.68,360.38,139.76,360.37
		L139.76,360.37z"/>
	<path class="st9" d="M131.61,295.48c-0.24-0.03-4.14,1.37-6.65,2.39c-3.39,1.38-6.02,2.7-7.65,3.84c-0.6,0.43-1.36,1.19-1.48,1.48
		c-0.04,0.11-0.07,0.24-0.07,0.37l1.47,1.39l3.5,1.12l8.33,1.49l9.53,1.64l0.1-0.82c-0.03,0-0.05-0.01-0.09-0.01l-1.25-0.2
		l-0.25-0.45c-1.3-2.28-2.72-5.11-3.56-7.02c-0.65-1.48-1.26-3.19-1.6-4.42C131.75,295.53,131.73,295.49,131.61,295.48
		L131.61,295.48L131.61,295.48L131.61,295.48z M131.43,296.04L131.43,296.04c0.02,0.01,0.06,0.32,0.11,0.68
		c0.19,1.54,0.53,3.02,1.06,4.62c0.41,1.21,0.41,1.14-0.07,1c-1.12-0.31-6.13-1.17-9.77-1.68c-0.58-0.08-1.08-0.15-1.08-0.16
		c-0.04-0.04,2.62-1.44,3.8-1.99C127,297.82,131.12,296.09,131.43,296.04L131.43,296.04z M120.85,300.96l0.43,0.14
		c2.33,0.79,8.18,1.91,11.4,2.17c0.36,0.03,0.67,0.07,0.68,0.07c0.01,0.01-0.3,0.18-0.69,0.36c-1.56,0.78-3.27,1.73-4.46,2.47
		c-0.35,0.22-0.67,0.4-0.71,0.4s-0.27-0.04-0.52-0.08l-0.44-0.07l-1.1-1.08c-1.93-1.88-3.45-3.33-4.03-3.87L120.85,300.96z
		 M120.41,301.3l1.55,1.93c0.84,1.06,1.7,2.11,1.89,2.34s0.34,0.42,0.33,0.43c-0.04,0.03-2.24-0.4-3.4-0.66
		c-1.2-0.27-1.69-0.41-2.43-0.64l-0.6-0.2v-0.15c0.01-0.74,0.94-1.83,2.52-2.95L120.41,301.3L120.41,301.3z M133.56,303.93
		c0.04,0,0.1,0.1,0.23,0.4c0.37,0.82,1.54,3.04,1.82,3.47c0.09,0.14,0.24,0.15-1.31-0.1c-3.72-0.6-4.92-0.8-4.92-0.82
		c0-0.01,0.11-0.09,0.25-0.16c1.15-0.64,2.32-1.45,3.35-2.32c0.25-0.21,0.48-0.41,0.53-0.44
		C133.53,303.93,133.55,303.92,133.56,303.93L133.56,303.93z"/>
	
		<radialGradient id="SVGID_1_" cx="-29279.9355" cy="60092.1992" r="26.8768" gradientTransform="matrix(-0.021 -3.150162e-03 -6.372800e-03 0.042 -94.4741 -2295.0596)" gradientUnits="userSpaceOnUse">
		<stop  offset="0" style="stop-color:#FCCE6D"/>
		<stop  offset="1" style="stop-color:#FD9134"/>
	</radialGradient>
	<path class="st10" d="M115.9,303.04c0,0-0.24,0.38-0.01,0.95c0.14,0.35,0.56,0.78,1.03,1.22c0,0,4.88,4.76,5.48,5.44
		c2.7,3.12,3.87,6.19,3.98,10.43c0.07,2.72-0.45,5.11-1.73,7.89c-2.28,4.98-7.1,10.48-14.53,16.58l1.09-0.36
		c0.7-0.53,1.66-1.09,3.9-2.32c5.17-2.83,10.99-5.43,18.12-8.11c10.27-3.86,27.16-8.38,36.77-9.85l1-0.15l-0.15-0.24
		c-0.88-1.36-1.48-2.21-2.21-3.11c-2.11-2.61-4.66-4.73-7.79-6.49c-4.3-2.4-9.87-4.28-16.91-5.67c-1.33-0.26-4.25-0.77-6.62-1.13
		c-5.03-0.78-8.27-1.32-11.85-1.93c-1.28-0.22-3.2-0.55-4.48-0.82c-0.66-0.14-1.92-0.44-2.91-0.78
		C117.29,304.28,116.14,303.97,115.9,303.04L115.9,303.04z M118.73,305.78c0.01-0.01,0.19,0.05,0.42,0.13
		c0.42,0.14,0.95,0.31,1.59,0.48c0.48,0.13,0.96,0.26,1.45,0.38c0.66,0.16,1.21,0.32,1.22,0.32c0.08,0.08,1.19,3.62,1.56,4.98
		c0.14,0.52,0.25,0.95,0.24,0.95c-0.01,0.01-0.13-0.18-0.27-0.43c-1.28-2.26-3.31-4.55-5.66-6.4
		C118.96,305.99,118.73,305.8,118.73,305.78L118.73,305.78z M124.13,307.28c0.05,0,0.3,0.03,0.59,0.1c1.87,0.42,5.21,1.05,7.35,1.42
		c0.36,0.05,0.65,0.12,0.65,0.14c0,0.02-0.13,0.1-0.3,0.19c-0.36,0.19-1.82,1.05-2.3,1.38c-1.22,0.81-2.32,1.69-3.11,2.48
		c-0.32,0.32-0.59,0.58-0.59,0.58s-0.07-0.19-0.12-0.42c-0.39-1.53-1.22-3.79-1.96-5.38c-0.12-0.25-0.22-0.48-0.22-0.5
		C124.12,307.29,124.12,307.28,124.13,307.28L124.13,307.28z M133.64,309.09c0.07,0.02,0.18,0.4,0.4,1.22
		c0.41,1.59,0.59,3.37,0.53,5.03c-0.02,0.46-0.04,0.89-0.07,0.94l-0.03,0.11l-0.57-0.19c-1.17-0.37-3.08-0.93-4.72-1.39
		c-0.93-0.25-1.69-0.48-1.69-0.5c0-0.07,1.36-1.43,1.94-1.94C130.53,311.38,133.54,309.05,133.64,309.09L133.64,309.09z
		 M134.39,309.2c0.03-0.03,4.54,0.75,6.6,1.14c1.53,0.3,3.74,0.76,3.87,0.81c0.07,0.02-0.16,0.15-0.9,0.48
		c-2.9,1.31-5.05,2.48-7.19,3.91c-0.56,0.37-1.03,0.68-1.04,0.68s-0.02-0.32-0.02-0.7c0-2.09-0.42-4.19-1.19-5.97
		C134.45,309.37,134.38,309.21,134.39,309.2z M146.06,311.5c0.03,0.03-0.11,0.92-0.24,1.45c-0.4,1.64-1.46,4.06-2.77,6.34
		c-0.23,0.41-0.44,0.74-0.46,0.75s-0.32-0.15-0.66-0.35c-1.27-0.75-2.72-1.45-4.3-2.11c-0.44-0.19-0.82-0.34-0.83-0.36
		c-0.08-0.07,3.46-2.4,5.32-3.52C143.6,312.8,146.02,311.46,146.06,311.5L146.06,311.5z M146.89,311.63c0.1,0,2.1,0.55,3.14,0.86
		c2.58,0.77,5.54,1.85,7.47,2.73l0.8,0.36l-0.56,0.13c-4.72,1.09-8.76,2.34-12.65,3.92c-0.32,0.13-0.6,0.24-0.63,0.24
		c-0.02,0,0.09-0.25,0.23-0.56c1.17-2.49,1.93-5.09,2.12-7.31C146.83,311.8,146.86,311.63,146.89,311.63L146.89,311.63z
		 M127.01,316.2c0.03-0.03,1.56,0.33,2.38,0.56c1.25,0.35,3.91,1.24,3.91,1.31c0,0.01-0.3,0.26-0.65,0.57
		c-1.44,1.2-2.82,2.46-4.48,4.06c-0.49,0.47-0.91,0.86-0.93,0.86s-0.03-0.07-0.02-0.15c0.25-1.84,0.2-4.21-0.15-6.62
		C127.03,316.47,127,316.21,127.01,316.2z M159.06,316.23c0.02,0.02-0.7,1.16-1.16,1.81c-0.66,0.94-1.62,2.2-3.81,4.94
		c-1.15,1.45-2.45,3.08-2.88,3.63c-0.44,0.55-0.8,1.01-0.81,1.01s-0.15-0.2-0.31-0.44c-1.23-1.84-2.7-3.46-4.44-4.91
		c-0.33-0.27-0.69-0.57-0.81-0.66s-0.22-0.18-0.22-0.19c0-0.03,1.87-0.83,3.28-1.4c2.48-1.01,5.86-2.22,8.4-3
		C157.63,316.62,159.04,316.21,159.06,316.23L159.06,316.23z M159.91,316.45c0.04-0.01,0.31,0.12,0.63,0.31
		c2.67,1.53,5.28,3.49,7.34,5.51c0.58,0.57,2.02,2.06,2,2.07c0,0-0.5,0.04-1.1,0.09c-4.62,0.35-10.54,1.33-16.22,2.7
		c-0.38,0.09-0.72,0.16-0.75,0.16c-0.02,0,0.41-0.43,0.94-0.94c3.34-3.22,4.86-5.25,6.66-8.87
		C159.67,316.95,159.89,316.48,159.91,316.45C159.9,316.45,159.9,316.45,159.91,316.45L159.91,316.45z M135.47,318.95
		c0.15,0.03,1.58,0.7,2.66,1.24c0.99,0.49,2.47,1.28,2.55,1.35c0.01,0.01-0.52,0.29-1.16,0.6c-2.06,1.03-3.83,2.01-5.67,3.13
		c-0.53,0.32-0.97,0.58-0.98,0.58c-0.04,0-0.03-0.04,0.26-0.58c0.99-1.8,1.78-3.95,2.23-6.05
		C135.39,319.06,135.44,318.95,135.47,318.95L135.47,318.95z M134.04,319.22c0.03,0.03-0.34,1.38-0.57,2.12
		c-0.45,1.39-1.21,3.14-1.94,4.46c-0.18,0.31-0.44,0.76-0.58,1.01l-0.27,0.44l-0.61-0.59c-0.71-0.69-1.3-1.12-2.04-1.5
		c-0.3-0.15-0.53-0.29-0.53-0.31c0-0.09,1.88-1.79,3.31-3.02C131.84,320.93,134.01,319.18,134.04,319.22L134.04,319.22z
		 M142.77,322.81l0.54,0.35c1.23,0.8,2.68,1.87,3.79,2.8c0.63,0.52,1.83,1.6,2.07,1.87l0.13,0.14l-0.89,0.25
		c-5.03,1.39-8.91,2.63-13.44,4.3c-0.5,0.19-0.93,0.34-0.97,0.34c-0.07,0-0.12,0.05,1.01-0.99c2.9-2.67,5.47-5.61,7.37-8.47
		L142.77,322.81L142.77,322.81z M140.47,323.38c0.02,0.02-1.48,2.14-2.38,3.34c-1.08,1.43-2.99,3.82-4.3,5.38
		c-0.55,0.65-1.02,1.19-1.04,1.2c-0.03,0.01-0.04-0.15-0.04-0.41c0-1.33-0.34-2.74-0.93-3.95c-0.25-0.5-0.3-0.63-0.24-0.68
		c0.21-0.19,3.4-2.01,5.42-3.09C138.31,324.43,140.44,323.35,140.47,323.38L140.47,323.38z M126.6,326.78
		c0.03,0,0.29,0.13,0.57,0.29c0.7,0.38,1.33,0.81,1.89,1.27c0.02,0.02-0.26,0.25-0.64,0.53c-1.04,0.75-2.62,1.94-3.54,2.68
		c-0.97,0.77-1,0.79-0.89,0.63c0.72-1.11,1.09-1.73,1.47-2.54c0.34-0.71,0.68-1.56,0.92-2.29
		C126.47,327.02,126.58,326.78,126.6,326.78L126.6,326.78z M130.3,329.68c0.05-0.01,0.12,0.09,0.42,0.53
		c0.63,0.93,1.11,2.18,1.23,3.19l0.02,0.22l-1.5,0.58c-2.69,1.04-5.17,2.07-6.85,2.84c-0.47,0.22-1.29,0.61-1.83,0.88
		c-0.54,0.27-0.98,0.48-0.98,0.47s0.34-0.26,0.76-0.57c3.28-2.38,6.12-4.99,8.25-7.61c0.23-0.27,0.44-0.53,0.46-0.54L130.3,329.68
		L130.3,329.68z M128.6,330.09c0.04,0.04-1.21,1.46-2.06,2.33c-2.12,2.16-4.21,3.85-6.82,5.5c-0.33,0.21-0.63,0.39-0.66,0.42
		c-0.08,0.04,0.02-0.07,1.16-1.31c0.72-0.78,1.27-1.44,1.9-2.25c0.42-0.54,0.49-0.61,1.1-1.04
		C124.84,332.57,128.56,330.05,128.6,330.09z"/>
</g>
</svg>
