<?xml version="1.0" encoding="utf-8"?>
<!-- Generator: Adobe Illustrator 25.0.1, SVG Export Plug-In . SVG Version: 6.00 Build 0)  -->
<svg version="1.1" id="Layer_1" xmlns="http://www.w3.org/2000/svg" xmlns:xlink="http://www.w3.org/1999/xlink" x="0px" y="0px"
	 viewBox="0 0 277 277" style="enable-background:new 0 0 277 277;" xml:space="preserve">
<style type="text/css">
	.st0{fill-rule:evenodd;clip-rule:evenodd;fill:#FFFFFF;}
	.st1{fill-rule:evenodd;clip-rule:evenodd;fill:#81C1CC;}
	.st2{fill:#81C1CC;}
	.st3{fill:#FFFFFF;}
</style>
<g id="JasperReports">
	<g id="XMLID_12_">
		<path class="st0" d="M180.6,87.6c-25.8,0-47.7,9.1-65.7,27.2c-18.1,18-27.2,39.9-27.2,65.7s9.1,47.6,27.2,65.6
			c6.7,6.8,13.9,12.3,21.6,16.6H23.8c-1.8-0.1-3.5-0.6-5.2-1.5c-2.8-1.4-4.2-4-4.2-7.9V23.8c0.2-2,0.7-3.8,1.4-5.2
			c1.5-2.8,4.2-4.2,8.1-4.2h229.5l1.5,0.3c1.3,0.2,2.5,0.6,3.6,1c2.9,1.4,4.4,4,4.4,8.1v112.9c-4.3-7.8-9.8-15.1-16.6-21.8
			C227.9,96.7,206.1,87.6,180.6,87.6z"/>
	</g>
	<g>
		<g id="XMLID_9_">
			<path class="st1" d="M180.6,87.6c25.4,0,47.3,9.1,65.5,27.2c6.8,6.7,12.3,14,16.5,21.8V23.8c0-4.1-1.5-6.8-4.4-8.1
				c-1-0.4-2.2-0.8-3.6-1l-1.5-0.3H23.8c-3.9,0-6.6,1.4-8.1,4.2c-0.7,1.5-1.1,3.2-1.4,5.2v229.4c0,3.9,1.4,6.6,4.2,7.9
				c1.7,0.9,3.4,1.4,5.2,1.5h112.8c-7.8-4.3-15-9.8-21.6-16.6c-18.1-17.9-27.2-39.8-27.2-65.6s9.1-47.7,27.2-65.7
				C133,96.7,154.9,87.6,180.6,87.6z M259.3,3.8c2.5,0.5,4.4,1.1,5.7,1.9c5.6,2.7,8.4,7.6,8.4,14.7v160.2c0,25.7-9.1,47.5-27.4,65.6
				c-18.2,18.2-40.1,27.4-65.5,27.4H20.4c-2.7,0-5.5-0.7-8.4-2c-5.6-2.9-8.4-7.9-8.4-14.9V20.4c0-2.8,0.7-5.6,2.2-8.4
				c2.7-5.6,7.6-8.4,14.7-8.4h236.2L259.3,3.8z"/>
		</g>
		<g>
			<g>
				<path class="st2" d="M71.2,55.6c0,6.1-2,10.8-6,14c-4,3.3-9.7,4.9-17.1,4.9H42v21.9h-9.6V37.9h16.9c7.3,0,12.8,1.5,16.4,4.5
					C69.4,45.4,71.2,49.8,71.2,55.6z M42,66.5h5.1c4.9,0,8.5-0.8,10.8-2.6c2.3-1.7,3.4-4.4,3.4-8c0-3.4-1-5.9-3.1-7.5
					c-2.1-1.7-5.3-2.5-9.6-2.5H42L42,66.5L42,66.5z"/>
			</g>
			<g>
				<path class="st2" d="M94.8,85.8c0,3.5-1.3,6.2-3.8,8.2c-2.5,2-6,3-10.4,3s-8.1-0.7-10.9-2.1v-6.1c1.8,0.8,3.7,1.5,5.7,2
					c2,0.5,3.9,0.7,5.6,0.7c2.5,0,4.4-0.5,5.6-1.4c1.2-1,1.8-2.3,1.8-3.9c0-1.5-0.6-2.7-1.7-3.7c-1.1-1-3.4-2.2-6.9-3.6
					c-3.6-1.4-6.1-3.1-7.6-5c-1.5-1.9-2.2-4.1-2.2-6.7c0-3.3,1.2-5.8,3.5-7.7c2.3-1.9,5.4-2.8,9.4-2.8c3.8,0,7.5,0.8,11.2,2.5
					l-2,5.2c-3.5-1.5-6.6-2.2-9.3-2.2c-2.1,0-3.7,0.5-4.7,1.4c-1.1,0.9-1.6,2.1-1.6,3.6c0,1,0.2,1.9,0.6,2.6s1.1,1.4,2.1,2.1
					s2.8,1.5,5.3,2.6c2.9,1.2,5,2.3,6.3,3.4c1.3,1,2.3,2.2,3,3.5C94.5,82.4,94.8,84,94.8,85.8z"/>
			</g>
			<g>
				<path class="st2" d="M128.8,76.4c0,6.5-1.8,11.4-5.4,14.9c-3.6,3.4-8.8,5.1-15.6,5.1h-11V57.2H109c6.2,0,11.1,1.7,14.6,5
					C127.1,65.6,128.8,70.3,128.8,76.4z M122.1,76.6c0-9.4-4.4-14.1-13.2-14.1h-5.6V91h4.6C117.3,91,122.1,86.2,122.1,76.6z"/>
			</g>
		</g>
	</g>
	<g>
		<g>
			<path class="st3" d="M230.7,220H129.8c-1.7,0-3-1.3-3-3v-69.4c0-1.7,1.3-3,3-3h100.9c1.7,0,3,1.3,3,3V217
				C233.7,218.6,232.3,220,230.7,220z M132.8,214h94.9v-63.4h-94.9L132.8,214L132.8,214z"/>
		</g>
		<g>
			<polygon class="st3" points="141.7,216.2 158.6,196.3 174.1,209.9 194.3,175.3 217.8,215.9 			"/>
		</g>
		<g>
			<g>
				<g>
					<polygon class="st2" points="191.6,133.4 173.1,155.8 196,156.8 210.6,129.8 					"/>
				</g>
				<g>
					<rect x="121.1" y="137.4" class="st2" width="18.5" height="18.5"/>
					<path class="st3" d="M142.1,158.4h-23.5v-23.5h23.5V158.4z M123.6,153.4h13.5v-13.5h-13.5V153.4z"/>
				</g>
				<g>
					<rect x="121.1" y="205" class="st2" width="18.5" height="18.5"/>
					<path class="st3" d="M142.1,226h-23.5v-23.5h23.5V226z M123.6,221h13.5v-13.5h-13.5V221z"/>
				</g>
				<g>
					<rect x="221" y="137.4" class="st2" width="18.5" height="18.5"/>
					<path class="st3" d="M242,158.4h-23.5v-23.5H242V158.4z M223.5,153.4H237v-13.5h-13.5V153.4z"/>
				</g>
				<g>
					<rect x="221" y="205" class="st2" width="18.5" height="18.5"/>
					<path class="st3" d="M242,226h-23.5v-23.5H242V226z M223.5,221H237v-13.5h-13.5V221z"/>
				</g>
			</g>
			<g>
				<g>
					<path class="st3" d="M174.1,160.9c-3.7,0.4,35.9-42.9,38.2-45.1c2.4-2.2,4.4-4.5,0.8,4.3s-23.8,43.8-28.4,44.9
						C179.1,166.4,183,159.9,174.1,160.9z"/>
				</g>
				<g>
					<path class="st3" d="M175.2,165.3c-4.8-2.1-9-0.6-14.1,7.5c-5.1,8.1-5.6,8.1-8.4,9.8c-2.8,1.7-0.5,1.9,0.9,2.1s20.4,2.6,24-6.7
						C181.3,168.6,177.3,166.3,175.2,165.3z"/>
				</g>
			</g>
		</g>
		<g>
			<rect x="149.6" y="224.3" class="st3" width="61.3" height="5.5"/>
		</g>
		<g>
			<rect x="156.9" y="234.1" class="st3" width="46.8" height="5.9"/>
		</g>
	</g>
</g>
</svg>
