<?xml version="1.0" encoding="utf-8"?>
<!-- Generator: Adobe Illustrator 25.2.0, SVG Export Plug-In . SVG Version: 6.00 Build 0)  -->
<svg version="1.1" id="Layer_1" xmlns="http://www.w3.org/2000/svg" xmlns:xlink="http://www.w3.org/1999/xlink" x="0px" y="0px"
	 viewBox="0 0 320 320" style="enable-background:new 0 0 320 320;" xml:space="preserve">
<style type="text/css">
	.st0{fill:none;stroke:#EFEFEF;stroke-linecap:round;stroke-linejoin:round;stroke-miterlimit:10;stroke-dasharray:4,8;}
	.st1{fill-rule:evenodd;clip-rule:evenodd;fill:#FFFFFF;}
	.st2{fill-rule:evenodd;clip-rule:evenodd;fill:#A4C547;}
	.st3{fill:#A4C547;}
	.st4{fill:#A4C546;stroke:#FFFFFF;stroke-width:6.6599;stroke-miterlimit:10;}
	.st5{fill:#FFFFFF;}
	.st6{fill:#A4C546;}
	.st7{fill:none;stroke:#A4C546;stroke-width:1.332;stroke-miterlimit:10;}
	.st8{fill:#EFEFEF;}
	.st9{fill:#DEDFDF;}
	.st10{fill:#4296D2;}
	.st11{fill:#0866AA;}
	.st12{fill:#2178BD;}
	.st13{fill:#4096D2;}
	.st14{display:none;fill:#FFFFFF;}
</style>
<circle class="st0" cx="154.2" cy="163.2" r="123.7"/>
<g id="_x2E_NET">
	<path id="XMLID_8_" class="st1" d="M228,153.7c-19.6,0-36.2,6.9-49.9,20.6c-13.8,13.6-20.7,30.2-20.7,49.8s6.9,36.1,20.7,49.7
		c5.1,5.1,10.5,9.3,16.4,12.5h-85.7c-1.4-0.1-2.7-0.5-4-1.2c-2.1-1-3.2-3-3.2-6V105.4c0.2-1.5,0.5-2.9,1-4c1.1-2.1,3.2-3.2,6.2-3.2
		h174.4l1.2,0.3c1,0.2,1.9,0.4,2.7,0.8c2.2,1,3.3,3.1,3.3,6.1v85.5c-3.2-5.9-7.4-11.4-12.6-16.5C264,160.6,247.4,153.7,228,153.7z"
		/>
	<path id="XMLID_2_" class="st2" d="M228,153.7c19.3,0,35.9,6.9,49.8,20.6c5.2,5.1,9.3,10.6,12.6,16.5v-85.5c0-3.1-1.1-5.1-3.3-6.1
		c-0.8-0.3-1.7-0.6-2.7-0.8l-1.2-0.3H108.8c-3,0-5,1.1-6.2,3.2c-0.5,1.1-0.9,2.4-1,4v173.8c0,3,1.1,5,3.2,6c1.3,0.7,2.6,1.1,4,1.2
		h85.7c-5.9-3.2-11.4-7.4-16.4-12.5c-13.8-13.6-20.7-30.1-20.7-49.7s6.9-36.1,20.7-49.8C191.8,160.6,208.4,153.7,228,153.7z
		 M287.8,90.3c1.9,0.3,3.3,0.8,4.4,1.4c4.3,2,6.4,5.8,6.4,11.1v121.3c0,19.4-6.9,36-20.8,49.7c-13.9,13.8-30.5,20.7-49.8,20.7H106.2
		c-2.1,0-4.2-0.5-6.4-1.5c-4.3-2.2-6.4-6-6.4-11.3V102.8c0-2.1,0.6-4.3,1.7-6.4c2.1-4.3,5.8-6.4,11.2-6.4h179.5L287.8,90.3z"/>
	<g>
		<path class="st3" d="M151.6,137.8c0,7.3-2,12.9-6.1,16.8s-9.9,5.8-17.6,5.8h-12.4V116h13.8c7.1,0,12.6,1.9,16.5,5.7
			C149.6,125.6,151.6,130.9,151.6,137.8z M143.9,138c0-10.6-5-15.9-14.9-15.9h-6.3v32.2h5.2C138.6,154.3,143.9,148.9,143.9,138z"/>
		<path class="st3" d="M179.6,160.4l-3.5-12.4c-0.4-1.3-1.2-4.4-2.3-9.2h-0.2c-0.9,4.3-1.7,7.4-2.2,9.2l-3.5,12.4h-6.3l-7.5-26.6
			h5.8l3.4,13.1c0.8,3.2,1.3,6,1.6,8.3h0.1c0.2-1.2,0.4-2.5,0.7-4c0.3-1.5,0.6-2.7,0.9-3.4l4.1-14h6.2l3.9,14c0.2,0.8,0.5,2,0.9,3.6
			c0.4,1.6,0.6,2.9,0.6,3.8h0.2c0.2-2,0.8-4.7,1.7-8.3l3.5-13.1h5.7l-7.5,26.6L179.6,160.4L179.6,160.4z"/>
	</g>
	<g id="Drawing">
		<path class="st4" d="M267.8,225.7c0,21.4-17.4,38.8-38.9,38.8S190,247.1,190,225.7s17.4-38.8,38.9-38.8S267.8,204.3,267.8,225.7z"
			/>
		<g id="Scale">
			<polygon class="st5" points="186.5,248.3 237.3,197.7 251.4,211.8 200.7,262.3 			"/>
			<g>
				<g>
					<polygon class="st6" points="233.6,201.4 234.8,200.2 238.2,203.7 237.1,204.8 					"/>
					<polygon class="st6" points="231,203.9 232.2,202.8 237.7,208.3 236.5,209.4 					"/>
				</g>
				<g>
					<polygon class="st6" points="228.5,206.5 229.6,205.4 233.1,208.8 231.9,210 					"/>
					<polygon class="st6" points="225.9,209.1 227,207.9 232.5,213.4 231.4,214.6 					"/>
				</g>
				<g>
					<polygon class="st6" points="223.3,211.7 224.4,210.5 227.9,214 226.7,215.1 					"/>
					<polygon class="st6" points="220.7,214.2 221.9,213.1 227.4,218.6 226.2,219.7 					"/>
				</g>
				<g>
					<polygon class="st6" points="218.1,216.8 219.3,215.6 222.7,219.1 221.6,220.3 					"/>
					<polygon class="st6" points="215.5,219.4 216.7,218.2 222.2,223.7 221,224.9 					"/>
				</g>
				<g>
					<polygon class="st6" points="213,222 214.1,220.8 217.6,224.2 216.4,225.4 					"/>
					<polygon class="st6" points="210.4,224.5 211.5,223.4 217.1,228.9 215.9,230 					"/>
				</g>
				<g>
					<polygon class="st6" points="207.8,227.1 209,225.9 212.4,229.4 211.3,230.6 					"/>
					<polygon class="st6" points="205.2,229.7 206.4,228.5 211.9,234 210.7,235.2 					"/>
				</g>
				<g>
					<polygon class="st6" points="202.6,232.3 203.8,231.1 207.3,234.5 206.1,235.7 					"/>
					<polygon class="st6" points="200,234.8 201.2,233.7 206.7,239.2 205.6,240.3 					"/>
				</g>
				<g>
					<polygon class="st6" points="197.5,237.4 198.6,236.2 202.1,239.7 200.9,240.9 					"/>
					<polygon class="st6" points="194.9,240 196.1,238.8 201.6,244.3 200.4,245.5 					"/>
				</g>
				<g>
					<polygon class="st6" points="192.3,242.5 193.5,241.4 196.9,244.8 195.8,246 					"/>
					<polygon class="st6" points="189.7,245.1 190.9,244 196.4,249.5 195.2,250.6 					"/>
				</g>
			</g>
		</g>
		<rect x="224" y="181.5" class="st5" width="9.5" height="9.5"/>
		<rect x="262.8" y="220.9" class="st5" width="9.5" height="9.5"/>
		<rect x="185.2" y="220.9" class="st5" width="9.5" height="9.5"/>
		<rect x="199" y="185.5" class="st5" width="59.8" height="1.4"/>
		<path class="st5" d="M204.3,186.3c0,2.6-2.1,4.8-4.8,4.8s-4.8-2.1-4.8-4.8s2.1-4.8,4.8-4.8C202.1,181.5,204.3,183.6,204.3,186.3z"
			/>
		<path class="st5" d="M263.6,186.3c0,2.6-2.1,4.8-4.8,4.8s-4.8-2.1-4.8-4.8s2.1-4.8,4.8-4.8C261.4,181.5,263.6,183.6,263.6,186.3z"
			/>
		<g id="Pen">
			<polygon class="st5" points="235.9,264.8 235.9,256.8 231.9,247.5 229,240.9 226.1,247.5 221.9,256.8 221.9,264.8 			"/>
			<g>
				<polygon class="st6" points="225.1,252.1 229,243.4 232.8,252.1 				"/>
				<path class="st5" d="M229,245.9l2.2,5.2h-4.5L229,245.9 M229,240.9l-5.4,12.2h10.7L229,240.9L229,240.9z"/>
			</g>
			<line class="st7" x1="232.1" y1="265.1" x2="232.1" y2="257.9"/>
			<line class="st7" x1="228.9" y1="265.1" x2="228.9" y2="257.9"/>
			<line class="st7" x1="225.7" y1="265.1" x2="225.7" y2="257.9"/>
		</g>
	</g>
</g>
<g>
	<path class="st8" d="M274.8,142c-19,0-34.5-15.5-34.5-34.5S255.8,73,274.8,73s34.5,15.5,34.5,34.5S293.9,142,274.8,142z"/>
	<path class="st9" d="M274.8,74.4c18.2,0,33,14.8,33,33s-14.8,33-33,33s-33-14.8-33-33S256.6,74.4,274.8,74.4 M274.8,71.4
		c-19.9,0-36,16.1-36,36s16.1,36,36,36s36-16.1,36-36S294.7,71.4,274.8,71.4L274.8,71.4z"/>
</g>
<g>
	<g>
		<polygon class="st10" points="212.9,47.1 231.2,48.2 229.8,65.2 222.6,70.2 215.4,66.7 		"/>
		<polygon class="st10" points="159.3,50.4 163.4,50.4 164.8,47.1 165.4,27.7 158.8,23.9 146.3,23.9 145.3,38.1 145.8,50 		"/>
		<polygon class="st10" points="51,191.1 44.9,185.6 28.7,185.3 27.2,187.1 27.2,208.7 50.5,209.1 		"/>
		<polygon class="st10" points="78.8,247.1 72.8,241.1 58.4,240.7 59,268 77.7,268 		"/>
	</g>
	<g>
		<g>
			<path class="st10" d="M38.2,132.6c0.4,0.7,1,1.1,1.8,1.2h6.2v1.9c0,0.3-0.1,0.6-0.3,0.8s-0.5,0.3-0.8,0.3H28.8
				c-0.3,0-0.6-0.1-0.8-0.3c-0.2-0.2-0.3-0.5-0.3-0.8v-22.6c0-0.3,0.1-0.6,0.3-0.8c0.2-0.2,0.5-0.3,0.8-0.3h9.7v6.6
				c0,0.3,0.1,0.6,0.3,0.8c0.2,0.2,0.5,0.3,0.8,0.3h6.6v2.3l-6.2,6.2v4c-0.2,0-0.3-0.1-0.4-0.3c-0.3-0.6-0.8-0.9-1.5-1.1
				c-0.7-0.1-1.3,0-1.7,0.4l-0.7-2c-0.2-0.6-0.6-0.8-1.1-0.8c-0.6,0-0.9,0.3-1.1,0.8l-0.9,2.6c-0.1,0.3-0.3,0.4-0.5,0.4h-0.6
				c-0.2,0-0.4,0.1-0.6,0.2c-0.1,0.1-0.2,0.3-0.2,0.6c0,0.2,0.1,0.4,0.2,0.6c0.1,0.1,0.3,0.2,0.6,0.2h0.6c0.5,0,0.9-0.1,1.2-0.4
				c0.4-0.3,0.6-0.6,0.8-1.1l0.5-1.5l0.8,2.4c0.1,0.3,0.3,0.5,0.7,0.5s0.6-0.1,0.7-0.4l0.4-0.7c0.1-0.2,0.3-0.3,0.5-0.3
				C38,132.3,38.1,132.4,38.2,132.6z M46.3,117.9v0.3h-6.2V112h0.3c0.3,0,0.6,0.1,0.8,0.3L46,117C46.2,117.3,46.3,117.6,46.3,117.9z
				 M55.3,120.1c0.2,0.3,0.3,0.6,0.3,0.9s-0.1,0.6-0.3,0.9l-1.4,1.4l-3.3-3.3l1.4-1.4c0.2-0.2,0.5-0.3,0.9-0.3
				c0.3,0,0.6,0.1,0.9,0.3L55.3,120.1z"/>
		</g>
		<g>
			<polygon class="st10" points="79.5,66.8 79.5,70.4 77.6,71 78.4,74.2 80.5,74.2 99.4,74.2 101.5,74.2 101.5,72.1 100.6,70.5 
				100.5,58.7 98.1,56.2 90.3,56.8 89.6,67.8 88.4,63.7 			"/>
			<polygon class="st10" points="91.3,47.9 88.2,47.9 88.2,50 72.1,50.7 70.4,47.4 68,47.4 66.4,51.5 67.9,51.5 68.3,62.8 
				67.4,63.7 66.4,67.1 65.8,69.2 70,67.9 72.2,67.1 87.9,68 87.6,70 91.3,69.1 91.3,65.4 89.5,65.4 90.3,56.8 96.6,56.8 97.3,57.9 
				102.1,59.5 101.5,57.4 101.5,55.3 99.8,54.6 94.7,55.9 89.1,55.5 92.1,52 			"/>
			<g>
				<path class="st8" d="M102.9,59.5h-0.8V70h0.8c0.5,0,0.8,0.3,0.8,0.8v4.7c0,0.5-0.3,0.8-0.8,0.8h-4.7c-0.5,0-0.8-0.3-0.8-0.8
					v-0.8H82.6v0.8c0,0.5-0.3,0.8-0.8,0.8h-4.7c-0.5,0-0.8-0.3-0.8-0.8v-4.7c0-0.5,0.3-0.8,0.8-0.8h0.8v-1.6h-5.8v0.8
					c0,0.5-0.3,0.8-0.8,0.8h-4.7c-0.5,0-0.8-0.3-0.8-0.8v-4.7c0-0.5,0.3-0.8,0.8-0.8h0.8V53.2h-0.8c-0.5,0-0.8-0.3-0.8-0.8v-4.7
					c0-0.5,0.3-0.8,0.8-0.8h4.7c0.5,0,0.8,0.3,0.8,0.8v0.8h14.7v-0.8c0-0.5,0.3-0.8,0.8-0.8h4.7c0.5,0,0.8,0.3,0.8,0.8v4.7
					c0,0.5-0.3,0.8-0.8,0.8h-0.8v1.6h5.8V54c0-0.5,0.3-0.8,0.8-0.8h4.7c0.5,0,0.8,0.3,0.8,0.8v4.7C103.6,59.2,103.4,59.5,102.9,59.5
					z M70,51.1V49h-2.1v2.1H70z M70,67.9v-2.1h-2.1v2.1H70z M72.1,65.2h14.7v-0.8c0-0.5,0.3-0.8,0.8-0.8h0.8V53.2h-0.8
					c-0.5,0-0.8-0.3-0.8-0.8v-0.8H72.1v0.8c0,0.5-0.3,0.8-0.8,0.8h-0.8v10.5h0.8c0.5,0,0.8,0.3,0.8,0.8V65.2z M80.5,74.2v-2.1h-2.1
					v2.1H80.5z M98.9,70V59.5h-0.8c-0.5,0-0.8-0.3-0.8-0.8v-0.8h-5.8v5.8h0.8c0.5,0,0.8,0.3,0.8,0.8v4.7c0,0.5-0.3,0.8-0.8,0.8h-4.7
					c-0.5,0-0.8-0.3-0.8-0.8v-0.8H81V70h0.8c0.5,0,0.8,0.3,0.8,0.8v0.8h14.7v-0.8c0-0.5,0.3-0.8,0.8-0.8H98.9z M88.9,49v2.1H91V49
					H88.9z M88.9,65.8v2.1H91v-2.1H88.9z M101.5,57.4v-2.1h-2.1v2.1H101.5z M101.5,74.2v-2.1h-2.1v2.1H101.5z"/>
			</g>
		</g>
		<g>
			<path class="st8" d="M210.8,45.1h22.5l-2.1,23.2l-9.2,3.1l-9.2-3.1L210.8,45.1z M228.8,52.6l0.3-2.8H215l0.7,8.5h9.8l-0.4,3.6
				l-3.1,0.8l-3.2-0.8l-0.2-2.2h-2.8l0.4,4.4l5.8,1.6h0.1l5.7-1.6l0.8-8.7h-10.3l-0.2-2.9L228.8,52.6L228.8,52.6z"/>
		</g>
		<g>
			<path class="st8" d="M165.4,27.7c0.6,0.5,0.8,1.2,0.8,2v19.5c0,0.8-0.3,1.4-0.8,2c-0.6,0.5-1.2,0.8-2,0.8h-16.9
				c-0.8,0-1.4-0.3-2-0.8s-0.8-1.2-0.8-2V24.8c0-0.8,0.3-1.4,0.8-2s1.2-0.8,2-0.8h11.9c0.8,0,1.4,0.3,2,0.8L165.4,27.7z M146.6,49.1
				h16.9V32.2h-6.1c-0.4,0-0.7-0.1-1-0.4c-0.3-0.3-0.4-0.6-0.4-1v-6.1h-9.4V49.1L146.6,49.1z M149.3,33.1c0.6-0.5,1.2-0.8,2-0.8
				s1.4,0.3,2,0.8s0.8,1.2,0.8,2s-0.3,1.5-0.8,2c-0.6,0.5-1.2,0.8-2,0.8s-1.4-0.3-2-0.8s-0.8-1.2-0.8-2S148.7,33.6,149.3,33.1z
				 M148.4,46.3v-3.8l2.3-2.3c0.3-0.3,0.6-0.3,0.9,0l2.3,2.3l5.2-5.2c0.3-0.3,0.6-0.3,0.9,0l1.4,1.4v7.5L148.4,46.3L148.4,46.3z
				 M163.2,29.4l-4.4-4.4v4.5C158.8,29.4,163.2,29.4,163.2,29.4z"/>
		</g>
		<g>
			<path class="st8" d="M47.5,115c0.5,0.6,0.8,1.2,0.8,2v19.4c0,0.8-0.3,1.4-0.8,2s-1.2,0.8-2,0.8H28.6c-0.8,0-1.5-0.3-2-0.8
				c-0.5-0.6-0.8-1.2-0.8-2V112c0-0.8,0.3-1.4,0.8-2s1.2-0.8,2-0.8h12c0.8,0,1.4,0.3,2,0.8L47.5,115z M28.6,136.5h16.9v-16.9h-6.1
				c-0.4,0-0.7-0.1-1-0.4s-0.4-0.6-0.4-1v-6.1h-9.4V136.5z M45.3,116.8l-4.5-4.4v4.4H45.3z"/>
			<polygon class="st10" points="41.6,128.8 49.6,120.9 52.9,124.2 45,132.2 41.6,132.2 			"/>
		</g>
		<g>
			<path class="st8" d="M51.2,190.1c0.5,0.6,0.8,1.2,0.8,2v15.7c0,0.8-0.3,1.4-0.8,2s-1.2,0.8-2,0.8H28.6c-0.8,0-1.5-0.3-2-0.8
				c-0.5-0.6-0.8-1.2-0.8-2v-20.6c0-0.8,0.3-1.4,0.8-2s1.2-0.8,2-0.8h15.7c0.8,0,1.4,0.3,2,0.8L51.2,190.1z M48.9,207.8
				c0.2,0,0.3-0.1,0.3-0.4v-15.2c0-0.1,0-0.2-0.1-0.2l-4.6-4.6v5.9c0,0.4-0.1,0.7-0.4,1c-0.3,0.3-0.6,0.4-1,0.4H32.8
				c-0.4,0-0.7-0.1-1-0.4c-0.3-0.3-0.4-0.6-0.4-1v-6.1H29c-0.2,0-0.4,0.1-0.4,0.4v19.9c0,0.2,0.1,0.4,0.4,0.4L48.9,207.8L48.9,207.8
				z M35.3,197.6c1-1,2.2-1.5,3.6-1.5s2.6,0.5,3.6,1.5s1.5,2.2,1.5,3.6s-0.5,2.6-1.5,3.6s-2.2,1.5-3.6,1.5s-2.6-0.5-3.6-1.5
				s-1.5-2.2-1.5-3.6S34.3,198.6,35.3,197.6z M41.8,187.1h-7.5v4.7h7.5V187.1z M37.3,202.9c0.5,0.4,1,0.7,1.7,0.7s1.2-0.2,1.7-0.7
				c0.5-0.4,0.7-1,0.7-1.7s-0.2-1.2-0.7-1.7c-0.5-0.4-1-0.7-1.7-0.7s-1.2,0.2-1.7,0.7c-0.5,0.4-0.7,1-0.7,1.7S36.8,202.4,37.3,202.9
				z"/>
		</g>
		<g>
			<path class="st8" d="M79.3,245.6c0.6,0.6,0.8,1.2,0.8,2V267c0,0.8-0.3,1.4-0.8,2s-1.2,0.8-2,0.8H60.4c-0.8,0-1.5-0.3-2-0.8
				s-0.8-1.2-0.8-2v-24.4c0-0.8,0.3-1.4,0.8-2s1.2-0.8,2-0.8h12c0.8,0,1.4,0.3,2,0.8L79.3,245.6z M77.3,267v-16.9h-6.1
				c-0.4,0-0.7-0.1-1-0.4c-0.3-0.3-0.4-0.6-0.4-1v-6.1h-9.4V267H77.3z M66.4,260.3c0.2,0.2,0.2,0.5,0,0.8l-1,1
				c-0.1,0.1-0.2,0.2-0.4,0.2c-0.1,0-0.2-0.1-0.3-0.2l-3.3-3.2c-0.3-0.2-0.3-0.5,0-0.7l3.3-3.2c0.3-0.3,0.5-0.3,0.8,0l1,1v0.1
				c0.2,0.2,0.2,0.5,0,0.7l-1.9,1.7L66.4,260.3z M69.9,252.4l1.4,0.4c0.3,0.1,0.5,0.3,0.3,0.6l-3.2,11c-0.1,0.4-0.3,0.5-0.6,0.4
				l-1.4-0.4c-0.3-0.1-0.5-0.3-0.3-0.6l3.2-11C69.4,252.4,69.6,252.3,69.9,252.4z M71.3,256.9c-0.2-0.2-0.2-0.5,0-0.8l1-1.1
				c0.2-0.3,0.5-0.3,0.8,0l3.3,3.2c0.3,0.2,0.3,0.5,0,0.7l-3.3,3.2c-0.3,0.3-0.5,0.3-0.8,0l-1-1V261c-0.2-0.2-0.2-0.5,0-0.7l1.9-1.7
				L71.3,256.9z M72.6,242.9v4.4H77L72.6,242.9z"/>
		</g>
	</g>
</g>
<g>
	<path class="st11" d="M290.9,92.2l-7.3-3.5c-0.8-0.4-1.9-0.2-2.5,0.4l-23.9,21.8c-0.6,0.6-0.6,1.6,0,2.2l2,1.8
		c0.5,0.5,1.3,0.5,1.9,0.1l28.8-21.8c1-0.7,2.4,0,2.4,1.2v-0.1C292.1,93.4,291.7,92.6,290.9,92.2z"/>
	<g>
		<path class="st12" d="M290.9,120l-7.3,3.5c-0.8,0.4-1.9,0.2-2.5-0.4l-23.9-21.8c-0.6-0.6-0.6-1.6,0-2.2l2-1.8
			c0.5-0.5,1.3-0.5,1.9-0.1l28.8,21.8c1,0.7,2.4,0,2.4-1.2v0.1C292.1,118.9,291.7,119.6,290.9,120z"/>
	</g>
	<g>
		<path class="st13" d="M283.6,123.5c-0.8,0.4-1.9,0.2-2.5-0.4c0.8,0.8,2.2,0.2,2.2-0.9V90.1c0-1.2-1.4-1.7-2.2-0.9
			c0.7-0.7,1.7-0.8,2.5-0.4l7.3,3.5c0.8,0.4,1.2,1.1,1.2,2V118c0,0.8-0.5,1.6-1.2,2L283.6,123.5z"/>
	</g>
</g>
<g>
	<g>
		<g>
			<circle class="st14" cx="923.5" cy="-48.5" r="8.1"/>
		</g>
	</g>
</g>
</svg>
