<svg xmlns="http://www.w3.org/2000/svg" xml:space="preserve" id="Layer_1" x="0" y="0" style="enable-background:new 0 0 170 42" version="1.1" viewBox="0 0 170 42">
  <style>
    .st0{fill:#fff}
  </style>
  <g id="redgate">
    <path d="m39.7 19.6-8.4-.2 2.9 3.1 5.5-.1zm-1.3 7.3 1.3-.1v-2.6l-3.7.2zm-15.7 1.7 13.5-1.5-2.6-2.6-10.9.6zm5.8-9.2-5.8-.2v3.6l9-.2zm.7-2.2 10.5.6v-2.6L26 13.8zm-6.5-3.8v3.5l3.6.2z" class="st0"/>
    <path d="M40.4 28.7c.5-.2.8-.6.7-1.1V14.4c.1-.5-.3-1-.7-1.1l-17.7-2.5V8.5c2-1.4 6.2-2.4 11.2-2.4S43 7.1 45 8.5v24.9c-2 1.4-6.2 2.4-11.2 2.4s-9.2-1-11.2-2.4v-2.2l17.8-2.5m13.1-2.9v-3c0-2.2.1-5.8 1-8 2.4-1.2 5.1-1.7 7.7-1.4.2 1 0 2-.5 2.8-1.5-.2-3 0-4.3.6-.4 1.9-.6 3.8-.6 5.7v6.2c-1 .2-2 .2-3 0-.3-1-.4-2-.3-2.9zm17.3-2.9c-1.6 0-3.1-.1-4.6-.3v1.3c0 2.3 2.2 2.4 4.1 2.4 1.6 0 3.2-.3 4.7-.8.5.6.7 1.4.6 2.1-1.8 1-3.8 1.5-5.8 1.5-3.6 0-6.9-.9-6.9-5.2v-2c0-2.5.4-4.9 1.3-7.2 1.7-1 3.7-1.5 5.6-1.6 3.8 0 6.5 1.2 6.5 5.2 0 1.4-.3 2.8-.7 4.2-1.6.2-3.2.4-4.8.4zM69.7 16c-1 0-2 .3-2.9.8-.3 1-.5 2.1-.5 3.2 1.2.3 2.3.4 3.5.4 1 0 2-.1 3.1-.3.2-.5.2-1.1.2-1.7-.1-2-1.7-2.4-3.4-2.4zm72.2 6.9c-1.6 0-3.1-.1-4.6-.3v1.3c0 2.3 2.2 2.4 4.1 2.4 1.6 0 3.2-.3 4.7-.8.5.6.7 1.4.6 2.1-1.8 1-3.8 1.5-5.9 1.5-3.6 0-6.9-.9-6.9-5.2v-2c0-2.5.4-4.9 1.2-7.2 1.7-1 3.7-1.5 5.6-1.6 3.8 0 6.5 1.2 6.5 5.2 0 1.4-.3 2.8-.7 4.2-1.4.2-3 .4-4.6.4zm-1.1-6.9c-1 0-2 .3-2.9.8-.3 1-.5 2.1-.6 3.2 1.2.3 2.3.4 3.5.4 1 0 2-.1 3.1-.3.2-.5.2-1.1.2-1.7 0-2-1.7-2.4-3.3-2.4zm-8.2 10.5c-.6.1-.8.1-1 .1-1.7 0-3.5-.1-3.5-2.5v-7.4h3.8c.3-.9.3-1.9 0-2.8h-3.8v-3.8c-1-.3-2-.3-3 0-.3 1.4-.4 2.9-.3 4.3v9.8c0 3.9 2.9 4.8 4.6 4.8 1.2.1 2.5-.1 3.7-.6.1-.3.1-.7 0-1.1-.1-.3-.2-.6-.5-.8zm-32.2-13.3c-2 .1-4 .6-5.8 1.5-.9 2.2-1 5.7-1 8V24c0 4.3 3.1 5.2 6.7 5.2 1.2 0 2.4-.3 3.5-.8 0 1.2-.1 2.3-.4 3.4-1 .4-2.1.7-3.2.7-1.7 0-3.4-.3-5-.9-.6.7-.9 1.6-1.1 2.5 1.9.9 4 1.3 6 1.2 2.1.1 4.2-.5 6-1.6.6-2.4 1-4.8.9-7.3v-8c.2-4.2-2.8-5.2-6.6-5.2zm3.5 12.2a7.63 7.63 0 0 1-6.9 0v-8.5c2.2-1.1 4.7-1.1 6.9 0v8.5zM116 13.2c-2 .1-4 .6-5.8 1.5-.9 2.2-1 5.7-1 8v1.1c0 4.2 3.6 5.1 5.5 5.1 1.8.1 3.6-.6 4.9-1.8l.3 1.4c.9.2 1.8.2 2.6 0 .2-1.4.2-2.7.2-4.1v-6.2c.1-4-2.9-5-6.7-5zm3.4 11.5a6.25 6.25 0 0 1-6.9.5v-8.3c2.2-1.1 4.7-1.1 6.9 0v7.8zM91.3 7c-1-.2-2-.2-3 0v7c-1-.6-2.2-.9-3.4-.8-2 .1-4 .6-5.8 1.5-.8 1.9-1 5-1 7.1V24c0 4.3 3.1 5.2 6.8 5.2 2 0 4.1-.5 5.8-1.6.9-2.3 1-6.8 1-7.7v-9.5c-.1-1.2-.2-2.3-.4-3.4zm-3 18.4c-1 .6-2.2.9-3.5.8-1.2.1-2.4-.2-3.4-.8v-8.5c1-.6 2.2-.9 3.4-.8 1.2-.1 2.4.2 3.4.8l.1 8.5z" class="st0"/>
  </g>
</svg>
