<svg xmlns="http://www.w3.org/2000/svg" xml:space="preserve" id="Layer_1" x="0" y="0" style="enable-background:new 0 0 170 70" version="1.1" viewBox="0 0 170 70">
  <style>
    .st0{fill:#5514b4}
  </style>
  <g id="Layer_1_1_">
    <g id="BT">
      <path d="M85 1.6a33.5 33.5 0 0 0-33.5 33.5c0 18.5 15 33.4 33.5 33.4s33.4-15 33.4-33.5c0-18.4-14.9-33.3-33.3-33.3 0-.1-.1-.1-.1-.1zm0 4.1c16.2 0 29.3 13.1 29.3 29.3S101.2 64.2 85 64.2 55.7 51.1 55.7 34.9 68.8 5.7 85 5.7z" class="st0"/>
      <path d="M68.3 23.6v22.7h9.2c4.2 0 7.4-2.7 7.4-6.8 0-3.7-2.9-5-2.9-5s2.1-1.4 2.1-4.5c0-3.7-2.9-6.3-7.1-6.3h-8.7zm5.2 4.4h2.8c1.9 0 2.8 1 2.8 2.3 0 1.4-1 2.1-2.7 2.1h-2.9V28zm0 9h2.8c1.9 0 2.8 1 2.8 2.3 0 1.4-1 2.1-2.7 2.1h-2.9V37zm18.4 9.3V28.9h-5.2v-5.3h15.9v5.3h-5.3v17.4h-5.4z" class="st0"/>
    </g>
  </g>
</svg>
