<svg xmlns="http://www.w3.org/2000/svg" xml:space="preserve" id="Layer_1" x="0" y="0" style="enable-background:new 0 0 170 70" version="1.1" viewBox="0 0 170 70">
  <style>
    .st0{fill:#e60012}
  </style>
  <g id="Layer_1_1_">
    <g id="Fujitsu" transform="translate(-398.57 -700.48)">
      <g id="g5598" transform="matrix(4.25245 0 0 -4.25245 426.9 839.4)">
        <path id="path5600" d="M1.5 23.3h1.3c.3 0 .5-.2.5-.4v1H1.5v1.8h1.8c.3 0 .5-.2.5-.4v1H0c.3 0 .4-.3.4-.5V21c0-.3-.2-.5-.4-.5h1.9c-.3 0-.4.3-.4.5v2.3z" class="st0"/>
      </g>
      <g id="g5602" transform="matrix(4.25245 0 0 -4.25245 499.93 863.1)">
        <path id="path5604" d="M-11.8 27.6c0-.6.5-1.1 1.1-1.1s1.1.5 1.1 1.1v3.7c0 .3-.2.5-.4.5h1.9c-.3 0-.4-.3-.4-.5v-3.6c0-1.1-.9-1.8-2.1-1.8s-2.1.7-2.1 1.8v3.6c0 .3-.2.5-.4.5h1.9c-.3 0-.4-.3-.4-.5l-.2-3.7z" class="st0"/>
      </g>
      <g id="g5606" transform="matrix(4.25245 0 0 -4.25245 791.72 801.68)">
        <path id="path5608" d="M-64.8 16.4c-.3.5-1 .5-1 .5-1.2 0-1.1-.9-1.1-.9s-.1-.5.5-.8l1.2-.6c1.1-.6 1-1.5 1-1.5s.1-1.6-2.4-1.6c0 0-.7 0-1.1.1l-.3 1.1c.4-.5 1.4-.6 1.4-.6 1.4.1 1.4 1 1.4 1s.1.4-.5.7l-1.2.6c-1.2.7-1.1 1.5-1.1 1.5s0 1.6 2.1 1.6c0 0 1 0 1.1-.2v-.9z" class="st0"/>
      </g>
      <g id="g5610" transform="matrix(4.25245 0 0 -4.25245 617.71 746.69)">
        <path id="path5612" d="M-33.2 6.4c.2-.2.5-.3.8-.3.6 0 1.2.5 1.2 1.1s-.5 1.1-1.2 1.1c0 0-.9.1-1.3-1v.8c.3.4.8.7 1.3.7.9 0 1.7-.7 1.7-1.6s-.7-1.6-1.7-1.6c-.5 0-.9.2-1.2.5l-.6.6c-.1.2-.3.3-.5.3-.5 0-.9-.4-.9-.8 0-.5.4-.8.9-.8 0 0 .6-.1 1 .7v-.7c-.2-.3-.6-.5-1-.5-.7 0-1.3.6-1.3 1.3s.6 1.3 1.3 1.3c.4 0 .7-.1.9-.4l.6-.7z" class="st0"/>
      </g>
      <g id="g5614" transform="matrix(4.25245 0 0 -4.25245 623.42 794.23)">
        <path id="path5616" d="M-34.2 15.1c0 .3-.2.5-.4.5h1.9c-.3 0-.4-.3-.4-.5v-4.7c0-.3.2-.5.4-.5h-1.9c.3 0 .4.3.4.5v4.7z" class="st0"/>
      </g>
      <g id="g5618" transform="matrix(4.25245 0 0 -4.25245 601.05 794.46)">
        <path id="path5620" d="M-30.2 15.1c0 .3.2.5.4.5h-1.9c.3 0 .4-.3.4-.5V9.3s0-1-.9-1.6c.2 0 1.9.3 1.9 2l.1 5.4z" class="st0"/>
      </g>
      <g id="g5622" transform="matrix(4.25245 0 0 -4.25245 650.57 803.65)">
        <path id="path5624" d="M-39.2 16.8c.3.4.7.5.7.5h1v-4.6c0-.3-.2-.5-.4-.5h1.9c-.3 0-.4.3-.4.5v4.6h.9c.3 0 .5-.2.5-.5l.3 1h-4.1l-.4-1z" class="st0"/>
      </g>
      <g id="g5626" transform="matrix(4.25245 0 0 -4.25245 828.4 863.1)">
        <path id="path5628" d="M-71.5 27.6c0-.6.5-1.1 1.1-1.1s1.1.5 1.1 1.1v3.7c0 .3-.2.5-.4.5h1.9c-.3 0-.4-.3-.4-.5v-3.6c0-1.1-.9-1.8-2.1-1.8s-2.1.7-2.1 1.8v3.6c0 .3-.2.5-.4.5h1.9c-.3 0-.4-.3-.4-.5l-.2-3.7z" class="st0"/>
      </g>
    </g>
  </g>
</svg>
