<svg xmlns="http://www.w3.org/2000/svg" xml:space="preserve" id="Layer_1" x="0" y="0" version="1.1" viewBox="0 0 170 70">
  <style>
    .st2{fill:#2151a1}
  </style>
  <g id="Layer_1_1_">
    <g id="Pepsi" transform="matrix(1.44 0 0 1.44 -73.5 -151)">
      <circle cx="74.5" cy="129.2" r="16.7" fill="#fff"/>
      <path fill="#eb1933" d="M83.9 116.7c-2.6-1.9-5.8-3.1-9.3-3.1-8.6 0-15.5 6.9-15.5 15.5 0 3.3 1.1 6.5 3 9.2 10.5-3 18.7-11.2 21.8-21.6"/>
      <path d="M87.5 121c1.3 4.4 0 9-3.9 12-4.7 3.4-11.5 3.5-21 6.4 5.4 6.7 15.1 7.7 21.8 2.3 6.2-5.1 7.6-14.1 3.1-20.7" class="st2"/>
      <path id="A" d="M103.6 124.3c2.6 0 4.6 2.1 4.6 4.9 0 2.7-1.9 4.9-4.5 4.9-2.9-.1-4.7-2.1-4.8-4.7.1-2.8 2.2-5.1 4.7-5.1m.3 12.1c1.9 0 3.6-.7 5-2a7.6 7.6 0 0 0 2.1-5.2c0-4.1-3.2-7.4-7.2-7.4-3.3 0-6.1 2.2-7 5.4-.2 1.1-.3 2.2-.3 3.3v10.3c0 .2.2.3.3.3h1.8c.2 0 .3-.2.3-.3v-6.5c1.3 1.3 3 1.9 4.6 2" class="st2"/>
      <path d="m120.3 128.6-1.8-.1c-1.1 0-2 .2-3 .5v-.1c.2-2.1 2-3.9 4.2-4.3h.6c2.1 0 4 1.5 4.6 3.6-1.5.5-2.9.5-4.6.4zm7 0c-.6-4.5-4.3-6.5-7-6.4-5.4.1-7.6 4.7-7.1 8.3.4 3.7 3.5 6.3 7.1 6.3.3 0 .6 0 .9-.1 1.9-.2 3.6-1.1 4.9-2.6.2-.2.1-.4-.1-.5-.5-.3-1.7-.9-1.7-.9-.3-.2-.5-.1-.6.1a4.76 4.76 0 0 1-8-1.4v-.1c1.4-.6 2.6-.5 4.1-.3s2.8.3 4.1.1c2.2-.4 3.1-1.1 3.1-1.1.3-.2.3-.4.3-.7m18.2 5a7.7 7.7 0 0 0 5.6 2.3h.1c3.9 0 5.6-2.1 5.6-4.3 0-2.9-2.7-3.6-3.6-3.9-.9-.2-2-.4-2.9-.6-.5-.1-1.9-.6-1.9-1.7 0-1.2 1.3-1.8 2.6-1.8 1.1 0 1.9.2 3 1.1.2.2.5.2.7 0l1.2-1.1c.2-.2.2-.4-.1-.6a7.24 7.24 0 0 0-5-1.7c-2.9 0-5.1 1.9-5.1 4.3 0 2 1.6 3.3 4.6 3.9l1.8.4c1.2.2 1.9.9 1.8 1.8-1 2.9-5 1.9-6.6.2-.2-.2-.3-.2-.5 0l-1.5 1.2c-.1.3 0 .4.2.5m16.4-11.5c0-.2-.1-.3-.3-.3h-1.8c-.2 0-.3.1-.3.3v13.1c0 .2.1.3.3.3h1.8c.2 0 .3-.1.3-.3v-13.1" class="st2"/>
      <circle cx="160.7" cy="119.4" r="1.7" class="st2"/>
      <path id="A_1_" d="M136.4 124.3c2.6 0 4.6 2.1 4.6 4.9 0 2.7-1.9 4.9-4.5 4.9-2.9-.1-4.7-2.1-4.8-4.7.1-2.8 2.2-5.1 4.7-5.1m.4 12.1c1.9 0 3.6-.7 5-2a7.6 7.6 0 0 0 2.1-5.2c0-4.1-3.2-7.4-7.2-7.4-3.3 0-6.1 2.2-7 5.4-.2 1.1-.3 2.2-.3 3.3v10.3c0 .2.2.3.3.3h1.8c.2 0 .3-.2.3-.3v-6.5c1.3 1.3 3 1.9 4.6 2" class="st2"/>
    </g>
  </g>
</svg>
