<?xml version="1.0" encoding="utf-8"?>
<!-- Generator: Adobe Illustrator 25.0.1, SVG Export Plug-In . SVG Version: 6.00 Build 0)  -->
<svg xmlns="http://www.w3.org/2000/svg" xmlns:xlink="http://www.w3.org/1999/xlink" version="1.1" id="Layer_1" x="0px" y="0px" viewBox="0 0 335 283" style="enable-background:new 0 0 335 283;" xml:space="preserve">
<style type="text/css">
	.st0{fill:#EEEEEE;}
	.st1{fill:none;stroke:#EEEEEE;stroke-width:3;stroke-linecap:round;stroke-linejoin:round;}
	.st2{fill:none;stroke:#EEEEEE;stroke-width:3;stroke-linecap:round;stroke-linejoin:round;stroke-dasharray:6.5303,8.7071;}
	.st3{fill:none;stroke:#EEEEEE;stroke-width:3;stroke-linecap:round;stroke-linejoin:round;stroke-dasharray:5.6936,7.5915;}
	.st4{fill:#68217A;}
	.st5{fill:#FFFFFF;}
	.st6{fill:#4198D3;}
	.st7{fill:#575756;}
</style>
<g id="Aspose.ZIP">
	<polygon class="st0" points="146.96,269.63 34.01,261.63 34.01,115.06 146.96,115.06  "/>
	<polygon class="st0" points="152.96,269.63 221.55,261.63 221.55,115.06 152.96,115.06  "/>
	<g id="lines_16_">
		<g>
			<g>
				<line class="st1" x1="172.15" y1="54.45" x2="169.15" y2="54.45"/>
				<line class="st2" x1="160.44" y1="54.45" x2="134.32" y2="54.45"/>
				<polyline class="st1" points="129.96,54.45 126.96,54.45 126.96,57.45     "/>
				<line class="st3" x1="126.96" y1="65.04" x2="126.96" y2="101.1"/>
				<line class="st1" x1="126.96" y1="104.9" x2="126.96" y2="107.9"/>
			</g>
		</g>
	</g>
	<g id="circles_16_">
		<circle class="st4" cx="187.13" cy="55.35" r="33.61"/>
		<path id="NET_16_" class="st5" d="M196.4,52.32h4.7v14.57h1.91V52.32h4.7v-1.73H196.4V52.32z M187.87,59.47h5.89v-1.73h-5.89    v-5.42h6.36v-1.73h-8.27v16.3h8.64v-1.73h-6.72L187.87,59.47L187.87,59.47z M180.45,62.08l0.11,2.4h-0.05    c-0.11-0.22-0.34-0.58-0.66-1.09l-8.16-12.79h-2.48v16.3h1.91V55.12l-0.09-2.24h0.07c0.14,0.37,0.31,0.71,0.51,1.02l8.41,12.99    h2.32v-16.3h-1.9L180.45,62.08L180.45,62.08z M165.16,64.59c-0.35,0-0.64,0.12-0.89,0.38c-0.24,0.25-0.36,0.55-0.36,0.91    c0,0.34,0.13,0.66,0.36,0.9c0.24,0.25,0.54,0.38,0.89,0.38c0.36,0,0.66-0.13,0.91-0.38s0.38-0.56,0.38-0.91s-0.13-0.65-0.38-0.91    c-0.24-0.25-0.57-0.39-0.91-0.38 M203.03,47.33c0,0.87,0.39,1.31,1.16,1.31c0.28,0,0.5-0.05,0.67-0.14v-0.61    c-0.13,0.1-0.3,0.15-0.46,0.14c-0.24,0-0.4-0.06-0.51-0.19c-0.1-0.12-0.15-0.34-0.15-0.63v-2.5h1.12v-0.6h-1.11V42.8l-0.71,0.23    v1.08h-0.76v0.6h0.76v2.63L203.03,47.33z M200.13,48.54h0.71v-3.83h1.04v-0.6h-1.04v-0.68c0-0.63,0.25-0.94,0.74-0.94    c0.16,0,0.33,0.04,0.47,0.12v-0.64c-0.13-0.06-0.3-0.08-0.52-0.08c-0.38,0-0.7,0.11-0.96,0.36c-0.3,0.28-0.45,0.66-0.45,1.15v0.72    h-0.75v0.6h0.75v3.84L200.13,48.54z M195.28,46.34c0-0.57,0.14-1,0.42-1.31c0.27-0.29,0.62-0.43,1.06-0.43    c0.45,0,0.8,0.14,1.05,0.43c0.26,0.3,0.39,0.73,0.39,1.3c0,0.54-0.11,0.97-0.36,1.26c-0.24,0.3-0.6,0.45-1.07,0.45    c-0.45,0-0.81-0.15-1.08-0.45C195.41,47.29,195.28,46.87,195.28,46.34 M198.32,48c0.4-0.43,0.6-0.99,0.6-1.7    c0-0.72-0.19-1.28-0.56-1.7c-0.37-0.41-0.89-0.61-1.55-0.61c-0.67,0-1.21,0.2-1.61,0.59c-0.43,0.42-0.65,1.02-0.65,1.79    c0,0.68,0.19,1.22,0.57,1.63c0.39,0.43,0.92,0.64,1.59,0.64C197.39,48.64,197.93,48.43,198.32,48 M193.44,48.25    c0.27-0.22,0.42-0.56,0.41-0.9c0-0.33-0.11-0.6-0.33-0.81c-0.17-0.17-0.44-0.33-0.82-0.49c-0.34-0.14-0.56-0.27-0.67-0.37    c-0.12-0.11-0.18-0.26-0.18-0.46c0-0.18,0.07-0.33,0.21-0.45s0.33-0.17,0.57-0.17c0.38,0,0.71,0.11,1.01,0.32V44.2    c-0.28-0.14-0.6-0.21-0.95-0.21c-0.45,0-0.84,0.12-1.13,0.37c-0.29,0.25-0.44,0.55-0.44,0.92c0,0.33,0.09,0.6,0.28,0.8    c0.16,0.17,0.42,0.34,0.79,0.5c0.36,0.16,0.6,0.29,0.73,0.41s0.19,0.26,0.19,0.43c0,0.41-0.28,0.62-0.85,0.62    c-0.42,0-0.81-0.14-1.15-0.43v0.76c0.31,0.18,0.68,0.27,1.1,0.27C192.73,48.64,193.14,48.51,193.44,48.25 M187.1,45.03    c0.26-0.29,0.63-0.43,1.06-0.43c0.45,0,0.8,0.14,1.05,0.43c0.26,0.3,0.38,0.73,0.38,1.3c0,0.54-0.11,0.97-0.36,1.26    c-0.24,0.3-0.6,0.45-1.07,0.45c-0.45,0-0.81-0.15-1.08-0.45s-0.4-0.71-0.4-1.25C186.69,45.77,186.83,45.33,187.1,45.03     M188.12,48.64c0.68,0,1.21-0.21,1.61-0.64c0.4-0.43,0.6-0.99,0.6-1.7c0-0.72-0.19-1.28-0.56-1.7c-0.37-0.41-0.89-0.61-1.55-0.61    c-0.67,0-1.21,0.2-1.61,0.59c-0.43,0.42-0.65,1.02-0.65,1.79c0,0.68,0.19,1.22,0.57,1.63C186.92,48.42,187.45,48.64,188.12,48.64     M184.54,44.26c-0.22,0.17-0.38,0.43-0.48,0.75h-0.02v-0.92h-0.71v4.44h0.71v-2.25c0-0.52,0.11-0.92,0.33-1.21    c0.2-0.26,0.44-0.39,0.73-0.39c0.24,0,0.42,0.05,0.54,0.14v-0.74c-0.1-0.04-0.24-0.06-0.43-0.06    C184.97,44.03,184.74,44.11,184.54,44.26 M181.04,48.64c0.47,0,0.88-0.1,1.22-0.31v-0.67c-0.34,0.25-0.7,0.38-1.09,0.38    c-0.45,0-0.82-0.15-1.1-0.45c-0.27-0.3-0.41-0.71-0.41-1.23c0-0.54,0.15-0.97,0.45-1.29c0.28-0.31,0.65-0.47,1.1-0.47    c0.38,0,0.75,0.12,1.06,0.35v-0.73c-0.3-0.15-0.64-0.23-1.03-0.23c-0.7,0-1.27,0.22-1.68,0.67s-0.63,1.04-0.63,1.76    c0,0.65,0.19,1.18,0.57,1.59C179.89,48.44,180.41,48.65,181.04,48.64 M177.11,48.55h0.71v-4.44h-0.71V48.55L177.11,48.55z     M177.47,42.98c0.12,0,0.24-0.05,0.33-0.14s0.14-0.21,0.14-0.33c0-0.12-0.05-0.24-0.14-0.33s-0.21-0.13-0.33-0.13    c-0.13,0-0.24,0.04-0.33,0.13c-0.09,0.09-0.14,0.2-0.14,0.33c0,0.14,0.05,0.25,0.14,0.33C177.23,42.94,177.35,42.98,177.47,42.98     M169.93,44.38l-0.03-1.21h0.02c0.06,0.29,0.13,0.5,0.19,0.64l2.12,4.74h0.36l2.13-4.78c0.05-0.13,0.12-0.33,0.19-0.6h0.02    l-0.06,1.2v4.18h0.73v-6.22h-0.91l-1.95,4.31c-0.08,0.17-0.17,0.42-0.3,0.76h-0.03c-0.05-0.17-0.14-0.42-0.28-0.74l-1.91-4.34    h-0.96v6.22h0.7v-4.16H169.93z M207.29,45.1c-0.2,0.2-0.45,0.3-0.74,0.3c-0.29,0-0.54-0.1-0.74-0.3s-0.31-0.45-0.31-0.75    c0-0.29,0.1-0.54,0.3-0.74c0.2-0.2,0.45-0.3,0.75-0.3c0.28-0.01,0.54,0.1,0.74,0.3s0.31,0.47,0.3,0.75    C207.6,44.66,207.49,44.91,207.29,45.1 M206.56,43.19c-0.32-0.01-0.62,0.11-0.85,0.34c-0.22,0.22-0.35,0.52-0.34,0.84    c0,0.34,0.11,0.61,0.34,0.84s0.51,0.33,0.84,0.33c0.32,0.01,0.62-0.11,0.85-0.34c0.23-0.23,0.34-0.5,0.34-0.84    s-0.11-0.63-0.34-0.84C207.18,43.3,206.88,43.19,206.56,43.19 M206.53,44.28h-0.23v-0.51h0.19c0.13,0,0.22,0.02,0.28,0.07    c0.05,0.04,0.07,0.1,0.07,0.19C206.84,44.2,206.74,44.28,206.53,44.28 M206.69,44.42L206.69,44.42c0.12-0.03,0.22-0.08,0.28-0.15    c0.07-0.07,0.1-0.17,0.1-0.26c0-0.11-0.04-0.21-0.12-0.28c-0.1-0.09-0.24-0.13-0.43-0.13h-0.42v1.5h0.21v-0.63h0.14    c0.1,0,0.19,0.09,0.27,0.27l0.16,0.36h0.26l-0.2-0.4C206.86,44.53,206.77,44.44,206.69,44.42"/>
	</g>
	<g>
		<path class="st6" d="M116.11,223.09H66.06v-10.72l27.82-39.51H66.71v-14.02h48.69v10.68l-27.82,39.55h28.52V223.09z"/>
	</g>
	<g id="Zip">
		<path class="st7" d="M205.44,179.23h-36.97l-6.21-9.66h-9.3c0,9.67,0,18.99,0,28.44c0,5.59-0.11,11.27,0,16.86    c0.03,1.64-0.02,3.14,0,4.77h52.48l-15.38-6.92L205.44,179.23z"/>
		<path class="st0" d="M152.96,183.2c0,0.34,0,0.67,0,1.01h38.51l0.38-1.01H152.96z"/>
		<g>
			<path class="st0" d="M194.97,176.54c-5.42,9.34-9.18,27.39-9.18,33.76c0,8.75,7.09,15.83,15.83,15.83s15.83-7.09,15.83-15.83     c0-6.43-3.67-24.49-9.18-33.75 M201.26,215.68c-3.38,0-6.12-2.74-6.12-6.12c0-3.38,2.74-9.67,6.12-9.67     c3.38,0,6.12,6.29,6.12,9.67C207.39,212.94,204.65,215.68,201.26,215.68z"/>
		</g>
		<g>
			<g>
				<rect x="195.69" y="132.59" class="st7" width="5.93" height="5.84"/>
				<rect x="195.69" y="144.23" class="st7" width="5.93" height="5.84"/>
				<rect x="201.62" y="138.39" class="st7" width="5.93" height="5.84"/>
				<rect x="201.62" y="150.08" class="st7" width="5.93" height="5.84"/>
			</g>
			<g>
				<rect x="195.69" y="120.9" class="st7" width="5.93" height="5.84"/>
				<rect x="201.62" y="115.06" class="st7" width="5.93" height="5.84"/>
				<rect x="201.62" y="126.75" class="st7" width="5.93" height="5.84"/>
			</g>
			<g>
				<rect x="195.69" y="155.92" class="st7" width="5.93" height="5.84"/>
				<rect x="195.69" y="167.56" class="st7" width="5.93" height="5.84"/>
				<rect x="201.62" y="161.72" class="st7" width="5.93" height="5.84"/>
				<rect x="201.62" y="173.41" class="st7" width="5.93" height="5.84"/>
			</g>
		</g>
		<path class="st7" d="M195.69,179.24c-4.83,8.32-8.18,24.41-8.18,30.08c0,7.79,6.32,14.11,14.11,14.11    c7.79,0,14.11-6.32,14.11-14.11c0-5.73-3.27-21.82-8.18-30.07 M201.3,214.12c-3.01,0-5.46-2.44-5.46-5.46    c0-3.01,2.44-8.62,5.46-8.62c3.01,0,5.46,5.61,5.46,8.62C206.76,211.67,204.32,214.12,201.3,214.12z"/>
	</g>
</g>
<g>
</g>
<g>
</g>
<g>
</g>
<g>
</g>
<g>
</g>
</svg>
