<svg version="1.1" id="Total" xmlns="http://www.w3.org/2000/svg" x="0" y="0" viewBox="0 0 410 320" style="enable-background:new 0 0 410 320" xml:space="preserve"><style>.st10,.st21{fill:#fff}.st21{fill-rule:evenodd;clip-rule:evenodd}</style><circle cx="205" cy="160" r="126.5" style="fill:none;stroke:#ededed;stroke-miterlimit:10;stroke-dasharray:3.0097,6.0195"/><circle cx="205" cy="160" r="109.1" style="fill:none;stroke:#ededed;stroke-miterlimit:10;stroke-dasharray:3.0066,6.0132"/><circle cx="205" cy="160" r="140.6" style="fill:none;stroke:#ededed;stroke-miterlimit:10;stroke-dasharray:3.0051,6.0103"/><path style="fill:#6bb024" d="M15.2 28.4h49.2v49.2H15.2z"/><path style="fill:#b72e1b" d="M15.2 100.4h49.2v49.2H15.2z"/><path style="opacity:.3;fill:#b72e1b;enable-background:new" d="M64.5 149.6H15.2h80.3l-31-49.2z"/><path style="opacity:.3;fill:#165c34;enable-background:new" d="m64.5 219.6 31-49.6-80.3.4h49.3z"/><path style="fill:#165c34" d="M15.2 170.4h49.2v49.2H15.2z"/><path style="fill:#672862" d="M15.2 242.4h49.2v49.2H15.2z"/><path style="opacity:.3;fill:#672862;enable-background:new" d="m64.5 291.6 31-49.2H15.2h49.3z"/><path class="st10" d="M57.2 64c.3 0 .6.1.8.3s.3.5.3.8v1.1c0 .3-.1.6-.3.8s-.5.3-.8.3H25.5c-.6 0-1.1-.2-1.5-.6s-.6-.9-.6-1.5v-23c0-.3.1-.6.3-.8s.5-.3.8-.3h1.1c.3 0 .6.1.8.3s.3.5.3.8V64h30.5zm-26.5-3.2c-.2 0-.4-.1-.6-.3s-.3-.4-.3-.6v-4.8c0-.2.1-.4.3-.6.2-.2.4-.3.6-.3h1.5c.2 0 .4.1.6.3.2.2.3.4.3.6v4.8c0 .2-.1.4-.3.6-.2.2-.4.3-.6.3h-1.5zm6.6 0c-.2 0-.4-.1-.6-.3-.2-.2-.3-.4-.3-.6V46.3c0-.2.1-.4.3-.6.2-.2.4-.3.6-.3h1.5c.2 0 .4.1.6.3.2.2.3.4.3.6v13.5c0 .2-.1.4-.3.6-.2.2-.4.3-.6.3h-1.5v.1zm6.5 0c-.2 0-.4-.1-.6-.3-.2-.2-.2-.4-.2-.6v-9.2c0-.2.1-.4.3-.6.2-.2.4-.3.6-.3h1.5c.2 0 .4.1.6.3.2.2.3.4.3.6v9.2c0 .2-.1.4-.3.6-.2.2-.4.3-.6.3h-1.6zm6.6 0c-.2 0-.4-.1-.6-.3-.2-.2-.3-.4-.3-.6V44.2c0-.2.1-.4.3-.6.2-.2.4-.3.6-.3h1.5c.2 0 .4.1.6.3.2.2.3.4.3.6v15.7c0 .2-.1.4-.3.6-.2.2-.4.3-.6.3h-1.5zM27.9 118.1c3.3-3.3 7.3-5 11.9-5s8.6 1.7 11.9 5c3.3 3.3 5 7.3 5 11.9 0 3-.8 5.9-2.3 8.5-.4.6-.9.9-1.6.9h-26c-.7 0-1.2-.3-1.6-.9-1.5-2.6-2.3-5.4-2.3-8.5.1-4.7 1.7-8.6 5-11.9zm-.6 15.1c.4.4.8.6 1.3.6s.9-.2 1.3-.6c.4-.4.6-.8.6-1.3s-.2-.9-.6-1.3c-.4-.4-.8-.6-1.3-.6s-.9.2-1.3.6c-.4.4-.6.8-.6 1.3s.2.9.6 1.3zm2.8-9.4c.4.4.8.6 1.3.6s.9-.2 1.3-.6.6-.8.6-1.3-.2-.9-.6-1.3c-.4-.4-.8-.6-1.3-.6s-.9.2-1.3.6-.6.8-.6 1.3.2.9.6 1.3zm15.8-3.7c.1-.4.1-.8-.1-1.1s-.4-.6-.8-.7c-.4-.1-.7-.1-1.1.1s-.6.4-.7.8L39.6 130c-1 .1-1.8.5-2.5 1.2s-1 1.6-1 2.5c0 .7.2 1.3.5 1.9H43c.4-.6.5-1.2.5-1.9 0-1.1-.4-2.1-1.3-2.8l3.7-10.8zm-6-3.2c-.5 0-.9.2-1.3.6-.4.4-.6.8-.6 1.3s.2.9.6 1.3c.4.4.8.6 1.3.6.4 0 .7-.1 1.1-.4l.5-1.6.2-.4c-.1-.4-.3-.8-.6-1-.4-.3-.8-.4-1.2-.4zm6.8 6.6c.4.6.9.9 1.6.9.5 0 .9-.2 1.3-.6.4-.4.6-.8.6-1.3s-.2-.9-.6-1.3c-.4-.4-.8-.6-1.3-.6-.2 0-.4 0-.6.1l-1 2.8zm3.1 9.7c.4.4.8.6 1.3.6s.9-.2 1.3-.6c.4-.4.6-.8.6-1.3s-.2-.9-.6-1.3c-.4-.4-.8-.6-1.3-.6s-.9.2-1.3.6c-.4.4-.6.8-.6 1.3s.2.9.6 1.3zM50.2 207.5H29.5c-.8 0-1.4-.3-2-.8-.5-.5-.8-1.2-.8-2v-20.6c0-.8.3-1.4.8-2 .5-.5 1.2-.8 2-.8h20.6c.8 0 1.4.3 2 .8.5.5.8 1.2.8 2v20.6c0 .8-.3 1.4-.8 2s-1.1.8-1.9.8zm-12-5.7L48.9 191c.5-.4.5-.9 0-1.3l-1.3-1.3c-.5-.5-.9-.5-1.3 0l-8.8 8.8-4.1-4.1c-.4-.5-.9-.5-1.3 0l-1.3 1.3c-.5.5-.5.9 0 1.3l6.1 6.1c.4.4.8.4 1.3 0zM47.4 261.5h-1.9l-12.9 13.8c-.2.2-.3.2-.5.2h-6.5c-.5 0-.7-.2-.7-.7v-3.3c0-.5.2-.7.7-.7h4.9L43.4 257c.2-.2.3-.2.5-.2h3.5v-2.3c0-.6.3-1.1.9-1.3s1.1-.1 1.5.3l4.7 4.7c.3.3.4.6.4 1s-.1.7-.4 1l-4.7 4.7c-.4.4-.9.5-1.5.3s-.9-.7-.9-1.3v-2.4zm-21.8 0c-.5 0-.7-.2-.7-.7v-3.3c0-.5.2-.7.7-.7h6.5c.2 0 .4.1.5.2l4.1 4.4-3.1 3.4-3.1-3.3h-4.9zm28.9 10.8c.3.3.4.6.4 1s-.1.7-.4 1l-4.7 4.7c-.4.4-.9.5-1.5.3s-.9-.7-.9-1.3v-2.3h-3.5c-.2 0-.4-.1-.5-.2l-4.1-4.4 3.1-3.4 3.1 3.3h1.9v-2.3c0-.6.3-1.1.9-1.3s1.1-.1 1.5.3l4.7 4.6z"/><path style="opacity:.29;fill:#6bb024;enable-background:new" d="M64.5 77.6H15.2l80.3-.4-31-48.8z"/><g><path style="opacity:.3;fill:#0069b2;enable-background:new" d="M394.8 77.6h-49.3V28.4l-29.6 49.2z"/><path style="fill:#0069b2" d="M345.5 28.4h49.2v49.2h-49.2z"/><path style="fill:#296a33" d="M345.5 100.4h49.2v49.2h-49.2z"/><path style="opacity:.3;fill:#296a33;enable-background:new" d="M394.8 149.6h-49.3v-49.2l-29.6 49.2z"/><path style="fill:#50453a" d="M345.5 170.4h49.2v49.2h-49.2z"/><path style="opacity:.3;fill:#50453a;enable-background:new" d="m315.9 170 29.6 49.6v-49.2h49.3z"/><path style="fill:#e14644" d="M345.5 242.4h49.2v49.2h-49.2z"/><path style="opacity:.3;fill:#e14644;enable-background:new" d="m315.9 242.4 29.6 49.2v-49.2h49.3z"/><path class="st10" d="M384.8 51.1c.9.4 1.3 1 1.3 2v6.4c0 .9-.4 1.5-1.2 1.9l-5.9 2.9c-.6.3-1.3.3-1.9 0l-6.1-3-6.1 3c-.6.3-1.3.3-1.9 0l-5.9-2.9c-.8-.4-1.2-1-1.2-1.9v-6.4c0-1 .4-1.6 1.3-2l5.7-2.1v-6.3c0-1 .4-1.6 1.3-2l5.9-2.2c.5-.2 1-.2 1.5 0l5.9 2.2c.9.4 1.3 1 1.3 2V49l6 2.1zm-14.7 2-6-2.3-6 2.3 6 2.5 6-2.5zm0 6.5v-4.4l-5 2.3v4.6l5-2.5zm-4.9-17 6 2.5 6-2.4v-.1l-6-2.2-6 2.2zm11.9 6.5v-4.3l-5 2.1v4l5-1.8zm7 4-6-2.3-6 2.3 6 2.5 6-2.5zm0 6.5v-4.4l-5 2.3v4.6l5-2.5zM381.6 115.7c.5.5.8 1.2.8 2v19.5c0 .8-.3 1.4-.8 2-.5.5-1.2.8-2 .8h-16.9c-.8 0-1.4-.3-2-.8-.5-.5-.8-1.2-.8-2v-24.4c0-.8.3-1.4.8-2 .5-.5 1.2-.8 2-.8h12c.8 0 1.4.3 2 .8l4.9 4.9zm-2 21.5v-16.9h-6.1c-.4 0-.7-.1-1-.4s-.4-.6-.4-1v-6.1h-9.4v24.4h16.9zm-10.9-6.8c.2.2.2.5 0 .8l-1 1.1c-.1.1-.3.2-.4.2s-.2-.1-.4-.2l-3.3-3.2c-.3-.2-.3-.5 0-.7l3.3-3.2c.3-.3.5-.3.8 0l1 1.1v.1c.2.2.2.5 0 .7l-1.9 1.7 1.9 1.6zm3.5-7.9 1.4.4c.4.1.5.3.4.6l-3.2 11c-.1.4-.3.5-.6.4l-1.4-.4c-.4-.1-.5-.3-.4-.6l3.2-11c0-.3.2-.4.6-.4zm1.4 4.5c-.2-.2-.2-.5 0-.8l1-1.1c.2-.3.5-.3.8 0l3.3 3.2c.3.2.3.5 0 .7l-3.3 3.2c-.3.3-.5.3-.8 0l-1-1.1v-.1c-.2-.2-.2-.5 0-.7l1.9-1.7-1.9-1.6zm1.3-14v4.5h4.5l-4.5-4.5zM381.6 185.6c.5.5.8 1.2.8 2V207c0 .8-.3 1.4-.8 2-.5.5-1.2.8-2 .8h-16.9c-.8 0-1.4-.3-2-.8-.5-.5-.8-1.2-.8-2v-24.4c0-.8.3-1.4.8-2 .5-.5 1.2-.8 2-.8h12c.8 0 1.4.3 2 .8l4.9 5zM362.7 207h16.9v-16.9h-6.1c-.4 0-.7-.1-1-.4-.3-.3-.4-.6-.4-1v-6.1h-9.4V207zm2.7-16c.5-.5 1.2-.8 2-.8s1.4.3 2 .8c.5.5.8 1.2.8 2s-.3 1.4-.8 2c-.5.5-1.2.8-2 .8s-1.4-.3-2-.8c-.5-.5-.8-1.2-.8-2s.2-1.5.8-2zm-.8 13.2v-3.7l2.3-2.3c.3-.3.6-.3.9 0l2.3 2.3 5.2-5.2c.3-.3.6-.3.9 0l1.4 1.4v7.5h-13zm14.7-16.8-4.5-4.5v4.5h4.5zM389 275.6c.3 0 .5.1.7.3s.3.4.3.7v.9c0 1-.4 1.9-1.1 2.6s-1.6 1.1-2.6 1.1h-30c-1 0-1.9-.4-2.6-1.1s-1.1-1.6-1.1-2.6v-.9c0-.3.1-.5.3-.7s.4-.3.7-.3h14c0 .4.2.8.6 1.3.4.4.8.6 1.3.6h3.6c.5 0 1-.2 1.3-.5.4-.3.5-.8.6-1.4h14zm-2.9-21.6v19.7h-30V254c0-.8.3-1.4.8-2 .5-.5 1.2-.8 2-.8h24.4c.8 0 1.4.3 2 .8.6.6.8 1.3.8 2zm-3.7 16v-15h-22.5v15h22.5zm-15.1-3.4-3.4-3.5c-.5-.4-.5-.9 0-1.3l3.4-3.5c.4-.4.9-.4 1.3 0l.6.7c.4.4.4.9 0 1.3l-2.1 2.1 2.1 2.1c.4.4.4.9 0 1.3l-.6.7c-.4.5-.8.5-1.3.1zm5.7-.7c-.4-.4-.4-.9 0-1.3l2.1-2.1-2.1-2.1c-.4-.4-.4-.9 0-1.3l.6-.7c.5-.4.9-.4 1.3 0l3.4 3.5c.5.4.5.9 0 1.3l-3.4 3.5c-.4.4-.9.4-1.3 0l-.6-.8z"/></g><ellipse cx="205" cy="263.1" rx="109.1" ry="3.9" style="opacity:.15;fill:#555;enable-background:new"/><g id="Python"><path id="XMLID_8_" class="st21" d="M237.5 120.7c-19.9 0-36.8 7-50.7 21-14 13.9-21 30.8-21 50.7s7 36.8 21 50.6c5.1 5.2 10.7 9.5 16.7 12.8h-87.1c-1.4-.1-2.7-.5-4-1.2-2.2-1-3.3-3.1-3.3-6.1V71.4c.2-1.6.5-2.9 1-4 1.1-2.2 3.2-3.3 6.3-3.3h177.2l1.2.3c1 .2 2 .4 2.7.8 2.3 1 3.4 3.1 3.4 6.3v87.1c-3.3-6-7.5-11.6-12.8-16.8-14.1-14.1-30.9-21.1-50.6-21.1z"/><path id="XMLID_2_" d="M237.5 120.7c19.6 0 36.5 7 50.6 21 5.2 5.2 9.5 10.8 12.8 16.8V71.4c0-3.1-1.1-5.2-3.4-6.3-.8-.3-1.7-.6-2.7-.8l-1.2-.3H116.4c-3 0-5.1 1.1-6.3 3.3-.5 1.1-.9 2.5-1 4v177.2c0 3 1.1 5.1 3.3 6.1 1.3.7 2.6 1.1 4 1.2h87.1c-6-3.3-11.6-7.6-16.7-12.8-14-13.8-21-30.7-21-50.6s7-36.8 21-50.7c13.9-14 30.8-21 50.7-21zM298.3 56c1.9.3 3.4.8 4.4 1.4 4.3 2.1 6.5 5.9 6.5 11.3v123.7c0 19.8-7 36.7-21.1 50.6-14.1 14.1-30.9 21.1-50.6 21.1H113.8c-2.1 0-4.3-.5-6.5-1.6-4.3-2.3-6.5-6.1-6.5-11.5V68.8c0-2.2.6-4.3 1.7-6.5 2.1-4.3 5.9-6.5 11.3-6.5h182.4l2.1.2z" style="fill-rule:evenodd;clip-rule:evenodd;fill:#ffcd38"/><path d="M144.9 127.5h-7.4V88.7h-13.3v-6.3h34v6.3h-13.3v38.8z" style="fill:#ffcd38"/><path id="XMLID_3_" class="st21" d="m240.1 162.9-27.9 14 27.9 14 27.9-14-27.9-14zm0 34.8-41.7-20.9 41.7-20.9 41.7 20.9-41.7 20.9zm0 7.3 33.4-16.7 8.3 4.2-41.7 20.9-41.7-20.9 8.3-4.2 33.4 16.7zm-33.3-1 33.4 16.7 33.4-16.7 8.3 4.2-41.8 20.8-41.7-20.9 8.4-4.1z"/></g></svg>