<?xml version="1.0" encoding="utf-8"?>
<!-- Generator: Adobe Illustrator 25.2.0, SVG Export Plug-In . SVG Version: 6.00 Build 0)  -->
<svg version="1.1" id="Layer_1" xmlns="http://www.w3.org/2000/svg" xmlns:xlink="http://www.w3.org/1999/xlink" x="0px" y="0px"
	 viewBox="0 0 277 277" style="enable-background:new 0 0 277 277;" xml:space="preserve">
<style type="text/css">
	.st0{fill-rule:evenodd;clip-rule:evenodd;fill:#FFFFFF;}
	.st1{fill-rule:evenodd;clip-rule:evenodd;fill:#A4C547;}
	.st2{fill:#A4C547;}
	.st3{fill:#FFFFFF;}
	.st4{fill:none;stroke:#9DB546;stroke-miterlimit:10;}
	.st5{fill:#A5C547;}
</style>
<g id="_x2E_NET">
	<path id="XMLID_8_" class="st0" d="M180.46,87.48c-25.78,0-47.67,9.07-65.69,27.2c-18.12,18.02-27.18,39.93-27.18,65.72
		s9.06,47.65,27.18,65.56c6.65,6.78,13.85,12.3,21.61,16.56H23.59c-1.8-0.11-3.55-0.62-5.23-1.52c-2.81-1.35-4.22-4-4.22-7.94V23.62
		c0.22-2.03,0.67-3.77,1.35-5.24c1.46-2.82,4.17-4.22,8.1-4.22h229.47l1.52,0.34c1.35,0.23,2.53,0.56,3.55,1.01
		c2.93,1.35,4.39,4.05,4.39,8.11v112.87c-4.26-7.79-9.77-15.06-16.55-21.79C227.74,96.55,205.9,87.48,180.46,87.48z"/>
	<path id="XMLID_2_" class="st1" d="M180.46,87.48c25.44,0,47.28,9.07,65.51,27.2c6.78,6.74,12.29,14,16.55,21.79V23.62
		c0-4.06-1.46-6.76-4.39-8.11c-1.01-0.45-2.2-0.79-3.55-1.01l-1.52-0.34H23.59c-3.94,0-6.64,1.41-8.1,4.22
		c-0.68,1.46-1.13,3.21-1.35,5.24v229.45c0,3.94,1.41,6.59,4.22,7.94c1.69,0.9,3.43,1.41,5.23,1.52h112.79
		c-7.76-4.26-14.96-9.78-21.61-16.56c-18.12-17.91-27.18-39.76-27.18-65.56s9.06-47.7,27.18-65.72
		C132.78,96.55,154.68,87.48,180.46,87.48z M259.14,3.68c2.48,0.45,4.39,1.07,5.74,1.86c5.63,2.7,8.44,7.6,8.44,14.7v160.18
		c0,25.68-9.12,47.54-27.36,65.56c-18.23,18.25-40.07,27.37-65.51,27.37H20.21c-2.7,0-5.52-0.67-8.44-2.03
		c-5.63-2.93-8.44-7.88-8.44-14.87V20.24c0-2.82,0.73-5.63,2.19-8.45c2.7-5.63,7.6-8.45,14.69-8.45h236.23L259.14,3.68z"/>
	<g>
		<path class="st2" d="M77.06,96.27H35.18v-6.65l29.51-43.68H35.98v-8.21h40.28v6.73l-29.63,43.6h30.43V96.27z"/>
	</g>
	<g id="Zip">
		<polygon class="st3" points="218.04,227.88 137.52,227.88 137.52,157.16 157.06,157.16 165.83,170.81 218.04,170.81 
			196.33,218.11 		"/>
		<line class="st4" x1="218.04" y1="177.56" x2="137.52" y2="177.56"/>
		<path class="st5" d="M203.25,167c-7.66,13.18-12.97,38.68-12.97,47.68c0,12.35,10.01,22.36,22.36,22.36S235,227.02,235,214.67
			c0-9.08-5.19-34.59-12.96-47.66 M212.14,222.28c-4.78,0-8.65-3.87-8.65-8.65c0-4.78,3.87-13.66,8.65-13.66
			c4.78,0,8.65,8.89,8.65,13.66C220.79,218.4,216.92,222.28,212.14,222.28z"/>
		<g>
			<g>
				<rect x="204.27" y="104.94" class="st3" width="8.37" height="8.25"/>
				<rect x="204.27" y="121.38" class="st3" width="8.37" height="8.25"/>
				<rect x="212.65" y="113.13" class="st3" width="8.37" height="8.25"/>
				<rect x="212.65" y="129.63" class="st3" width="8.37" height="8.25"/>
			</g>
			<g>
				<rect x="204.27" y="88.44" class="st3" width="8.37" height="8.25"/>
				<rect x="212.65" y="80.19" class="st3" width="8.37" height="8.25"/>
				<rect x="212.65" y="96.69" class="st3" width="8.37" height="8.25"/>
			</g>
			<g>
				<rect x="204.27" y="137.88" class="st3" width="8.37" height="8.25"/>
				<rect x="204.27" y="154.33" class="st3" width="8.37" height="8.25"/>
				<rect x="212.65" y="146.08" class="st3" width="8.37" height="8.25"/>
				<rect x="212.65" y="162.58" class="st3" width="8.37" height="8.25"/>
			</g>
		</g>
		<path class="st3" d="M204.27,170.81c-6.82,11.75-11.56,34.46-11.56,42.48c0,11,8.92,19.92,19.92,19.92
			c11,0,19.92-8.92,19.92-19.92c0-8.09-4.62-30.82-11.55-42.47 M212.2,220.07c-4.25,0-7.7-3.45-7.7-7.7c0-4.25,3.45-12.17,7.7-12.17
			c4.26,0,7.7,7.92,7.7,12.17C219.9,216.62,216.45,220.07,212.2,220.07z"/>
	</g>
</g>
<g>
</g>
<g>
</g>
<g>
</g>
<g>
</g>
<g>
</g>
<g>
</g>
</svg>
