<?xml version="1.0" encoding="utf-8"?>
<!-- Generator: Adobe Illustrator 25.0.1, SVG Export Plug-In . SVG Version: 6.00 Build 0)  -->
<svg xmlns="http://www.w3.org/2000/svg" xmlns:xlink="http://www.w3.org/1999/xlink" version="1.1" id="Layer_1" x="0px" y="0px" viewBox="0 0 335 283" style="enable-background:new 0 0 335 283;" xml:space="preserve">
<style type="text/css">
	.st0{fill:#EEEEEE;}
	
		.st1{fill:none;stroke:#EEEEEE;stroke-width:3;stroke-linecap:round;stroke-linejoin:round;stroke-miterlimit:10;stroke-dasharray:6,8;}
	.st2{fill:none;stroke:#EEEEEE;stroke-width:3;stroke-linecap:round;stroke-linejoin:round;}
	.st3{fill:none;stroke:#EEEEEE;stroke-width:3;stroke-linecap:round;stroke-linejoin:round;stroke-dasharray:6.5303,8.7071;}
	.st4{fill:none;stroke:#EEEEEE;stroke-width:3;stroke-linecap:round;stroke-linejoin:round;stroke-dasharray:5.6936,7.5915;}
	.st5{fill:#68217A;}
	.st6{fill:#DE4444;}
	.st7{fill:#004482;}
	.st8{fill:#F9A71A;}
	.st9{fill:#C1BC30;}
	.st10{fill:#FFFFFF;}
	.st11{fill:url(#SVGID_1_);}
	.st12{fill:url(#SVGID_2_);}
	.st13{fill:url(#SVGID_3_);}
	.st14{fill:#4198D3;}
	.st15{fill:#606060;}
</style>
<g id="Aspose.Barcode">
	<polygon class="st0" points="146.24,268.67 33.29,260.67 33.29,114.1 146.24,114.1  "/>
	<polygon class="st0" points="152.24,268.67 220.83,260.67 220.83,114.1 152.24,114.1  "/>
	<g id="lines_5_">
		<polyline class="st1" points="181.71,61.21 181.71,95.92 116.49,95.92 116.49,109.69   "/>
		<polyline class="st1" points="245.97,66.03 211.26,66.03 211.26,109.69   "/>
		<polyline class="st1" points="293.36,136.56 242.66,136.56 242.66,179.67 218.69,179.67   "/>
		<polyline class="st1" points="296.62,251.3 241.56,251.3 241.56,209.98 218.69,209.98   "/>
		<g>
			<g>
				<line class="st2" x1="83.43" y1="53.49" x2="80.43" y2="53.49"/>
				<line class="st3" x1="71.72" y1="53.49" x2="45.6" y2="53.49"/>
				<polyline class="st2" points="41.24,53.49 38.24,53.49 38.24,56.49     "/>
				<line class="st4" x1="38.24" y1="64.08" x2="38.24" y2="100.14"/>
				<line class="st2" x1="38.24" y1="103.94" x2="38.24" y2="106.94"/>
			</g>
		</g>
	</g>
	<g id="circles_5_">
		<circle class="st5" cx="98.41" cy="54.39" r="33.61"/>
		<circle class="st6" cx="181.71" cy="34.63" r="33.61"/>
		
			<ellipse transform="matrix(0.1602 -0.9871 0.9871 0.1602 162.8503 323.4659)" class="st7" cx="271.52" cy="66.03" rx="33.61" ry="33.61"/>
		<circle class="st8" cx="300.48" cy="136.56" r="33.61"/>
		<circle class="st9" cx="296.62" cy="248.44" r="33.61"/>
		<g id="java_5_">
			<path id="XMLID_48_" class="st10" d="M181.57,18.98c-1.81,1.27-3.86,2.72-4.96,5.11c-1.91,4.17,3.91,8.71,4.16,8.91     c0.06,0.04,0.13,0.07,0.2,0.07c0.07,0,0.15-0.03,0.21-0.07c0.12-0.1,0.15-0.26,0.08-0.39c-0.02-0.04-2.11-4.1-2.03-7.01     c0.03-1.01,1.45-2.16,2.95-3.38c1.38-1.12,2.94-2.38,3.85-3.86c2-3.26-0.22-6.46-0.25-6.49c-0.09-0.12-0.25-0.17-0.39-0.11     s-0.22,0.21-0.18,0.36c0,0.02,0.44,2.14-0.77,4.32C183.92,17.33,182.83,18.09,181.57,18.98z"/>
			<path id="XMLID_47_" class="st10" d="M189.2,20.42c0.13-0.1,0.17-0.27,0.09-0.41s-0.25-0.2-0.4-0.15     c-0.31,0.12-7.54,2.9-7.54,6.27c0,2.32,0.99,3.55,1.71,4.44c0.28,0.35,0.53,0.65,0.61,0.91c0.23,0.75-0.31,2.09-0.54,2.55     c-0.07,0.13-0.03,0.29,0.08,0.39c0.06,0.05,0.13,0.08,0.21,0.08c0.06,0,0.13-0.02,0.18-0.06c0.12-0.09,3.04-2.15,2.51-4.63     c-0.19-0.94-0.66-1.63-1.07-2.24c-0.63-0.94-1.09-1.62-0.4-2.88C185.48,23.23,189.17,20.45,189.2,20.42z"/>
			<path id="XMLID_46_" class="st10" d="M170.39,34.55c-0.12,0.37-0.07,0.74,0.17,1.06c0.78,1.09,3.56,1.69,7.81,1.69l0,0     c0.58,0,1.19-0.01,1.81-0.03c6.8-0.24,9.33-2.36,9.43-2.45c0.11-0.1,0.14-0.26,0.07-0.39c-0.07-0.13-0.22-0.2-0.37-0.16     c-2.4,0.65-6.87,0.89-9.98,0.89c-3.47,0-5.24-0.25-5.67-0.43c0.22-0.31,1.59-0.85,3.29-1.18c0.16-0.03,0.27-0.18,0.26-0.35     c-0.02-0.16-0.15-0.29-0.32-0.29C175.9,32.89,170.91,32.97,170.39,34.55z"/>
			<path id="XMLID_45_" class="st10" d="M193.16,32.37c-1.4,0-2.73,0.7-2.79,0.73c-0.13,0.07-0.2,0.22-0.16,0.36     s0.16,0.24,0.31,0.24c0.03,0,2.99,0.02,3.26,1.72c0.24,1.46-2.8,3.83-4,4.62c-0.13,0.09-0.18,0.25-0.12,0.39     c0.05,0.12,0.17,0.2,0.3,0.2c0.02,0,0.04,0,0.07-0.01c0.28-0.06,6.92-1.52,6.22-5.39C195.82,32.87,194.33,32.37,193.16,32.37z"/>
			<path id="XMLID_44_" class="st10" d="M188.61,39.57c0.02-0.12-0.03-0.25-0.13-0.32l-1.59-1.11c-0.08-0.05-0.18-0.07-0.27-0.05     c-0.02,0-1.68,0.44-4.1,0.71c-0.96,0.11-2.03,0.16-3.11,0.16c-2.42,0-4-0.28-4.23-0.49c-0.03-0.06-0.02-0.09-0.02-0.1     c0.04-0.12,0.27-0.25,0.41-0.31c0.16-0.06,0.25-0.23,0.2-0.39s-0.22-0.26-0.38-0.22c-1.6,0.39-2.38,0.92-2.32,1.6     c0.1,1.2,2.88,1.82,5.23,1.98c0.34,0.02,0.7,0.03,1.09,0.03l0,0c3.91,0,8.92-1.23,8.97-1.24     C188.49,39.79,188.58,39.69,188.61,39.57z"/>
			<path id="XMLID_43_" class="st10" d="M176.6,42.15c0.12-0.08,0.17-0.23,0.13-0.36c-0.04-0.14-0.17-0.23-0.32-0.23     c-0.21,0.01-2.09,0.09-2.23,1.29c-0.04,0.36,0.06,0.68,0.3,0.97c0.68,0.8,2.5,1.28,5.57,1.45c0.36,0.02,0.73,0.03,1.1,0.03     c3.91,0,6.54-1.22,6.65-1.27s0.18-0.16,0.18-0.27c0.01-0.12-0.05-0.23-0.15-0.29l-2.01-1.23c-0.07-0.04-0.15-0.06-0.23-0.04     c-0.01,0-1.29,0.27-3.22,0.53c-0.36,0.05-0.82,0.07-1.36,0.07c-1.93,0-4.07-0.31-4.48-0.52     C176.54,42.24,176.55,42.19,176.6,42.15z"/>
			<path id="XMLID_42_" class="st10" d="M179.35,48.99c8.95-0.01,13.75-1.6,14.67-2.6c0.33-0.35,0.36-0.69,0.33-0.91     c-0.07-0.54-0.56-0.87-0.62-0.9c-0.13-0.09-0.31-0.06-0.42,0.06c-0.1,0.12-0.11,0.3,0,0.42c0.06,0.07,0.09,0.19-0.08,0.36     c-0.37,0.35-4.1,1.39-10.31,1.71c-0.85,0.04-1.74,0.07-2.65,0.07c-5.56,0-9.63-0.76-10.16-1.21c0.21-0.3,1.65-0.77,3.18-1.04     c0.17-0.03,0.29-0.19,0.26-0.37s-0.19-0.29-0.36-0.27c-0.04,0.01-0.19,0.01-0.36,0.03c-2.53,0.15-5.44,0.5-5.6,1.8     c-0.05,0.4,0.07,0.76,0.35,1.07C168.27,47.97,170.23,48.99,179.35,48.99L179.35,48.99z"/>
			<path id="XMLID_41_" class="st10" d="M195.78,46.68c-0.13-0.06-0.28-0.03-0.37,0.07c-0.01,0.01-1.36,1.42-5.4,2.25     c-1.55,0.31-4.45,0.47-8.64,0.47s-8.18-0.16-8.22-0.17c-0.17-0.01-0.31,0.11-0.33,0.28c-0.02,0.16,0.08,0.32,0.24,0.36     c0.04,0.01,4.22,0.99,9.94,0.99c2.74,0,5.41-0.22,7.93-0.66c4.7-0.82,5.03-3.15,5.04-3.25C195.98,46.87,195.9,46.73,195.78,46.68     z"/>
		</g>
		<g id="CPP_5_">
			<g>
				<path class="st10" d="M261.45,81.03c-2.83-1.5-5.05-3.6-6.67-6.28c-1.62-2.68-2.43-5.73-2.43-9.12c0-3.4,0.81-6.44,2.43-9.12      c1.62-2.68,3.84-4.78,6.67-6.28s6.02-2.26,9.58-2.26c3.11,0,5.9,0.55,8.39,1.65c2.49,1.1,4.56,2.69,6.21,4.75l-6.11,5.53      c-2.2-2.65-4.87-3.98-8.01-3.98c-1.84,0-3.49,0.4-4.92,1.21c-1.44,0.81-2.56,1.95-3.35,3.42s-1.19,3.16-1.19,5.07      s0.4,3.6,1.19,5.07s1.91,2.61,3.35,3.42s3.08,1.21,4.92,1.21c3.14,0,5.81-1.33,8.01-3.98l6.11,5.53      c-1.65,2.07-3.72,3.66-6.21,4.75c-2.49,1.1-5.29,1.65-8.39,1.65C267.47,83.28,264.28,82.53,261.45,81.03z"/>
			</g>
			<g>
				<path class="st10" d="M287.47,66.68h-2.36v2.31h-2.15v-2.31h-2.38v-2.04h2.38v-2.31h2.15v2.31h2.36V66.68z"/>
				<path class="st10" d="M296.1,66.68h-2.36v2.31h-2.15v-2.31h-2.38v-2.04h2.38v-2.31h2.15v2.31h2.36V66.68z"/>
			</g>
		</g>
		<path id="NET_5_" class="st10" d="M107.68,51.36h4.7v14.57h1.91V51.36h4.7v-1.73h-11.31V51.36z M99.15,58.51h5.89v-1.73h-5.89    v-5.42h6.36v-1.73h-8.27v16.3h8.64V64.2h-6.72L99.15,58.51L99.15,58.51z M91.73,61.12l0.11,2.4h-0.05    c-0.11-0.22-0.34-0.58-0.66-1.09l-8.16-12.79h-2.48v16.3h1.91V54.16l-0.09-2.24h0.07c0.14,0.37,0.31,0.71,0.51,1.02l8.41,12.99    h2.32v-16.3h-1.9L91.73,61.12L91.73,61.12z M76.44,63.63c-0.35,0-0.64,0.12-0.89,0.38c-0.24,0.25-0.36,0.55-0.36,0.91    c0,0.34,0.13,0.66,0.36,0.9c0.24,0.25,0.54,0.38,0.89,0.38c0.36,0,0.66-0.13,0.91-0.38s0.38-0.56,0.38-0.91S77.6,64.26,77.35,64    c-0.24-0.25-0.57-0.39-0.91-0.38 M114.31,46.37c0,0.87,0.39,1.31,1.16,1.31c0.28,0,0.5-0.05,0.67-0.14v-0.61    c-0.13,0.1-0.3,0.15-0.46,0.14c-0.24,0-0.4-0.06-0.51-0.19c-0.1-0.12-0.15-0.34-0.15-0.63v-2.5h1.12v-0.6h-1.11v-1.31l-0.71,0.23    v1.08h-0.76v0.6h0.76v2.63L114.31,46.37z M111.41,47.58h0.71v-3.83h1.04v-0.6h-1.04v-0.68c0-0.63,0.25-0.94,0.74-0.94    c0.16,0,0.33,0.04,0.47,0.12v-0.64c-0.13-0.06-0.3-0.08-0.52-0.08c-0.38,0-0.7,0.11-0.96,0.36c-0.3,0.28-0.45,0.66-0.45,1.15v0.72    h-0.75v0.6h0.75v3.84L111.41,47.58z M106.56,45.38c0-0.57,0.14-1,0.42-1.31c0.27-0.29,0.62-0.43,1.06-0.43    c0.45,0,0.8,0.14,1.05,0.43c0.26,0.3,0.39,0.73,0.39,1.3c0,0.54-0.11,0.97-0.36,1.26c-0.24,0.3-0.6,0.45-1.07,0.45    c-0.45,0-0.81-0.15-1.08-0.45C106.69,46.33,106.56,45.91,106.56,45.38 M109.6,47.04c0.4-0.43,0.6-0.99,0.6-1.7    c0-0.72-0.19-1.28-0.56-1.7c-0.37-0.41-0.89-0.61-1.55-0.61c-0.67,0-1.21,0.2-1.61,0.59c-0.43,0.42-0.65,1.02-0.65,1.79    c0,0.68,0.19,1.22,0.57,1.63c0.39,0.43,0.92,0.64,1.59,0.64C108.67,47.68,109.21,47.47,109.6,47.04 M104.72,47.29    c0.27-0.22,0.42-0.56,0.41-0.9c0-0.33-0.11-0.6-0.33-0.81c-0.17-0.17-0.44-0.33-0.82-0.49c-0.34-0.14-0.56-0.27-0.67-0.37    c-0.12-0.11-0.18-0.26-0.18-0.46c0-0.18,0.07-0.33,0.21-0.45s0.33-0.17,0.57-0.17c0.38,0,0.71,0.11,1.01,0.32v-0.72    c-0.28-0.14-0.6-0.21-0.95-0.21c-0.45,0-0.84,0.12-1.13,0.37s-0.44,0.55-0.44,0.92c0,0.33,0.09,0.6,0.28,0.8    c0.16,0.17,0.42,0.34,0.79,0.5c0.36,0.16,0.6,0.29,0.73,0.41s0.19,0.26,0.19,0.43c0,0.41-0.28,0.62-0.85,0.62    c-0.42,0-0.81-0.14-1.15-0.43v0.76c0.31,0.18,0.68,0.27,1.1,0.27C104.01,47.68,104.42,47.55,104.72,47.29 M98.38,44.07    c0.26-0.29,0.63-0.43,1.06-0.43c0.45,0,0.8,0.14,1.05,0.43c0.26,0.3,0.38,0.73,0.38,1.3c0,0.54-0.11,0.97-0.36,1.26    c-0.24,0.3-0.6,0.45-1.07,0.45c-0.45,0-0.81-0.15-1.08-0.45s-0.4-0.71-0.4-1.25C97.97,44.81,98.11,44.37,98.38,44.07 M99.4,47.68    c0.68,0,1.21-0.21,1.61-0.64s0.6-0.99,0.6-1.7c0-0.72-0.19-1.28-0.56-1.7c-0.37-0.41-0.89-0.61-1.55-0.61    c-0.67,0-1.21,0.2-1.61,0.59c-0.43,0.42-0.65,1.02-0.65,1.79c0,0.68,0.19,1.22,0.57,1.63C98.2,47.46,98.73,47.68,99.4,47.68     M95.82,43.3c-0.22,0.17-0.38,0.43-0.48,0.75h-0.02v-0.92h-0.71v4.44h0.71v-2.25c0-0.52,0.11-0.92,0.33-1.21    c0.2-0.26,0.44-0.39,0.73-0.39c0.24,0,0.42,0.05,0.54,0.14v-0.74c-0.1-0.04-0.24-0.06-0.43-0.06    C96.25,43.07,96.02,43.15,95.82,43.3 M92.32,47.68c0.47,0,0.88-0.1,1.22-0.31V46.7c-0.34,0.25-0.7,0.38-1.09,0.38    c-0.45,0-0.82-0.15-1.1-0.45c-0.27-0.3-0.41-0.71-0.41-1.23c0-0.54,0.15-0.97,0.45-1.29c0.28-0.31,0.65-0.47,1.1-0.47    c0.38,0,0.75,0.12,1.06,0.35v-0.73c-0.3-0.15-0.64-0.23-1.03-0.23c-0.7,0-1.27,0.22-1.68,0.67s-0.63,1.04-0.63,1.76    c0,0.65,0.19,1.18,0.57,1.59C91.17,47.48,91.69,47.69,92.32,47.68 M88.39,47.59h0.71v-4.44h-0.71V47.59L88.39,47.59z M88.75,42.02    c0.12,0,0.24-0.05,0.33-0.14c0.09-0.09,0.14-0.21,0.14-0.33c0-0.12-0.05-0.24-0.14-0.33s-0.21-0.13-0.33-0.13    c-0.13,0-0.24,0.04-0.33,0.13c-0.09,0.09-0.14,0.2-0.14,0.33c0,0.14,0.05,0.25,0.14,0.33C88.51,41.98,88.63,42.02,88.75,42.02     M81.21,43.42l-0.03-1.21h0.02c0.06,0.29,0.13,0.5,0.19,0.64l2.12,4.74h0.36L86,42.81c0.05-0.13,0.12-0.33,0.19-0.6h0.02    l-0.06,1.2v4.18h0.73v-6.22h-0.91l-1.95,4.31c-0.08,0.17-0.17,0.42-0.3,0.76h-0.03c-0.05-0.17-0.14-0.42-0.28-0.74l-1.91-4.34    h-0.96v6.22h0.7v-4.16H81.21z M118.57,44.14c-0.2,0.2-0.45,0.3-0.74,0.3s-0.54-0.1-0.74-0.3s-0.31-0.45-0.31-0.75    c0-0.29,0.1-0.54,0.3-0.74s0.45-0.3,0.75-0.3c0.28-0.01,0.54,0.1,0.74,0.3s0.31,0.47,0.3,0.75    C118.88,43.7,118.77,43.95,118.57,44.14 M117.84,42.23c-0.32-0.01-0.62,0.11-0.85,0.34c-0.22,0.22-0.35,0.52-0.34,0.84    c0,0.34,0.11,0.61,0.34,0.84s0.51,0.33,0.84,0.33c0.32,0.01,0.62-0.11,0.85-0.34c0.23-0.23,0.34-0.5,0.34-0.84    s-0.11-0.63-0.34-0.84C118.46,42.34,118.16,42.23,117.84,42.23 M117.81,43.32h-0.23v-0.51h0.19c0.13,0,0.22,0.02,0.28,0.07    c0.05,0.04,0.07,0.1,0.07,0.19C118.12,43.24,118.02,43.32,117.81,43.32 M117.97,43.46L117.97,43.46c0.12-0.03,0.22-0.08,0.28-0.15    c0.07-0.07,0.1-0.17,0.1-0.26c0-0.11-0.04-0.21-0.12-0.28c-0.1-0.09-0.24-0.13-0.43-0.13h-0.42v1.5h0.21v-0.63h0.14    c0.1,0,0.19,0.09,0.27,0.27l0.16,0.36h0.26l-0.2-0.4C118.14,43.57,118.05,43.48,117.97,43.46"/>
		<g id="Android_5_">
			<g>
				<path class="st10" d="M284.09,240.57c-0.66,0-1.22,0.23-1.68,0.69s-0.69,1.01-0.69,1.66v9.89c0,0.66,0.23,1.22,0.69,1.68      c0.46,0.46,1.02,0.69,1.68,0.69s1.21-0.23,1.67-0.69c0.45-0.46,0.68-1.02,0.68-1.68v-9.89c0-0.64-0.23-1.2-0.69-1.66      S284.74,240.57,284.09,240.57z"/>
				<path class="st10" d="M303.14,231.69l1.63-3.01c0.11-0.2,0.07-0.35-0.11-0.46c-0.2-0.09-0.35-0.05-0.46,0.14l-1.66,3.04      c-1.46-0.64-3-0.97-4.62-0.97c-1.63,0-3.17,0.32-4.62,0.97l-1.66-3.04c-0.11-0.18-0.26-0.23-0.46-0.14      c-0.18,0.11-0.22,0.26-0.11,0.46l1.63,3.01c-1.66,0.84-2.97,2.02-3.96,3.53c-0.98,1.51-1.47,3.16-1.47,4.96h21.27      c0-1.79-0.49-3.45-1.47-4.96C306.09,233.71,304.78,232.53,303.14,231.69z M293.7,236.07c-0.18,0.18-0.39,0.27-0.63,0.27      c-0.25,0-0.45-0.09-0.62-0.27c-0.17-0.18-0.25-0.39-0.25-0.63c0-0.25,0.08-0.46,0.25-0.63c0.17-0.18,0.38-0.26,0.62-0.26      c0.25,0,0.46,0.09,0.63,0.26c0.18,0.18,0.26,0.39,0.26,0.63S293.87,235.89,293.7,236.07z M303.39,236.07      c-0.17,0.18-0.38,0.27-0.62,0.27c-0.25,0-0.46-0.09-0.63-0.27c-0.18-0.18-0.26-0.39-0.26-0.63c0-0.25,0.09-0.46,0.26-0.63      c0.18-0.18,0.39-0.26,0.63-0.26c0.25,0,0.45,0.09,0.62,0.26c0.17,0.18,0.25,0.39,0.25,0.63S303.56,235.89,303.39,236.07z"/>
				<path class="st10" d="M287.36,256.32c0,0.71,0.25,1.3,0.74,1.79c0.49,0.49,1.09,0.74,1.79,0.74h1.7l0.02,5.22      c0,0.66,0.23,1.22,0.69,1.68s1.01,0.69,1.66,0.69c0.66,0,1.22-0.23,1.68-0.69s0.69-1.02,0.69-1.68v-5.22h3.17v5.22      c0,0.66,0.23,1.22,0.69,1.68s1.02,0.69,1.68,0.69s1.22-0.23,1.68-0.69s0.69-1.02,0.69-1.68v-5.22h1.72      c0.69,0,1.28-0.25,1.77-0.74s0.74-1.09,0.74-1.79V241h-21.11L287.36,256.32L287.36,256.32z"/>
				<path class="st10" d="M311.74,240.57c-0.64,0-1.2,0.23-1.66,0.68s-0.69,1.01-0.69,1.67v9.89c0,0.66,0.23,1.22,0.69,1.68      c0.46,0.46,1.01,0.69,1.66,0.69c0.66,0,1.22-0.23,1.68-0.69s0.69-1.02,0.69-1.68v-9.89c0-0.66-0.23-1.21-0.69-1.67      S312.4,240.57,311.74,240.57z"/>
			</g>
		</g>
		<g transform="matrix(.569 0 0 .569 199.451 -82.735)">
			
				<linearGradient id="SVGID_1_" gradientUnits="userSpaceOnUse" x1="-19528.707" y1="-19197.4746" x2="-19503.5488" y2="-19212.3398" gradientTransform="matrix(0.1187 0 0 0.1187 2479.8677 2694.2881)">
				<stop offset="0" style="stop-color:#909CA9"/>
				<stop offset="1" style="stop-color:#EDEDEE"/>
			</linearGradient>
			<path class="st11" d="M191.99,383.35l-14.52,4.74l-12.63,5.57l-3.53,0.93c-0.9,0.86-1.84,1.72-2.86,2.6     c-1.12,0.97-2.16,1.84-2.96,2.48c-0.89,0.7-2.21,2.02-2.88,2.85c-1,1.25-1.79,2.58-2.13,3.6c-0.6,1.84-0.31,3.71,0.86,5.43     c1.49,2.19,4.47,4.43,7.93,5.96c1.77,0.78,4.74,1.78,6.98,2.34c3.72,0.94,10.92,1.96,14.88,2.12c0.8,0.03,1.88,0.03,1.92,0     c0.09-0.06,0.7-1.23,1.42-2.69c2.44-4.97,4.19-9.64,5.15-13.62c0.57-2.41,1.02-5.63,1.32-9.44c0.08-1.06,0.11-4.63,0.04-5.84     c-0.1-1.98-0.27-3.58-0.55-5.15c-0.04-0.23-0.06-0.44-0.03-0.45c0.04-0.03,0.18-0.08,1.96-0.59L191.99,383.35L191.99,383.35     L191.99,383.35L191.99,383.35z M188.67,385.3c0.13,0,0.48,3.37,0.57,5.5c0.02,0.45,0.01,0.75-0.01,0.75     c-0.09,0-1.85-1.04-3.12-1.83c-1.1-0.69-3.18-2.07-3.51-2.34c-0.11-0.08-0.1-0.09,0.8-0.4     C184.93,386.46,188.55,385.3,188.67,385.3z M181.27,387.73c0.1,0,0.35,0.14,0.95,0.52c2.26,1.42,5.33,3.13,6.65,3.7     c0.41,0.18,0.45,0.11-0.48,0.75c-2,1.36-4.49,2.7-7.54,4.05c-0.54,0.24-0.99,0.43-1,0.43c-0.02,0,0.04-0.27,0.13-0.6     c0.74-2.73,1.15-5.5,1.17-7.71c0.01-1.1,0.01-1.1,0.11-1.13C181.25,387.73,181.26,387.73,181.27,387.73L181.27,387.73z      M179.75,388.31c0.07,0.07,0.02,2.52-0.07,3.19c-0.2,1.6-0.5,3.09-1.01,4.77c-0.12,0.41-0.23,0.75-0.25,0.77     c-0.04,0.05-1.55-1.42-2.04-1.99c-0.86-0.99-1.53-1.98-2.02-2.94c-0.25-0.49-0.65-1.46-0.61-1.49     C173.92,390.51,179.71,388.27,179.75,388.31L179.75,388.31z M172.57,391.13c0.01,0,0.02,0,0.03,0.01c0.02,0.02,0.1,0.2,0.16,0.4     c0.35,0.95,1.14,2.36,1.82,3.26c0.75,0.99,1.72,2.04,2.53,2.73c0.26,0.22,0.5,0.43,0.54,0.46c0.07,0.07,0.09,0.05-1.7,0.74     c-2.07,0.79-4.33,1.58-6.92,2.41c-0.62,0.2-1.24,0.4-1.85,0.6c-0.1,0.03-0.07-0.02,0.22-0.47c1.28-2.01,3.24-5.95,4.33-8.74     c0.19-0.48,0.37-0.97,0.41-1.08c0.04-0.15,0.1-0.21,0.24-0.29C172.46,391.16,172.54,391.13,172.57,391.13L172.57,391.13z      M170.38,392.05c0.03,0.02-0.53,1.2-1.08,2.27c-1.06,2.07-2.23,4.12-3.79,6.6c-0.26,0.43-0.52,0.82-0.55,0.87     c-0.05,0.08-0.08,0.05-0.25-0.29c-0.37-0.74-0.68-1.68-0.85-2.55c-0.16-0.86-0.13-2.35,0.05-3.27c0.14-0.68,0.13-0.67,0.46-0.83     C165.79,394.13,170.33,392,170.38,392.05L170.38,392.05z M189.31,392.81v0.46c0,2.45-0.26,5.81-0.65,8.25     c-0.07,0.43-0.12,0.78-0.13,0.79c0,0-0.32-0.09-0.69-0.2c-1.65-0.52-3.43-1.27-5.05-2.16c-1.06-0.58-2.61-1.54-2.57-1.58     c0.01-0.01,0.47-0.25,1.01-0.54c2.15-1.12,4.21-2.33,6-3.52c0.67-0.45,1.68-1.17,1.9-1.37L189.31,392.81L189.31,392.81z      M162.09,396.06c0.04,0,0.03,0.09-0.03,0.48c-0.04,0.29-0.1,0.81-0.12,1.17c-0.09,1.6,0.18,2.79,0.97,4.41     c0.22,0.45,0.4,0.82,0.38,0.83c-0.08,0.07-7.34,2.2-9.62,2.82c-0.68,0.19-1.27,0.35-1.32,0.36c-0.08,0.02-0.09,0.01-0.05-0.18     c0.25-1.61,1.48-3.72,3.19-5.5c1.14-1.19,2.05-1.88,3.61-2.77c1.12-0.64,2.84-1.59,2.97-1.64     C162.07,396.06,162.08,396.06,162.09,396.06L162.09,396.06z M179.21,399.12c0.01-0.01,0.27,0.13,0.59,0.32     c2.35,1.36,5.62,2.62,8.41,3.27l0.25,0.05l-0.35,0.2c-1.46,0.81-6.26,2.81-11.16,4.64c-0.71,0.26-1.42,0.53-1.55,0.58     c-0.13,0.05-0.25,0.09-0.25,0.08c0-0.01,0.2-0.4,0.45-0.87c1.37-2.57,2.75-5.7,3.46-7.87     C179.15,399.32,179.2,399.13,179.21,399.12L179.21,399.12z M177.47,399.69c0.01,0.01-0.08,0.24-0.19,0.5     c-0.95,2.32-2.21,4.84-3.81,7.67c-0.41,0.72-0.75,1.31-0.76,1.31c-0.01,0-0.34-0.2-0.74-0.44c-2.33-1.43-4.39-3.18-5.74-4.88     l-0.2-0.24l1-0.27c3.58-0.98,6.62-2.03,9.64-3.33C177.1,399.84,177.46,399.69,177.47,399.69z M188.31,403.48     C188.31,403.48,188.32,403.49,188.31,403.48c0.01,0.25-0.55,2.51-1.01,4.15c-0.38,1.37-0.71,2.45-1.32,4.35     c-0.26,0.83-0.49,1.53-0.5,1.53c-0.01,0-0.08-0.01-0.14-0.03c-3.26-0.59-6.18-1.42-8.92-2.51c-0.77-0.31-1.87-0.8-1.93-0.86     c-0.02-0.02,0.64-0.33,1.47-0.69c4.99-2.18,10.17-4.66,11.95-5.73C188.11,403.55,188.28,403.48,188.31,403.48L188.31,403.48z      M163.28,404.34c0.02,0.02-1.37,2.03-3.33,4.76c-0.68,0.95-1.47,2.07-1.77,2.49c-0.3,0.42-0.75,1.08-1,1.47l-0.46,0.71     l-0.49-0.42c-0.58-0.48-1.59-1.51-2.04-2.09c-0.94-1.17-1.58-2.41-1.83-3.54c-0.12-0.53-0.12-0.79-0.01-0.82     c0.16-0.04,3.09-0.74,5.84-1.37c1.53-0.35,3.29-0.77,3.93-0.92C162.75,404.46,163.27,404.34,163.28,404.34L163.28,404.34z      M164.68,404.87l0.35,0.4c1.58,1.77,3.19,3.07,5.15,4.21c0.35,0.2,0.61,0.37,0.59,0.38c-0.08,0.05-6.78,2.44-9.89,3.51     c-1.74,0.61-3.18,1.11-3.19,1.11c-0.01,0-0.11-0.07-0.22-0.14l-0.2-0.14l0.32-0.46c1.03-1.49,2.33-3.13,5.15-6.53L164.68,404.87     L164.68,404.87z M173.44,411.14c0.01-0.01,0.49,0.16,1.09,0.38c1.43,0.54,2.56,0.88,4.07,1.26c1.87,0.47,4.57,0.93,6.16,1.06     c0.24,0.02,0.37,0.04,0.33,0.08c-0.08,0.04-1.69,0.58-2.88,0.95c-1.89,0.59-7.65,2.29-12.35,3.64c-0.87,0.25-1.61,0.46-1.66,0.47     c-0.11,0.02-0.47-0.08-0.47-0.12c0-0.02,0.26-0.36,0.58-0.74c1.58-1.89,3.15-3.99,4.46-5.99     C173.13,411.6,173.44,411.15,173.44,411.14L173.44,411.14z M171.51,411.2c0.01,0.01-0.77,1.26-2.13,3.41     c-0.58,0.91-1.23,1.94-1.46,2.3c-0.22,0.35-0.55,0.9-0.74,1.21l-0.32,0.56l-0.16-0.04c-0.4-0.11-3.17-1.09-3.91-1.38     c-0.91-0.36-1.85-0.8-2.56-1.17c-0.88-0.47-1.98-1.17-1.89-1.2c0.02-0.01,1.53-0.42,3.34-0.91c4.81-1.31,7.47-2.06,9.22-2.61     C171.22,411.26,171.5,411.18,171.51,411.2L171.51,411.2z M185.17,414.4h0.01c0.04,0.11-1.73,5.05-2.38,6.61     c-0.14,0.35-0.2,0.44-0.27,0.43c-0.19-0.01-2.77-0.37-4.33-0.6c-2.73-0.42-7.32-1.22-8.47-1.48l-0.26-0.05l1.63-0.37     c3.51-0.79,5.2-1.22,6.91-1.74c2.16-0.66,4.3-1.48,6.46-2.49C184.81,414.53,185.09,414.41,185.17,414.4L185.17,414.4z"/>
			
				<linearGradient id="SVGID_2_" gradientUnits="userSpaceOnUse" x1="-19527.7148" y1="-19689.8789" x2="-19507.4707" y2="-19689.8789" gradientTransform="matrix(0.1187 0 0 0.1187 2479.8677 2694.2881)">
				<stop offset="0" style="stop-color:#939FAB"/>
				<stop offset="1" style="stop-color:#DCDEE1"/>
			</linearGradient>
			<path class="st12" d="M177.02,349.51c-0.24-0.03-4.14,1.37-6.65,2.39c-3.39,1.38-6.02,2.7-7.65,3.84     c-0.6,0.43-1.36,1.19-1.48,1.48c-0.04,0.11-0.07,0.24-0.07,0.37l1.47,1.39l3.5,1.12l8.33,1.49l9.53,1.64l0.1-0.82     c-0.03,0-0.05-0.01-0.09-0.01l-1.25-0.2l-0.25-0.45c-1.3-2.28-2.72-5.11-3.56-7.02c-0.65-1.48-1.26-3.19-1.6-4.42     C177.16,349.56,177.14,349.52,177.02,349.51L177.02,349.51L177.02,349.51L177.02,349.51z M176.84,350.07h0.01     c0.01,0.01,0.05,0.32,0.1,0.68c0.19,1.54,0.53,3.02,1.06,4.62c0.41,1.21,0.41,1.14-0.07,1c-1.12-0.31-6.13-1.17-9.77-1.68     c-0.58-0.08-1.08-0.15-1.08-0.16c-0.04-0.04,2.62-1.44,3.8-1.99C172.41,351.85,176.53,350.12,176.84,350.07L176.84,350.07z      M166.26,354.99l0.43,0.14c2.33,0.79,8.18,1.91,11.4,2.17c0.36,0.03,0.67,0.07,0.68,0.07c0.01,0.01-0.3,0.18-0.69,0.36     c-1.56,0.78-3.27,1.73-4.46,2.47c-0.35,0.22-0.67,0.4-0.71,0.4c-0.04,0-0.27-0.04-0.52-0.08l-0.44-0.07l-1.1-1.08     c-1.93-1.88-3.45-3.33-4.03-3.87L166.26,354.99z M165.82,355.33l1.55,1.93c0.84,1.06,1.7,2.11,1.89,2.34     c0.19,0.23,0.34,0.42,0.33,0.43c-0.04,0.03-2.24-0.4-3.4-0.66c-1.2-0.27-1.69-0.41-2.43-0.64l-0.6-0.2v-0.15     c0.01-0.74,0.94-1.83,2.52-2.95L165.82,355.33L165.82,355.33z M178.97,357.96c0.04,0,0.1,0.1,0.23,0.4     c0.37,0.82,1.54,3.04,1.82,3.47c0.09,0.14,0.24,0.15-1.31-0.1c-3.72-0.6-4.92-0.8-4.92-0.82c0-0.01,0.11-0.09,0.25-0.16     c1.15-0.64,2.32-1.45,3.35-2.32c0.25-0.21,0.48-0.41,0.53-0.44C178.94,357.96,178.96,357.95,178.97,357.96L178.97,357.96z"/>
			
				<radialGradient id="SVGID_3_" cx="-3371.3625" cy="-10188.0986" r="26.8768" gradientTransform="matrix(-0.114 -0.0171 0.0346 -0.228 151.026 -2005.351)" gradientUnits="userSpaceOnUse">
				<stop offset="0" style="stop-color:#EE352C"/>
				<stop offset="1" style="stop-color:#A91D22"/>
			</radialGradient>
			<path class="st13" d="M161.31,357.07c0,0-0.24,0.38-0.01,0.95c0.14,0.35,0.56,0.78,1.03,1.22c0,0,4.88,4.76,5.48,5.44     c2.7,3.12,3.87,6.19,3.98,10.43c0.07,2.72-0.45,5.11-1.73,7.89c-2.28,4.98-7.1,10.48-14.53,16.58l1.09-0.36     c0.7-0.53,1.66-1.09,3.9-2.32c5.17-2.83,10.99-5.43,18.12-8.11c10.27-3.86,27.16-8.38,36.77-9.85l1-0.15l-0.15-0.24     c-0.88-1.36-1.48-2.21-2.21-3.11c-2.11-2.61-4.66-4.73-7.79-6.49c-4.3-2.4-9.87-4.28-16.91-5.67c-1.33-0.26-4.25-0.77-6.62-1.13     c-5.03-0.78-8.27-1.32-11.85-1.93c-1.28-0.22-3.2-0.55-4.48-0.82c-0.66-0.14-1.92-0.44-2.91-0.78     C162.7,358.31,161.55,358,161.31,357.07L161.31,357.07z M164.14,359.81c0.01-0.01,0.19,0.05,0.42,0.13     c0.42,0.14,0.95,0.31,1.59,0.48c0.48,0.13,0.96,0.26,1.45,0.38c0.66,0.16,1.21,0.32,1.22,0.32c0.08,0.08,1.19,3.62,1.56,4.98     c0.14,0.52,0.25,0.95,0.24,0.95c-0.01,0.01-0.13-0.18-0.27-0.43c-1.28-2.26-3.31-4.55-5.66-6.4     C164.37,360.02,164.14,359.83,164.14,359.81L164.14,359.81z M169.54,361.31c0.05,0,0.3,0.03,0.59,0.1     c1.87,0.42,5.21,1.05,7.35,1.42c0.36,0.05,0.65,0.12,0.65,0.14c0,0.02-0.13,0.1-0.3,0.19c-0.36,0.19-1.82,1.05-2.3,1.38     c-1.22,0.81-2.32,1.69-3.11,2.48c-0.32,0.32-0.59,0.58-0.59,0.58s-0.07-0.19-0.12-0.42c-0.39-1.53-1.22-3.79-1.96-5.38     c-0.12-0.25-0.22-0.48-0.22-0.5C169.53,361.32,169.53,361.31,169.54,361.31L169.54,361.31z M179.05,363.12     c0.07,0.02,0.18,0.4,0.4,1.22c0.41,1.59,0.59,3.37,0.53,5.03c-0.02,0.46-0.04,0.89-0.07,0.94l-0.03,0.11l-0.57-0.19     c-1.17-0.37-3.08-0.93-4.72-1.39c-0.93-0.25-1.69-0.48-1.69-0.5c0-0.07,1.36-1.43,1.94-1.94     C175.94,365.41,178.95,363.08,179.05,363.12L179.05,363.12z M179.8,363.23c0.03-0.03,4.54,0.75,6.6,1.14     c1.53,0.3,3.74,0.76,3.87,0.81c0.07,0.02-0.16,0.15-0.9,0.48c-2.9,1.31-5.05,2.48-7.19,3.91c-0.56,0.37-1.03,0.68-1.04,0.68     c-0.01,0-0.02-0.32-0.02-0.7c0-2.09-0.42-4.19-1.19-5.97C179.86,363.4,179.79,363.24,179.8,363.23z M191.47,365.53     c0.03,0.03-0.11,0.92-0.24,1.45c-0.4,1.64-1.46,4.06-2.77,6.34c-0.23,0.41-0.44,0.74-0.46,0.75c-0.02,0.01-0.32-0.15-0.66-0.35     c-1.27-0.75-2.72-1.45-4.3-2.11c-0.44-0.19-0.82-0.34-0.83-0.36c-0.08-0.07,3.46-2.4,5.32-3.52     C189.01,366.83,191.43,365.49,191.47,365.53L191.47,365.53z M192.3,365.66c0.1,0,2.1,0.55,3.14,0.86     c2.58,0.77,5.54,1.85,7.47,2.73l0.8,0.36l-0.56,0.13c-4.72,1.09-8.76,2.34-12.65,3.92c-0.32,0.13-0.6,0.24-0.63,0.24     c-0.02,0,0.09-0.25,0.23-0.56c1.17-2.49,1.93-5.09,2.12-7.31C192.24,365.83,192.27,365.66,192.3,365.66L192.3,365.66z      M172.42,370.23c0.03-0.03,1.56,0.33,2.38,0.56c1.25,0.35,3.91,1.24,3.91,1.31c0,0.01-0.3,0.26-0.65,0.57     c-1.44,1.2-2.82,2.46-4.48,4.06c-0.49,0.47-0.91,0.86-0.93,0.86c-0.02,0-0.03-0.07-0.02-0.15c0.25-1.84,0.2-4.21-0.15-6.62     C172.44,370.5,172.41,370.24,172.42,370.23z M204.47,370.26c0.02,0.02-0.7,1.16-1.16,1.81c-0.66,0.94-1.62,2.2-3.81,4.94     c-1.15,1.45-2.45,3.08-2.88,3.63c-0.44,0.55-0.8,1.01-0.81,1.01c-0.01,0-0.15-0.2-0.31-0.44c-1.23-1.84-2.7-3.46-4.44-4.91     c-0.33-0.27-0.69-0.57-0.81-0.66c-0.12-0.09-0.22-0.18-0.22-0.19c0-0.03,1.87-0.83,3.28-1.4c2.48-1.01,5.86-2.22,8.4-3     C203.04,370.65,204.45,370.24,204.47,370.26L204.47,370.26z M205.32,370.48c0.04-0.01,0.31,0.12,0.63,0.31     c2.67,1.53,5.28,3.49,7.34,5.51c0.58,0.57,2.02,2.06,2,2.07c0,0-0.5,0.04-1.1,0.09c-4.62,0.35-10.54,1.33-16.22,2.7     c-0.38,0.09-0.72,0.16-0.75,0.16c-0.02,0,0.41-0.43,0.94-0.94c3.34-3.22,4.86-5.25,6.66-8.87     C205.08,370.98,205.3,370.51,205.32,370.48C205.31,370.48,205.31,370.48,205.32,370.48L205.32,370.48z M180.88,372.98     c0.15,0.03,1.58,0.7,2.66,1.24c0.99,0.49,2.47,1.28,2.55,1.35c0.01,0.01-0.52,0.29-1.16,0.6c-2.06,1.03-3.83,2.01-5.67,3.13     c-0.53,0.32-0.97,0.58-0.98,0.58c-0.04,0-0.03-0.04,0.26-0.58c0.99-1.8,1.78-3.95,2.23-6.05     C180.8,373.09,180.85,372.98,180.88,372.98L180.88,372.98z M179.45,373.25c0.03,0.03-0.34,1.38-0.57,2.12     c-0.45,1.39-1.21,3.14-1.94,4.46c-0.18,0.31-0.44,0.76-0.58,1.01l-0.27,0.44l-0.61-0.59c-0.71-0.69-1.3-1.12-2.04-1.5     c-0.3-0.15-0.53-0.29-0.53-0.31c0-0.09,1.88-1.79,3.31-3.02C177.25,374.96,179.42,373.21,179.45,373.25L179.45,373.25z      M188.18,376.84l0.54,0.35c1.23,0.8,2.68,1.87,3.79,2.8c0.63,0.52,1.83,1.6,2.07,1.87l0.13,0.14l-0.89,0.25     c-5.03,1.39-8.91,2.63-13.44,4.3c-0.5,0.19-0.93,0.34-0.97,0.34c-0.07,0-0.12,0.05,1.01-0.99c2.9-2.67,5.47-5.61,7.37-8.47     L188.18,376.84L188.18,376.84z M185.88,377.41c0.02,0.02-1.48,2.14-2.38,3.34c-1.08,1.43-2.99,3.82-4.3,5.38     c-0.55,0.65-1.02,1.19-1.04,1.2c-0.03,0.01-0.04-0.15-0.04-0.41c0-1.33-0.34-2.74-0.93-3.95c-0.25-0.5-0.3-0.63-0.24-0.68     c0.21-0.19,3.4-2.01,5.42-3.09C183.72,378.46,185.85,377.38,185.88,377.41L185.88,377.41z M172.01,380.81     c0.03,0,0.29,0.13,0.57,0.29c0.7,0.38,1.33,0.81,1.89,1.27c0.02,0.02-0.26,0.25-0.64,0.53c-1.04,0.75-2.62,1.94-3.54,2.68     c-0.97,0.77-1,0.79-0.89,0.63c0.72-1.11,1.09-1.73,1.47-2.54c0.34-0.71,0.68-1.56,0.92-2.29     C171.88,381.05,171.99,380.81,172.01,380.81L172.01,380.81z M175.71,383.71c0.05-0.01,0.12,0.09,0.42,0.53     c0.63,0.93,1.11,2.18,1.23,3.19l0.02,0.22l-1.5,0.58c-2.69,1.04-5.17,2.07-6.85,2.84c-0.47,0.22-1.29,0.61-1.83,0.88     c-0.54,0.27-0.98,0.48-0.98,0.47s0.34-0.26,0.76-0.57c3.28-2.38,6.12-4.99,8.25-7.61c0.23-0.27,0.44-0.53,0.46-0.54     L175.71,383.71L175.71,383.71z M174.01,384.12c0.04,0.04-1.21,1.46-2.06,2.33c-2.12,2.16-4.21,3.85-6.82,5.5     c-0.33,0.21-0.63,0.39-0.66,0.42c-0.08,0.04,0.02-0.07,1.16-1.31c0.72-0.78,1.27-1.44,1.9-2.25c0.42-0.54,0.49-0.61,1.1-1.04     C170.25,386.6,173.97,384.08,174.01,384.12z"/>
		</g>
	</g>
	<g>
		<g>
			<path class="st14" d="M66.93,158.23h22.41c8.73,0,15.21,1.3,19.45,3.89c4.23,2.59,6.35,6.63,6.35,12.11     c0,3.6-0.92,6.68-2.77,9.23s-4.28,4.19-7.29,4.92v0.44c3.98,1.05,6.87,2.81,8.66,5.27c1.79,2.46,2.68,5.65,2.68,9.58     c0,5.83-2.19,10.42-6.57,13.78c-4.38,3.35-10.35,5.03-17.91,5.03h-25V158.23z M84.28,182.88h5.23c2.49,0,4.42-0.51,5.78-1.54     s2.04-2.55,2.04-4.57c0-3.6-2.72-5.41-8.17-5.41h-4.88V182.88z M84.28,195.58v13.49h6.11c5.42,0,8.13-2.29,8.13-6.86     c0-2.14-0.73-3.78-2.18-4.92s-3.55-1.71-6.31-1.71H84.28z"/>
		</g>
	</g>
	<g>
		<path class="st15" d="M163.5,236.12v-3.16h44.04v3.16H163.5z M163.53,231.4v-1.61h41.02v1.61H163.53z M163.53,226.63v-1.56h41.02    v1.56H163.53z M163.53,218.74v-1.56h41.02v1.56H163.53z M163.53,212.41v-3.11h41.02v3.11H163.53z M163.53,204.53v-1.56h41.02v1.56    H163.53z M163.53,201.36v-1.56h41.02v1.56H163.53z M163.53,198.2v-1.56h41.02v1.56H163.53z M163.53,191.92v-3.16h41.02v3.16    H163.53z M163.53,184.04v-3.16h41.02v3.16H163.53z M163.53,177.71v-3.16h41.02v3.16H163.53z M163.53,171.38v-3.16h41.02v3.16    H163.53z M163.53,166.66v-3.16h41.02v3.16H163.53z M163.53,158.72V154h41.02v4.72H163.53z M163.53,152.45v-1.61h41.02v1.61H163.53    z M163.5,149.28v-3.16h45.04v3.16H163.5z"/>
	</g>
</g>
<g>
</g>
<g>
</g>
<g>
</g>
<g>
</g>
<g>
</g>
</svg>
