<?xml version="1.0" encoding="utf-8"?>
<!-- Generator: Adobe Illustrator 25.2.0, SVG Export Plug-In . SVG Version: 6.00 Build 0)  -->
<svg version="1.1" id="NET" xmlns="http://www.w3.org/2000/svg" xmlns:xlink="http://www.w3.org/1999/xlink" x="0px" y="0px"
	 viewBox="0 0 512 512" style="enable-background:new 0 0 512 512;" xml:space="preserve">
<style type="text/css">
	.st0{fill:#EF4047;}
</style>
<g id="Classification">
	<g>
		<path class="st0" d="M87.3,229.3c0,15.2,11.9,27.8,26.7,27.8l113.5-1.1l1.1-54.3H114C99.4,201.7,87.3,214.2,87.3,229.3z
			 M299.7,8.9H86.8C46,8.9,13.5,43.1,13.5,85v342c0,41.8,33.1,76,73.3,76h162.8l-0.5-53.2H86.2c-11.9,0-22.3-10.2-22.3-22.8V85
			c0-12.4,9.7-22.8,22.3-22.8h212.9c11.9,0,21.7,9.7,21.7,22.3h51.5C372.4,42.6,339.9,8.9,299.7,8.9z M114,104
			c-14.6,0-26.7,12.4-26.7,27.8s11.9,27.8,26.7,27.8l113.5-1.1l1.1-54.3L114,104L114,104z"/>
		<g>
			<path class="st0" d="M285.1,95.2c15.7,0,28.3,12.4,28.3,28.3s-12.4,28.3-28.3,28.3s-28.3-12.4-28.3-28.3S269.3,95.2,285.1,95.2
				 M285.1,81.7c-22.8,0-41.8,18.5-41.8,41.8c0,22.8,18.5,41.8,41.8,41.8c22.8,0,41.8-18.5,41.8-41.8S307.9,81.7,285.1,81.7
				L285.1,81.7z"/>
		</g>
		<g>
			<path class="st0" d="M451.7,343.9c17.4,0,31.4,14.1,31.4,31.4s-14.1,31.4-31.4,31.4s-31.4-14.1-31.4-31.4
				C420.3,358.2,434.4,343.9,451.7,343.9 M451.7,328.7c-25.6,0-46.8,21.2-46.8,46.8c0,25.6,21.2,46.8,46.8,46.8s46.8-21.2,46.8-46.8
				C498.5,349.9,477.9,328.7,451.7,328.7L451.7,328.7z"/>
		</g>
		<g>
			<path class="st0" d="M291.1,264.2c18.5,0,33.6,15.2,33.6,33.6s-15.2,33.6-33.6,33.6s-33.6-15.2-33.6-33.6
				S272.1,264.2,291.1,264.2 M291.1,247.8c-27.8,0-49.9,22.3-49.9,49.9s22.3,49.9,49.9,49.9c27.8,0,49.9-22.3,49.9-49.9
				S318.1,247.8,291.1,247.8L291.1,247.8z"/>
		</g>
		<g>
			<path class="st0" d="M430.5,158.2c21.7,0,39.7,17.9,39.7,39.7s-17.9,39.7-39.7,39.7c-21.7,0-39.7-17.9-39.7-39.7
				C390.3,176.1,408.4,158.2,430.5,158.2 M430.5,139.2c-32.5,0-59.2,26.7-59.2,59.2s26.7,59.2,59.2,59.2s59.2-26.7,59.2-59.2
				C489.2,165.4,462.7,139.2,430.5,139.2L430.5,139.2z"/>
		</g>
		<g>
			<path class="st0" d="M310.6,429.2c15.7,0,28.3,12.4,28.3,28.3s-12.4,28.3-28.3,28.3s-28.3-12.4-28.3-28.3
				C282.3,441.7,294.7,429.2,310.6,429.2 M310.6,415.7c-22.8,0-41.8,18.5-41.8,41.8s18.5,41.8,41.8,41.8s41.8-18.5,41.8-41.8
				S333.3,415.7,310.6,415.7L310.6,415.7z"/>
		</g>
		<g>
			<path class="st0" d="M151.5,301.1c13,0,23.9,10.8,23.9,23.9c0,13-10.8,23.9-23.9,23.9s-23.9-10.8-23.9-23.9
				C127.5,311.9,138.5,301.1,151.5,301.1 M151.5,289.6c-19.6,0-35.3,15.7-35.3,35.3s15.7,35.3,35.3,35.3s35.3-15.7,35.3-35.3
				S171,289.6,151.5,289.6L151.5,289.6z"/>
		</g>
		<g>
			<g>
				
					<rect x="281.9" y="156.6" transform="matrix(0.9994 -3.317899e-02 3.317899e-02 0.9994 -6.6855 9.7172)" class="st0" width="15.2" height="99.5"/>
			</g>
			
				<rect x="313.9" y="242.2" transform="matrix(0.7705 -0.6375 0.6375 0.7705 -76.9213 285.958)" class="st0" width="89.4" height="15.2"/>
			
				<rect x="364.6" y="286.8" transform="matrix(0.4496 -0.8932 0.8932 0.4496 -96.6014 518.2326)" class="st0" width="15.2" height="101.4"/>
			
				<rect x="179.4" y="300" transform="matrix(0.9632 -0.2689 0.2689 0.9632 -74.773 69.3674)" class="st0" width="72.9" height="15.2"/>
			
				<rect x="295.1" y="337.5" transform="matrix(0.9989 -4.750308e-02 4.750308e-02 0.9989 -17.5883 14.8053)" class="st0" width="15.2" height="80"/>
		</g>
	</g>
</g>
</svg>
