<?xml version="1.0" encoding="utf-8"?>
<!-- Generator: Adobe Illustrator 25.2.0, SVG Export Plug-In . SVG Version: 6.00 Build 0)  -->
<svg version="1.1" id="Layer_1" xmlns="http://www.w3.org/2000/svg" xmlns:xlink="http://www.w3.org/1999/xlink" x="0px" y="0px"
	 viewBox="0 0 277 277" style="enable-background:new 0 0 277 277;" xml:space="preserve">
<style type="text/css">
	.st0{fill-rule:evenodd;clip-rule:evenodd;fill:#FFFFFF;}
	.st1{fill-rule:evenodd;clip-rule:evenodd;fill:#A4C547;}
	.st2{fill:#A4C547;}
	.st3{fill:#A4C546;stroke:#FFFFFF;stroke-width:6.6599;stroke-miterlimit:10;}
	.st4{fill:#FFFFFF;}
	.st5{fill:#A4C546;}
	.st6{fill:#FFFFFF;stroke:#A4C546;stroke-width:1.332;stroke-miterlimit:10;}
</style>
<g id="_x2E_NET">
	<path id="XMLID_8_" class="st0" d="M180.46,87.48c-25.78,0-47.67,9.07-65.69,27.2c-18.12,18.02-27.18,39.93-27.18,65.72
		s9.06,47.65,27.18,65.56c6.65,6.78,13.85,12.3,21.61,16.56H23.59c-1.8-0.11-3.55-0.62-5.23-1.52c-2.81-1.35-4.22-4-4.22-7.94V23.62
		c0.22-2.03,0.67-3.77,1.35-5.24c1.46-2.82,4.17-4.22,8.1-4.22h229.47l1.52,0.34c1.35,0.23,2.53,0.56,3.55,1.01
		c2.93,1.35,4.39,4.05,4.39,8.11v112.87c-4.26-7.79-9.77-15.06-16.55-21.79C227.74,96.55,205.9,87.48,180.46,87.48z"/>
	<path id="XMLID_2_" class="st1" d="M180.46,87.48c25.44,0,47.28,9.07,65.51,27.2c6.78,6.74,12.29,14,16.55,21.79V23.62
		c0-4.06-1.46-6.76-4.39-8.11c-1.01-0.45-2.2-0.79-3.55-1.01l-1.52-0.34H23.59c-3.94,0-6.64,1.41-8.1,4.22
		c-0.68,1.46-1.13,3.21-1.35,5.24v229.45c0,3.94,1.41,6.59,4.22,7.94c1.69,0.9,3.43,1.41,5.23,1.52h112.79
		c-7.76-4.26-14.96-9.78-21.61-16.56c-18.12-17.91-27.18-39.76-27.18-65.56s9.06-47.7,27.18-65.72
		C132.78,96.55,154.68,87.48,180.46,87.48z M259.14,3.68c2.48,0.45,4.39,1.07,5.74,1.86c5.63,2.7,8.44,7.6,8.44,14.7v160.18
		c0,25.68-9.12,47.54-27.36,65.56c-18.23,18.25-40.07,27.37-65.51,27.37H20.21c-2.7,0-5.52-0.67-8.44-2.03
		c-5.63-2.93-8.44-7.88-8.44-14.87V20.24c0-2.82,0.73-5.63,2.19-8.45c2.7-5.63,7.6-8.45,14.69-8.45h236.23L259.14,3.68z"/>
	<g>
		<path class="st2" d="M79.87,66.44c0,9.66-2.68,17.05-8.05,22.16c-5.37,5.11-13.09,7.67-23.18,7.67H32.27V37.73h18.1
			c9.32,0,16.56,2.51,21.74,7.53C77.28,50.28,79.87,57.34,79.87,66.44z M69.78,66.76c0-14.01-6.55-21.02-19.66-21.02h-8.29v42.48
			h6.81C62.74,88.22,69.78,81.07,69.78,66.76z"/>
		<path class="st2" d="M116.79,96.27l-4.54-16.38c-0.55-1.73-1.54-5.77-2.98-12.09h-0.29c-1.23,5.71-2.2,9.77-2.92,12.16
			l-4.67,16.31h-8.25l-9.84-35.1h7.62l4.47,17.3c1.02,4.27,1.74,7.93,2.16,10.98h0.19c0.21-1.54,0.53-3.32,0.97-5.32
			c0.43-2,0.81-3.5,1.13-4.49l5.33-18.47h8.19l5.17,18.47c0.32,1.04,0.71,2.62,1.19,4.76c0.48,2.14,0.76,3.8,0.84,4.98h0.25
			c0.32-2.6,1.06-6.24,2.22-10.92l4.54-17.3h7.49l-9.9,35.1H116.79z"/>
	</g>
	<g id="Drawing">
		<path class="st3" d="M232.85,182.52c0,28.28-22.91,51.21-51.18,51.21s-51.18-22.93-51.18-51.21c0-28.28,22.91-51.21,51.18-51.21
			S232.85,154.24,232.85,182.52z"/>
		<g id="Scale">
			
				<rect x="121.35" y="175.1" transform="matrix(0.7073 -0.7069 0.7069 0.7073 -83.7211 174.2327)" class="st4" width="94.4" height="26.25"/>
			<g>
				<g>
					
						<rect x="189.76" y="148.68" transform="matrix(0.7074 -0.7069 0.7069 0.7074 -51.5177 179.353)" class="st5" width="2.17" height="6.44"/>
					
						<rect x="187.72" y="151.52" transform="matrix(0.7073 -0.7069 0.7069 0.7073 -55.4704 179.3073)" class="st5" width="2.17" height="10.25"/>
				</g>
				<g>
					
						<rect x="182.97" y="155.47" transform="matrix(0.7074 -0.7069 0.7069 0.7074 -58.3091 176.5422)" class="st5" width="2.17" height="6.44"/>
					
						<rect x="180.92" y="158.31" transform="matrix(0.7073 -0.7069 0.7069 0.7073 -62.2621 176.4951)" class="st5" width="2.17" height="10.25"/>
				</g>
				<g>
					
						<rect x="176.18" y="162.27" transform="matrix(0.7073 -0.7069 0.7069 0.7073 -65.0992 173.7588)" class="st5" width="2.17" height="6.44"/>
					
						<rect x="174.13" y="165.11" transform="matrix(0.7074 -0.7068 0.7068 0.7074 -69.0546 173.6646)" class="st5" width="2.17" height="10.24"/>
				</g>
				<g>
					
						<rect x="169.39" y="169.07" transform="matrix(0.7072 -0.707 0.707 0.7072 -71.8922 170.9598)" class="st5" width="2.17" height="6.44"/>
					
						<rect x="167.34" y="171.91" transform="matrix(0.7073 -0.7069 0.7069 0.7073 -75.8461 170.8709)" class="st5" width="2.17" height="10.25"/>
				</g>
				<g>
					
						<rect x="162.6" y="175.86" transform="matrix(0.7074 -0.7069 0.7069 0.7074 -78.6835 168.1055)" class="st5" width="2.17" height="6.44"/>
					
						<rect x="160.55" y="178.7" transform="matrix(0.7073 -0.7069 0.7069 0.7073 -82.6386 168.0585)" class="st5" width="2.17" height="10.25"/>
				</g>
				<g>
					
						<rect x="155.81" y="182.66" transform="matrix(0.7072 -0.7071 0.7071 0.7072 -85.4811 165.3628)" class="st5" width="2.17" height="6.44"/>
					
						<rect x="153.76" y="185.5" transform="matrix(0.7073 -0.7069 0.7069 0.7073 -89.4305 165.2474)" class="st5" width="2.17" height="10.25"/>
				</g>
				<g>
					
						<rect x="149.01" y="189.45" transform="matrix(0.7074 -0.7069 0.7069 0.7074 -92.2667 162.4813)" class="st5" width="2.17" height="6.44"/>
					
						<rect x="146.96" y="192.29" transform="matrix(0.7073 -0.7069 0.7069 0.7073 -96.2227 162.4342)" class="st5" width="2.17" height="10.25"/>
				</g>
				<g>
					
						<rect x="142.22" y="196.25" transform="matrix(0.7073 -0.7069 0.7069 0.7073 -99.0606 159.6822)" class="st5" width="2.17" height="6.44"/>
					
						<rect x="140.17" y="199.09" transform="matrix(0.7073 -0.7069 0.7069 0.7073 -103.0161 159.6266)" class="st5" width="2.17" height="10.25"/>
				</g>
				<g>
					
						<rect x="135.43" y="203.05" transform="matrix(0.7074 -0.7068 0.7068 0.7074 -105.8451 156.8342)" class="st5" width="2.17" height="6.44"/>
					
						<rect x="133.38" y="205.89" transform="matrix(0.7073 -0.7069 0.7069 0.7073 -109.8078 156.8147)" class="st5" width="2.17" height="10.25"/>
				</g>
			</g>
		</g>
		<rect x="175.21" y="124.14" class="st4" width="12.56" height="12.57"/>
		<rect x="226.26" y="176.22" class="st4" width="12.56" height="12.57"/>
		<rect x="124.17" y="176.22" class="st4" width="12.56" height="12.57"/>
		<rect x="142.31" y="129.38" class="st4" width="78.65" height="1.85"/>
		<path class="st4" d="M149.18,130.43c0,3.47-2.81,6.28-6.28,6.28c-3.47,0-6.28-2.81-6.28-6.28c0-3.47,2.81-6.28,6.28-6.28
			C146.37,124.14,149.18,126.96,149.18,130.43z"/>
		<path class="st4" d="M227.25,130.43c0,3.47-2.81,6.28-6.28,6.28c-3.47,0-6.28-2.81-6.28-6.28c0-3.47,2.81-6.28,6.28-6.28
			C224.43,124.14,227.25,126.96,227.25,130.43z"/>
		<g id="Pen">
			<polygon class="st4" points="190.87,234.15 190.87,223.57 185.54,211.24 181.78,202.56 177.93,211.24 172.45,223.57 
				172.45,234.15 			"/>
			<g>
				<polygon class="st5" points="176.67,217.36 181.77,205.88 186.73,217.36 				"/>
				<path class="st4" d="M181.75,209.2l2.95,6.82h-5.98L181.75,209.2 M181.78,202.56l-7.16,16.12h14.14L181.78,202.56L181.78,202.56
					z"/>
			</g>
			<line class="st6" x1="185.85" y1="234.51" x2="185.85" y2="225.06"/>
			<line class="st6" x1="181.64" y1="234.51" x2="181.64" y2="225.06"/>
			<line class="st6" x1="177.43" y1="234.51" x2="177.43" y2="225.06"/>
		</g>
	</g>
</g>
<g>
</g>
<g>
</g>
<g>
</g>
<g>
</g>
<g>
</g>
<g>
</g>
</svg>
