<svg version="1.1" id="Aspose.Total_for_Android_via_Java" xmlns="http://www.w3.org/2000/svg" x="0" y="0" viewBox="0 0 272 272" style="enable-background:new 0 0 272 272" xml:space="preserve"><style>.st0{fill-rule:evenodd;clip-rule:evenodd}.st0,.st4{fill:#fff}</style><g id="Android_via_Java"><g id="Android_1_"><path id="XMLID_36_" class="st0" d="M151.5 112.7c-22 0-40.6 7.7-56 23.2-15.4 15.4-23.2 34-23.2 56s7.7 40.6 23.2 55.8c5.7 5.8 11.8 10.5 18.4 14.1h-96c-1.5-.1-3-.5-4.5-1.3-2.4-1.2-3.6-3.4-3.6-6.8V58.3c.2-1.7.6-3.2 1.2-4.5 1.2-2.4 3.6-3.6 6.9-3.6h195.5l1.3.3c1.2.2 2.2.5 3 .9 2.5 1.2 3.7 3.5 3.7 6.9v96.2c-3.6-6.6-8.3-12.8-14.1-18.6-15.5-15.5-34.1-23.2-55.8-23.2z"/><path id="XMLID_33_" d="M151.5 112.7c21.7 0 40.3 7.7 55.8 23.2 5.8 5.7 10.5 11.9 14.1 18.6V58.3c0-3.5-1.2-5.8-3.7-6.9-.9-.4-1.9-.7-3-.9l-1.3-.3H17.9c-3.4 0-5.7 1.2-6.9 3.6-.6 1.2-1 2.7-1.2 4.5v195.5c0 3.4 1.2 5.6 3.6 6.8 1.4.8 2.9 1.2 4.5 1.3H114c-6.6-3.6-12.7-8.3-18.4-14.1-15.4-15.3-23.2-33.9-23.2-55.8s7.7-40.6 23.2-56c15.3-15.6 33.9-23.3 55.9-23.3zm67-71.4c2.1.4 3.7.9 4.9 1.6 4.8 2.3 7.2 6.5 7.2 12.5v136.5c0 21.9-7.8 40.5-23.3 55.8-15.5 15.5-34.1 23.3-55.8 23.3H15c-2.3 0-4.7-.6-7.2-1.7C3 266.8.6 262.6.6 256.6V55.4c0-2.4.6-4.8 1.9-7.2C4.8 43.4 8.9 41 15 41h201.2l2.3.3z" style="fill-rule:evenodd;clip-rule:evenodd;fill:#c1bd37"/><path d="M49.3 120.2h-8.2V77.3H26.5v-7H64v7H49.3v42.9z" style="fill:#c1bd37"/><path id="XMLID_28_" class="st0" d="m154.4 159.2-30.8 15.4 30.8 15.4 30.8-15.4-30.8-15.4zm0 38.4-46-23 46-23 46 23-46 23zm0 8.1 36.8-18.4 9.2 4.6-46 23-46-23 9.2-4.6 36.8 18.4zm-36.9-1.1 36.8 18.4 36.8-18.4 9.2 4.6-46 23-46-23 9.2-4.6z"/></g><circle cx="216.4" cy="56" r="55" style="fill:#dd4443"/><path class="st4" d="M205.8 73.6s-3.1 1.8 2.2 2.4c6.4.7 9.7.6 16.8-.7 0 0 1.8 1.1 4.5 2.2-15.9 6.8-36.1-.4-23.5-3.9m-1.9-8.9s-3.5 2.6 1.8 3.1c6.8.7 12.3.8 21.6-1 0 0 1.3 1.3 3.4 2-19.2 5.7-40.5.5-26.8-4.1m16.3-14.9c3.9 4.5-1 8.5-1 8.5s9.9-5.1 5.4-11.5c-4.2-6-7.5-8.9 10.1-19.2-.1 0-27.8 6.9-14.5 22.2"/><path class="st4" d="M241.1 80.2s2.2 1.9-2.5 3.4c-9.2 2.8-38 3.6-46 .1-2.8-1.3 2.5-3 4.2-3.4 1.8-.3 2.8-.3 2.8-.3-3.2-2.2-20.7 4.4-8.9 6.4 32.2 5.1 58.8-2.5 50.4-6.2m-33.9-24.6s-14.7 3.5-5.2 4.7c4 .5 12 .4 19.4-.2 6-.5 12.2-1.6 12.2-1.6s-2.2.9-3.7 2c-14.9 3.9-43.8 2.1-35.5-1.9 7.1-3.4 12.8-3 12.8-3m26.5 14.8c15.2-7.9 8.1-15.5 3.3-14.4-1.2.3-1.7.4-1.7.4s.4-.7 1.3-1c9.7-3.4 17.1 10-3.1 15.4-.3-.1.1-.3.2-.4m-9.2-59.3s8.4 8.4-7.9 21.3c-13.1 10.4-3 16.2 0 23.1-7.7-6.9-13.3-13-9.5-18.6 5.4-8.4 20.8-12.5 17.4-25.8"/><path class="st4" d="M208.8 91.7c14.6.9 37-.5 37.5-7.4 0 0-1 2.6-12 4.7-12.4 2.3-27.7 2.1-36.9.6-.2-.1 1.8 1.5 11.4 2.1"/></g></svg>