<?xml version="1.0" encoding="utf-8"?>
<!-- Generator: Adobe Illustrator 25.2.0, SVG Export Plug-In . SVG Version: 6.00 Build 0)  -->
<svg version="1.1" id="Layer_1" xmlns="http://www.w3.org/2000/svg" xmlns:xlink="http://www.w3.org/1999/xlink" x="0px" y="0px"
	 viewBox="0 0 700 700" style="enable-background:new 0 0 700 700;" xml:space="preserve">
<path d="M335.8,547.6c0,0-34.3,0-48.2,0c-3.6,0-5.8,0-5.8,0c-38,0-68-35-68-78c0-44,30-79,67-79h76h104h146V136.4
	c0-70-56-125-125-125H233.8c-48.8,0-90.8,27.2-111.7,67C92.6,88,69,110.6,58.1,139.7c-20.9,15.3-34.4,40-34.4,67.8v284.1
	c0,27.9,13.6,52.8,34.5,68.1c10.8,28.8,34.3,51.2,63.5,60.8c20.8,40.2,62.8,67.1,111.1,67.1h251.1c70,0,125-56,125-125v-15
	L335.8,547.6L335.8,547.6z"/>
<path d="M619.5,409.4c-5.2-0.6-10.4-0.6-15.6,0.1v-1H294.8c-33.7,0-61,27.4-61,61.1c0,33.7,27.3,61,61,61h310.1
	c33.5,4,63.8-19.8,67.9-53.3C676.8,443.8,653,413.4,619.5,409.4z M319.9,478.5c-2.3,12.2-11.8,21.8-24.1,24.1
	c-16.3,3-32-7.8-35-24.1c-3-16.3,7.8-32,24.1-35c3.6-0.7,7.3-0.7,10.9,0C312.1,446.5,322.9,462.2,319.9,478.5z"/>
</svg>
