<?xml version="1.0" encoding="utf-8"?>
<!-- Generator: Adobe Illustrator 25.2.0, SVG Export Plug-In . SVG Version: 6.00 Build 0)  -->
<svg version="1.1" id="Total" xmlns="http://www.w3.org/2000/svg" xmlns:xlink="http://www.w3.org/1999/xlink" x="0px" y="0px"
	 viewBox="0 0 410 320" style="enable-background:new 0 0 410 320;" xml:space="preserve">
<style type="text/css">
	.st0{fill:none;stroke:#EDEDED;stroke-miterlimit:10;stroke-dasharray:3.0097,6.0195;}
	.st1{fill:none;stroke:#EDEDED;stroke-miterlimit:10;stroke-dasharray:3.0066,6.0132;}
	.st2{fill:none;stroke:#EDEDED;stroke-miterlimit:10;stroke-dasharray:3.0051,6.0103;}
	.st3{fill:#6BB024;}
	.st4{fill:#B72E1B;}
	.st5{opacity:0.3;fill:#B72E1B;enable-background:new    ;}
	.st6{opacity:0.3;fill:#165C34;enable-background:new    ;}
	.st7{fill:#165C34;}
	.st8{fill:#672862;}
	.st9{opacity:0.3;fill:#672862;enable-background:new    ;}
	.st10{fill:#FFFFFF;}
	.st11{opacity:0.29;fill:#6BB024;enable-background:new    ;}
	.st12{opacity:0.3;fill:#0069B2;enable-background:new    ;}
	.st13{fill:#0069B2;}
	.st14{fill:#296A33;}
	.st15{opacity:0.3;fill:#296A33;enable-background:new    ;}
	.st16{fill:#50453A;}
	.st17{opacity:0.3;fill:#50453A;enable-background:new    ;}
	.st18{fill:#E14644;}
	.st19{opacity:0.3;fill:#E14644;enable-background:new    ;}
	.st20{opacity:0.15;fill:#555555;enable-background:new    ;}
	.st21{fill-rule:evenodd;clip-rule:evenodd;fill:#FFFFFF;}
	.st22{fill-rule:evenodd;clip-rule:evenodd;fill:#4F5D94;}
	.st23{fill:#4F5D94;}
	.st24{fill:#DD4443;}
</style>
<circle class="st0" cx="205" cy="160" r="126.5"/>
<circle class="st1" cx="205" cy="160" r="109.1"/>
<circle class="st2" cx="205" cy="160" r="140.6"/>
<path class="st3" d="M15.2,28.4h49.2v49.2H15.2V28.4z"/>
<path class="st4" d="M15.2,100.4h49.2v49.2H15.2V100.4z"/>
<path class="st5" d="M64.5,149.6H15.2h80.3l-31-49.2V149.6z"/>
<path class="st6" d="M64.5,219.6l31-49.6l-80.3,0.4h49.3V219.6L64.5,219.6z"/>
<path class="st7" d="M15.2,170.4h49.2v49.2H15.2V170.4z"/>
<path class="st8" d="M15.2,242.4h49.2v49.2H15.2V242.4L15.2,242.4z"/>
<path class="st9" d="M64.5,291.6l31-49.2H15.2h49.3V291.6z"/>
<path class="st10" d="M57.2,64c0.3,0,0.6,0.1,0.8,0.3s0.3,0.5,0.3,0.8v1.1c0,0.3-0.1,0.6-0.3,0.8s-0.5,0.3-0.8,0.3H25.5
	c-0.6,0-1.1-0.2-1.5-0.6s-0.6-0.9-0.6-1.5v-23c0-0.3,0.1-0.6,0.3-0.8s0.5-0.3,0.8-0.3h1.1c0.3,0,0.6,0.1,0.8,0.3s0.3,0.5,0.3,0.8V64
	C26.7,64,57.2,64,57.2,64z M30.7,60.8c-0.2,0-0.4-0.1-0.6-0.3s-0.3-0.4-0.3-0.6v-4.8c0-0.2,0.1-0.4,0.3-0.6c0.2-0.2,0.4-0.3,0.6-0.3
	h1.5c0.2,0,0.4,0.1,0.6,0.3c0.2,0.2,0.3,0.4,0.3,0.6v4.8c0,0.2-0.1,0.4-0.3,0.6c-0.2,0.2-0.4,0.3-0.6,0.3H30.7z M37.3,60.8
	c-0.2,0-0.4-0.1-0.6-0.3c-0.2-0.2-0.3-0.4-0.3-0.6V46.3c0-0.2,0.1-0.4,0.3-0.6c0.2-0.2,0.4-0.3,0.6-0.3h1.5c0.2,0,0.4,0.1,0.6,0.3
	c0.2,0.2,0.3,0.4,0.3,0.6v13.5c0,0.2-0.1,0.4-0.3,0.6c-0.2,0.2-0.4,0.3-0.6,0.3h-1.5C37.3,60.7,37.3,60.8,37.3,60.8z M43.8,60.8
	c-0.2,0-0.4-0.1-0.6-0.3C43,60.3,43,60.1,43,59.9v-9.2c0-0.2,0.1-0.4,0.3-0.6c0.2-0.2,0.4-0.3,0.6-0.3h1.5c0.2,0,0.4,0.1,0.6,0.3
	c0.2,0.2,0.3,0.4,0.3,0.6v9.2c0,0.2-0.1,0.4-0.3,0.6c-0.2,0.2-0.4,0.3-0.6,0.3H43.8z M50.4,60.8c-0.2,0-0.4-0.1-0.6-0.3
	c-0.2-0.2-0.3-0.4-0.3-0.6V44.2c0-0.2,0.1-0.4,0.3-0.6c0.2-0.2,0.4-0.3,0.6-0.3h1.5c0.2,0,0.4,0.1,0.6,0.3c0.2,0.2,0.3,0.4,0.3,0.6
	v15.7c0,0.2-0.1,0.4-0.3,0.6c-0.2,0.2-0.4,0.3-0.6,0.3H50.4z M27.9,118.1c3.3-3.3,7.3-5,11.9-5s8.6,1.7,11.9,5c3.3,3.3,5,7.3,5,11.9
	c0,3-0.8,5.9-2.3,8.5c-0.4,0.6-0.9,0.9-1.6,0.9h-26c-0.7,0-1.2-0.3-1.6-0.9c-1.5-2.6-2.3-5.4-2.3-8.5
	C23,125.3,24.6,121.4,27.9,118.1z M27.3,133.2c0.4,0.4,0.8,0.6,1.3,0.6s0.9-0.2,1.3-0.6c0.4-0.4,0.6-0.8,0.6-1.3s-0.2-0.9-0.6-1.3
	c-0.4-0.4-0.8-0.6-1.3-0.6s-0.9,0.2-1.3,0.6c-0.4,0.4-0.6,0.8-0.6,1.3S26.9,132.8,27.3,133.2z M30.1,123.8c0.4,0.4,0.8,0.6,1.3,0.6
	s0.9-0.2,1.3-0.6s0.6-0.8,0.6-1.3s-0.2-0.9-0.6-1.3c-0.4-0.4-0.8-0.6-1.3-0.6s-0.9,0.2-1.3,0.6s-0.6,0.8-0.6,1.3
	S29.7,123.4,30.1,123.8z M45.9,120.1c0.1-0.4,0.1-0.8-0.1-1.1s-0.4-0.6-0.8-0.7c-0.4-0.1-0.7-0.1-1.1,0.1s-0.6,0.4-0.7,0.8L39.6,130
	c-1,0.1-1.8,0.5-2.5,1.2s-1,1.6-1,2.5c0,0.7,0.2,1.3,0.5,1.9H43c0.4-0.6,0.5-1.2,0.5-1.9c0-1.1-0.4-2.1-1.3-2.8L45.9,120.1z
	 M39.9,116.9c-0.5,0-0.9,0.2-1.3,0.6c-0.4,0.4-0.6,0.8-0.6,1.3s0.2,0.9,0.6,1.3c0.4,0.4,0.8,0.6,1.3,0.6c0.4,0,0.7-0.1,1.1-0.4
	l0.5-1.6l0.2-0.4c-0.1-0.4-0.3-0.8-0.6-1C40.7,117,40.3,116.9,39.9,116.9z M46.7,123.5c0.4,0.6,0.9,0.9,1.6,0.9
	c0.5,0,0.9-0.2,1.3-0.6c0.4-0.4,0.6-0.8,0.6-1.3s-0.2-0.9-0.6-1.3c-0.4-0.4-0.8-0.6-1.3-0.6c-0.2,0-0.4,0-0.6,0.1L46.7,123.5z
	 M49.8,133.2c0.4,0.4,0.8,0.6,1.3,0.6s0.9-0.2,1.3-0.6c0.4-0.4,0.6-0.8,0.6-1.3s-0.2-0.9-0.6-1.3c-0.4-0.4-0.8-0.6-1.3-0.6
	s-0.9,0.2-1.3,0.6c-0.4,0.4-0.6,0.8-0.6,1.3S49.4,132.8,49.8,133.2z M50.2,207.5H29.5c-0.8,0-1.4-0.3-2-0.8c-0.5-0.5-0.8-1.2-0.8-2
	v-20.6c0-0.8,0.3-1.4,0.8-2c0.5-0.5,1.2-0.8,2-0.8h20.6c0.8,0,1.4,0.3,2,0.8c0.5,0.5,0.8,1.2,0.8,2v20.6c0,0.8-0.3,1.4-0.8,2
	S51,207.5,50.2,207.5z M38.2,201.8L48.9,191c0.5-0.4,0.5-0.9,0-1.3l-1.3-1.3c-0.5-0.5-0.9-0.5-1.3,0l-8.8,8.8l-4.1-4.1
	c-0.4-0.5-0.9-0.5-1.3,0l-1.3,1.3c-0.5,0.5-0.5,0.9,0,1.3l6.1,6.1C37.3,202.2,37.7,202.2,38.2,201.8z M47.4,261.5h-1.9l-12.9,13.8
	c-0.2,0.2-0.3,0.2-0.5,0.2h-6.5c-0.5,0-0.7-0.2-0.7-0.7v-3.3c0-0.5,0.2-0.7,0.7-0.7h4.9L43.4,257c0.2-0.2,0.3-0.2,0.5-0.2h3.5v-2.3
	c0-0.6,0.3-1.1,0.9-1.3s1.1-0.1,1.5,0.3l4.7,4.7c0.3,0.3,0.4,0.6,0.4,1s-0.1,0.7-0.4,1l-4.7,4.7c-0.4,0.4-0.9,0.5-1.5,0.3
	s-0.9-0.7-0.9-1.3V261.5z M25.6,261.5c-0.5,0-0.7-0.2-0.7-0.7v-3.3c0-0.5,0.2-0.7,0.7-0.7h6.5c0.2,0,0.4,0.1,0.5,0.2l4.1,4.4
	l-3.1,3.4l-3.1-3.3H25.6z M54.5,272.3c0.3,0.3,0.4,0.6,0.4,1s-0.1,0.7-0.4,1l-4.7,4.7c-0.4,0.4-0.9,0.5-1.5,0.3s-0.9-0.7-0.9-1.3
	v-2.3h-3.5c-0.2,0-0.4-0.1-0.5-0.2l-4.1-4.4l3.1-3.4l3.1,3.3h1.9v-2.3c0-0.6,0.3-1.1,0.9-1.3s1.1-0.1,1.5,0.3L54.5,272.3L54.5,272.3
	z"/>
<path class="st11" d="M64.5,77.6H15.2l80.3-0.4l-31-48.8V77.6z"/>
<path class="st12" d="M394.8,77.6h-49.3V28.4l-29.6,49.2H394.8z"/>
<path class="st13" d="M345.5,28.4h49.2v49.2h-49.2V28.4z"/>
<path class="st14" d="M345.5,100.4h49.2v49.2h-49.2V100.4z"/>
<path class="st15" d="M394.8,149.6h-49.3v-49.2l-29.6,49.2H394.8z"/>
<path class="st16" d="M345.5,170.4h49.2v49.2h-49.2V170.4z"/>
<path class="st17" d="M315.9,170l29.6,49.6v-49.2h49.3L315.9,170L315.9,170z"/>
<path class="st18" d="M345.5,242.4h49.2v49.2h-49.2V242.4L345.5,242.4z"/>
<path class="st19" d="M315.9,242.4l29.6,49.2v-49.2h49.3L315.9,242.4L315.9,242.4z"/>
<path class="st10" d="M384.8,51.1c0.9,0.4,1.3,1,1.3,2v6.4c0,0.9-0.4,1.5-1.2,1.9l-5.9,2.9c-0.6,0.3-1.3,0.3-1.9,0l-6.1-3l-6.1,3
	c-0.6,0.3-1.3,0.3-1.9,0l-5.9-2.9c-0.8-0.4-1.2-1-1.2-1.9v-6.4c0-1,0.4-1.6,1.3-2l5.7-2.1v-6.3c0-1,0.4-1.6,1.3-2l5.9-2.2
	c0.5-0.2,1-0.2,1.5,0l5.9,2.2c0.9,0.4,1.3,1,1.3,2V49L384.8,51.1L384.8,51.1z M370.1,53.1l-6-2.3l-6,2.3l6,2.5L370.1,53.1z
	 M370.1,59.6v-4.4l-5,2.3v4.6C365.1,62.1,370.1,59.6,370.1,59.6z M365.2,42.6l6,2.5l6-2.4v-0.1l-6-2.2L365.2,42.6z M377.1,49.1v-4.3
	l-5,2.1v4L377.1,49.1z M384.1,53.1l-6-2.3l-6,2.3l6,2.5L384.1,53.1z M384.1,59.6v-4.4l-5,2.3v4.6C379.1,62.1,384.1,59.6,384.1,59.6z
	 M381.6,115.7c0.5,0.5,0.8,1.2,0.8,2v19.5c0,0.8-0.3,1.4-0.8,2c-0.5,0.5-1.2,0.8-2,0.8h-16.9c-0.8,0-1.4-0.3-2-0.8
	c-0.5-0.5-0.8-1.2-0.8-2v-24.4c0-0.8,0.3-1.4,0.8-2c0.5-0.5,1.2-0.8,2-0.8h12c0.8,0,1.4,0.3,2,0.8L381.6,115.7z M379.6,137.2v-16.9
	h-6.1c-0.4,0-0.7-0.1-1-0.4s-0.4-0.6-0.4-1v-6.1h-9.4v24.4H379.6z M368.7,130.4c0.2,0.2,0.2,0.5,0,0.8l-1,1.1
	c-0.1,0.1-0.3,0.2-0.4,0.2s-0.2-0.1-0.4-0.2l-3.3-3.2c-0.3-0.2-0.3-0.5,0-0.7l3.3-3.2c0.3-0.3,0.5-0.3,0.8,0l1,1.1v0.1
	c0.2,0.2,0.2,0.5,0,0.7l-1.9,1.7L368.7,130.4L368.7,130.4z M372.2,122.5l1.4,0.4c0.4,0.1,0.5,0.3,0.4,0.6l-3.2,11
	c-0.1,0.4-0.3,0.5-0.6,0.4l-1.4-0.4c-0.4-0.1-0.5-0.3-0.4-0.6l3.2-11C371.6,122.6,371.8,122.5,372.2,122.5z M373.6,127
	c-0.2-0.2-0.2-0.5,0-0.8l1-1.1c0.2-0.3,0.5-0.3,0.8,0l3.3,3.2c0.3,0.2,0.3,0.5,0,0.7l-3.3,3.2c-0.3,0.3-0.5,0.3-0.8,0l-1-1.1V131
	c-0.2-0.2-0.2-0.5,0-0.7l1.9-1.7L373.6,127L373.6,127z M374.9,113v4.5h4.5L374.9,113z M381.6,185.6c0.5,0.5,0.8,1.2,0.8,2V207
	c0,0.8-0.3,1.4-0.8,2c-0.5,0.5-1.2,0.8-2,0.8h-16.9c-0.8,0-1.4-0.3-2-0.8c-0.5-0.5-0.8-1.2-0.8-2v-24.4c0-0.8,0.3-1.4,0.8-2
	c0.5-0.5,1.2-0.8,2-0.8h12c0.8,0,1.4,0.3,2,0.8L381.6,185.6L381.6,185.6z M362.7,207h16.9v-16.9h-6.1c-0.4,0-0.7-0.1-1-0.4
	c-0.3-0.3-0.4-0.6-0.4-1v-6.1h-9.4V207z M365.4,191c0.5-0.5,1.2-0.8,2-0.8s1.4,0.3,2,0.8c0.5,0.5,0.8,1.2,0.8,2s-0.3,1.4-0.8,2
	c-0.5,0.5-1.2,0.8-2,0.8s-1.4-0.3-2-0.8c-0.5-0.5-0.8-1.2-0.8-2S364.8,191.5,365.4,191z M364.6,204.2v-3.7l2.3-2.3
	c0.3-0.3,0.6-0.3,0.9,0l2.3,2.3l5.2-5.2c0.3-0.3,0.6-0.3,0.9,0l1.4,1.4v7.5H364.6L364.6,204.2z M379.3,187.4l-4.5-4.5v4.5H379.3z
	 M389,275.6c0.3,0,0.5,0.1,0.7,0.3s0.3,0.4,0.3,0.7v0.9c0,1-0.4,1.9-1.1,2.6s-1.6,1.1-2.6,1.1h-30c-1,0-1.9-0.4-2.6-1.1
	s-1.1-1.6-1.1-2.6v-0.9c0-0.3,0.1-0.5,0.3-0.7s0.4-0.3,0.7-0.3h14c0,0.4,0.2,0.8,0.6,1.3c0.4,0.4,0.8,0.6,1.3,0.6h3.6
	c0.5,0,1-0.2,1.3-0.5c0.4-0.3,0.5-0.8,0.6-1.4H389L389,275.6z M386.1,254v19.7h-30V254c0-0.8,0.3-1.4,0.8-2c0.5-0.5,1.2-0.8,2-0.8
	h24.4c0.8,0,1.4,0.3,2,0.8C385.9,252.6,386.1,253.3,386.1,254L386.1,254z M382.4,270v-15h-22.5v15H382.4z M367.3,266.6l-3.4-3.5
	c-0.5-0.4-0.5-0.9,0-1.3l3.4-3.5c0.4-0.4,0.9-0.4,1.3,0l0.6,0.7c0.4,0.4,0.4,0.9,0,1.3l-2.1,2.1l2.1,2.1c0.4,0.4,0.4,0.9,0,1.3
	l-0.6,0.7C368.2,267,367.8,267,367.3,266.6L367.3,266.6z M373,265.9c-0.4-0.4-0.4-0.9,0-1.3l2.1-2.1l-2.1-2.1
	c-0.4-0.4-0.4-0.9,0-1.3l0.6-0.7c0.5-0.4,0.9-0.4,1.3,0l3.4,3.5c0.5,0.4,0.5,0.9,0,1.3l-3.4,3.5c-0.4,0.4-0.9,0.4-1.3,0L373,265.9z"
	/>
<ellipse class="st20" cx="205" cy="263.1" rx="109.1" ry="3.9"/>
<g id="Python">
	<path id="XMLID_8_" class="st21" d="M237.5,120.7c-19.9,0-36.8,7-50.7,21c-14,13.9-21,30.8-21,50.7s7,36.8,21,50.6
		c5.1,5.2,10.7,9.5,16.7,12.8h-87.1c-1.4-0.1-2.7-0.5-4-1.2c-2.2-1-3.3-3.1-3.3-6.1V71.4c0.2-1.6,0.5-2.9,1-4
		c1.1-2.2,3.2-3.3,6.3-3.3h177.2l1.2,0.3c1,0.2,2,0.4,2.7,0.8c2.3,1,3.4,3.1,3.4,6.3v87.1c-3.3-6-7.5-11.6-12.8-16.8
		C274,127.7,257.2,120.7,237.5,120.7L237.5,120.7z"/>
	<path id="XMLID_2_" class="st22" d="M237.5,120.7c19.6,0,36.5,7,50.6,21c5.2,5.2,9.5,10.8,12.8,16.8V71.4c0-3.1-1.1-5.2-3.4-6.3
		c-0.8-0.3-1.7-0.6-2.7-0.8l-1.2-0.3H116.4c-3,0-5.1,1.1-6.3,3.3c-0.5,1.1-0.9,2.5-1,4v177.2c0,3,1.1,5.1,3.3,6.1
		c1.3,0.7,2.6,1.1,4,1.2h87.1c-6-3.3-11.6-7.6-16.7-12.8c-14-13.8-21-30.7-21-50.6s7-36.8,21-50.7
		C200.7,127.7,217.6,120.7,237.5,120.7z M298.3,56c1.9,0.3,3.4,0.8,4.4,1.4c4.3,2.1,6.5,5.9,6.5,11.3v123.7c0,19.8-7,36.7-21.1,50.6
		c-14.1,14.1-30.9,21.1-50.6,21.1H113.8c-2.1,0-4.3-0.5-6.5-1.6c-4.3-2.3-6.5-6.1-6.5-11.5V68.8c0-2.2,0.6-4.3,1.7-6.5
		c2.1-4.3,5.9-6.5,11.3-6.5h182.4L298.3,56L298.3,56z"/>
	<path class="st23" d="M144.9,127.5h-7.4V88.7h-13.3v-6.3h34v6.3h-13.3V127.5z"/>
	<path id="XMLID_3_" class="st21" d="M240.1,162.9l-27.9,14l27.9,14l27.9-14L240.1,162.9z M240.1,197.7l-41.7-20.9l41.7-20.9
		l41.7,20.9L240.1,197.7L240.1,197.7z M240.1,205l33.4-16.7l8.3,4.2l-41.7,20.9l-41.7-20.9l8.3-4.2L240.1,205z M206.8,204l33.4,16.7
		l33.4-16.7l8.3,4.2L240.1,229l-41.7-20.9L206.8,204L206.8,204z"/>
</g>
<g>
	<circle class="st24" cx="285.5" cy="73.6" r="36.1"/>
	<path class="st10" d="M278.5,85.2c0,0-2,1.2,1.4,1.6c4.2,0.5,6.4,0.4,11-0.5c0,0,1.2,0.7,3,1.4C283.5,92.2,270.2,87.5,278.5,85.2
		 M277.3,79.4c0,0-2.3,1.7,1.2,2c4.5,0.5,8.1,0.5,14.2-0.7c0,0,0.9,0.9,2.2,1.3C282.3,85.8,268.3,82.4,277.3,79.4 M288,69.6
		c2.6,3-0.7,5.6-0.7,5.6s6.5-3.4,3.5-7.6c-2.8-3.9-4.9-5.8,6.6-12.6C297.4,55,279.2,59.5,288,69.6"/>
	<path class="st10" d="M301.7,89.5c0,0,1.4,1.2-1.6,2.2c-6,1.8-25,2.4-30.2,0.1c-1.8-0.9,1.6-2,2.8-2.2c1.2-0.2,1.8-0.2,1.8-0.2
		c-2.1-1.4-13.6,2.9-5.8,4.2C289.7,97,307.2,92,301.7,89.5 M279.4,73.4c0,0-9.7,2.3-3.4,3.1c2.6,0.3,7.9,0.3,12.7-0.1
		c3.9-0.3,8-1.1,8-1.1s-1.4,0.6-2.4,1.3c-9.8,2.6-28.8,1.4-23.3-1.2C275.7,73.1,279.4,73.4,279.4,73.4 M296.8,83.1
		c10-5.2,5.3-10.2,2.2-9.5c-0.8,0.2-1.1,0.3-1.1,0.3s0.3-0.5,0.9-0.7c6.4-2.2,11.2,6.6-2,10.1C296.5,83.3,296.8,83.2,296.8,83.1
		 M290.8,44.1c0,0,5.5,5.5-5.2,14c-8.6,6.8-2,10.6,0,15.2c-5.1-4.5-8.7-8.5-6.2-12.2C282.9,55.6,293,52.9,290.8,44.1"/>
	<path class="st10" d="M280.5,97.1c9.6,0.6,24.3-0.3,24.6-4.9c0,0-0.7,1.7-7.9,3.1c-8.1,1.5-18.2,1.4-24.2,0.4
		C272.9,95.6,274.2,96.7,280.5,97.1"/>
</g>
</svg>
