<?xml version="1.0" encoding="utf-8"?>
<!-- Generator: Adobe Illustrator 25.0.1, SVG Export Plug-In . SVG Version: 6.00 Build 0)  -->
<svg version="1.1" id="Layer_1" xmlns="http://www.w3.org/2000/svg" xmlns:xlink="http://www.w3.org/1999/xlink" x="0px" y="0px"
	 viewBox="0 0 512 512" style="enable-background:new 0 0 512 512;" xml:space="preserve">
<style type="text/css">
	.st0{fill:#3892C9;}
	.st1{fill:#409BC9;}
	.st2{fill:#3FA5D7;}
	.st3{fill:#62BBEA;}
</style>
<g id="Pick_Document_Color">
	<g id="Rounded_Rectangle_1_copy_7_">
		<g>
			<path class="st0" d="M358.5,507h-205c-41.91,0-76-34.09-76-76V81c0-41.91,34.09-76,76-76h205c41.91,0,76,34.09,76,76v350
				C434.5,472.91,400.41,507,358.5,507z M153.5,57c-13.23,0-24,10.77-24,24v350c0,13.23,10.77,24,24,24h205c13.23,0,24-10.77,24-24
				V81c0-13.23-10.77-24-24-24H153.5z"/>
		</g>
	</g>
	<g>
		<g>
			<g>
				<path class="st0" d="M186.97,295.88c-11.29,0-14.11-2.81-15.3-3.99l-0.42-0.42c-1.56-1.56-5.21-5.21-3.59-23.36
					c1.02-11.42,3.16-18.83,6.35-22.02l125.61-125.61c11.54-11.54,30.31-11.54,41.85,0c12.22,12.21,12.22,32.09,0,44.31
					L217.15,289.11c-3.21,3.21-10.64,5.35-22.07,6.37C191.98,295.76,189.29,295.88,186.97,295.88z M182.8,282.18L182.8,282.18
					L182.8,282.18z M182.47,280.68c5.69,0.76,20.51-0.71,24.5-2.6l123.91-123.91c6.37-6.37,6.37-16.73,0-23.09
					c-5.69-5.69-14.94-5.69-20.63,0L185.06,256.26C183.19,260.24,181.72,274.99,182.47,280.68z M180.97,280.35L180.97,280.35z
					 M185.2,255.98L185.2,255.98z"/>
			</g>
			<g>
				<path class="st0" d="M306.59,211.85l-55.26-55.26c-4.91-4.91-4.91-12.88,0-17.79l0,0c4.91-4.91,12.88-4.91,17.79,0l55.26,55.26
					c4.91,4.91,4.91,12.88,0,17.79v0C319.47,216.76,311.5,216.76,306.59,211.85z"/>
			</g>
			<g>
				<path class="st0" d="M168.84,294.17l5.34-29.82c0.02-0.11,5.7-5.7,5.78-5.62l24.47,24.47c0.08,0.08-5.51,5.76-5.62,5.78
					l-29.82,5.34C168.91,294.35,168.83,294.27,168.84,294.17z"/>
				<path class="st0" d="M168.98,299.34c-1.34,0-2.65-0.53-3.62-1.5c-1.19-1.18-1.73-2.88-1.44-4.54l0-0.02l5.34-29.82
					c0.31-1.67,0.6-1.96,4.24-5.52c3.25-3.17,3.66-3.58,4.97-3.99l2.88-0.9l2.15,2.13l26.63,26.63l-0.92,2.9
					c-0.41,1.3-0.89,1.78-3.99,4.95c-3.57,3.65-3.86,3.95-5.54,4.24l-29.79,5.34C169.59,299.31,169.28,299.34,168.98,299.34z
					 M168.14,289.41c-0.01,0-0.02,0-0.02,0L168.14,289.41z M178.84,266.74L175,288.18l21.45-3.84c0.3-0.3,0.65-0.66,1.02-1.03
					l-17.59-17.59C179.5,266.08,179.14,266.43,178.84,266.74z M197.94,284.07c-0.02,0-0.04,0.01-0.06,0.01L197.94,284.07z"/>
			</g>
			<g>
				<polygon class="st0" points="205.75,268.51 194.67,257.43 230.93,221.16 262.33,211.93 				"/>
			</g>
		</g>
		<g>
			<g>
				<rect x="162.18" y="356.01" class="st0" width="47" height="38.59"/>
			</g>
			<g>
				<rect x="209.2" y="356.01" class="st1" width="47" height="38.59"/>
			</g>
			<g>
				<rect x="255.89" y="356.01" class="st2" width="47" height="38.59"/>
			</g>
			<g>
				<rect x="302.82" y="356.01" class="st3" width="47" height="38.59"/>
			</g>
		</g>
	</g>
</g>
<g>
</g>
<g>
</g>
<g>
</g>
<g>
</g>
<g>
</g>
</svg>
