<?xml version="1.0" encoding="utf-8"?>
<!-- Generator: Adobe Illustrator 25.0.1, SVG Export Plug-In . SVG Version: 6.00 Build 0)  -->
<svg version="1.1" id="Add_Audio_1_" xmlns="http://www.w3.org/2000/svg" xmlns:xlink="http://www.w3.org/1999/xlink" x="0px"
	 y="0px" viewBox="0 0 512 512" style="enable-background:new 0 0 512 512;" xml:space="preserve">
<style type="text/css">
	.st0{fill:#3593CB;}
	.st1{fill:#3093CD;}
	.st2{fill:#FFFFFF;}
	.st3{fill:#3193CD;}
</style>
<g id="Add_Audio">
	<g id="Video_Muter_1_">
		<g>
			<path class="st0" d="M459.3,465.9H52.7c-26.8,0-48.6-21.8-48.6-48.6V94.4c0-26.6,21.7-48.3,48.3-48.3h407.2
				c26.6,0,48.3,21.7,48.3,48.3v322.9C507.9,444.1,486.1,465.9,459.3,465.9z M52.4,88.1c-3.5,0-6.3,2.8-6.3,6.3v322.9
				c0,3.6,3,6.6,6.6,6.6h406.6c3.6,0,6.6-3,6.6-6.6V94.4c0-3.5-2.8-6.3-6.3-6.3H52.4z"/>
		</g>
		<g>
			<g>
				<g>
					<rect x="37.5" y="77" class="st1" width="434.8" height="70.9"/>
				</g>
			</g>
			<g>
				<g>
					<g>
						<path class="st2" d="M411.2,122c-1.6,0-3-1.3-3-3V72.7c0-1.6,1.3-3,3-3h46.4c1.6,0,3,1.3,3,3V119c0,1.6-1.3,3-3,3H411.2z"/>
					</g>
				</g>
				<g>
					<g>
						<path class="st2" d="M291.1,122c-1.6,0-3-1.3-3-3V72.7c0-1.6,1.3-3,3-3h46.4c1.6,0,3,1.3,3,3V119c0,1.6-1.3,3-3,3H291.1z"/>
					</g>
				</g>
				<g>
					<g>
						<path class="st2" d="M54.5,122c-1.6,0-3-1.3-3-3V72.7c0-1.6,1.3-3,3-3h46.4c1.6,0,3,1.3,3,3V119c0,1.6-1.3,3-3,3H54.5z"/>
					</g>
				</g>
				<g>
					<g>
						<path class="st2" d="M171.1,122c-1.6,0-3-1.3-3-3V72.7c0-1.6,1.3-3,3-3h46.4c1.6,0,3,1.3,3,3V119c0,1.6-1.3,3-3,3H171.1z"/>
					</g>
				</g>
			</g>
		</g>
		<g>
			<g>
				<g>
					<rect x="37.5" y="363.9" class="st1" width="434.8" height="70.9"/>
				</g>
			</g>
			<g>
				<g>
					<g>
						<path class="st2" d="M411.2,389.8c-1.6,0-3,1.3-3,3v46.4c0,1.6,1.3,3,3,3h46.4c1.6,0,3-1.3,3-3v-46.4c0-1.6-1.3-3-3-3H411.2z"
							/>
					</g>
				</g>
				<g>
					<g>
						<path class="st2" d="M291.1,389.8c-1.6,0-3,1.3-3,3v46.4c0,1.6,1.3,3,3,3h46.4c1.6,0,3-1.3,3-3v-46.4c0-1.6-1.3-3-3-3H291.1z"
							/>
					</g>
				</g>
				<g>
					<g>
						<path class="st2" d="M54.5,389.8c-1.6,0-3,1.3-3,3v46.4c0,1.6,1.3,3,3,3h46.4c1.6,0,3-1.3,3-3v-46.4c0-1.6-1.3-3-3-3H54.5z"/>
					</g>
				</g>
				<g>
					<g>
						<path class="st2" d="M171.1,389.8c-1.6,0-3,1.3-3,3v46.4c0,1.6,1.3,3,3,3h46.4c1.6,0,3-1.3,3-3v-46.4c0-1.6-1.3-3-3-3H171.1z"
							/>
					</g>
				</g>
			</g>
		</g>
	</g>
	<g>
		<g>
			<g>
				<g>
					<path class="st1" d="M434.3,295.7L434.3,295.7c-4.3,0-7.8-3.5-7.8-7.8V233c0-4.3,3.5-7.8,7.8-7.8l0,0c4.3,0,7.8,3.5,7.8,7.8
						v54.9C442.2,292.2,438.6,295.7,434.3,295.7z"/>
				</g>
				<g>
					<path class="st3" d="M434.3,298.2c-5.7,0-10.3-4.6-10.3-10.3V233c0-5.7,4.6-10.3,10.3-10.3s10.3,4.6,10.3,10.3v54.9
						C444.7,293.6,440,298.2,434.3,298.2z M434.3,227.6c-2.9,0-5.3,2.4-5.3,5.3v54.9c0,2.9,2.4,5.3,5.3,5.3c2.9,0,5.3-2.4,5.3-5.3
						V233C439.7,230,437.3,227.6,434.3,227.6z"/>
				</g>
			</g>
			<g>
				<g>
					<path class="st1" d="M361.2,295.5L361.2,295.5c-4.3,0-7.8-3.5-7.8-7.8v-54.9c0-4.3,3.5-7.8,7.8-7.8l0,0c4.3,0,7.8,3.5,7.8,7.8
						v54.9C369.1,292,365.6,295.5,361.2,295.5z"/>
				</g>
				<g>
					<path class="st3" d="M361.2,298c-5.7,0-10.3-4.6-10.3-10.3v-54.9c0-5.7,4.6-10.3,10.3-10.3c5.7,0,10.3,4.6,10.3,10.3v54.9
						C371.6,293.4,366.9,298,361.2,298z M361.2,227.4c-2.9,0-5.3,2.4-5.3,5.3v54.9c0,2.9,2.4,5.3,5.3,5.3c2.9,0,5.3-2.4,5.3-5.3
						v-54.9C366.6,229.8,364.2,227.4,361.2,227.4z"/>
				</g>
			</g>
			<g>
				<g>
					<path class="st1" d="M398.6,317.5L398.6,317.5c-4.3,0-7.8-3.5-7.8-7.8V202.8c0-4.3,3.5-7.8,7.8-7.8l0,0c4.3,0,7.8,3.5,7.8,7.8
						v106.9C406.4,314,402.9,317.5,398.6,317.5z"/>
				</g>
				<g>
					<path class="st3" d="M398.6,320c-5.7,0-10.3-4.6-10.3-10.3V202.8c0-5.7,4.6-10.3,10.3-10.3s10.3,4.6,10.3,10.3v106.9
						C408.9,315.4,404.3,320,398.6,320z M398.6,197.4c-2.9,0-5.3,2.4-5.3,5.3v106.9c0,2.9,2.4,5.3,5.3,5.3c2.9,0,5.3-2.4,5.3-5.3
						V202.8C403.9,199.8,401.5,197.4,398.6,197.4z"/>
				</g>
			</g>
		</g>
		<g>
			<g>
				<path class="st0" d="M256.3,331c-41.4,0-75-33.6-75-75s33.6-75,75-75s75,33.6,75,75S297.7,331,256.3,331z M256.3,193.3
					c-34.6,0-62.7,28.1-62.7,62.7c0,34.6,28.1,62.7,62.7,62.7c34.6,0,62.7-28.1,62.7-62.7C319,221.4,290.9,193.3,256.3,193.3z"/>
			</g>
			<g>
				<g>
					<path class="st0" d="M288.7,266.2h-64.7c-5.7,0-10.2-4.6-10.2-10.2v0c0-5.7,4.6-10.2,10.2-10.2h64.7c5.7,0,10.2,4.6,10.2,10.2
						v0C298.9,261.7,294.3,266.2,288.7,266.2z"/>
				</g>
				<g>
					<path class="st0" d="M246.1,288.4v-64.7c0-5.7,4.6-10.2,10.2-10.2l0,0c5.7,0,10.2,4.6,10.2,10.2v64.7c0,5.7-4.6,10.2-10.2,10.2
						l0,0C250.7,298.6,246.1,294,246.1,288.4z"/>
				</g>
			</g>
		</g>
		<g>
			<g>
				<g>
					<path class="st1" d="M77.7,295.5L77.7,295.5c-4.3,0-7.8-3.5-7.8-7.8v-54.9c0-4.3,3.5-7.8,7.8-7.8h0c4.3,0,7.8,3.5,7.8,7.8v54.9
						C85.5,292,82,295.5,77.7,295.5z"/>
				</g>
				<g>
					<path class="st3" d="M77.7,298c-5.7,0-10.3-4.6-10.3-10.3v-54.9c0-5.7,4.6-10.3,10.3-10.3S88,227.1,88,232.8v54.9
						C88,293.4,83.4,298,77.7,298z M77.7,227.4c-2.9,0-5.3,2.4-5.3,5.3v54.9c0,2.9,2.4,5.3,5.3,5.3c2.9,0,5.3-2.4,5.3-5.3v-54.9
						C83,229.8,80.6,227.4,77.7,227.4z"/>
				</g>
			</g>
			<g>
				<g>
					<path class="st1" d="M114.5,317.3L114.5,317.3c-4.3,0-7.8-3.5-7.8-7.8V202.6c0-4.3,3.5-7.8,7.8-7.8h0c4.3,0,7.8,3.5,7.8,7.8
						v106.9C122.3,313.8,118.8,317.3,114.5,317.3z"/>
				</g>
				<g>
					<path class="st3" d="M114.5,319.8c-5.7,0-10.3-4.6-10.3-10.3V202.6c0-5.7,4.6-10.3,10.3-10.3s10.3,4.6,10.3,10.3v106.9
						C124.8,315.1,120.2,319.8,114.5,319.8z M114.5,197.2c-2.9,0-5.3,2.4-5.3,5.3v106.9c0,2.9,2.4,5.3,5.3,5.3h0
						c2.9,0,5.3-2.4,5.3-5.3V202.6C119.8,199.6,117.4,197.2,114.5,197.2z"/>
				</g>
			</g>
			<g>
				<g>
					<path class="st1" d="M151.5,295.8L151.5,295.8c-4.3,0-7.8-3.5-7.8-7.8v-54.9c0-4.3,3.5-7.8,7.8-7.8h0c4.3,0,7.8,3.5,7.8,7.8
						v54.9C159.3,292.3,155.8,295.8,151.5,295.8z"/>
				</g>
				<g>
					<path class="st3" d="M151.5,298.3c-5.7,0-10.3-4.6-10.3-10.3v-54.9c0-5.7,4.6-10.3,10.3-10.3s10.3,4.6,10.3,10.3v54.9
						C161.8,293.6,157.2,298.3,151.5,298.3z M151.5,227.7c-2.9,0-5.3,2.4-5.3,5.3v54.9c0,2.9,2.4,5.3,5.3,5.3c2.9,0,5.3-2.4,5.3-5.3
						v-54.9C156.8,230.1,154.4,227.7,151.5,227.7z"/>
				</g>
			</g>
		</g>
	</g>
</g>
</svg>
