<?xml version="1.0" encoding="utf-8"?>
<!-- Generator: Adobe Illustrator 25.0.1, SVG Export Plug-In . SVG Version: 6.00 Build 0)  -->
<svg version="1.1" id="Layer_1" xmlns="http://www.w3.org/2000/svg" xmlns:xlink="http://www.w3.org/1999/xlink" x="0px" y="0px"
	 viewBox="0 0 512 512" style="enable-background:new 0 0 512 512;" xml:space="preserve">
<style type="text/css">
	.st0{fill:#3B90C6;}
	.st1{fill:#3C8FC7;}
</style>
<g>
	<g>
		<g>
			<g>
				<path class="st0" d="M159.18,242.33c-49.41,0-89.61-40.21-89.61-89.63c0-49.42,40.2-89.62,89.61-89.62
					c49.41,0,89.62,40.2,89.62,89.62C248.79,202.12,208.59,242.33,159.18,242.33z M159.18,90.42c-34.33,0-62.27,27.94-62.27,62.28
					c0,34.34,27.93,62.28,62.27,62.28c34.34,0,62.28-27.94,62.28-62.28C221.45,118.36,193.51,90.42,159.18,90.42z"/>
			</g>
			<g>
				<path class="st1" d="M171.99,175.47l-3.93-12.91H148.3l-3.93,12.91h-12.38l19.13-54.44h14.05l19.21,54.44H171.99z
					 M165.32,152.92c-3.63-11.69-5.68-18.31-6.14-19.84c-0.46-1.53-0.79-2.74-0.98-3.63c-0.82,3.17-3.15,10.99-7.01,23.48H165.32z"
					/>
			</g>
		</g>
		<g>
			<path class="st0" d="M413.57,90.21c8.35,0,15.19,6.84,15.19,15.19v94.94c0,8.35-6.83,15.19-15.19,15.19h-94.93
				c-8.35,0-15.19-6.84-15.19-15.19V105.4c0-8.35,6.83-15.19,15.19-15.19H413.57 M413.57,62.87h-94.93
				c-23.45,0-42.53,19.08-42.53,42.53v94.94c0,23.45,19.08,42.53,42.53,42.53h94.93c23.45,0,42.53-19.08,42.53-42.53V105.4
				C456.1,81.95,437.02,62.87,413.57,62.87L413.57,62.87z"/>
		</g>
		<g>
			<g>
				<rect x="357.98" y="140.04" class="st1" width="14.27" height="45.57"/>
			</g>
			<g>
				<path class="st1" d="M372.71,127.45c0,4.19-3.4,7.6-7.59,7.6c-4.19,0-7.59-3.4-7.59-7.6c0-4.19,3.4-7.59,7.59-7.59
					C369.31,119.85,372.71,123.25,372.71,127.45z"/>
			</g>
		</g>
		<g>
			<g>
				<path class="st0" d="M159.18,448.92c-49.41,0-89.61-40.21-89.61-89.63c0-49.42,40.2-89.62,89.61-89.62
					c49.41,0,89.62,40.2,89.62,89.62C248.79,408.71,208.59,448.92,159.18,448.92z M159.18,297.01c-34.33,0-62.27,27.94-62.27,62.28
					c0,34.34,27.93,62.28,62.27,62.28c34.34,0,62.28-27.94,62.28-62.28C221.45,324.95,193.51,297.01,159.18,297.01z"/>
			</g>
			<g>
				<path class="st1" d="M141.08,332.39h16.87c7.69,0,13.27,1.09,16.74,3.28c3.47,2.19,5.21,5.67,5.21,10.44
					c0,3.24-0.76,5.9-2.28,7.97c-1.52,2.08-3.54,3.33-6.06,3.75v0.37c3.44,0.77,5.91,2.2,7.43,4.3c1.52,2.1,2.28,4.9,2.28,8.38
					c0,4.95-1.79,8.8-5.36,11.57c-3.57,2.77-8.42,4.15-14.55,4.15h-20.28V332.39z M152.58,353.87h6.67c3.11,0,5.37-0.48,6.77-1.45
					c1.4-0.96,2.09-2.56,2.09-4.78c0-2.08-0.76-3.57-2.28-4.47c-1.52-0.9-3.92-1.35-7.21-1.35h-6.04V353.87z M152.58,362.99v14.13
					h7.49c3.16,0,5.5-0.61,7.01-1.82c1.51-1.21,2.26-3.07,2.26-5.56c0-4.5-3.21-6.75-9.64-6.75H152.58z"/>
			</g>
		</g>
		<g>
			<path class="st0" d="M413.57,296.8c8.35,0,15.19,6.84,15.19,15.19v94.94c0,8.35-6.83,15.19-15.19,15.19h-94.93
				c-8.35,0-15.19-6.84-15.19-15.19v-94.94c0-8.35,6.83-15.19,15.19-15.19H413.57 M413.57,269.45h-94.93
				c-23.45,0-42.53,19.08-42.53,42.53v94.94c0,23.45,19.08,42.53,42.53,42.53h94.93c23.45,0,42.53-19.08,42.53-42.53v-94.94
				C456.1,288.53,437.02,269.45,413.57,269.45L413.57,269.45z"/>
		</g>
		<g>
			<g>
				<g>
					<rect x="343.55" y="346.63" class="st1" width="14.27" height="45.57"/>
				</g>
				<g>
					<path class="st1" d="M358.28,334.04c0,4.19-3.4,7.6-7.59,7.6c-4.2,0-7.6-3.4-7.6-7.6c0-4.19,3.4-7.6,7.6-7.6
						C354.88,326.44,358.28,329.84,358.28,334.04z"/>
				</g>
			</g>
			<g>
				<g>
					<rect x="372.41" y="346.6" class="st1" width="14.27" height="45.57"/>
				</g>
				<g>
					<path class="st1" d="M387.13,334.01c0,4.19-3.4,7.6-7.59,7.6c-4.19,0-7.59-3.4-7.59-7.6c0-4.19,3.4-7.6,7.59-7.6
						C383.73,326.42,387.13,329.82,387.13,334.01z"/>
				</g>
			</g>
		</g>
	</g>
	<g>
		<polygon class="st1" points="2,2 2,32.34 2,73.91 32.34,73.91 32.34,32.34 73.9,32.34 73.9,2 32.34,2 		"/>
		<polygon class="st1" points="479.66,2 438.1,2 438.1,32.34 479.66,32.34 479.66,73.91 510,73.91 510,32.34 510,2 		"/>
		<polygon class="st1" points="2,510 2,479.66 2,438.09 32.34,438.09 32.34,479.66 73.9,479.66 73.9,510 32.34,510 		"/>
		<polygon class="st1" points="479.66,510 438.1,510 438.1,479.66 479.66,479.66 479.66,438.09 510,438.09 510,479.66 510,510 		"/>
	</g>
</g>
<g>
</g>
<g>
</g>
<g>
</g>
<g>
</g>
<g>
</g>
</svg>
