<?xml version="1.0" encoding="utf-8"?>
<!-- Generator: Adobe Illustrator 25.0.1, SVG Export Plug-In . SVG Version: 6.00 Build 0)  -->
<svg version="1.1" id="Layer_1" xmlns="http://www.w3.org/2000/svg" xmlns:xlink="http://www.w3.org/1999/xlink" x="0px" y="0px"
	 viewBox="0 0 512 512" style="enable-background:new 0 0 512 512;" xml:space="preserve">
<style type="text/css">
	.st0{display:none;fill:none;stroke:#3690C8;stroke-width:20;stroke-miterlimit:10;}
	.st1{display:none;fill:none;stroke:#3690C8;stroke-width:10;stroke-miterlimit:10;}
	.st2{fill:#3690C8;}
	.st3{fill:#FFFFFF;}
</style>
<g id="Tax_Calculator">
	<g>
		<line class="st0" x1="41" y1="296" x2="471" y2="296"/>
		<rect x="74.5" y="47.53" class="st1" width="363" height="86"/>
		<path id="XMLID_1_" class="st2" d="M433.1,24.06c15.34,0,27.9,12.55,27.9,27.9v408.09c0,15.34-12.55,27.9-27.9,27.9H78.9
			c-15.34,0-27.9-12.55-27.9-27.9V51.96c0-15.34,12.55-27.9,27.9-27.9H433.1 M433.1,4.06H78.9C52.49,4.06,31,25.54,31,51.96v408.09
			c0,26.41,21.49,47.9,47.9,47.9h354.2c26.41,0,47.9-21.49,47.9-47.9V51.96C481,25.54,459.51,4.06,433.1,4.06L433.1,4.06z"/>
	</g>
	<g>
		<g>
			<g>
				<path class="st2" d="M222.87,366.35H95.59c-3.36,0-6.09-2.73-6.09-6.09v-38.6c0-3.36,2.73-6.09,6.09-6.09h127.28
					c3.36,0,6.09,2.73,6.09,6.09v38.6C228.96,363.62,226.23,366.35,222.87,366.35z"/>
				<path class="st2" d="M416.54,366.35H288.99c-3.29,0-5.95-2.66-5.95-5.95v-38.88c0-3.29,2.66-5.95,5.95-5.95h127.55
					c3.29,0,5.95,2.66,5.95,5.95v38.88C422.49,363.68,419.83,366.35,416.54,366.35z"/>
				<path class="st2" d="M416.31,454.86H289.22c-3.41,0-6.18-2.77-6.18-6.18v-38.42c0-3.41,2.77-6.18,6.18-6.18h127.09
					c3.41,0,6.18,2.77,6.18,6.18v38.42C422.49,452.09,419.73,454.86,416.31,454.86z"/>
				<path class="st2" d="M222.78,454.86H95.69c-3.41,0-6.18-2.77-6.18-6.18v-38.42c0-3.41,2.77-6.18,6.18-6.18h127.09
					c3.41,0,6.18,2.77,6.18,6.18v38.42C228.96,452.09,226.19,454.86,222.78,454.86z"/>
			</g>
			<path class="st2" d="M409.24,273.29H102.76c-7.24,0-13.12-5.87-13.12-13.12V75.71c0-7.24,5.87-13.12,13.12-13.12h306.48
				c7.24,0,13.12,5.87,13.12,13.12v184.46C422.36,267.42,416.49,273.29,409.24,273.29z"/>
		</g>
		<g>
			<path class="st3" d="M238.06,142.17c0,14.62-3.29,25.93-9.87,33.93c-6.58,8.01-15.95,12.01-28.1,12.01
				c-11.43,0-20.48-4.14-27.16-12.41c-6.68-8.27-10.02-19.45-10.02-33.53c0-14.62,3.25-25.86,9.77-33.73
				c6.51-7.87,15.65-11.81,27.41-11.81c11.63,0,20.86,4.09,27.7,12.26C234.64,117.06,238.06,128.16,238.06,142.17z M192.92,142.57
				c0,7.64,0.63,13.15,1.89,16.54c1.26,3.39,3.15,5.08,5.68,5.08c2.52,0,4.4-1.66,5.63-4.98c1.23-3.32,1.84-8.87,1.84-16.64
				c0-7.64-0.62-13.15-1.84-16.54c-1.23-3.39-3.11-5.08-5.63-5.08c-2.59,0-4.5,1.73-5.73,5.18
				C193.53,129.58,192.92,135.06,192.92,142.57z M310.71,98.72l-80.82,145.7h-29.6l80.82-145.7H310.71z M348.88,200.17
				c0,14.55-3.31,25.83-9.92,33.83c-6.61,8.01-15.96,12.01-28.05,12.01c-11.43,0-20.48-4.14-27.16-12.41s-10.02-19.42-10.02-33.44
				c0-14.62,3.25-25.86,9.77-33.73c6.51-7.87,15.65-11.81,27.41-11.81c11.62,0,20.86,4.09,27.71,12.26
				C345.46,175.06,348.88,186.16,348.88,200.17z M303.74,200.57c0,7.64,0.63,13.15,1.89,16.54c1.26,3.39,3.16,5.08,5.68,5.08
				c2.86,0,4.83-1.94,5.93-5.83c1.1-3.89,1.64-9.15,1.64-15.8c0-6.64-0.55-11.91-1.64-15.8c-1.1-3.89-3.07-5.83-5.93-5.83
				c-2.59,0-4.5,1.73-5.73,5.18C304.35,187.58,303.74,193.07,303.74,200.57z"/>
		</g>
	</g>
</g>
<g>
</g>
<g>
</g>
<g>
</g>
<g>
</g>
<g>
</g>
</svg>
