<?xml version="1.0" encoding="utf-8"?>
<!-- Generator: Adobe Illustrator 25.0.1, SVG Export Plug-In . SVG Version: 6.00 Build 0)  -->
<svg version="1.1" id="Layer_1" xmlns="http://www.w3.org/2000/svg" xmlns:xlink="http://www.w3.org/1999/xlink" x="0px" y="0px"
	 viewBox="0 0 512 512" style="enable-background:new 0 0 512 512;" xml:space="preserve">
<style type="text/css">
	.st0{fill-rule:evenodd;clip-rule:evenodd;fill:#3A8FC6;}
	.st1{fill:#3A8FC6;}
</style>
<g id="Searchable_PDF">
	<path class="st0" d="M307.06,263.86h172.97c11.09,0,20.07,8.98,20.07,20.07v0.79c0,11.08-8.98,20.07-20.07,20.07H307.06
		c-11.09,0-20.07-8.99-20.07-20.07v-0.79C286.99,272.84,295.97,263.86,307.06,263.86z"/>
	<path class="st0" d="M344.64,337.76h135.39c11.09,0,20.07,8.98,20.07,20.07v0.79c0,11.08-8.98,20.07-20.07,20.07H344.64
		c-11.09,0-20.07-8.99-20.07-20.07v-0.79C324.57,346.75,333.55,337.76,344.64,337.76z"/>
	<path class="st1" d="M333.82,215.84c0,10.83-8.78,19.62-19.62,19.62h-24.88c-10.84,0-19.62-8.78-19.62-19.62l0,0
		c0-10.83,8.78-19.62,19.62-19.62h24.88C325.04,196.22,333.82,205.01,333.82,215.84L333.82,215.84z"/>
	<path class="st1" d="M331.11,143.64c0,10.38-8.41,18.79-18.79,18.79h-23.83c-10.38,0-18.79-8.41-18.79-18.79l0,0
		c0-10.38,8.41-18.79,18.79-18.79h23.83C322.69,124.85,331.11,133.26,331.11,143.64L331.11,143.64z"/>
	<path class="st1" d="M415.6,216.67c0,10.38-8.41,18.79-18.79,18.79h-23.83c-10.38,0-18.79-8.41-18.79-18.79l0,0
		c0-10.38,8.41-18.79,18.79-18.79h23.83C407.19,197.88,415.6,206.3,415.6,216.67L415.6,216.67z"/>
	<path class="st1" d="M415.6,143.64c0,10.38-8.41,18.79-18.79,18.79h-23.83c-10.38,0-18.79-8.41-18.79-18.79l0,0
		c0-10.38,8.41-18.79,18.79-18.79h23.83C407.19,124.85,415.6,133.26,415.6,143.64L415.6,143.64z"/>
	<path class="st1" d="M500.1,216.67c0,10.38-8.41,18.79-18.79,18.79h-23.83c-10.38,0-18.79-8.41-18.79-18.79l0,0
		c0-10.38,8.41-18.79,18.79-18.79h23.83C491.69,197.88,500.1,206.3,500.1,216.67L500.1,216.67z"/>
	<path class="st1" d="M500.1,143.64c0,10.38-8.41,18.79-18.79,18.79h-23.83c-10.38,0-18.79-8.41-18.79-18.79l0,0
		c0-10.38,8.41-18.79,18.79-18.79h23.83C491.69,124.85,500.1,133.26,500.1,143.64L500.1,143.64z"/>
	<path class="st1" d="M411.22,390.48L294.46,288.76c-0.43-0.43-0.93-0.73-1.38-1.13c15.93-24.17,25.22-53.1,25.22-84.2
		c0-84.6-68.6-153.2-153.21-153.2c-84.61,0-153.2,68.59-153.2,153.2c0,84.62,68.59,153.21,153.2,153.21
		c31.12,0,60.03-9.3,84.2-25.22c0.4,0.44,0.7,0.94,1.13,1.38l101.72,116.75c16.31,16.3,42.75,16.3,59.07,0
		C427.53,433.23,427.53,406.79,411.22,390.48z M165.09,303.52c-55.27,0-100.09-44.81-100.09-100.1
		c0-55.28,44.82-100.09,100.09-100.09c55.28,0,100.1,44.82,100.1,100.09C265.19,258.71,220.38,303.52,165.09,303.52z"/>
	<g>
		<path class="st1" d="M136.57,195.23c0,6.38-1.88,11.31-5.64,14.79c-3.76,3.48-9.11,5.21-16.04,5.21h-4.34v18.95H95.13v-57.11
			h19.77c7.21,0,12.63,1.58,16.25,4.73C134.76,184.95,136.57,189.43,136.57,195.23z M110.56,202.66h2.81c2.32,0,4.16-0.65,5.53-1.95
			c1.37-1.3,2.05-3.1,2.05-5.39c0-3.85-2.14-5.78-6.41-5.78h-3.98V202.66z"/>
		<path class="st1" d="M194.15,204.41c0,9.53-2.62,16.88-7.87,22.03c-5.25,5.16-12.62,7.73-22.13,7.73h-18.48v-57.11h19.77
			c9.17,0,16.24,2.34,21.23,7.03C191.66,188.79,194.15,195.56,194.15,204.41z M178.14,204.96c0-5.23-1.04-9.11-3.11-11.64
			c-2.07-2.53-5.21-3.79-9.43-3.79h-4.49v31.99h3.44c4.69,0,8.12-1.36,10.31-4.08C177.04,214.72,178.14,210.56,178.14,204.96z"/>
		<path class="st1" d="M219.58,234.18h-15.2v-57.11h33.75v12.38h-18.55v10.9h17.11v12.38h-17.11V234.18z"/>
	</g>
</g>
<g>
</g>
<g>
</g>
<g>
</g>
<g>
</g>
<g>
</g>
</svg>
