<?xml version="1.0" encoding="utf-8"?>
<!-- Generator: Adobe Illustrator 25.0.1, SVG Export Plug-In . SVG Version: 6.00 Build 0)  -->
<svg version="1.1" id="Layer_1" xmlns="http://www.w3.org/2000/svg" xmlns:xlink="http://www.w3.org/1999/xlink" x="0px" y="0px"
	 viewBox="0 0 512 512" style="enable-background:new 0 0 512 512;" xml:space="preserve">
<style type="text/css">
	.st0{fill:#3A8FC6;}
	.st1{fill:#FFFFFF;}
</style>
<g id="Zip">
	<path class="st0" d="M467.52,110.18H179.39V89.1c0-19.41-15.73-35.14-35.14-35.14H44.48c-19.41,0-35.14,15.73-35.14,35.14v56.22
		v249.47v28.11c0,19.41,15.73,35.14,35.14,35.14h423.04c19.41,0,35.14-15.73,35.14-35.14V145.32
		C502.66,125.92,486.93,110.18,467.52,110.18z"/>
	<g>
		<path class="st1" d="M331.89,291.69v130.88h97.45V291.69H331.89z M395.2,404.28h-33.11V370.6h33.11V404.28z"/>
		<rect x="365.01" y="261.41" class="st1" width="64.33" height="30.27"/>
		<rect x="332.84" y="231.14" class="st1" width="64.33" height="30.28"/>
		<rect x="365.01" y="200.86" class="st1" width="64.33" height="30.28"/>
		<rect x="332.68" y="170.59" class="st1" width="64.33" height="30.28"/>
		<rect x="365.01" y="140.47" class="st1" width="64.33" height="30.28"/>
		<rect x="332.84" y="110.19" class="st1" width="64.33" height="30.28"/>
	</g>
</g>
<g>
</g>
<g>
</g>
<g>
</g>
<g>
</g>
<g>
</g>
</svg>
