<?xml version="1.0" encoding="utf-8"?>
<!-- Generator: Adobe Illustrator 25.0.1, SVG Export Plug-In . SVG Version: 6.00 Build 0)  -->
<svg version="1.1" id="Layer_1" xmlns="http://www.w3.org/2000/svg" xmlns:xlink="http://www.w3.org/1999/xlink" x="0px" y="0px"
	 viewBox="0 0 512 512" style="enable-background:new 0 0 512 512;" xml:space="preserve">
<style type="text/css">
	.st0{fill:#3592C7;}
</style>
<g id="TEX">
	<g id="Base_6_">
		<g>
			<g>
				<path class="st0" d="M442.27,436.01c0,0-5.41-0.15-5.42-0.02c-1.33,15.16-12.77,22.04-24.2,21.95c-52.78-0.44-209.56,0-209.56,0
					c-13.81,0-25.21-10.63-25.21-24.44v-49.84c-21.16-5.46-38.84-17.32-52-33.68v83.53c0,42.46,34.54,77,77,77h210
					c42.46,0,73.99-31.47,77.3-74.47l-15.45-0.13L442.27,436.01z"/>
			</g>
			<g>
				<g>
					<path class="st0" d="M309.26,145.97c-24.5,0-48.99,0.09-73.49-0.04c-12.81-0.07-23.2-9.17-25.49-21.85
						c-2.11-11.72,4.96-23.89,16.49-28.35c3.14-1.21,6.38-1.77,9.76-1.77c48.66,0.02,97.32-0.03,145.98,0.04
						c14.99,0.02,26.53,11.53,26.5,26.11c-0.03,14.5-11.66,25.81-26.76,25.85C357.92,146.02,333.59,145.97,309.26,145.97z"/>
				</g>
			</g>
			<g>
				<path class="st0" d="M412.89,1.5h-210c-42.46,0-77,34.54-77,77v108.18c12.87-16.28,30.32-28,52-32.7V78.5
					c0-13.81,11.19-25,25-25h210c13.81,0,25,11.19,25,25v95.26l51.72-26.66l0.28-33.33V78.5C489.89,36.04,455.34,1.5,412.89,1.5z"/>
			</g>
		</g>
		<g>
			<g>
				<g>
					<path class="st0" d="M117.6,50.98c-4.08,14.67-4.94,29.63-3.62,44.51c-3.39,0.43-5.1,0.48-7.56,0.5
						c-11.17,0.06-22.33,0.01-33.5,0.03c-16.19,0.04-26.5,10.3-26.53,26.59c-0.06,37.83-0.02,75.66-0.02,113.49
						c0,50.5,0.33,101-0.19,151.49c-0.17,16.99,11.41,29.28,28.51,28.51c11.48-0.51,22.99-0.12,34.49-0.08
						c1.62,0.01,2.56,0,5.26,0.15c-1.9,14.65-1.11,29.82,2.25,44.83c-12.47,0-24.44-0.01-36.42,0c-8.16,0.01-16.28,0.02-24.34-1.82
						c-31.52-7.18-54.41-34.89-54.48-67.25C1.28,301.3,1.25,210.63,1.48,119.97c0.1-38.05,31.28-68.7,69.3-68.94
						c14.17-0.09,28.33-0.02,42.5-0.01C114.59,51.02,115.83,50.96,117.6,50.98z"/>
				</g>
			</g>
			<g>
				<path class="st0" d="M113.2,207.14c0-0.34,0-0.68,0-1.02c-0.66,0-1.17,0-1.63,0c-8.47-0.02-16.95-0.16-25.42,0.01
					c-10.64,0.21-18.97,8.28-19.66,18.75c-0.8,12.06,6.11,21.94,17.26,22.89c5.79,0.49,11.63,0.46,17.51,0.35
					C103.25,233.4,107.26,219.53,113.2,207.14z"/>
			</g>
			<g>
				<path class="st0" d="M100.56,285.01c-4.87-0.02-9.69-0.02-14.5,0.08c-10.62,0.22-18.93,8.34-19.59,18.82
					c-0.76,12.08,6.17,21.9,17.33,22.83c9.18,0.76,18.47,0.23,27.9,0.18C105.87,314.28,102.07,300.14,100.56,285.01z"/>
			</g>
			<g>
				<g>
					<path class="st0" d="M113.18,168.9c-9.96,0-19.77,0.65-29.45-0.17c-11.15-0.95-18.06-10.82-17.26-22.89
						c0.69-10.47,9.02-18.54,19.66-18.75c8.47-0.17,16.95-0.03,25.42-0.01c0.46,0,0.97,0,1.63,0
						C113.18,140.82,113.18,154.87,113.18,168.9z"/>
				</g>
			</g>
		</g>
	</g>
	<g>
		<path class="st0" d="M292.61,294.14c-3.79,12.2-10.25,23.21-18.7,32.33c-1.3,1.44-3.38,1.74-5.06,0.79l-14.56-8.41
			c-6.15,5.23-13.19,9.3-20.78,12v16.82c0,1.91-1.33,3.59-3.21,4c-11.93,2.67-24.78,2.8-37.32,0c-1.88-0.41-3.21-2.08-3.21-4v-16.82
			c-7.62-2.67-14.66-6.73-20.78-12l-14.56,8.41c-1.64,0.96-3.76,0.62-5.06-0.79c-8.44-9.16-14.9-20.17-18.7-32.33
			c-0.55-1.85,0.21-3.83,1.88-4.79l14.56-8.41c-1.47-7.93-1.47-16.06,0-23.99l-14.56-8.41c-1.67-0.96-2.46-2.94-1.88-4.79
			c3.79-12.2,10.25-23.21,18.7-32.33c1.3-1.44,3.38-1.74,5.06-0.79l14.53,8.41c6.15-5.23,13.19-9.3,20.78-12v-16.82
			c0-1.91,1.33-3.59,3.21-4c11.93-2.67,24.78-2.8,37.32,0c1.88,0.41,3.21,2.08,3.21,4v16.78c7.62,2.67,14.66,6.73,20.78,12
			l14.56-8.41c1.64-0.96,3.76-0.62,5.06,0.79c8.44,9.16,14.9,20.17,18.7,32.33c0.55,1.85-0.21,3.83-1.88,4.79l-14.56,8.41
			c1.47,7.93,1.47,16.06,0,23.99l14.56,8.41C292.37,290.28,293.12,292.26,292.61,294.14z M238.95,268.92
			c0-15.07-12.27-27.34-27.34-27.34s-27.34,12.27-27.34,27.34s12.27,27.34,27.34,27.34S238.95,283.99,238.95,268.92z"/>
	</g>
	<g>
		<path class="st0" d="M458.53,412.6h-57.86V245.75h-52.29v-47.31h162.3v47.31h-52.15V412.6z"/>
	</g>
</g>
<g>
</g>
<g>
</g>
<g>
</g>
<g>
</g>
<g>
</g>
</svg>
