<?xml version="1.0" encoding="utf-8"?>
<!-- Generator: Adobe Illustrator 25.0.1, SVG Export Plug-In . SVG Version: 6.00 Build 0)  -->
<svg version="1.1" id="Layer_1" xmlns="http://www.w3.org/2000/svg" xmlns:xlink="http://www.w3.org/1999/xlink" x="0px" y="0px"
	 viewBox="0 0 512 512" style="enable-background:new 0 0 512 512;" xml:space="preserve">
<style type="text/css">
	.st0{fill:#3593CB;}
</style>
<g id="Table_Recog">
	<g>
		<g id="Table_Recog_1_">
			<g>
				<g>
					<path class="st0" d="M453.43,510.43H58.57c-31.43,0-57-25.57-57-57V58.57c0-31.43,25.57-57,57-57h394.86
						c31.43,0,57,25.57,57,57v394.86C510.43,484.86,484.86,510.43,453.43,510.43z M58.57,43.57c-8.27,0-15,6.73-15,15v394.86
						c0,8.27,6.73,15,15,15h394.86c8.27,0,15-6.73,15-15V58.57c0-8.27-6.73-15-15-15H58.57z"/>
				</g>
				<g>
					<rect x="37.45" y="34.24" class="st0" width="437.31" height="58.36"/>
				</g>
				<g>
					<rect x="31.73" y="248" class="st0" width="437.31" height="36"/>
				</g>
			</g>
		</g>
		<g>
			
				<rect x="-36.93" y="238" transform="matrix(-1.836970e-16 1 -1 -1.836970e-16 437.7263 74.2737)" class="st0" width="437.31" height="36"/>
		</g>
	</g>
	<g>
		<g>
			<g>
				<path class="st0" d="M353.72,189.03H248.02c-9.94,0-18-8.06-18-18v0c0-9.94,8.06-18,18-18h105.69c9.94,0,18,8.06,18,18v0
					C371.72,180.97,363.66,189.03,353.72,189.03z"/>
			</g>
			<g>
				<path class="st0" d="M417.38,189.03h-4.15c-9.94,0-18-8.06-18-18v0c0-9.94,8.06-18,18-18h4.15c9.94,0,18,8.06,18,18v0
					C435.38,180.97,427.32,189.03,417.38,189.03z"/>
			</g>
		</g>
		<g>
			<g>
				<path class="st0" d="M311.68,431.61h105.69c9.94,0,18-8.06,18-18v0c0-9.94-8.06-18-18-18H311.68c-9.94,0-18,8.06-18,18v0
					C293.68,423.55,301.74,431.61,311.68,431.61z"/>
			</g>
			<g>
				<path class="st0" d="M248.02,431.61h4.15c9.94,0,18-8.06,18-18v0c0-9.94-8.06-18-18-18h-4.15c-9.94,0-18,8.06-18,18v0
					C230.02,423.55,238.08,431.61,248.02,431.61z"/>
			</g>
			<g>
				<path class="st0" d="M248.02,359.01h169.36c9.94,0,18-8.06,18-18v0c0-9.94-8.06-18-18-18H248.02c-9.94,0-18,8.06-18,18v0
					C230.02,350.95,238.08,359.01,248.02,359.01z"/>
			</g>
		</g>
	</g>
</g>
<g>
</g>
<g>
</g>
<g>
</g>
<g>
</g>
<g>
</g>
</svg>
