<?xml version="1.0" encoding="utf-8"?>
<!-- Generator: Adobe Illustrator 25.0.1, SVG Export Plug-In . SVG Version: 6.00 Build 0)  -->
<svg version="1.1" id="Layer_1" xmlns="http://www.w3.org/2000/svg" xmlns:xlink="http://www.w3.org/1999/xlink" x="0px" y="0px"
	 viewBox="0 0 512 512" style="enable-background:new 0 0 512 512;" xml:space="preserve">
<style type="text/css">
	.st0{fill:#3592C7;}
</style>
<g id="HTML">
	<g id="Base_3_">
		<g>
			<g>
				<path class="st0" d="M438.93,402.96v30.54c0,13.81-11.19,25-25,25h-210c-13.81,0-25-11.19-25-25v-355c0-13.81,11.19-25,25-25
					h210c13.81,0,25,11.19,25,25v51.26l51.72-34.66l0.28-0.33V78.5c0-42.46-34.54-77-77-77h-210c-42.46,0-77,34.54-77,77v355
					c0,42.46,34.54,77,77,77h210c42.46,0,77-34.54,77-77v-63.29L438.93,402.96z"/>
			</g>
			<g>
				<path class="st0" d="M309.73,146.05c-24.5,0-48.99,0.09-73.49-0.04c-12.81-0.07-23.2-9.17-25.49-21.85
					c-2.11-11.72,4.96-23.89,16.49-28.35c3.14-1.21,6.38-1.77,9.76-1.77c48.66,0.02,97.32-0.03,145.98,0.04
					c14.99,0.02,26.53,11.53,26.5,26.11c-0.03,14.5-11.66,25.81-26.76,25.85C358.39,146.09,334.06,146.05,309.73,146.05z"/>
			</g>
		</g>
		<g>
			<g>
				<path class="st0" d="M118.64,50.98c-4.08,14.67-4.94,29.63-3.62,44.51c-3.39,0.43-5.1,0.48-7.56,0.5
					C96.3,96.05,85.13,96,73.96,96.02c-16.19,0.04-26.5,10.3-26.53,26.59c-0.06,37.83-0.02,75.66-0.02,113.49
					c0,50.5,0.33,101-0.19,151.49c-0.17,16.99,11.41,29.28,28.51,28.51c11.48-0.51,22.99-0.12,34.49-0.08
					c1.62,0.01,2.56,0,5.26,0.15c-1.9,14.65-1.11,29.82,2.25,44.83c-12.47,0-24.44-0.01-36.42,0c-8.16,0.01-16.28,0.02-24.34-1.82
					c-31.52-7.18-54.41-34.89-54.48-67.25C2.32,301.3,2.29,210.63,2.52,119.97c0.1-38.05,31.28-68.7,69.3-68.94
					c14.17-0.09,28.33-0.02,42.5-0.01C115.63,51.02,116.87,50.96,118.64,50.98z"/>
			</g>
			<g>
				<path class="st0" d="M114.24,247.94c-9.96,0-19.77,0.65-29.45-0.17c-11.15-0.95-18.06-10.82-17.26-22.89
					c0.69-10.47,9.02-18.54,19.66-18.75c8.47-0.17,16.95-0.03,25.42-0.01c0.46,0,0.97,0,1.63,0
					C114.24,219.86,114.24,233.91,114.24,247.94z"/>
			</g>
			<g>
				<path class="st0" d="M114.22,168.9c-9.96,0-19.77,0.65-29.45-0.17c-11.15-0.95-18.06-10.82-17.26-22.89
					c0.69-10.47,9.02-18.54,19.66-18.75c8.47-0.17,16.95-0.03,25.42-0.01c0.46,0,0.97,0,1.63,0
					C114.22,140.82,114.22,154.87,114.22,168.9z"/>
			</g>
			<g>
				<path class="st0" d="M114.27,285.06c0,14.31,0,27.88,0,41.85c-9.95,0-19.75,0.64-29.43-0.17
					c-11.16-0.93-18.09-10.75-17.33-22.83c0.66-10.47,8.97-18.6,19.59-18.82C96.03,284.91,104.97,285.06,114.27,285.06z"/>
			</g>
		</g>
	</g>
	<g id="HTML_Icon">
		<g id="Rectangle_10_1_">
			
				<rect x="203.26" y="237.54" transform="matrix(0.7069 -0.7073 0.7073 0.7069 -102.0391 256.357)" class="st0" width="110.11" height="27.53"/>
		</g>
		<g id="Rectangle_10_copy_1_">
			
				<rect x="244.55" y="254.92" transform="matrix(0.7069 -0.7073 0.7073 0.7069 -143.5343 273.5517)" class="st0" width="27.53" height="110.11"/>
		</g>
		<g id="Rectangle_10_copy_2">
			
				<rect x="447.23" y="196.25" transform="matrix(0.7069 -0.7073 0.7073 0.7069 -42.6339 399.7126)" class="st0" width="27.53" height="110.11"/>
		</g>
		<g id="Rectangle_10_copy_2_1_">
			<polygon class="st0" points="490.18,262.3 412.35,340.18 431.81,359.65 509.64,280.5 			"/>
		</g>
		
			<rect x="347.17" y="179.91" transform="matrix(0.9686 0.2485 -0.2485 0.9686 80.8443 -80.6001)" class="st0" width="25" height="200"/>
	</g>
</g>
<g>
</g>
<g>
</g>
<g>
</g>
<g>
</g>
<g>
</g>
</svg>
