<?xml version="1.0" encoding="utf-8"?>
<!-- Generator: Adobe Illustrator 25.0.1, SVG Export Plug-In . SVG Version: 6.00 Build 0)  -->
<svg version="1.1" id="Layer_1" xmlns="http://www.w3.org/2000/svg" xmlns:xlink="http://www.w3.org/1999/xlink" x="0px" y="0px"
	 viewBox="0 0 512 512" style="enable-background:new 0 0 512 512;" xml:space="preserve">
<style type="text/css">
	.st0{fill:#3593C9;}
	.st1{fill:#3691C9;}
</style>
<g>
	<g>
		<path class="st0" d="M387.26,160.33c-16.9,0-33.17,0-49.52,0c-0.86-1.89-0.45-3.74-0.46-5.51c-0.03-24.83-0.29-49.67,0.08-74.5
			c0.23-15.34-11.46-26.97-27-26.91c-67,0.26-133.99,0.28-200.99-0.01c-15.66-0.07-27.31,11.59-27.23,27.23
			c0.31,60.83,0.12,121.66,0.12,182.49c0,1.83,0,3.66,0,6.42c-14.93-11.89-31.7-17.4-50.04-12.63c0-2.08,0.06-3.75,0.06-5.39
			c-0.02-57.5-0.05-115,0-172.49C32.3,47.12,51.09,19.87,80.89,8.36c7.82-3.02,15.94-4.78,24.33-4.78
			c69.66-0.04,139.33-0.22,208.99,0.04c35.91,0.14,67.25,28.33,72.2,63.88c0.58,4.15,0.85,8.27,0.85,12.43c0,25,0,50,0,75
			C387.26,156.57,387.26,158.22,387.26,160.33z"/>
		<path class="st0" d="M131.96,458.52c2.08,0,3.91,0,5.73,0c57.81,0,115.62,0.01,173.43-0.01c13.15-0.01,22.68-7.57,25.65-20.08
			c0.55-2.31,0.49-4.63,0.49-6.95c0.01-21.66,0.01-43.32,0.01-64.97c0-1.8,0-3.61,0-5.69c16.74,0,33.12,0,49.47,0
			c0.86,1.36,0.51,2.72,0.51,4c0.03,22.99,0.08,45.98,0,68.97c-0.11,32.37-20.91,60.93-51.64,70.99c-7.31,2.39-14.8,3.75-22.52,3.75
			c-68.97-0.01-137.94,0-206.92-0.01c-6.3,0-12.48-0.83-19.12-3.03C104.92,492.25,119.75,476.92,131.96,458.52z"/>
		<path class="st1" d="M85.09,389.94c-17.15-17.13-33.39-33.39-49.68-49.59c-4.76-4.73-8-10.1-8.45-16.99
			c-0.69-10.43,3.27-18.56,12.15-23.93c8.72-5.27,17.7-5.03,26.47,0.17c2.29,1.36,4.24,3.19,6.13,5.09
			c21.41,21.45,42.86,42.86,64.27,64.31c12.35,12.37,12.3,28.69-0.11,41.11c-21.66,21.67-43.3,43.36-65.01,64.98
			c-8.92,8.88-20.92,10.71-31.09,4.96c-14.69-8.32-17.55-27.77-5.57-40.04c15.36-15.72,31.02-31.15,46.58-46.68
			C81.96,392.16,83.38,391.27,85.09,389.94z"/>
		<path class="st0" d="M209.24,149.52c-21.98,0-43.96,0.08-65.93-0.03c-14.78-0.07-26.25-11.89-26.04-26.49
			c0.2-13.62,11.45-25.12,25.09-25.44c7.16-0.17,14.32-0.03,21.48-0.03c37.3,0,74.59-0.03,111.89,0.02
			c14.72,0.02,26.38,11.32,26.54,25.51c0.16,14.64-11.29,26.37-26.09,26.44C253.86,149.6,231.55,149.52,209.24,149.52z"/>
	</g>
	<g>
		<path class="st0" d="M234.6,313.58h-32.36l-20.18-32.36l-19.97,32.36h-31.65l34.34-52.96l-32.29-50.55h31.01l18.69,32l17.98-32
			h31.93l-32.78,52.75L234.6,313.58z"/>
		<path class="st0" d="M246.21,210.06h36.11c14.06,0,24.51,2.09,31.33,6.27c6.82,4.18,10.23,10.68,10.23,19.51
			c0,5.81-1.49,10.76-4.46,14.87s-6.89,6.75-11.75,7.93v0.71c6.42,1.7,11.07,4.53,13.95,8.5s4.32,9.11,4.32,15.43
			c0,9.39-3.53,16.79-10.58,22.2c-7.06,5.41-16.67,8.11-28.85,8.11h-40.29V210.06z M274.17,249.78h8.43c4.01,0,7.12-0.83,9.31-2.48
			c2.19-1.65,3.29-4.11,3.29-7.36c0-5.81-4.39-8.71-13.17-8.71h-7.86V249.78z M274.17,270.25v21.74h9.84
			c8.73,0,13.1-3.68,13.1-11.04c0-3.45-1.17-6.09-3.5-7.93c-2.34-1.84-5.72-2.76-10.16-2.76H274.17z"/>
		<path class="st0" d="M371.88,275.91v37.67h-27.97V210.06h33.91c28.13,0,42.2,10.2,42.2,30.59c0,11.99-5.85,21.27-17.56,27.82
			l30.16,45.1h-31.72l-21.95-37.67H371.88z M371.88,254.88h5.24c9.77,0,14.66-4.32,14.66-12.96c0-7.13-4.79-10.69-14.37-10.69h-5.52
			V254.88z"/>
		<path class="st0" d="M442.04,313.58V210.06h27.97v80.93h39.86v22.59H442.04z"/>
	</g>
</g>
<g>
</g>
<g>
</g>
<g>
</g>
<g>
</g>
<g>
</g>
</svg>
