<?xml version="1.0" encoding="utf-8"?>
<!-- Generator: Adobe Illustrator 25.0.1, SVG Export Plug-In . SVG Version: 6.00 Build 0)  -->
<svg version="1.1" id="Layer_1" xmlns="http://www.w3.org/2000/svg" xmlns:xlink="http://www.w3.org/1999/xlink" x="0px" y="0px"
	 viewBox="0 0 512 512" style="enable-background:new 0 0 512 512;" xml:space="preserve">
<style type="text/css">
	.st0{fill-rule:evenodd;clip-rule:evenodd;fill:#3A8FC6;}
</style>
<g id="Redaction">
	<path class="st0" d="M37.05,165.29h184.46c16.65,0,30.13-13.5,30.13-30.13v-1.18c0-16.65-13.48-30.13-30.13-30.13H37.05
		c-16.65,0-30.13,13.49-30.13,30.13v1.18C6.92,151.79,20.4,165.29,37.05,165.29z M248.96,212.1H36.94
		c-16.51,0-29.88,13.77-29.88,30.74c0,16.97,13.38,30.73,29.88,30.73h153.67L248.96,212.1z M489.53,90.42
		c-20.74-21.23-54.37-21.23-75.11,0L175.29,345.09l28.75,29.43l129.79-132.86c-4.47-6.05-7.13-13.57-7.13-21.73
		c0-19.95,15.86-36.13,35.43-36.13c7.95,0,15.29,2.67,21.21,7.18l67.75-69.36l9.1,9.32l-68.09,69.71
		c3.46,5.58,5.47,12.19,5.47,19.28c0,19.95-15.86,36.13-35.44,36.13c-6.91,0-13.34-2.02-18.79-5.5l-130.2,133.29l37.26,38.14
		l239.13-254.67C510.27,146.08,510.27,111.65,489.53,90.42z M203,394.23l-9.11-9.32l3.87-3.96l-22-22.53l-80.47,79.08h115.88
		l22.53-19.77l-26.83-27.47L203,394.23z M362.48,243.14c12.44,0,22.52-10.32,22.52-23.04s-10.08-23.04-22.52-23.04
		c-12.43,0-22.52,10.32-22.52,23.04S350.05,243.14,362.48,243.14z"/>
</g>
<g>
</g>
<g>
</g>
<g>
</g>
<g>
</g>
<g>
</g>
</svg>
