<?xml version="1.0" encoding="utf-8"?>
<!-- Generator: Adobe Illustrator 25.0.1, SVG Export Plug-In . SVG Version: 6.00 Build 0)  -->
<svg version="1.1" id="Layer_1" xmlns="http://www.w3.org/2000/svg" xmlns:xlink="http://www.w3.org/1999/xlink" x="0px" y="0px"
	 viewBox="0 0 512 512" style="enable-background:new 0 0 512 512;" xml:space="preserve">
<style type="text/css">
	.st0{fill:#3291C7;}
	.st1{fill:#3391C6;}
</style>
<g>
	<g>
		<path class="st0" d="M145.81,301.58h42.33c16.49,0,28.73,2.45,36.73,7.35c8,4.9,11.99,12.52,11.99,22.87
			c0,6.81-1.74,12.62-5.23,17.43s-8.08,7.91-13.78,9.3v0.83c7.53,1.99,12.98,5.31,16.35,9.96c3.38,4.65,5.06,10.68,5.06,18.1
			c0,11.01-4.14,19.69-12.41,26.02c-8.27,6.34-19.55,9.5-33.83,9.5h-47.23V301.58z M178.6,348.15h9.88c4.7,0,8.34-0.97,10.92-2.91
			c2.57-1.94,3.86-4.81,3.86-8.63c0-6.81-5.15-10.21-15.44-10.21h-9.21V348.15z M178.6,372.14v25.48h11.54
			c10.24,0,15.36-4.32,15.36-12.95c0-4.04-1.37-7.14-4.11-9.3s-6.71-3.24-11.91-3.24H178.6z"/>
		<path class="st0" d="M312.38,422.94l-24.82-87.41h-0.75c1.16,14.89,1.74,26.45,1.74,34.7v52.71h-29.05V301.58h43.66l25.32,86.16
			h0.66l24.82-86.16h43.75v121.36h-30.13v-53.21c0-2.77,0.04-5.84,0.12-9.21c0.08-3.38,0.46-11.65,1.12-24.82h-0.75l-24.49,87.24
			H312.38z"/>
		<path class="st0" d="M511.08,340.18c0,13.56-4,24.03-12,31.42c-8,7.39-19.35,11.08-34.07,11.08h-9.21v40.26h-32.79V301.58h42
			c15.33,0,26.84,3.35,34.53,10.04C507.24,318.32,511.08,327.84,511.08,340.18z M455.8,355.95h5.98c4.92,0,8.84-1.38,11.75-4.15
			c2.91-2.77,4.36-6.58,4.36-11.46c0-8.19-4.54-12.29-13.61-12.29h-8.47V355.95z"/>
	</g>
	<g id="BG_Shapes">
		<g id="Rounded_Rectangle_6">
			<path class="st0" d="M251.61,146h-25.39c-9.94,0-18,8.06-18,18v1.57c0,9.94,8.06,18,18,18h25.39c9.94,0,18-8.06,18-18V164
				C269.61,154.06,261.55,146,251.61,146z"/>
		</g>
		<g id="Rounded_Rectangle_6_copy">
			<path class="st0" d="M335.61,146h-25.39c-9.94,0-18,8.06-18,18v1.57c0,9.94,8.06,18,18,18h25.39c9.94,0,18-8.06,18-18V164
				C353.61,154.06,345.55,146,335.61,146z"/>
		</g>
		<g id="Rounded_Rectangle_6_copy_2">
			<path class="st0" d="M420.61,146h-25.39c-9.94,0-18,8.06-18,18v1.57c0,9.94,8.06,18,18,18h25.39c9.94,0,18-8.06,18-18V164
				C438.61,154.06,430.55,146,420.61,146z"/>
		</g>
		<g id="Rounded_Rectangle_6_copy_3">
			<path class="st0" d="M251.61,218h-25.39c-9.94,0-18,8.06-18,18v1.57c0,9.94,8.06,18,18,18h25.39c9.94,0,18-8.06,18-18V236
				C269.61,226.06,261.55,218,251.61,218z"/>
		</g>
		<g id="Rounded_Rectangle_6_copy_3_1_">
			<path class="st0" d="M335.61,219h-25.39c-9.94,0-18,8.06-18,18v1.57c0,9.94,8.06,18,18,18h25.39c9.94,0,18-8.06,18-18V237
				C353.61,227.06,345.55,219,335.61,219z"/>
		</g>
		<g id="Rounded_Rectangle_6_copy_3_2_">
			<path class="st0" d="M420.61,219h-25.39c-9.94,0-18,8.06-18,18v1.57c0,9.94,8.06,18,18,18h25.39c9.94,0,18-8.06,18-18V237
				C438.61,227.06,430.55,219,420.61,219z"/>
		</g>
		<g>
			<g>
				<path class="st1" d="M111.22,98.23V78.5c0-13.81,11.19-25,25-25h210c13.81,0,25,11.19,25,25V112h52V78.5c0-42.46-34.54-77-77-77
					h-210c-42.46,0-77,34.54-77,77v23.9C70.25,98.9,82.03,97,94.26,97C100.02,97,105.69,97.42,111.22,98.23z"/>
				<path class="st1" d="M369.25,443.23c-3.79,8.97-12.68,15.27-23.04,15.27h-210c-13.81,0-25-11.19-25-25V315.77
					c-5.53,0.81-11.19,1.23-16.96,1.23c-12.23,0-24.01-1.9-35.04-5.4v121.9c0,42.46,34.54,77,77,77h210
					c39.16,0,71.56-29.39,76.36-67.27H369.25z"/>
			</g>
			<path class="st0" d="M96.22,111.7c-52.63,0-95.3,42.67-95.3,95.3s42.67,95.3,95.3,95.3s95.3-42.67,95.3-95.3
				S148.85,111.7,96.22,111.7z M135.1,220.34l-44.52,44.52c-6.53,6.53-17.12,6.53-23.65,0c-6.53-6.53-6.53-17.12,0-23.65
				l33.32-33.32l-33.32-33.32c-6.53-6.53-6.53-17.12,0-23.65c6.53-6.53,17.12-6.53,23.65,0l44.52,44.52
				c3.43,3.43,5.05,7.97,4.88,12.46C140.15,212.38,138.53,216.92,135.1,220.34z"/>
		</g>
	</g>
</g>
<g>
</g>
<g>
</g>
<g>
</g>
<g>
</g>
<g>
</g>
</svg>
