<?xml version="1.0" encoding="utf-8"?>
<!-- Generator: Adobe Illustrator 25.0.1, SVG Export Plug-In . SVG Version: 6.00 Build 0)  -->
<svg version="1.1" id="Layer_1" xmlns="http://www.w3.org/2000/svg" xmlns:xlink="http://www.w3.org/1999/xlink" x="0px" y="0px"
	 viewBox="0 0 512 512" style="enable-background:new 0 0 512 512;" xml:space="preserve">
<style type="text/css">
	.st0{fill:#2B76A0;}
	.st1{fill:#3A8FC6;}
	.st2{fill:#FFFFFF;}
</style>
<g id="UnZip">
	<path class="st0" d="M470.88,108.29H204.7V88.82c0-17.93-14.53-32.46-32.46-32.46H80.07c-17.93,0-32.46,14.53-32.46,32.46v51.94
		v241.46v25.97c0,17.93,14.53,47.46,32.46,47.46h390.82c17.93,0,32.46-29.53,32.46-47.46V140.75
		C503.35,122.83,488.81,108.29,470.88,108.29z"/>
	<path class="st1" d="M503.35,408.03c0,18.01-14.53,47.62-32.46,47.62H80.07c-25.9,0-29.39-29.5-34.24-47.96L8.65,207.74
		c0-18.01,14.53-32.62,32.46-32.62h403.8c17.93,0,32.46,14.6,32.46,32.62L503.35,408.03z"/>
	<g>
		<path class="st2" d="M345.59,286.97v120.91h90.02V286.97H345.59z M404.08,390.99h-30.59v-31.12h30.59V390.99z"/>
		<rect x="376.18" y="259" class="st2" width="59.43" height="27.97"/>
		<rect x="346.46" y="231.03" class="st2" width="59.43" height="27.97"/>
		<rect x="376.18" y="203.06" class="st2" width="59.43" height="27.97"/>
		<rect x="346.32" y="175.09" class="st2" width="59.43" height="27.97"/>
	</g>
</g>
<g>
</g>
<g>
</g>
<g>
</g>
<g>
</g>
<g>
</g>
</svg>
