<?xml version="1.0" encoding="utf-8"?>
<!-- Generator: Adobe Illustrator 25.0.1, SVG Export Plug-In . SVG Version: 6.00 Build 0)  -->
<svg version="1.1" id="Layer_1" xmlns="http://www.w3.org/2000/svg" xmlns:xlink="http://www.w3.org/1999/xlink" x="0px" y="0px"
	 viewBox="0 0 512 512" style="enable-background:new 0 0 512 512;" xml:space="preserve">
<style type="text/css">
	.st0{fill:#3593C9;}
	.st1{fill:#3691C9;}
</style>
<g>
	<g>
		<g>
			<g>
				<path class="st0" d="M390.36,160.9c-16.9,0-33.17,0-49.52,0c-0.86-1.89-0.45-3.74-0.46-5.51c-0.03-24.83-0.29-49.67,0.08-74.5
					c0.23-15.34-11.46-26.97-27-26.91c-67,0.26-133.99,0.28-200.99-0.01C96.8,53.9,85.15,65.56,85.23,81.2
					c0.31,60.83,0.12,121.66,0.12,182.49c0,1.83,0,3.66,0,6.42c-14.93-11.89-31.7-17.4-50.04-12.63c0-2.08,0.06-3.75,0.06-5.39
					c-0.02-57.5-0.05-115,0-172.49C35.4,47.68,54.18,20.44,83.98,8.92c7.82-3.02,15.94-4.78,24.33-4.78
					C177.98,4.1,247.64,3.92,317.3,4.18c35.91,0.14,67.25,28.33,72.2,63.88c0.58,4.15,0.85,8.27,0.85,12.43c0,25,0,50,0,75
					C390.36,157.14,390.36,158.79,390.36,160.9z"/>
			</g>
		</g>
		<g>
			<g>
				<path class="st0" d="M135.05,459.09c2.08,0,3.91,0,5.73,0c57.81,0,115.62,0.01,173.43-0.01c13.15-0.01,22.68-7.57,25.65-20.08
					c0.55-2.31,0.49-4.63,0.49-6.95c0.01-21.66,0.01-43.32,0.01-64.97c0-1.8,0-3.61,0-5.69c16.74,0,33.12,0,49.47,0
					c0.86,1.36,0.51,2.72,0.51,4c0.03,22.99,0.08,45.98,0,68.97c-0.11,32.37-20.91,60.93-51.64,70.99
					c-7.31,2.39-14.8,3.75-22.52,3.75c-68.97-0.01-137.94,0-206.92-0.01c-6.3,0-12.48-0.83-19.12-3.03
					C108.02,492.81,122.85,477.49,135.05,459.09z"/>
			</g>
		</g>
		<g>
			<g>
				<path class="st1" d="M88.19,390.5c-17.15-17.13-33.39-33.39-49.68-49.59c-4.76-4.73-8-10.1-8.45-16.99
					c-0.69-10.43,3.27-18.56,12.15-23.93c8.72-5.27,17.7-5.03,26.47,0.17c2.29,1.36,4.24,3.19,6.13,5.09
					c21.41,21.45,42.86,42.86,64.27,64.31c12.35,12.37,12.3,28.69-0.11,41.11c-21.66,21.67-43.3,43.36-65.01,64.98
					c-8.92,8.88-20.92,10.71-31.09,4.96c-14.69-8.32-17.55-27.77-5.57-40.04c15.36-15.72,31.02-31.15,46.58-46.68
					C85.05,392.72,86.48,391.83,88.19,390.5z"/>
			</g>
		</g>
		<g>
			<g>
				<path class="st0" d="M212.33,150.09c-21.98,0-43.96,0.08-65.93-0.03c-14.78-0.07-26.25-11.89-26.04-26.49
					c0.2-13.62,11.45-25.12,25.09-25.44c7.16-0.17,14.32-0.03,21.48-0.03c37.3,0,74.59-0.03,111.89,0.02
					c14.72,0.02,26.38,11.32,26.54,25.51c0.16,14.64-11.29,26.37-26.09,26.44C256.95,150.16,234.64,150.09,212.33,150.09z"/>
			</g>
		</g>
	</g>
	<g>
		<path class="st0" d="M237.8,314.93h-32.36l-20.18-32.36l-19.97,32.36h-31.65l34.34-52.96l-32.29-50.55h31.01l18.69,32l17.98-32
			h31.93l-32.78,52.75L237.8,314.93z"/>
		<path class="st0" d="M249.41,314.93V211.42h27.97v80.93h39.86v22.59H249.41z"/>
		<path class="st0" d="M401.49,283.5c0,6.42-1.63,12.12-4.89,17.1c-3.26,4.98-7.95,8.85-14.09,11.61
			c-6.14,2.76-13.33,4.14-21.59,4.14c-6.89,0-12.67-0.48-17.35-1.45s-9.54-2.66-14.58-5.06v-24.92c5.33,2.74,10.88,4.87,16.64,6.41
			c5.76,1.53,11.04,2.3,15.86,2.3c4.15,0,7.2-0.72,9.13-2.16c1.93-1.44,2.9-3.29,2.9-5.56c0-1.42-0.39-2.66-1.17-3.72
			c-0.78-1.06-2.03-2.14-3.75-3.22c-1.72-1.08-6.31-3.3-13.77-6.66c-6.75-3.07-11.81-6.04-15.19-8.92c-3.38-2.88-5.88-6.18-7.5-9.91
			c-1.63-3.73-2.44-8.14-2.44-13.24c0-9.53,3.47-16.97,10.41-22.3c6.94-5.33,16.47-8,28.6-8c10.71,0,21.64,2.48,32.78,7.43
			l-8.57,21.59c-9.68-4.44-18.03-6.66-25.06-6.66c-3.63,0-6.28,0.64-7.93,1.91s-2.48,2.86-2.48,4.74c0,2.03,1.05,3.85,3.15,5.45
			c2.1,1.6,7.8,4.53,17.1,8.78c8.92,4.01,15.12,8.32,18.58,12.92C399.75,270.72,401.49,276.51,401.49,283.5z"/>
		<path class="st0" d="M510.73,314.93h-32.36l-20.18-32.36l-19.97,32.36h-31.65l34.34-52.96l-32.29-50.55h31.01l18.69,32l17.98-32
			h31.93l-32.78,52.75L510.73,314.93z"/>
	</g>
</g>
<g>
</g>
<g>
</g>
<g>
</g>
<g>
</g>
<g>
</g>
</svg>
