<?xml version="1.0" encoding="utf-8"?>
<!-- Generator: Adobe Illustrator 25.0.1, SVG Export Plug-In . SVG Version: 6.00 Build 0)  -->
<svg version="1.1" id="Layer_1" xmlns="http://www.w3.org/2000/svg" xmlns:xlink="http://www.w3.org/1999/xlink" x="0px" y="0px"
	 viewBox="0 0 512 512" style="enable-background:new 0 0 512 512;" xml:space="preserve">
<style type="text/css">
	.st0{fill:#3291C7;}
	.st1{fill:#3391C6;}
</style>
<g>
	<g>
		<path class="st0" d="M285.25,422.38H213.2V301.02h72.05v26.31h-39.26v19.09h36.36v26.31h-36.36v22.91h39.26V422.38z"/>
		<path class="st0" d="M393.73,339.62c0,13.56-4,24.03-12,31.42c-8,7.39-19.35,11.08-34.07,11.08h-9.21v40.26h-32.79V301.02h42
			c15.33,0,26.84,3.35,34.53,10.04C389.88,317.76,393.73,327.28,393.73,339.62z M338.44,355.39h5.98c4.92,0,8.84-1.38,11.75-4.15
			c2.91-2.77,4.36-6.58,4.36-11.46c0-8.19-4.54-12.29-13.61-12.29h-8.47V355.39z"/>
		<path class="st0" d="M491.57,385.52c0,7.53-1.91,14.21-5.73,20.05c-3.82,5.84-9.33,10.38-16.52,13.61
			c-7.19,3.24-15.63,4.86-25.32,4.86c-8.08,0-14.86-0.57-20.34-1.7c-5.48-1.13-11.18-3.11-17.1-5.93v-29.22
			c6.25,3.21,12.75,5.71,19.51,7.51c6.75,1.8,12.95,2.7,18.59,2.7c4.87,0,8.44-0.84,10.71-2.53c2.27-1.69,3.4-3.86,3.4-6.52
			c0-1.66-0.46-3.11-1.37-4.36c-0.91-1.24-2.38-2.5-4.4-3.78c-2.02-1.27-7.4-3.87-16.15-7.8c-7.91-3.6-13.85-7.08-17.8-10.46
			c-3.96-3.38-6.89-7.25-8.8-11.62c-1.91-4.37-2.86-9.55-2.86-15.52c0-11.18,4.07-19.89,12.2-26.15c8.13-6.25,19.31-9.38,33.54-9.38
			c12.56,0,25.37,2.91,38.43,8.72l-10.04,25.32c-11.34-5.2-21.14-7.8-29.38-7.8c-4.26,0-7.36,0.75-9.3,2.24
			c-1.94,1.49-2.91,3.35-2.91,5.56c0,2.38,1.23,4.51,3.69,6.39c2.46,1.88,9.14,5.31,20.05,10.29c10.46,4.7,17.72,9.75,21.79,15.15
			C489.54,370.54,491.57,377.33,491.57,385.52z"/>
	</g>
	<g id="BG_Shapes">
		<g id="Rounded_Rectangle_6">
			<path class="st0" d="M252.49,146H227.1c-9.94,0-18,8.06-18,18v1.57c0,9.94,8.06,18,18,18h25.39c9.94,0,18-8.06,18-18V164
				C270.49,154.06,262.43,146,252.49,146z"/>
		</g>
		<g id="Rounded_Rectangle_6_copy">
			<path class="st0" d="M336.49,146H311.1c-9.94,0-18,8.06-18,18v1.57c0,9.94,8.06,18,18,18h25.39c9.94,0,18-8.06,18-18V164
				C354.49,154.06,346.43,146,336.49,146z"/>
		</g>
		<g id="Rounded_Rectangle_6_copy_2">
			<path class="st0" d="M421.49,146H396.1c-9.94,0-18,8.06-18,18v1.57c0,9.94,8.06,18,18,18h25.39c9.94,0,18-8.06,18-18V164
				C439.49,154.06,431.43,146,421.49,146z"/>
		</g>
		<g id="Rounded_Rectangle_6_copy_3">
			<path class="st0" d="M252.49,218H227.1c-9.94,0-18,8.06-18,18v1.57c0,9.94,8.06,18,18,18h25.39c9.94,0,18-8.06,18-18V236
				C270.49,226.06,262.43,218,252.49,218z"/>
		</g>
		<g id="Rounded_Rectangle_6_copy_3_1_">
			<path class="st0" d="M336.49,219H311.1c-9.94,0-18,8.06-18,18v1.57c0,9.94,8.06,18,18,18h25.39c9.94,0,18-8.06,18-18V237
				C354.49,227.06,346.43,219,336.49,219z"/>
		</g>
		<g id="Rounded_Rectangle_6_copy_3_2_">
			<path class="st0" d="M421.49,219H396.1c-9.94,0-18,8.06-18,18v1.57c0,9.94,8.06,18,18,18h25.39c9.94,0,18-8.06,18-18V237
				C439.49,227.06,431.43,219,421.49,219z"/>
		</g>
		<g>
			<g>
				<path class="st1" d="M112.1,98.23V78.5c0-13.81,11.19-25,25-25h210c13.81,0,25,11.19,25,25V112h52V78.5c0-42.46-34.54-77-77-77
					h-210c-42.46,0-77,34.54-77,77v23.9C71.14,98.9,82.91,97,95.15,97C100.91,97,106.57,97.42,112.1,98.23z"/>
				<path class="st1" d="M370.14,443.23c-3.79,8.97-12.68,15.27-23.04,15.27h-210c-13.81,0-25-11.19-25-25V315.77
					c-5.53,0.81-11.19,1.23-16.96,1.23c-12.23,0-24.01-1.9-35.04-5.4v121.9c0,42.46,34.54,77,77,77h210
					c39.16,0,71.56-29.39,76.36-67.27H370.14z"/>
			</g>
			<path class="st0" d="M97.1,111.7c-52.63,0-95.3,42.67-95.3,95.3s42.67,95.3,95.3,95.3s95.3-42.67,95.3-95.3
				S149.74,111.7,97.1,111.7z M135.99,220.34l-44.52,44.52c-6.53,6.53-17.12,6.53-23.65,0c-6.53-6.53-6.53-17.12,0-23.65
				l33.32-33.32l-33.32-33.32c-6.53-6.53-6.53-17.12,0-23.65c6.53-6.53,17.12-6.53,23.65,0l44.52,44.52
				c3.43,3.43,5.05,7.97,4.88,12.46C141.04,212.38,139.41,216.92,135.99,220.34z"/>
		</g>
	</g>
</g>
<g>
</g>
<g>
</g>
<g>
</g>
<g>
</g>
<g>
</g>
</svg>
