<?xml version="1.0" encoding="utf-8"?>
<!-- Generator: Adobe Illustrator 25.0.1, SVG Export Plug-In . SVG Version: 6.00 Build 0)  -->
<svg version="1.1" id="Layer_1" xmlns="http://www.w3.org/2000/svg" xmlns:xlink="http://www.w3.org/1999/xlink" x="0px" y="0px"
	 viewBox="0 0 512 512" style="enable-background:new 0 0 512 512;" xml:space="preserve">
<style type="text/css">
	.st0{fill:#3A8FC6;}
</style>
<g id="Doc_OCR">
	<g>
		<polygon class="st0" points="1.65,480.21 1.65,443.92 1.65,394.21 37.94,394.21 37.94,443.92 87.65,443.92 87.65,480.21 
			37.94,480.21 		"/>
		<polygon class="st0" points="474.15,480.21 424.44,480.21 424.44,443.92 474.15,443.92 474.15,394.21 510.44,394.21 
			510.44,443.92 510.44,480.21 		"/>
		<polygon class="st0" points="1.56,31.79 1.56,68.08 1.56,117.79 37.85,117.79 37.85,68.08 87.56,68.08 87.56,31.79 37.85,31.79 		
			"/>
		<polygon class="st0" points="474.06,31.79 424.35,31.79 424.35,68.08 474.06,68.08 474.06,117.79 510.35,117.79 510.35,68.08 
			510.35,31.79 		"/>
	</g>
	<g>
		<path class="st0" d="M369.74,182.41H141.99c-13.87,0-25.11-11.24-25.11-25.11v0c0-13.87,11.24-25.11,25.11-25.11h227.75
			c13.87,0,25.11,11.24,25.11,25.11v0C394.84,171.17,383.6,182.41,369.74,182.41z"/>
		<path class="st0" d="M142.95,379.8h137.03c13.87,0,25.11-11.24,25.11-25.11v0c0-13.87-11.24-25.11-25.11-25.11H142.95
			c-13.87,0-25.11,11.24-25.11,25.11v0C117.85,368.56,129.09,379.8,142.95,379.8z"/>
		<path class="st0" d="M359.14,379.8h10.87c13.87,0,25.11-11.24,25.11-25.11v0c0-13.87-11.24-25.11-25.11-25.11h-10.87
			c-13.87,0-25.11,11.24-25.11,25.11v0C334.04,368.56,345.28,379.8,359.14,379.8z"/>
		<path class="st0" d="M369.74,281.11H141.99c-13.87,0-25.11-11.24-25.11-25.11v0c0-13.87,11.24-25.11,25.11-25.11h227.75
			c13.87,0,25.11,11.24,25.11,25.11v0C394.84,269.87,383.6,281.11,369.74,281.11z"/>
	</g>
</g>
<g>
</g>
<g>
</g>
<g>
</g>
<g>
</g>
<g>
</g>
</svg>
