<?xml version="1.0" encoding="utf-8"?>
<!-- Generator: Adobe Illustrator 25.0.1, SVG Export Plug-In . SVG Version: 6.00 Build 0)  -->
<svg version="1.1" id="Layer_1" xmlns="http://www.w3.org/2000/svg" xmlns:xlink="http://www.w3.org/1999/xlink" x="0px" y="0px"
	 viewBox="0 0 512 512" style="enable-background:new 0 0 512 512;" xml:space="preserve">
<style type="text/css">
	.st0{fill:#3892C9;}
</style>
<g id="Collage_Maker">
	<g id="_x33__4_">
		<path class="st0" d="M465.51,33.5c7.17,0,12.99,5.82,12.99,12.99v419.02c0,7.17-5.82,12.99-12.99,12.99H46.49
			c-7.17,0-12.99-5.82-12.99-12.99V46.49c0-7.17,5.82-12.99,12.99-12.99H465.51 M465.51,3.5H46.49C22.78,3.5,3.5,22.78,3.5,46.49
			v419.02c0,23.7,19.28,42.99,42.99,42.99h419.02c23.7,0,42.99-19.28,42.99-42.99V46.49C508.5,22.78,489.22,3.5,465.51,3.5
			L465.51,3.5z"/>
		<g>
			<rect x="279.72" y="30.76" class="st0" width="30" height="450"/>
			<rect x="280.43" y="240.76" class="st0" width="205.01" height="30"/>
		</g>
	</g>
	<g>
		<g>
			<g>
				<path class="st0" d="M127.44,245.52c-3.68-4.91-9.82-7.84-16.43-7.84c-6.61,0-12.75,2.93-16.43,7.84h0L5.34,364.7
					c-0.89,1.18,0.06,2.77,1.66,2.77l25.37,0c0.08-0.16,0.12-0.2,0.2-0.3l0,0l76.8-98.68c0.79-1.02,2.48-1.02,3.28,0l76.8,98.68l0,0
					c0.08,0.1,0.14,0.2,0.21,0.3h25.36c1.6,0,2.55-1.59,1.66-2.77L127.44,245.52z"/>
			</g>
		</g>
		<g>
			<g>
				<path class="st0" d="M222.78,254.39c-3.42-4.14-9.13-6.62-15.27-6.62c-6.15,0-11.85,2.47-15.27,6.62h0l-35.93,40.38
					c-0.14,0.17-3.23-7.66-3.28-7.48c-0.32,1.2,9.59,19.58,10.73,18.77l7.75,7.96c0.08-0.13-0.08,0.09,0,0l0,0l34.46-40.23
					c0.74-0.86,2.31-0.86,3.05,0l71.4,83.33l0,0c0.08,0.08,0.13,0.17,0.19,0.25h23.58c1.48,0,2.37-1.34,1.54-2.34L222.78,254.39z"/>
				<path class="st0" d="M304.2,359.88h-24.83l-0.84-1.12l0,0c0,0,0.03,0.03,0.05,0.06l-71.08-82.96l-33.96,39.63l-1.57,2.59
					l-2.05-2.09l-1.87-1.5l0.18-0.25l-5.79-5.94c-0.15-0.07-0.3-0.16-0.45-0.26c-1.3-0.9-3.6-4.37-6.86-10.32
					c-0.2-0.36-0.39-0.71-0.57-1.05c-0.38-0.42-0.77-1.18-1.4-2.66c-2.98-5.81-2.76-6.63-2.56-7.37l0.46-1.73l1.79-0.12
					c1.84-0.12,2.13,0.59,3.76,4.52c0.11,0.27,0.24,0.58,0.38,0.91l33.35-37.49c3.82-4.64,10.25-7.46,17.14-7.46
					c6.88,0,13.31,2.81,17.2,7.53l82.97,100.65c0.95,1.15,1.15,2.7,0.52,4.03C307.51,358.94,305.94,359.88,304.2,359.88z
					 M281.8,354.88h20.58l-81.53-98.9c-2.95-3.57-7.94-5.71-13.34-5.71s-10.39,2.13-13.34,5.71l-34.76,39.08
					c1.64,3,3.43,6.07,4.6,7.76l0.05-0.04l7.34,7.54l32.68-38.15c0.83-0.97,2.07-1.52,3.42-1.52c1.35,0,2.6,0.55,3.42,1.52
					L281.8,354.88z M155.5,287.04L155.5,287.04z"/>
			</g>
		</g>
		<g>
			<path class="st0" d="M176.87,194.35c-26.11,0-47.34-21.24-47.34-47.34c0-26.11,21.24-47.34,47.34-47.34s47.34,21.24,47.34,47.34
				C224.22,173.12,202.98,194.35,176.87,194.35z M176.87,123.67c-12.87,0-23.34,10.47-23.34,23.34c0,12.87,10.47,23.34,23.34,23.34
				s23.34-10.47,23.34-23.34C200.22,134.14,189.75,123.67,176.87,123.67z"/>
		</g>
	</g>
</g>
<g>
</g>
<g>
</g>
<g>
</g>
<g>
</g>
<g>
</g>
</svg>
