<?xml version="1.0" encoding="utf-8"?>
<!-- Generator: Adobe Illustrator 25.0.1, SVG Export Plug-In . SVG Version: 6.00 Build 0)  -->
<svg version="1.1" id="Layer_1" xmlns="http://www.w3.org/2000/svg" xmlns:xlink="http://www.w3.org/1999/xlink" x="0px" y="0px"
	 viewBox="0 0 512 512" style="enable-background:new 0 0 512 512;" xml:space="preserve">
<style type="text/css">
	.st0{fill:#3691C9;}
	.st1{fill:none;stroke:#3691C9;stroke-width:9.6292;stroke-miterlimit:10;}
	.st2{fill:#3991C9;}
</style>
<g id="_x33_D_Repairing">
	<g id="Shape_2_copy_4">
		<polygon class="st0" points="258.08,134.15 258.08,506 478.07,446.72 478.07,74.87 		"/>
	</g>
	<g id="Shape_3_copy_15">
		<polygon class="st1" points="247.27,138.44 37.2,75.86 37.62,442.28 247.68,499.62 		"/>
	</g>
	<g id="Shape_1_copy_4">
		<path class="st0" d="M256.45,6c-74,19.58-147.95,38.86-221.96,58.58c74.03,23.04,148.18,44.33,221.6,62.52
			c72.02-18.86,144.62-36.55,216.9-57.19C400.75,48.08,328.66,27.5,256.45,6z"/>
	</g>
	<g>
		<path class="st2" d="M34.13,355.5c0.94,0,1.45-0.7,2.03-1.27c17.44-17.26,34.88-34.52,52.32-51.79c0.47-0.46,0.87-0.99,1.41-1.61
			c0.03-3.44-1.14-6.76-1.55-10.18c-3.37-28.26,6.21-57.12,31.35-73.15c15.82-10.08,32.96-12.22,50.93-6.54
			c7.05,2.23,8.14,7.29,2.88,12.68c-11.11,11.39-22.22,22.79-34.15,35.03c1.21,10.57,2.56,22.34,3.93,34.24
			c10.69,2.82,20.87,5.5,31.74,8.37c9.39-9.61,18.77-19.22,28.16-28.8c1.97-2.01,3.95-4.03,6.01-5.95c4.53-4.2,8.76-2.98,10.13,3
			c1.26,5.51,1.87,11.13,1.58,16.78c-0.83,16.24-5.15,31.34-15.16,44.44c-12.44,16.29-28.9,25.01-49.41,25.41
			c-8.83,0.17-17.38-1.96-25.27-5.47c-2.01,0.61-2.93,2.09-4.08,3.23c-29.87,29.69-59.72,59.41-89.55,89.15
			c-0.9,0.9-2.23,1.53-2.3,3.07c-1.95-0.92-0.94-2.68-0.94-3.98C34.11,413.26,34.13,384.38,34.13,355.5z"/>
	</g>
</g>
<g>
</g>
<g>
</g>
<g>
</g>
<g>
</g>
<g>
</g>
</svg>
