<?xml version="1.0" encoding="utf-8"?>
<!-- Generator: Adobe Illustrator 25.0.1, SVG Export Plug-In . SVG Version: 6.00 Build 0)  -->
<svg version="1.1" id="Layer_1" xmlns="http://www.w3.org/2000/svg" xmlns:xlink="http://www.w3.org/1999/xlink" x="0px" y="0px"
	 viewBox="0 0 512 512" style="enable-background:new 0 0 512 512;" xml:space="preserve">
<style type="text/css">
	.st0{fill:#3891C9;}
	.st1{fill:#3892C9;}
	.st2{fill-rule:evenodd;clip-rule:evenodd;fill:#3A92CA;}
	.st3{fill:#3A92CA;}
</style>
<g id="eSign">
	<g>
		<path class="st0" d="M106.45,338.61c-15.52-10.63-10.85-36.31-5.86-54.94c-7.25-0.82-11.98-1.84-12.7-2
			c-5.16-1.17-8.41-6.3-7.27-11.47c1.16-5.18,6.29-8.44,11.47-7.29c0.19,0.04,5.88,1.26,14.51,1.97
			c19.3-50.82,50.18-58.28,59.97-59.33c14.66-1.58,27.82,4.55,33.52,15.6c5.58,10.81,2.92,24.02-7.1,35.33
			c-20.07,22.63-49.94,27.97-72.73,28.2c-0.36,1.24-0.71,2.49-1.05,3.77c-8.26,30.8-1.86,34.47-1.74,34.42
			c7.98,4.89,42.84-15.55,73.13-42.89c3.47-3.14,8.71-3.27,12.36-0.43c2.53,1.98,3.84,5.03,3.68,8.07
			c16.6-11.9,22.94-8.78,26.07-7.24c7.03,3.53,7.71,11.52,7.06,24.12c-0.6,3.04-1.04,18.94,0.26,19.8
			c5.19,3.42,25.97-11.46,33.89-19.44c3.74-3.77,9.8-3.77,13.59-0.07c3.77,3.74,3.8,9.82,0.06,13.59
			c-14.36,14.5-46.09,30.29-59.33,23.25c-11.44-6.15-8.58-34.52-7.39-40.5c-9.66,6.57-27,23-42.34,40.56
			c-3.21,3.67-8.65,4.35-12.67,1.6c-0.01,0-0.02-0.01-0.02-0.02c-4.02-2.78-5.32-8.12-3.02-12.44l4.21-7.89
			c-20.93,13.99-44.97,25.25-59.57,16.32C107.09,339.05,106.76,338.83,106.45,338.61L106.45,338.61z M180.25,226.98
			c-2.57-1.76-6.53-2.87-11.63-2.32c-12.9,1.39-29.24,13.03-41.34,40.46c17.55-1.15,37.85-6.22,51.32-21.4
			c4.62-5.21,6.22-10.23,4.4-13.77C182.45,228.89,181.52,227.85,180.25,226.98L180.25,226.98z"/>
		<path class="st1" d="M171.26,347.92c-2.43,0-4.88-0.7-7.02-2.15l-0.13-0.09c-4.69-3.25-6.53-9.17-4.73-14.42
			c-23.76,14.18-41.73,17.72-53.5,10.51c-0.38-0.23-0.74-0.47-1.1-0.71l-0.01-0.01c-16.18-11.09-12.7-35.85-7.9-54.86
			c-5.11-0.68-8.55-1.4-9.62-1.63c-6.75-1.53-11.01-8.26-9.52-14.99c1.52-6.76,8.24-11.04,14.99-9.54
			c0.06,0.01,4.72,1.01,11.92,1.72c20.09-50.83,52.15-58.11,61.6-59.13c15.88-1.72,30.19,5.03,36.47,17.18
			c6.16,11.94,3.35,26.39-7.52,38.65c-20.35,22.94-50.33,28.6-72.69,29.16c-0.15,0.54-0.3,1.08-0.44,1.62
			c-6.49,24.2-3.5,30.33-2.95,31.18c1.75,0.86,9.03-0.05,25.06-9.45c13.95-8.18,30.15-20.27,44.44-33.18
			c4.52-4.08,11.31-4.33,16.15-0.58c1.82,1.42,3.19,3.3,3.99,5.39c15.27-9.78,21.92-6.51,25.25-4.88c9.1,4.56,9.33,14.89,8.71,26.92
			l-0.05,0.42c-0.51,2.59-0.72,13.24-0.29,16.85c4.64-0.13,20.92-10.57,29.44-19.16c4.85-4.89,12.81-4.93,17.75-0.1
			c2.4,2.38,3.72,5.54,3.74,8.89c0.01,3.35-1.28,6.51-3.65,8.89c-12.27,12.39-36.71,25.82-53.31,25.82c-3.61,0-6.84-0.63-9.5-2.05
			c-10.79-5.8-10.68-25.79-9.75-36.6c-10.01,8.06-24.03,21.88-36.36,36C178.27,346.44,174.78,347.92,171.26,347.92z M167.54,340.86
			c2.78,1.88,6.53,1.4,8.75-1.13c15.06-17.24,32.7-34.13,42.9-41.06l5.97-4.06l-1.41,7.08c-1.35,6.8-3.25,32.4,5.89,37.32
			c11.03,5.86,41.3-8.05,55.83-22.73c1.25-1.26,1.94-2.93,1.93-4.71c-0.01-1.78-0.71-3.45-1.97-4.7c-2.61-2.55-6.84-2.54-9.41,0.05
			c-3.34,3.36-28.92,25.55-37.62,19.83c-1.38-0.91-2.22-2.15-2.17-11.57c0.02-3.85,0.23-8.92,0.6-11.04
			c0.68-13.58-0.65-18.73-5.44-21.13c-2.54-1.25-7.87-3.87-23.02,7l-4.98,3.57l0.31-6.12c0.11-2.17-0.85-4.26-2.55-5.6
			c-2.56-1.99-6.16-1.86-8.56,0.3c-21.44,19.35-56.42,44.33-71.98,44.34c-1.74,0-3.24-0.31-4.45-0.98c-0.26-0.12-0.53-0.3-0.81-0.53
			c-2.75-2.29-6.27-10.17,1.01-37.31c0.35-1.3,0.7-2.58,1.07-3.83l0.61-2.11l2.2-0.02c21.37-0.22,50.96-5.12,70.54-27.21
			c9.19-10.36,11.68-22.32,6.69-32.01c-5.14-9.96-17.15-15.46-30.58-14.01c-8.73,0.94-38.69,7.86-57.52,57.44l-0.79,2.08l-2.22-0.18
			c-8.97-0.74-14.89-2.03-14.95-2.04c-3.54-0.78-7.1,1.48-7.9,5.06c-0.79,3.56,1.47,7.13,5.04,7.94c1.2,0.26,5.69,1.19,12.37,1.95
			l3.41,0.38l-0.89,3.32c-4.71,17.6-9.36,42.12,4.67,51.74c0.28,0.19,0.56,0.38,0.86,0.56c10.96,6.71,30.46,1.08,56.39-16.25
			l9.81-6.56l-9.78,18.3c-1.57,2.95-0.71,6.61,2,8.55L167.54,340.86z M122.61,268.39l1.97-4.46c10.87-24.65,27.22-40.43,43.72-42.21
			c5.3-0.57,10.14,0.43,13.62,2.82c1.62,1.11,2.9,2.51,3.7,4.04c2.42,4.69,0.66,10.92-4.81,17.09
			c-11.82,13.32-29.77,20.85-53.34,22.39L122.61,268.39z M171.22,227.47c-0.71,0-1.47,0.04-2.28,0.13
			c-13.39,1.44-26.93,14.08-36.81,34.14c19.48-2.1,34.36-8.81,44.27-19.98c3.65-4.12,5.18-8.13,3.98-10.45
			c-0.34-0.65-0.98-1.33-1.8-1.89l0,0C177.44,228.64,175.09,227.47,171.22,227.47z"/>
	</g>
	<g id="Pen">
		<g>
			<path class="st2" d="M292.63,207.92c-1.24-1.19-3.23-1.16-4.42,0.08l-10.54,10.9c-1.19,1.23-2.31,3.64-2.48,5.35l-4.89,49.51
				c-0.17,1.71,1.08,2.91,2.78,2.67l49.15-6.88c1.7-0.24,4.07-1.44,5.26-2.68l10.54-10.9c1.19-1.23,1.16-3.22-0.08-4.41
				L292.63,207.92z"/>
		</g>
		<g>
			<path class="st2" d="M499.41,39.54c-13.76-13.25-35.68-12.86-48.95,0.88c-13.27,13.74-12.88,35.61,0.88,48.86
				c13.76,13.25,35.67,12.85,48.95-0.88C513.57,74.66,513.18,52.79,499.41,39.54z"/>
		</g>
		<g>
			<path class="st2" d="M452.71,42.58c-1.24-1.19-3.23-1.16-4.42,0.08L305.1,190.8c-1.19,1.23-1.16,3.22,0.08,4.41l45.33,43.65
				c1.24,1.19,3.23,1.16,4.42-0.08L498.12,90.64c1.19-1.23,1.16-3.22-0.08-4.41L452.71,42.58z"/>
		</g>
	</g>
	<g>
		<g>
			<g>
				<path class="st3" d="M354.3,331.9c8.25-20.14,14.12-46.8,17.38-68.88l-20.01,10.5L354.3,331.9z"/>
			</g>
			<g>
				<path class="st3" d="M374.66,93.2c0-7.01-3.68-13.45-9.58-16.75L194.43,29.37c-5.39-3.02-11.87-2.98-17.22,0.11L11.38,76.56
					C5.59,79.9,2,86.28,2,93.2v134.77c0,106.62,60.13,202.86,153.38,245.28l22.92,10.12c2.24,0.99,4.63,1.49,7.02,1.49
					c2.32,0,4.65-0.47,6.84-1.41l26.53-11.39c0.04-0.02,0.08-0.04,0.13-0.05c31.63-13.87,59.5-33.78,82.6-58.11h-1.11v-57.72
					c-23.13,35.08-55.82,63.42-95.37,80.78l-19.52,8.38l-15.82-6.99C89.77,402.03,38.18,319.46,38.18,227.98V104.44L186.04,67.7
					l152.44,36.89v12.84l12.88-8.06l0.57,9.58l22.73-26.75V93.2z"/>
			</g>
			<g>
				<polygon class="st3" points="354.3,106.64 338.48,117.44 338.48,134.7 351.93,118.95 				"/>
			</g>
			<g>
				<path class="st3" d="M298.24,359.26l2.06,54.64l-1.04,2.24c22.45-23.64,42.54-53.7,55.04-84.25l-0.71-59.39l-25.47,12.31
					C321.64,308.51,311.47,339.2,298.24,359.26z"/>
			</g>
		</g>
	</g>
</g>
<g>
</g>
<g>
</g>
<g>
</g>
<g>
</g>
<g>
</g>
</svg>
