<?xml version="1.0" encoding="utf-8"?>
<!-- Generator: Adobe Illustrator 25.0.1, SVG Export Plug-In . SVG Version: 6.00 Build 0)  -->
<svg version="1.1" id="Layer_1" xmlns="http://www.w3.org/2000/svg" xmlns:xlink="http://www.w3.org/1999/xlink" x="0px" y="0px"
	 viewBox="0 0 512 512" style="enable-background:new 0 0 512 512;" xml:space="preserve">
<style type="text/css">
	.st0{fill:#3492CB;}
</style>
<g id="CAD_Text_Extractor">
	<g>
		<path class="st0" d="M42.11,475.91c0,11.23-8.55,20.42-19,20.42s-19-9.19-19-20.42v-413c0-11.23,8.55-20.42,19-20.42
			s19,9.19,19,20.42V475.91z"/>
		<path class="st0" d="M23.94,501.28c-10.97,0-19.95-8.55-19.95-19c0-10.45,8.98-19,19.95-19h393.19c10.97,0,19.95,8.55,19.95,19
			c0,10.45-8.98,19-19.95,19H23.94z"/>
		<path class="st0" d="M300.68,57.28c0,10.45-9,19-20,19H23.99c-11,0-20-8.55-20-19s9-19,20-19h256.69
			C291.68,38.28,300.68,46.83,300.68,57.28z"/>
		<path class="st0" d="M437.08,477.64c0,11-8.55,20-19,20c-10.45,0-19-9-19-20V325.33c0-11,8.55-20,19-20c10.45,0,19,9,19,20V477.64
			z"/>
	</g>
	<g>
		<path class="st0" d="M247.76,424.86l-15.07-45.97H156.9l-15.07,45.97H94.33l73.37-193.93h53.89l73.66,193.93H247.76z
			 M222.17,344.54c-13.94-41.66-21.78-65.22-23.53-70.68c-1.75-5.46-3.01-9.78-3.77-12.95c-3.13,11.27-12.09,39.15-26.87,83.62
			H222.17z"/>
	</g>
	<g>
		<path class="st0" d="M463.3,165.26c0,11.29-8.1,20.52-18,20.52s-18-9.23-18-20.52V96.8c0-11.29,8.1-20.52,18-20.52
			s18,9.23,18,20.52V165.26z"/>
		<path class="st0" d="M265.8,170.78c0,9.9,9,18,20,18h157.04c11,0,20-8.1,20-18c0-9.9-9-18-20-18H285.8
			C274.8,152.78,265.8,160.88,265.8,170.78z"/>
		<path class="st0" d="M301.68,246.01c0,11.29-8.1,20.52-18,20.52s-18-9.23-18-20.52v-68.46c0-11.29,8.1-20.52,18-20.52
			s18,9.23,18,20.52V246.01z"/>
		<path class="st0" d="M398.24,106.78c-14.73,0-20.15-10.06-12.05-22.37l44.31-67.31c8.1-12.3,21.35-12.3,29.45,0l44.31,67.31
			c8.1,12.3,2.67,22.37-12.05,22.37H398.24z"/>
	</g>
</g>
<g>
</g>
<g>
</g>
<g>
</g>
<g>
</g>
<g>
</g>
</svg>
