<?xml version="1.0" encoding="utf-8"?>
<!-- Generator: Adobe Illustrator 25.0.1, SVG Export Plug-In . SVG Version: 6.00 Build 0)  -->
<svg version="1.1" id="Layer_1" xmlns="http://www.w3.org/2000/svg" xmlns:xlink="http://www.w3.org/1999/xlink" x="0px" y="0px"
	 viewBox="0 0 512 512" style="enable-background:new 0 0 512 512;" xml:space="preserve">
<style type="text/css">
	.st0{fill:#3592C7;}
</style>
<g id="DOCX">
	<g id="Base_7_">
		<g>
			<g>
				<g>
					<path class="st0" d="M437.82,419.96v13.54c0,13.81-11.19,25-25,25h-210c-13.81,0-25-11.19-25-25v-355c0-13.81,11.19-25,25-25
						h210c13.81,0,25,11.19,25,25v51.26l51.72-34.66l0.28-0.33V78.5c0-42.46-34.54-77-77-77h-210c-42.46,0-77,34.54-77,77v355
						c0,42.46,34.54,77,77,77h210c42.46,0,77-34.54,77-77v-46.29L437.82,419.96z"/>
				</g>
			</g>
			<g>
				<g>
					<path class="st0" d="M308.62,146.05c-24.5,0-48.99,0.09-73.49-0.04c-12.81-0.07-23.2-9.17-25.49-21.85
						c-2.11-11.72,4.96-23.89,16.49-28.35c3.14-1.21,6.38-1.77,9.76-1.77c48.66,0.02,97.32-0.03,145.98,0.04
						c14.99,0.02,26.53,11.53,26.5,26.11c-0.03,14.5-11.66,25.81-26.76,25.85C357.28,146.09,332.95,146.05,308.62,146.05z"/>
				</g>
			</g>
		</g>
		<g>
			<g>
				<g>
					<path class="st0" d="M117.54,50.98c-4.08,14.67-4.94,29.63-3.62,44.51c-3.39,0.43-5.1,0.48-7.56,0.5
						c-11.17,0.06-22.33,0.01-33.5,0.03c-16.19,0.04-26.5,10.3-26.53,26.59c-0.06,37.83-0.02,75.66-0.02,113.49
						c0,50.5,0.33,101-0.19,151.49c-0.17,16.99,11.41,29.28,28.51,28.51c11.48-0.51,22.99-0.12,34.49-0.08
						c1.62,0.01,2.56,0,5.26,0.15c-1.9,14.65-1.11,29.82,2.25,44.83c-12.47,0-24.44-0.01-36.42,0c-8.16,0.01-16.28,0.02-24.34-1.82
						c-31.52-7.18-54.41-34.89-54.48-67.25C1.22,301.3,1.18,210.63,1.41,119.97c0.1-38.05,31.28-68.7,69.3-68.94
						c14.17-0.09,28.33-0.02,42.5-0.01C114.52,51.02,115.76,50.96,117.54,50.98z"/>
				</g>
			</g>
			<g>
				<g>
					<path class="st0" d="M113.14,247.94c-9.96,0-19.77,0.65-29.45-0.17c-11.15-0.95-18.06-10.82-17.26-22.89
						c0.69-10.47,9.02-18.54,19.66-18.75c8.47-0.17,16.95-0.03,25.42-0.01c0.46,0,0.97,0,1.63,0
						C113.14,219.86,113.14,233.91,113.14,247.94z"/>
				</g>
			</g>
			<g>
				<g>
					<path class="st0" d="M113.11,168.9c-9.96,0-19.77,0.65-29.45-0.17c-11.15-0.95-18.06-10.82-17.26-22.89
						c0.69-10.47,9.02-18.54,19.66-18.75c8.47-0.17,16.95-0.03,25.42-0.01c0.46,0,0.97,0,1.63,0
						C113.11,140.82,113.11,154.87,113.11,168.9z"/>
				</g>
			</g>
			<g>
				<g>
					<path class="st0" d="M113.16,285.06c0,14.31,0,27.88,0,41.85c-9.95,0-19.75,0.64-29.43-0.17
						c-11.16-0.93-18.09-10.75-17.33-22.83c0.66-10.47,8.97-18.6,19.59-18.82C94.92,284.91,103.86,285.06,113.16,285.06z"/>
				</g>
			</g>
		</g>
	</g>
	<g id="DOCX_1_">
		<g>
			<g>
				<path class="st0" d="M371.12,209.57c-0.02-5.34,0.06-10.36,0-15.73c-0.05-4.51,0.06-9.54,0-13.79
					c-31.89-0.01-103.06,0.01-134.95,0c-3.38,0-6.62,0.56-9.76,1.77c-11.53,4.46-18.6,16.62-16.49,28.35
					c2.29,12.68,12.68,21.78,25.49,21.85c24.5,0.13,48.99,0.04,73.49,0.04c8.07,0,54.15,0.01,62.22,0.01
					C371.11,224.47,371.14,217.02,371.12,209.57z"/>
			</g>
		</g>
		<g>
			<g>
				<path class="st0" d="M354.03,262.04c-31.89-0.01-86.06,0.01-117.95,0c-3.38,0-6.62,0.56-9.76,1.77
					c-11.53,4.46-18.6,16.62-16.49,28.35c2.29,12.68,12.68,21.78,25.49,21.85c24.5,0.13,48.99,0.04,73.49,0.04
					c8.07,0,3.69,0.03,11.77,0.03c11.75-19.2,18.57-29.08,18.57-29.08"/>
			</g>
		</g>
		<g>
			<path class="st0" d="M510.75,358.46h-55.79l-34.79-55.79l-34.42,55.79h-54.57l59.2-91.31l-55.66-87.16h53.47l32.23,55.18
				l31.01-55.18h55.05l-56.52,90.94L510.75,358.46z"/>
		</g>
	</g>
</g>
<g>
</g>
<g>
</g>
<g>
</g>
<g>
</g>
<g>
</g>
</svg>
