<?xml version="1.0" encoding="utf-8"?>
<!-- Generator: Adobe Illustrator 25.0.1, SVG Export Plug-In . SVG Version: 6.00 Build 0)  -->
<svg version="1.1" id="Aspose.Video" xmlns="http://www.w3.org/2000/svg" xmlns:xlink="http://www.w3.org/1999/xlink" x="0px"
	 y="0px" viewBox="0 0 512 512" style="enable-background:new 0 0 512 512;" xml:space="preserve">
<style type="text/css">
	.st0{fill:#3593CB;}
</style>
<g id="Rotate_Video">
	<g>
		<path class="st0" d="M321,348.1l-208.1,0.5c-8.4,0-15.3-6.8-15.3-15.3l-0.3-153.3c0-8.4,6.8-15.3,15.3-15.3l208.1-0.5
			c8.4,0,15.3,6.8,15.3,15.3l0.3,153.3C336.3,341.2,329.4,348.1,321,348.1z"/>
		<path class="st0" d="M300.5,263.7l98.1,83.2c6.4,5.4,16.2,0.9,16.2-7.5l-0.4-166.9c0-8.4-9.9-12.9-16.2-7.5l-97.8,83.7
			C295.8,252.7,295.8,259.8,300.5,263.7z"/>
	</g>
	<g>
		<g>
			<g>
				<path class="st0" d="M30.7,263.8c-0.8,0.2-1.5,0.4-2.4,0.5c-8.2,1.2-15.8-4.5-17-12.7c-7-48.8,5.4-97.4,34.9-136.8
					s72.6-65,121.5-72c8.2-1.2,15.8,4.5,17,12.7c1.2,8.2-4.5,15.8-12.7,17c-40.9,5.9-77,27.3-101.7,60.3
					c-24.7,33-35.1,73.7-29.2,114.6C42.1,254.7,37.6,261.6,30.7,263.8z"/>
			</g>
			<g>
				<g>
					<path class="st0" d="M136.8,16L136.8,16c4-6.2,12.2-8,18.4-4l44.6,28.6c6.2,4,8,12.2,4,18.4l0,0c-4,6.2-12.2,8-18.4,4
						l-44.6-28.6C134.6,30.4,132.8,22.2,136.8,16z"/>
				</g>
				<g>
					<path class="st0" d="M156.8,107.5L156.8,107.5c-6.2-4-8-12.2-4-18.4l28.6-44.6c4-6.2,12.2-8,18.4-4l0,0c6.2,4,8,12.2,4,18.4
						l-28.6,44.6C171.2,109.6,163,111.4,156.8,107.5z"/>
				</g>
			</g>
		</g>
		<g>
			<g>
				<path class="st0" d="M375.6,460.9c-16.7,5.8-34.3,9.3-52.5,10.2c-8.6,0.4-15.9-6.2-16.4-14.9c-0.5-8.7,6-16,14.6-16.5
					c42.7-2.2,81.8-21.1,110.1-53.2s42.5-73.5,39.9-116.7c-0.5-8.7,6-16,14.6-16.5c8.6-0.4,15.9,6.2,16.4,14.9
					c3.1,51.6-13.8,101.1-47.6,139.4C432.8,432.2,405.7,450.4,375.6,460.9z"/>
			</g>
			<g>
				<g>
					<path class="st0" d="M364.9,497L364.9,497c-4.7,6-13.4,6.9-19.3,2.1l-43-34.8c-6-4.8-7-13.6-2.3-19.6l0,0
						c4.7-6,13.4-6.9,19.3-2.1l43,34.8C368.6,482.2,369.6,491,364.9,497z"/>
				</g>
				<g>
					<path class="st0" d="M353.6,399.4L353.6,399.4c6,4.8,7,13.6,2.3,19.6l-34,43.2c-4.7,6-13.4,6.9-19.3,2.1l0,0
						c-6-4.8-7-13.6-2.3-19.6l34-43.2C339,395.6,347.6,394.6,353.6,399.4z"/>
				</g>
			</g>
		</g>
	</g>
</g>
</svg>
