<?xml version="1.0" encoding="utf-8"?>
<!-- Generator: Adobe Illustrator 25.2.0, SVG Export Plug-In . SVG Version: 6.00 Build 0)  -->
<svg version="1.1" id="OCR" xmlns="http://www.w3.org/2000/svg" xmlns:xlink="http://www.w3.org/1999/xlink" x="0px" y="0px"
	 viewBox="0 0 512 512" style="enable-background:new 0 0 512 512;" xml:space="preserve">
<style type="text/css">
	.st0{fill:#3391C9;}
	.st1{fill:#FFFFFF;stroke:#3391C9;stroke-width:31;stroke-linecap:round;stroke-linejoin:round;stroke-miterlimit:10;}
	.st2{clip-path:url(#SVGID_2_);}
	.st3{fill:#F5F5F5;}
	.st4{fill:none;stroke:#3391C9;stroke-width:31;stroke-linecap:round;stroke-linejoin:round;stroke-miterlimit:10;}
</style>
<g>
	<path class="st0" d="M432,56c4.9,0,9,4.1,9,9c0,0,0,0.1,0,0.1l1,381.3c0,4.9-4.1,9-9,9H48.9c-4.9,0-9-4.1-9-9c0,0,0-0.1,0-0.1
		L38.9,65c0-4.9,4.1-9,9-9H432 M432,25H47.9c-22,0-40,18-40,40l1,381.3c0,22,18,40,40,40H433c22,0,40-18,40-40L472,65
		C472,43,454,25,432,25L432,25z"/>
</g>
<g>
	<rect x="6.7" y="67.4" transform="matrix(0.7045 -0.7097 0.7097 0.7045 -37.8478 68.856)" class="st0" width="114.2" height="25"/>
	
		<rect x="-14.4" y="107.7" transform="matrix(0.7066 -0.7076 0.7076 0.7066 -55.9467 105.423)" class="st0" width="227.2" height="25"/>
	
		<rect x="-26.9" y="145.2" transform="matrix(0.7073 -0.7069 0.7069 0.7073 -70.9461 144.0273)" class="st0" width="330.7" height="25"/>
	
		<rect x="-44.8" y="183.3" transform="matrix(0.7065 -0.7077 0.7077 0.7065 -87.0415 181.799)" class="st0" width="440.9" height="25"/>
	
		<rect x="-55.2" y="219.5" transform="matrix(0.7088 -0.7054 0.7054 0.7088 -100.4089 220.8516)" class="st0" width="545" height="25"/>
	
		<rect x="-34.1" y="255.4" transform="matrix(0.7066 -0.7076 0.7076 0.7066 -114.5342 259.4785)" class="st0" width="579.6" height="25"/>
</g>
<path class="st1" d="M458.3,471.4H149.2c-16.3,0-29.7-13.4-29.7-29.7l-0.7-255c0-16.3,13.4-29.7,29.7-29.7h309.1
	c16.3,0,29.7,13.4,29.7,29.7l0.7,255C488,458,474.6,471.4,458.3,471.4z"/>
<g>
	<defs>
		<path id="SVGID_1_" d="M458.3,471.4H149.2c-16.3,0-29.7-13.4-29.7-29.7l-0.7-255c0-16.3,13.4-29.7,29.7-29.7h309.1
			c16.3,0,29.7,13.4,29.7,29.7l0.7,255C488,458,474.6,471.4,458.3,471.4z"/>
	</defs>
	<clipPath id="SVGID_2_">
		<use xlink:href="#SVGID_1_"  style="overflow:visible;"/>
	</clipPath>
	<g class="st2">
		<rect x="181.7" y="200.9" class="st3" width="57.1" height="53.4"/>
		<rect x="238.9" y="147.7" class="st3" width="57.1" height="53.4"/>
		<rect x="296" y="200.9" class="st3" width="57.1" height="53.4"/>
		<rect x="353.2" y="147.7" class="st3" width="57.1" height="53.4"/>
		<rect x="410.3" y="200.9" class="st3" width="57.1" height="53.4"/>
		<rect x="467.4" y="147.7" class="st3" width="57.1" height="53.4"/>
		<rect x="181.7" y="307.5" class="st3" width="57.1" height="53.4"/>
		<rect x="238.9" y="254.4" class="st3" width="57.1" height="53.4"/>
		<rect x="296" y="307.5" class="st3" width="57.1" height="53.4"/>
		<rect x="353.2" y="254.4" class="st3" width="57.1" height="53.4"/>
		<rect x="410.3" y="307.5" class="st3" width="57.1" height="53.4"/>
		<rect x="467.4" y="254.4" class="st3" width="57.1" height="53.4"/>
		<rect x="181.7" y="414.2" class="st3" width="57.1" height="53.4"/>
		<rect x="238.9" y="361" class="st3" width="57.1" height="53.4"/>
		<rect x="67.5" y="200.9" class="st3" width="57.1" height="53.4"/>
		<rect x="124.6" y="147.7" class="st3" width="57.1" height="53.4"/>
		<rect x="67.5" y="307.5" class="st3" width="57.1" height="53.4"/>
		<rect x="124.6" y="254.4" class="st3" width="57.1" height="53.4"/>
		<rect x="67.5" y="414.2" class="st3" width="57.1" height="53.4"/>
		<rect x="124.6" y="361" class="st3" width="57.1" height="53.4"/>
		<rect x="296" y="414.2" class="st3" width="57.1" height="53.4"/>
		<rect x="353.2" y="361" class="st3" width="57.1" height="53.4"/>
		<rect x="410.3" y="414.2" class="st3" width="57.1" height="53.4"/>
		<rect x="467.4" y="361" class="st3" width="57.1" height="53.4"/>
		<rect x="181.7" y="520.8" class="st3" width="57.1" height="53.4"/>
		<rect x="238.9" y="467.6" class="st3" width="57.1" height="53.4"/>
		<rect x="296" y="520.8" class="st3" width="57.1" height="53.4"/>
		<rect x="353.2" y="467.6" class="st3" width="57.1" height="53.4"/>
		<rect x="410.3" y="520.8" class="st3" width="57.1" height="53.4"/>
		<rect x="467.4" y="467.6" class="st3" width="57.1" height="53.4"/>
	</g>
</g>
<path class="st4" d="M458.3,471.4H149.2c-16.3,0-29.7-13.4-29.7-29.7l-0.7-255c0-16.3,13.4-29.7,29.7-29.7h309.1
	c16.3,0,29.7,13.4,29.7,29.7l0.7,255C488,458,474.6,471.4,458.3,471.4z"/>
<circle class="st0" cx="320.3" cy="284.1" r="29.8"/>
<polygon class="st0" points="123.2,463.2 258.9,323.3 301.8,388.9 410.3,256 489.2,367.6 489.2,463.2 454.6,474.9 "/>
<g>
</g>
<g>
</g>
<g>
</g>
<g>
</g>
<g>
</g>
<g>
</g>
</svg>
