<?xml version="1.0" encoding="utf-8"?>
<!-- Generator: Adobe Illustrator 25.0.1, SVG Export Plug-In . SVG Version: 6.00 Build 0)  -->
<svg version="1.1" id="Aspose.Video_Subtitles" xmlns="http://www.w3.org/2000/svg" xmlns:xlink="http://www.w3.org/1999/xlink"
	 x="0px" y="0px" viewBox="0 0 512 512" style="enable-background:new 0 0 512 512;" xml:space="preserve">
<style type="text/css">
	.st0{fill:#3593CB;}
	.st1{fill:#3093CD;}
	.st2{fill:#FFFFFF;}
	.st3{fill:#3890C8;}
</style>
<g id="Subtitles">
	<g id="Base_9_">
		<g>
			<g>
				<path class="st0" d="M459.3,465.9H52.7c-26.8,0-48.6-21.8-48.6-48.6V94.4c0-26.6,21.7-48.3,48.3-48.3h407.2
					c26.6,0,48.3,21.7,48.3,48.3v322.9C507.9,444.1,486.1,465.9,459.3,465.9z M52.4,88.1c-3.5,0-6.3,2.8-6.3,6.3v322.9
					c0,3.6,3,6.6,6.6,6.6h406.6c3.6,0,6.6-3,6.6-6.6V94.4c0-3.5-2.8-6.3-6.3-6.3H52.4z"/>
			</g>
		</g>
		<g>
			<g>
				<g>
					<g>
						<rect x="37.5" y="77" class="st1" width="434.8" height="70.9"/>
					</g>
				</g>
			</g>
			<g>
				<g>
					<g>
						<g>
							<path class="st2" d="M411.2,122c-1.6,0-3-1.3-3-3V72.7c0-1.6,1.3-3,3-3h46.4c1.6,0,3,1.3,3,3V119c0,1.6-1.3,3-3,3H411.2z"/>
						</g>
					</g>
				</g>
				<g>
					<g>
						<g>
							<path class="st2" d="M291.1,122c-1.6,0-3-1.3-3-3V72.7c0-1.6,1.3-3,3-3h46.4c1.6,0,3,1.3,3,3V119c0,1.6-1.3,3-3,3H291.1z"/>
						</g>
					</g>
				</g>
				<g>
					<g>
						<g>
							<path class="st2" d="M54.5,122c-1.6,0-3-1.3-3-3V72.7c0-1.6,1.3-3,3-3h46.4c1.6,0,3,1.3,3,3V119c0,1.6-1.3,3-3,3H54.5z"/>
						</g>
					</g>
				</g>
				<g>
					<g>
						<g>
							<path class="st2" d="M171.1,122c-1.6,0-3-1.3-3-3V72.7c0-1.6,1.3-3,3-3h46.4c1.6,0,3,1.3,3,3V119c0,1.6-1.3,3-3,3H171.1z"/>
						</g>
					</g>
				</g>
			</g>
		</g>
		<g>
			<g>
				<g>
					<g>
						<rect x="37.5" y="363.9" class="st1" width="434.8" height="70.9"/>
					</g>
				</g>
			</g>
			<g>
				<g>
					<g>
						<g>
							<path class="st2" d="M411.2,389.8c-1.6,0-3,1.3-3,3v46.4c0,1.6,1.3,3,3,3h46.4c1.6,0,3-1.3,3-3v-46.4c0-1.6-1.3-3-3-3H411.2z
								"/>
						</g>
					</g>
				</g>
				<g>
					<g>
						<g>
							<path class="st2" d="M291.1,389.8c-1.6,0-3,1.3-3,3v46.4c0,1.6,1.3,3,3,3h46.4c1.6,0,3-1.3,3-3v-46.4c0-1.6-1.3-3-3-3H291.1z
								"/>
						</g>
					</g>
				</g>
				<g>
					<g>
						<g>
							<path class="st2" d="M54.5,389.8c-1.6,0-3,1.3-3,3v46.4c0,1.6,1.3,3,3,3h46.4c1.6,0,3-1.3,3-3v-46.4c0-1.6-1.3-3-3-3H54.5z"
								/>
						</g>
					</g>
				</g>
				<g>
					<g>
						<g>
							<path class="st2" d="M171.1,389.8c-1.6,0-3,1.3-3,3v46.4c0,1.6,1.3,3,3,3h46.4c1.6,0,3-1.3,3-3v-46.4c0-1.6-1.3-3-3-3H171.1z
								"/>
						</g>
					</g>
				</g>
			</g>
		</g>
	</g>
	<g id="Captions">
		<path class="st3" d="M359.7,326.4H152.3c-8.4,0-15.1-6.8-15.1-15.1V200.8c0-8.4,6.8-15.1,15.1-15.1h207.5
			c8.4,0,15.1,6.8,15.1,15.1v110.5C374.9,319.6,368.1,326.4,359.7,326.4z"/>
		<g>
			<path class="st2" d="M217,228.1c-6.1,0-10.9,2.5-14.4,7.5c-3.4,5-5.2,12-5.2,20.8c0,18.4,7,27.6,21,27.6c4.2,0,8.3-0.6,12.3-1.8
				c4-1.2,7.9-2.6,11.9-4.2v21.8c-8,3.5-17,5.3-27,5.3c-14.4,0-25.5-4.2-33.1-12.5c-7.7-8.4-11.5-20.4-11.5-36.2
				c0-9.9,1.9-18.6,5.6-26c3.7-7.5,9.1-13.2,16.1-17.3c7-4,15.2-6,24.6-6c10.3,0,20.2,2.2,29.6,6.7L239,234c-3.5-1.7-7.1-3-10.6-4.2
				C224.9,228.7,221.1,228.1,217,228.1z"/>
			<path class="st2" d="M311.2,228.1c-6.1,0-10.9,2.5-14.4,7.5c-3.4,5-5.2,12-5.2,20.8c0,18.4,7,27.6,21,27.6
				c4.2,0,8.3-0.6,12.3-1.8c4-1.2,7.9-2.6,11.9-4.2v21.8c-8,3.5-17,5.3-27,5.3c-14.4,0-25.5-4.2-33.1-12.5
				c-7.7-8.4-11.5-20.4-11.5-36.2c0-9.9,1.9-18.6,5.6-26c3.7-7.5,9.1-13.2,16.1-17.3c7-4,15.2-6,24.6-6c10.3,0,20.2,2.2,29.6,6.7
				l-7.9,20.3c-3.5-1.7-7.1-3-10.6-4.2C319,228.7,315.2,228.1,311.2,228.1z"/>
		</g>
	</g>
</g>
</svg>
