<?xml version="1.0" encoding="utf-8"?>
<!-- Generator: Adobe Illustrator 25.0.1, SVG Export Plug-In . SVG Version: 6.00 Build 0)  -->
<svg version="1.1" id="Aspose.Audio" xmlns="http://www.w3.org/2000/svg" xmlns:xlink="http://www.w3.org/1999/xlink" x="0px"
	 y="0px" viewBox="0 0 512 512" style="enable-background:new 0 0 512 512;" xml:space="preserve">
<style type="text/css">
	.st0{fill:#3593CB;}
</style>
<g id="Text_to_Speech">
	<g>
		<path class="st0" d="M308.12,241.36V78c0-14.34-11.66-26-26-26h-205c-14.34,0-26,11.66-26,26v152.25v46.25v73.07v62.12V434
			c0,14.34,11.66,26,26,26h65.65h0.41h138.94c14.34,0,26-1.66,26-16v-37.19c0,0,2.77,1.63,24.37,13.24
			c10.6,5.69,23.63,12.76,23.63,12.76V444c0,40.8-33.2,64-74,64h-139.2h-0.15H77.12c-40.8,0-74-33.2-74-74v-21.87v-61.34v-89.14
			v-31.4V78c0-40.8,33.2-74,74-74h205c40.8,0,74,33.2,74,74v135.5c0,0-11.88,6.45-21.06,11.64
			C313.33,237.43,308.12,241.36,308.12,241.36z"/>
	</g>
	<g>
		<g>
			<path class="st0" d="M246.5,154.55h-133c-14.36,0-26-11.64-26-26v0c0-14.36,11.64-26,26-26h133c14.36,0,26,11.64,26,26v0
				C272.5,142.91,260.86,154.55,246.5,154.55z"/>
		</g>
	</g>
	<g>
		<path class="st0" d="M245.93,244.54h-133c-14.36,0-26-11.64-26-26v0c0-14.36,11.64-26,26-26h133c14.36,0,26,11.64,26,26v0
			C271.93,232.9,260.29,244.54,245.93,244.54z"/>
	</g>
	<g>
		<path class="st0" d="M231.5,334.46H113.31c-14.36,0-26-11.64-26-26v0c0-14.36,11.64-26,26-26H231.5c0,15.17,0,15.4,0,29.76
			l0.05,7.96C231.52,323.02,231.68,324.14,231.5,334.46z"/>
	</g>
	<g>
		<g>
			<path class="st0" d="M303.82,293.11v66.26c0,2.51,1.28,4.82,3.31,5.99l100.19,57.6c4.12,2.37,9.08-0.88,9.09-5.97l0.49-185.63
				c0.01-5.19-5.1-8.46-9.24-5.92L306.98,287.2C305.03,288.4,303.82,290.66,303.82,293.11z"/>
		</g>
		<g>
			<path class="st0" d="M287.98,365.61h-25.96c-3.94,0-7.13-3.19-7.13-7.13v-64.77c0-3.94,3.19-7.13,7.13-7.13h25.96
				c3.94,0,7.13,3.19,7.13,7.13v64.77C295.1,362.42,291.91,365.61,287.98,365.61z"/>
		</g>
		<g>
			<g>
				<path class="st0" d="M443.47,382.24c-2.05,0-4.09-0.78-5.66-2.34c-3.12-3.12-3.12-8.19,0-11.31c23.43-23.42,23.43-61.54,0-84.96
					c-3.12-3.12-3.12-8.19,0-11.31c3.12-3.12,8.19-3.12,11.31,0c29.66,29.66,29.66,77.93,0,107.59
					C447.57,381.46,445.52,382.24,443.47,382.24z"/>
			</g>
			<g>
				<path class="st0" d="M469.27,410.55c-2.05,0-4.09-0.78-5.66-2.34c-3.12-3.12-3.12-8.19,0-11.31
					c39.04-39.03,39.04-102.55,0-141.58c-3.12-3.12-3.12-8.19,0-11.31c3.12-3.12,8.19-3.12,11.31,0
					c45.27,45.27,45.27,118.94,0,164.21C473.36,409.76,471.32,410.55,469.27,410.55z"/>
			</g>
		</g>
	</g>
</g>
<g>
</g>
<g>
</g>
<g>
</g>
<g>
</g>
<g>
</g>
</svg>
