<?xml version="1.0" encoding="utf-8"?>
<!-- Generator: Adobe Illustrator 25.0.1, SVG Export Plug-In . SVG Version: 6.00 Build 0)  -->
<svg version="1.1" id="Layer_1" xmlns="http://www.w3.org/2000/svg" xmlns:xlink="http://www.w3.org/1999/xlink" x="0px" y="0px"
	 viewBox="0 0 512 512" style="enable-background:new 0 0 512 512;" xml:space="preserve">
<style type="text/css">
	.st0{fill:#3691C8;}
	.st1{fill:#3290C6;}
	.st2{fill:#3890C8;}
	.st3{fill:#3C91C8;}
</style>
<g id="Slides_to_Video">
	<g>
		<path class="st0" d="M505.88,87.07l0,333.41c0,1.04-0.6,6.9-0.9,7.89c-3.59,9.34-10.44,13.69-20.39,13.68
			c-152.36-0.03-304.73-0.02-457.09-0.03c-11.79,0-21.35-9.56-21.36-21.35c-0.01-109.82,0-219.64-0.03-329.47
			c0-10.44,4.8-17.45,15.1-20.89c0.85-0.13,1.71-0.26,2.55-0.39c154.82,0,309.65,0,464.47,0c1.03,0.28,2.06,0.56,3.1,0.85
			c7.67,1.9,12.06,7.3,14.35,14.92C505.74,86.08,505.83,86.7,505.88,87.07z M256,406.79c45.55,0,91.1,0,136.65,0
			c1.63,0,3.27,0.06,4.9-0.06c8.08-0.59,15.03-6.02,17.19-13.8c0.77-2.77,0.95-5.78,0.95-8.69c0.05-85.49,0.04-170.99,0.04-256.48
			c0-1.47,0.05-2.94-0.06-4.4c-0.59-8.07-6.02-15.01-13.82-17.18c-2.78-0.77-5.79-0.95-8.69-0.95
			c-91.43-0.05-182.86-0.04-274.28-0.04c-1.47,0-2.94-0.05-4.41,0.06c-8.07,0.59-15.04,6.03-17.19,13.81
			c-0.77,2.77-0.95,5.78-0.95,8.69c-0.05,85.49-0.04,170.99-0.04,256.48c0,1.31-0.06,2.62,0.04,3.91c0.5,6.8,3.58,12.1,9.37,15.75
			c3.72,2.34,7.84,2.94,12.18,2.93C163.92,406.78,209.96,406.79,256,406.79z M28.67,133.84c0,5.37-0.03,10.75,0.01,16.12
			c0.04,5.09,0.99,6.11,5.92,6.13c10.75,0.05,21.51,0.05,32.26,0c4.77-0.02,5.86-1.06,5.89-5.66c0.06-10.91,0.06-21.82,0-32.73
			c-0.02-4.44-1.13-5.61-5.42-5.64c-11.08-0.07-22.16-0.07-33.24,0c-4.28,0.03-5.35,1.2-5.4,5.65
			C28.62,123.1,28.68,128.47,28.67,133.84z M461.97,156.11c5.7,0,11.41,0.07,17.11-0.02c3.87-0.06,5.17-1.2,5.2-4.85
			c0.1-11.4,0.09-22.8,0-34.19c-0.03-3.7-1.31-4.94-5.09-4.96c-11.24-0.08-22.49-0.08-33.73,0c-4.01,0.03-5.19,1.25-5.22,5.34
			c-0.07,11.07-0.07,22.14,0,33.22c0.03,4.34,1.16,5.4,5.59,5.46C451.22,156.16,456.6,156.11,461.97,156.11z M72.77,215.61
			c0-5.37,0.03-10.75-0.01-16.12c-0.04-5.09-1-6.13-5.9-6.15c-10.75-0.05-21.51-0.05-32.26,0c-4.79,0.02-5.88,1.05-5.91,5.64
			c-0.06,10.91-0.06,21.82,0,32.73c0.03,4.61,1.12,5.64,5.89,5.66c10.75,0.05,21.51,0.05,32.26,0c4.93-0.02,5.87-1.04,5.92-6.13
			C72.8,226.03,72.77,220.82,72.77,215.61z M484.32,215.63c0-5.7,0.07-11.4-0.02-17.1c-0.06-3.84-1.22-5.14-4.88-5.17
			c-11.4-0.09-22.81-0.09-34.22,0c-3.69,0.03-4.91,1.32-4.94,5.11c-0.08,11.23-0.08,22.47,0,33.7c0.03,4,1.25,5.16,5.37,5.18
			c11.08,0.07,22.16,0.07,33.24,0c4.32-0.03,5.38-1.18,5.44-5.61C484.38,226.38,484.32,221,484.32,215.63z M50.53,318.66
			c5.38,0,10.75,0.04,16.13-0.01c5.08-0.04,6.07-0.98,6.09-5.96c0.05-10.75,0.05-21.49,0-32.24c-0.02-4.71-1.09-5.82-5.71-5.84
			c-10.75-0.06-21.51-0.05-32.26-0.01c-5.08,0.02-6.07,0.98-6.09,5.96c-0.05,10.75-0.05,21.49,0,32.24
			c0.02,4.71,1.09,5.78,5.71,5.84C39.78,318.71,45.16,318.66,50.53,318.66z M484.32,296.94c0-5.7,0.07-11.4-0.02-17.1
			c-0.06-3.86-1.2-5.17-4.85-5.2c-11.4-0.1-22.81-0.09-34.22,0c-3.7,0.03-4.94,1.31-4.97,5.09c-0.08,11.23-0.08,22.47,0,33.7
			c0.03,4.02,1.24,5.19,5.34,5.21c11.08,0.07,22.16,0.07,33.24,0c4.34-0.03,5.41-1.16,5.47-5.58
			C484.38,307.68,484.32,302.31,484.32,296.94z M50.64,399.93c5.7,0,11.41,0.07,17.11-0.03c3.53-0.06,4.94-1.27,4.97-4.58
			c0.11-11.56,0.1-23.12,0.01-34.68c-0.03-3.43-1.34-4.71-4.82-4.73c-11.4-0.09-22.81-0.09-34.22,0c-3.72,0.03-4.96,1.3-4.99,5.07
			c-0.08,11.23-0.08,22.47,0,33.7c0.03,4.03,1.23,5.17,5.32,5.24C39.56,400,45.1,399.94,50.64,399.93z M461.92,399.94
			c5.7,0,11.41,0.07,17.11-0.02c4.05-0.07,5.24-1.22,5.27-5.28c0.07-11.23,0.08-22.47-0.01-33.7c-0.03-3.73-1.29-4.99-5.04-5.02
			c-11.24-0.08-22.49-0.08-33.73-0.01c-4.05,0.03-5.24,1.22-5.27,5.28c-0.07,11.07-0.07,22.14-0.01,33.22
			c0.03,4.4,1.12,5.45,5.54,5.52C451.16,400,456.54,399.94,461.92,399.94z"/>
	</g>
	<g id="Charts_Slides_2_">
		<path class="st1" d="M260.16,380.91c-2.25,0-4.48-0.01-6.72-0.01l-4.44-0.27l-1.96-0.14c-13.77-1.05-26.98-4.3-39.78-9.85
			c0.5-0.95,0.85-1.67,1.25-2.36c12.53-21.71,25.06-43.41,37.59-65.12c7.27-12.59,14.52-25.18,21.8-37.76
			c0.62-1.06,1.83-3.22,1.9-3.43c0-0.01,0-0.11,0-0.11c0-0.22-0.02-1.8-0.06-2.73c0-2.56-0.08-5.06-0.13-7.59
			c0-39.22,0-78.44,0-117.66c0-0.7-0.01-1.4-0.01-2.45c3.94,0.63,7.85,1.09,11.52,1.83c30.34,6.17,55.25,21.39,74.27,45.77
			c19.64,25.18,28.21,53.93,26.12,85.84c-0.64,9.74-2.44,19.26-5.39,28.55c-7.77,24.44-21.72,44.68-41.81,60.57
			c-19.81,15.66-42.4,24.47-67.61,26.49c-0.89,0.1-0.75,0.09-1.47,0.16c-0.82,0.08-0.88,0.08-0.88,0.08
			C262.57,380.89,261.8,380.91,260.16,380.91z"/>
		<path class="st2" d="M248.73,264.64c-18.87,32.68-37.93,65.33-56.82,98.06c-15.85-9.73-28.8-22.13-39-37.4
			c-12.22-18.29-19.08-38.4-20.72-60.3C134.55,264.88,245.56,264.79,248.73,264.64z"/>
		<path class="st3" d="M252.33,131.09c0,38.79,0,77.39,0,116.13c-40.03,0-79.93,0-119.84,0
			C134.61,187.77,186.87,132.47,252.33,131.09z M233.65,228.81c0-26.69,0-53.17,0-79.7c-39.33,11.91-70.03,44.96-80.56,79.7
			C179.9,228.81,206.67,228.81,233.65,228.81z"/>
	</g>
</g>
<g>
</g>
<g>
</g>
<g>
</g>
<g>
</g>
<g>
</g>
</svg>
