<?xml version="1.0" encoding="utf-8"?>
<!-- Generator: Adobe Illustrator 25.0.1, SVG Export Plug-In . SVG Version: 6.00 Build 0)  -->
<svg version="1.1" id="Aspose.3D_Search" xmlns="http://www.w3.org/2000/svg" xmlns:xlink="http://www.w3.org/1999/xlink" x="0px"
	 y="0px" viewBox="0 0 512 512" style="enable-background:new 0 0 512 512;" xml:space="preserve">
<style type="text/css">
	.st0{fill-rule:evenodd;clip-rule:evenodd;fill:#3A8FC6;}
	.st1{fill:#3A8FC6;}
	.st2{fill:#3A8FC7;}
</style>
<g id="_x33_D_Search">
	<path class="st0" d="M207.74,18.52H39.47c-18.07,0-32.71,14.61-32.71,32.63c0,18.03,14.64,32.66,32.71,32.66h168.27
		c18.07,0,32.71-14.63,32.71-32.66C240.45,33.14,225.81,18.52,207.74,18.52z"/>
	<path class="st0" d="M145.91,126.83H39.47c-18.07,0-32.71,14.61-32.71,32.63c0,18.04,14.64,32.66,32.71,32.66h79.56
		c18.07,0,32.71-14.62,32.71-32.66C151.74,141.44,163.98,126.83,145.91,126.83z"/>
	<path class="st1" d="M492.9,421.58L375.17,319.01c-0.43-0.43-0.94-0.74-1.39-1.14c16.07-24.37,25.44-53.54,25.44-84.91
		c0-85.32-69.17-154.49-154.5-154.49c-85.32,0-154.49,69.17-154.49,154.49c0,85.33,69.17,154.5,154.49,154.5
		c31.38,0,60.54-9.38,84.91-25.43c0.41,0.45,0.71,0.95,1.14,1.39l102.58,117.74c16.45,16.44,43.11,16.44,59.56,0
		C509.35,464.7,509.35,438.03,492.9,421.58z M244.71,333.9c-55.74,0-100.93-45.19-100.93-100.94c0-55.75,45.19-100.93,100.93-100.93
		c55.75,0,100.94,45.19,100.94,100.93C345.65,288.71,300.46,333.9,244.71,333.9z"/>
	<g id="_x33_D_3_">
		<polygon class="st2" points="186.93,188.45 240.4,154.47 307.38,193.12 241.63,231.77 179.82,193.12 		"/>
		<polygon class="st2" points="176.83,200.95 176.83,274.91 236.16,312.08 236.16,238.24 		"/>
		<polygon class="st2" points="246.1,238.24 311.54,199.96 311.54,273.81 246.1,312.08 		"/>
	</g>
</g>
<g>
</g>
<g>
</g>
<g>
</g>
<g>
</g>
<g>
</g>
</svg>
