<?xml version="1.0" encoding="utf-8"?>
<!-- Generator: Adobe Illustrator 25.0.1, SVG Export Plug-In . SVG Version: 6.00 Build 0)  -->
<svg version="1.1" id="Layer_1" xmlns="http://www.w3.org/2000/svg" xmlns:xlink="http://www.w3.org/1999/xlink" x="0px" y="0px"
	 viewBox="0 0 512 512" style="enable-background:new 0 0 512 512;" xml:space="preserve">
<style type="text/css">
	.st0{fill:#3790C7;}
	.st1{fill-rule:evenodd;clip-rule:evenodd;fill:#3790C7;}
</style>
<g id="CV_Maker">
	<g>
		<g id="_x34_">
			<g>
				<g>
					<g>
						<path class="st0" d="M456.71,171.84c-9.43-6.5-24.41-10.61-39.88-12.94l-10.84,95.87H360.7l-10.88-96.23
							c-19.16,2.73-36.94,8.47-47.92,19.57c-12.92,13.06-13.06,36.63-13.06,54.65c0,43.29,0.52,36.67,116.02,37.38
							c72.98,0.45,72.98,4.79,72.98-37.38C477.85,209.47,477.04,185.84,456.71,171.84z"/>
					</g>
					<g>
						<path class="st0" d="M437.63,87.84c0,29.98-24.3,54.28-54.28,54.28c-29.98,0-54.28-24.3-54.28-54.28
							c0-29.98,24.3-54.28,54.28-54.28C413.33,33.56,437.63,57.86,437.63,87.84z"/>
					</g>
				</g>
				<g id="Tie_1_">
					<g>
						<path class="st0" d="M387.22,171.14h-7.74c-0.22,0-0.43-0.11-0.56-0.28l-8.09-11.23c-0.33-0.45,0-1.08,0.56-1.08h23.91
							c0.56,0,0.88,0.63,0.56,1.08l-8.09,11.23C387.64,171.03,387.44,171.14,387.22,171.14z"/>
					</g>
					<g>
						<path class="st0" d="M390.21,240.48h-13.76c-0.22,0-0.39-0.21-0.39-0.47l2.36-64.12c0-0.4,0.28-0.73,0.62-0.73h8.61
							c0.34,0,0.62,0.33,0.62,0.73l2.36,64.09C390.63,240.26,390.44,240.48,390.21,240.48z"/>
					</g>
					<g>
						<path class="st0" d="M383.6,246.37l6.98-5.73c0.29-0.24,0.12-0.72-0.26-0.72h-13.96c-0.38,0-0.55,0.48-0.26,0.72l6.98,5.73
							C383.24,246.49,383.45,246.49,383.6,246.37z"/>
					</g>
				</g>
			</g>
			<g>
				<g>
					<g>
						<path class="st0" d="M219.92,51.86H110.9c-3.02,0-5.42,2.7-5.3,5.95c0.06,1.54,0.07,3.09,0.04,4.63
							c-0.07,3.03,2.21,5.52,5.03,5.52h109.25c0.05,0,0.08,0.04,0.08,0.09v193.12c0,0.05-0.04,0.09-0.08,0.09H64.86
							c-0.05,0-0.08-0.04-0.08-0.09V157.11c0-2.6-1.86-4.77-4.28-4.97c-0.65-0.05-1.28-0.09-1.86-0.1c-1.3-0.01-2.6-0.02-3.9-0.04
							c-2.74-0.02-4.97,2.36-4.97,5.3v103.86c0,8.94,6.75,16.19,15.08,16.19h155.06c8.33,0,15.08-7.25,15.08-16.18V68.04
							C235,59.1,228.25,51.86,219.92,51.86z"/>
						<path class="st0" d="M219.92,279.85H64.86c-9.7,0-17.58-8.38-17.58-18.69V157.31c0-2.14,0.85-4.2,2.33-5.67
							c1.4-1.39,3.22-2.13,5.17-2.13l3.89,0.04c0.58,0,1.23,0.04,2.04,0.1c3.69,0.3,6.57,3.58,6.57,7.46v101.65H217.5V70.45H110.67
							c-1.98,0-3.85-0.8-5.26-2.24c-1.49-1.52-2.32-3.65-2.27-5.83c0.03-1.52,0.02-3.02-0.03-4.48c-0.09-2.31,0.76-4.56,2.32-6.18
							c1.47-1.52,3.41-2.36,5.48-2.36h109.02c9.7,0,17.58,8.38,17.58,18.69v193.12C237.5,271.47,229.61,279.85,219.92,279.85z
							 M54.7,154.51c-0.74,0-1.27,0.37-1.58,0.68c-0.54,0.53-0.85,1.31-0.85,2.12v103.86c0,7.55,5.65,13.69,12.58,13.69h155.06
							c6.94,0,12.58-6.14,12.58-13.69V68.04c0-7.55-5.65-13.69-12.58-13.69H110.9c-0.7,0-1.36,0.29-1.88,0.83
							c-0.62,0.65-0.96,1.56-0.92,2.52c0.06,1.56,0.07,3.16,0.04,4.78c-0.02,0.85,0.29,1.66,0.85,2.23
							c0.47,0.48,1.07,0.74,1.69,0.74h109.25c1.42,0,2.58,1.16,2.58,2.59v193.12c0,1.43-1.16,2.59-2.58,2.59H64.86
							c-1.43,0-2.58-1.16-2.58-2.59V157.11c0-1.3-0.87-2.38-1.98-2.47c-0.68-0.06-1.21-0.08-1.67-0.09l-3.9-0.04
							C54.72,154.51,54.71,154.51,54.7,154.51z"/>
					</g>
				</g>
				<g>
					<path class="st0" d="M35.15,104.97l0-67.54c0-1.45,1.17-2.62,2.62-2.62c1.45,0,2.62,1.17,2.62,2.62l0,67.54
						c0,4.74,1.86,9.22,5.24,12.6c3.38,3.38,7.86,5.24,12.6,5.24s9.22-1.86,12.6-5.24c3.38-3.38,5.24-7.86,5.24-12.6l0-67.54
						c0-6.67-5.47-11.7-12.73-11.7c-7.26,0-12.73,5.03-12.73,11.7l0,63.45c0,3.06,2.49,5.56,5.56,5.56c3.07,0,5.56-2.5,5.56-5.56
						l0-42.98c0-1.45,1.17-2.62,2.62-2.62c1.45,0,2.62,1.17,2.62,2.62v42.98c0,5.96-4.85,10.81-10.81,10.81
						c-5.97,0-10.81-4.86-10.81-10.81V37.43c0-9.66,7.73-16.95,17.98-16.95c10.25,0,17.97,7.29,17.97,16.95v67.54
						c0,6.15-2.41,11.94-6.78,16.31c-4.37,4.37-10.17,6.78-16.31,6.78c-6.15,0-11.94-2.41-16.31-6.78
						C37.56,116.91,35.15,111.11,35.15,104.97z"/>
					<path class="st0" d="M58.24,129.06c-6.41,0-12.45-2.51-17.02-7.07c-4.56-4.56-7.07-10.6-7.07-17.02V37.43
						c0-2,1.63-3.62,3.62-3.62c2,0,3.62,1.63,3.62,3.62v67.54c0,4.48,1.76,8.7,4.95,11.89c3.19,3.19,7.42,4.95,11.89,4.95
						c4.48,0,8.7-1.76,11.89-4.95c3.19-3.19,4.95-7.42,4.95-11.89V37.43c0-6.1-5.04-10.7-11.73-10.7s-11.73,4.6-11.73,10.7v63.45
						c0,2.51,2.05,4.56,4.56,4.56c2.52,0,4.56-2.05,4.56-4.56V57.9c0-2,1.63-3.62,3.62-3.62c2,0,3.62,1.63,3.62,3.62v42.98
						c0,6.51-5.3,11.81-11.81,11.81c-6.51,0-11.81-5.3-11.81-11.81V37.43c0-10.23,8.16-17.95,18.98-17.95
						c10.81,0,18.97,7.72,18.97,17.95v67.54c0,6.41-2.51,12.46-7.07,17.02C70.7,126.55,64.66,129.06,58.24,129.06
						C58.24,129.06,58.24,129.06,58.24,129.06z M37.78,35.8c-0.9,0-1.62,0.73-1.62,1.62v67.54c0,5.88,2.3,11.42,6.49,15.6
						c4.18,4.18,9.72,6.49,15.6,6.49c0,0,0,0,0,0c5.88,0,11.42-2.31,15.6-6.49c4.18-4.18,6.49-9.73,6.49-15.6V37.43
						c0-9.09-7.3-15.95-16.97-15.95c-9.68,0-16.97,6.86-16.98,15.95v63.45c0,5.41,4.4,9.81,9.81,9.81c5.41,0,9.81-4.4,9.81-9.81
						V57.9c0-0.9-0.73-1.62-1.62-1.62c-0.9,0-1.62,0.73-1.62,1.62v42.98c0,3.62-2.94,6.56-6.56,6.56c-3.62,0-6.56-2.95-6.56-6.56
						V37.43c0-7.24,5.9-12.7,13.73-12.7c7.82,0,13.73,5.46,13.73,12.7v67.54c0,5.01-1.97,9.74-5.54,13.31
						c-3.57,3.57-8.3,5.54-13.31,5.54c-5.01,0-9.74-1.97-13.31-5.54c-3.57-3.57-5.54-8.3-5.54-13.31V37.43
						C39.4,36.53,38.67,35.8,37.78,35.8z"/>
				</g>
			</g>
		</g>
		<g>
			<g>
				<path class="st0" d="M184.89,180.83h-85c-8.28,0-15-6.72-15-15v0c0-8.28,6.72-15,15-15h85c8.28,0,15,6.72,15,15v0
					C199.89,174.12,193.17,180.83,184.89,180.83z"/>
			</g>
			<g>
				<path class="st0" d="M184.89,124.75h-52c-8.28,0-15-6.72-15-15v0c0-8.28,6.72-15,15-15h52c8.28,0,15,6.72,15,15v0
					C199.89,118.04,193.17,124.75,184.89,124.75z"/>
			</g>
			<g>
				<path class="st0" d="M184.89,234.45h-85c-8.28,0-15-6.72-15-15v0c0-8.28,6.72-15,15-15h85c8.28,0,15,6.72,15,15v0
					C199.89,227.74,193.17,234.45,184.89,234.45z"/>
			</g>
		</g>
	</g>
	<g>
		<g>
			<path class="st1" d="M447.14,384.94H75.86c-16.57,0-30-13.43-30-30v0c0-16.57,13.43-30,30-30h371.27c16.57,0,30,13.43,30,30v0
				C477.14,371.51,463.71,384.94,447.14,384.94z"/>
		</g>
		<g>
			<path class="st1" d="M365.22,492.52H77.23c-16.57,0-30-13.43-30-30v0c0-16.57,13.43-30,30-30h287.99c16.57,0,30,13.43,30,30v0
				C395.22,479.09,381.79,492.52,365.22,492.52z"/>
		</g>
	</g>
</g>
<g>
</g>
<g>
</g>
<g>
</g>
<g>
</g>
<g>
</g>
</svg>
