<?xml version="1.0" encoding="utf-8"?>
<!-- Generator: Adobe Illustrator 25.0.1, SVG Export Plug-In . SVG Version: 6.00 Build 0)  -->
<svg version="1.1" id="Layer_1" xmlns="http://www.w3.org/2000/svg" xmlns:xlink="http://www.w3.org/1999/xlink" x="0px" y="0px"
	 viewBox="0 0 512 512" style="enable-background:new 0 0 512 512;" xml:space="preserve">
<style type="text/css">
	.st0{fill:#3291C7;}
	.st1{fill:#3391C6;}
</style>
<g>
	<g>
		<path class="st0" d="M264.56,351.88h52.38v65.41c-14.22,4.87-29.86,7.3-46.9,7.3c-18.71,0-33.16-5.42-43.37-16.27
			c-10.21-10.85-15.31-26.31-15.31-46.4c0-19.59,5.59-34.83,16.77-45.74c11.18-10.9,26.84-16.35,46.98-16.35
			c7.64,0,14.84,0.72,21.62,2.16c6.78,1.44,12.69,3.27,17.72,5.48l-10.38,25.73c-8.75-4.32-18.35-6.47-28.8-6.47
			c-9.57,0-16.97,3.11-22.2,9.34c-5.23,6.22-7.84,15.12-7.84,26.69c0,11.34,2.37,19.99,7.1,25.94c4.73,5.95,11.55,8.92,20.46,8.92
			c4.87,0,9.35-0.47,13.45-1.41V377.2h-21.66V351.88z"/>
		<path class="st0" d="M340.82,422.94V301.58h32.95v121.36H340.82z"/>
		<path class="st0" d="M431.45,422.94h-32.29V301.58h71.72v26.31h-39.43v23.16h36.36v26.31h-36.36V422.94z"/>
	</g>
	<g id="BG_Shapes">
		<g id="Rounded_Rectangle_6">
			<path class="st0" d="M251.82,146h-25.39c-9.94,0-18,8.06-18,18v1.57c0,9.94,8.06,18,18,18h25.39c9.94,0,18-8.06,18-18V164
				C269.82,154.06,261.76,146,251.82,146z"/>
		</g>
		<g id="Rounded_Rectangle_6_copy">
			<path class="st0" d="M335.82,146h-25.39c-9.94,0-18,8.06-18,18v1.57c0,9.94,8.06,18,18,18h25.39c9.94,0,18-8.06,18-18V164
				C353.82,154.06,345.76,146,335.82,146z"/>
		</g>
		<g id="Rounded_Rectangle_6_copy_2">
			<path class="st0" d="M420.82,146h-25.39c-9.94,0-18,8.06-18,18v1.57c0,9.94,8.06,18,18,18h25.39c9.94,0,18-8.06,18-18V164
				C438.82,154.06,430.76,146,420.82,146z"/>
		</g>
		<g id="Rounded_Rectangle_6_copy_3">
			<path class="st0" d="M251.82,218h-25.39c-9.94,0-18,8.06-18,18v1.57c0,9.94,8.06,18,18,18h25.39c9.94,0,18-8.06,18-18V236
				C269.82,226.06,261.76,218,251.82,218z"/>
		</g>
		<g id="Rounded_Rectangle_6_copy_3_1_">
			<path class="st0" d="M335.82,219h-25.39c-9.94,0-18,8.06-18,18v1.57c0,9.94,8.06,18,18,18h25.39c9.94,0,18-8.06,18-18V237
				C353.82,227.06,345.76,219,335.82,219z"/>
		</g>
		<g id="Rounded_Rectangle_6_copy_3_2_">
			<path class="st0" d="M420.82,219h-25.39c-9.94,0-18,8.06-18,18v1.57c0,9.94,8.06,18,18,18h25.39c9.94,0,18-8.06,18-18V237
				C438.82,227.06,430.76,219,420.82,219z"/>
		</g>
		<g>
			<g>
				<path class="st1" d="M111.43,98.23V78.5c0-13.81,11.19-25,25-25h210c13.81,0,25,11.19,25,25V112h52V78.5c0-42.46-34.54-77-77-77
					h-210c-42.46,0-77,34.54-77,77v23.9C70.46,98.9,82.24,97,94.47,97C100.24,97,105.9,97.42,111.43,98.23z"/>
				<path class="st1" d="M369.46,443.23c-3.79,8.97-12.68,15.27-23.04,15.27h-210c-13.81,0-25-11.19-25-25V315.77
					c-5.53,0.81-11.19,1.23-16.96,1.23c-12.23,0-24.01-1.9-35.04-5.4v121.9c0,42.46,34.54,77,77,77h210
					c39.16,0,71.56-29.39,76.36-67.27H369.46z"/>
			</g>
			<path class="st0" d="M96.43,111.7c-52.63,0-95.3,42.67-95.3,95.3s42.67,95.3,95.3,95.3s95.3-42.67,95.3-95.3
				S149.06,111.7,96.43,111.7z M135.32,220.34l-44.52,44.52c-6.53,6.53-17.12,6.53-23.65,0c-6.53-6.53-6.53-17.12,0-23.65
				l33.32-33.32l-33.32-33.32c-6.53-6.53-6.53-17.12,0-23.65c6.53-6.53,17.12-6.53,23.65,0l44.52,44.52
				c3.43,3.43,5.05,7.97,4.88,12.46C140.36,212.38,138.74,216.92,135.32,220.34z"/>
		</g>
	</g>
</g>
<g>
</g>
<g>
</g>
<g>
</g>
<g>
</g>
<g>
</g>
</svg>
