<?xml version="1.0" encoding="utf-8"?>
<!-- Generator: Adobe Illustrator 25.0.1, SVG Export Plug-In . SVG Version: 6.00 Build 0)  -->
<svg version="1.1" id="Layer_1" xmlns="http://www.w3.org/2000/svg" xmlns:xlink="http://www.w3.org/1999/xlink" x="0px" y="0px"
	 viewBox="0 0 512 512" style="enable-background:new 0 0 512 512;" xml:space="preserve">
<style type="text/css">
	.st0{fill:#3693CC;}
	.st1{fill:#3793CC;}
</style>
<g id="OrgChart">
	<g>
		<g>
			<path class="st0" d="M507,365v122.5c0,6.1-5.4,11-12.1,11H340.2c-6.7,0-12.1-4.9-12.1-11V365c0-6.1,5.4-11,12.1-11h154.7
				C501.5,354,507,358.9,507,365z"/>
		</g>
		<g>
			<path class="st0" d="M183.9,365v122.5c0,6.1-5.4,11-12.1,11H17.1c-6.7,0-12.1-4.9-12.1-11V365c0-6.1,5.4-11,12.1-11h154.7
				C178.5,354,183.9,358.9,183.9,365z"/>
		</g>
	</g>
	<g>
		<g>
			<rect x="91.2" y="255.9" class="st0" width="344.3" height="36"/>
		</g>
		<g>
			<rect x="73.2" y="256" class="st0" width="36" height="118.1"/>
		</g>
		<g>
			<rect x="236.1" y="182.2" class="st0" width="36" height="82.2"/>
		</g>
		<g>
			<rect x="399.5" y="256" class="st0" width="36" height="98"/>
		</g>
	</g>
	<g>
		<path class="st1" d="M346.9,45.6c2.8,0,5,2.3,5,5v114c0,2.8-2.3,5-5,5H165.1c-2.8,0-5-2.3-5-5v-114c0-2.8,2.3-5,5-5H346.9
			 M346.9,13.6H165.1c-20.4,0-37,16.6-37,37v114c0,20.4,16.6,37,37,37h181.8c20.4,0,37-16.6,37-37v-114
			C383.9,30.2,367.3,13.6,346.9,13.6L346.9,13.6z"/>
		<g>
			<g>
				<path class="st0" d="M287.5,94.3c0,17.4-14.1,31.5-31.5,31.5c-17.4,0-31.5-14.1-31.5-31.5c0-17.4,14.1-31.5,31.5-31.5
					C273.4,62.8,287.5,76.9,287.5,94.3z"/>
				<path class="st0" d="M310.9,169.2c0,19.4,0,17.4-42.4,17.2c-67.1-0.3-67.4,2.7-67.4-17.2c0-19.4,24.6-35.1,54.9-35.1
					S310.9,149.9,310.9,169.2z"/>
			</g>
		</g>
	</g>
</g>
</svg>
