<?xml version="1.0" encoding="utf-8"?>
<!-- Generator: Adobe Illustrator 25.0.1, SVG Export Plug-In . SVG Version: 6.00 Build 0)  -->
<svg version="1.1" id="Layer_1" xmlns="http://www.w3.org/2000/svg" xmlns:xlink="http://www.w3.org/1999/xlink" x="0px" y="0px"
	 viewBox="0 0 512 512" style="enable-background:new 0 0 512 512;" xml:space="preserve">
<style type="text/css">
	.st0{fill:#3592C7;}
</style>
<g id="ZIP_Converter">
	<g>
		<g>
			<path class="st0" d="M200.77,200.05v-29.98h32.52v-30.34h-32.47v-29.98h32.42V79.58h-32.38V49.65l0.01-0.23c0-0.01,0-0.11,0-0.21
				c-0.01-0.08-0.01-0.12-0.01-0.2c0,0,0-0.18,0-0.15c0-0.08-0.01-0.09,0-0.17c0-0.05,0-0.09,0-0.14c0-0.07,0,0,0-0.07
				c0-0.04,0-0.06,0-0.1c-1.76,0-3.47,0-5.24,0c-6.69,0.04-13.39-0.04-20.08-0.06c-13.6-0.05-26.54-0.1-40.14-0.12
				c-0.01,0.26,0.01,0.42,0.01,0.68c0,0.39-0.01,0.24-0.01,0.64c0.02,0.38,0.02,0.31,0.02,0.52V79.8h32.66v30.34h-32.48v29.98h32.43
				v30.16h-32.38v30.16h32.51v29.98h-32.47v132.16h97.63V200.05H200.77z M201.14,330.37h-33.49v-33.52h33.49V330.37z"/>
		</g>
	</g>
	<g>
		<path class="st0" d="M381.92,385.83c-18.33,0-35.66-4.3-51.05-11.92v59.34c0,12.61-10.26,22.86-22.86,22.86H100.18
			c-12.61,0-22.86-10.25-22.86-22.86V78.75c0-12.61,10.25-22.86,22.86-22.86h207.83c12.61,0,22.86,10.25,22.86,22.86v88.57
			c15.39-7.62,32.71-11.92,51.05-11.92c0.45,0,0.89,0.03,1.34,0.03V78.75c0-41.49-33.76-75.25-75.25-75.25H100.18
			c-41.49,0-75.25,33.75-75.25,75.25v354.51c0,41.49,33.75,75.24,75.25,75.24h207.83c41.49,0,75.25-33.75,75.25-75.24V385.8
			C382.81,385.81,382.37,385.83,381.92,385.83z"/>
	</g>
	<g id="Ellipse_1_copy">
		<g>
			<path class="st0" d="M381.45,189.46c44.37,0,80.47,36.1,80.47,80.47c0,44.37-36.1,80.47-80.47,80.47s-80.47-36.1-80.47-80.47
				C300.99,225.56,337.08,189.46,381.45,189.46 M381.45,164.31c-58.33,0-105.61,47.28-105.61,105.61s47.28,105.61,105.61,105.61
				s105.61-47.28,105.61-105.61S439.78,164.31,381.45,164.31L381.45,164.31z"/>
		</g>
	</g>
	<g>
		<path class="st0" d="M403.2,252.39l-47.63,51.04c-0.49,0.53-1.18,0.83-1.89,0.83h-23.94c-1.43,0-2.59-1.16-2.59-2.59v-12.1
			c0-1.43,1.16-2.59,2.59-2.59h18.15l47.63-51.04c0.43-0.45,1.27-0.82,1.89-0.82h12.7v-8.64c0-4.63,5.61-6.91,8.85-3.67l17.29,17.28
			c2.03,2.02,2.03,5.31,0,7.33l-17.29,17.28c-3.24,3.25-8.85,0.97-8.85-3.67v-8.64H403.2z M327.14,249.8v-12.1
			c0-1.43,1.16-2.59,2.59-2.59h23.94c0.62,0,1.47,0.37,1.89,0.82l15.25,16.34l-11.52,12.35l-11.4-12.22h-18.15
			C328.3,252.39,327.14,251.23,327.14,249.8z M436.25,299.27l-17.29,17.28c-3.24,3.25-8.85,0.97-8.85-3.67v-8.64h-12.7
			c-0.62,0-1.47-0.37-1.89-0.83l-15.25-16.33l11.52-12.35l11.41,12.22h6.91v-8.64c0-4.63,5.61-6.91,8.85-3.67l17.29,17.28
			C438.28,293.96,438.28,297.25,436.25,299.27z"/>
	</g>
</g>
<g>
</g>
<g>
</g>
<g>
</g>
<g>
</g>
<g>
</g>
</svg>
