<?xml version="1.0" encoding="utf-8"?>
<!-- Generator: Adobe Illustrator 25.0.1, SVG Export Plug-In . SVG Version: 6.00 Build 0)  -->
<svg version="1.1" id="Layer_1" xmlns="http://www.w3.org/2000/svg" xmlns:xlink="http://www.w3.org/1999/xlink" x="0px" y="0px"
	 viewBox="0 0 512 512" style="enable-background:new 0 0 512 512;" xml:space="preserve">
<style type="text/css">
	.st0{fill-rule:evenodd;clip-rule:evenodd;fill:#3A8FC6;}
</style>
<g id="signature">
	<path class="st0" d="M185.09,317.56l-25.72,90.24l90.85-25.24l20.16-20.11l-65.13-65L185.09,317.56z M491.94,76.32
		c-17.99-17.95-47.14-17.95-65.12,0L226.96,275.78l65.12,65l199.86-199.47C509.93,123.37,509.93,94.27,491.94,76.32z M102.5,395.52
		H33.43c-14.84,0-26.86,12.02-26.86,26.82c0,14.8,12.02,26.8,26.86,26.8h69.07c14.84,0,26.86-12.01,26.86-26.8
		C129.36,407.54,117.34,395.52,102.5,395.52z"/>
</g>
<g>
</g>
<g>
</g>
<g>
</g>
<g>
</g>
<g>
</g>
</svg>
