<?xml version="1.0" encoding="utf-8"?>
<!-- Generator: Adobe Illustrator 25.0.1, SVG Export Plug-In . SVG Version: 6.00 Build 0)  -->
<svg version="1.1" id="Aspose.Video_Crop" xmlns="http://www.w3.org/2000/svg" xmlns:xlink="http://www.w3.org/1999/xlink" x="0px"
	 y="0px" viewBox="0 0 512 512" style="enable-background:new 0 0 512 512;" xml:space="preserve">
<style type="text/css">
	.st0{fill:#3593CB;}
	.st1{fill:#3093CD;}
	.st2{fill:#FFFFFF;}
	.st3{fill:#3890C8;}
</style>
<g id="Crop_Video">
	<g id="Reel">
		<g id="Base_1_">
			<g>
				<g>
					<path class="st0" d="M459.3,465.9H52.7c-26.8,0-48.6-21.8-48.6-48.6V94.4c0-26.6,21.7-48.3,48.3-48.3h407.2
						c26.6,0,48.3,21.7,48.3,48.3v322.9C507.9,444.1,486.1,465.9,459.3,465.9z M52.4,88.1c-3.5,0-6.3,2.8-6.3,6.3v322.9
						c0,3.6,3,6.6,6.6,6.6h406.6c3.6,0,6.6-3,6.6-6.6V94.4c0-3.5-2.8-6.3-6.3-6.3H52.4z"/>
				</g>
			</g>
			<g>
				<g>
					<g>
						<g>
							<rect x="37.5" y="77" class="st1" width="434.8" height="70.9"/>
						</g>
					</g>
				</g>
				<g>
					<g>
						<g>
							<g>
								<path class="st2" d="M411.2,122c-1.6,0-3-1.3-3-3V72.7c0-1.6,1.3-3,3-3h46.4c1.6,0,3,1.3,3,3V119c0,1.6-1.3,3-3,3H411.2z"/>
							</g>
						</g>
					</g>
					<g>
						<g>
							<g>
								<path class="st2" d="M291.1,122c-1.6,0-3-1.3-3-3V72.7c0-1.6,1.3-3,3-3h46.4c1.6,0,3,1.3,3,3V119c0,1.6-1.3,3-3,3H291.1z"/>
							</g>
						</g>
					</g>
					<g>
						<g>
							<g>
								<path class="st2" d="M54.5,122c-1.6,0-3-1.3-3-3V72.7c0-1.6,1.3-3,3-3h46.4c1.6,0,3,1.3,3,3V119c0,1.6-1.3,3-3,3H54.5z"/>
							</g>
						</g>
					</g>
					<g>
						<g>
							<g>
								<path class="st2" d="M171.1,122c-1.6,0-3-1.3-3-3V72.7c0-1.6,1.3-3,3-3h46.4c1.6,0,3,1.3,3,3V119c0,1.6-1.3,3-3,3H171.1z"/>
							</g>
						</g>
					</g>
				</g>
			</g>
			<g>
				<g>
					<g>
						<g>
							<rect x="37.5" y="363.9" class="st1" width="434.8" height="70.9"/>
						</g>
					</g>
				</g>
				<g>
					<g>
						<g>
							<g>
								<path class="st2" d="M411.2,389.8c-1.6,0-3,1.3-3,3v46.4c0,1.6,1.3,3,3,3h46.4c1.6,0,3-1.3,3-3v-46.4c0-1.6-1.3-3-3-3H411.2
									z"/>
							</g>
						</g>
					</g>
					<g>
						<g>
							<g>
								<path class="st2" d="M291.1,389.8c-1.6,0-3,1.3-3,3v46.4c0,1.6,1.3,3,3,3h46.4c1.6,0,3-1.3,3-3v-46.4c0-1.6-1.3-3-3-3H291.1
									z"/>
							</g>
						</g>
					</g>
					<g>
						<g>
							<g>
								<path class="st2" d="M54.5,389.8c-1.6,0-3,1.3-3,3v46.4c0,1.6,1.3,3,3,3h46.4c1.6,0,3-1.3,3-3v-46.4c0-1.6-1.3-3-3-3H54.5z"
									/>
							</g>
						</g>
					</g>
					<g>
						<g>
							<g>
								<path class="st2" d="M171.1,389.8c-1.6,0-3,1.3-3,3v46.4c0,1.6,1.3,3,3,3h46.4c1.6,0,3-1.3,3-3v-46.4c0-1.6-1.3-3-3-3H171.1
									z"/>
							</g>
						</g>
					</g>
				</g>
			</g>
		</g>
	</g>
	<g id="Crop">
		<g id="Rectangle_11_2_">
			<rect x="184.3" y="171.5" class="st3" width="25" height="149.7"/>
		</g>
		<g id="Rectangle_11_copy_2_">
			<rect x="302.7" y="188.5" class="st3" width="25" height="152.1"/>
		</g>
		<g id="Rectangle_11_copy_2_8_">
			<rect x="218.3" y="184.3" class="st3" width="109.4" height="25"/>
		</g>
		<g id="Rectangle_11_copy_2_7_">
			<rect x="155.3" y="184.3" class="st3" width="20" height="25"/>
		</g>
		<g id="Rectangle_11_copy_2_6_">
			<rect x="184.3" y="302.7" class="st3" width="109.4" height="25"/>
		</g>
		<g id="Rectangle_11_copy_2_5_">
			<rect x="336.7" y="302.7" class="st3" width="20" height="25"/>
		</g>
	</g>
</g>
</svg>
