<svg version="1.1" id="Aspose.Video" xmlns="http://www.w3.org/2000/svg" x="0" y="0" viewBox="0 0 512 512" style="enable-background:new 0 0 512 512" xml:space="preserve"><style>.st0{fill:#3593cb}.st1{fill:#3093cd}.st2{fill:#fff}</style><g id="Image_to_Video"><path class="st0" d="m197.4 94.2-92.6 106h185.1z"/><path class="st0" d="m104.8 133.3-49.5 66.9h99z"/><circle class="st0" cx="130.9" cy="88.3" r="16.5"/><g id="Video_Reverse_2_"><path class="st0" d="m35.5 282.3 123.9-.3-.1-27.8-123.9.3c-2.3 0-4.2-1.9-4.2-4.2l-.5-214c0-2.4 2-4.4 4.4-4.4l269.4-.6c2.4 0 4.4 2 4.4 4.4l.4 181c9.3-.2 18.6-.5 27.8-.7l-.4-180.4c0-17.8-14.5-32.2-32.3-32.1l-269.3.7C17.3 4.2 2.9 18.7 3 36.4l.5 214c0 17.6 14.4 32 32 31.9z"/></g><g><path class="st0" d="M120.4 433.8c-8.8 0-20.8-.8-32.2-4.4-19.2-5.9-35.3-18.1-47.8-36.2C24 369.6 28 320.5 28.6 314.9c.6-6 5.9-10.5 12-9.9 6 .6 10.5 5.9 9.9 12-1.6 17.8-.9 50.9 8 63.8 9.7 14.1 21.6 23.2 36.1 27.6 16.7 5.1 36.1 2.9 36.3 2.9 6-.7 11.5 3.6 12.2 9.6.7 6-3.5 11.5-9.6 12.2-.4.1-5.6.7-13.1.7z"/><path class="st0" d="M113.4 457.3c3.7 4.2 10 4.5 14.1.8l29.9-27c4.1-3.7 4.5-10.1.9-14.3-3.7-4.2-10-4.5-14.1-.8l-29.9 27c-4.2 3.8-4.6 10.2-.9 14.3z"/><path class="st0" d="M117.8 386c-4.1 3.7-4.5 10.1-.9 14.3l26.4 30.1c3.7 4.2 10 4.5 14.1.8s4.5-10.1.9-14.3l-26.4-30.1c-3.7-4.2-10-4.6-14.1-.8z"/></g><g><path class="st0" d="m379.3 412.6-97.6.2c-4 0-7.2-3.2-7.2-7.2l-.2-71.9c0-4 3.2-7.2 7.2-7.2l97.6-.2c4 0 7.2 3.2 7.2 7.2l.2 71.9c-.1 3.9-3.3 7.2-7.2 7.2z"/><path class="st0" d="m369.6 373 46 39c3 2.5 7.6.4 7.6-3.5l-.2-78.2c0-3.9-4.6-6.1-7.6-3.5L369.6 366c-2.2 1.8-2.1 5.2 0 7z"/><g id="Base_5_"><path class="st0" d="M476.8 508.4H207.4c-17.8 0-32.2-14.4-32.2-32.2v-214c0-17.6 14.4-32 32-32H477c17.6 0 32 14.4 32 32v214c0 17.8-14.4 32.2-32.2 32.2zM207.2 258.1c-2.3 0-4.2 1.9-4.2 4.2v214c0 2.4 2 4.4 4.4 4.4h269.4c2.4 0 4.4-2 4.4-4.4v-214c0-2.3-1.9-4.2-4.2-4.2H207.2z"/><path class="st1" d="M197.3 250.7h288.2v47H197.3z"/><path class="st2" d="M444.9 280.6c-1.1 0-2-.9-2-2v-30.7c0-1.1.9-2 2-2h30.7c1.1 0 2 .9 2 2v30.7c0 1.1-.9 2-2 2h-30.7zM365.4 280.6c-1.1 0-2-.9-2-2v-30.7c0-1.1.9-2 2-2h30.7c1.1 0 2 .9 2 2v30.7c0 1.1-.9 2-2 2h-30.7zM208.6 280.6c-1.1 0-2-.9-2-2v-30.7c0-1.1.9-2 2-2h30.7c1.1 0 2 .9 2 2v30.7c0 1.1-.9 2-2 2h-30.7zM285.9 280.6c-1.1 0-2-.9-2-2v-30.7c0-1.1.9-2 2-2h30.7c1.1 0 2 .9 2 2v30.7c0 1.1-.9 2-2 2h-30.7z"/><g><path class="st1" d="M197.3 440.9h288.2v47H197.3z"/><path class="st2" d="M444.9 458.1c-1.1 0-2 .9-2 2v30.7c0 1.1.9 2 2 2h30.7c1.1 0 2-.9 2-2V460c0-1.1-.9-2-2-2h-30.7zM365.4 458.1c-1.1 0-2 .9-2 2v30.7c0 1.1.9 2 2 2h30.7c1.1 0 2-.9 2-2V460c0-1.1-.9-2-2-2h-30.7zM208.6 458.1c-1.1 0-2 .9-2 2v30.7c0 1.1.9 2 2 2h30.7c1.1 0 2-.9 2-2V460c0-1.1-.9-2-2-2h-30.7zM285.9 458.1c-1.1 0-2 .9-2 2v30.7c0 1.1.9 2 2 2h30.7c1.1 0 2-.9 2-2V460c0-1.1-.9-2-2-2h-30.7z"/></g></g></g></g></svg>