<?xml version="1.0" encoding="utf-8"?>
<!-- Generator: Adobe Illustrator 25.0.1, SVG Export Plug-In . SVG Version: 6.00 Build 0)  -->
<svg version="1.1" id="Layer_1" xmlns="http://www.w3.org/2000/svg" xmlns:xlink="http://www.w3.org/1999/xlink" x="0px" y="0px"
	 viewBox="0 0 512 512" style="enable-background:new 0 0 512 512;" xml:space="preserve">
<style type="text/css">
	.st0{fill:#3592C7;}
	.st1{fill:#3990C7;}
</style>
<g id="SVG">
	<g id="Base_5_">
		<g>
			<g>
				<path class="st0" d="M439.15,336.96v96.54c0,13.81-11.19,25-25,25h-210c-13.81,0-25-11.19-25-25v-355c0-13.81,11.19-25,25-25
					h210c13.81,0,25,11.19,25,25v51.26l51.72-34.66l0.28-0.33V78.5c0-42.46-34.54-77-77-77h-210c-42.46,0-77,34.54-77,77v355
					c0,42.46,34.54,77,77,77h210c42.46,0,77-34.54,77-77V310.21c0,0-19.37,12.28-26.07,15.72
					C458.78,329.18,439.15,336.96,439.15,336.96z"/>
			</g>
			<g>
				<path class="st0" d="M309.95,146.05c-24.5,0-48.99,0.09-73.49-0.04c-12.81-0.07-23.2-9.17-25.49-21.85
					c-2.11-11.72,4.96-23.89,16.49-28.35c3.14-1.21,6.38-1.77,9.76-1.77c48.66,0.02,97.32-0.03,145.98,0.04
					c14.99,0.02,26.53,11.53,26.5,26.11c-0.03,14.5-11.66,25.81-26.76,25.85C358.61,146.09,334.28,146.05,309.95,146.05z"/>
			</g>
		</g>
		<g>
			<g>
				<path class="st0" d="M118.86,50.98c-4.08,14.67-4.94,29.63-3.62,44.51c-3.39,0.43-5.1,0.48-7.56,0.5
					c-11.17,0.06-22.33,0.01-33.5,0.03c-16.19,0.04-26.5,10.3-26.53,26.59c-0.06,37.83-0.02,75.66-0.02,113.49
					c0,50.5,0.33,101-0.19,151.49c-0.17,16.99,11.41,29.28,28.51,28.51c11.48-0.51,22.99-0.12,34.49-0.08
					c1.62,0.01,2.56,0,5.26,0.15c-1.9,14.65-1.11,29.82,2.25,44.83c-12.47,0-24.44-0.01-36.42,0c-8.16,0.01-16.28,0.02-24.34-1.82
					c-31.52-7.18-54.41-34.89-54.48-67.25C2.55,301.3,2.51,210.63,2.74,119.97c0.1-38.05,31.28-68.7,69.3-68.94
					c14.17-0.09,28.33-0.02,42.5-0.01C115.85,51.02,117.09,50.96,118.86,50.98z"/>
			</g>
			<g>
				<path class="st0" d="M114.47,247.94c-9.96,0-19.77,0.65-29.45-0.17c-11.15-0.95-18.06-10.82-17.26-22.89
					c0.69-10.47,9.02-18.54,19.66-18.75c8.47-0.17,16.95-0.03,25.42-0.01c0.46,0,0.97,0,1.63,0
					C114.47,219.86,114.47,233.91,114.47,247.94z"/>
			</g>
			<g>
				<path class="st0" d="M114.44,168.9c-9.96,0-19.77,0.65-29.45-0.17c-11.15-0.95-18.06-10.82-17.26-22.89
					c0.69-10.47,9.02-18.54,19.66-18.75c8.47-0.17,16.95-0.03,25.42-0.01c0.46,0,0.97,0,1.63,0
					C114.44,140.82,114.44,154.87,114.44,168.9z"/>
			</g>
			<g>
				<path class="st0" d="M114.49,285.06c0,14.31,0,27.88,0,41.85c-9.95,0-19.75,0.64-29.43-0.17
					c-11.16-0.93-18.09-10.75-17.33-22.83c0.66-10.47,8.97-18.6,19.59-18.82C96.25,284.91,105.19,285.06,114.49,285.06z"/>
			</g>
		</g>
	</g>
	<g id="SVG_1_">
		<g>
			<g>
				<rect x="221.07" y="261.94" class="st1" width="288.35" height="20.66"/>
			</g>
			<g>
				<path class="st1" d="M295.01,361.46c0,19.81-16.06,35.87-35.86,35.87c-19.82,0-35.87-16.06-35.87-35.87
					c0-19.81,16.06-35.87,35.87-35.87C278.96,325.6,295.01,341.65,295.01,361.46z"/>
			</g>
			<g>
				<path class="st1" d="M505.14,183.94c0,19.81-16.06,35.87-35.87,35.87c-19.81,0-35.87-16.06-35.87-35.87
					c0-19.81,16.06-35.87,35.87-35.87C489.08,148.08,505.14,164.13,505.14,183.94z"/>
			</g>
			<g>
				<rect x="329.09" y="236.77" class="st1" width="71.74" height="71.74"/>
			</g>
			<g>
				<path class="st1" d="M258.41,389.81c-5.71,0-10.33-4.62-10.33-10.33c0-22.07,3.98-41.58,11.82-57.99
					c7.01-14.67,17.13-26.94,30.07-36.47c26.75-19.7,58.31-22.65,74.75-22.65l2.77,0c22.59,0.02,50.7,0.07,69.02-18.23
					c14.86-14.84,22.4-40.84,22.4-77.27c0-5.71,4.62-10.33,10.33-10.33s10.33,4.63,10.33,10.33c0,42.71-9.31,72.76-28.46,91.89
					c-24.38,24.35-58.63,24.3-83.65,24.27l-2.74,0c-22.51,0-95.97,6.96-95.97,96.45C268.74,385.19,264.11,389.81,258.41,389.81z"/>
			</g>
		</g>
	</g>
</g>
<g>
</g>
<g>
</g>
<g>
</g>
<g>
</g>
<g>
</g>
</svg>
