<?xml version="1.0" encoding="utf-8"?>
<!-- Generator: Adobe Illustrator 25.2.0, SVG Export Plug-In . SVG Version: 6.00 Build 0)  -->
<svg version="1.1" id="imaging" xmlns="http://www.w3.org/2000/svg" xmlns:xlink="http://www.w3.org/1999/xlink" x="0px" y="0px"
	 viewBox="0 0 512 512" style="enable-background:new 0 0 512 512;" xml:space="preserve">
<style type="text/css">
	.st0{fill:#3892C9;}
</style>
<g>
	<circle class="st0" cx="224.1" cy="123" r="33.8"/>
	<polygon class="st0" points="68.3,344.5 442.8,344.5 312.2,139.7 234.8,273.9 169.2,197.9 	"/>
	<g>
		<path class="st0" d="M472.9,112.2h-46.5V65.7c0-3.8-3.2-7-7-7h-21c-3.9,0-7,3.2-7,7v70c0,5.3,4.5,11.5,11.5,11.5h70
			c3.8,0,7-3.2,7-7v-21C479.9,115.4,476.8,112.2,472.9,112.2z"/>
		<path class="st0" d="M426.5,450v-46.5h46.5c3.8,0,7-3.2,7-7v-21c0-3.9-3.2-7-7-7h-70c-5.3,0-11.5,4.5-11.5,11.5v70
			c0,3.8,3.2,7,7,7h21C423.3,457,426.5,453.8,426.5,450z"/>
	</g>
	<g>
		<path class="st0" d="M42,112.2h46.5V65.7c0-3.8,3.2-7,7-7h21c3.9,0,7,3.2,7,7v70c0,5.3-4.5,11.5-11.5,11.5H42c-3.8,0-7-3.2-7-7
			v-21C35,115.4,38.1,112.2,42,112.2z"/>
		<path class="st0" d="M88.5,450v-46.5H42c-3.8,0-7-3.2-7-7v-21c0-3.9,3.2-7,7-7h70c5.3,0,11.5,4.5,11.5,11.5v70c0,3.8-3.2,7-7,7
			h-21C91.6,457,88.5,453.8,88.5,450z"/>
	</g>
</g>
<g>
</g>
<g>
</g>
<g>
</g>
<g>
</g>
<g>
</g>
<g>
</g>
</svg>
