<?xml version="1.0" encoding="utf-8"?>
<!-- Generator: Adobe Illustrator 25.2.0, SVG Export Plug-In . SVG Version: 6.00 Build 0)  -->
<svg version="1.1" id="Layer_1" xmlns="http://www.w3.org/2000/svg" xmlns:xlink="http://www.w3.org/1999/xlink" x="0px" y="0px"
	 viewBox="0 0 512 512" style="enable-background:new 0 0 512 512;" xml:space="preserve">
<style type="text/css">
	.st0{fill:#0091CD;}
	.st1{fill:#FFFFFF;}
</style>
<path class="st0" d="M486,446H26c-11,0-20,1-20-10V86c0-11,9-20,20-20h460c11,0,20,9,20,20v350C506,447,497,446,486,446z"/>
<path class="st1" d="M484.1,158h-34.9c-2.8,0-5.1-2.3-5.1-5.1V118c0-2.8,2.3-5.1,5.1-5.1h34.9c2.8,0,5.1,2.3,5.1,5.1v34.9
	C489.2,155.7,486.9,158,484.1,158z"/>
<path class="st1" d="M484.1,238h-34.9c-2.8,0-5.1-2.3-5.1-5.1V198c0-2.8,2.3-5.1,5.1-5.1h34.9c2.8,0,5.1,2.3,5.1,5.1v34.9
	C489.2,235.7,486.9,238,484.1,238z"/>
<path class="st1" d="M484.1,318h-34.9c-2.8,0-5.1-2.3-5.1-5.1V278c0-2.8,2.3-5.1,5.1-5.1h34.9c2.8,0,5.1,2.3,5.1,5.1v34.9
	C489.2,315.7,486.9,318,484.1,318z"/>
<path class="st1" d="M484.1,398h-34.9c-2.8,0-5.1-2.3-5.1-5.1V358c0-2.8,2.3-5.1,5.1-5.1h34.9c2.8,0,5.1,2.3,5.1,5.1v34.9
	C489.2,395.7,486.9,398,484.1,398z"/>
<path class="st1" d="M64.5,158H29.5c-2.8,0-5.1-2.3-5.1-5.1V118c0-2.8,2.3-5.1,5.1-5.1h34.9c2.8,0,5.1,2.3,5.1,5.1v34.9
	C69.6,155.7,67.3,158,64.5,158z"/>
<path class="st1" d="M64.5,238H29.5c-2.8,0-5.1-2.3-5.1-5.1V198c0-2.8,2.3-5.1,5.1-5.1h34.9c2.8,0,5.1,2.3,5.1,5.1v34.9
	C69.6,235.7,67.3,238,64.5,238z"/>
<path class="st1" d="M64.5,318H29.5c-2.8,0-5.1-2.3-5.1-5.1V278c0-2.8,2.3-5.1,5.1-5.1h34.9c2.8,0,5.1,2.3,5.1,5.1v34.9
	C69.6,315.7,67.3,318,64.5,318z"/>
<path class="st1" d="M64.5,398H29.5c-2.8,0-5.1-2.3-5.1-5.1V358c0-2.8,2.3-5.1,5.1-5.1h34.9c2.8,0,5.1,2.3,5.1,5.1v34.9
	C69.6,395.7,67.3,398,64.5,398z"/>
<path class="st1" d="M398.5,409.4H113c-11,0-20-9-20-20v-268c0-11,9-20,20-20h285.5c11,0,20,9,20,20v268
	C418.5,400.4,409.5,409.4,398.5,409.4z"/>
<path class="st0" d="M354.4,326l-7.8-22.7h-68.4l-8.3,23.2c-3.2,9.1-6,15.2-8.2,18.3c-2.3,3.2-5.9,4.8-11,4.8
	c-4.3,0-8.1-1.7-11.3-5.1c-3.3-3.4-4.9-7.2-4.8-11.5c0-2.5,0.4-5,1.2-7.7c0.8-2.6,2.1-6.3,3.9-11l44.3-117.5
	c1.3-3.4,2.8-7.4,4.5-12.2c1.8-4.7,3.7-8.7,5.6-11.8c2-3.1,4.6-5.7,7.8-7.6c3.2-1.9,7.1-2.9,11.8-2.9c4.7,0,8.7,1,11.9,2.9
	c3.2,1.9,5.7,4.4,7.6,7.5c1.9,3,3.5,6.3,4.8,9.8c1.3,3.5,3,8.2,5,14l42.8,116.7c3.4,8.9,5,15.3,5,19.4c0,4.2-1.7,8-5,11.5
	c-3.3,3.5-7.2,5.2-11.8,5.2c-2.7,0-5-0.5-6.9-1.5c-1.9-1-3.5-2.4-4.8-4.2c-1.3-1.8-2.7-4.5-4.1-8.1C356.7,332,355.4,328.8,354.4,326
	z M287.4,275.7h50.3l-24.6-74.7L287.4,275.7z"/>
<path class="st0" d="M240.8,223.8h-69.2c-5.6,0-10.2-4.6-10.2-10.2v0c0-5.6,4.6-10.2,10.2-10.2h69.2c5.6,0,10.2,4.6,10.2,10.2v0
	C251,219.2,246.4,223.8,240.8,223.8z"/>
<path class="st0" d="M230.8,263.8h-99.2c-5.6,0-10.2-4.6-10.2-10.2v0c0-5.6,4.6-10.2,10.2-10.2h99.2c5.6,0,10.2,4.6,10.2,10.2v0
	C241,259.2,236.4,263.8,230.8,263.8z"/>
<path class="st0" d="M220.8,303.8h-69.2c-5.6,0-10.2-4.6-10.2-10.2l0,0c0-5.6,4.6-10.2,10.2-10.2h69.2c5.6,0,10.2,4.6,10.2,10.2l0,0
	C231,299.2,226.4,303.8,220.8,303.8z"/>
<g>
</g>
<g>
</g>
<g>
</g>
<g>
</g>
<g>
</g>
<g>
</g>
</svg>
