<?xml version="1.0" encoding="utf-8"?>
<!-- Generator: Adobe Illustrator 25.0.1, SVG Export Plug-In . SVG Version: 6.00 Build 0)  -->
<svg version="1.1" id="Layer_1" xmlns="http://www.w3.org/2000/svg" xmlns:xlink="http://www.w3.org/1999/xlink" x="0px" y="0px"
	 viewBox="0 0 512 512" style="enable-background:new 0 0 512 512;" xml:space="preserve">
<style type="text/css">
	.st0{fill:#3790C7;}
	.st1{fill:#FFFFFF;}
</style>
<g id="Portfolio_App">
	<g>
		<g>
			<g>
				<rect x="81.91" y="336.5" class="st0" width="95" height="95"/>
			</g>
			<g>
				<rect x="206.77" y="336.5" class="st0" width="95" height="95"/>
			</g>
			<g>
				<rect x="333.08" y="336.5" class="st0" width="95" height="95"/>
			</g>
			<g>
				<polygon class="st1" points="94.73,374.9 118.89,371.24 129.58,349.27 140.52,371.12 164.73,374.49 147.33,391.65 151.6,415.71 
					129.9,404.47 108.34,415.96 112.33,391.86 				"/>
			</g>
		</g>
		<g>
			<g>
				<g>
					<path class="st0" d="M297.53,108.94c0,23.49-19.04,42.53-42.53,42.53c-23.49,0-42.53-19.04-42.53-42.53
						c0-23.49,19.04-42.53,42.53-42.53C278.49,66.42,297.53,85.46,297.53,108.94z"/>
				</g>
				<g>
					<path class="st0" d="M329.04,210c0,26.15,0,23.46-57.18,23.18c-90.49-0.44-90.9,3.67-90.9-23.18
						c0-26.15,33.15-47.35,74.04-47.35S329.04,183.85,329.04,210z"/>
				</g>
			</g>
		</g>
	</g>
	<g>
		<g>
			<path class="st0" d="M508.12,508.12H3.88V3.88h504.25V508.12z M39.12,472.88h433.75V39.12H39.12V472.88z"/>
		</g>
		<g>
			<rect x="22" y="256" class="st0" width="455" height="36"/>
		</g>
	</g>
</g>
<g>
</g>
<g>
</g>
<g>
</g>
<g>
</g>
<g>
</g>
</svg>
