<?xml version="1.0" encoding="utf-8"?>
<!-- Generator: Adobe Illustrator 25.0.1, SVG Export Plug-In . SVG Version: 6.00 Build 0)  -->
<svg version="1.1" id="Layer_1" xmlns="http://www.w3.org/2000/svg" xmlns:xlink="http://www.w3.org/1999/xlink" x="0px" y="0px"
	 viewBox="0 0 512 512" style="enable-background:new 0 0 512 512;" xml:space="preserve">
<style type="text/css">
	.st0{fill:#3492CB;}
</style>
<g>
	<g>
		<path class="st0" d="M233.72,436.53c-110.99,0-201.25-90.28-201.25-201.25c0-101.2,75.1-185.2,172.5-199.2v199.2
			c0,8.91,4.14,17.34,11.17,22.77l103.77,79.99c5.93-7.7,12.88-14.57,20.66-20.4l-106.85-82.36v-230c-127.02,0-230,102.98-230,230
			c0,127.02,102.98,230,230,230c26.62,0,52.15-4.56,75.91-12.91c-4.35-8.41-7.62-17.48-9.62-27.01
			C279.02,432.68,256.68,436.53,233.72,436.53z"/>
	</g>
	<g>
		<path class="st0" d="M452.01,307.28c7.56-22.63,11.71-46.81,11.71-72c0-113.51-82.35-207.37-190.47-226.15v205.71l108.79,83.86
			c7.31-1.58,14.9-2.42,22.68-2.42C421.7,296.28,437.75,300.24,452.01,307.28z"/>
	</g>
	<g>
		<path class="st0" d="M409.77,508.25c-55.16,0-100.03-44.88-100.03-100.04s44.88-100.04,100.03-100.04s100.04,44.88,100.04,100.04
			S464.93,508.25,409.77,508.25z M409.77,327.23c-44.65,0-80.98,36.33-80.98,80.98s36.33,80.98,80.98,80.98
			c44.65,0,80.98-36.33,80.98-80.98S454.42,327.23,409.77,327.23z"/>
	</g>
	<g>
		<path class="st0" d="M364.15,374.53c9.95,17.41,35.58,20.01,49.98,20.01c1.66,0,3.15-0.04,4.41-0.09v-17.44
			c0-2.03,1.22-3.85,3.09-4.63c1.87-0.77,4.03-0.35,5.46,1.09c0,0,36.39,36.38,37.9,37.9c0.25,0.24,0.48,0.51,0.68,0.81
			c1.33,1.99,1.07,4.64-0.62,6.33l-37.96,37.96c-1.43,1.43-3.59,1.86-5.46,1.09c-1.87-0.78-3.09-2.61-3.09-4.63V435.7
			c-19.79-0.87-35.46-6.99-46.65-18.22c-16.99-17.05-17.1-39.53-17.09-40.48c0.01-2.27,1.54-4.25,3.73-4.82
			c0.42-0.12,0.85-0.17,1.28-0.17C361.57,372.01,363.25,372.95,364.15,374.53z M425.79,411.97c5.87,0.62,8.22,0.5,3.73-0.62
			c-2.68-0.67,6.01-1.73,6.01,1.04l-7.46,4.15l7.46-4.15l-12.02,0.62l4.71-3.01c3.1-1.55,3.84,1.07,1.3,1.35
			c-0.16,0.02,4.43-0.19-1.48-0.19C432.22,414.64,425.79,409.69,425.79,411.97z"/>
	</g>
</g>
<g>
</g>
<g>
</g>
<g>
</g>
<g>
</g>
<g>
</g>
</svg>
