<?xml version="1.0" encoding="utf-8"?>
<!-- Generator: Adobe Illustrator 25.0.1, SVG Export Plug-In . SVG Version: 6.00 Build 0)  -->
<svg version="1.1" id="Aspose.Cells_Replace" xmlns="http://www.w3.org/2000/svg" xmlns:xlink="http://www.w3.org/1999/xlink"
	 x="0px" y="0px" viewBox="0 0 512 512" style="enable-background:new 0 0 512 512;" xml:space="preserve">
<style type="text/css">
	.st0{enable-background:new    ;}
	.st1{fill:#3A8FC7;}
	.st2{fill:#3A8FC6;}
</style>
<g id="Replace" transform="translate(-175 -263)">
	<g id="Group_10" transform="translate(9.24 34.664)">
		<g class="st0">
			<g>
				<path class="st1" d="M338.03,458.59l-8.7-28.57h-43.75l-8.7,28.57h-27.42l42.36-120.5h31.11l42.52,120.5H338.03z M323.25,408.68
					c-8.04-25.88-12.57-40.52-13.58-43.91c-1.01-3.39-1.74-6.07-2.18-8.04c-1.81,7-6.98,24.33-15.51,51.96H323.25z"/>
			</g>
		</g>
		<g class="st0">
			<g>
				<path class="st1" d="M504.67,508.21h37.78c17.21,0,29.71,2.45,37.49,7.35c7.78,4.9,11.67,12.69,11.67,23.37
					c0,7.25-1.7,13.2-5.11,17.85c-3.4,4.65-7.93,7.44-13.57,8.39V566c7.69,1.72,13.24,4.93,16.65,9.63
					c3.4,4.71,5.11,10.96,5.11,18.76c0,11.07-4,19.71-12,25.9c-8,6.2-18.86,9.3-32.59,9.3h-45.41V508.21z M530.4,556.28h14.94
					c6.97,0,12.03-1.08,15.15-3.24c3.13-2.16,4.69-5.73,4.69-10.71c0-4.65-1.7-7.98-5.11-10c-3.4-2.02-8.79-3.03-16.15-3.03H530.4
					V556.28z M530.4,576.71v31.63h16.77c7.09,0,12.32-1.36,15.69-4.07c3.38-2.71,5.06-6.86,5.06-12.45
					c0-10.07-7.2-15.11-21.59-15.11H530.4z"/>
			</g>
		</g>
		<g id="arrow">
			<g>
				<path class="st1" d="M300.17,525.76c-0.01,29.78,24.13,53.93,53.91,53.94c0.04,0,0.08,0,0.11,0h78.15l-19.38,19.93l10.49,9.97
					l32.51-32.47l5.25-5.77l-5.25-4.7l-33.55-33.03l-10.49,9.88l21.5,21.58h-79.22c-21.25,0.17-38.62-16.92-38.79-38.17
					c0-0.38,0-0.77,0.01-1.15v-21.5h-15.26v21.5H300.17z"/>
				<path class="st2" d="M423.53,616.57l-17.69-16.8l14.66-15.07h-66.42c-15.74,0-30.54-6.14-41.66-17.27
					c-9.94-9.94-15.89-22.82-17.04-36.67h-0.22v-31.5h25.26l0,26.61c-0.01,0.34-0.01,0.67-0.01,1.01
					c0.15,18.37,15.14,33.21,33.48,33.21c0.09,0,0.18,0,0.27,0h67.22l-16.63-16.7l17.73-16.71l36.9,36.33l8.92,7.98l-8.81,9.68
					L423.53,616.57z M420.07,599.49l3.29,3.13l28.98-28.94l1.78-1.96l-1.67-1.5l-30.12-29.65l-3.24,3.05l26.37,26.47h-91.26
					c-0.12,0-0.23,0-0.35,0c-23.78,0-43.25-19.28-43.44-43.13c0-0.42,0-0.83,0.01-1.25v-16.45h-5.26l0.01,16.5
					c0,13.07,5.08,25.36,14.32,34.6s21.52,14.33,34.59,14.34h90.09L420.07,599.49z"/>
			</g>
		</g>
	</g>
	<g>
		<g>
			<path class="st2" d="M565,760.71H297.61c-59.83,0-108.5-48.67-108.5-108.5V384.81c0-59.83,48.67-108.5,108.5-108.5H565
				c59.83,0,108.5,48.67,108.5,108.5V652.2C673.5,712.03,624.83,760.71,565,760.71z M297.61,297.34
				c-48.23,0-87.47,39.24-87.47,87.47V652.2c0,48.23,39.24,87.47,87.47,87.47H565c48.23,0,87.47-39.24,87.47-87.47V384.81
				c0-48.23-39.24-87.47-87.47-87.47H297.61z"/>
			<path class="st2" d="M565,770.71H297.61c-65.34,0-118.5-53.16-118.5-118.5V384.81c0-65.34,53.16-118.5,118.5-118.5H565
				c65.34,0,118.5,53.16,118.5,118.5V652.2C683.5,717.55,630.34,770.71,565,770.71z M297.61,286.31c-54.31,0-98.5,44.19-98.5,98.5
				V652.2c0,54.32,44.19,98.5,98.5,98.5H565c54.31,0,98.5-44.19,98.5-98.5V384.81c0-54.31-44.19-98.5-98.5-98.5H297.61z M565,749.68
				H297.61c-53.75,0-97.47-43.73-97.47-97.47V384.81c0-53.75,43.73-97.47,97.47-97.47H565c53.75,0,97.47,43.73,97.47,97.47V652.2
				C662.47,705.95,618.75,749.68,565,749.68z M297.61,307.34c-42.72,0-77.47,34.75-77.47,77.47V652.2
				c0,42.72,34.75,77.47,77.47,77.47H565c42.72,0,77.47-34.75,77.47-77.47V384.81c0-42.72-34.75-77.47-77.47-77.47H297.61z"/>
		</g>
	</g>
</g>
<g>
</g>
<g>
</g>
<g>
</g>
<g>
</g>
<g>
</g>
</svg>
