<?xml version="1.0" encoding="utf-8"?>
<!-- Generator: Adobe Illustrator 25.0.1, SVG Export Plug-In . SVG Version: 6.00 Build 0)  -->
<svg version="1.1" id="Layer_1" xmlns="http://www.w3.org/2000/svg" xmlns:xlink="http://www.w3.org/1999/xlink" x="0px" y="0px"
	 viewBox="0 0 512 512" style="enable-background:new 0 0 512 512;" xml:space="preserve">
<style type="text/css">
	.st0{fill:#3291C7;}
	.st1{fill:#3391C6;}
</style>
<g>
	<g>
		<path class="st0" d="M292.42,340.18c0,13.56-4,24.03-12,31.42c-8,7.39-19.36,11.08-34.07,11.08h-9.21v40.26h-32.79V301.58h42
			c15.33,0,26.84,3.35,34.53,10.04C288.57,318.32,292.42,327.84,292.42,340.18z M237.13,355.95h5.98c4.92,0,8.84-1.38,11.75-4.15
			c2.91-2.77,4.36-6.58,4.36-11.46c0-8.19-4.54-12.29-13.61-12.29h-8.47V355.95z"/>
		<path class="st0" d="M413.92,359.69c0,20.25-5.58,35.86-16.73,46.82c-11.15,10.96-26.83,16.44-47.02,16.44h-39.26V301.58h42
			c19.48,0,34.52,4.98,45.12,14.94C408.62,326.48,413.92,340.87,413.92,359.69z M379.89,360.85c0-11.12-2.2-19.37-6.6-24.74
			c-4.4-5.37-11.08-8.05-20.05-8.05h-9.55v67.98h7.3c9.96,0,17.27-2.89,21.91-8.67C377.56,381.59,379.89,372.75,379.89,360.85z"/>
		<path class="st0" d="M467.11,422.94h-32.29V301.58h71.72v26.31h-39.43v23.16h36.36v26.31h-36.36V422.94z"/>
	</g>
	<g id="BG_Shapes">
		<g id="Rounded_Rectangle_6">
			<path class="st0" d="M252.16,146h-25.39c-9.94,0-18,8.06-18,18v1.57c0,9.94,8.06,18,18,18h25.39c9.94,0,18-8.06,18-18V164
				C270.16,154.06,262.1,146,252.16,146z"/>
		</g>
		<g id="Rounded_Rectangle_6_copy">
			<path class="st0" d="M336.16,146h-25.39c-9.94,0-18,8.06-18,18v1.57c0,9.94,8.06,18,18,18h25.39c9.94,0,18-8.06,18-18V164
				C354.16,154.06,346.1,146,336.16,146z"/>
		</g>
		<g id="Rounded_Rectangle_6_copy_2">
			<path class="st0" d="M421.16,146h-25.39c-9.94,0-18,8.06-18,18v1.57c0,9.94,8.06,18,18,18h25.39c9.94,0,18-8.06,18-18V164
				C439.16,154.06,431.1,146,421.16,146z"/>
		</g>
		<g id="Rounded_Rectangle_6_copy_3">
			<path class="st0" d="M252.16,218h-25.39c-9.94,0-18,8.06-18,18v1.57c0,9.94,8.06,18,18,18h25.39c9.94,0,18-8.06,18-18V236
				C270.16,226.06,262.1,218,252.16,218z"/>
		</g>
		<g id="Rounded_Rectangle_6_copy_3_1_">
			<path class="st0" d="M336.16,219h-25.39c-9.94,0-18,8.06-18,18v1.57c0,9.94,8.06,18,18,18h25.39c9.94,0,18-8.06,18-18V237
				C354.16,227.06,346.1,219,336.16,219z"/>
		</g>
		<g id="Rounded_Rectangle_6_copy_3_2_">
			<path class="st0" d="M421.16,219h-25.39c-9.94,0-18,8.06-18,18v1.57c0,9.94,8.06,18,18,18h25.39c9.94,0,18-8.06,18-18V237
				C439.16,227.06,431.1,219,421.16,219z"/>
		</g>
		<g>
			<g>
				<path class="st1" d="M111.77,98.23V78.5c0-13.81,11.19-25,25-25h210c13.81,0,25,11.19,25,25V112h52V78.5c0-42.46-34.54-77-77-77
					h-210c-42.46,0-77,34.54-77,77v23.9C70.8,98.9,82.58,97,94.81,97C100.57,97,106.24,97.42,111.77,98.23z"/>
				<path class="st1" d="M369.8,443.23c-3.79,8.97-12.68,15.27-23.04,15.27h-210c-13.81,0-25-11.19-25-25V315.77
					c-5.53,0.81-11.19,1.23-16.96,1.23c-12.23,0-24.01-1.9-35.04-5.4v121.9c0,42.46,34.54,77,77,77h210
					c39.16,0,71.56-29.39,76.36-67.27H369.8z"/>
			</g>
			<path class="st0" d="M96.77,111.7c-52.63,0-95.3,42.67-95.3,95.3s42.67,95.3,95.3,95.3s95.3-42.67,95.3-95.3
				S149.4,111.7,96.77,111.7z M135.65,220.34l-44.52,44.52c-6.53,6.53-17.12,6.53-23.65,0c-6.53-6.53-6.53-17.12,0-23.65
				l33.32-33.32l-33.32-33.32c-6.53-6.53-6.53-17.12,0-23.65c6.53-6.53,17.12-6.53,23.65,0l44.52,44.52
				c3.43,3.43,5.05,7.97,4.88,12.46C140.7,212.38,139.08,216.92,135.65,220.34z"/>
		</g>
	</g>
</g>
<g>
</g>
<g>
</g>
<g>
</g>
<g>
</g>
<g>
</g>
</svg>
