<?xml version="1.0" encoding="utf-8"?>
<!-- Generator: Adobe Illustrator 25.0.1, SVG Export Plug-In . SVG Version: 6.00 Build 0)  -->
<svg version="1.1" id="Aspose.Video_Muter" xmlns="http://www.w3.org/2000/svg" xmlns:xlink="http://www.w3.org/1999/xlink" x="0px"
	 y="0px" viewBox="0 0 512 512" style="enable-background:new 0 0 512 512;" xml:space="preserve">
<style type="text/css">
	.st0{fill:#3593CB;}
	.st1{fill:#3093CD;}
	.st2{fill:#FFFFFF;}
</style>
<g id="Muter">
	<g>
		<path class="st0" d="M459.3,465.9H52.7c-26.8,0-48.6-21.8-48.6-48.6V94.4c0-26.6,21.7-48.3,48.3-48.3h407.2
			c26.6,0,48.3,21.7,48.3,48.3v322.9C507.9,444.1,486.1,465.9,459.3,465.9z M52.4,88.1c-3.5,0-6.3,2.8-6.3,6.3v322.9
			c0,3.6,3,6.6,6.6,6.6h406.6c3.6,0,6.6-3,6.6-6.6V94.4c0-3.5-2.8-6.3-6.3-6.3H52.4z"/>
	</g>
	<g>
		<g>
			<g>
				<rect x="37.5" y="77" class="st1" width="434.8" height="70.9"/>
			</g>
		</g>
		<g>
			<g>
				<g>
					<path class="st2" d="M411.2,122c-1.6,0-3-1.3-3-3V72.7c0-1.6,1.3-3,3-3h46.4c1.6,0,3,1.3,3,3V119c0,1.6-1.3,3-3,3H411.2z"/>
				</g>
			</g>
			<g>
				<g>
					<path class="st2" d="M291.1,122c-1.6,0-3-1.3-3-3V72.7c0-1.6,1.3-3,3-3h46.4c1.6,0,3,1.3,3,3V119c0,1.6-1.3,3-3,3H291.1z"/>
				</g>
			</g>
			<g>
				<g>
					<path class="st2" d="M54.5,122c-1.6,0-3-1.3-3-3V72.7c0-1.6,1.3-3,3-3h46.4c1.6,0,3,1.3,3,3V119c0,1.6-1.3,3-3,3H54.5z"/>
				</g>
			</g>
			<g>
				<g>
					<path class="st2" d="M171.1,122c-1.6,0-3-1.3-3-3V72.7c0-1.6,1.3-3,3-3h46.4c1.6,0,3,1.3,3,3V119c0,1.6-1.3,3-3,3H171.1z"/>
				</g>
			</g>
		</g>
	</g>
	<g>
		<g>
			<g>
				<rect x="37.5" y="363.9" class="st1" width="434.8" height="70.9"/>
			</g>
		</g>
		<g>
			<g>
				<g>
					<path class="st2" d="M411.2,389.8c-1.6,0-3,1.3-3,3v46.4c0,1.6,1.3,3,3,3h46.4c1.6,0,3-1.3,3-3v-46.4c0-1.6-1.3-3-3-3H411.2z"
						/>
				</g>
			</g>
			<g>
				<g>
					<path class="st2" d="M291.1,389.8c-1.6,0-3,1.3-3,3v46.4c0,1.6,1.3,3,3,3h46.4c1.6,0,3-1.3,3-3v-46.4c0-1.6-1.3-3-3-3H291.1z"
						/>
				</g>
			</g>
			<g>
				<g>
					<path class="st2" d="M54.5,389.8c-1.6,0-3,1.3-3,3v46.4c0,1.6,1.3,3,3,3h46.4c1.6,0,3-1.3,3-3v-46.4c0-1.6-1.3-3-3-3H54.5z"/>
				</g>
			</g>
			<g>
				<g>
					<path class="st2" d="M171.1,389.8c-1.6,0-3,1.3-3,3v46.4c0,1.6,1.3,3,3,3h46.4c1.6,0,3-1.3,3-3v-46.4c0-1.6-1.3-3-3-3H171.1z"
						/>
				</g>
			</g>
		</g>
	</g>
	<g>
		<g>
			<g>
				<g>
					<path class="st0" d="M185.2,231.4v52.5c0,2,1,3.8,2.6,4.7l79.3,45.6c3.3,1.9,7.2-0.7,7.2-4.7l0.4-147c0-4.1-4-6.7-7.3-4.7
						l-79.7,48.9C186.2,227.7,185.2,229.5,185.2,231.4z"/>
				</g>
			</g>
			<g>
				<g>
					<path class="st0" d="M172.7,288.8h-20.6c-3.1,0-5.6-2.5-5.6-5.6v-51.3c0-3.1,2.5-5.6,5.6-5.6h20.6c3.1,0,5.6,2.5,5.6,5.6v51.3
						C178.3,286.3,175.8,288.8,172.7,288.8z"/>
				</g>
			</g>
		</g>
		<g>
			<g>
				<path class="st0" d="M292.3,291.5L292.3,291.5c-2.9-2.9-2.9-7.5,0-10.4l60.7-60.7c2.9-2.9,7.5-2.9,10.4,0l0,0
					c2.9,2.9,2.9,7.5,0,10.4l-60.7,60.7C299.8,294.4,295.2,294.4,292.3,291.5z"/>
				<path class="st0" d="M297.5,296.2c-2.5,0-5-1-6.9-2.9c-3.8-3.8-3.8-10.1,0-13.9l60.7-60.7c3.8-3.8,10.1-3.8,13.9,0
					c3.8,3.8,3.8,10.1,0,13.9l-60.7,60.7C302.6,295.2,300,296.2,297.5,296.2z M358.2,220.8c-1.2,0-2.5,0.5-3.4,1.4l-60.7,60.7
					c-1.9,1.9-1.9,4.9,0,6.8c1.9,1.9,4.9,1.9,6.8,0l60.7-60.7c1.9-1.9,1.9-4.9,0-6.8C360.7,221.3,359.5,220.8,358.2,220.8z"/>
			</g>
			<g>
				<path class="st0" d="M292.3,220.5L292.3,220.5c-2.9,2.9-2.9,7.5,0,10.4l60.7,60.7c2.9,2.9,7.5,2.9,10.4,0v0
					c2.9-2.9,2.9-7.5,0-10.4l-60.7-60.7C299.8,217.6,295.2,217.6,292.3,220.5z"/>
				<path class="st0" d="M358.2,296.2c-2.5,0-5-1-6.9-2.9l-60.7-60.7c-3.8-3.8-3.8-10.1,0-13.9c3.8-3.8,10.1-3.8,13.9,0l60.7,60.7
					c3.8,3.8,3.8,10.1,0,13.9C363.3,295.2,360.7,296.2,358.2,296.2z M297.5,220.8c-1.2,0-2.5,0.5-3.4,1.4c-1.9,1.9-1.9,4.9,0,6.8
					l60.7,60.7c1.9,1.9,4.9,1.9,6.8,0c1.9-1.9,1.9-4.9,0-6.8l-60.7-60.7C300,221.3,298.8,220.8,297.5,220.8z"/>
			</g>
		</g>
	</g>
</g>
</svg>
