<?xml version="1.0" encoding="utf-8"?>
<!-- Generator: Adobe Illustrator 25.0.1, SVG Export Plug-In . SVG Version: 6.00 Build 0)  -->
<svg version="1.1" id="Layer_1" xmlns="http://www.w3.org/2000/svg" xmlns:xlink="http://www.w3.org/1999/xlink" x="0px" y="0px"
	 viewBox="0 0 512 512" style="enable-background:new 0 0 512 512;" xml:space="preserve">
<style type="text/css">
	.st0{fill:#3A8FC6;}
	.st1{fill:#3A90C7;}
	.st2{fill:#FFFFFF;}
</style>
<g>
	<g>
		<path class="st0" d="M124.16,199.87c0,20.71-15.67,37.5-35,37.5s-35-16.79-35-37.5c0-20.71,15.67-37.5,35-37.5
			S124.16,179.16,124.16,199.87z"/>
		<path class="st1" d="M89.16,243.25c-22.54,0-40.88-19.46-40.88-43.38c0-23.92,18.34-43.38,40.88-43.38
			c22.54,0,40.88,19.46,40.88,43.38C130.04,223.79,111.7,243.25,89.16,243.25z M89.16,168.25c-16.05,0-29.12,14.18-29.12,31.62
			c0,17.43,13.06,31.62,29.12,31.62c16.06,0,29.12-14.18,29.12-31.62C118.28,182.43,105.21,168.25,89.16,168.25z"/>
	</g>
	<g>
		<path class="st2" d="M92.86,213h-6.04v-16.52l0.06-2.71l0.1-2.97c-1,1-1.7,1.66-2.09,1.97l-3.28,2.64l-2.91-3.63l9.2-7.32h4.96
			V213z"/>
	</g>
	<g>
		<g>
			<g>
				<rect x="45.67" y="425.81" class="st0" width="36.32" height="36.32"/>
			</g>
			<g>
				<path class="st0" d="M9.25,389.39v109.16h109.16V389.39H9.25z M96.57,476.72H31.08v-65.49h65.49V476.72z"/>
			</g>
		</g>
		<g>
			<g>
				<rect x="45.67" y="49.87" class="st0" width="36.32" height="36.32"/>
			</g>
			<g>
				<path class="st0" d="M9.25,13.45v109.16h109.16V13.45H9.25z M96.57,100.77H31.08V35.28h65.49V100.77z"/>
			</g>
		</g>
		<g>
			<g>
				<rect x="430.01" y="425.81" class="st0" width="36.32" height="36.32"/>
			</g>
			<g>
				<path class="st0" d="M393.59,389.39v109.16h109.16V389.39H393.59z M415.43,411.23h65.49v65.49h-65.49V411.23z"/>
			</g>
		</g>
		<g>
			<g>
				<rect x="430.01" y="49.87" class="st0" width="36.32" height="36.32"/>
			</g>
			<g>
				<path class="st0" d="M393.59,13.45v109.16h109.16V13.45H393.59z M415.43,35.28h65.49v65.49h-65.49V35.28z"/>
			</g>
		</g>
		<g>
			<path class="st1" d="M421.16,243.25c-22.54,0-40.88-19.46-40.88-43.38c0-23.92,18.34-43.38,40.88-43.38
				c22.54,0,40.88,19.46,40.88,43.38C462.04,223.79,443.7,243.25,421.16,243.25z M421.16,168.25c-16.05,0-29.12,14.18-29.12,31.62
				c0,17.43,13.06,31.62,29.12,31.62c16.06,0,29.12-14.18,29.12-31.62C450.28,182.43,437.21,168.25,421.16,168.25z"/>
		</g>
		<g>
			<path class="st1" d="M195.16,132.25c-22.54,0-40.88-19.46-40.88-43.38c0-23.92,18.34-43.38,40.88-43.38
				c22.54,0,40.89,19.46,40.89,43.38C236.04,112.79,217.7,132.25,195.16,132.25z M195.16,57.25c-16.05,0-29.11,14.18-29.11,31.62
				c0,17.43,13.06,31.62,29.11,31.62c16.06,0,29.12-14.18,29.12-31.62C224.28,71.43,211.21,57.25,195.16,57.25z"/>
		</g>
		<g>
			<path class="st1" d="M309.16,132.25c-22.54,0-40.88-19.46-40.88-43.38c0-23.92,18.34-43.38,40.88-43.38
				c22.54,0,40.88,19.46,40.88,43.38C350.04,112.79,331.7,132.25,309.16,132.25z M309.16,57.25c-16.05,0-29.12,14.18-29.12,31.62
				c0,17.43,13.06,31.62,29.12,31.62c16.06,0,29.12-14.18,29.12-31.62C338.28,71.43,325.21,57.25,309.16,57.25z"/>
		</g>
		<g>
			<path class="st0" d="M202.42,101l-2.07-6.8h-10.41l-2.07,6.8h-6.52l10.08-28.67h7.4L208.94,101H202.42z M198.9,89.13
				c-1.91-6.16-2.99-9.64-3.23-10.45c-0.24-0.81-0.41-1.45-0.52-1.91c-0.43,1.67-1.66,5.79-3.69,12.36H198.9z"/>
		</g>
		<g>
			<path class="st0" d="M299.93,74.45h8.89c4.05,0,6.99,0.58,8.82,1.73c1.83,1.15,2.74,2.99,2.74,5.5c0,1.71-0.4,3.11-1.2,4.2
				s-1.87,1.75-3.19,1.97v0.2c1.81,0.4,3.12,1.16,3.92,2.27s1.2,2.58,1.2,4.41c0,2.6-0.94,4.64-2.82,6.09
				c-1.88,1.46-4.44,2.19-7.67,2.19h-10.68V74.45z M305.99,85.75h3.52c1.64,0,2.83-0.25,3.56-0.76c0.74-0.51,1.1-1.35,1.1-2.52
				c0-1.09-0.4-1.88-1.2-2.35s-2.07-0.71-3.8-0.71h-3.18V85.75z M305.99,90.56V98h3.95c1.67,0,2.9-0.32,3.69-0.96
				c0.79-0.64,1.19-1.61,1.19-2.93c0-2.37-1.69-3.55-5.08-3.55H305.99z"/>
		</g>
		<g>
			<path class="st0" d="M429.55,207.08h-3.44V213h-5.9v-5.92h-12.19v-4.2l12.52-18.44h5.57v17.95h3.44V207.08z M420.21,202.39v-4.84
				c0-0.81,0.03-1.98,0.1-3.52c0.06-1.54,0.12-2.43,0.16-2.68h-0.16c-0.48,1.07-1.06,2.11-1.74,3.12l-5.23,7.91H420.21z"/>
		</g>
		<g>
			<path class="st1" d="M195.16,243.25c-22.54,0-40.88-19.46-40.88-43.38c0-23.92,18.34-43.38,40.88-43.38
				c22.54,0,40.89,19.46,40.89,43.38C236.04,223.79,217.7,243.25,195.16,243.25z M195.16,168.25c-16.05,0-29.11,14.18-29.11,31.62
				c0,17.43,13.06,31.62,29.11,31.62c16.06,0,29.12-14.18,29.12-31.62C224.28,182.43,211.21,168.25,195.16,168.25z"/>
		</g>
		<g>
			<path class="st0" d="M344.16,199.87c0,20.71-15.67,37.5-35,37.5s-35-16.79-35-37.5c0-20.71,15.67-37.5,35-37.5
				S344.16,179.16,344.16,199.87z"/>
		</g>
		<g>
			<path class="st0" d="M205.9,213h-19.96v-4.2l7.17-7.25c2.12-2.17,3.51-3.68,4.16-4.52c0.65-0.84,1.12-1.62,1.41-2.33
				c0.29-0.72,0.43-1.46,0.43-2.23c0-1.15-0.32-2-0.95-2.56c-0.63-0.56-1.47-0.84-2.53-0.84c-1.11,0-2.18,0.25-3.22,0.76
				c-1.04,0.51-2.13,1.23-3.26,2.17l-3.28-3.89c1.41-1.2,2.57-2.04,3.5-2.54c0.92-0.49,1.93-0.88,3.03-1.14
				c1.09-0.27,2.32-0.4,3.67-0.4c1.78,0,3.36,0.33,4.73,0.98c1.37,0.65,2.43,1.56,3.18,2.73c0.75,1.17,1.13,2.51,1.13,4.02
				c0,1.32-0.23,2.55-0.69,3.7c-0.46,1.15-1.18,2.33-2.15,3.54c-0.97,1.21-2.68,2.94-5.13,5.18l-3.67,3.46v0.27h12.44V213z"/>
		</g>
		<g>
			<path class="st2" d="M318.79,191.83c0,1.78-0.54,3.3-1.62,4.55c-1.08,1.25-2.6,2.11-4.55,2.58v0.12c2.3,0.29,4.05,0.99,5.23,2.1
				c1.18,1.11,1.78,2.61,1.78,4.5c0,2.75-1,4.89-2.99,6.42c-1.99,1.53-4.84,2.29-8.54,2.29c-3.1,0-5.85-0.51-8.24-1.54v-5.14
				c1.11,0.56,2.32,1.02,3.65,1.37s2.64,0.53,3.95,0.53c1.99,0,3.46-0.34,4.41-1.02c0.95-0.68,1.43-1.76,1.43-3.26
				c0-1.34-0.55-2.29-1.64-2.85c-1.09-0.56-2.84-0.84-5.23-0.84h-2.17v-4.63h2.21c2.21,0,3.83-0.29,4.85-0.87
				c1.02-0.58,1.53-1.57,1.53-2.98c0-2.16-1.35-3.24-4.06-3.24c-0.94,0-1.89,0.16-2.86,0.47c-0.97,0.31-2.05,0.85-3.23,1.62
				l-2.79-4.16c2.6-1.88,5.71-2.81,9.32-2.81c2.96,0,5.29,0.6,7,1.8C317.93,188.03,318.79,189.7,318.79,191.83z"/>
		</g>
		<g>
			<path class="st0" d="M456.16,314.87c0,20.71-15.67,37.5-35,37.5c-19.33,0-35-16.79-35-37.5c0-20.71,15.67-37.5,35-37.5
				C440.49,277.37,456.16,294.16,456.16,314.87z"/>
		</g>
		<g>
			<path class="st2" d="M417.38,328.39c-2.57,0-4.58-1-6.04-2.99s-2.2-4.75-2.2-8.28c0-3.58,0.75-6.37,2.24-8.37
				c1.49-2,3.54-3,6.16-3c2.75,0,4.84,1.07,6.29,3.2h0.2c-0.3-1.63-0.45-3.08-0.45-4.36v-6.99h5.98V328h-4.57l-1.15-2.83h-0.25
				C422.22,327.32,420.15,328.39,417.38,328.39z M419.47,323.64c1.52,0,2.64-0.44,3.35-1.33c0.71-0.89,1.1-2.39,1.16-4.51v-0.64
				c0-2.34-0.36-4.02-1.08-5.04s-1.9-1.52-3.53-1.52c-1.33,0-2.36,0.56-3.1,1.69c-0.74,1.13-1.1,2.76-1.1,4.91s0.37,3.76,1.11,4.83
				S418.09,323.64,419.47,323.64z"/>
		</g>
		<g>
			<path class="st1" d="M195.16,358.25c-22.54,0-40.88-19.46-40.88-43.38c0-23.92,18.34-43.38,40.88-43.38
				c22.54,0,40.89,19.46,40.89,43.38C236.04,338.79,217.7,358.25,195.16,358.25z M195.16,283.25c-16.05,0-29.11,14.18-29.11,31.62
				c0,17.43,13.06,31.62,29.11,31.62c16.06,0,29.12-14.18,29.12-31.62C224.28,297.44,211.21,283.25,195.16,283.25z"/>
		</g>
		<g>
			<path class="st1" d="M309.16,358.25c-22.54,0-40.88-19.46-40.88-43.38c0-23.92,18.34-43.38,40.88-43.38
				c22.54,0,40.88,19.46,40.88,43.38C350.04,338.79,331.7,358.25,309.16,358.25z M309.16,283.25c-16.05,0-29.12,14.18-29.12,31.62
				c0,17.43,13.06,31.62,29.12,31.62c16.06,0,29.12-14.18,29.12-31.62C338.28,297.44,325.21,283.25,309.16,283.25z"/>
		</g>
		<g>
			<path class="st0" d="M198.61,306.75c2.58,0,4.6,1.01,6.05,3.02c1.46,2.01,2.19,4.77,2.19,8.27c0,3.61-0.75,6.4-2.26,8.38
				s-3.55,2.97-6.14,2.97c-2.57,0-4.58-0.93-6.04-2.79h-0.41l-1,2.4h-4.55v-30.39h5.96v7.07c0,0.9-0.08,2.34-0.23,4.32h0.23
				C193.82,307.84,195.88,306.75,198.61,306.75z M196.7,311.52c-1.47,0-2.55,0.45-3.22,1.36c-0.68,0.91-1.03,2.4-1.05,4.48V318
				c0,2.34,0.35,4.02,1.04,5.04c0.7,1.02,1.8,1.52,3.31,1.52c1.22,0,2.2-0.56,2.92-1.69s1.08-2.76,1.08-4.91s-0.36-3.76-1.09-4.83
				C198.96,312.06,197.96,311.52,196.7,311.52z"/>
		</g>
		<g>
			<path class="st0" d="M310.33,327.39c-6.8,0-10.2-3.73-10.2-11.19c0-3.71,0.92-6.55,2.77-8.51c1.85-1.96,4.5-2.94,7.95-2.94
				c2.53,0,4.79,0.5,6.8,1.48l-1.76,4.61c-0.94-0.38-1.81-0.69-2.62-0.93c-0.81-0.24-1.62-0.36-2.42-0.36c-3.1,0-4.65,2.2-4.65,6.6
				c0,4.27,1.55,6.41,4.65,6.41c1.15,0,2.21-0.15,3.18-0.46s1.95-0.78,2.93-1.44v5.1c-0.96,0.61-1.94,1.04-2.92,1.27
				C313.07,327.27,311.83,327.39,310.33,327.39z"/>
		</g>
		<g>
			<path class="st1" d="M89.16,358.25c-22.54,0-40.88-19.46-40.88-43.38c0-23.92,18.34-43.38,40.88-43.38
				c22.54,0,40.88,19.46,40.88,43.38C130.04,338.79,111.7,358.25,89.16,358.25z M89.16,283.25c-16.05,0-29.12,14.18-29.12,31.62
				c0,17.43,13.06,31.62,29.12,31.62c16.06,0,29.12-14.18,29.12-31.62C118.28,297.44,105.21,283.25,89.16,283.25z"/>
		</g>
		<g>
			<path class="st0" d="M94.33,327l-1.15-2.97h-0.16c-1,1.26-2.03,2.14-3.1,2.63c-1.06,0.49-2.44,0.73-4.15,0.73
				c-2.1,0-3.75-0.6-4.95-1.8c-1.2-1.2-1.81-2.9-1.81-5.12c0-2.32,0.81-4.03,2.43-5.13s4.07-1.71,7.33-1.83l3.79-0.12v-0.96
				c0-2.21-1.13-3.32-3.4-3.32c-1.75,0-3.8,0.53-6.15,1.58l-1.97-4.02c2.51-1.32,5.3-1.97,8.36-1.97c2.93,0,5.18,0.64,6.74,1.91
				s2.34,3.22,2.34,5.82V327H94.33z M92.58,316.88l-2.3,0.08c-1.73,0.05-3.02,0.36-3.87,0.94c-0.85,0.57-1.27,1.45-1.27,2.62
				c0,1.68,0.96,2.52,2.89,2.52c1.38,0,2.48-0.4,3.31-1.19c0.83-0.79,1.24-1.85,1.24-3.16V316.88z"/>
		</g>
		<g>
			<path class="st0" d="M230.16,427.87c0,20.71-15.67,37.5-35,37.5c-19.33,0-35-16.79-35-37.5c0-20.71,15.67-37.5,35-37.5
				C214.49,390.37,230.16,407.16,230.16,427.87z"/>
		</g>
		<g>
			<path class="st1" d="M309.16,471.25c-22.54,0-40.88-19.46-40.88-43.38c0-23.92,18.34-43.38,40.88-43.38
				c22.54,0,40.88,19.46,40.88,43.38C350.04,451.79,331.7,471.25,309.16,471.25z M309.16,396.25c-16.05,0-29.12,14.18-29.12,31.62
				c0,17.43,13.06,31.62,29.12,31.62c16.06,0,29.12-14.18,29.12-31.62C338.28,410.44,325.21,396.25,309.16,396.25z"/>
		</g>
		<g>
			<path class="st2" d="M198.86,442h-6.04v-16.52l0.06-2.71l0.1-2.97c-1,1-1.7,1.66-2.09,1.97l-3.28,2.64l-2.91-3.63l9.2-7.32h4.96
				V442z"/>
		</g>
		<g>
			<path class="st0" d="M318.9,442h-19.96v-4.2l7.17-7.25c2.12-2.17,3.51-3.68,4.16-4.52c0.65-0.84,1.12-1.62,1.41-2.33
				c0.29-0.72,0.43-1.46,0.43-2.23c0-1.15-0.32-2-0.95-2.56c-0.63-0.56-1.47-0.84-2.53-0.84c-1.11,0-2.18,0.25-3.22,0.76
				c-1.04,0.51-2.13,1.23-3.26,2.17l-3.28-3.89c1.41-1.2,2.57-2.04,3.5-2.54c0.92-0.5,1.93-0.88,3.03-1.14s2.32-0.4,3.67-0.4
				c1.78,0,3.36,0.33,4.73,0.98s2.43,1.56,3.18,2.73c0.75,1.17,1.13,2.51,1.13,4.02c0,1.32-0.23,2.55-0.69,3.7
				c-0.46,1.15-1.18,2.33-2.15,3.54c-0.97,1.21-2.68,2.94-5.13,5.18l-3.67,3.46v0.27h12.44V442z"/>
		</g>
	</g>
</g>
<g>
</g>
<g>
</g>
<g>
</g>
<g>
</g>
<g>
</g>
</svg>
