<?xml version="1.0" encoding="utf-8"?>
<!-- Generator: Adobe Illustrator 25.0.1, SVG Export Plug-In . SVG Version: 6.00 Build 0)  -->
<svg version="1.1" id="Aspose.Cells_Clear" xmlns="http://www.w3.org/2000/svg" xmlns:xlink="http://www.w3.org/1999/xlink" x="0px"
	 y="0px" viewBox="0 0 512 512" style="enable-background:new 0 0 512 512;" xml:space="preserve">
<style type="text/css">
	.st0{display:none;fill:none;stroke:#3690C8;stroke-width:20;stroke-miterlimit:10;}
	.st1{display:none;fill:none;stroke:#3690C8;stroke-width:10;stroke-miterlimit:10;}
	.st2{fill:#3690C8;}
	.st3{display:none;fill:#3690C8;}
	.st4{fill:#FFFFFF;}
</style>
<g id="Clear">
	<g>
		<line class="st0" x1="41" y1="296" x2="471" y2="296"/>
		<rect x="74.5" y="47.53" class="st1" width="363" height="86"/>
		<path id="XMLID_1_" class="st2" d="M433.1,24.06c15.34,0,27.9,12.55,27.9,27.9v408.09c0,15.34-12.55,27.9-27.9,27.9H78.9
			c-15.34,0-27.9-12.55-27.9-27.9V51.96c0-15.34,12.55-27.9,27.9-27.9H433.1 M433.1,4.06H78.9C52.49,4.06,31,25.54,31,51.96v408.09
			c0,26.41,21.49,47.9,47.9,47.9h354.2c26.41,0,47.9-21.49,47.9-47.9V51.96C481,25.54,459.51,4.06,433.1,4.06L433.1,4.06z"/>
	</g>
	<g>
		<g>
			<path class="st3" d="M222.87,366.35H95.59c-3.36,0-6.09-2.73-6.09-6.09v-38.6c0-3.36,2.73-6.09,6.09-6.09h127.28
				c3.36,0,6.09,2.73,6.09,6.09v38.6C228.96,363.62,226.23,366.35,222.87,366.35z"/>
			<path class="st3" d="M416.54,366.35H288.99c-3.29,0-5.95-2.66-5.95-5.95v-38.88c0-3.29,2.66-5.95,5.95-5.95h127.55
				c3.29,0,5.95,2.66,5.95,5.95v38.88C422.49,363.68,419.83,366.35,416.54,366.35z"/>
			<path class="st2" d="M416.31,454.86H289.22c-3.41,0-6.18-2.77-6.18-6.18v-38.42c0-3.41,2.77-6.18,6.18-6.18h127.09
				c3.41,0,6.18,2.77,6.18,6.18v38.42C422.49,452.09,419.73,454.86,416.31,454.86z"/>
			<path class="st2" d="M222.78,454.86H95.69c-3.41,0-6.18-2.77-6.18-6.18v-38.42c0-3.41,2.77-6.18,6.18-6.18h127.09
				c3.41,0,6.18,2.77,6.18,6.18v38.42C228.96,452.09,226.19,454.86,222.78,454.86z"/>
		</g>
		<path class="st2" d="M406.61,366.35H105.39c-8.7,0-15.75-7.05-15.75-15.75V78.35c0-8.7,7.05-15.75,15.75-15.75h301.22
			c8.7,0,15.75,7.05,15.75,15.75V350.6C422.36,359.3,415.31,366.35,406.61,366.35z"/>
	</g>
	<path class="st4" d="M252.28,109.92L122.05,240.15c-4.48,4.48-4.48,11.75,0,16.23l62.65,62.65c4.48,4.48,11.75,4.48,16.23,0
		L331.16,188.8c4.48-4.48,4.48-11.75,0-16.23l-62.65-62.65C264.03,105.44,256.76,105.44,252.28,109.92z M227.16,271.89
		c1.28,1.28,1.28,3.37,0,4.65l-31.3,31.3c-1.28,1.28-3.37,1.28-4.65,0l-57.97-57.97c-1.28-1.28-1.28-3.37,0-4.65l31.3-31.3
		c1.28-1.28,3.37-1.28,4.65,0L227.16,271.89z"/>
	<path class="st4" d="M386.83,322.38H192.25c-3.58,0-6.48-2.9-6.48-6.48v0c0-3.58,2.9-6.48,6.48-6.48h194.57
		c3.58,0,6.48,2.9,6.48,6.48v0C393.31,319.48,390.41,322.38,386.83,322.38z"/>
</g>
<g>
</g>
<g>
</g>
<g>
</g>
<g>
</g>
<g>
</g>
</svg>
