<?xml version="1.0" encoding="utf-8"?>
<!-- Generator: Adobe Illustrator 25.0.1, SVG Export Plug-In . SVG Version: 6.00 Build 0)  -->
<svg version="1.1" id="Layer_1" xmlns="http://www.w3.org/2000/svg" xmlns:xlink="http://www.w3.org/1999/xlink" x="0px" y="0px"
	 viewBox="0 0 512 512" style="enable-background:new 0 0 512 512;" xml:space="preserve">
<style type="text/css">
	.st0{display:none;}
	.st1{display:inline;fill:none;stroke:#3A90C7;stroke-width:16.8076;stroke-miterlimit:10;}
	.st2{display:inline;}
	.st3{fill:#3A8FC6;}
	.st4{fill:none;stroke:#3A90C7;stroke-width:34.7789;stroke-miterlimit:10;}
</style>
<g id="Create_Survey">
	<g>
		<g>
			<g class="st0">
				<path class="st1" d="M255.97,114.01c0,29.59-22.39,53.57-50,53.57s-50-23.98-50-53.57c0-29.58,22.38-53.57,50-53.57
					S255.97,84.42,255.97,114.01z"/>
				<g class="st2">
					<path class="st3" d="M189.47,82.9h17.77c8.1,0,13.98,1.15,17.64,3.46c3.66,2.3,5.49,5.97,5.49,11c0,3.41-0.8,6.21-2.4,8.4
						s-3.73,3.5-6.39,3.95v0.39c3.62,0.81,6.23,2.32,7.83,4.53c1.6,2.21,2.4,5.16,2.4,8.83c0,5.21-1.88,9.27-5.64,12.19
						c-3.76,2.92-8.87,4.38-15.33,4.38h-21.37V82.9z M201.58,105.51h7.03c3.28,0,5.66-0.51,7.13-1.52c1.47-1.02,2.21-2.7,2.21-5.04
						c0-2.19-0.8-3.76-2.4-4.71c-1.6-0.95-4.13-1.43-7.6-1.43h-6.37V105.51z M201.58,115.12V130h7.89c3.33,0,5.79-0.64,7.38-1.91
						c1.59-1.28,2.38-3.23,2.38-5.86c0-4.74-3.39-7.11-10.16-7.11H201.58z"/>
				</g>
			</g>
			<g>
				<path class="st4" d="M208.79,114c0,52.47-42.53,95-95,95c-52.47,0-95-42.53-95-95c0-52.46,42.52-95,95-95
					C166.26,19.01,208.79,61.54,208.79,114z"/>
				<g>
					<path class="st3" d="M131.66,144.97l-5.18-16.99h-26.03l-5.18,16.99H78.98l25.2-71.68h18.51l25.29,71.68H131.66z
						 M122.87,115.29c-4.79-15.4-7.48-24.1-8.08-26.12c-0.6-2.02-1.03-3.61-1.29-4.79c-1.07,4.17-4.15,14.47-9.23,30.91H122.87z"/>
				</g>
			</g>
		</g>
		<g>
			<path class="st3" d="M509.8,99.29c0,22-18,40-40,40h-160c-22,0-40-18-40-40l0,0c0-22,18-40,40-40h160
				C491.8,59.29,509.8,77.29,509.8,99.29L509.8,99.29z"/>
			<path class="st3" d="M509.47,254.97c0,22-18,40-40,40h-160c-22,0-40-18-40-40l0,0c0-22,18-40,40-40h160
				C491.47,214.97,509.47,232.97,509.47,254.97L509.47,254.97z"/>
		</g>
	</g>
	<g>
		<g>
			<g class="st0">
				<path class="st1" d="M255.97,397c0,29.59-22.39,53.57-50,53.57s-50-23.98-50-53.57c0-29.58,22.38-53.57,50-53.57
					S255.97,367.42,255.97,397z"/>
				<g class="st2">
					<path class="st3" d="M189.47,365.9h17.77c8.1,0,13.98,1.15,17.64,3.46c3.66,2.3,5.49,5.97,5.49,11c0,3.41-0.8,6.21-2.4,8.4
						s-3.73,3.5-6.39,3.95v0.39c3.62,0.81,6.23,2.32,7.83,4.53c1.6,2.21,2.4,5.16,2.4,8.83c0,5.21-1.88,9.27-5.64,12.19
						c-3.76,2.92-8.87,4.38-15.33,4.38h-21.37V365.9z M201.58,388.51h7.03c3.28,0,5.66-0.51,7.13-1.52c1.47-1.02,2.21-2.7,2.21-5.04
						c0-2.19-0.8-3.76-2.4-4.71c-1.6-0.95-4.13-1.43-7.6-1.43h-6.37V388.51z M201.58,398.12V413h7.89c3.33,0,5.79-0.64,7.38-1.91
						c1.59-1.28,2.38-3.23,2.38-5.86c0-4.74-3.39-7.11-10.16-7.11H201.58z"/>
				</g>
			</g>
			<g>
				<path class="st4" d="M208.79,397c0,52.47-42.53,95-95,95c-52.47,0-95-42.53-95-95c0-52.46,42.52-95,95-95
					C166.26,302.01,208.79,344.54,208.79,397z"/>
				<g>
					<path class="st3" d="M89.96,362.59h22.22c10.12,0,17.47,1.44,22.05,4.32s6.86,7.46,6.86,13.75c0,4.26-1,7.76-3,10.5
						s-4.66,4.38-7.98,4.93v0.49c4.52,1.01,7.79,2.9,9.79,5.66c2,2.77,3,6.45,3,11.04c0,6.51-2.35,11.59-7.06,15.23
						c-4.7,3.65-11.09,5.47-19.17,5.47H89.96V362.59z M105.1,390.86h8.79c4.1,0,7.07-0.63,8.91-1.9s2.76-3.37,2.76-6.3
						c0-2.73-1-4.7-3-5.88c-2-1.19-5.17-1.78-9.5-1.78h-7.96V390.86z M105.1,402.87v18.6h9.86c4.17,0,7.24-0.8,9.23-2.39
						c1.99-1.59,2.98-4.04,2.98-7.32c0-5.92-4.23-8.89-12.7-8.89H105.1z"/>
				</g>
			</g>
		</g>
		<g>
			<path class="st3" d="M509.97,411.96c0,22-18,40-40,40h-160c-22,0-40-18-40-40l0,0c0-22,18-40,40-40h160
				C491.97,371.96,509.97,389.96,509.97,411.96L509.97,411.96z"/>
		</g>
	</g>
</g>
<g>
</g>
<g>
</g>
<g>
</g>
<g>
</g>
<g>
</g>
</svg>
