<?xml version="1.0" encoding="utf-8"?>
<!-- Generator: Adobe Illustrator 25.0.1, SVG Export Plug-In . SVG Version: 6.00 Build 0)  -->
<svg version="1.1" id="Layer_1" xmlns="http://www.w3.org/2000/svg" xmlns:xlink="http://www.w3.org/1999/xlink" x="0px" y="0px"
	 viewBox="0 0 512 512" style="enable-background:new 0 0 512 512;" xml:space="preserve">
<style type="text/css">
	.st0{fill-rule:evenodd;clip-rule:evenodd;fill:#3A8FC6;}
</style>
<g id="Search">
	<path class="st0" d="M492.9,421.58L375.17,319.01c-0.43-0.43-0.94-0.74-1.39-1.14c16.07-24.37,25.44-53.54,25.44-84.91
		c0-85.32-69.17-154.49-154.5-154.49c-7.32,0-14.52,0.52-21.57,1.51c10.3-5.5,17.31-16.34,17.31-28.82
		c0-18.02-14.64-32.63-32.71-32.63H39.47c-18.07,0-32.71,14.61-32.71,32.63c0,18.03,14.64,32.66,32.71,32.66h164.84
		c-27.86,7.53-52.6,22.65-71.86,43.01H39.47c-18.07,0-32.71,14.61-32.71,32.63c0,18.04,14.64,32.66,32.71,32.66h56.22
		c-3.56,13.01-5.47,26.7-5.47,40.83c0,85.33,69.17,154.5,154.49,154.5c31.38,0,60.54-9.38,84.91-25.43
		c0.41,0.45,0.71,0.95,1.14,1.39l102.58,117.74c16.45,16.44,43.11,16.44,59.56,0C509.35,464.7,509.35,438.03,492.9,421.58z
		 M244.71,333.9c-55.74,0-100.93-45.19-100.93-100.94c0-55.75,45.19-100.93,100.93-100.93c55.75,0,100.94,45.19,100.94,100.93
		C345.65,288.71,300.46,333.9,244.71,333.9z M236.52,156.33h-20.08c-60.37,27.13-51.9,77.86-51.9,77.86h71.98
		c19.54,0,35.38-17.44,35.38-38.93C271.9,173.76,256.06,156.33,236.52,156.33z"/>
</g>
<g>
</g>
<g>
</g>
<g>
</g>
<g>
</g>
<g>
</g>
</svg>
