<?xml version="1.0" encoding="utf-8"?>
<!-- Generator: Adobe Illustrator 25.0.1, SVG Export Plug-In . SVG Version: 6.00 Build 0)  -->
<svg version="1.1" id="Layer_1" xmlns="http://www.w3.org/2000/svg" xmlns:xlink="http://www.w3.org/1999/xlink" x="0px" y="0px"
	 viewBox="0 0 512 512" style="enable-background:new 0 0 512 512;" xml:space="preserve">
<style type="text/css">
	.st0{fill:#3A8FC6;}
	.st1{fill:#3690C8;}
	.st2{fill:none;stroke:#3A8FC6;stroke-width:36;stroke-miterlimit:10;}
</style>
<g>
	<g>
		<g>
			<path class="st0" d="M104.54,349.17c24.85,0,45,20.14,45,45c0,24.85-20.15,45-45,45c-24.85,0-45-20.15-45-45
				C59.54,369.31,79.69,349.17,104.54,349.17 M104.54,313.17c-44.66,0-81,36.34-81,81s36.34,81,81,81s81-36.34,81-81
				S149.2,313.17,104.54,313.17L104.54,313.17z"/>
			<path class="st1" d="M129.54,394.17c0,13.81-11.19,25-25,25c-13.81,0-25-11.2-25-25c0-13.81,11.19-25,25-25
				C118.35,369.17,129.54,380.36,129.54,394.17z"/>
		</g>
		<g>
			<path class="st0" d="M487.83,349.92c0-18.12-14.69-32.81-32.81-32.81H280.64c-18.12,0-32.81,14.69-32.81,32.81
				c0,18.12,14.69,32.81,32.81,32.81h174.37C473.14,382.73,487.83,368.04,487.83,349.92z"/>
			<path class="st0" d="M487.83,438.47c0-18.12-14.69-32.81-32.81-32.81H280.64c-18.12,0-32.81,14.69-32.81,32.81
				c0,18.12,14.69,32.81,32.81,32.81h174.37C473.14,471.28,487.83,456.59,487.83,438.47z"/>
		</g>
	</g>
	<g>
		<g>
			<rect x="42.16" y="95.33" class="st2" width="140" height="140"/>
			<g>
				
					<rect x="87.28" y="104.06" transform="matrix(0.6671 -0.745 0.745 0.6671 -30.5913 174.6556)" class="st0" width="185.7" height="35"/>
				
					<rect x="95.16" y="122.7" transform="matrix(0.6671 -0.7449 0.7449 0.6671 -83.7029 138.0861)" class="st0" width="35" height="80"/>
			</g>
		</g>
		<g>
			<path class="st0" d="M486.83,130.05c0-18.12-14.69-32.81-32.81-32.81H279.64c-18.12,0-32.81,14.69-32.81,32.81
				s14.69,32.81,32.81,32.81h174.37C472.14,162.87,486.83,148.17,486.83,130.05z"/>
			<path class="st0" d="M486.83,218.6c0-18.12-14.69-32.81-32.81-32.81H279.64c-18.12,0-32.81,14.69-32.81,32.81
				c0,18.12,14.69,32.81,32.81,32.81h174.37C472.14,251.42,486.83,236.72,486.83,218.6z"/>
		</g>
	</g>
</g>
<g>
</g>
<g>
</g>
<g>
</g>
<g>
</g>
<g>
</g>
</svg>
