<?xml version="1.0" encoding="utf-8"?>
<!-- Generator: Adobe Illustrator 25.0.1, SVG Export Plug-In . SVG Version: 6.00 Build 0)  -->
<svg version="1.1" id="Layer_1" xmlns="http://www.w3.org/2000/svg" xmlns:xlink="http://www.w3.org/1999/xlink" x="0px" y="0px"
	 viewBox="0 0 512 512" style="enable-background:new 0 0 512 512;" xml:space="preserve">
<style type="text/css">
	.st0{fill:#3592C7;}
	.st1{fill:#3890C8;}
</style>
<g id="ZIP_Merge">
	<g>
		<rect x="370.39" y="220.57" class="st0" width="28.12" height="27.49"/>
		<path class="st0" d="M445.91,17.99l-20.34-0.01c0,0.07,0,0.07,0,0.09l0,0.04c0,0.89,0,0.34,0,0.91h0c0,0.29-0.02,1.01-0.02,1.17
			v22.39h-27.42v24.88h27.27v24.59h-27.23v24.73h27.19v24.73h-27.3v24.59h27.26v108.37h-81.97V141.2h27.35v-24.59H343.4V91.73h27.27
			V67.15h-27.22V42.41h27.18V18.14c0,0.05,0-0.08,0-0.02v-0.04c0-0.02,0-0.04,0-0.05c0-0.01,0-0.02-0.01-0.03H258.78
			c-33.84,0-61.28,27.44-61.28,61.28v243.68c0.56-0.01,1.11-0.04,1.66-0.04c50.13,0,90.76,40.63,90.76,90.76
			c0,23.77-9.15,45.4-24.11,61.58h180.1c33.84,0,61.28-27.44,61.28-61.28V79.27C507.19,45.43,479.75,17.99,445.91,17.99z"/>
	</g>
	<g>
		<g>
			<path class="st0" d="M136.8,137.97h24.17v-23.82h-24.13V90.6h24.1v-8.44c-16.14-0.04-32.28-0.13-48.41-0.13v8.88H88.39v23.54
				h24.1v23.68H88.42v23.68h24.16v23.54H88.46v103.77h72.55V161.51h-24.2V137.97z M137.08,237.51v26.32H112.2v-26.32H137.08z"/>
		</g>
	</g>
	<g>
		<path class="st0" d="M109.76,415.04c0-6.31,0.73-12.39,2.07-18.11H68.96c-10.46,0-18.98-8.51-18.98-18.98V113.02
			c0-10.46,8.51-18.98,18.98-18.98h114.27c-0.37-3.1-0.67-6.25-0.61-9.49c0.39-21.2,3.28-25.68,8.77-35.68H68.96
			c-35.37,0-64.15,28.78-64.15,64.15v264.93c0,35.37,28.78,64.15,64.15,64.15h45.62C111.52,433.95,109.76,424.78,109.76,415.04z"/>
	</g>
	<g>
		<g id="Ellipse_5_1_">
			<g>
				<path class="st1" d="M199.63,352.91c33.24,0,60.28,27.04,60.28,60.28s-27.04,60.28-60.28,60.28s-60.28-27.04-60.28-60.28
					S166.39,352.91,199.63,352.91 M199.63,332.38c-44.63,0-80.82,36.18-80.82,80.82s36.18,80.82,80.82,80.82
					s80.82-36.18,80.82-80.82S244.26,332.38,199.63,332.38L199.63,332.38z"/>
			</g>
		</g>
		<g>
			<path class="st1" d="M185.86,427.71h-35.09v-25.28h35.09v-34.62h25.37v34.62h35.09v25.28h-35.09v34.05h-25.37V427.71z"/>
		</g>
	</g>
</g>
<g>
</g>
<g>
</g>
<g>
</g>
<g>
</g>
<g>
</g>
</svg>
