<?xml version="1.0" encoding="utf-8"?>
<!-- Generator: Adobe Illustrator 25.0.1, SVG Export Plug-In . SVG Version: 6.00 Build 0)  -->
<svg version="1.1" id="Layer_1" xmlns="http://www.w3.org/2000/svg" xmlns:xlink="http://www.w3.org/1999/xlink" x="0px" y="0px"
	 viewBox="0 0 512 512" style="enable-background:new 0 0 512 512;" xml:space="preserve">
<style type="text/css">
	.st0{display:none;}
	.st1{display:inline;fill:#3A8FC6;}
	.st2{fill:#3A8FC6;}
</style>
<g id="Markdown">
	<g class="st0">
		<path class="st1" d="M441.83,28.22H231.23c-33,0-59.75,26.75-59.75,59.75v37.59h-45.31c-15.95,0-28.88,12.93-28.88,28.88
			c0,15.95,12.93,28.88,28.88,28.88h45.31v31.86h-45.31c-15.95,0-28.88,12.93-28.88,28.88c0,15.95,12.93,28.88,28.88,28.88h45.31
			v151.11c0,33,26.75,59.75,59.75,59.75h210.61c33,0,59.75-26.75,59.75-59.75V87.96C501.58,54.97,474.83,28.22,441.83,28.22z
			 M458.26,405.48c0,12.46-10.1,22.56-22.56,22.56H237.36c-12.46,0-22.56-10.1-22.56-22.56V106.52c0-12.46,10.1-22.56,22.56-22.56
			H435.7c12.46,0,22.56,10.1,22.56,22.56V405.48z"/>
		<polygon class="st1" points="341.78,213.82 341.78,293.07 295.5,293.07 365.5,375.79 436.07,290.75 388.06,290.75 388.06,213.82 
					"/>
		<polygon class="st1" points="409.62,137.47 409.62,213.86 387.56,213.86 387.56,170.23 363.87,198.34 341.81,170.23 
			341.81,213.86 318.11,213.86 318.11,137.47 341.81,137.47 363.87,164.43 386.34,137.47 		"/>
	</g>
	<g>
		<path class="st2" d="M441.83,28.22H231.23c-33,0-59.75,26.75-59.75,59.75v37.59h-45.31c-15.95,0-28.88,12.93-28.88,28.88
			c0,15.95,12.93,28.88,28.88,28.88h45.31v31.86h-45.31c-15.95,0-28.88,12.93-28.88,28.88c0,15.95,12.93,28.88,28.88,28.88h45.31
			v151.11c0,33,26.75,59.75,59.75,59.75h210.61c33,0,59.75-26.75,59.75-59.75V87.96C501.58,54.97,474.83,28.22,441.83,28.22z
			 M458.26,405.48c0,12.46-10.1,22.56-22.56,22.56H237.36c-12.46,0-22.56-10.1-22.56-22.56V106.52c0-12.46,10.1-22.56,22.56-22.56
			H435.7c12.46,0,22.56,10.1,22.56,22.56V405.48z"/>
		<g>
			<polygon class="st2" points="385.52,203.39 385.52,251.29 357.55,251.29 399.86,301.29 442.51,249.9 413.49,249.9 413.49,203.39 
							"/>
			<polygon class="st2" points="351.21,202.71 351.21,301.29 322.74,301.29 322.74,244.99 292.16,281.26 263.69,244.99 
				263.69,301.29 233.11,301.29 233.11,202.71 263.69,202.71 292.16,237.5 321.16,202.71 			"/>
		</g>
	</g>
	<path class="st2" d="M76.3,428.04c-12.46,0-22.56-10.1-22.56-22.56V106.52c0-12.46,10.1-22.56,22.56-22.56h60.33
		c0,0,30.92-51.89,32.74-55.74h-99.2c-33,0-59.75,26.75-59.75,59.75v336.07c0,33,26.75,59.75,59.75,59.75h96.34l-29.87-55.74H76.3z"
		/>
</g>
<g>
</g>
<g>
</g>
<g>
</g>
<g>
</g>
<g>
</g>
</svg>
