<?xml version="1.0" encoding="utf-8"?>
<!-- Generator: Adobe Illustrator 25.0.1, SVG Export Plug-In . SVG Version: 6.00 Build 0)  -->
<svg version="1.1" id="Layer_1" xmlns="http://www.w3.org/2000/svg" xmlns:xlink="http://www.w3.org/1999/xlink" x="0px" y="0px"
	 viewBox="0 0 512 512" style="enable-background:new 0 0 512 512;" xml:space="preserve">
<style type="text/css">
	.st0{fill:#3391C6;}
	.st1{fill:#3991C7;}
	.st2{fill:#3A91C8;}
</style>
<g id="Charts_Slides_1_">
	<path class="st0" d="M262.41,510.27c-4.57-0.01-9.11-0.02-13.69-0.03l-9.04-0.56l-3.99-0.29c-28.02-2.15-54.91-8.75-80.97-20.06
		c1.02-1.93,1.74-3.39,2.55-4.8c25.5-44.19,51.02-88.38,76.53-132.57c14.79-25.62,29.56-51.26,44.38-76.86
		c1.25-2.17,3.72-6.56,3.87-6.98c0.01-0.02,0-0.23,0-0.23c0.01-0.45-0.04-3.66-0.12-5.55c-0.01-5.21-0.16-10.31-0.27-15.45
		c0-79.84,0-159.68,0.01-239.51c0-1.43-0.02-2.84-0.03-4.98c8.03,1.28,15.99,2.21,23.45,3.73c61.77,12.57,112.47,43.54,151.18,93.17
		c39.98,51.27,57.43,109.79,53.17,174.74c-1.3,19.83-4.96,39.2-10.98,58.11c-15.82,49.75-44.22,90.96-85.12,123.3
		c-40.32,31.89-86.32,49.81-137.62,53.93c-1.82,0.2-1.53,0.18-2.99,0.32c-1.67,0.16-1.8,0.16-1.8,0.16
		C267.33,510.23,265.77,510.27,262.41,510.27z"/>
	<path class="st1" d="M239.15,273.59c-38.4,66.52-77.21,133-115.67,199.61c-32.26-19.81-58.62-45.04-79.39-76.13
		C19.23,359.85,5.26,318.9,1.92,274.33C6.72,274.08,232.71,273.89,239.15,273.59z"/>
	<path class="st2" d="M246.48,1.73c0,78.96,0,157.55,0,236.41c-81.49,0-162.72,0-243.96,0C6.84,117.1,113.23,4.53,246.48,1.73z
		 M208.46,200.64c0-54.33,0-108.23,0-162.24C128.39,62.65,65.89,129.92,44.47,200.64C99.04,200.64,153.54,200.64,208.46,200.64z"/>
</g>
<g>
</g>
<g>
</g>
<g>
</g>
<g>
</g>
<g>
</g>
</svg>
