<?xml version="1.0" encoding="utf-8"?>
<!-- Generator: Adobe Illustrator 25.0.1, SVG Export Plug-In . SVG Version: 6.00 Build 0)  -->
<svg version="1.1" id="Layer_1" xmlns="http://www.w3.org/2000/svg" xmlns:xlink="http://www.w3.org/1999/xlink" x="0px" y="0px"
	 viewBox="0 0 512 512" style="enable-background:new 0 0 512 512;" xml:space="preserve">
<style type="text/css">
	.st0{fill:#3892C9;}
	.st1{fill:#3492CB;}
	.st2{fill:#FFFFFF;}
</style>
<g id="_x37_">
	<g id="Rounded_Rectangle_1_copy_14_">
		<g>
			<path class="st0" d="M365.22,427.52H146.78c-18.32,0-35.71-5.87-48.96-16.54C83.63,399.56,75.5,383.4,75.5,366.63V66.41
				c0-16.77,8.13-32.93,22.32-44.35c13.25-10.67,30.64-16.54,48.96-16.54h218.44c18.32,0,35.71,5.87,48.96,16.54
				c14.18,11.42,22.32,27.58,22.32,44.35v300.22c0,16.77-8.13,32.93-22.32,44.35C400.93,421.64,383.54,427.52,365.22,427.52z
				 M146.78,41.52c-19.12,0-35.28,11.4-35.28,24.89v300.22c0,13.49,16.16,24.89,35.28,24.89h218.44c19.12,0,35.28-11.4,35.28-24.89
				V66.41c0-13.49-16.16-24.89-35.28-24.89H146.78z"/>
		</g>
	</g>
	<g>
		<g>
			<g>
				<path class="st1" d="M347.5,105.52c0,9.9-9,18-20,18h-144c-11,0-20-8.1-20-18s9-18,20-18h144
					C338.5,87.52,347.5,95.62,347.5,105.52z"/>
			</g>
			<g>
				<path class="st1" d="M348.5,183.52c0,9.9-9,18-20,18h-144c-11,0-20-8.1-20-18s9-18,20-18h144
					C339.5,165.52,348.5,173.62,348.5,183.52z"/>
			</g>
			<g>
				<path class="st1" d="M347.5,261.52c0,9.9-9,18-20,18h-144c-11,0-20-8.1-20-18c0-9.9,9-18,20-18h144
					C338.5,243.52,347.5,251.62,347.5,261.52z"/>
			</g>
		</g>
		<g>
			<g>
				<circle class="st2" cx="258" cy="408.48" r="83"/>
				<path class="st0" d="M258,506.48c-54.04,0-98-43.96-98-98s43.96-98,98-98c54.04,0,98,43.96,98,98S312.04,506.48,258,506.48z
					 M258,340.48c-37.5,0-68,30.5-68,68s30.5,68,68,68s68-30.5,68-68S295.5,340.48,258,340.48z"/>
			</g>
			<g>
				<path class="st1" d="M276.87,456.52H252.4v-47.24c0-5.74,0.12-10.99,0.37-15.75c-1.51,1.83-3.38,3.74-5.62,5.74l-10.13,8.36
					l-12.51-15.38l30.64-24.96h21.73V456.52z"/>
			</g>
		</g>
	</g>
</g>
<g>
</g>
<g>
</g>
<g>
</g>
<g>
</g>
<g>
</g>
</svg>
