<?xml version="1.0" encoding="utf-8"?>
<!-- Generator: Adobe Illustrator 25.2.0, SVG Export Plug-In . SVG Version: 6.00 Build 0)  -->
<svg version="1.1" id="Group_2_1_" xmlns="http://www.w3.org/2000/svg" xmlns:xlink="http://www.w3.org/1999/xlink" x="0px" y="0px"
	 viewBox="0 0 512 512" style="enable-background:new 0 0 512 512;" xml:space="preserve">
<style type="text/css">
	.st0{fill:#3691C9;}
</style>
<g id="Ellipse_1">
	<g>
		<circle class="st0" cx="257" cy="168" r="109"/>
	</g>
</g>
<g id="Ellipse_1_copy">
	<g>
		<path class="st0" d="M69.6,458c7.7-96.5,88.6-172.7,186.9-172.7c19.6,0,38.6,2.9,56.9,8.8c-26.3,25.6-41.4,60.1-41.4,96.4
			c0,23.9,6.5,47,18.6,67.5H69.6z"/>
	</g>
	<g>
		<path class="st0" d="M256.5,300.3c10,0,19.8,0.8,29.5,2.5c-3.6,4.9-6.9,10-9.9,15.2c-12.5,22.1-19.1,47.2-19.1,72.4
			c0,18.1,3.3,35.8,9.7,52.5H86.6c6-34.7,22.5-66.7,48-92.1C167.1,318.3,210.4,300.3,256.5,300.3 M256.5,270.3
			C144.7,270.3,54,361.1,54,473h266.8c-21-21.9-33.8-50.8-33.8-82.5c0-41.7,22-78.5,55.8-100.9C316.6,277.3,287.4,270.3,256.5,270.3
			L256.5,270.3z"/>
	</g>
</g>
<g id="_xF021_">
	<g>
		<g>
			<path class="st0" d="M393.3,456.8c-1.2,0-2.4,0-3.6-0.1c-18.8-0.9-34.1-8-46.8-21.8c-9.2-10-14.7-21.2-16.7-33.7
				c0.9,1.7,2.1,3.5,3.8,5.2l32.6,35.7c5.4,6.3,11.7,7.2,15,7.2c0,0,0,0,0,0c3.6,0,8.8-1,13.9-5.9l63.5-57.9
				c2.1-1.8,3.6-3.7,4.7-5.6c0.5,4.1,0.7,8.3,0.5,12.6c-0.9,18.8-8,34.1-21.8,46.7C425.2,451,410.5,456.8,393.3,456.8z M325.4,385.3
				c1.1-18.4,8.2-33.3,21.8-45.7c13-11.8,27.7-17.6,44.9-17.6c1.2,0,2.4,0,3.6,0.1c18.6,0.8,33.8,7.9,46.4,21.4
				c-2.9-1.3-5.7-1.7-7.8-1.7c-3.5,0-8.7,1-13.7,5.6l-41,37.4l-12.1-13.2c-4.1-4.4-9.4-6.9-14.9-6.9c-3.3,0-8.3,0.9-13.4,5.1
				l-0.4,0.3l-7.7,7.4C328.2,380.1,326.5,382.8,325.4,385.3z"/>
			<path class="st0" d="M392.2,337L392.2,337c1,0,1.9,0,2.9,0.1c4.5,0.2,8.6,0.8,12.5,1.9l-27,24.7l-2-2.2
				c-5.7-6.2-12.9-10.1-20.7-11.3C368,341.2,378.9,337,392.2,337 M392.2,307c-21,0-39.3,7.2-55.1,21.5
				c-16.8,15.3-25.7,34.3-26.7,57.1c-1,22.8,6.1,42.5,21.4,59.3c15.3,16.8,34.4,25.7,57.2,26.7c1.4,0.1,2.9,0.1,4.3,0.1
				c21,0,39.3-7.2,55.1-21.5c16.8-15.3,25.7-34.3,26.7-57.1c1-22.8-6.1-42.5-21.4-59.3c-15.3-16.8-34.4-25.7-57.2-26.7
				C395,307.1,393.6,307,392.2,307L392.2,307z M378.7,406l52-47.5c1.2-1.1,2.4-1.7,3.6-1.7c1.3,0,2.7,0.7,4,2l7,8
				c2.5,2.6,2.4,5-0.3,7.3l-63.8,58.3c-1.2,1.2-2.4,1.8-3.6,1.8c-1.3,0-2.5-0.7-3.7-2.2l-33-36.1c-2.5-2.6-2.4-5,0.3-7.3l7.6-7.3
				c1.3-1.1,2.6-1.7,3.8-1.7c1.3,0,2.6,0.7,3.8,2L378.7,406L378.7,406z"/>
		</g>
	</g>
</g>
</svg>
