<?xml version="1.0" encoding="utf-8"?>
<!-- Generator: Adobe Illustrator 25.0.1, SVG Export Plug-In . SVG Version: 6.00 Build 0)  -->
<svg version="1.1" id="Layer_1" xmlns="http://www.w3.org/2000/svg" xmlns:xlink="http://www.w3.org/1999/xlink" x="0px" y="0px"
	 viewBox="0 0 512 512" style="enable-background:new 0 0 512 512;" xml:space="preserve">
<style type="text/css">
	.st0{fill:#3593CB;}
</style>
<g id="CSV_to_ABA">
	<g>
		<g id="Conversion_4_">
			<path class="st0" d="M125.45,369.96l-67.38-67.38c-9.88-9.89-25.91-9.89-35.8,0c-9.89,9.88-9.89,25.91,0,35.8L72.7,388.8
				l-50.43,50.42c-9.89,9.89-9.89,25.91,0,35.8c9.88,9.89,25.91,9.89,35.79,0l67.38-67.38c5.18-5.18,7.64-12.04,7.39-18.83
				C133.09,382.02,130.63,375.14,125.45,369.96z"/>
		</g>
		<g>
			<path class="st0" d="M328.3,444c0,14.34-11.66,16-26,16h-180c-2.16,0-1.85-0.09-3.68,0c-10.36,16.08-31.93,36.08-43.51,46.62
				C88.26,507.9,85.77,508,97.3,508h205c40.8,0,74-23.2,74-64v-8.19h-48V444z"/>
			<path class="st0" d="M302.3,4h-205c-40.8,0-74,33.2-74,74v183.65c22.38-4.19,27.58-0.27,48,14.85V78c0-14.34,11.66-26,26-26h205
				c14.34,0,26,11.66,26,26v52.5h48V78C376.3,37.2,343.11,4,302.3,4z"/>
		</g>
		<path class="st0" d="M266.68,154.55h-133c-14.36,0-26-11.64-26-26v0c0-14.36,11.64-26,26-26h133c14.36,0,26,11.64,26,26v0
			C292.68,142.91,281.04,154.55,266.68,154.55z"/>
	</g>
	<g>
		<path class="st0" d="M345.93,159.02l-125.98,77.67c-7.22,4.45-4.06,15.58,4.42,15.58h251.96c8.48,0,11.63-11.13,4.42-15.58
			l-125.98-77.67C352.06,157.35,348.64,157.35,345.93,159.02z"/>
		<path class="st0" d="M492.38,414.47H208.31c-2.63,0-4.76-2.13-4.76-4.76v-13.72c0-2.63,2.13-4.76,4.76-4.76h284.07
			c2.63,0,4.76,2.13,4.76,4.76v13.72C497.14,412.34,495.01,414.47,492.38,414.47z"/>
		<path class="st0" d="M467.27,378.89H233.43c-2.65,0-4.81-2.15-4.81-4.81v-12.52c0-2.65,2.15-4.81,4.81-4.81h233.84
			c2.65,0,4.81,2.15,4.81,4.81v12.52C472.08,376.73,469.92,378.89,467.27,378.89z"/>
		<path class="st0" d="M274.82,360.92h-24.16c-2.5,0-4.52-2.02-4.52-4.52v-86.65c0-2.5,2.02-4.52,4.52-4.52h24.16
			c2.5,0,4.52,2.02,4.52,4.52v86.65C279.34,358.9,277.31,360.92,274.82,360.92z"/>
		<path class="st0" d="M362.44,360.92h-24.19c-2.49,0-4.51-2.02-4.51-4.51v-86.68c0-2.49,2.02-4.51,4.51-4.51h24.19
			c2.49,0,4.51,2.02,4.51,4.51v86.68C366.95,358.91,364.93,360.92,362.44,360.92z"/>
		<path class="st0" d="M455.34,360.92h-24.17c-2.49,0-4.52-2.02-4.52-4.52v-86.66c0-2.49,2.02-4.52,4.52-4.52h24.17
			c2.49,0,4.52,2.02,4.52,4.52v86.66C459.86,358.9,457.83,360.92,455.34,360.92z"/>
	</g>
</g>
<g>
</g>
<g>
</g>
<g>
</g>
<g>
</g>
<g>
</g>
</svg>
