<?xml version="1.0" encoding="utf-8"?>
<!-- Generator: Adobe Illustrator 25.0.1, SVG Export Plug-In . SVG Version: 6.00 Build 0)  -->
<svg version="1.1" id="Layer_1" xmlns="http://www.w3.org/2000/svg" xmlns:xlink="http://www.w3.org/1999/xlink" x="0px" y="0px"
	 viewBox="0 0 512 512" style="enable-background:new 0 0 512 512;" xml:space="preserve">
<style type="text/css">
	.st0{fill:#3892C9;}
	.st1{fill:#FFFFFF;}
</style>
<g id="Book_Maker">
	<g>
		<path class="st0" d="M55.5,463.97v4.18c0,7.31,5.93,13.24,13.24,13.24h390.09c7.31,0,13.24,5.93,13.24,13.24l0,0
			c0,7.31-5.93,13.24-13.24,13.24H53.05c-13.27,0-24.03-10.76-24.03-24.03V34.92c0-16.46,13.34-29.8,29.8-29.8h394.36
			c16.46,0,29.8,13.34,29.8,29.8v386.02c0,16.46-13.34,29.8-29.8,29.8H68.73C61.42,450.74,55.5,456.66,55.5,463.97z"/>
	</g>
	<g>
		<rect x="95.15" y="4.14" class="st1" width="19.73" height="447.59"/>
	</g>
	<g>
		<g>
			<path class="st1" d="M432.19,288.94H163.47c-8.5,0-15.39-6.89-15.39-15.39V117.63c0-8.5,6.89-15.39,15.39-15.39h268.72
				c8.5,0,15.39,6.89,15.39,15.39v155.91C447.58,282.05,440.69,288.94,432.19,288.94z"/>
		</g>
		<g>
			<path class="st1" d="M381.59,386.87H209.32c-9.88,0-17.89-8.01-17.89-17.89v-3.28c0-9.88,8.01-17.89,17.89-17.89h172.27
				c9.88,0,17.89,8.01,17.89,17.89v3.28C399.48,378.86,391.47,386.87,381.59,386.87z"/>
		</g>
		<g>
			<g>
				<g>
					<path class="st0" d="M271.44,204.72c-2.96-3.47-7.91-5.53-13.23-5.53c-5.33,0-10.27,2.07-13.23,5.53h0l-71.89,84.16
						c-0.71,0.84,0.05,1.96,1.34,1.96h20.44c0.07-0.11,0.1-0.14,0.16-0.21l0,0l61.86-69.68c0.64-0.72,2-0.72,2.64,0l61.86,69.68l0,0
						c0.07,0.07,0.11,0.14,0.17,0.21h20.43c1.29,0,2.05-1.12,1.34-1.96L271.44,204.72z"/>
				</g>
			</g>
			<g>
				<g>
					<path class="st0" d="M351.64,217.5c-2.75-2.93-7.35-4.67-12.3-4.67c-4.95,0-9.55,1.75-12.3,4.67h0L298.1,245.3
						c-0.11,0.12-2.6-4.7-2.64-4.58c-0.26,0.85,7.73,13.83,8.65,13.25l6.24,5.62c0.06-0.09-0.06,0.06,0,0l0,0l27.76-28.41
						c0.59-0.61,1.86-0.61,2.46,0l57.51,58.85l0,0c0.06,0.06,0.1,0.12,0.16,0.18h18.99c1.2,0,1.91-0.95,1.24-1.65L351.64,217.5z"/>
					<path class="st0" d="M417.23,292.72h-20.16l-0.82-0.97l-56.92-58.24l-27.05,27.68l-1.5,2.16l-0.33-0.3l0,0l-3.58-3.2l0.01-0.02
						l-4-3.6c-0.22-0.1-0.45-0.24-0.68-0.41c-1.39-1.07-3.77-4.65-5.52-7.46c-4.14-6.67-3.92-7.39-3.62-8.37l0.48-1.59l1.65-0.17
						c1.67-0.17,2.17,0.71,3.46,3.06l26.6-25.56c3.22-3.39,8.48-5.41,14.08-5.41c5.63,0,10.91,2.04,14.12,5.46v0l66.83,71.07
						c0.94,1,1.19,2.38,0.66,3.61C420.36,291.84,418.9,292.72,417.23,292.72z M396.26,291.76c0.02,0.03,0.06,0.06,0.09,0.1
						L396.26,291.76z M399.31,287.72h14.94l-64.43-68.52v0c-2.29-2.43-6.21-3.89-10.48-3.89s-8.19,1.45-10.48,3.89l-0.09,0.09
						l-27.72,26.63c1.18,1.88,2.44,3.78,3.33,4.94l5.85,5.27l26.08-26.69c0.75-0.77,1.85-1.21,3.02-1.21s2.26,0.44,3.02,1.21
						L399.31,287.72z"/>
				</g>
			</g>
			<g>
				<path class="st0" d="M304.87,191.49c-17.9,0-32.46-14.56-32.46-32.46c0-17.9,14.56-32.46,32.46-32.46s32.46,14.56,32.46,32.46
					C337.33,176.93,322.77,191.49,304.87,191.49z M304.87,141.57c-9.63,0-17.46,7.83-17.46,17.46c0,9.63,7.83,17.46,17.46,17.46
					s17.46-7.83,17.46-17.46C322.33,149.4,314.5,141.57,304.87,141.57z"/>
			</g>
		</g>
	</g>
</g>
<g>
</g>
<g>
</g>
<g>
</g>
<g>
</g>
<g>
</g>
</svg>
