<?xml version="1.0" encoding="utf-8"?>
<!-- Generator: Adobe Illustrator 25.0.1, SVG Export Plug-In . SVG Version: 6.00 Build 0)  -->
<svg version="1.1" id="Layer_1" xmlns="http://www.w3.org/2000/svg" xmlns:xlink="http://www.w3.org/1999/xlink" x="0px" y="0px"
	 viewBox="0 0 512 512" style="enable-background:new 0 0 512 512;" xml:space="preserve">
<style type="text/css">
	.st0{display:none;fill:#3A8FC6;}
	.st1{fill-rule:evenodd;clip-rule:evenodd;fill:#3A8FC6;}
	.st2{fill:#3A8FC6;}
</style>
<g id="Zonal">
	<polygon class="st0" points="93.52,368.89 48.29,315.04 -27.21,414.12 245.38,414.12 152.76,270.88 	"/>
	<path class="st1" d="M305.54,263.86h172.97c11.09,0,20.07,8.98,20.07,20.07v0.79c0,11.08-8.98,20.07-20.07,20.07H305.54
		c-11.09,0-20.07-8.99-20.07-20.07v-0.79C285.47,272.84,294.45,263.86,305.54,263.86z"/>
	<path class="st1" d="M343.12,337.76h135.39c11.09,0,20.07,8.98,20.07,20.07v0.79c0,11.08-8.98,20.07-20.07,20.07H343.12
		c-11.09,0-20.07-8.99-20.07-20.07v-0.79C323.04,346.75,332.03,337.76,343.12,337.76z"/>
	<path class="st2" d="M332.29,215.84c0,10.83-8.78,19.62-19.62,19.62h-24.88c-10.84,0-19.62-8.78-19.62-19.62l0,0
		c0-10.83,8.78-19.62,19.62-19.62h24.88C323.51,196.22,332.29,205.01,332.29,215.84L332.29,215.84z"/>
	<path class="st2" d="M329.58,143.64c0,10.38-8.41,18.79-18.79,18.79h-23.83c-10.38,0-18.79-8.41-18.79-18.79l0,0
		c0-10.38,8.41-18.79,18.79-18.79h23.83C321.17,124.85,329.58,133.26,329.58,143.64L329.58,143.64z"/>
	<path class="st2" d="M414.08,216.67c0,10.38-8.41,18.79-18.79,18.79h-23.83c-10.38,0-18.79-8.41-18.79-18.79l0,0
		c0-10.38,8.41-18.79,18.79-18.79h23.83C405.67,197.88,414.08,206.3,414.08,216.67L414.08,216.67z"/>
	<path class="st2" d="M414.08,143.64c0,10.38-8.41,18.79-18.79,18.79h-23.83c-10.38,0-18.79-8.41-18.79-18.79l0,0
		c0-10.38,8.41-18.79,18.79-18.79h23.83C405.67,124.85,414.08,133.26,414.08,143.64L414.08,143.64z"/>
	<path class="st2" d="M498.58,216.67c0,10.38-8.41,18.79-18.79,18.79h-23.83c-10.38,0-18.79-8.41-18.79-18.79l0,0
		c0-10.38,8.41-18.79,18.79-18.79h23.83C490.17,197.88,498.58,206.3,498.58,216.67L498.58,216.67z"/>
	<path class="st2" d="M498.58,143.64c0,10.38-8.41,18.79-18.79,18.79h-23.83c-10.38,0-18.79-8.41-18.79-18.79l0,0
		c0-10.38,8.41-18.79,18.79-18.79h23.83C490.17,124.85,498.58,133.26,498.58,143.64L498.58,143.64z"/>
	<path class="st2" d="M409.69,390.48L292.94,288.76c-0.43-0.43-0.93-0.73-1.38-1.13c15.93-24.17,25.22-53.1,25.22-84.2
		c0-84.6-68.6-153.2-153.21-153.2c-84.61,0-153.2,68.59-153.2,153.2c0,84.62,68.59,153.21,153.2,153.21
		c31.12,0,60.03-9.3,84.2-25.22c0.4,0.44,0.7,0.94,1.13,1.38l101.72,116.75c16.31,16.3,42.75,16.3,59.07,0
		C426,433.23,426,406.79,409.69,390.48z M163.57,303.52c-55.27,0-100.09-44.81-100.09-100.1c0-55.28,44.82-100.09,100.09-100.09
		c55.28,0,100.1,44.82,100.1,100.09C263.67,258.71,218.85,303.52,163.57,303.52z"/>
	<g>
		<rect x="147.52" y="59" class="st2" width="30.33" height="94.99"/>
		<rect x="147.52" y="250.45" class="st2" width="30.33" height="95.58"/>
	</g>
	<g>
		<rect x="208.69" y="185.6" class="st2" width="87.33" height="33.83"/>
		<rect x="29.35" y="185.6" class="st2" width="89.06" height="33.83"/>
	</g>
</g>
<g>
</g>
<g>
</g>
<g>
</g>
<g>
</g>
<g>
</g>
</svg>
