<?xml version="1.0" encoding="utf-8"?>
<!-- Generator: Adobe Illustrator 25.0.1, SVG Export Plug-In . SVG Version: 6.00 Build 0)  -->
<svg version="1.1" id="Layer_1" xmlns="http://www.w3.org/2000/svg" xmlns:xlink="http://www.w3.org/1999/xlink" x="0px" y="0px"
	 viewBox="0 0 512 512" style="enable-background:new 0 0 512 512;" xml:space="preserve">
<style type="text/css">
	.st0{fill:#3592C7;}
</style>
<g id="Image">
	<g id="Base_4_">
		<g>
			<g>
				<path class="st0" d="M443.39,443.01c0,0-7.21-0.16-7.26-0.04c-4.29,10.67-10.92,15.06-22.36,14.97
					c-52.78-0.44-209.56,0-209.56,0c-13.81,0-25.21-10.63-25.21-24.44v-355c0-13.81,11.19-25,25-25h210c13.81,0,25,11.19,25,25
					v62.26l51.72-26.66l0.28-0.33V78.5c0-42.46-34.54-77-77-77H204c-42.46,0-77,34.54-77,77v355c0,42.46,34.54,77,77,77h210
					c42.46,0,71.89-34.37,75.3-67.47l-13.45-0.13L443.39,443.01z"/>
			</g>
			<g>
				<path class="st0" d="M309.8,146.05c-24.5,0-48.99,0.09-73.49-0.04c-12.81-0.07-23.2-9.17-25.49-21.85
					c-2.11-11.72,4.96-23.89,16.49-28.35c3.14-1.21,6.38-1.77,9.76-1.77c48.66,0.02,97.32-0.03,145.98,0.04
					c14.99,0.02,26.53,11.53,26.5,26.11c-0.03,14.5-11.66,25.81-26.76,25.85C358.46,146.09,334.13,146.05,309.8,146.05z"/>
			</g>
		</g>
		<g>
			<g>
				<path class="st0" d="M118.72,50.98c-4.08,14.67-4.94,29.63-3.62,44.51c-3.39,0.43-5.1,0.48-7.56,0.5
					c-11.17,0.06-22.33,0.01-33.5,0.03c-16.19,0.04-26.5,10.3-26.53,26.59c-0.06,37.83-0.02,75.66-0.02,113.49
					c0,50.5,0.33,101-0.19,151.49c-0.17,16.99,11.41,29.28,28.51,28.51c11.48-0.51,22.99-0.12,34.49-0.08
					c1.62,0.01,2.56,0,5.26,0.15c-1.9,14.65-1.11,29.82,2.25,44.83c-12.47,0-24.44-0.01-36.42,0c-8.16,0.01-16.28,0.02-24.34-1.82
					c-31.52-7.18-54.41-34.89-54.48-67.25C2.4,301.3,2.36,210.63,2.6,119.97c0.1-38.05,31.28-68.7,69.3-68.94
					c14.17-0.09,28.33-0.02,42.5-0.01C115.7,51.02,116.94,50.96,118.72,50.98z"/>
			</g>
			<g>
				<path class="st0" d="M114.32,247.94c-9.96,0-19.77,0.65-29.45-0.17c-11.15-0.95-18.06-10.82-17.26-22.89
					c0.69-10.47,9.02-18.54,19.66-18.75c8.47-0.17,16.95-0.03,25.42-0.01c0.46,0,0.97,0,1.63,0
					C114.32,219.86,114.32,233.91,114.32,247.94z"/>
			</g>
			<g>
				<path class="st0" d="M114.29,168.9c-9.96,0-19.77,0.65-29.45-0.17c-11.15-0.95-18.06-10.82-17.26-22.89
					c0.69-10.47,9.02-18.54,19.66-18.75c8.47-0.17,16.95-0.03,25.42-0.01c0.46,0,0.97,0,1.63,0
					C114.29,140.82,114.29,154.87,114.29,168.9z"/>
			</g>
			<g>
				<path class="st0" d="M114.34,285.06c0,14.31,0,27.88,0,41.85c-9.95,0-19.75,0.64-29.43-0.17
					c-11.16-0.93-18.09-10.75-17.33-22.83c0.66-10.47,8.97-18.6,19.59-18.82C96.11,284.91,105.05,285.06,114.34,285.06z"/>
			</g>
		</g>
	</g>
	<g>
		<g id="Rounded_Rectangle_5">
			<g>
				<path class="st0" d="M509.57,412.71h-300v-240h300V412.71z M234.57,387.71h250v-190h-250V387.71z"/>
			</g>
		</g>
		<g id="Ellipse_2_1_">
			<g>
				<circle class="st0" cx="390.07" cy="256.21" r="30"/>
			</g>
		</g>
		<g id="Shape_3_3_">
			<g>
				<polygon class="st0" points="309.85,279.21 222.07,398.44 386.53,398.44 407.72,400.21 447.07,399.32 				"/>
			</g>
		</g>
		<g id="Shape_3_copy_1_">
			<g>
				<polygon class="st0" points="393.34,307.21 325.07,399.83 452.98,399.83 469.46,401.21 500.07,400.52 				"/>
			</g>
		</g>
	</g>
</g>
<g>
</g>
<g>
</g>
<g>
</g>
<g>
</g>
<g>
</g>
</svg>
