<?xml version="1.0" encoding="utf-8"?>
<!-- Generator: Adobe Illustrator 25.0.1, SVG Export Plug-In . SVG Version: 6.00 Build 0)  -->
<svg version="1.1" id="Layer_1" xmlns="http://www.w3.org/2000/svg" xmlns:xlink="http://www.w3.org/1999/xlink" x="0px" y="0px"
	 viewBox="0 0 512 512" style="enable-background:new 0 0 512 512;" xml:space="preserve">
<style type="text/css">
	.st0{fill:#3B90C6;}
	.st1{fill:#3C8FC7;}
</style>
<g>
	<g>
		<g>
			<path class="st0" d="M119.77,237.82C54.83,237.82,2,184.99,2,120.05C2,55.11,54.83,2.28,119.77,2.28
				c64.94,0,117.78,52.83,117.78,117.77C237.54,184.99,184.71,237.82,119.77,237.82z M119.77,38.21
				c-45.12,0-81.84,36.71-81.84,81.84c0,45.13,36.71,81.84,81.84,81.84c45.13,0,81.85-36.72,81.85-81.84
				C201.61,74.92,164.9,38.21,119.77,38.21z"/>
		</g>
		<g>
			<path class="st1" d="M136.61,149.96L131.44,133h-25.98l-5.17,16.96H84.02l25.15-71.54h18.47l25.24,71.54H136.61z M127.84,120.33
				c-4.78-15.37-7.46-24.06-8.07-26.07c-0.6-2.01-1.03-3.61-1.29-4.78c-1.07,4.16-4.14,14.44-9.21,30.85H127.84z"/>
		</g>
	</g>
	<g>
		<path class="st0" d="M454.11,37.92c10.98,0,19.96,8.98,19.96,19.96v124.76c0,10.98-8.98,19.96-19.96,19.96H329.35
			c-10.98,0-19.96-8.98-19.96-19.96V57.88c0-10.98,8.98-19.96,19.96-19.96H454.11 M454.11,1.99H329.35
			c-30.82,0-55.89,25.07-55.89,55.89v124.76c0,30.82,25.07,55.89,55.89,55.89h124.76c30.82,0,55.89-25.07,55.89-55.89V57.88
			C510,27.07,484.93,1.99,454.11,1.99L454.11,1.99z"/>
	</g>
	<g>
		<g>
			<rect x="381.04" y="103.4" class="st1" width="18.75" height="59.88"/>
		</g>
		<g>
			<path class="st1" d="M400.4,86.86c0,5.51-4.47,9.98-9.98,9.98c-5.51,0-9.98-4.47-9.98-9.98c0-5.51,4.47-9.98,9.98-9.98
				C395.93,76.88,400.4,81.35,400.4,86.86z"/>
		</g>
	</g>
	<g>
		<g>
			<path class="st0" d="M119.77,509.29C54.83,509.29,2,456.46,2,391.52c0-64.94,52.83-117.77,117.77-117.77
				c64.94,0,117.78,52.83,117.78,117.77C237.54,456.46,184.71,509.29,119.77,509.29z M119.77,309.68
				c-45.12,0-81.84,36.71-81.84,81.84c0,45.13,36.71,81.84,81.84,81.84c45.13,0,81.85-36.72,81.85-81.84
				C201.61,346.4,164.9,309.68,119.77,309.68z"/>
		</g>
		<g>
			<path class="st1" d="M95.98,356.17h22.17c10.1,0,17.44,1.44,22,4.31c4.56,2.88,6.85,7.45,6.85,13.72c0,4.26-1,7.75-3,10.48
				c-2,2.73-4.65,4.37-7.97,4.92v0.49c4.52,1.01,7.77,2.89,9.77,5.65c2,2.76,3,6.43,3,11.01c0,6.5-2.35,11.57-7.04,15.2
				c-4.69,3.64-11.07,5.46-19.13,5.46H95.98V356.17z M111.09,384.39h8.77c4.09,0,7.06-0.63,8.89-1.9c1.83-1.27,2.75-3.36,2.75-6.29
				c0-2.73-1-4.69-3-5.87c-2-1.19-5.16-1.78-9.48-1.78h-7.94V384.39z M111.09,396.38v18.57h9.84c4.16,0,7.23-0.8,9.21-2.39
				c1.98-1.59,2.97-4.03,2.97-7.31c0-5.91-4.22-8.87-12.67-8.87H111.09z"/>
		</g>
	</g>
	<g>
		<path class="st0" d="M454.11,309.4c10.98,0,19.96,8.98,19.96,19.96v124.76c0,10.98-8.98,19.96-19.96,19.96H329.35
			c-10.98,0-19.96-8.98-19.96-19.96V329.36c0-10.98,8.98-19.96,19.96-19.96H454.11 M454.11,273.47H329.35
			c-30.82,0-55.89,25.07-55.89,55.89v124.76c0,30.82,25.07,55.89,55.89,55.89h124.76c30.82,0,55.89-25.07,55.89-55.89V329.36
			C510,298.54,484.93,273.47,454.11,273.47L454.11,273.47z"/>
	</g>
	<g>
		<g>
			<g>
				<rect x="362.08" y="374.88" class="st1" width="18.75" height="59.88"/>
			</g>
			<g>
				<path class="st1" d="M381.44,358.33c0,5.51-4.47,9.98-9.98,9.98c-5.52,0-9.98-4.47-9.98-9.98c0-5.51,4.47-9.98,9.98-9.98
					C376.97,348.35,381.44,352.82,381.44,358.33z"/>
			</g>
		</g>
		<g>
			<g>
				<rect x="400.01" y="374.84" class="st1" width="18.75" height="59.88"/>
			</g>
			<g>
				<path class="st1" d="M419.36,358.3c0,5.51-4.47,9.98-9.98,9.98c-5.51,0-9.98-4.47-9.98-9.98c0-5.51,4.47-9.98,9.98-9.98
					C414.89,348.32,419.36,352.79,419.36,358.3z"/>
			</g>
		</g>
	</g>
</g>
<g>
</g>
<g>
</g>
<g>
</g>
<g>
</g>
<g>
</g>
</svg>
