<svg xmlns="http://www.w3.org/2000/svg" xml:space="preserve" width="500" height="100">
  <path fill="#094E75" d="M35.8 69.8C32 69.8 29 66.3 29 62c0-4.4 3-7.9 6.7-7.9h7.6V35.8c0-4.6-3.8-8.4-8.4-8.4H18.3a8.4 8.4 0 0 0-8.3 8.4v28.4c0 4.6 3.7 8.4 8.3 8.4H35a8 8 0 0 0 6.2-2.8h-5.4z"/>
  <path fill="#2872A0" d="M35.8 69.8C32 69.8 29 66.3 29 62c0-4.4 3-7.9 6.7-7.9h18V32.6c0-5.7-4.6-10.2-10.2-10.2H23c-5.6 0-10.2 4.5-10.2 10.2v34.8c0 5.7 4.6 10.2 10.2 10.2h20.5c4.8 0 8.8-3.3 10-7.7H35.7z"/>
  <path fill="#3894D1" d="M35.8 69.8C32 69.8 29 66.3 29 62c0-4.4 3-7.9 6.7-7.9h32.6V28.7c0-7-5.6-12.5-12.5-12.5H31c-7 0-12.6 5.6-12.6 12.5v42.6c0 7 5.6 12.5 12.5 12.5H56c7 0 12.5-5.6 12.5-12.5v-1.5H35.8z"/>
  <path fill="#F05C29" d="M68 55.9H37.1a6.1 6.1 0 0 0 0 12.2h31A6.1 6.1 0 1 0 68 56zm-30.8 9.4a3 3 0 1 1 0-5.9 3 3 0 0 1 0 5.9z"/>
  <path fill="#FFF" d="M103.4 64.5c2.2 0 4-.4 5.7-1.1a23 23 0 0 0 5-3.5l4 4.2c-4 4.4-8.8 6.6-14.5 6.6-5.7 0-10.4-1.8-14.2-5.5-3.8-3.7-5.6-8.3-5.6-14s1.9-10.2 5.7-14 8.7-5.6 14.5-5.6a19 19 0 0 1 14.7 6.5l-4 4.4a20.4 20.4 0 0 0-5.2-3.6c-1.6-.7-3.4-1-5.6-1-3.8 0-7 1.2-9.6 3.7-2.6 2.5-4 5.6-4 9.4s1.4 7 4 9.6c2.5 2.6 5.6 4 9.1 4zm53.3.5a19.5 19.5 0 0 1-14.1 5.7 19.5 19.5 0 0 1-20-19.6 19.5 19.5 0 0 1 19.9-19.5 19.5 19.5 0 0 1 20 19.5 19 19 0 0 1-5.8 14zM152 41.5c-2.5-2.6-5.7-4-9.4-4s-7 1.4-9.5 4c-2.6 2.7-3.9 6-3.9 9.7a13.6 13.6 0 0 0 13.4 13.7c3.8 0 6.9-1.3 9.4-4 2.6-2.6 3.9-5.9 3.9-9.7s-1.3-7-3.9-9.7zm46.8-9h6.3v37.8h-6.9l-21.4-27.6v27.6h-6.3V32.5h6.3l22 28.2V32.5zm16.8 37.8V32.5h6.4V49h18.7V32.5h6.4v37.8h-6.4V54.8H222v15.5h-6.4zm73.6-5.3a19.5 19.5 0 0 1-14.2 5.7A19.5 19.5 0 0 1 255.1 51 19.5 19.5 0 0 1 275 31.6a19.5 19.5 0 0 1 20 19.5c0 5.6-2 10.2-5.7 14zm-4.7-23.6c-2.6-2.6-5.7-4-9.5-4s-6.9 1.4-9.5 4-3.8 6-3.8 9.7 1.3 7 3.8 9.7c2.6 2.7 5.8 4 9.5 4s7-1.3 9.5-4c2.6-2.6 3.9-5.9 3.9-9.7s-1.3-7-4-9.7zM303 70.3V32.5h6.3v31.7h17.2v6H303zm59-32.8c3.7 3.3 5.5 7.9 5.5 13.7s-1.7 10.5-5.3 14c-3.5 3.4-8.9 5-16.2 5h-12.5V32.6h13c6.7 0 12 1.7 15.6 5zm-1 13.9c0-8.7-4.9-13-14.8-13H340v25.9h7c4.6 0 8.1-1.1 10.5-3.3 2.5-2.2 3.7-5.4 3.7-9.6zm20 10.3-3.7 8.6h-6.8L387 32.5h6.8l16.7 37.8h-6.8l-3.8-8.6h-19zm16.4-5.9-6.9-15.5-6.8 15.5h13.7zM427 38.4v31.9h-6.3v-32h-11.4v-5.8h29.2v5.9h-11.4zm45-5.9v6h-20.2v10H470v5.7h-18v10h20.7v6h-27.2V32.6H472z"/>
</svg>
