<?xml version="1.0" encoding="utf-8"?>
<!-- Generator: Adobe Illustrator 25.0.1, SVG Export Plug-In . SVG Version: 6.00 Build 0)  -->
<svg xmlns="http://www.w3.org/2000/svg" xmlns:xlink="http://www.w3.org/1999/xlink" version="1.1" id="Layer_1" x="0px" y="0px" viewBox="0 0 335 283" style="enable-background:new 0 0 335 283;" xml:space="preserve">
<style type="text/css">
	.st0{fill:#EEEEEE;}
	.st1{fill:none;stroke:#EEEEEE;stroke-width:3;stroke-linecap:round;stroke-linejoin:round;}
	.st2{fill:none;stroke:#EEEEEE;stroke-width:3;stroke-linecap:round;stroke-linejoin:round;stroke-dasharray:6.5303,8.7071;}
	.st3{fill:none;stroke:#EEEEEE;stroke-width:3;stroke-linecap:round;stroke-linejoin:round;stroke-dasharray:5.6936,7.5915;}
	.st4{fill:#68217A;}
	.st5{fill:#FFFFFF;}
	.st6{fill:#3F99D4;}
	.st7{fill:#575756;}
</style>
<g id="Aspose.Drawing">
	<polygon class="st0" points="143.87,268.48 30.92,260.48 30.92,113.91 143.87,113.91  "/>
	<polygon class="st0" points="149.87,268.48 218.46,260.48 218.46,113.91 149.87,113.91  "/>
	<g id="lines_23_">
		<g>
			<g>
				<line class="st1" x1="169.06" y1="53.3" x2="166.06" y2="53.3"/>
				<line class="st2" x1="157.35" y1="53.3" x2="131.23" y2="53.3"/>
				<polyline class="st1" points="126.87,53.3 123.87,53.3 123.87,56.3     "/>
				<line class="st3" x1="123.87" y1="63.89" x2="123.87" y2="99.95"/>
				<line class="st1" x1="123.87" y1="103.75" x2="123.87" y2="106.75"/>
			</g>
		</g>
	</g>
	<g id="circles_23_">
		<circle class="st4" cx="184.04" cy="54.2" r="33.61"/>
		<path id="NET_23_" class="st5" d="M193.31,51.17h4.7v14.57h1.91V51.17h4.7v-1.73h-11.31V51.17z M184.78,58.32h5.89v-1.73h-5.89    v-5.42h6.36v-1.73h-8.27v16.3h8.64v-1.73h-6.72L184.78,58.32L184.78,58.32z M177.36,60.93l0.11,2.4h-0.05    c-0.11-0.22-0.34-0.58-0.66-1.09l-8.16-12.79h-2.48v16.3h1.91V53.97l-0.09-2.24h0.07c0.14,0.37,0.31,0.71,0.51,1.02l8.41,12.99    h2.32v-16.3h-1.9L177.36,60.93L177.36,60.93z M162.07,63.44c-0.35,0-0.64,0.12-0.89,0.38c-0.24,0.25-0.36,0.55-0.36,0.91    c0,0.34,0.13,0.66,0.36,0.9c0.24,0.25,0.54,0.38,0.89,0.38c0.36,0,0.66-0.13,0.91-0.38s0.38-0.56,0.38-0.91s-0.13-0.65-0.38-0.91    c-0.24-0.25-0.57-0.39-0.91-0.38 M199.94,46.18c0,0.87,0.39,1.31,1.16,1.31c0.28,0,0.5-0.05,0.67-0.14v-0.61    c-0.13,0.1-0.3,0.15-0.46,0.14c-0.24,0-0.4-0.06-0.51-0.19c-0.1-0.12-0.15-0.34-0.15-0.63v-2.5h1.12v-0.6h-1.11v-1.31l-0.71,0.23    v1.08h-0.76v0.6h0.76v2.63L199.94,46.18z M197.04,47.39h0.71v-3.83h1.04v-0.6h-1.04v-0.68c0-0.63,0.25-0.94,0.74-0.94    c0.16,0,0.33,0.04,0.47,0.12v-0.64c-0.13-0.06-0.3-0.08-0.52-0.08c-0.38,0-0.7,0.11-0.96,0.36c-0.3,0.28-0.45,0.66-0.45,1.15v0.72    h-0.75v0.6h0.75v3.84L197.04,47.39z M192.19,45.19c0-0.57,0.14-1,0.42-1.31c0.27-0.29,0.62-0.43,1.06-0.43    c0.45,0,0.8,0.14,1.05,0.43c0.26,0.3,0.39,0.73,0.39,1.3c0,0.54-0.11,0.97-0.36,1.26c-0.24,0.3-0.6,0.45-1.07,0.45    c-0.45,0-0.81-0.15-1.08-0.45C192.32,46.14,192.19,45.72,192.19,45.19 M195.23,46.85c0.4-0.43,0.6-0.99,0.6-1.7    c0-0.72-0.19-1.28-0.56-1.7c-0.37-0.41-0.89-0.61-1.55-0.61c-0.67,0-1.21,0.2-1.61,0.59c-0.43,0.42-0.65,1.02-0.65,1.79    c0,0.68,0.19,1.22,0.57,1.63c0.39,0.43,0.92,0.64,1.59,0.64C194.3,47.49,194.84,47.28,195.23,46.85 M190.35,47.1    c0.27-0.22,0.42-0.56,0.41-0.9c0-0.33-0.11-0.6-0.33-0.81c-0.17-0.17-0.44-0.33-0.82-0.49c-0.34-0.14-0.56-0.27-0.67-0.37    c-0.12-0.11-0.18-0.26-0.18-0.46c0-0.18,0.07-0.33,0.21-0.45s0.33-0.17,0.57-0.17c0.38,0,0.71,0.11,1.01,0.32v-0.72    c-0.28-0.14-0.6-0.21-0.95-0.21c-0.45,0-0.84,0.12-1.13,0.37c-0.29,0.25-0.44,0.55-0.44,0.92c0,0.33,0.09,0.6,0.28,0.8    c0.16,0.17,0.42,0.34,0.79,0.5c0.36,0.16,0.6,0.29,0.73,0.41s0.19,0.26,0.19,0.43c0,0.41-0.28,0.62-0.85,0.62    c-0.42,0-0.81-0.14-1.15-0.43v0.76c0.31,0.18,0.68,0.27,1.1,0.27C189.64,47.49,190.05,47.36,190.35,47.1 M184.01,43.88    c0.26-0.29,0.63-0.43,1.06-0.43c0.45,0,0.8,0.14,1.05,0.43c0.26,0.3,0.38,0.73,0.38,1.3c0,0.54-0.11,0.97-0.36,1.26    c-0.24,0.3-0.6,0.45-1.07,0.45c-0.45,0-0.81-0.15-1.08-0.45s-0.4-0.71-0.4-1.25C183.6,44.62,183.74,44.18,184.01,43.88     M185.03,47.49c0.68,0,1.21-0.21,1.61-0.64c0.4-0.43,0.6-0.99,0.6-1.7c0-0.72-0.19-1.28-0.56-1.7c-0.37-0.41-0.89-0.61-1.55-0.61    c-0.67,0-1.21,0.2-1.61,0.59c-0.43,0.42-0.65,1.02-0.65,1.79c0,0.68,0.19,1.22,0.57,1.63C183.83,47.27,184.36,47.49,185.03,47.49     M181.45,43.11c-0.22,0.17-0.38,0.43-0.48,0.75h-0.02v-0.92h-0.71v4.44h0.71v-2.25c0-0.52,0.11-0.92,0.33-1.21    c0.2-0.26,0.44-0.39,0.73-0.39c0.24,0,0.42,0.05,0.54,0.14v-0.74c-0.1-0.04-0.24-0.06-0.43-0.06    C181.88,42.88,181.65,42.96,181.45,43.11 M177.95,47.49c0.47,0,0.88-0.1,1.22-0.31v-0.67c-0.34,0.25-0.7,0.38-1.09,0.38    c-0.45,0-0.82-0.15-1.1-0.45c-0.27-0.3-0.41-0.71-0.41-1.23c0-0.54,0.15-0.97,0.45-1.29c0.28-0.31,0.65-0.47,1.1-0.47    c0.38,0,0.75,0.12,1.06,0.35v-0.73c-0.3-0.15-0.64-0.23-1.03-0.23c-0.7,0-1.27,0.22-1.68,0.67s-0.63,1.04-0.63,1.76    c0,0.65,0.19,1.18,0.57,1.59C176.8,47.29,177.32,47.5,177.95,47.49 M174.02,47.4h0.71v-4.44h-0.71V47.4L174.02,47.4z     M174.38,41.83c0.12,0,0.24-0.05,0.33-0.14s0.14-0.21,0.14-0.33c0-0.12-0.05-0.24-0.14-0.33s-0.21-0.13-0.33-0.13    c-0.13,0-0.24,0.04-0.33,0.13c-0.09,0.09-0.14,0.2-0.14,0.33c0,0.14,0.05,0.25,0.14,0.33C174.14,41.79,174.26,41.83,174.38,41.83     M166.84,43.23l-0.03-1.21h0.02c0.06,0.29,0.13,0.5,0.19,0.64l2.12,4.74h0.36l2.13-4.78c0.05-0.13,0.12-0.33,0.19-0.6h0.02    l-0.06,1.2v4.18h0.73v-6.22h-0.91l-1.95,4.31c-0.08,0.17-0.17,0.42-0.3,0.76h-0.03c-0.05-0.17-0.14-0.42-0.28-0.74l-1.91-4.34    h-0.96v6.22h0.7v-4.16H166.84z M204.2,43.95c-0.2,0.2-0.45,0.3-0.74,0.3c-0.29,0-0.54-0.1-0.74-0.3s-0.31-0.45-0.31-0.75    c0-0.29,0.1-0.54,0.3-0.74c0.2-0.2,0.45-0.3,0.75-0.3c0.28-0.01,0.54,0.1,0.74,0.3s0.31,0.47,0.3,0.75    C204.51,43.51,204.4,43.76,204.2,43.95 M203.47,42.04c-0.32-0.01-0.62,0.11-0.85,0.34c-0.22,0.22-0.35,0.52-0.34,0.84    c0,0.34,0.11,0.61,0.34,0.84s0.51,0.33,0.84,0.33c0.32,0.01,0.62-0.11,0.85-0.34c0.23-0.23,0.34-0.5,0.34-0.84    s-0.11-0.63-0.34-0.84C204.09,42.15,203.79,42.04,203.47,42.04 M203.44,43.13h-0.23v-0.51h0.19c0.13,0,0.22,0.02,0.28,0.07    c0.05,0.04,0.07,0.1,0.07,0.19C203.75,43.05,203.65,43.13,203.44,43.13 M203.6,43.27L203.6,43.27c0.12-0.03,0.22-0.08,0.28-0.15    c0.07-0.07,0.1-0.17,0.1-0.26c0-0.11-0.04-0.21-0.12-0.28c-0.1-0.09-0.24-0.13-0.43-0.13h-0.42v1.5h0.21v-0.63h0.14    c0.1,0,0.19,0.09,0.27,0.27l0.16,0.36h0.26l-0.2-0.4C203.77,43.38,203.68,43.29,203.6,43.27"/>
	</g>
	<g>
		<g>
			<path class="st6" d="M94.79,192.21c0,8.81-2.51,15.56-7.53,20.25c-5.02,4.69-12.26,7.03-21.73,7.03H50.37v-53.54h16.81     c8.74,0,15.53,2.31,20.36,6.92C92.37,177.49,94.79,183.93,94.79,192.21z M83,192.5c0-11.5-5.08-17.25-15.23-17.25h-6.04v34.86     h4.87C77.53,210.11,83,204.24,83,192.5z"/>
		</g>
		<g>
			<path class="st6" d="M115.66,219.12l-1.47-6.68l-1.98-8.44h-0.12l-3.49,15.12H103l-5.43-19.11h5.2l2.2,8.46     c0.35,1.51,0.71,3.61,1.08,6.27h0.1c0.05-0.87,0.24-2.24,0.6-4.12l0.27-1.45l2.36-9.16h5.74l2.24,9.16     c0.05,0.25,0.12,0.62,0.21,1.11c0.1,0.49,0.19,1.01,0.28,1.56c0.09,0.55,0.17,1.09,0.25,1.62c0.07,0.53,0.12,0.96,0.13,1.27h0.1     c0.1-0.82,0.28-1.95,0.55-3.38c0.26-1.43,0.45-2.4,0.56-2.9l2.29-8.46h5.11l-5.5,19.11H115.66z"/>
		</g>
	</g>
	<g id="Drawing">
		<g>
			<path class="st0" d="M211.5,195.58c0,14.79-11.99,26.78-26.78,26.78s-26.78-11.99-26.78-26.78c0-14.79,11.99-26.78,26.78-26.78     S211.5,180.78,211.5,195.58z"/>
			<path class="st7" d="M184.72,223.3c-15.29,0-27.73-12.44-27.73-27.73c0-15.29,12.44-27.73,27.73-27.73     c15.29,0,27.73,12.44,27.73,27.73C212.44,210.86,200.01,223.3,184.72,223.3z M184.72,169.74c-14.25,0-25.84,11.59-25.84,25.84     c0,14.25,11.59,25.84,25.84,25.84c14.25,0,25.84-11.59,25.84-25.84C210.56,181.33,198.97,169.74,184.72,169.74z"/>
		</g>
		<g id="Scale">
			
				<rect x="153.16" y="191.69" transform="matrix(0.7071 -0.7071 0.7071 0.7071 -88.3089 183.911)" class="st7" width="49.39" height="13.73"/>
			<g>
				<g>
					
						<rect x="188.95" y="177.87" transform="matrix(0.7071 -0.7071 0.7071 0.7071 -71.4568 186.5872)" class="st0" width="1.14" height="3.37"/>
					
						<rect x="187.88" y="179.36" transform="matrix(0.7071 -0.7071 0.7071 0.7071 -73.5256 186.5712)" class="st0" width="1.14" height="5.36"/>
				</g>
				<g>
					
						<rect x="185.4" y="181.43" transform="matrix(0.7071 -0.7071 0.7071 0.7071 -75.0111 185.1164)" class="st0" width="1.13" height="3.37"/>
					
						<rect x="184.33" y="182.91" transform="matrix(0.7071 -0.7071 0.7071 0.7071 -77.0799 185.0988)" class="st0" width="1.13" height="5.36"/>
				</g>
				<g>
					
						<rect x="181.84" y="184.98" transform="matrix(0.7071 -0.7072 0.7072 0.7071 -78.5655 183.6751)" class="st0" width="1.13" height="3.37"/>
					
						<rect x="180.77" y="186.47" transform="matrix(0.7072 -0.7071 0.7071 0.7072 -80.6342 183.6069)" class="st0" width="1.14" height="5.36"/>
				</g>
				<g>
					
						<rect x="178.29" y="188.54" transform="matrix(0.707 -0.7072 0.7072 0.707 -82.1209 182.2168)" class="st0" width="1.14" height="3.37"/>
					
						<rect x="177.22" y="190.02" transform="matrix(0.7071 -0.7071 0.7071 0.7071 -84.189 182.1541)" class="st0" width="1.13" height="5.36"/>
				</g>
				<g>
					
						<rect x="174.74" y="192.09" transform="matrix(0.7071 -0.7071 0.7071 0.7071 -85.6739 180.6993)" class="st0" width="1.13" height="3.37"/>
					
						<rect x="173.66" y="193.58" transform="matrix(0.7071 -0.7071 0.7071 0.7071 -87.7438 180.6817)" class="st0" width="1.14" height="5.36"/>
				</g>
				<g>
					
						<rect x="171.18" y="195.65" transform="matrix(0.7069 -0.7073 0.7073 0.7069 -89.2334 179.3015)" class="st0" width="1.14" height="3.37"/>
					
						<rect x="170.11" y="197.13" transform="matrix(0.7071 -0.7071 0.7071 0.7071 -91.2984 179.2104)" class="st0" width="1.13" height="5.36"/>
				</g>
				<g>
					
						<rect x="167.63" y="199.2" transform="matrix(0.7071 -0.7071 0.7071 0.7071 -92.7826 177.7546)" class="st0" width="1.13" height="3.37"/>
					
						<rect x="166.55" y="200.69" transform="matrix(0.7071 -0.7071 0.7071 0.7071 -94.853 177.737)" class="st0" width="1.14" height="5.36"/>
				</g>
				<g>
					
						<rect x="164.07" y="202.76" transform="matrix(0.7071 -0.7071 0.7071 0.7071 -96.3385 176.2963)" class="st0" width="1.13" height="3.37"/>
					
						<rect x="163" y="204.24" transform="matrix(0.7071 -0.7071 0.7071 0.7071 -98.4084 176.2695)" class="st0" width="1.13" height="5.36"/>
				</g>
				<g>
					
						<rect x="160.52" y="206.31" transform="matrix(0.7072 -0.707 0.707 0.7072 -99.888 174.7852)" class="st0" width="1.14" height="3.37"/>
					
						<rect x="159.44" y="207.8" transform="matrix(0.7071 -0.7071 0.7071 0.7071 -101.9628 174.7973)" class="st0" width="1.13" height="5.36"/>
				</g>
			</g>
		</g>
		<rect x="181.34" y="165.04" class="st7" width="6.57" height="6.57"/>
		<rect x="208.05" y="192.28" class="st7" width="6.57" height="6.57"/>
		<rect x="154.62" y="192.28" class="st7" width="6.57" height="6.57"/>
		<rect x="164.12" y="167.78" class="st7" width="41.16" height="0.97"/>
		<path class="st7" d="M167.71,168.33c0,1.81-1.47,3.29-3.29,3.29c-1.82,0-3.29-1.47-3.29-3.29c0-1.81,1.47-3.29,3.29-3.29    C166.24,165.04,167.71,166.51,167.71,168.33z"/>
		<path class="st7" d="M208.57,168.33c0,1.81-1.47,3.29-3.29,3.29c-1.82,0-3.29-1.47-3.29-3.29c0-1.81,1.47-3.29,3.29-3.29    C207.1,165.04,208.57,166.51,208.57,168.33z"/>
		<g id="Pen">
			<polygon class="st7" points="189.53,222.58 189.53,217.05 186.74,210.6 184.78,206.06 182.76,210.6 179.89,217.05 179.89,222.58         "/>
			<g>
				<polygon class="st7" points="181.61,214.11 184.77,207 187.85,214.11     "/>
				<path class="st7" d="M184.77,207.94l2.51,5.8h-5.09L184.77,207.94 M184.78,206.06l-3.75,8.43h7.4L184.78,206.06L184.78,206.06z"/>
			</g>
			<line class="st7" x1="186.9" y1="222.77" x2="186.9" y2="217.82"/>
			<line class="st7" x1="184.7" y1="222.77" x2="184.7" y2="217.82"/>
			<line class="st7" x1="182.5" y1="222.77" x2="182.5" y2="217.82"/>
		</g>
	</g>
</g>
<g>
</g>
<g>
</g>
<g>
</g>
<g>
</g>
<g>
</g>
</svg>
