<?xml version="1.0" encoding="utf-8"?>
<!-- Generator: Adobe Illustrator 25.0.1, SVG Export Plug-In . SVG Version: 6.00 Build 0)  -->
<svg xmlns="http://www.w3.org/2000/svg" xmlns:xlink="http://www.w3.org/1999/xlink" version="1.1" id="Layer_1" x="0px" y="0px" viewBox="0 0 335 283" style="enable-background:new 0 0 335 283;" xml:space="preserve">
<style type="text/css">
	.st0{fill:#EEEEEE;}
	
		.st1{fill:none;stroke:#EEEEEE;stroke-width:3;stroke-linecap:round;stroke-linejoin:round;stroke-miterlimit:10;stroke-dasharray:6,8;}
	.st2{fill:none;stroke:#EEEEEE;stroke-width:3;stroke-linecap:round;stroke-linejoin:round;}
	.st3{fill:none;stroke:#EEEEEE;stroke-width:3;stroke-linecap:round;stroke-linejoin:round;stroke-dasharray:6.5303,8.7071;}
	.st4{fill:none;stroke:#EEEEEE;stroke-width:3;stroke-linecap:round;stroke-linejoin:round;stroke-dasharray:5.6936,7.5915;}
	.st5{fill:#68217A;}
	.st6{fill:#DE4444;}
	.st7{fill:#FFFFFF;}
	.st8{fill:#575756;}
	.st9{fill:#4198D3;}
</style>
<g id="Aspose.3D">
	<polygon class="st0" points="145.07,267.48 32.12,259.48 32.12,112.91 145.07,112.91  "/>
	<polygon class="st0" points="151.07,267.48 219.66,259.48 219.66,112.91 151.07,112.91  "/>
	<g id="lines_13_">
		<polyline class="st1" points="292.19,135.37 241.49,135.37 241.49,178.48 217.52,178.48   "/>
		<g>
			<g>
				<line class="st2" x1="170.26" y1="52.3" x2="167.26" y2="52.3"/>
				<line class="st3" x1="158.55" y1="52.3" x2="132.43" y2="52.3"/>
				<polyline class="st2" points="128.07,52.3 125.07,52.3 125.07,55.3     "/>
				<line class="st4" x1="125.07" y1="62.89" x2="125.07" y2="98.95"/>
				<line class="st2" x1="125.07" y1="102.75" x2="125.07" y2="105.75"/>
			</g>
		</g>
	</g>
	<g id="circles_13_">
		<circle class="st5" cx="185.24" cy="53.2" r="33.61"/>
		<circle class="st6" cx="299.65" cy="135.49" r="33.61"/>
		<g id="java_13_">
			<path id="XMLID_113_" class="st7" d="M299.51,119.84c-1.81,1.27-3.86,2.72-4.96,5.11c-1.91,4.17,3.91,8.71,4.16,8.91     c0.06,0.04,0.13,0.07,0.2,0.07s0.15-0.03,0.21-0.07c0.12-0.1,0.15-0.26,0.08-0.39c-0.02-0.04-2.11-4.1-2.03-7.01     c0.03-1.01,1.45-2.16,2.95-3.38c1.38-1.12,2.94-2.38,3.85-3.86c2-3.26-0.22-6.46-0.25-6.49c-0.09-0.12-0.25-0.17-0.39-0.11     c-0.14,0.06-0.22,0.21-0.18,0.36c0,0.02,0.44,2.14-0.77,4.32C301.86,118.19,300.77,118.95,299.51,119.84z"/>
			<path id="XMLID_112_" class="st7" d="M307.14,121.28c0.13-0.1,0.17-0.27,0.09-0.41c-0.08-0.14-0.25-0.2-0.4-0.15     c-0.31,0.12-7.54,2.9-7.54,6.27c0,2.32,0.99,3.55,1.71,4.44c0.28,0.35,0.53,0.65,0.61,0.91c0.23,0.75-0.31,2.09-0.54,2.55     c-0.07,0.13-0.03,0.29,0.08,0.39c0.06,0.05,0.13,0.08,0.21,0.08c0.06,0,0.13-0.02,0.18-0.06c0.12-0.09,3.04-2.15,2.51-4.63     c-0.19-0.94-0.66-1.63-1.07-2.24c-0.63-0.94-1.09-1.62-0.4-2.88C303.42,124.09,307.11,121.31,307.14,121.28z"/>
			<path id="XMLID_111_" class="st7" d="M288.33,135.41c-0.12,0.37-0.07,0.74,0.17,1.06c0.78,1.09,3.56,1.69,7.81,1.69l0,0     c0.58,0,1.19-0.01,1.81-0.03c6.8-0.24,9.33-2.36,9.43-2.45c0.11-0.1,0.14-0.26,0.07-0.39c-0.07-0.13-0.22-0.2-0.37-0.16     c-2.4,0.65-6.87,0.89-9.98,0.89c-3.47,0-5.24-0.25-5.67-0.43c0.22-0.31,1.59-0.85,3.29-1.18c0.16-0.03,0.27-0.18,0.26-0.35     c-0.02-0.16-0.15-0.29-0.32-0.29C293.84,133.75,288.85,133.83,288.33,135.41z"/>
			<path id="XMLID_110_" class="st7" d="M311.1,133.23c-1.4,0-2.73,0.7-2.79,0.73c-0.13,0.07-0.2,0.22-0.16,0.36     c0.04,0.14,0.16,0.24,0.31,0.24c0.03,0,2.99,0.02,3.26,1.72c0.24,1.46-2.8,3.83-4,4.62c-0.13,0.09-0.18,0.25-0.12,0.39     c0.05,0.12,0.17,0.2,0.3,0.2c0.02,0,0.04,0,0.07-0.01c0.28-0.06,6.92-1.52,6.22-5.39C313.76,133.73,312.27,133.23,311.1,133.23z"/>
			<path id="XMLID_109_" class="st7" d="M306.55,140.43c0.02-0.12-0.03-0.25-0.13-0.32l-1.59-1.11c-0.08-0.05-0.18-0.07-0.27-0.05     c-0.02,0-1.68,0.44-4.1,0.71c-0.96,0.11-2.03,0.16-3.11,0.16c-2.42,0-4-0.28-4.23-0.49c-0.03-0.06-0.02-0.09-0.02-0.1     c0.04-0.12,0.27-0.25,0.41-0.31c0.16-0.06,0.25-0.23,0.2-0.39c-0.05-0.16-0.22-0.26-0.38-0.22c-1.6,0.39-2.38,0.92-2.32,1.6     c0.1,1.2,2.88,1.82,5.23,1.98c0.34,0.02,0.7,0.03,1.09,0.03l0,0c3.91,0,8.92-1.23,8.97-1.24     C306.43,140.65,306.52,140.55,306.55,140.43z"/>
			<path id="XMLID_108_" class="st7" d="M294.54,143.01c0.12-0.08,0.17-0.23,0.13-0.36c-0.04-0.14-0.17-0.23-0.32-0.23     c-0.21,0.01-2.09,0.09-2.23,1.29c-0.04,0.36,0.06,0.68,0.3,0.97c0.68,0.8,2.5,1.28,5.57,1.45c0.36,0.02,0.73,0.03,1.1,0.03     c3.91,0,6.54-1.22,6.65-1.27c0.11-0.05,0.18-0.16,0.18-0.27c0.01-0.12-0.05-0.23-0.15-0.29l-2.01-1.23     c-0.07-0.04-0.15-0.06-0.23-0.04c-0.01,0-1.29,0.27-3.22,0.53c-0.36,0.05-0.82,0.07-1.36,0.07c-1.93,0-4.07-0.31-4.48-0.52     C294.48,143.1,294.49,143.05,294.54,143.01z"/>
			<path id="XMLID_107_" class="st7" d="M297.29,149.85c8.95-0.01,13.75-1.6,14.67-2.6c0.33-0.35,0.36-0.69,0.33-0.91     c-0.07-0.54-0.56-0.87-0.62-0.9c-0.13-0.09-0.31-0.06-0.42,0.06c-0.1,0.12-0.11,0.3,0,0.42c0.06,0.07,0.09,0.19-0.08,0.36     c-0.37,0.35-4.1,1.39-10.31,1.71c-0.85,0.04-1.74,0.07-2.65,0.07c-5.56,0-9.63-0.76-10.16-1.21c0.21-0.3,1.65-0.77,3.18-1.04     c0.17-0.03,0.29-0.19,0.26-0.37c-0.03-0.18-0.19-0.29-0.36-0.27c-0.04,0.01-0.19,0.01-0.36,0.03c-2.53,0.15-5.44,0.5-5.6,1.8     c-0.05,0.4,0.07,0.76,0.35,1.07C286.21,148.83,288.17,149.85,297.29,149.85L297.29,149.85z"/>
			<path id="XMLID_106_" class="st7" d="M313.72,147.54c-0.13-0.06-0.28-0.03-0.37,0.07c-0.01,0.01-1.36,1.42-5.4,2.25     c-1.55,0.31-4.45,0.47-8.64,0.47s-8.18-0.16-8.22-0.17c-0.17-0.01-0.31,0.11-0.33,0.28c-0.02,0.16,0.08,0.32,0.24,0.36     c0.04,0.01,4.22,0.99,9.94,0.99c2.74,0,5.41-0.22,7.93-0.66c4.7-0.82,5.03-3.15,5.04-3.25     C313.92,147.73,313.84,147.59,313.72,147.54z"/>
		</g>
		<path id="NET_13_" class="st7" d="M194.51,50.17h4.7v14.57h1.91V50.17h4.7v-1.73h-11.31V50.17z M185.98,57.32h5.89v-1.73h-5.89    v-5.42h6.36v-1.73h-8.27v16.3h8.64v-1.73h-6.72L185.98,57.32L185.98,57.32z M178.56,59.93l0.11,2.4h-0.05    c-0.11-0.22-0.34-0.58-0.66-1.09l-8.16-12.79h-2.48v16.3h1.91V52.97l-0.09-2.24h0.07c0.14,0.37,0.31,0.71,0.51,1.02l8.41,12.99    h2.32v-16.3h-1.9L178.56,59.93L178.56,59.93z M163.27,62.44c-0.35,0-0.64,0.12-0.89,0.38c-0.24,0.25-0.36,0.55-0.36,0.91    c0,0.34,0.13,0.66,0.36,0.9c0.24,0.25,0.54,0.38,0.89,0.38c0.36,0,0.66-0.13,0.91-0.38s0.38-0.56,0.38-0.91    c0-0.35-0.13-0.65-0.38-0.91c-0.24-0.25-0.57-0.39-0.91-0.38 M201.14,45.18c0,0.87,0.39,1.31,1.16,1.31c0.28,0,0.5-0.05,0.67-0.14    v-0.61c-0.13,0.1-0.3,0.15-0.46,0.14c-0.24,0-0.4-0.06-0.51-0.19c-0.1-0.12-0.15-0.34-0.15-0.63v-2.5h1.12v-0.6h-1.11v-1.31    l-0.71,0.23v1.08h-0.76v0.6h0.76v2.63L201.14,45.18z M198.24,46.39h0.71v-3.83h1.04v-0.6h-1.04v-0.68c0-0.63,0.25-0.94,0.74-0.94    c0.16,0,0.33,0.04,0.47,0.12v-0.64c-0.13-0.06-0.3-0.08-0.52-0.08c-0.38,0-0.7,0.11-0.96,0.36c-0.3,0.28-0.45,0.66-0.45,1.15v0.72    h-0.75v0.6h0.75v3.84L198.24,46.39z M193.39,44.19c0-0.57,0.14-1,0.42-1.31c0.27-0.29,0.62-0.43,1.06-0.43    c0.45,0,0.8,0.14,1.05,0.43c0.26,0.3,0.39,0.73,0.39,1.3c0,0.54-0.11,0.97-0.36,1.26c-0.24,0.3-0.6,0.45-1.07,0.45    c-0.45,0-0.81-0.15-1.08-0.45C193.52,45.14,193.39,44.72,193.39,44.19 M196.43,45.85c0.4-0.43,0.6-0.99,0.6-1.7    c0-0.72-0.19-1.28-0.56-1.7c-0.37-0.41-0.89-0.61-1.55-0.61c-0.67,0-1.21,0.2-1.61,0.59c-0.43,0.42-0.65,1.02-0.65,1.79    c0,0.68,0.19,1.22,0.57,1.63c0.39,0.43,0.92,0.64,1.59,0.64C195.5,46.49,196.04,46.28,196.43,45.85 M191.55,46.1    c0.27-0.22,0.42-0.56,0.41-0.9c0-0.33-0.11-0.6-0.33-0.81c-0.17-0.17-0.44-0.33-0.82-0.49c-0.34-0.14-0.56-0.27-0.67-0.37    c-0.12-0.11-0.18-0.26-0.18-0.46c0-0.18,0.07-0.33,0.21-0.45s0.33-0.17,0.57-0.17c0.38,0,0.71,0.11,1.01,0.32v-0.72    c-0.28-0.14-0.6-0.21-0.95-0.21c-0.45,0-0.84,0.12-1.13,0.37c-0.29,0.25-0.44,0.55-0.44,0.92c0,0.33,0.09,0.6,0.28,0.8    c0.16,0.17,0.42,0.34,0.79,0.5c0.36,0.16,0.6,0.29,0.73,0.41s0.19,0.26,0.19,0.43c0,0.41-0.28,0.62-0.85,0.62    c-0.42,0-0.81-0.14-1.15-0.43v0.76c0.31,0.18,0.68,0.27,1.1,0.27C190.84,46.49,191.25,46.36,191.55,46.1 M185.21,42.88    c0.26-0.29,0.63-0.43,1.06-0.43c0.45,0,0.8,0.14,1.05,0.43c0.26,0.3,0.38,0.73,0.38,1.3c0,0.54-0.11,0.97-0.36,1.26    c-0.24,0.3-0.6,0.45-1.07,0.45c-0.45,0-0.81-0.15-1.08-0.45s-0.4-0.71-0.4-1.25C184.8,43.62,184.94,43.18,185.21,42.88     M186.23,46.49c0.68,0,1.21-0.21,1.61-0.64c0.4-0.43,0.6-0.99,0.6-1.7c0-0.72-0.19-1.28-0.56-1.7c-0.37-0.41-0.89-0.61-1.55-0.61    c-0.67,0-1.21,0.2-1.61,0.59c-0.43,0.42-0.65,1.02-0.65,1.79c0,0.68,0.19,1.22,0.57,1.63C185.03,46.27,185.56,46.49,186.23,46.49     M182.65,42.11c-0.22,0.17-0.38,0.43-0.48,0.75h-0.02v-0.92h-0.71v4.44h0.71v-2.25c0-0.52,0.11-0.92,0.33-1.21    c0.2-0.26,0.44-0.39,0.73-0.39c0.24,0,0.42,0.05,0.54,0.14v-0.74c-0.1-0.04-0.24-0.06-0.43-0.06    C183.08,41.88,182.85,41.96,182.65,42.11 M179.15,46.49c0.47,0,0.88-0.1,1.22-0.31v-0.67c-0.34,0.25-0.7,0.38-1.09,0.38    c-0.45,0-0.82-0.15-1.1-0.45c-0.27-0.3-0.41-0.71-0.41-1.23c0-0.54,0.15-0.97,0.45-1.29c0.28-0.31,0.65-0.47,1.1-0.47    c0.38,0,0.75,0.12,1.06,0.35v-0.73c-0.3-0.15-0.64-0.23-1.03-0.23c-0.7,0-1.27,0.22-1.68,0.67s-0.63,1.04-0.63,1.76    c0,0.65,0.19,1.18,0.57,1.59C178,46.29,178.52,46.5,179.15,46.49 M175.22,46.4h0.71v-4.44h-0.71V46.4L175.22,46.4z M175.58,40.83    c0.12,0,0.24-0.05,0.33-0.14s0.14-0.21,0.14-0.33c0-0.12-0.05-0.24-0.14-0.33s-0.21-0.13-0.33-0.13c-0.13,0-0.24,0.04-0.33,0.13    c-0.09,0.09-0.14,0.2-0.14,0.33c0,0.14,0.05,0.25,0.14,0.33C175.34,40.79,175.46,40.83,175.58,40.83 M168.04,42.23l-0.03-1.21    h0.02c0.06,0.29,0.13,0.5,0.19,0.64l2.12,4.74h0.36l2.13-4.78c0.05-0.13,0.12-0.33,0.19-0.6h0.02l-0.06,1.2v4.18h0.73v-6.22h-0.91    l-1.95,4.31c-0.08,0.17-0.17,0.42-0.3,0.76h-0.03c-0.05-0.17-0.14-0.42-0.28-0.74l-1.91-4.34h-0.96v6.22h0.7v-4.16H168.04z     M205.4,42.95c-0.2,0.2-0.45,0.3-0.74,0.3c-0.29,0-0.54-0.1-0.74-0.3s-0.31-0.45-0.31-0.75c0-0.29,0.1-0.54,0.3-0.74    c0.2-0.2,0.45-0.3,0.75-0.3c0.28-0.01,0.54,0.1,0.74,0.3s0.31,0.47,0.3,0.75C205.71,42.51,205.6,42.76,205.4,42.95 M204.67,41.04    c-0.32-0.01-0.62,0.11-0.85,0.34c-0.22,0.22-0.35,0.52-0.34,0.84c0,0.34,0.11,0.61,0.34,0.84s0.51,0.33,0.84,0.33    c0.32,0.01,0.62-0.11,0.85-0.34c0.23-0.23,0.34-0.5,0.34-0.84s-0.11-0.63-0.34-0.84C205.29,41.15,204.99,41.04,204.67,41.04     M204.64,42.13h-0.23v-0.51h0.19c0.13,0,0.22,0.02,0.28,0.07c0.05,0.04,0.07,0.1,0.07,0.19    C204.95,42.05,204.85,42.13,204.64,42.13 M204.8,42.27L204.8,42.27c0.12-0.03,0.22-0.08,0.28-0.15c0.07-0.07,0.1-0.17,0.1-0.26    c0-0.11-0.04-0.21-0.12-0.28c-0.1-0.09-0.24-0.13-0.43-0.13h-0.42v1.5h0.21v-0.63h0.14c0.1,0,0.19,0.09,0.27,0.27l0.16,0.36h0.26    l-0.2-0.4C204.97,42.38,204.88,42.29,204.8,42.27"/>
	</g>
	<g id="_x33_D">
		<polygon class="st8" points="151.17,164.8 174.66,150.91 208.64,170.36 175.29,190.44 151.17,177.18   "/>
		<polygon class="st8" points="151.17,179.34 151.17,217.36 173.78,230.24 173.78,192.47   "/>
		<polygon class="st8" points="176.3,192.47 209.78,172.9 209.78,210.66 176.3,230.24   "/>
	</g>
	<g>
		<g>
			<path class="st9" d="M132.35,189.2c0,8.94-2.46,15.82-7.38,20.65c-4.92,4.83-11.83,7.25-20.75,7.25H86.9v-53.54h18.53     c8.59,0,15.23,2.2,19.9,6.59C130.01,174.55,132.35,180.9,132.35,189.2z M117.33,189.72c0-4.91-0.97-8.54-2.91-10.91     c-1.94-2.37-4.89-3.55-8.84-3.55h-4.21v29.99h3.22c4.39,0,7.62-1.28,9.67-3.83C116.31,198.86,117.33,194.96,117.33,189.72z"/>
		</g>
		<g>
			<path class="st9" d="M77.82,176.13c0,3.1-0.95,5.76-2.84,7.98c-1.89,2.22-4.63,3.83-8.2,4.84v0.21     c8.34,1.05,12.51,4.99,12.51,11.83c0,4.65-1.84,8.31-5.52,10.97c-3.68,2.67-8.79,4-15.33,4c-2.69,0-5.18-0.19-7.47-0.58     s-4.77-1.09-7.43-2.12v-11.21c2.19,1.12,4.41,1.94,6.68,2.48c2.27,0.54,4.36,0.8,6.27,0.8c2.96,0,5.12-0.42,6.48-1.25     c1.36-0.83,2.03-2.14,2.03-3.91c0-1.37-0.35-2.42-1.06-3.16c-0.71-0.74-1.85-1.3-3.42-1.67c-1.57-0.38-3.62-0.56-6.15-0.56H51.3     v-10.15h3.14c6.86,0,10.29-1.75,10.29-5.26c0-1.32-0.51-2.3-1.52-2.94c-1.01-0.64-2.38-0.96-4.08-0.96     c-3.19,0-6.49,1.07-9.91,3.21l-5.61-9.02c2.64-1.82,5.35-3.12,8.12-3.9c2.77-0.77,5.94-1.16,9.52-1.16     c5.17,0,9.23,1.03,12.17,3.08S77.82,172.53,77.82,176.13z"/>
		</g>
	</g>
</g>
<g>
</g>
<g>
</g>
<g>
</g>
<g>
</g>
<g>
</g>
</svg>
