<?xml version="1.0" encoding="utf-8"?>
<!-- Generator: Adobe Illustrator 25.2.0, SVG Export Plug-In . SVG Version: 6.00 Build 0)  -->
<svg version="1.1" id="NET" xmlns="http://www.w3.org/2000/svg" xmlns:xlink="http://www.w3.org/1999/xlink" x="0px" y="0px"
	 viewBox="0 0 512 512" style="enable-background:new 0 0 512 512;" xml:space="preserve">
<style type="text/css">
	.st0{fill:#EF4047;}
</style>
<g id="GroupDocs.Watermark">
	<g>
		<path class="st0" d="M180.1,190.6h-33.7c-14.4,0-26.2,12.3-26.2,26.7c0,14.9,11.8,26.7,26.2,26.7h33.7V190.6z M120.2,307.6
			c0,14.9,11.8,26.7,26.2,26.7h33.7v-54h-33.7C132,280.3,120.2,292.7,120.2,307.6z M332.5,452H113.8c-12.3,0-22.5-10.1-22.5-23V83
			c0-12.9,10.1-23,22.5-23h218.1c12.3,0,22.5,10.1,22.5,23v87.1h52.9V83c0-42.2-33.7-77-75.4-77H113.8C72.1,6,38.4,40.3,38.4,83v346
			c0,42.2,33.7,77,75.4,77h218.1c34.8,0,63.6-24.1,72.8-56.2H342C338.9,450.9,335.6,452,332.5,452z M335.6,127.4
			c0-14.9-11.8-26.7-26.2-26.7h-163c-14.4,0-26.2,12.3-26.2,26.7c0,14.9,11.8,26.7,26.2,26.7h162.5
			C324,154.7,335.6,142.3,335.6,127.4z M473.6,244v-59.9h-59.9v19.7H263.9v-19.7H204V244h19.7v119.7H204v59.9h59.9v-19.7h149.8v19.7
			h59.9v-59.9h-19.7V244H473.6z M223.9,203.9h19.7v19.7h-19.7V203.9z M244.2,403.8h-19.7V384h19.7V403.8z M413.7,383.5H263.9v-19.7
			h-19.7V244h19.7v-19.7h149.8V244h19.7v119.7h-19.7V383.5L413.7,383.5z M453.9,403.8h-19.7V384h19.7V403.8z M433.4,223.6v-19.7
			h19.7v19.7H433.4z M333.6,299.1l-31-19.2l-43.8,57.7h155.5l-54-87.1L333.6,299.1z"/>
	</g>
</g>
</svg>
