<?xml version="1.0" encoding="utf-8"?>
<!-- Generator: Adobe Illustrator 25.2.0, SVG Export Plug-In . SVG Version: 6.00 Build 0)  -->
<svg version="1.1" id="Aspose.Diagram" xmlns="http://www.w3.org/2000/svg" xmlns:xlink="http://www.w3.org/1999/xlink" x="0px"
	 y="0px" viewBox="0 0 277 277" style="enable-background:new 0 0 277 277;" xml:space="preserve">
<style type="text/css">
	.st0{fill:#FFFFFF;}
	.st1{fill-rule:evenodd;clip-rule:evenodd;fill:#DE4444;}
	.st2{fill:#DE4444;}
	.st3{fill-rule:evenodd;clip-rule:evenodd;fill:#FCFCFB;}
</style>
<g id="Java">
	<path class="st0" d="M247.8,236.5c-31.2,37-130.6,30.5-130.6,30.5h-107V12.3H268V137C268,137,269.2,211.1,247.8,236.5z"/>
	<g>
		<path class="st1" d="M87.8,180.7c0-25.8,9-47.7,27.1-65.8c18-18.1,39.9-27.1,65.8-27.1c25.5,0,47.4,9,65.6,27.1s27.3,40,27.3,65.8
			c0,25.7-9.1,47.5-27.3,65.6c-18.2,18.2-40.1,27.3-65.6,27.3c-25.9,0-47.8-9.1-65.8-27.3C96.8,228.3,87.8,206.4,87.8,180.7"/>
		<path class="st1" d="M273.7,180.7h-10.9V23.9c0-4-1.4-6.7-4.3-8.1c-1-0.5-2.2-0.9-3.5-1.1l-1.6-0.2H23.8c-4.1,0-6.8,1.4-8.1,4.2
			c-0.8,1.6-1.3,3.4-1.3,5.2v229.5c0,4,1.4,6.7,4.2,8c1.6,0.8,3.3,1.3,5.2,1.4H176l4.8,10.9H20.4c-2.8,0-5.6-0.7-8.4-2.1
			c-5.6-2.8-8.4-7.7-8.4-14.8V20.6c0-2.8,0.7-5.6,2.2-8.4c2.8-5.6,7.7-8.4,14.7-8.4h236.4l2.6,0.3c2.1,0.3,4.1,0.9,5.8,1.9
			c5.6,2.8,8.4,7.7,8.4,14.7L273.7,180.7L273.7,180.7z"/>
		<g>
			<g>
				<path class="st2" d="M85.8,63.4c0,9.7-2.7,17.1-8,22.2c-5.4,5.1-13.1,7.7-23.2,7.7H38.2V34.7h18.1c9.3,0,16.6,2.5,21.7,7.5
					C83.2,47.2,85.8,54.3,85.8,63.4z M75.7,63.7c0-14-6.6-21-19.7-21h-8.3v42.5h6.8C68.7,85.2,75.7,78,75.7,63.7z"/>
			</g>
		</g>
	</g>
	<g id="Shape_1_">
		<path class="st3" d="M132.9,196.2c0-6.6,0.3-13.1-0.1-19.5c-0.5-7,5.3-13.2,13.1-12.9c7.9,0.3,15.7,0.1,23.6,0.1
			c0.8,0,1.6,0,2.6,0c0-4.2,0-8.2,0-12.3c-0.4-0.1-0.9-0.3-1.5-0.3c-3.3-0.3-5.2-2.2-5.2-5.5c-0.1-4.8,0-9.7,0-14.5
			c0-4.2,2.1-6.6,6.2-6.7c4.9-0.1,9.8-0.1,14.8,0c3.7,0.1,5.8,2.2,5.8,5.9c0.1,4.5,0.1,8.9,0,13.4c-0.2,6.2-0.6,6.6-6.5,7.8
			c0,4,0,7.9,0,12.3c4.7,0,9.2,0,13.7,0c5.5,0.1,11-0.1,16.4,0.5c5.1,0.5,9,5.6,9.1,10.8c0,7,0,14.1,0,21.2c0.9,0.1,1.6,0.2,2.3,0.3
			c2.5,0.5,3.9,2.2,3.9,4.8c0,5.4,0.1,10.8,0.1,16.2c0,3.8-1.6,5.7-5.4,5.8c-5.3,0.1-10.6,0.1-15.9,0c-3.3-0.1-5.2-2.3-5.2-5.7
			c0-4.6,0.2-9.2-0.1-13.7c-0.3-5.1,1.6-7,6.5-7.7c0-6.1,0-12.3,0-18.7c-8.5,0-16.9,0-25.5,0c0,6.2,0,12.4,0,18.5
			c6.1,1.8,6.5,2.4,6.4,8.8c0,4.1,0,8.2,0,12.3c0,4.3-1.9,6.1-6.2,6.2c-4.7,0-9.5,0-14.2,0c-4.2,0-6.3-2.2-6.3-6.4s0-8.4,0-12.6
			c0-5.7,1-7,6.7-8.2c0-6.1,0-12.3,0-18.6c-8.5,0-17,0-25.6,0c0,6.3,0,12.5,0,18.6c5.8,1.4,6.5,2.3,6.5,8.5c0,4.2,0,8.4,0,12.6
			c0,4.1-2,6.1-6,6.1c-4.8,0.1-9.7,0.1-14.5,0c-4.4,0-6.2-2-6.3-6.5c0-4.2,0-8.4,0-12.6C126.2,198.7,127.2,197.5,132.9,196.2z
			 M172.6,216.3c4.3,0,8.4,0,12.7,0c0-4.2,0-8.3,0-12.5c-4.3,0-8.4,0-12.7,0C172.6,208,172.6,212,172.6,216.3z M172.7,143.8
			c4.4,0,8.5,0,12.6,0c0-4.2,0-8.2,0-12.2c-4.3,0-8.3,0-12.6,0C172.7,135.8,172.7,139.7,172.7,143.8z M133.6,203.8
			c0,4.4,0,8.4,0,12.4c4.2,0,8.2,0,12.3,0c0-4.3,0-8.3,0-12.4C141.6,203.8,137.7,203.8,133.6,203.8z M224.3,203.9
			c-4.2,0-8.2,0-12.1,0c0,4.3,0,8.3,0,12.3c4.1,0,8,0,12.1,0C224.3,212.1,224.3,208.1,224.3,203.9z"/>
	</g>
</g>
</svg>
