<?xml version="1.0" encoding="utf-8"?>
<!-- Generator: Adobe Illustrator 25.0.1, SVG Export Plug-In . SVG Version: 6.00 Build 0)  -->
<svg version="1.1" id="Layer_1" xmlns="http://www.w3.org/2000/svg" xmlns:xlink="http://www.w3.org/1999/xlink" x="0px" y="0px"
	 viewBox="0 0 335 283" style="enable-background:new 0 0 335 283;" xml:space="preserve">
<style type="text/css">
	.st0{fill:#EEEEEE;}
	
		.st1{fill:none;stroke:#EEEEEE;stroke-width:3;stroke-linecap:round;stroke-linejoin:round;stroke-miterlimit:10;stroke-dasharray:6,8;}
	.st2{fill:none;stroke:#EEEEEE;stroke-width:3;stroke-linecap:round;stroke-linejoin:round;}
	.st3{fill:none;stroke:#EEEEEE;stroke-width:3;stroke-linecap:round;stroke-linejoin:round;stroke-dasharray:6.5303,8.7071;}
	.st4{fill:none;stroke:#EEEEEE;stroke-width:3;stroke-linecap:round;stroke-linejoin:round;stroke-dasharray:5.6936,7.5915;}
	.st5{fill:#68217A;}
	.st6{fill:#DE4444;}
	.st7{fill:#84CE24;}
	.st8{fill:#FFFFFF;}
	.st9{fill:#EFEFEF;}
	.st10{fill:url(#path1948_1_);}
	.st11{fill:url(#path1950_1_);}
	.st12{fill:#575756;}
	.st13{fill:#3F99D4;}
</style>
<g id="Aspose.Diagram">
	<polygon class="st0" points="146.24,268.27 33.29,260.27 33.29,113.7 146.24,113.7 	"/>
	<polygon class="st0" points="152.24,268.27 220.83,260.27 220.83,113.7 152.24,113.7 	"/>
	<g id="lines_8_">
		<polyline class="st1" points="234.71,60.81 234.71,95.52 169.49,95.52 169.49,109.29 		"/>
		<polyline class="st1" points="293.36,136.16 242.66,136.16 242.66,179.27 218.69,179.27 		"/>
		<g>
			<g>
				<line class="st2" x1="102.43" y1="53.09" x2="99.43" y2="53.09"/>
				<line class="st3" x1="90.72" y1="53.09" x2="64.6" y2="53.09"/>
				<polyline class="st2" points="60.24,53.09 57.24,53.09 57.24,56.09 				"/>
				<line class="st4" x1="57.24" y1="63.68" x2="57.24" y2="99.74"/>
				<line class="st2" x1="57.24" y1="103.54" x2="57.24" y2="106.54"/>
			</g>
		</g>
		<polyline class="st1" points="294.76,251.69 239.7,251.69 239.7,210.37 216.83,210.37 		"/>
	</g>
	<g id="circles_8_">
		<circle class="st5" cx="117.41" cy="53.99" r="33.61"/>
		
			<ellipse transform="matrix(0.1602 -0.9871 0.9871 0.1602 163.3211 260.4292)" class="st6" cx="234.71" cy="34.23" rx="33.61" ry="33.61"/>
		<circle class="st7" cx="300.48" cy="136.16" r="33.61"/>
		<g id="java_8_">
			<path id="XMLID_73_" class="st8" d="M234.57,18.58c-1.81,1.27-3.86,2.72-4.96,5.11c-1.91,4.17,3.91,8.71,4.16,8.91
				c0.06,0.04,0.13,0.07,0.2,0.07c0.07,0,0.15-0.03,0.21-0.07c0.12-0.1,0.15-0.26,0.08-0.39c-0.02-0.04-2.11-4.1-2.03-7.01
				c0.03-1.01,1.45-2.16,2.95-3.38c1.38-1.12,2.94-2.38,3.85-3.86c2-3.26-0.22-6.46-0.25-6.49c-0.09-0.12-0.25-0.17-0.39-0.11
				s-0.22,0.21-0.18,0.36c0,0.02,0.44,2.14-0.77,4.32C236.92,16.93,235.83,17.69,234.57,18.58z"/>
			<path id="XMLID_72_" class="st8" d="M242.2,20.02c0.13-0.1,0.17-0.27,0.09-0.41s-0.25-0.2-0.4-0.15
				c-0.31,0.12-7.54,2.9-7.54,6.27c0,2.32,0.99,3.55,1.71,4.44c0.28,0.35,0.53,0.65,0.61,0.91c0.23,0.75-0.31,2.09-0.54,2.55
				c-0.07,0.13-0.03,0.29,0.08,0.39c0.06,0.05,0.13,0.08,0.21,0.08c0.06,0,0.13-0.02,0.18-0.06c0.12-0.09,3.04-2.15,2.51-4.63
				c-0.19-0.94-0.66-1.63-1.07-2.24c-0.63-0.94-1.09-1.62-0.4-2.88C238.48,22.83,242.17,20.05,242.2,20.02z"/>
			<path id="XMLID_71_" class="st8" d="M223.39,34.15c-0.12,0.37-0.07,0.74,0.17,1.06c0.78,1.09,3.56,1.69,7.81,1.69l0,0
				c0.58,0,1.19-0.01,1.81-0.03c6.8-0.24,9.33-2.36,9.43-2.45c0.11-0.1,0.14-0.26,0.07-0.39c-0.07-0.13-0.22-0.2-0.37-0.16
				c-2.4,0.65-6.87,0.89-9.98,0.89c-3.47,0-5.24-0.25-5.67-0.43c0.22-0.31,1.59-0.85,3.29-1.18c0.16-0.03,0.27-0.18,0.26-0.35
				c-0.02-0.16-0.15-0.29-0.32-0.29C228.9,32.49,223.91,32.57,223.39,34.15z"/>
			<path id="XMLID_70_" class="st8" d="M246.16,31.97c-1.4,0-2.73,0.7-2.79,0.73c-0.13,0.07-0.2,0.22-0.16,0.36s0.16,0.24,0.31,0.24
				c0.03,0,2.99,0.02,3.26,1.72c0.24,1.46-2.8,3.83-4,4.62c-0.13,0.09-0.18,0.25-0.12,0.39c0.05,0.12,0.17,0.2,0.3,0.2
				c0.02,0,0.04,0,0.07-0.01c0.28-0.06,6.92-1.52,6.22-5.39C248.82,32.47,247.33,31.97,246.16,31.97z"/>
			<path id="XMLID_69_" class="st8" d="M241.61,39.17c0.02-0.12-0.03-0.25-0.13-0.32l-1.59-1.11c-0.08-0.05-0.18-0.07-0.27-0.05
				c-0.02,0-1.68,0.44-4.1,0.71c-0.96,0.11-2.03,0.16-3.11,0.16c-2.42,0-4-0.28-4.23-0.49c-0.03-0.06-0.02-0.09-0.02-0.1
				c0.04-0.12,0.27-0.25,0.41-0.31c0.16-0.06,0.25-0.23,0.2-0.39s-0.22-0.26-0.38-0.22c-1.6,0.39-2.38,0.92-2.32,1.6
				c0.1,1.2,2.88,1.82,5.23,1.98c0.34,0.02,0.7,0.03,1.09,0.03l0,0c3.91,0,8.92-1.23,8.97-1.24
				C241.49,39.39,241.58,39.29,241.61,39.17z"/>
			<path id="XMLID_68_" class="st8" d="M229.6,41.75c0.12-0.08,0.17-0.23,0.13-0.36c-0.04-0.14-0.17-0.23-0.32-0.23
				c-0.21,0.01-2.09,0.09-2.23,1.29c-0.04,0.36,0.06,0.68,0.3,0.97c0.68,0.8,2.5,1.28,5.57,1.45c0.36,0.02,0.73,0.03,1.1,0.03
				c3.91,0,6.54-1.22,6.65-1.27s0.18-0.16,0.18-0.27c0.01-0.12-0.05-0.23-0.15-0.29l-2.01-1.23c-0.07-0.04-0.15-0.06-0.23-0.04
				c-0.01,0-1.29,0.27-3.22,0.53c-0.36,0.05-0.82,0.07-1.36,0.07c-1.93,0-4.07-0.31-4.48-0.52
				C229.54,41.84,229.55,41.79,229.6,41.75z"/>
			<path id="XMLID_67_" class="st8" d="M232.35,48.59c8.95-0.01,13.75-1.6,14.67-2.6c0.33-0.35,0.36-0.69,0.33-0.91
				c-0.07-0.54-0.56-0.87-0.62-0.9c-0.13-0.09-0.31-0.06-0.42,0.06c-0.1,0.12-0.11,0.3,0,0.42c0.06,0.07,0.09,0.19-0.08,0.36
				c-0.37,0.35-4.1,1.39-10.31,1.71c-0.85,0.04-1.74,0.07-2.65,0.07c-5.56,0-9.63-0.76-10.16-1.21c0.21-0.3,1.65-0.77,3.18-1.04
				c0.17-0.03,0.29-0.19,0.26-0.37s-0.19-0.29-0.36-0.27c-0.04,0.01-0.19,0.01-0.36,0.03c-2.53,0.15-5.44,0.5-5.6,1.8
				c-0.05,0.4,0.07,0.76,0.35,1.07C221.27,47.57,223.23,48.59,232.35,48.59L232.35,48.59z"/>
			<path id="XMLID_58_" class="st8" d="M248.78,46.28c-0.13-0.06-0.28-0.03-0.37,0.07c-0.01,0.01-1.36,1.42-5.4,2.25
				c-1.55,0.31-4.45,0.47-8.64,0.47s-8.18-0.16-8.22-0.17c-0.17-0.01-0.31,0.11-0.33,0.28c-0.02,0.16,0.08,0.32,0.24,0.36
				c0.04,0.01,4.22,0.99,9.94,0.99c2.74,0,5.41-0.22,7.93-0.66c4.7-0.82,5.03-3.15,5.04-3.25C248.98,46.47,248.9,46.33,248.78,46.28
				z"/>
		</g>
		<path id="NET_8_" class="st8" d="M126.68,50.96h4.7v14.57h1.91V50.96h4.7v-1.73h-11.31V50.96z M118.15,58.11h5.89v-1.73h-5.89
			v-5.42h6.36v-1.73h-8.27v16.3h8.64V63.8h-6.72L118.15,58.11L118.15,58.11z M110.73,60.72l0.11,2.4h-0.05
			c-0.11-0.22-0.34-0.58-0.66-1.09l-8.16-12.79h-2.48v16.3h1.91V53.76l-0.09-2.24h0.07c0.14,0.37,0.31,0.71,0.51,1.02l8.41,12.99
			h2.32v-16.3h-1.9L110.73,60.72L110.73,60.72z M95.44,63.23c-0.35,0-0.64,0.12-0.89,0.38c-0.24,0.25-0.36,0.55-0.36,0.91
			c0,0.34,0.13,0.66,0.36,0.9c0.24,0.25,0.54,0.38,0.89,0.38c0.36,0,0.66-0.13,0.91-0.38s0.38-0.56,0.38-0.91s-0.13-0.65-0.38-0.91
			c-0.24-0.25-0.57-0.39-0.91-0.38 M133.31,45.97c0,0.87,0.39,1.31,1.16,1.31c0.28,0,0.5-0.05,0.67-0.14v-0.61
			c-0.13,0.1-0.3,0.15-0.46,0.14c-0.24,0-0.4-0.06-0.51-0.19c-0.1-0.12-0.15-0.34-0.15-0.63v-2.5h1.12v-0.6h-1.11v-1.31l-0.71,0.23
			v1.08h-0.76v0.6h0.76v2.63L133.31,45.97z M130.41,47.18h0.71v-3.83h1.04v-0.6h-1.04v-0.68c0-0.63,0.25-0.94,0.74-0.94
			c0.16,0,0.33,0.04,0.47,0.12v-0.64c-0.13-0.06-0.3-0.08-0.52-0.08c-0.38,0-0.7,0.11-0.96,0.36c-0.3,0.28-0.45,0.66-0.45,1.15v0.72
			h-0.75v0.6h0.75v3.84L130.41,47.18z M125.56,44.98c0-0.57,0.14-1,0.42-1.31c0.27-0.29,0.62-0.43,1.06-0.43
			c0.45,0,0.8,0.14,1.05,0.43c0.26,0.3,0.39,0.73,0.39,1.3c0,0.54-0.11,0.97-0.36,1.26c-0.24,0.3-0.6,0.45-1.07,0.45
			c-0.45,0-0.81-0.15-1.08-0.45C125.69,45.93,125.56,45.51,125.56,44.98 M128.6,46.64c0.4-0.43,0.6-0.99,0.6-1.7
			c0-0.72-0.19-1.28-0.56-1.7c-0.37-0.41-0.89-0.61-1.55-0.61c-0.67,0-1.21,0.2-1.61,0.59c-0.43,0.42-0.65,1.02-0.65,1.79
			c0,0.68,0.19,1.22,0.57,1.63c0.39,0.43,0.92,0.64,1.59,0.64C127.67,47.28,128.21,47.07,128.6,46.64 M123.72,46.89
			c0.27-0.22,0.42-0.56,0.41-0.9c0-0.33-0.11-0.6-0.33-0.81c-0.17-0.17-0.44-0.33-0.82-0.49c-0.34-0.14-0.56-0.27-0.67-0.37
			c-0.12-0.11-0.18-0.26-0.18-0.46c0-0.18,0.07-0.33,0.21-0.45s0.33-0.17,0.57-0.17c0.38,0,0.71,0.11,1.01,0.32v-0.72
			c-0.28-0.14-0.6-0.21-0.95-0.21c-0.45,0-0.84,0.12-1.13,0.37s-0.44,0.55-0.44,0.92c0,0.33,0.09,0.6,0.28,0.8
			c0.16,0.17,0.42,0.34,0.79,0.5c0.36,0.16,0.6,0.29,0.73,0.41s0.19,0.26,0.19,0.43c0,0.41-0.28,0.62-0.85,0.62
			c-0.42,0-0.81-0.14-1.15-0.43v0.76c0.31,0.18,0.68,0.27,1.1,0.27C123.01,47.28,123.42,47.15,123.72,46.89 M117.38,43.67
			c0.26-0.29,0.63-0.43,1.06-0.43c0.45,0,0.8,0.14,1.05,0.43c0.26,0.3,0.38,0.73,0.38,1.3c0,0.54-0.11,0.97-0.36,1.26
			c-0.24,0.3-0.6,0.45-1.07,0.45c-0.45,0-0.81-0.15-1.08-0.45s-0.4-0.71-0.4-1.25C116.97,44.41,117.11,43.97,117.38,43.67
			 M118.4,47.28c0.68,0,1.21-0.21,1.61-0.64s0.6-0.99,0.6-1.7c0-0.72-0.19-1.28-0.56-1.7c-0.37-0.41-0.89-0.61-1.55-0.61
			c-0.67,0-1.21,0.2-1.61,0.59c-0.43,0.42-0.65,1.02-0.65,1.79c0,0.68,0.19,1.22,0.57,1.63C117.2,47.06,117.73,47.28,118.4,47.28
			 M114.82,42.9c-0.22,0.17-0.38,0.43-0.48,0.75h-0.02v-0.92h-0.71v4.44h0.71v-2.25c0-0.52,0.11-0.92,0.33-1.21
			c0.2-0.26,0.44-0.39,0.73-0.39c0.24,0,0.42,0.05,0.54,0.14v-0.74c-0.1-0.04-0.24-0.06-0.43-0.06
			C115.25,42.67,115.02,42.75,114.82,42.9 M111.32,47.28c0.47,0,0.88-0.1,1.22-0.31V46.3c-0.34,0.25-0.7,0.38-1.09,0.38
			c-0.45,0-0.82-0.15-1.1-0.45c-0.27-0.3-0.41-0.71-0.41-1.23c0-0.54,0.15-0.97,0.45-1.29c0.28-0.31,0.65-0.47,1.1-0.47
			c0.38,0,0.75,0.12,1.06,0.35v-0.73c-0.3-0.15-0.64-0.23-1.03-0.23c-0.7,0-1.27,0.22-1.68,0.67s-0.63,1.04-0.63,1.76
			c0,0.65,0.19,1.18,0.57,1.59C110.17,47.08,110.69,47.29,111.32,47.28 M107.39,47.19h0.71v-4.44h-0.71V47.19L107.39,47.19z
			 M107.75,41.62c0.12,0,0.24-0.05,0.33-0.14c0.09-0.09,0.14-0.21,0.14-0.33c0-0.12-0.05-0.24-0.14-0.33s-0.21-0.13-0.33-0.13
			c-0.13,0-0.24,0.04-0.33,0.13c-0.09,0.09-0.14,0.2-0.14,0.33c0,0.14,0.05,0.25,0.14,0.33C107.51,41.58,107.63,41.62,107.75,41.62
			 M100.21,43.02l-0.03-1.21h0.02c0.06,0.29,0.13,0.5,0.19,0.64l2.12,4.74h0.36l2.13-4.78c0.05-0.13,0.12-0.33,0.19-0.6h0.02
			l-0.06,1.2v4.18h0.73v-6.22h-0.91l-1.95,4.31c-0.08,0.17-0.17,0.42-0.3,0.76h-0.03c-0.05-0.17-0.14-0.42-0.28-0.74l-1.91-4.34
			h-0.96v6.22h0.7v-4.16H100.21z M137.57,43.74c-0.2,0.2-0.45,0.3-0.74,0.3c-0.29,0-0.54-0.1-0.74-0.3s-0.31-0.45-0.31-0.75
			c0-0.29,0.1-0.54,0.3-0.74s0.45-0.3,0.75-0.3c0.28-0.01,0.54,0.1,0.74,0.3s0.31,0.47,0.3,0.75
			C137.88,43.3,137.77,43.55,137.57,43.74 M136.84,41.83c-0.32-0.01-0.62,0.11-0.85,0.34c-0.22,0.22-0.35,0.52-0.34,0.84
			c0,0.34,0.11,0.61,0.34,0.84s0.51,0.33,0.84,0.33c0.32,0.01,0.62-0.11,0.85-0.34s0.34-0.5,0.34-0.84s-0.11-0.63-0.34-0.84
			C137.46,41.94,137.16,41.83,136.84,41.83 M136.81,42.92h-0.23v-0.51h0.19c0.13,0,0.22,0.02,0.28,0.07
			c0.05,0.04,0.07,0.1,0.07,0.19C137.12,42.84,137.02,42.92,136.81,42.92 M136.97,43.06L136.97,43.06c0.12-0.03,0.22-0.08,0.28-0.15
			c0.07-0.07,0.1-0.17,0.1-0.26c0-0.11-0.04-0.21-0.12-0.28c-0.1-0.09-0.24-0.13-0.43-0.13h-0.42v1.5h0.21v-0.63h0.14
			c0.1,0,0.19,0.09,0.27,0.27l0.16,0.36h0.26l-0.2-0.4C137.14,43.17,137.05,43.08,136.97,43.06"/>
		<g id="node.js">
			<path class="st8" d="M299.15,159.92l-5.79-3.42c-0.86-0.49-0.44-0.66-0.16-0.75c1.15-0.4,1.39-0.49,2.62-1.19
				c0.13-0.08,0.3-0.05,0.43,0.04l4.44,2.63c0.16,0.09,0.38,0.09,0.53,0l17.32-9.99c0.16-0.09,0.26-0.28,0.26-0.47v-19.99
				c0-0.2-0.1-0.38-0.27-0.48l-17.31-9.98c-0.16-0.09-0.38-0.09-0.53,0l-17.3,9.99c-0.17,0.09-0.27,0.28-0.27,0.48v19.98
				c0,0.19,0.1,0.38,0.27,0.46l4.74,2.74c2.58,1.28,4.15-0.23,4.15-1.75V128.5c0-0.28,0.22-0.5,0.51-0.5h2.2
				c0.27,0,0.51,0.22,0.51,0.5v19.73c0,3.43-1.88,5.4-5.13,5.4c-1,0-1.79,0-3.98-1.09l-4.54-2.62c-1.12-0.65-1.82-1.86-1.82-3.16
				v-19.98c0-1.29,0.69-2.51,1.82-3.16l17.3-9.99c1.1-0.62,2.55-0.62,3.64,0l17.32,10c1.12,0.65,1.82,1.86,1.82,3.16v19.98
				c0,1.29-0.69,2.5-1.82,3.16l-17.32,9.99c-0.55,0.32-1.18,0.49-1.82,0.49C300.34,160.41,299.7,160.24,299.15,159.92z
				 M306.32,146.65c-7.58,0-9.17-3.48-9.17-6.39c0-0.27,0.22-0.5,0.5-0.5h2.24c0.25,0,0.46,0.18,0.5,0.42
				c0.34,2.28,1.34,3.43,5.92,3.43c3.65,0,5.2-0.82,5.2-2.76c0-1.12-0.44-1.95-6.11-2.5c-4.73-0.47-7.67-1.52-7.67-5.31
				c0-3.5,2.94-5.58,7.88-5.58c5.55,0,8.3,1.92,8.64,6.06c0.01,0.14-0.04,0.28-0.13,0.38s-0.22,0.16-0.37,0.16h-2.25
				c-0.23,0-0.44-0.17-0.49-0.39c-0.54-2.4-1.86-3.17-5.41-3.17c-3.98,0-4.44,1.39-4.44,2.43c0,1.26,0.54,1.62,5.92,2.33
				c5.32,0.7,7.85,1.7,7.85,5.44C314.94,144.48,311.79,146.64,306.32,146.65z"/>
		</g>
		<g id="Python">
			<circle class="st9" cx="295.76" cy="248.83" r="33.61"/>
			<g id="Python_Icon">
				
					<linearGradient id="path1948_1_" gradientUnits="userSpaceOnUse" x1="483.6599" y1="-129.5336" x2="521.7906" y2="-162.34" gradientTransform="matrix(0.5625 0 0 -0.568 3.2866 156.7268)">
					<stop  offset="0" style="stop-color:#5A9FD4"/>
					<stop  offset="1" style="stop-color:#306998"/>
				</linearGradient>
				<path id="path1948" class="st10" d="M295.53,229.18c-1.6,0.01-3.13,0.14-4.48,0.38c-3.97,0.7-4.69,2.17-4.69,4.87v3.57h9.38
					v1.19h-9.38h-3.52c-2.73,0-5.11,1.64-5.86,4.75c-0.86,3.57-0.9,5.8,0,9.53c0.67,2.78,2.26,4.75,4.98,4.75h3.22v-4.28
					c0-3.1,2.68-5.83,5.86-5.83h9.37c2.61,0,4.69-2.15,4.69-4.77v-8.93c0-2.54-2.14-4.45-4.69-4.87
					C298.8,229.29,297.13,229.17,295.53,229.18z M290.46,232.05c0.97,0,1.76,0.8,1.76,1.79c0,0.99-0.79,1.78-1.76,1.78
					c-0.97,0-1.76-0.8-1.76-1.78C288.7,232.86,289.48,232.05,290.46,232.05z"/>
				
					<linearGradient id="path1950_1_" gradientUnits="userSpaceOnUse" x1="536.5323" y1="-182.1958" x2="522.9158" y2="-162.9308" gradientTransform="matrix(0.5625 0 0 -0.568 3.2866 156.7268)">
					<stop  offset="0" style="stop-color:#FFD43B"/>
					<stop  offset="1" style="stop-color:#FFE873"/>
				</linearGradient>
				<path id="path1950" class="st11" d="M306.27,239.2v4.16c0,3.23-2.74,5.95-5.86,5.95h-9.37c-2.57,0-4.69,2.2-4.69,4.77v8.93
					c0,2.54,2.21,4.04,4.69,4.77c2.97,0.87,5.82,1.03,9.37,0c2.36-0.68,4.69-2.06,4.69-4.77v-3.57h-9.37v-1.19h9.37h4.69
					c2.73,0,3.74-1.9,4.69-4.75c0.98-2.94,0.94-5.76,0-9.53c-0.67-2.71-1.96-4.75-4.69-4.75H306.27z M301,261.82
					c0.97,0,1.76,0.8,1.76,1.78c0,0.99-0.79,1.79-1.76,1.79c-0.97,0-1.76-0.8-1.76-1.79C299.24,262.61,300.04,261.82,301,261.82z"/>
			</g>
		</g>
	</g>
	<g id="diagram">
		<g>
			<rect x="152.25" y="156.41" class="st12" width="19.5" height="6.94"/>
		</g>
		<g>
			<rect x="152.25" y="197.48" class="st12" width="19.5" height="6.92"/>
		</g>
		<g>
			<rect x="152.25" y="232.48" class="st12" width="19.5" height="6.92"/>
		</g>
		<g>
			<rect x="175.79" y="213.54" class="st12" width="19.5" height="6.92"/>
		</g>
		<g>
			<rect x="188.37" y="179.27" class="st12" width="6.92" height="34.53"/>
		</g>
		<g>
			<rect x="171.37" y="197.48" class="st12" width="6.92" height="41.92"/>
		</g>
		<g>
			<path class="st12" d="M191.84,183.58l-23.7-23.7l23.7-23.7l23.7,23.7L191.84,183.58z M177.27,159.88l14.56,14.56l14.56-14.56
				l-14.56-14.56L177.27,159.88z"/>
		</g>
	</g>
	<g>
		<path class="st13" d="M118.55,191.12c0,10.72-2.95,18.98-8.85,24.79c-5.9,5.8-14.2,8.7-24.9,8.7H64.01v-64.25h22.24
			c10.31,0,18.27,2.64,23.88,7.91C115.74,173.54,118.55,181.16,118.55,191.12z M100.53,191.74c0-5.89-1.16-10.25-3.49-13.1
			s-5.87-4.26-10.61-4.26h-5.05v35.99h3.87c5.27,0,9.14-1.53,11.6-4.59S100.53,198.04,100.53,191.74z"/>
	</g>
</g>
<g>
</g>
<g>
</g>
<g>
</g>
<g>
</g>
<g>
</g>
</svg>
