<?xml version="1.0" encoding="iso-8859-1"?>
<!-- Generator: Adobe Illustrator 16.0.0, SVG Export Plug-In . SVG Version: 6.00 Build 0)  -->
<!DOCTYPE svg PUBLIC "-//W3C//DTD SVG 1.1//EN" "http://www.w3.org/Graphics/SVG/1.1/DTD/svg11.dtd">
<svg version="1.1" id="Layer_1" xmlns="http://www.w3.org/2000/svg" xmlns:xlink="http://www.w3.org/1999/xlink" x="0px" y="0px"
	 width="48px" height="48px" viewBox="0 0 48 48" style="enable-background:new 0 0 48 48;" xml:space="preserve">
<circle style="fill:#FFFFFF;stroke:#DD504F;stroke-width:0.9936;stroke-miterlimit:10;" cx="24" cy="24" r="23.35"/>
<g id="Unlock">
	<path style="fill:#DD504F;" d="M29.415,17.077C29.198,14.276,26.856,12.07,24,12.07c-3,0-5.432,2.432-5.432,5.432v4.907
		c0,1.974,1.054-0.709,2.629,0.241v-5.103c0-1.523,1.234-2.758,2.757-2.758c1.386,0,2.533,1.023,2.728,2.356
		c-0.005,0.047-0.007,0.095-0.007,0.144v1.819c0,0.762,0.617,1.379,1.378,1.379c0.762,0,1.379-0.617,1.379-1.379v-1.443v-0.164
		V17.29C29.432,17.218,29.426,17.146,29.415,17.077z"/>
	<g>
		<path style="fill:#DD504F;" d="M15.176,24.839v8.64c0,1.354,1.097,2.451,2.45,2.451h12.748c1.353,0,2.45-1.097,2.45-2.451v-8.64
			c0-1.354-1.098-2.45-2.45-2.45H17.626C16.272,22.389,15.176,23.485,15.176,24.839z M29.612,24.165
			c0.511,0,0.926,0.415,0.926,0.926v8.137c0,0.511-0.415,0.925-0.926,0.925H18.388c-0.511,0-0.925-0.414-0.925-0.925v-8.137
			c0-0.511,0.414-0.926,0.925-0.926H29.612z"/>
		<g>
			<path style="fill:#DD504F;" d="M20.096,32.121h4.088c0.654,0,1.185-0.531,1.185-1.186s-0.53-1.185-1.185-1.185h-4.088
				c-0.653,0-1.185,0.53-1.185,1.185S19.442,32.121,20.096,32.121z"/>
			<path style="fill:#DD504F;" d="M20.096,28.444h4.088c0.654,0,1.185-0.53,1.185-1.185c0-0.655-0.53-1.186-1.185-1.186h-4.088
				c-0.653,0-1.185,0.53-1.185,1.186C18.911,27.914,19.442,28.444,20.096,28.444z"/>
		</g>
	</g>
</g>
<g>
</g>
<g>
</g>
<g>
</g>
<g>
</g>
<g>
</g>
<g>
</g>
</svg>
