<svg version="1.1" id="GroupDocs.Comparison" xmlns="http://www.w3.org/2000/svg" x="0" y="0" viewBox="0 0 280 200" style="enable-background:new 0 0 280 200" xml:space="preserve"><style>.st0{fill:#dcdcdc}.st2{fill:#fff}</style><g id="Comparison"><g id="Base_2_"><g id="Platforms_n_Lines"><g id="Lines_1_"><path class="st0" d="M163.8 118.7h100.4v1H163.8zM163.3 97.6h100.4v1H163.3zM153.3 50h33.9v1h-33.9zM195.2 48h1v5h-1zM195.3 59h1v20h-1zM263.3 80h1v4h-1zM263.3 59.1h1v4h-1z"/><path class="st0" d="M263.3 90h1v29.7h-1zM171.2 108h37v1h-37zM165.6 129.1h35.6v1h-35.6z"/><path transform="rotate(90 200.74 149.033)" class="st0" d="M180.8 148.5h39.9v1h-39.9z"/><path transform="rotate(-180 159.273 166.5)" class="st0" d="M131.3 166h55.9v1h-55.9z"/><path class="st0" d="M200.2 175h1v5h-1zM263.2 148h1v5h-1z"/><path transform="rotate(90 242.733 154.033)" class="st0" d="M211.8 153.5h61.9v1h-61.9z"/><path transform="rotate(90 216.706 153.501)" class="st0" d="M190.2 153h53.1v1h-53.1z"/><path transform="rotate(90 210.706 161.474)" class="st0" d="M210.2 159h1v5h-1z"/><path class="st0" d="M170.2 87.2h36v1h-36z"/><path class="st0" d="M205.3 61h1v26.7h-1zM216.3 75h1v4h-1z"/><path transform="rotate(90 212.131 61.545)" class="st0" d="M211.6 55.4h1v12.3h-1z"/><path transform="rotate(-180 226.843 67.875)" class="st0" d="M226.3 61.7h1V74h-1z"/><path transform="rotate(-90 239.8 61.429)" class="st0" d="M239.3 48h1v26.9h-1z"/><path class="st0" d="M252.3 58h1v4h-1z"/></g><g id="Platform_Icons_1_"><circle cx="237.1" cy="156.5" r="25" style="fill:#ea531a"/><path class="st2" d="M223.8 153.8c-1.5 0-2.7 1.2-2.7 2.7s1.2 2.7 2.7 2.7 2.7-1.2 2.7-2.7c0-1.5-1.2-2.7-2.7-2.7zM243 166c-1.3.7-1.7 2.4-1 3.7s2.4 1.7 3.7 1 1.7-2.4 1-3.7c-.8-1.3-2.5-1.7-3.7-1zm-13.4-9.5c0-2.6 1.3-5 3.3-6.4l-2-3.3c-2.4 1.6-4.1 4-4.8 6.8.9.7 1.4 1.7 1.4 2.9s-.5 2.2-1.4 2.9c.7 2.8 2.5 5.2 4.8 6.8l2-3.3c-2-1.4-3.3-3.8-3.3-6.4zm7.9-7.9c4.1 0 7.5 3.1 7.8 7.1l3.8-.1c-.2-3-1.5-5.6-3.5-7.6-1 .4-2.2.3-3.2-.3s-1.7-1.6-1.8-2.7c-1-.3-2-.4-3.1-.4-1.9 0-3.6.4-5.2 1.2l1.9 3.3c1-.2 2.1-.5 3.3-.5zm0 15.7c-1.2 0-2.3-.3-3.3-.7l-1.9 3.3c1.6.8 3.3 1.2 5.2 1.2 1.1 0 2.1-.1 3.1-.4.2-1.1.8-2.1 1.8-2.7 1-.6 2.2-.6 3.2-.3 2-1.9 3.3-4.6 3.5-7.6l-3.8-.1c-.4 4.2-3.7 7.3-7.8 7.3zM243 147c1.3.7 2.9.3 3.7-1s.3-2.9-1-3.7-2.9-.3-3.7 1c-.8 1.3-.3 2.9 1 3.7z" id="Ubuntu_Icon_1_"/><circle cx="237.4" cy="97.6" style="fill:#444" r="25"/><path class="st2" d="M243.7 98c0 4.1 3.6 5.4 3.6 5.5s-.6 1.9-1.9 3.8c-1.1 1.6-2.3 3.3-4.1 3.3s-2.4-1.1-4.5-1.1-2.7 1-4.4 1.1c-1.8.1-3.1-1.8-4.3-3.4-2.3-3.3-4.1-9.5-1.7-13.6 1.2-2.1 3.3-3.3 5.6-3.4 1.7 0 3.4 1.2 4.5 1.2s3.1-1.4 5.2-1.2c.9 0 3.4.4 4.9 2.7-.2 0-3 1.7-2.9 5.1m-3.4-10c.9-1.1 1.6-2.7 1.4-4.3-1.4.1-3 .9-4 2.1-.9 1-1.6 2.6-1.4 4.2 1.5 0 3-.9 4-2" id="Apple_Icon_1_"/><g><circle cx="237.2" cy="38.6" style="fill:#0079d8" r="25"/><path class="st2" d="M249.6 40v12.1c0 .3-.3.5-.6.5L237.1 51c-.3 0-.5-.2-.5-.5V40c0-.3.2-.5.5-.5h12c.3 0 .5.2.5.5zm-14.3 0v10.2c0 .3-.3.5-.6.5l-11.2-1.4c-.3 0-.5-.3-.5-.5v-8.7c0-.3.2-.5.6-.5H234.9c.1-.1.4.1.4.4zm0-12.3v10c0 .3-.2.5-.5.5h-11.3c-.3 0-.6-.2-.6-.5v-8.5c0-.3.2-.5.5-.5l11.3-1.4h.1c.2-.1.5.1.5.4zm13.8 10.5h-12c-.3 0-.6-.2-.6-.5V27.4c0-.3.2-.5.5-.5l11.9-1.6h.1c.3 0 .6.2.6.5v11.8c0 .3-.2.6-.5.6z" id="Windows_Icon_1_"/></g></g></g><circle cx="96.7" cy="100" r="72.5" style="fill:#fff;stroke:#b4b4b4;stroke-width:5;stroke-miterlimit:10"/></g><path d="M84.4 81h-8.9c-1.8 0-3.3 1.5-3.3 3.3 0 1.8 1.5 3.3 3.3 3.3h8.9V81zM72.3 96.3c0 1.8 1.5 3.3 3.3 3.3h8.9V93h-8.9c-1.8 0-3.3 1.5-3.3 3.3zM85 123.7H70.5c-1.5 0-2.8-1.2-2.8-2.8V79.1c0-1.5 1.3-2.8 2.8-2.8H85c.7-2.5 2.1-4.8 4-6.5H70.5c-5.1 0-9.3 4.2-9.3 9.3v41.8c0 5.1 4.2 9.3 9.3 9.3H89c-1.9-1.7-3.3-3.9-4-6.5zM119.4 81h-16.8c-1.8 0-3.3 1.5-3.3 3.3 0 1.8 1.5 3.3 3.3 3.3h16.8c1.8 0 3.3-1.5 3.3-3.3-.1-1.9-1.5-3.3-3.3-3.3zm5.1-11.2h-27c-5.1 0-9.3 4.2-9.3 9.3v41.8c0 5.1 4.2 9.3 9.3 9.3h27c5.1 0 9.3-4.2 9.3-9.3V79.1c0-5.1-4.2-9.3-9.3-9.3zm2.8 51.1c0 1.5-1.3 2.8-2.8 2.8h-27c-1.5 0-2.8-1.2-2.8-2.8V79.1c0-1.5 1.3-2.8 2.8-2.8h27c1.5 0 2.8 1.2 2.8 2.8v41.8zM119.4 93h-16.8c-1.8 0-3.3 1.5-3.3 3.3 0 1.8 1.5 3.3 3.3 3.3h16.8c1.8 0 3.3-1.5 3.3-3.3-.1-1.8-1.5-3.3-3.3-3.3z" style="fill-rule:evenodd;clip-rule:evenodd;fill:#b4b4b4" id="comparison"/></g></svg>