<svg version="1.1" id="GroupDocs.Classification" xmlns="http://www.w3.org/2000/svg" x="0" y="0" viewBox="0 0 280 200" style="enable-background:new 0 0 280 200" xml:space="preserve"><style>.st0{fill:#dcdcdc}.st2{fill:#fff}.st6{fill:#b4b4b4}</style><g id="Classification_1_"><g id="Base_2_"><g id="Platforms_n_Lines"><g id="Lines_1_"><path class="st0" d="M163.1 118.7h100.4v1H163.1zM162.5 97.6h100.4v1H162.5zM152.6 50h33.9v1h-33.9zM194.5 48h1v5h-1zM194.6 59h1v20h-1zM262.6 80h1v4h-1zM262.6 59.1h1v4h-1z"/><path class="st0" d="M262.6 90h1v29.7h-1zM170.5 108h37v1h-37zM164.9 129.1h35.6v1h-35.6z"/><path transform="rotate(90 200.022 149.036)" class="st0" d="M180.1 148.5H220v1h-39.9z"/><path transform="rotate(-180 158.555 166.503)" class="st0" d="M130.6 166h55.9v1h-55.9z"/><path class="st0" d="M199.5 175h1v5h-1zM262.4 148h1v5h-1z"/><path transform="rotate(90 242.014 154.037)" class="st0" d="M211.1 153.5H273v1h-61.9z"/><path transform="rotate(90 215.988 153.504)" class="st0" d="M189.4 153h53.1v1h-53.1z"/><path transform="rotate(90 209.988 161.477)" class="st0" d="M209.5 159h1v5h-1z"/><path class="st0" d="M169.5 87.2h36v1h-36z"/><path class="st0" d="M204.5 61h1v26.7h-1zM215.5 75h1v4h-1z"/><path transform="rotate(90 211.413 61.548)" class="st0" d="M210.9 55.4h1v12.3h-1z"/><path transform="rotate(-180 226.125 67.879)" class="st0" d="M225.6 61.7h1V74h-1z"/><path transform="rotate(-90 239.082 61.432)" class="st0" d="M238.6 48h1v26.9h-1z"/><path class="st0" d="M251.5 58h1v4h-1z"/></g><g id="Platform_Icons_1_"><circle cx="236.4" cy="156.5" r="25" style="fill:#ea531a"/><path class="st2" d="M223.1 153.8c-1.5 0-2.7 1.2-2.7 2.7s1.2 2.7 2.7 2.7 2.7-1.2 2.7-2.7c0-1.5-1.2-2.7-2.7-2.7zm19.2 12.2c-1.3.7-1.7 2.4-1 3.7s2.4 1.7 3.7 1 1.7-2.4 1-3.7c-.8-1.3-2.5-1.7-3.7-1zm-13.4-9.5c0-2.6 1.3-5 3.3-6.4l-2-3.3c-2.4 1.6-4.1 4-4.8 6.8.9.7 1.4 1.7 1.4 2.9s-.5 2.2-1.4 2.9c.7 2.8 2.5 5.2 4.8 6.8l2-3.3c-2-1.4-3.3-3.8-3.3-6.4zm7.9-7.9c4.1 0 7.5 3.1 7.8 7.1l3.8-.1c-.2-3-1.5-5.6-3.5-7.6-1 .4-2.2.3-3.2-.3s-1.7-1.6-1.8-2.7c-1-.3-2-.4-3.1-.4-1.9 0-3.6.4-5.2 1.2l1.9 3.3c1-.2 2.1-.5 3.3-.5zm0 15.7c-1.2 0-2.3-.3-3.3-.7l-1.9 3.3c1.6.8 3.3 1.2 5.2 1.2 1.1 0 2.1-.1 3.1-.4.2-1.1.8-2.1 1.8-2.7 1-.6 2.2-.6 3.2-.3 2-1.9 3.3-4.6 3.5-7.6l-3.8-.1c-.4 4.2-3.7 7.3-7.8 7.3zm5.5-17.3c1.3.7 2.9.3 3.7-1s.3-2.9-1-3.7-2.9-.3-3.7 1c-.8 1.3-.3 2.9 1 3.7z" id="Ubuntu_Icon_1_"/><circle cx="236.6" cy="97.6" style="fill:#444" r="25"/><path class="st2" d="M243 98c0 4.1 3.6 5.4 3.6 5.5s-.6 1.9-1.9 3.8c-1.1 1.6-2.3 3.3-4.1 3.3s-2.4-1.1-4.5-1.1-2.7 1-4.4 1.1c-1.8.1-3.1-1.8-4.3-3.4-2.3-3.3-4.1-9.5-1.7-13.6 1.2-2.1 3.3-3.3 5.6-3.4 1.7 0 3.4 1.2 4.5 1.2s3.1-1.4 5.2-1.2c.9 0 3.4.4 4.9 2.7-.2 0-3 1.7-2.9 5.1m-3.4-10c.9-1.1 1.6-2.7 1.4-4.3-1.4.1-3 .9-4 2.1-.9 1-1.6 2.6-1.4 4.2 1.5 0 3-.9 4-2" id="Apple_Icon_1_"/><g><circle cx="236.5" cy="38.6" style="fill:#0079d8" r="25"/><path class="st2" d="M248.9 40v12.1c0 .3-.3.5-.6.5L236.4 51c-.3 0-.5-.2-.5-.5V40c0-.3.2-.5.5-.5h12c.3 0 .5.2.5.5zm-14.3 0v10.2c0 .3-.3.5-.6.5l-11.2-1.4c-.3 0-.5-.3-.5-.5v-8.7c0-.3.2-.5.6-.5H234.2c.1-.1.4.1.4.4zm0-12.3v10c0 .3-.2.5-.5.5h-11.3c-.3 0-.6-.2-.6-.5v-8.5c0-.3.2-.5.5-.5l11.3-1.4h.1c.2-.1.5.1.5.4zm13.8 10.5h-12c-.3 0-.6-.2-.6-.5V27.4c0-.3.2-.5.5-.5l11.9-1.6h.1c.3 0 .6.2.6.5v11.8c0 .3-.2.6-.5.6z" id="Windows_Icon_1_"/></g></g></g><circle cx="96" cy="100" r="72.5" style="fill:#fff;stroke:#b4b4b4;stroke-width:5;stroke-miterlimit:10"/></g><g id="Classification"><path class="st6" d="M78.4 86.1h14v-7.5H78.2c-2 0-3.6 1.6-3.6 3.6 0 2.2 1.7 3.9 3.8 3.9zM78.4 99h14v-7.5H78.2c-2 0-3.6 1.6-3.6 3.6 0 2.1 1.7 3.9 3.8 3.9zM100.5 111.3c-3.8 0-6.9-3.1-6.9-6.9 0-3.8 3.1-6.9 6.9-6.9 3.8 0 6.9 3.1 6.9 6.9 0 3.8-3.1 6.9-6.9 6.9zm0-11.3c-2.4 0-4.4 2-4.4 4.4 0 2.4 2 4.4 4.4 4.4 2.4 0 4.4-2 4.4-4.4 0-2.5-2-4.4-4.4-4.4zM118.7 98.8c-4.2 0-7.6-3.4-7.6-7.6 0-4.2 3.4-7.6 7.6-7.6 4.2 0 7.6 3.4 7.6 7.6 0 4.2-3.4 7.6-7.6 7.6zm0-12.7c-2.8 0-5.1 2.3-5.1 5.1s2.3 5.1 5.1 5.1 5.1-2.3 5.1-5.1-2.3-5.1-5.1-5.1zM99.2 87.4c-3 0-5.4-2.4-5.4-5.4 0-3 2.4-5.4 5.4-5.4s5.4 2.4 5.4 5.4c-.1 3-2.5 5.4-5.4 5.4zm0-9c-2 0-3.6 1.6-3.6 3.6s1.6 3.6 3.6 3.6 3.6-1.6 3.6-3.6c0-1.9-1.6-3.6-3.6-3.6zM121.5 121c-3.4 0-6.1-2.7-6.1-6.1 0-3.4 2.7-6.1 6.1-6.1s6.1 2.7 6.1 6.1c0 3.4-2.7 6.1-6.1 6.1zm0-9.7c-2 0-3.7 1.6-3.7 3.7 0 2 1.6 3.7 3.7 3.7 2 0 3.7-1.6 3.7-3.7s-1.7-3.7-3.7-3.7zM81.7 112.9c-2.7 0-4.9-2.2-4.9-4.9s2.2-4.9 4.9-4.9 4.9 2.2 4.9 4.9-2.3 4.9-4.9 4.9zm0-8c-1.7 0-3.1 1.4-3.1 3.1s1.4 3.1 3.1 3.1 3.1-1.4 3.1-3.1-1.4-3.1-3.1-3.1zM102.6 131.4c-3.1 0-5.6-2.5-5.6-5.6 0-3.1 2.5-5.6 5.6-5.6s5.6 2.5 5.6 5.6c.1 3-2.5 5.6-5.6 5.6zm0-9.2c-1.9 0-3.5 1.6-3.5 3.5s1.6 3.5 3.5 3.5 3.5-1.6 3.5-3.5c.1-1.9-1.5-3.5-3.5-3.5z"/><path transform="rotate(-2.498 100.003 92.633) scale(.99995)" class="st6" d="M98.6 86.6h2.8v12.2h-2.8z"/><path transform="rotate(-3.892 101.85 115.577)" class="st6" d="M100.4 109.7h2.8v11.7h-2.8z"/><path transform="rotate(75.202 90.276 105.922)" class="st6" d="M88.9 100.4h2.8v11.1h-2.8z"/><path transform="rotate(50.873 109.395 98.384)" class="st6" d="M108 92.8h2.8v11.1H108z"/><path transform="scale(-1) rotate(-66.014 -169.415 170.913)" class="st6" d="M109.6 104.1h2.8v11.8h-2.8z"/><path class="st6" d="M95.2 124.3h-21c-1.7 0-3.1-1.4-3.1-3V76.2c0-1.7 1.4-3 3.1-3h28.9c1.7 0 3.1 1.4 3.1 3V83h6.9v-6.8c0-5.5-4.5-9.9-10-9.9H74.2c-5.5 0-10 4.4-10 9.9v45.1c0 5.5 4.5 9.9 10 9.9h21v-6.9z"/></g></g></svg>