<svg version="1.1" id="GroupDocs.Rewriter" xmlns="http://www.w3.org/2000/svg" x="0" y="0" viewBox="0 0 280 200" style="enable-background:new 0 0 280 200" xml:space="preserve"><style>.st0{fill:#dcdcdc}.st2{fill:#fff}.st5,.st6{fill:#b4b4b4}.st6{fill-rule:evenodd;clip-rule:evenodd}</style><g id="Rewriter_1_"><g id="Base_2_"><g id="Platforms_n_Lines"><g id="Lines_1_"><path class="st0" d="M164.5 118.5h100.4v1H164.5v-1zm-.5-21.2h100.4v1H164v-1zm-10-47.5h33.9v1H154v-1zm42-2.1h1v5h-1v-5zm0 11.1h1v20h-1v-20zm68.1 21h1v4h-1v-4zm-.1-21h1v4h-1v-4z"/><path class="st0" d="M264.1 89.8h1v29.7h-1V89.8zm-92.1 18h37v1h-37v-1zm-5.6 21H202v1h-35.6v-1z"/><path class="st0" d="M202 128.8v39.9h-1v-39.9h1zM188 166.8h-55.9v-1H188v1zM201 174.8h1v5h-1v-5zm62.9-27h1v5h-1v-5zM244 122.8v61.9h-1v-61.9h1zM217.9 126.7v53.1h-1v-53.1h1zM214 160.7v1h-5v-1h5zM171 87h36v1h-36v-1z"/><path class="st0" d="M206 60.8h1v26.7h-1V60.8zm11 14h1v4h-1v-4z"/><path class="st0" d="M219 60.9v1h-12.3v-1H219zM228.1 73.8h-1V61.5h1v12.3z"/><path class="st0" d="M227 61.7v-1h26.9v1H227z"/><path class="st0" d="M253 57.7h1v4h-1v-4z"/></g><g id="Platform_Icons_1_"><circle cx="237.9" cy="156.3" r="25" style="fill:#ea531a"/><path id="Ubuntu_Icon_1_" class="st2" d="M224.6 153.6c-1.5 0-2.7 1.2-2.7 2.7s1.2 2.7 2.7 2.7 2.7-1.2 2.7-2.7-1.2-2.7-2.7-2.7zm19.2 12.2c-1.3.7-1.7 2.4-1 3.7s2.4 1.7 3.7 1 1.7-2.4 1-3.7c-.8-1.3-2.5-1.7-3.7-1zm-13.4-9.5c0-2.6 1.3-5 3.3-6.4l-2-3.3c-2.4 1.6-4.1 4-4.8 6.8.9.7 1.4 1.7 1.4 2.9s-.5 2.2-1.4 2.9c.7 2.8 2.5 5.2 4.8 6.8l2-3.3c-2-1.4-3.3-3.8-3.3-6.4zm7.9-7.9c4.1 0 7.5 3.1 7.8 7.1l3.8-.1c-.2-3-1.5-5.6-3.5-7.6-1 .4-2.2.3-3.2-.3s-1.7-1.6-1.8-2.7c-1-.3-2-.4-3.1-.4-1.9 0-3.6.4-5.2 1.2l1.9 3.3c1-.2 2.1-.5 3.3-.5zm0 15.7c-1.2 0-2.3-.3-3.3-.7l-1.9 3.3c1.6.8 3.3 1.2 5.2 1.2 1.1 0 2.1-.1 3.1-.4.2-1.1.8-2.1 1.8-2.7 1-.6 2.2-.6 3.2-.3 2-1.9 3.3-4.6 3.5-7.6l-3.8-.1c-.4 4.2-3.7 7.3-7.8 7.3zm5.5-17.3c1.3.7 2.9.3 3.7-1s.3-2.9-1-3.7-2.9-.3-3.7 1-.3 2.9 1 3.7z"/><circle cx="238.1" cy="97.4" r="25" style="fill:#444"/><path id="Apple_Icon_1_" class="st2" d="M244.5 97.8c0 4.1 3.6 5.4 3.6 5.5s-.6 1.9-1.9 3.8c-1.1 1.6-2.3 3.3-4.1 3.3s-2.4-1.1-4.5-1.1-2.7 1-4.4 1.1c-1.8.1-3.1-1.8-4.3-3.4-2.3-3.3-4.1-9.5-1.7-13.6 1.2-2.1 3.3-3.3 5.6-3.4 1.7 0 3.4 1.2 4.5 1.2s3.1-1.4 5.2-1.2c.9 0 3.4.4 4.9 2.7-.2 0-3 1.7-2.9 5.1m-3.4-10c.9-1.1 1.6-2.7 1.4-4.3-1.4.1-3 .9-4 2.1-.9 1-1.6 2.6-1.4 4.2 1.5 0 3-.9 4-2"/><circle cx="237.9" cy="38.4" r="25" style="fill:#0079d8"/><path id="Windows_Icon_1_" class="st2" d="M250.4 39.8v12.1c0 .3-.3.5-.6.5l-11.9-1.6c-.3 0-.5-.2-.5-.5V39.8c0-.3.2-.5.5-.5h12c.3 0 .5.2.5.5zm-14.3 0V50c0 .3-.3.5-.6.5l-11.2-1.4c-.3 0-.5-.3-.5-.5v-8.7c0-.3.2-.5.6-.5h11.3c.1-.1.4.1.4.4zm0-12.3v10c0 .3-.2.5-.5.5h-11.3c-.3 0-.6-.2-.6-.5V29c0-.3.2-.5.5-.5l11.3-1.4h.1c.2-.1.5.1.5.4zM249.9 38h-12c-.3 0-.6-.2-.6-.5V27.2c0-.3.2-.5.5-.5l11.9-1.6h.1c.3 0 .6.2.6.5v11.8c0 .3-.2.6-.5.6z"/></g></g><circle class="st2" cx="97.4" cy="99.8" r="72.5"/><path class="st5" d="M97.4 174.8c-41.4 0-75-33.6-75-75s33.6-75 75-75 75 33.6 75 75c0 41.3-33.6 75-75 75zm0-145c-38.6 0-70 31.4-70 70s31.4 70 70 70 70-31.4 70-70-31.4-70-70-70z"/></g><g id="Rewriter"><path class="st6" d="M107.6 86.2h-21c-1.9 0-3.5-1.6-3.5-3.5s1.6-3.5 3.5-3.5h21c1.9 0 3.5 1.6 3.5 3.5s-1.5 3.5-3.5 3.5zM100.1 97.9H86.8c-1.9 0-3.5-1.6-3.5-3.5s1.6-3.5 3.5-3.5h13.3c1.9 0 3.5 1.6 3.5 3.5s-1.6 3.5-3.5 3.5z"/><path class="st5" d="M109.2 122H93.4c-5.6 0-10.2-4.4-10.2-9.8s4.6-9.8 10.2-9.8h27.9c1.6 0 2.9 1.3 2.9 2.9 0 1.6-1.3 2.9-2.9 2.9H93.4c-2.5 0-4.5 1.9-4.5 4.1s2 4.1 4.5 4.1h15.8c1.6 0 2.9 1.3 2.9 2.9 0 1.5-1.3 2.7-2.9 2.7z"/><path class="st6" d="m124.9 107.1-7.8-7.8c-1.1-1.1-1.1-2.9 0-4s2.9-1.1 4 0l7.8 7.8c1.1 1.1 1.1 2.9 0 4-1 1.1-2.8 1.1-4 0z"/><path class="st6" d="m121.2 115.1 7.8-7.8c1.1-1.1 1.1-2.9 0-4s-2.9-1.1-4 0l-7.8 7.8c-1.1 1.1-1.1 2.9 0 4s2.9 1.1 4 0z"/><path class="st6" d="M114.5 124.5c-.6.7-1.5 1.2-2.5 1.2H82.7c-1.7 0-3.2-1.4-3.2-3.1V77.4c0-1.7 1.4-3.1 3.2-3.1H112c1.7 0 3.2 1.4 3.2 3.1v10.9h6.9V77.4c0-5.4-4.5-9.9-10.1-9.9H82.7c-5.6 0-10.1 4.4-10.1 9.9v45.3c0 5.4 4.5 9.9 10.1 9.9H112c4.9 0 9-3.4 9.9-8l-7.4-.1z"/></g></g></svg>