<svg version="1.1" id="GroupDocs.Merger" xmlns="http://www.w3.org/2000/svg" x="0" y="0" viewBox="0 0 280 200" style="enable-background:new 0 0 280 200" xml:space="preserve"><style>.st0{fill:#dcdcdc}.st2{fill:#fff}</style><g id="Merger"><g id="Base_2_"><g id="Platforms_n_Lines"><g id="Lines_1_"><path class="st0" d="M163.5 118.7h100.4v1H163.5zM163 97.6h100.4v1H163zM153 50h33.9v1H153zM194.9 48h1v5h-1zM195 59h1v20h-1zM263 80h1v4h-1zM263 59h1v4h-1z"/><path class="st0" d="M263 90h1v29.7h-1zM170.9 108h37v1h-37zM165.3 129.1h35.6v1h-35.6z"/><path transform="rotate(90 200.43 149.02)" class="st0" d="M180.5 148.5h39.9v1h-39.9z"/><path transform="rotate(-180 158.962 166.488)" class="st0" d="M131 166h55.9v1H131z"/><path class="st0" d="M199.9 175h1v5h-1zM262.9 148h1v5h-1z"/><path transform="rotate(90 242.422 154.021)" class="st0" d="M211.5 153.5h61.9v1h-61.9z"/><path transform="rotate(90 216.395 153.489)" class="st0" d="M189.8 153h53.1v1h-53.1z"/><path transform="rotate(90 210.395 161.462)" class="st0" d="M209.9 159h1v5h-1z"/><path class="st0" d="M169.9 87.2h36v1h-36z"/><path class="st0" d="M205 61h1v26.7h-1zM215.9 75h1v4h-1z"/><path transform="rotate(90 211.82 61.533)" class="st0" d="M211.3 55.4h1v12.3h-1z"/><path transform="rotate(-180 226.532 67.863)" class="st0" d="M226 61.7h1V74h-1z"/><path transform="rotate(-90 239.489 61.417)" class="st0" d="M239 48h1v26.9h-1z"/><path class="st0" d="M251.9 57.9h1v4h-1z"/></g><g id="Platform_Icons_1_"><circle cx="236.8" cy="156.5" r="25" style="fill:#ea531a"/><path class="st2" d="M223.5 153.8c-1.5 0-2.7 1.2-2.7 2.7s1.2 2.7 2.7 2.7 2.7-1.2 2.7-2.7c0-1.5-1.2-2.7-2.7-2.7zm19.2 12.2c-1.3.7-1.7 2.4-1 3.7s2.4 1.7 3.7 1 1.7-2.4 1-3.7c-.8-1.3-2.5-1.7-3.7-1zm-13.4-9.5c0-2.6 1.3-5 3.3-6.4l-2-3.3c-2.4 1.6-4.1 4-4.8 6.8.9.7 1.4 1.7 1.4 2.9s-.5 2.2-1.4 2.9c.7 2.8 2.5 5.2 4.8 6.8l2-3.3c-2-1.4-3.3-3.8-3.3-6.4zm7.9-7.9c4.1 0 7.5 3.1 7.8 7.1l3.8-.1c-.2-3-1.5-5.6-3.5-7.6-1 .4-2.2.3-3.2-.3s-1.7-1.6-1.8-2.7c-1-.3-2-.4-3.1-.4-1.9 0-3.6.4-5.2 1.2l1.9 3.3c1-.2 2.1-.5 3.3-.5zm0 15.7c-1.2 0-2.3-.3-3.3-.7l-1.9 3.3c1.6.8 3.3 1.2 5.2 1.2 1.1 0 2.1-.1 3.1-.4.2-1.1.8-2.1 1.8-2.7 1-.6 2.2-.6 3.2-.3 2-1.9 3.3-4.6 3.5-7.6l-3.8-.1c-.4 4.2-3.7 7.3-7.8 7.3zm5.5-17.3c1.3.7 2.9.3 3.7-1s.3-2.9-1-3.7-2.9-.3-3.7 1c-.8 1.3-.3 2.9 1 3.7z" id="Ubuntu_Icon_1_"/><circle cx="237.1" cy="97.6" style="fill:#444" r="25"/><path class="st2" d="M243.4 98c0 4.1 3.6 5.4 3.6 5.5s-.6 1.9-1.9 3.8c-1.1 1.6-2.3 3.3-4.1 3.3s-2.4-1.1-4.5-1.1-2.7 1-4.4 1.1c-1.8.1-3.1-1.8-4.3-3.4-2.3-3.3-4.1-9.5-1.7-13.6 1.2-2.1 3.3-3.3 5.6-3.4 1.7 0 3.4 1.2 4.5 1.2s3.1-1.4 5.2-1.2c.9 0 3.4.4 4.9 2.7-.2 0-3 1.7-2.9 5.1M240 88c.9-1.1 1.6-2.7 1.4-4.3-1.4.1-3 .9-4 2.1-.9 1-1.6 2.6-1.4 4.2 1.5 0 3-.9 4-2" id="Apple_Icon_1_"/><g><circle cx="236.9" cy="38.6" style="fill:#0079d8" r="25"/><path class="st2" d="M249.3 40v12.1c0 .3-.3.5-.6.5L236.8 51c-.3 0-.5-.2-.5-.5V40c0-.3.2-.5.5-.5h12c.3 0 .5.2.5.5zM235 40v10.2c0 .3-.3.5-.6.5l-11.2-1.4c-.3 0-.5-.3-.5-.5v-8.7c0-.3.2-.5.6-.5H234.6c.1-.1.4.1.4.4zm0-12.3v10c0 .3-.2.5-.5.5h-11.3c-.3 0-.6-.2-.6-.5v-8.5c0-.3.2-.5.5-.5l11.3-1.4h.1c.2-.1.5.1.5.4zm13.8 10.5h-12c-.3 0-.6-.2-.6-.5V27.4c0-.3.2-.5.5-.5l11.9-1.6h.1c.3 0 .6.2.6.5v11.8c0 .3-.2.6-.5.6z" id="Windows_Icon_1_"/></g></g></g><circle class="st2" cx="96.4" cy="100" r="72.5"/><path d="M96.4 175c-41.4 0-75-33.6-75-75s33.6-75 75-75 75 33.6 75 75-33.7 75-75 75zm0-145c-38.6 0-70 31.4-70 70s31.4 70 70 70 70-31.4 70-70-31.4-70-70-70z" style="fill:#b4b4b4"/></g><path d="M109.4 123.8H82.8c-1.5 0-2.8-1.2-2.8-2.8V79.8c0-1.5 1.2-2.7 2.8-2.7h26.6c.4 0 .8.1 1.2.3h7.7c-1.1-3.9-4.6-6.7-8.8-6.7H82.8c-5.1 0-9.2 4.1-9.2 9.2V121c0 5.1 4.1 9.2 9.2 9.2h26.6c4.3 0 7.9-3 8.9-7h-7.2c-.5.4-1 .6-1.7.6zm17.9-43h-17.7c-5.1 0-9.2 4.1-9.2 9.2v.1h6.4V90c0-1.5 1.2-2.7 2.8-2.7h17.7c1.5 0 2.8 1.2 2.8 2.7v20.8c0 1.5-1.2 2.8-2.8 2.8h-17.7c-1.5 0-2.8-1.2-2.8-2.8v-6.7h-6.4v.5H87.9c-1.8 0-3.2 1.4-3.2 3.2 0 1.8 1.4 3.2 3.2 3.2h12.5c.1 5 4.2 9 9.2 9h17.7c5.1 0 9.2-4.1 9.2-9.2V90c0-5.1-4.1-9.2-9.2-9.2zM87.9 100h34.4c1.8 0 3.2-1.4 3.2-3.2 0-1.8-1.4-3.2-3.2-3.2H87.9c-1.8 0-3.2 1.4-3.2 3.2-.1 1.7 1.4 3.2 3.2 3.2z" style="fill-rule:evenodd;clip-rule:evenodd;fill:#b4b4b4" id="Merge"/></g></svg>