<svg version="1.1" id="GroupDocs.Editor_2_" xmlns="http://www.w3.org/2000/svg" x="0" y="0" viewBox="0 0 280 200" style="enable-background:new 0 0 280 200" xml:space="preserve"><style>.st0{fill:#dcdcdc}.st2{fill:#fff}</style><g id="Editor"><g id="Base_2_"><g id="Platforms_n_Lines"><g id="Lines_1_"><path class="st0" d="M163.3 118.9h100.4v1H163.3zM162.8 97.8h100.4v1H162.8zM152.8 50.2h33.9v1h-33.9zM194.7 48.2h1v5h-1zM194.8 59.2h1v20h-1zM262.8 80.2h1v4h-1zM262.8 59.3h1v4h-1z"/><path class="st0" d="M262.8 90.2h1v29.7h-1zM170.7 108.2h37v1h-37zM165.1 129.3h35.6v1h-35.6z"/><path transform="rotate(90 200.241 149.25)" class="st0" d="M180.3 148.7h39.9v1h-39.9z"/><path transform="rotate(-180 158.774 166.717)" class="st0" d="M130.8 166.2h55.9v1h-55.9z"/><path class="st0" d="M199.7 175.2h1v5h-1zM262.7 148.2h1v5h-1z"/><path transform="rotate(90 242.233 154.25)" class="st0" d="M211.3 153.8h61.9v1h-61.9z"/><path transform="rotate(90 216.207 153.718)" class="st0" d="M189.7 153.2h53.1v1h-53.1z"/><path transform="rotate(90 210.207 161.69)" class="st0" d="M209.7 159.2h1v5h-1z"/><path class="st0" d="M169.7 87.5h36v1h-36z"/><path class="st0" d="M204.8 61.3h1V88h-1zM215.8 75.2h1v4h-1z"/><path transform="rotate(90 211.632 61.761)" class="st0" d="M211.1 55.6h1v12.3h-1z"/><path transform="rotate(-180 226.344 68.092)" class="st0" d="M225.8 62h1v12.3h-1z"/><path transform="rotate(-90 239.3 61.646)" class="st0" d="M238.8 48.2h1v26.9h-1z"/><path class="st0" d="M251.8 58.2h1v4h-1z"/></g><g id="Platform_Icons_1_"><circle cx="236.6" cy="156.8" r="25" style="fill:#ea531a"/><path class="st2" d="M223.3 154.1c-1.5 0-2.7 1.2-2.7 2.7s1.2 2.7 2.7 2.7 2.7-1.2 2.7-2.7c0-1.5-1.2-2.7-2.7-2.7zm19.2 12.2c-1.3.7-1.7 2.4-1 3.7s2.4 1.7 3.7 1 1.7-2.4 1-3.7c-.8-1.3-2.5-1.7-3.7-1zm-13.4-9.5c0-2.6 1.3-5 3.3-6.4l-2-3.3c-2.4 1.6-4.1 4-4.8 6.8.9.7 1.4 1.7 1.4 2.9s-.5 2.2-1.4 2.9c.7 2.8 2.5 5.2 4.8 6.8l2-3.3c-2-1.4-3.3-3.8-3.3-6.4zm7.9-7.9c4.1 0 7.5 3.1 7.8 7.1l3.8-.1c-.2-3-1.5-5.6-3.5-7.6-1 .4-2.2.3-3.2-.3s-1.7-1.6-1.8-2.7c-1-.3-2-.4-3.1-.4-1.9 0-3.6.4-5.2 1.2l1.9 3.3c1-.2 2.1-.5 3.3-.5zm0 15.7c-1.2 0-2.3-.3-3.3-.7l-1.9 3.3c1.6.8 3.3 1.2 5.2 1.2 1.1 0 2.1-.1 3.1-.4.2-1.1.8-2.1 1.8-2.7 1-.6 2.2-.6 3.2-.3 2-1.9 3.3-4.6 3.5-7.6l-3.8-.1c-.4 4.2-3.7 7.3-7.8 7.3zm5.5-17.3c1.3.7 2.9.3 3.7-1s.3-2.9-1-3.7-2.9-.3-3.7 1c-.8 1.3-.3 2.9 1 3.7z" id="Ubuntu_Icon_1_"/><circle cx="236.9" cy="97.8" style="fill:#444" r="25"/><path class="st2" d="M243.2 98.3c0 4.1 3.6 5.4 3.6 5.5s-.6 1.9-1.9 3.8c-1.1 1.6-2.3 3.3-4.1 3.3s-2.4-1.1-4.5-1.1-2.7 1-4.4 1.1c-1.8.1-3.1-1.8-4.3-3.4-2.3-3.3-4.1-9.5-1.7-13.6 1.2-2.1 3.3-3.3 5.6-3.4 1.7 0 3.4 1.2 4.5 1.2s3.1-1.4 5.2-1.2c.9 0 3.4.4 4.9 2.7-.2 0-3 1.7-2.9 5.1m-3.4-10c.9-1.1 1.6-2.7 1.4-4.3-1.4.1-3 .9-4 2.1-.9 1-1.6 2.6-1.4 4.2 1.5 0 3-.9 4-2" id="Apple_Icon_1_"/><g><circle cx="236.7" cy="38.8" style="fill:#0079d8" r="25"/><path class="st2" d="M249.1 40.3v12.1c0 .3-.3.5-.6.5l-11.9-1.6c-.3 0-.5-.2-.5-.5V40.3c0-.3.2-.5.5-.5h12c.3 0 .5.2.5.5zm-14.3 0v10.2c0 .3-.3.5-.6.5L223 49.6c-.3 0-.5-.3-.5-.5v-8.7c0-.3.2-.5.6-.5H234.4c.1-.1.4.1.4.4zm0-12.3v10c0 .3-.2.5-.5.5H223c-.3 0-.6-.2-.6-.5v-8.5c0-.3.2-.5.5-.5l11.3-1.4h.1c.2-.1.5.1.5.4zm13.8 10.5h-12c-.3 0-.6-.2-.6-.5V27.7c0-.3.2-.5.5-.5l11.9-1.6h.1c.3 0 .6.2.6.5v11.8c0 .3-.2.6-.5.6z" id="Windows_Icon_1_"/></g></g></g><circle class="st2" cx="96.2" cy="100.2" r="72.5"/><path d="M96.2 175.2c-41.4 0-75-33.6-75-75s33.6-75 75-75 75 33.6 75 75-33.7 75-75 75zm0-145c-38.6 0-70 31.4-70 70s31.4 70 70 70 70-31.4 70-70-31.4-70-70-70z" style="fill:#b4b4b4"/></g><path d="M74.8 85.1h-6.5c-1.4 0-2.6 1.2-2.6 2.6 0 1.5 1.2 2.6 2.6 2.6h6.5v-5.2zm0 9.8h-6.5c-1.4 0-2.6 1.2-2.6 2.6 0 1.5 1.2 2.6 2.6 2.6h6.5v-5.2zm0-14.1c0-1.7.3-3.3.9-4.8H64.2c-4.1 0-7.4 3.4-7.4 7.6v34c0 4.2 3.3 7.6 7.4 7.6h11.3c-.5-1.4-.7-2.8-.7-4.4v-.9H64.2c-1.2 0-2.2-1-2.2-2.3v-34c0-1.3 1-2.3 2.2-2.3h10.6v-.5zm-9.2 25.8c0 1.5 1.2 2.6 2.6 2.6h6.5v-5.3h-6.5c-1.4 0-2.6 1.2-2.6 2.7zM134.1 80c-1.9-1.9-5.1-1.9-7 0l-21.6 20.9 7 6.8 21.6-20.9c1.9-1.9 1.9-4.9 0-6.8zm-16.6 41.7c0 1.5-1.2 2.8-2.8 2.8h-27c-1.5 0-2.8-1.2-2.8-2.8V79.9c0-1.5 1.2-2.8 2.8-2.8h27c1.5 0 2.8 1.2 2.8 2.8v1.9l6.1-4.7c-1.2-3.8-4.7-6.6-8.9-6.6h-27c-5.1 0-9.3 4.2-9.3 9.3v41.8c0 5.1 4.2 9.3 9.3 9.3h27c5.1 0 9.3-4.2 9.3-9.3v-14.9c-1.7 1.4-3.9 2.8-6.5 3.5v11.5zM112.9 85c0-1.8-1.5-3.2-3.3-3.2H92.9c-1.8 0-3.3 1.5-3.3 3.2 0 1.8 1.5 3.2 3.3 3.2h16.7c1.8 0 3.3-1.4 3.3-3.2zm-4.9 27.1 2.2-2.1-7-6.8-2.2 2.1-2.8 9.5 9.8-2.7z" style="fill-rule:evenodd;clip-rule:evenodd;fill:#b4b4b4" id="GroupDocs.Editor"/></g></svg>