<svg version="1.1" id="Layer_1" xmlns="http://www.w3.org/2000/svg" x="0" y="0" viewBox="0 0 410 320" style="enable-background:new 0 0 410 320" xml:space="preserve"><style>.st0{fill:#fff}.st1{fill-rule:evenodd;clip-rule:evenodd;fill:#0068b3}</style><g id="Windows_2_"><g id="Windows_1_"><path class="st0" d="M242 72.9h-3c-.8 0-1.5-.7-1.5-1.5s.7-1.5 1.5-1.5h3c.8 0 1.5.7 1.5 1.5s-.6 1.5-1.5 1.5zM230.3 72.9h-6.5c-.8 0-1.5-.7-1.5-1.5s.7-1.5 1.5-1.5h6.5c.8 0 1.5.7 1.5 1.5s-.6 1.5-1.5 1.5zm-15.2 0h-6.5c-.8 0-1.5-.7-1.5-1.5s.7-1.5 1.5-1.5h6.5c.8 0 1.5.7 1.5 1.5s-.7 1.5-1.5 1.5zM196.8 75.9c-.8 0-1.5-.7-1.5-1.5v-3c0-.8.7-1.5 1.5-1.5h3c.8 0 1.5.7 1.5 1.5s-.7 1.5-1.5 1.5h-1.5v1.5c0 .8-.6 1.5-1.5 1.5zM196.8 115.7c-.8 0-1.5-.7-1.5-1.5v-5.7c0-.8.7-1.5 1.5-1.5s1.5.7 1.5 1.5v5.7c0 .8-.6 1.5-1.5 1.5zm0-13.3c-.8 0-1.5-.7-1.5-1.5v-5.7c0-.8.7-1.5 1.5-1.5s1.5.7 1.5 1.5v5.7c0 .9-.6 1.5-1.5 1.5zm0-13.3c-.8 0-1.5-.7-1.5-1.5v-5.7c0-.8.7-1.5 1.5-1.5s1.5.7 1.5 1.5v5.7c0 .9-.6 1.5-1.5 1.5zM196.8 126.3c-.8 0-1.5-.7-1.5-1.5v-3c0-.8.7-1.5 1.5-1.5s1.5.7 1.5 1.5v3c0 .8-.6 1.5-1.5 1.5z"/><g><circle class="st1" cx="256.4" cy="71.4" r="33"/></g><g id="Windows_Icon_1_"><path class="st0" d="M271.2 73.2v14.5c0 .4-.4.6-.7.6l-14.3-1.9c-.3 0-.6-.3-.6-.6V73.2c0-.4.3-.7.6-.7h14.4c.3.1.6.4.6.7zm-17.1 0v12.2c0 .4-.4.6-.7.6L240 84.3c-.3 0-.6-.3-.6-.6V73.2c0-.4.3-.6.7-.6h13.5c.2 0 .5.2.5.6zm0-14.7v11.9c0 .4-.3.6-.6.6H240c-.4 0-.7-.3-.7-.6V60.2c0-.3.3-.6.6-.6l13.5-1.7h.1c.3-.1.6.2.6.6zM270.6 71h-14.3c-.4 0-.7-.3-.7-.6V58.1c0-.3.2-.6.6-.6l14.3-1.9h.1c.4 0 .7.3.7.7v14.1c-.1.3-.4.6-.7.6z"/></g></g><g id="Total_1_"><circle cx="161.3" cy="194" r="83" style="fill-rule:evenodd;clip-rule:evenodd;fill:#fff"/><path d="M161.3 279.5c-47.1 0-85.5-38.4-85.5-85.5s38.4-85.5 85.5-85.5 85.5 38.4 85.5 85.5c0 47.2-38.4 85.5-85.5 85.5zm0-166c-44.4 0-80.5 36.1-80.5 80.5s36.1 80.5 80.5 80.5 80.5-36.1 80.5-80.5-36.2-80.5-80.5-80.5z" style="fill:#0068b3"/><g><path class="st1" d="m161.3 157.9-34.8 17.4 34.8 17.4 34.8-17.4-34.8-17.4zm0 43.4-52-26 52-26 52 26-52 26zm0 9.1 41.6-20.8 10.4 5.2-52 26-52-26 10.4-5.2 41.6 20.8zm-41.7-1.3 41.6 20.8 41.6-20.8 10.4 5.2-52 26-52-26 10.4-5.2z" id="XMLID_1_"/></g></g></g></svg>