<svg version="1.1" id="Layer_1" xmlns="http://www.w3.org/2000/svg" x="0" y="0" viewBox="0 0 410 320" style="enable-background:new 0 0 410 320" xml:space="preserve"><style>.st0{fill:#fff}</style><g id="Product_Family"><g id="Platforms"><g id="Windows"><path class="st0" d="M140.1 68.9h-3c-.8 0-1.5-.7-1.5-1.5s.7-1.5 1.5-1.5h3c.8 0 1.5.7 1.5 1.5s-.7 1.5-1.5 1.5zM128.3 68.9h-6.5c-.8 0-1.5-.7-1.5-1.5s.7-1.5 1.5-1.5h6.5c.8 0 1.5.7 1.5 1.5s-.6 1.5-1.5 1.5zm-15.2 0h-6.5c-.8 0-1.5-.7-1.5-1.5s.7-1.5 1.5-1.5h6.5c.8 0 1.5.7 1.5 1.5s-.7 1.5-1.5 1.5zM94.9 71.9c-.8 0-1.5-.7-1.5-1.5v-3c0-.8.7-1.5 1.5-1.5h3c.8 0 1.5.7 1.5 1.5s-.7 1.5-1.5 1.5h-1.5v1.5c0 .8-.7 1.5-1.5 1.5zM94.9 111.7c-.8 0-1.5-.7-1.5-1.5v-5.7c0-.8.7-1.5 1.5-1.5s1.5.7 1.5 1.5v5.7c0 .8-.7 1.5-1.5 1.5zm0-13.3c-.8 0-1.5-.7-1.5-1.5v-5.7c0-.8.7-1.5 1.5-1.5s1.5.7 1.5 1.5v5.7c0 .9-.7 1.5-1.5 1.5zm0-13.3c-.8 0-1.5-.7-1.5-1.5v-5.7c0-.8.7-1.5 1.5-1.5s1.5.7 1.5 1.5v5.7c0 .9-.7 1.5-1.5 1.5zM94.9 122.3c-.8 0-1.5-.7-1.5-1.5v-3c0-.8.7-1.5 1.5-1.5s1.5.7 1.5 1.5v3c0 .8-.7 1.5-1.5 1.5z"/><g><circle cx="154.5" cy="67.4" r="33" style="fill-rule:evenodd;clip-rule:evenodd;fill:#0068b3"/></g><g id="Windows_Icon"><path class="st0" d="M169.2 69.2v14.5c0 .4-.4.6-.7.6l-14.3-1.9c-.3 0-.6-.3-.6-.6V69.2c0-.4.3-.7.6-.7h14.4c.4.1.6.4.6.7zm-17.1 0v12.2c0 .4-.4.6-.7.6L138 80.3c-.3 0-.6-.3-.6-.6V69.2c0-.4.3-.6.7-.6h13.5c.2 0 .5.3.5.6zm0-14.7v11.9c0 .4-.3.6-.6.6H138c-.4 0-.7-.3-.7-.6V56.2c0-.3.3-.6.6-.6l13.5-1.7h.1c.3-.1.6.2.6.6zM168.6 67h-14.3c-.4 0-.7-.3-.7-.6V54.1c0-.3.2-.6.6-.6l14.3-1.9h.1c.4 0 .7.3.7.7v14.1c-.1.3-.3.6-.7.6z"/></g></g><g id="App_Mac"><path class="st0" d="M246.4 215h-6c-.8 0-1.5-.7-1.5-1.5s.7-1.5 1.5-1.5h6c.8 0 1.5.7 1.5 1.5s-.7 1.5-1.5 1.5zm-14 0h-5.8c-.8 0-1.5-.7-1.5-1.5s.7-1.5 1.5-1.5h5.8c.8 0 1.5.7 1.5 1.5s-.7 1.5-1.5 1.5zm18.2-3.8c-.8 0-1.5-.7-1.5-1.5v-6c0-.8.7-1.5 1.5-1.5s1.5.7 1.5 1.5v6c0 .8-.7 1.5-1.5 1.5zm0-14c-.8 0-1.5-.7-1.5-1.5v-6c0-.8.7-1.5 1.5-1.5s1.5.7 1.5 1.5v6c0 .8-.7 1.5-1.5 1.5zm0-14c-.8 0-1.5-.7-1.5-1.5v-6c0-.8.7-1.5 1.5-1.5s1.5.7 1.5 1.5v6c0 .8-.7 1.5-1.5 1.5zm50.7-11.3h-6c-.8 0-1.5-.7-1.5-1.5s.7-1.5 1.5-1.5h6c.8 0 1.5.7 1.5 1.5s-.7 1.5-1.5 1.5zm-14 0h-6c-.8 0-1.5-.7-1.5-1.5s.7-1.5 1.5-1.5h6c.8 0 1.5.7 1.5 1.5s-.7 1.5-1.5 1.5zm-14 0h-6c-.8 0-1.5-.7-1.5-1.5s.7-1.5 1.5-1.5h6c.8 0 1.5.7 1.5 1.5s-.7 1.5-1.5 1.5zm-14 0h-6c-.8 0-1.5-.7-1.5-1.5s.7-1.5 1.5-1.5h6c.8 0 1.5.7 1.5 1.5s-.7 1.5-1.5 1.5z"/><circle cx="310.6" cy="169.7" r="33" style="fill-rule:evenodd;clip-rule:evenodd"/><path class="st0" d="M321.6 168.9c.1 6.1 5.3 8.1 5.4 8.1 0 .1-.8 2.9-2.8 5.7-1.7 2.4-3.4 4.9-6.1 4.9-2.7 0-3.5-1.6-6.6-1.6-3.1 0-4 1.5-6.5 1.6-2.6.1-4.6-2.6-6.3-5.1-3.4-5-6.1-14-2.5-20.1 1.7-3 4.9-5 8.3-5 2.6 0 5 1.7 6.6 1.7s4.5-2.1 7.7-1.8c1.3.1 5 .5 7.3 4-.3.1-4.5 2.5-4.5 7.6m-5-14.9c1.4-1.7 2.3-4 2.1-6.4-2 .1-4.4 1.3-5.9 3-1.3 1.5-2.4 3.9-2.1 6.2 2.2.2 4.5-1.1 5.9-2.8" id="Apple_Icon"/></g><g id="Linux"><path class="st0" d="M205.1 128.8c-.8 0-1.5-.7-1.5-1.5v-1.7c0-.8.7-1.5 1.5-1.5s1.5.7 1.5 1.5v1.7c0 .8-.7 1.5-1.5 1.5zm0-9.7c-.8 0-1.5-.7-1.5-1.5v-4.1c0-.8.7-1.5 1.5-1.5h1.9c.8 0 1.5.7 1.5 1.5s-.7 1.5-1.5 1.5h-.4v2.6c0 .8-.7 1.5-1.5 1.5zM263 115h-6c-.8 0-1.5-.7-1.5-1.5s.7-1.5 1.5-1.5h6c.8 0 1.5.7 1.5 1.5s-.6 1.5-1.5 1.5zm-14 0h-6c-.8 0-1.5-.7-1.5-1.5s.7-1.5 1.5-1.5h6c.8 0 1.5.7 1.5 1.5s-.6 1.5-1.5 1.5zm-14 0h-6c-.8 0-1.5-.7-1.5-1.5s.7-1.5 1.5-1.5h6c.8 0 1.5.7 1.5 1.5s-.6 1.5-1.5 1.5zm-14 0h-6c-.8 0-1.5-.7-1.5-1.5s.7-1.5 1.5-1.5h6c.8 0 1.5.7 1.5 1.5s-.6 1.5-1.5 1.5zm49.3-.7c-.8 0-1.5-.7-1.5-1.5v-6c0-.8.7-1.5 1.5-1.5s1.5.7 1.5 1.5v6c0 .8-.7 1.5-1.5 1.5zm0-14c-.8 0-1.5-.7-1.5-1.5v-6c0-.8.7-1.5 1.5-1.5s1.5.7 1.5 1.5v6c0 .8-.7 1.5-1.5 1.5zm0-14c-.8 0-1.5-.7-1.5-1.5v-6c0-.8.7-1.5 1.5-1.5s1.5.7 1.5 1.5v6c0 .8-.7 1.5-1.5 1.5z"/><circle cx="269.7" cy="51.4" r="33" style="fill-rule:evenodd;clip-rule:evenodd;fill:#185886"/><g id="penguin_icon"><path class="st0" d="M279.7 36.7c.7.2 1.1.6 1.7 1 10.9 8.5 9.4 25.5-2.9 31.9-.4.2-.7.4-1.2.5-.2-.3 0-.6 0-.9.6-3.2.3-6.3-1.1-9.4-.5-1-.8-2-.8-3.1 0-2 1-3.3 2.7-4.1 1-.5 2.1-.7 3.3-.7 1.3 0 2.6-.1 3.8-.1.4 0 .9 0 1.2-.4-.1-.7-.6-.9-1.1-1.1-.9-.4-1.9-.8-2.8-1.1-1.8-.6-3.2-1.8-4.2-3.3-.7-1.1-1.5-2.2-2.5-3.1 0-.3 0-.6.3-.8 1.3-1.3 2.2-2.9 3.3-4.3.2-.4.4-.6.3-1zM263.7 53.5c2 1.8 4.3 3.3 6 5.3 2.6 3 4 6.5 3.7 10.5 0 .7-.1 1.5-.6 2.2-4.8.7-9.3-.1-13.3-2.7-3.5-2.3-6.1-5.3-7.5-9.4.2 0 .5-.1.7-.1 3.9-1.4 7.5-3.5 11-5.8z"/><path class="st0" d="M279.7 36.7c0 .4-.1.7-.3.9-1.1 1.4-2.1 3-3.3 4.3-.2.2-.3.5-.3.8-4.7-3.8-11.4-2.8-16 .9-3.4 2.7-6.1 6.1-8.4 9.8-.1.2-.2.5-.6.7-.2-1.8-.1-3.6.3-5.3 1.8-7.9 7.5-13.5 15.5-14.9 4.5-.8 8.7.1 12.7 2.3.2.2.3.3.4.5z"/><path class="st0" d="M263.7 53.5c-3.4 2.3-7 4.4-11 5.8-.2.1-.5.1-.7.1-.3-.4 0-.7.1-1 1.7-3.5 3.6-7 6.1-10 1.4-1.7 3-3.1 5.1-4 .5-.2 1-.6 1.6 0-.1.9-.9 1.4-1.4 2.1-.9 1.1-1.5 2.3-1.4 3.8.1 1.2.9 2.2 1.6 3.2zM271.9 46.2c0-1.1 2.9-1 2.9 0 0 1.1-2.9 1.1-2.9 0z"/></g></g></g><g id="Total"><circle cx="145.1" cy="194" r="83" style="fill-rule:evenodd;clip-rule:evenodd;fill:#fff"/><path d="M145.1 279.5c-47.1 0-85.5-38.4-85.5-85.5s38.4-85.5 85.5-85.5 85.5 38.4 85.5 85.5-38.3 85.5-85.5 85.5zm0-166c-44.4 0-80.5 36.1-80.5 80.5s36.1 80.5 80.5 80.5 80.5-36.1 80.5-80.5-36.1-80.5-80.5-80.5z" style="fill:#adadad"/><g><path d="m145.1 157.8-34.8 17.4 34.8 17.4 34.8-17.4-34.8-17.4zm0 43.4-52-26 52-26 52 26-52 26zm0 9.1 41.6-20.8 10.4 5.2-52 26-52-26 10.4-5.2 41.6 20.8zm-41.6-1.3 41.6 20.8 41.6-20.8 10.4 5.2-52 26-52-26 10.4-5.2z" style="fill-rule:evenodd;clip-rule:evenodd;fill:#adadad" id="XMLID_55_"/></g></g></g></svg>