<?xml version="1.0" encoding="utf-8"?>
<!-- Generator: Adobe Illustrator 25.2.0, SVG Export Plug-In . SVG Version: 6.00 Build 0)  -->
<svg version="1.1" id="Aspose.Video_1_" xmlns="http://www.w3.org/2000/svg" xmlns:xlink="http://www.w3.org/1999/xlink" x="0px"
	 y="0px" viewBox="0 0 277 277" style="enable-background:new 0 0 277 277;" xml:space="preserve">
<style type="text/css">
	.st0{fill:#FFFFFF;}
	.st1{fill-rule:evenodd;clip-rule:evenodd;fill:#A9C116;}
	.st2{fill:#A9C116;}
</style>
<g id="_x2E_NET_1_">
	<polygon class="st0" points="258.7,10.4 14.6,10.4 9.4,18.2 9.4,257.2 13.9,265.6 179.3,265.6 267.1,172.2 267.1,20.8 	"/>
	<g id="Text">
		<path class="st1" d="M87.5,179.9c0-25.8,9-47.7,27.1-65.8C132.6,96,154.5,87,180.4,87c25.5,0,47.4,9,65.6,27.1s27.3,40,27.3,65.8
			c0,25.6-9.1,47.5-27.3,65.6c-18.2,18.2-40.1,27.3-65.6,27.3c-25.9,0-47.8-9.1-65.8-27.3C96.5,227.4,87.5,205.6,87.5,179.9z"/>
		<path class="st1" d="M273.2,179.9h-10.9V23.1c0-4-1.4-6.7-4.3-8.1c-1-0.5-2.2-0.9-3.5-1.1l-1.6-0.2H23.5c-4.1,0-6.8,1.4-8.1,4.2
			c-0.8,1.6-1.2,3.3-1.3,5.2v229.5c0,4,1.4,6.7,4.2,8c1.6,0.8,3.3,1.3,5.1,1.4h152.1l4.8,10.9H20.1c-2.8,0-5.6-0.7-8.4-2.1
			c-5.6-2.8-8.4-7.8-8.4-14.8V19.7c0-2.8,0.7-5.6,2.2-8.4c2.8-5.6,7.7-8.4,14.7-8.4h236.2l2.6,0.3c2.1,0.3,4.1,0.9,5.8,1.9
			c5.6,2.8,8.4,7.7,8.4,14.7L273.2,179.9L273.2,179.9z"/>
		<g>
			<path class="st2" d="M79.2,39.9h7.1L65.7,97.1h-6.6L38.7,39.9h7l13.1,37c1.5,4.2,2.7,8.4,3.6,12.4c0.9-4.2,2.2-8.4,3.7-12.6
				L79.2,39.9z"/>
		</g>
	</g>
	<g id="shape">
		<g>
			<path class="st0" d="M180.7,129.2c28.3,0,51.3,23,51.3,51.3s-23,51.3-51.3,51.3s-51.3-23-51.3-51.3S152.4,129.2,180.7,129.2
				 M180.7,120.2c-33.3,0-60.3,27-60.3,60.3c0,33.3,27,60.3,60.3,60.3s60.3-27,60.3-60.3C241,147.1,214,120.2,180.7,120.2
				L180.7,120.2z"/>
		</g>
		<g>
			<polygon class="st0" points="171.1,154.3 171.1,208.4 206.7,180.5 			"/>
		</g>
	</g>
</g>
</svg>
