<?xml version="1.0" encoding="iso-8859-1"?>
<!-- Generator: Adobe Illustrator 16.0.0, SVG Export Plug-In . SVG Version: 6.00 Build 0)  -->
<!DOCTYPE svg PUBLIC "-//W3C//DTD SVG 1.1//EN" "http://www.w3.org/Graphics/SVG/1.1/DTD/svg11.dtd">
<svg version="1.1" id="Layer_1" xmlns="http://www.w3.org/2000/svg" xmlns:xlink="http://www.w3.org/1999/xlink" x="0px" y="0px"
	 width="512px" height="512px" viewBox="0 0 512 512" style="enable-background:new 0 0 512 512;" xml:space="preserve">
<g id="CAD">
	<g>
		<path style="fill:#3A8FC6;" d="M96.672,177.615l239.713,239.713H96.672V177.615 M60.672,90.703v362.625h362.625L60.672,90.703
			L60.672,90.703z"/>
	</g>
	<path style="fill:#3A8FC6;" d="M111.027,117.059c77.849-77.849,204.065-77.849,281.914,0s77.849,204.065,0,281.914"/>
	
		<line style="fill:none;stroke:#3A8FC6;stroke-width:18;stroke-linecap:round;stroke-linejoin:round;stroke-miterlimit:10;" x1="161.096" y1="363.084" x2="161.096" y2="414.082"/>
	
		<line style="fill:none;stroke:#3A8FC6;stroke-width:18;stroke-linecap:round;stroke-linejoin:round;stroke-miterlimit:10;" x1="241.096" y1="383.084" x2="241.096" y2="434.082"/>
	<g>
		
			<line style="fill:none;stroke:#FFFFFF;stroke-width:9;stroke-miterlimit:10;" x1="191.993" y1="155.242" x2="170.428" y2="176.672"/>
		
			<line style="fill:none;stroke:#FFFFFF;stroke-width:9;stroke-miterlimit:10;" x1="240.277" y1="171.277" x2="202.587" y2="208.833"/>
		
			<line style="fill:none;stroke:#FFFFFF;stroke-width:9;stroke-miterlimit:10;" x1="256.518" y1="221.201" x2="234.952" y2="242.632"/>
		
			<line style="fill:none;stroke:#FFFFFF;stroke-width:9;stroke-miterlimit:10;" x1="304.802" y1="237.237" x2="267.111" y2="274.791"/>
	</g>
	<g>
		
			<line style="fill:none;stroke:#FFFFFF;stroke-width:9;stroke-miterlimit:10;" x1="326.014" y1="288.759" x2="304.448" y2="310.189"/>
		
			<line style="fill:none;stroke:#FFFFFF;stroke-width:9;stroke-miterlimit:10;" x1="374.298" y1="304.795" x2="336.607" y2="342.35"/>
	</g>
</g>
<g>
</g>
<g>
</g>
<g>
</g>
<g>
</g>
<g>
</g>
<g>
</g>
</svg>
