<?xml version="1.0" encoding="iso-8859-1"?>
<!-- Generator: Adobe Illustrator 16.0.0, SVG Export Plug-In . SVG Version: 6.00 Build 0)  -->
<!DOCTYPE svg PUBLIC "-//W3C//DTD SVG 1.1//EN" "http://www.w3.org/Graphics/SVG/1.1/DTD/svg11.dtd">
<svg version="1.1" id="Layer_1" xmlns="http://www.w3.org/2000/svg" xmlns:xlink="http://www.w3.org/1999/xlink" x="0px" y="0px"
	 width="512px" height="512px" viewBox="0 0 512 512" style="enable-background:new 0 0 512 512;" xml:space="preserve">
<g>
	<g>
		<path style="fill:#3890C8;" d="M227.023,397.5h-33.472l-20.874-33.472L152.023,397.5h-32.739l35.522-54.785l-33.398-52.295h32.08
			l19.336,33.105l18.604-33.105h33.032l-33.911,54.565L227.023,397.5z"/>
		<path style="fill:#3890C8;" d="M239.035,397.5V290.42h28.931v83.716h41.235V397.5H239.035z"/>
		<path style="fill:#3890C8;" d="M396.359,364.98c0,6.641-1.685,12.537-5.054,17.688c-3.369,5.152-8.229,9.156-14.575,12.012
			c-6.348,2.857-13.795,4.285-22.339,4.285c-7.13,0-13.11-0.501-17.944-1.502c-4.834-1-9.863-2.746-15.088-5.236v-25.781
			c5.518,2.832,11.254,5.042,17.212,6.629c5.957,1.587,11.426,2.38,16.406,2.38c4.296,0,7.445-0.744,9.448-2.233
			c2.002-1.489,3.003-3.406,3.003-5.75c0-1.465-0.403-2.746-1.208-3.846c-0.807-1.098-2.101-2.208-3.883-3.332
			c-1.782-1.123-6.53-3.417-14.245-6.885c-6.983-3.174-12.22-6.25-15.71-9.229c-3.492-2.978-6.08-6.396-7.764-10.254
			c-1.686-3.856-2.527-8.423-2.527-13.696c0-9.862,3.589-17.553,10.767-23.071c7.178-5.518,17.04-8.276,29.59-8.276
			c11.084,0,22.387,2.563,33.911,7.69l-8.862,22.339c-10.01-4.589-18.652-6.885-25.928-6.885c-3.761,0-6.494,0.659-8.203,1.978
			c-1.71,1.318-2.563,2.955-2.563,4.907c0,2.1,1.086,3.98,3.26,5.64c2.172,1.66,8.067,4.688,17.688,9.082
			c9.229,4.15,15.637,8.605,19.227,13.367C394.564,351.76,396.359,357.755,396.359,364.98z"/>
		<path style="fill:#3890C8;" d="M509.372,397.5H475.9l-20.874-33.472L434.372,397.5h-32.739l35.522-54.785l-33.398-52.295h32.08
			l19.336,33.105l18.604-33.105h33.032l-33.911,54.565L509.372,397.5z"/>
	</g>
	<path style="fill:#3790C9;" d="M302.773,457H79.209c-13.319,0-24.218-10.897-24.218-24.218V79.217
		C54.991,65.898,65.89,55,79.209,55h223.564c13.32,0,24.218,10.898,24.218,24.217v108.758l52.804-34.129l0,0V79.217
		c0-42.469-34.552-77.021-77.021-77.021H79.209c-42.47,0-77.021,34.552-77.021,77.021v353.565c0,42.47,34.551,77.021,77.021,77.021
		h223.564c37.437,0,68.705-26.852,75.595-62.304h-56.402C317.528,453.265,310.568,457,302.773,457z"/>
	<g>
		<polyline style="fill:#3790C9;" points="201.991,90.5 172.991,90.5 172.991,106.5 117.991,106.5 117.991,135.5 203.241,135.5 
			256.991,135.5 256.991,106.5 201.991,106.5 201.991,90.5 172.991,90.5 		"/>
		<path style="fill:#3790C9;" d="M233.191,135.5c0,0-8.729,19.394-13.75,27.667c-6.713,11.062-12.223,17.853-12.223,17.853
			l18.057,18.313l-10.958,29.5L198.691,213.5l-10.748-11.709l-1.252,1.375L171.357,218.5l-24.165,23l-21.333-21.334l13-11.667
			l9.667-9.333l16.999-18l1.5-1.75c0,0-10.166-12.917-13.499-18.917c-3.334-6-8-14.333-9.334-17.667
			c-1.333-3.333-1.583-4.166-1.583-4.166l30.5-0.167l6.125,12.041l3.957,6.625l2.168,3.458l2.022,2.562c0,0,0,0,2.31-3.687
			c5.331-8.509,5.331-8.509,8.084-13.499c1.93-3.497,5.084-10.5,5.084-10.5H233.191"/>
	</g>
</g>
<g>
</g>
<g>
</g>
<g>
</g>
<g>
</g>
<g>
</g>
<g>
</g>
</svg>
