<?xml version="1.0" encoding="iso-8859-1"?>
<!-- Generator: Adobe Illustrator 16.0.0, SVG Export Plug-In . SVG Version: 6.00 Build 0)  -->
<!DOCTYPE svg PUBLIC "-//W3C//DTD SVG 1.1//EN" "http://www.w3.org/Graphics/SVG/1.1/DTD/svg11.dtd">
<svg version="1.1" id="Layer_1" xmlns="http://www.w3.org/2000/svg" xmlns:xlink="http://www.w3.org/1999/xlink" x="0px" y="0px"
	 width="512px" height="512px" viewBox="0 0 512 512" style="enable-background:new 0 0 512 512;" xml:space="preserve">
<g>
	<g>
		<path style="fill:#3890C8;" d="M202.875,343.154c0,16.441-4.526,29.109-13.578,38.004c-9.052,8.895-21.776,13.342-38.172,13.342
			h-31.872v-98.514h34.096c15.812,0,28.02,4.043,36.623,12.129C198.573,316.201,202.875,327.882,202.875,343.154z M175.248,344.098
			c0-9.029-1.786-15.723-5.357-20.08c-3.571-4.356-8.996-6.536-16.273-6.536h-7.749v55.187h5.93c8.086,0,14.016-2.347,17.789-7.041
			S175.248,353.757,175.248,344.098z"/>
		<path style="fill:#3890C8;" d="M312.709,345.108c0,16.576-4.066,29.177-12.196,37.802c-8.131,8.625-20.036,12.938-35.713,12.938
			c-15.454,0-27.302-4.335-35.544-13.005c-8.244-8.669-12.365-21.293-12.365-37.869c0-16.396,4.099-28.918,12.297-37.565
			c8.198-8.647,20.114-12.972,35.747-12.972c15.677,0,27.56,4.29,35.646,12.87C308.666,315.888,312.709,328.488,312.709,345.108z
			 M244.922,345.108c0,19.047,6.625,28.57,19.878,28.57c6.738,0,11.735-2.313,14.993-6.94c3.256-4.626,4.885-11.836,4.885-21.63
			c0-9.838-1.65-17.104-4.953-21.798c-3.301-4.694-8.231-7.042-14.79-7.042C251.593,316.269,244.922,325.882,244.922,345.108z"/>
		<path style="fill:#3890C8;" d="M374.364,316.403c-6.334,0-11.276,2.595-14.824,7.782c-3.549,5.189-5.323,12.343-5.323,21.462
			c0,18.958,7.21,28.436,21.63,28.436c4.356,0,8.58-0.606,12.668-1.819c4.087-1.213,8.197-2.672,12.331-4.38v22.506
			c-8.221,3.639-17.52,5.458-27.896,5.458c-14.869,0-26.269-4.313-34.197-12.938s-11.893-21.091-11.893-37.397
			c0-10.197,1.92-19.159,5.762-26.886c3.84-7.726,9.365-13.667,16.576-17.822c7.209-4.155,15.688-6.233,25.437-6.233
			c10.646,0,20.821,2.314,30.524,6.94l-8.153,20.956c-3.639-1.707-7.277-3.144-10.916-4.313
			C382.45,316.987,378.542,316.403,374.364,316.403z"/>
		<path style="fill:#3890C8;" d="M508.793,394.5h-30.794l-19.204-30.794L439.793,394.5h-30.12l32.681-50.402l-30.727-48.111h29.514
			l17.789,30.457l17.115-30.457h30.39l-31.198,50.2L508.793,394.5z"/>
	</g>
	<path style="fill:#3790C9;" d="M303.389,457H79.823c-13.319,0-24.217-10.897-24.217-24.218V79.217
		C55.606,65.898,66.504,55,79.823,55h223.565c13.32,0,24.218,10.898,24.218,24.217v108.758l52.804-34.129l0,0V79.217
		c0-42.469-34.552-77.021-77.021-77.021H79.823c-42.469,0-77.021,34.552-77.021,77.021v353.565c0,42.47,34.552,77.021,77.021,77.021
		h223.565c37.437,0,68.705-26.852,75.595-62.304h-56.402C318.144,453.265,311.184,457,303.389,457z"/>
	<g>
		<polyline style="fill:#3790C9;" points="202.606,90.5 173.606,90.5 173.606,106.5 118.606,106.5 118.606,135.5 203.856,135.5 
			257.606,135.5 257.606,106.5 202.606,106.5 202.606,90.5 173.606,90.5 		"/>
		<path style="fill:#3790C9;" d="M233.807,135.5c0,0-8.729,19.394-13.75,27.667c-6.713,11.062-12.223,17.853-12.223,17.853
			l18.057,18.313l-10.958,29.5L199.307,213.5l-10.748-11.709l-1.252,1.375L171.973,218.5l-24.165,23l-21.334-21.334l13-11.667
			l9.667-9.333l17-18l1.5-1.75c0,0-10.167-12.917-13.5-18.917s-8-14.333-9.333-17.667c-1.334-3.333-1.584-4.166-1.584-4.166
			l30.501-0.167l6.125,12.041l3.957,6.625l2.168,3.458l2.022,2.562c0,0,0,0,2.31-3.687c5.331-8.509,5.331-8.509,8.084-13.499
			c1.93-3.497,5.084-10.5,5.084-10.5H233.807"/>
	</g>
</g>
<g>
</g>
<g>
</g>
<g>
</g>
<g>
</g>
<g>
</g>
<g>
</g>
</svg>
