<?xml version="1.0" encoding="utf-8"?>
<!-- Generator: Adobe Illustrator 25.0.1, SVG Export Plug-In . SVG Version: 6.00 Build 0)  -->
<svg version="1.1" id="Layer_1" xmlns="http://www.w3.org/2000/svg" xmlns:xlink="http://www.w3.org/1999/xlink" x="0px" y="0px"
	 viewBox="0 0 512 512" style="enable-background:new 0 0 512 512;" xml:space="preserve">
<style type="text/css">
	.st0{fill:#3A8FC6;}
</style>
<g id="PDF_1_">
	<g>
		<path class="st0" d="M493.61,125.53H286.9c-6.81,0-12.39,5.58-12.39,12.39v134.87c0,6.81,5.58,12.39,12.39,12.39h206.71
			c6.81,0,12.39-5.58,12.39-12.39V137.92C506,131.11,500.42,125.53,493.61,125.53z M313.83,162.55c7.16,0,12.96,5.8,12.96,12.96
			c0,7.16-5.8,12.96-12.96,12.96c-7.16,0-12.96-5.8-12.96-12.96C300.88,168.35,306.68,162.55,313.83,162.55z M300.88,256.55
			l47.85-50.33l32.67,31.99l50.26-66.66l55.64,83.99L300.88,256.55z"/>
		<g id="Lines_2_">
			<path class="st0" d="M215.28,281.82H107.45c-13.64,0-24.8-11.16-24.8-24.8v-0.92c0-13.64,11.16-24.8,24.8-24.8h107.82
				c13.64,0,24.8,11.16,24.8,24.8v0.92C240.08,270.65,228.92,281.82,215.28,281.82z"/>
			
				<ellipse transform="matrix(0.7071 -0.7071 0.7071 0.7071 -172.2654 97.2197)" class="st0" cx="31.22" cy="256.55" rx="25.22" ry="25.22"/>
			<g>
				<path class="st0" d="M215.13,176.06H30.95C17.23,176.06,6,164.83,6,151.11v-0.63c0-13.72,11.23-24.95,24.95-24.95h184.18
					c13.72,0,24.95,11.23,24.95,24.95v0.63C240.08,164.83,228.85,176.06,215.13,176.06z"/>
			</g>
			<g>
				<path class="st0" d="M306.67,386.47H31.26C17.37,386.47,6,375.1,6,361.2l0,0c0-13.89,11.37-25.26,25.26-25.26h275.41
					c13.89,0,25.26,11.37,25.26,25.26l0,0C331.94,375.1,320.57,386.47,306.67,386.47z"/>
			</g>
		</g>
	</g>
	<path class="st0" d="M480.74,386.47h-86.41c-13.89,0-25.26-11.37-25.26-25.26l0,0c0-13.89,11.37-25.26,25.26-25.26h86.41
		c13.89,0,25.26,11.37,25.26,25.26l0,0C506,375.1,494.63,386.47,480.74,386.47z"/>
</g>
<g>
</g>
<g>
</g>
<g>
</g>
<g>
</g>
<g>
</g>
</svg>
