<svg width="534" height="506" viewBox="0 0 534 506" fill="none" xmlns="http://www.w3.org/2000/svg">
<path d="M141.582 412H176.973V366.528H200.995C234.527 366.528 255.475 346.652 255.475 316.267C255.475 286.167 234.956 265.576 202.068 265.576H141.582V412ZM176.973 338.645V294.103H194.418C210.29 294.103 218.798 302.682 218.798 316.267C218.798 329.779 210.29 338.645 194.418 338.645H176.973ZM327.043 412C371.657 412 399.326 384.474 399.326 338.716C399.326 293.03 371.657 265.576 326.972 265.576H272.92V412H327.043ZM308.311 381.829V295.747H325.184C350.351 295.747 363.864 307.187 363.864 338.716C363.864 370.389 350.351 381.829 325.685 381.829H308.311ZM419.988 412H455.379V353.159H513.577V324.346H455.379V294.317H519.94V265.576H419.988V412Z" fill="#3690C9"/>
<path d="M378 151L324 185V77C324 57 308 52.6667 300 53H76C60.8 53 54.3333 68.3333 53 76V432.5C53 446.9 67.3333 452.833 74.5 454H303.5C312.3 454 317.5 448.333 319 445.5H376C374.8 452.3 370.167 463.667 368 468.5C355.2 494.5 325 504.333 311.5 506H65C28.8928 506 9.76122 473.354 2.50503 450.566C0.507041 444.291 0 437.683 0 431.098V70.5C0 19.3 47 2.16667 70.5 0H309.5C349.626 0 369.34 35.9889 376.059 60.0436C377.616 65.6148 378 71.4085 378 77.1929V151Z" fill="#3690C9"/>
<path fill-rule="evenodd" clip-rule="evenodd" d="M194 97H170V112L116 112V141H201.48C201.075 141.818 200.681 142.632 200.285 143.453C197.415 149.392 194.383 155.668 185.541 165.992C179.599 159.722 174.67 154.187 172 150.5L169.5 147.5H141.5C148.792 156.694 159.132 169.689 169.565 182.725C159.19 192.764 144.931 205.463 124.997 222L143.998 243C159.607 229.698 173.431 215.66 185.217 202.216C196.128 215.746 205.267 226.926 208.5 230.5L225.5 205.5C219.472 199.822 210.537 191.244 201.581 182.346C215.095 164.845 224.354 149.842 228.662 141H249V112L194 112V97Z" fill="#3690C9"/>
</svg>
