<?xml version="1.0" encoding="iso-8859-1"?>
<!-- Generator: Adobe Illustrator 16.0.0, SVG Export Plug-In . SVG Version: 6.00 Build 0)  -->
<!DOCTYPE svg PUBLIC "-//W3C//DTD SVG 1.1//EN" "http://www.w3.org/Graphics/SVG/1.1/DTD/svg11.dtd">
<svg version="1.1" id="Layer_1" xmlns="http://www.w3.org/2000/svg" xmlns:xlink="http://www.w3.org/1999/xlink" x="0px" y="0px"
	 width="512px" height="512px" viewBox="0 0 512 512" style="enable-background:new 0 0 512 512;" xml:space="preserve">
<g id="Tasks">
	<path style="fill:#3A8FC6;" d="M342.323,130.82c0,24.013,19.466,43.479,43.477,43.479h56.901c24.011,0,43.477-19.466,43.477-43.479
		l0,0c0-24.011-19.466-43.476-43.477-43.476H385.8C361.789,87.345,342.323,106.81,342.323,130.82L342.323,130.82z"/>
	<path style="fill:#3A8FC6;" d="M253.05,256c0,24.011,19.464,43.476,43.475,43.476h146.176c24.011,0,43.477-19.465,43.477-43.476
		l0,0c0-24.011-19.466-43.477-43.477-43.477H296.525C272.515,212.523,253.05,231.989,253.05,256L253.05,256z"/>
	<path style="fill:#3A8FC6;" d="M25.822,381.18c0,24.009,19.464,43.476,43.474,43.476h373.405c24.011,0,43.477-19.467,43.477-43.476
		l0,0c0-24.013-19.466-43.479-43.477-43.479H69.296C45.287,337.701,25.822,357.167,25.822,381.18L25.822,381.18z"/>
	<g>
		<path style="fill:#3A8FC6;" d="M317.486,146.333L181.142,282.678l-25.606,25.615c-3.388,3.389-8.103,5.276-12.807,5.276
			c-4.706,0-9.421-1.888-12.808-5.276l-25.605-25.615l-68.172-68.172c-3.4-3.39-5.277-8.092-5.277-12.798
			c0-4.715,1.876-9.421,5.277-12.807l25.604-25.617c3.389-3.387,8.104-5.276,12.809-5.276c4.703,0,9.419,1.89,12.807,5.276
			l55.366,55.559L266.266,95.111c3.387-3.387,8.103-5.275,12.807-5.275c4.705,0,9.421,1.889,12.808,5.275l25.606,25.617
			c3.399,3.387,5.275,8.093,5.275,12.796C322.762,138.241,320.886,142.944,317.486,146.333z"/>
	</g>
</g>
<g>
</g>
<g>
</g>
<g>
</g>
<g>
</g>
<g>
</g>
<g>
</g>
</svg>
