<?xml version="1.0" encoding="utf-8"?>
<!-- Generator: Adobe Illustrator 25.2.0, SVG Export Plug-In . SVG Version: 6.00 Build 0)  -->
<svg version="1.1" id="Layer_1" xmlns="http://www.w3.org/2000/svg" xmlns:xlink="http://www.w3.org/1999/xlink" x="0px" y="0px"
	 viewBox="0 0 320 320" style="enable-background:new 0 0 320 320;" xml:space="preserve">
<style type="text/css">
	.st0{fill:none;stroke:#EFEFEF;stroke-linecap:round;stroke-linejoin:round;stroke-miterlimit:10;stroke-dasharray:4,8;}
	.st1{fill-rule:evenodd;clip-rule:evenodd;fill:#FFFFFF;}
	.st2{fill-rule:evenodd;clip-rule:evenodd;fill:#A4C547;}
	.st3{fill:#A4C547;}
	.st4{fill:none;stroke:#FFFFFF;stroke-width:6;stroke-linecap:round;stroke-linejoin:round;stroke-miterlimit:10;}
	.st5{fill:#FFFFFF;}
	.st6{fill:#9CC53E;}
	.st7{fill:#9CC53E;stroke:#FFFFFF;stroke-width:5;stroke-miterlimit:10;}
	.st8{fill:#EFEFEF;}
	.st9{fill:#DEDFDF;}
	.st10{fill:#4296D2;}
	.st11{fill:#0866AA;}
	.st12{fill:#2178BD;}
	.st13{fill:#4096D2;}
	.st14{display:none;fill:#FFFFFF;}
</style>
<circle class="st0" cx="154.2" cy="163.2" r="123.7"/>
<g id="_x2E_NET">
	<path id="XMLID_8_" class="st1" d="M228,153.7c-19.6,0-36.2,6.9-49.9,20.6c-13.8,13.6-20.6,30.2-20.6,49.8s6.9,36.1,20.6,49.7
		c5.1,5.1,10.5,9.3,16.4,12.5h-85.7c-1.4-0.1-2.7-0.5-4-1.2c-2.1-1-3.2-3-3.2-6V105.4c0.2-1.5,0.5-2.9,1-4c1.1-2.1,3.2-3.2,6.2-3.2
		h174.3l1.2,0.3c1,0.2,1.9,0.4,2.7,0.8c2.2,1,3.3,3.1,3.3,6.1v85.5c-3.2-5.9-7.4-11.4-12.6-16.5C263.9,160.6,247.3,153.7,228,153.7z
		"/>
	<g>
		<path id="XMLID_2_" class="st2" d="M228,153.7c19.3,0,35.9,6.9,49.8,20.6c5.2,5.1,9.3,10.6,12.6,16.5v-85.5c0-3.1-1.1-5.1-3.3-6.1
			c-0.8-0.3-1.7-0.6-2.7-0.8l-1.2-0.3H108.8c-3,0-5,1.1-6.2,3.2c-0.5,1.1-0.9,2.4-1,4v173.8c0,3,1.1,5,3.2,6c1.3,0.7,2.6,1.1,4,1.2
			h85.7c-5.9-3.2-11.4-7.4-16.4-12.5c-13.8-13.6-20.6-30.1-20.6-49.7s6.9-36.1,20.6-49.8C191.7,160.6,208.4,153.7,228,153.7z
			 M287.7,90.3c1.9,0.3,3.3,0.8,4.4,1.4c4.3,2,6.4,5.8,6.4,11.1v121.3c0,19.4-6.9,36-20.8,49.7c-13.8,13.8-30.4,20.7-49.8,20.7
			H106.2c-2.1,0-4.2-0.5-6.4-1.5c-4.3-2.2-6.4-6-6.4-11.3V102.8c0-2.1,0.6-4.3,1.7-6.4c2.1-4.3,5.8-6.4,11.2-6.4h179.5L287.7,90.3z"
			/>
		<g>
			<path class="st3" d="M144.8,129.5c0,4.6-1.5,8.2-4.6,10.6c-3,2.5-7.4,3.7-13,3.7h-4.6v16.6h-7.3V116h12.8c5.6,0,9.7,1.1,12.5,3.4
				C143.4,121.7,144.8,125,144.8,129.5z M122.7,137.7h3.9c3.7,0,6.5-0.6,8.2-1.9c1.7-1.3,2.6-3.3,2.6-6.1c0-2.5-0.8-4.4-2.3-5.7
				c-1.6-1.2-4-1.9-7.3-1.9h-5.1L122.7,137.7L122.7,137.7z"/>
			<path class="st3" d="M162.7,152.3c0,2.6-1,4.7-2.9,6.2c-1.9,1.5-4.6,2.3-7.9,2.3s-6.1-0.5-8.3-1.6v-4.6c1.4,0.6,2.8,1.1,4.3,1.5
				c1.5,0.4,3,0.6,4.3,0.6c1.9,0,3.4-0.4,4.3-1.1c0.9-0.7,1.4-1.7,1.4-2.9c0-1.1-0.4-2.1-1.3-2.8c-0.8-0.8-2.6-1.7-5.2-2.7
				c-2.7-1.1-4.6-2.4-5.8-3.8c-1.1-1.4-1.7-3.1-1.7-5.1c0-2.5,0.9-4.4,2.7-5.9c1.8-1.4,4.1-2.1,7.1-2.1c2.9,0,5.7,0.6,8.5,1.9
				l-1.5,4c-2.7-1.1-5-1.7-7.1-1.7c-1.6,0-2.8,0.3-3.6,1c-0.8,0.7-1.2,1.6-1.2,2.7c0,0.8,0.2,1.4,0.5,2c0.3,0.6,0.9,1.1,1.6,1.6
				c0.7,0.5,2.1,1.1,4,1.9c2.2,0.9,3.8,1.8,4.8,2.5c1,0.8,1.8,1.7,2.2,2.7C162.5,149.8,162.7,151,162.7,152.3z"/>
			<path class="st3" d="M188.6,145.2c0,4.9-1.4,8.7-4.1,11.3c-2.7,2.6-6.7,3.9-11.8,3.9h-8.3v-29.7h9.2c4.7,0,8.4,1.3,11.1,3.8
				C187.3,137,188.6,140.6,188.6,145.2z M183.4,145.4c0-7.1-3.3-10.7-10-10.7h-4.2v21.6h3.5C179.9,156.3,183.4,152.7,183.4,145.4z"
				/>
		</g>
	</g>
	<g>
		<rect x="189.3" y="199.1" class="st4" width="76.6" height="52.6"/>
		<polygon class="st5" points="198.4,251.1 211.3,236 223,246.3 238.3,220.1 256.2,250.9 		"/>
		<g>
			<polygon class="st6" points="236.3,188.4 222.2,205.3 239.6,206.1 250.7,185.6 			"/>
			<g>
				<path class="st5" d="M223,209.2c-2.8,0.3,27.2-32.5,29-34.1c1.8-1.6,3.4-3.4,0.6,3.2c-2.8,6.6-18.1,33.2-21.6,34
					C226.8,213.4,229.7,208.5,223,209.2z"/>
				<path class="st5" d="M223.8,212.6c-3.6-1.6-6.8-0.4-10.7,5.7c-3.8,6.1-4.3,6.1-6.4,7.4c-2.1,1.3-0.4,1.4,0.7,1.6
					c1.1,0.2,15.5,2,18.2-5.1C228.4,215.1,225.5,213.3,223.8,212.6z"/>
			</g>
		</g>
		<g>
			<rect x="182.7" y="191.4" class="st7" width="14" height="14"/>
			<rect x="182.7" y="242.6" class="st7" width="14" height="14"/>
			<rect x="258.6" y="191.4" class="st7" width="14" height="14"/>
			<rect x="258.6" y="242.6" class="st7" width="14" height="14"/>
		</g>
		<rect x="204.4" y="257.2" class="st5" width="46.5" height="4.2"/>
		<rect x="209.9" y="264.6" class="st5" width="35.5" height="4.4"/>
	</g>
</g>
<g>
	<path class="st8" d="M274.8,142c-19,0-34.5-15.5-34.5-34.5S255.8,73,274.8,73s34.5,15.5,34.5,34.5S293.9,142,274.8,142z"/>
	<path class="st9" d="M274.8,74.4c18.2,0,33,14.8,33,33s-14.8,33-33,33s-33-14.8-33-33S256.6,74.4,274.8,74.4 M274.8,71.4
		c-19.9,0-36,16.1-36,36s16.1,36,36,36s36-16.1,36-36S294.7,71.4,274.8,71.4L274.8,71.4z"/>
</g>
<g>
	<g>
		<polygon class="st10" points="212.9,47.1 231.2,48.2 229.8,65.2 222.6,70.2 215.4,66.7 		"/>
		<polygon class="st10" points="159.3,50.4 163.4,50.4 164.8,47.1 165.4,27.7 158.8,23.9 146.3,23.9 145.3,38.1 145.8,50 		"/>
		<polygon class="st10" points="51,191.1 44.9,185.6 28.7,185.3 27.2,187.1 27.2,208.7 50.5,209.1 		"/>
		<polygon class="st10" points="78.8,247.1 72.8,241.1 58.4,240.7 59,268 77.7,268 		"/>
	</g>
	<g>
		<g>
			<path class="st10" d="M38.2,132.6c0.4,0.7,1,1.1,1.8,1.2h6.2v1.9c0,0.3-0.1,0.6-0.3,0.8s-0.5,0.3-0.8,0.3H28.8
				c-0.3,0-0.6-0.1-0.8-0.3c-0.2-0.2-0.3-0.5-0.3-0.8v-22.6c0-0.3,0.1-0.6,0.3-0.8c0.2-0.2,0.5-0.3,0.8-0.3h9.7v6.6
				c0,0.3,0.1,0.6,0.3,0.8c0.2,0.2,0.5,0.3,0.8,0.3h6.6v2.3l-6.2,6.2v4c-0.2,0-0.3-0.1-0.4-0.3c-0.3-0.6-0.8-0.9-1.5-1.1
				c-0.7-0.1-1.3,0-1.7,0.4l-0.7-2c-0.2-0.6-0.6-0.8-1.1-0.8c-0.6,0-0.9,0.3-1.1,0.8l-0.9,2.6c-0.1,0.3-0.3,0.4-0.5,0.4h-0.6
				c-0.2,0-0.4,0.1-0.6,0.2c-0.1,0.1-0.2,0.3-0.2,0.6c0,0.2,0.1,0.4,0.2,0.6c0.1,0.1,0.3,0.2,0.6,0.2h0.6c0.5,0,0.9-0.1,1.2-0.4
				c0.4-0.3,0.6-0.6,0.8-1.1l0.5-1.5l0.8,2.4c0.1,0.3,0.3,0.5,0.7,0.5s0.6-0.1,0.7-0.4l0.4-0.7c0.1-0.2,0.3-0.3,0.5-0.3
				C38,132.3,38.1,132.4,38.2,132.6z M46.3,117.9v0.3h-6.2V112h0.3c0.3,0,0.6,0.1,0.8,0.3L46,117C46.2,117.3,46.3,117.6,46.3,117.9z
				 M55.3,120.1c0.2,0.3,0.3,0.6,0.3,0.9s-0.1,0.6-0.3,0.9l-1.4,1.4l-3.3-3.3l1.4-1.4c0.2-0.2,0.5-0.3,0.9-0.3
				c0.3,0,0.6,0.1,0.9,0.3L55.3,120.1z"/>
		</g>
		<g>
			<polygon class="st10" points="79.5,66.8 79.5,70.4 77.6,71 78.4,74.2 80.5,74.2 99.4,74.2 101.5,74.2 101.5,72.1 100.6,70.5 
				100.5,58.7 98.1,56.2 90.3,56.8 89.6,67.8 88.4,63.7 			"/>
			<polygon class="st10" points="91.3,47.9 88.2,47.9 88.2,50 72.1,50.7 70.4,47.4 68,47.4 66.4,51.5 67.9,51.5 68.3,62.8 
				67.4,63.7 66.4,67.1 65.8,69.2 70,67.9 72.2,67.1 87.9,68 87.6,70 91.3,69.1 91.3,65.4 89.5,65.4 90.3,56.8 96.6,56.8 97.3,57.9 
				102.1,59.5 101.5,57.4 101.5,55.3 99.8,54.6 94.7,55.9 89.1,55.5 92.1,52 			"/>
			<g>
				<path class="st8" d="M102.9,59.5h-0.8V70h0.8c0.5,0,0.8,0.3,0.8,0.8v4.7c0,0.5-0.3,0.8-0.8,0.8h-4.7c-0.5,0-0.8-0.3-0.8-0.8
					v-0.8H82.6v0.8c0,0.5-0.3,0.8-0.8,0.8h-4.7c-0.5,0-0.8-0.3-0.8-0.8v-4.7c0-0.5,0.3-0.8,0.8-0.8h0.8v-1.6h-5.8v0.8
					c0,0.5-0.3,0.8-0.8,0.8h-4.7c-0.5,0-0.8-0.3-0.8-0.8v-4.7c0-0.5,0.3-0.8,0.8-0.8h0.8V53.2h-0.8c-0.5,0-0.8-0.3-0.8-0.8v-4.7
					c0-0.5,0.3-0.8,0.8-0.8h4.7c0.5,0,0.8,0.3,0.8,0.8v0.8h14.7v-0.8c0-0.5,0.3-0.8,0.8-0.8h4.7c0.5,0,0.8,0.3,0.8,0.8v4.7
					c0,0.5-0.3,0.8-0.8,0.8h-0.8v1.6h5.8V54c0-0.5,0.3-0.8,0.8-0.8h4.7c0.5,0,0.8,0.3,0.8,0.8v4.7C103.6,59.2,103.4,59.5,102.9,59.5
					z M70,51.1V49h-2.1v2.1H70z M70,67.9v-2.1h-2.1v2.1H70z M72.1,65.2h14.7v-0.8c0-0.5,0.3-0.8,0.8-0.8h0.8V53.2h-0.8
					c-0.5,0-0.8-0.3-0.8-0.8v-0.8H72.1v0.8c0,0.5-0.3,0.8-0.8,0.8h-0.8v10.5h0.8c0.5,0,0.8,0.3,0.8,0.8V65.2z M80.5,74.2v-2.1h-2.1
					v2.1H80.5z M98.9,70V59.5h-0.8c-0.5,0-0.8-0.3-0.8-0.8v-0.8h-5.8v5.8h0.8c0.5,0,0.8,0.3,0.8,0.8v4.7c0,0.5-0.3,0.8-0.8,0.8h-4.7
					c-0.5,0-0.8-0.3-0.8-0.8v-0.8H81V70h0.8c0.5,0,0.8,0.3,0.8,0.8v0.8h14.7v-0.8c0-0.5,0.3-0.8,0.8-0.8H98.9z M88.9,49v2.1H91V49
					H88.9z M88.9,65.8v2.1H91v-2.1H88.9z M101.5,57.4v-2.1h-2.1v2.1H101.5z M101.5,74.2v-2.1h-2.1v2.1H101.5z"/>
			</g>
		</g>
		<g>
			<path class="st8" d="M210.8,45.1h22.5l-2.1,23.2l-9.2,3.1l-9.2-3.1L210.8,45.1z M228.8,52.6l0.3-2.8H215l0.7,8.5h9.8l-0.4,3.6
				l-3.1,0.8l-3.2-0.8l-0.2-2.2h-2.8l0.4,4.4l5.8,1.6h0.1l5.7-1.6l0.8-8.7h-10.3l-0.2-2.9L228.8,52.6L228.8,52.6z"/>
		</g>
		<g>
			<path class="st8" d="M165.4,27.7c0.6,0.5,0.8,1.2,0.8,2v19.5c0,0.8-0.3,1.4-0.8,2c-0.6,0.5-1.2,0.8-2,0.8h-16.9
				c-0.8,0-1.4-0.3-2-0.8s-0.8-1.2-0.8-2V24.8c0-0.8,0.3-1.4,0.8-2s1.2-0.8,2-0.8h11.9c0.8,0,1.4,0.3,2,0.8L165.4,27.7z M146.6,49.1
				h16.9V32.2h-6.1c-0.4,0-0.7-0.1-1-0.4c-0.3-0.3-0.4-0.6-0.4-1v-6.1h-9.4V49.1L146.6,49.1z M149.3,33.1c0.6-0.5,1.2-0.8,2-0.8
				s1.4,0.3,2,0.8s0.8,1.2,0.8,2s-0.3,1.5-0.8,2c-0.6,0.5-1.2,0.8-2,0.8s-1.4-0.3-2-0.8s-0.8-1.2-0.8-2S148.7,33.6,149.3,33.1z
				 M148.4,46.3v-3.8l2.3-2.3c0.3-0.3,0.6-0.3,0.9,0l2.3,2.3l5.2-5.2c0.3-0.3,0.6-0.3,0.9,0l1.4,1.4v7.5L148.4,46.3L148.4,46.3z
				 M163.2,29.4l-4.4-4.4v4.5C158.8,29.4,163.2,29.4,163.2,29.4z"/>
		</g>
		<g>
			<path class="st8" d="M47.5,115c0.5,0.6,0.8,1.2,0.8,2v19.4c0,0.8-0.3,1.4-0.8,2s-1.2,0.8-2,0.8H28.6c-0.8,0-1.5-0.3-2-0.8
				c-0.5-0.6-0.8-1.2-0.8-2V112c0-0.8,0.3-1.4,0.8-2s1.2-0.8,2-0.8h12c0.8,0,1.4,0.3,2,0.8L47.5,115z M28.6,136.5h16.9v-16.9h-6.1
				c-0.4,0-0.7-0.1-1-0.4s-0.4-0.6-0.4-1v-6.1h-9.4V136.5z M45.3,116.8l-4.5-4.4v4.4H45.3z"/>
			<polygon class="st10" points="41.6,128.8 49.6,120.9 52.9,124.2 45,132.2 41.6,132.2 			"/>
		</g>
		<g>
			<path class="st8" d="M51.2,190.1c0.5,0.6,0.8,1.2,0.8,2v15.7c0,0.8-0.3,1.4-0.8,2s-1.2,0.8-2,0.8H28.6c-0.8,0-1.5-0.3-2-0.8
				c-0.5-0.6-0.8-1.2-0.8-2v-20.6c0-0.8,0.3-1.4,0.8-2s1.2-0.8,2-0.8h15.7c0.8,0,1.4,0.3,2,0.8L51.2,190.1z M48.9,207.8
				c0.2,0,0.3-0.1,0.3-0.4v-15.2c0-0.1,0-0.2-0.1-0.2l-4.6-4.6v5.9c0,0.4-0.1,0.7-0.4,1c-0.3,0.3-0.6,0.4-1,0.4H32.8
				c-0.4,0-0.7-0.1-1-0.4c-0.3-0.3-0.4-0.6-0.4-1v-6.1H29c-0.2,0-0.4,0.1-0.4,0.4v19.9c0,0.2,0.1,0.4,0.4,0.4L48.9,207.8L48.9,207.8
				z M35.3,197.6c1-1,2.2-1.5,3.6-1.5s2.6,0.5,3.6,1.5s1.5,2.2,1.5,3.6s-0.5,2.6-1.5,3.6s-2.2,1.5-3.6,1.5s-2.6-0.5-3.6-1.5
				s-1.5-2.2-1.5-3.6S34.3,198.6,35.3,197.6z M41.8,187.1h-7.5v4.7h7.5V187.1z M37.3,202.9c0.5,0.4,1,0.7,1.7,0.7s1.2-0.2,1.7-0.7
				c0.5-0.4,0.7-1,0.7-1.7s-0.2-1.2-0.7-1.7c-0.5-0.4-1-0.7-1.7-0.7s-1.2,0.2-1.7,0.7c-0.5,0.4-0.7,1-0.7,1.7S36.8,202.4,37.3,202.9
				z"/>
		</g>
		<g>
			<path class="st8" d="M79.3,245.6c0.6,0.6,0.8,1.2,0.8,2V267c0,0.8-0.3,1.4-0.8,2s-1.2,0.8-2,0.8H60.4c-0.8,0-1.5-0.3-2-0.8
				s-0.8-1.2-0.8-2v-24.4c0-0.8,0.3-1.4,0.8-2s1.2-0.8,2-0.8h12c0.8,0,1.4,0.3,2,0.8L79.3,245.6z M77.3,267v-16.9h-6.1
				c-0.4,0-0.7-0.1-1-0.4c-0.3-0.3-0.4-0.6-0.4-1v-6.1h-9.4V267H77.3z M66.4,260.3c0.2,0.2,0.2,0.5,0,0.8l-1,1
				c-0.1,0.1-0.2,0.2-0.4,0.2c-0.1,0-0.2-0.1-0.3-0.2l-3.3-3.2c-0.3-0.2-0.3-0.5,0-0.7l3.3-3.2c0.3-0.3,0.5-0.3,0.8,0l1,1v0.1
				c0.2,0.2,0.2,0.5,0,0.7l-1.9,1.7L66.4,260.3z M69.9,252.4l1.4,0.4c0.3,0.1,0.5,0.3,0.3,0.6l-3.2,11c-0.1,0.4-0.3,0.5-0.6,0.4
				l-1.4-0.4c-0.3-0.1-0.5-0.3-0.3-0.6l3.2-11C69.4,252.4,69.6,252.3,69.9,252.4z M71.3,256.9c-0.2-0.2-0.2-0.5,0-0.8l1-1.1
				c0.2-0.3,0.5-0.3,0.8,0l3.3,3.2c0.3,0.2,0.3,0.5,0,0.7l-3.3,3.2c-0.3,0.3-0.5,0.3-0.8,0l-1-1V261c-0.2-0.2-0.2-0.5,0-0.7l1.9-1.7
				L71.3,256.9z M72.6,242.9v4.4H77L72.6,242.9z"/>
		</g>
	</g>
</g>
<g>
	<path class="st11" d="M290.9,92.2l-7.3-3.5c-0.8-0.4-1.9-0.2-2.5,0.4l-23.9,21.8c-0.6,0.6-0.6,1.6,0,2.2l2,1.8
		c0.5,0.5,1.3,0.5,1.9,0.1l28.8-21.8c1-0.7,2.4,0,2.4,1.2v-0.1C292.1,93.4,291.7,92.6,290.9,92.2z"/>
	<g>
		<path class="st12" d="M290.9,120l-7.3,3.5c-0.8,0.4-1.9,0.2-2.5-0.4l-23.9-21.8c-0.6-0.6-0.6-1.6,0-2.2l2-1.8
			c0.5-0.5,1.3-0.5,1.9-0.1l28.8,21.8c1,0.7,2.4,0,2.4-1.2v0.1C292.1,118.9,291.7,119.6,290.9,120z"/>
	</g>
	<g>
		<path class="st13" d="M283.6,123.5c-0.8,0.4-1.9,0.2-2.5-0.4c0.8,0.8,2.2,0.2,2.2-0.9V90.1c0-1.2-1.4-1.7-2.2-0.9
			c0.7-0.7,1.7-0.8,2.5-0.4l7.3,3.5c0.8,0.4,1.2,1.1,1.2,2V118c0,0.8-0.5,1.6-1.2,2L283.6,123.5z"/>
	</g>
</g>
<g>
	<g>
		<g>
			<circle class="st14" cx="923.5" cy="-48.5" r="8.1"/>
		</g>
	</g>
</g>
</svg>
