<?xml version="1.0" encoding="utf-8"?>
<!-- Generator: Adobe Illustrator 25.2.0, SVG Export Plug-In . SVG Version: 6.00 Build 0)  -->
<svg version="1.1" id="Aspose.PUB" xmlns="http://www.w3.org/2000/svg" xmlns:xlink="http://www.w3.org/1999/xlink" x="0px" y="0px"
	 viewBox="0 0 277 277" style="enable-background:new 0 0 277 277;" xml:space="preserve">
<style type="text/css">
	.st0{fill:#FFFFFF;}
	.st1{fill:#A5C547;}
	.st2{fill-rule:evenodd;clip-rule:evenodd;fill:#A5C547;}
</style>
<g id="_x2E_NET_3_">
	<g id="Aspose.PUB_Theme_2_">
		<g>
			<polygon class="st0" points="267.47,14.57 267.47,178.88 146.01,267.39 20.17,267.39 7.48,255.68 7.48,17.01 18.21,8.71 
				258.69,8.71 			"/>
			<g>
				<path class="st1" d="M66.5,54.97c0,5.85-1.92,10.33-5.74,13.45S51.48,73.1,44.4,73.1h-5.82v20.96h-9.15V38.04h16.12
					c7,0,12.24,1.43,15.72,4.29C64.76,45.19,66.5,49.4,66.5,54.97z M38.58,65.4h4.86c4.7,0,8.14-0.82,10.34-2.45
					s3.29-4.19,3.29-7.66c0-3.22-0.98-5.62-2.95-7.2c-1.97-1.58-5.03-2.38-9.19-2.38h-6.36V65.4z"/>
				<path class="st1" d="M96.28,61.38v21.14c0,2.41-0.52,4.53-1.55,6.34c-1.04,1.81-2.53,3.2-4.49,4.18
					c-1.96,0.98-4.3,1.46-7.02,1.46c-4.05,0-7.2-1.07-9.45-3.22c-2.25-2.15-3.37-5.1-3.37-8.85V61.38h5.36v20.67
					c0,2.7,0.63,4.69,1.88,5.97c1.25,1.28,3.17,1.92,5.76,1.92c5.03,0,7.55-2.64,7.55-7.93V61.38H96.28z"/>
				<path class="st1" d="M102.35,61.38h9.69c4.5,0,7.75,0.66,9.75,1.97c2,1.31,3,3.38,3,6.21c0,1.91-0.49,3.49-1.47,4.76
					s-2.4,2.06-4.24,2.39v0.22c2.29,0.43,3.98,1.29,5.06,2.56c1.08,1.27,1.62,3,1.62,5.17c0,2.94-1.02,5.23-3.07,6.9
					c-2.05,1.66-4.9,2.49-8.54,2.49h-11.79V61.38z M107.69,74.88h5.14c2.23,0,3.86-0.35,4.89-1.06c1.03-0.71,1.54-1.91,1.54-3.61
					c0-1.53-0.55-2.64-1.66-3.33s-2.87-1.03-5.28-1.03h-4.62V74.88z M107.69,79.22v10.35h5.67c2.23,0,3.92-0.43,5.06-1.29
					c1.14-0.86,1.71-2.21,1.71-4.06c0-1.7-0.58-2.96-1.74-3.78c-1.16-0.82-2.93-1.23-5.29-1.23H107.69z"/>
			</g>
			<path class="st2" d="M264.88,5.49c-1.76-0.93-3.68-1.56-5.81-1.88l-2.62-0.27H20.2c-7.01,0-11.91,2.82-14.73,8.44
				c-1.45,2.81-2.15,5.63-2.15,8.44v236.24c0,7.07,2.81,12,8.42,14.82c2.82,1.38,5.63,2.06,8.46,2.06h160.27v0l0,0
				c25.5,0,47.35-9.11,65.56-27.32c18.19-18.09,27.29-39.95,27.3-65.61l0,0V20.22C273.33,13.23,270.51,8.31,264.88,5.49z
				 M246.03,114.62c-18.21-18.08-40.06-27.14-65.56-27.14c-25.89,0-47.8,9.05-65.77,27.14c-18.07,18.09-27.12,40.02-27.12,65.78
				c0,25.67,9.05,47.53,27.12,65.62c6.63,6.72,13.8,12.19,21.5,16.44H23.56c-1.8-0.12-3.52-0.6-5.15-1.42
				c-2.81-1.3-4.23-3.95-4.23-7.97V23.61c0.07-1.82,0.52-3.54,1.32-5.17c1.32-2.81,4-4.21,8.06-4.21h229.51l1.6,0.18
				c1.31,0.26,2.45,0.62,3.48,1.13c2.86,1.37,4.31,4.06,4.31,8.07v112.61C258.22,128.5,252.74,121.3,246.03,114.62z"/>
		</g>
	</g>
	<g id="Shape">
		<g>
			<g>
				<path class="st0" d="M223.2,223.51h-81.7c-4.07,0-4.66-2.57-4.73-3.68c-0.02-0.38-0.11-3.69,3.94-4.18
					c3.54-0.43,5.14-0.99,5.82-1.32v-71.82c0-2.15,1.75-3.9,3.9-3.9h80.47c2.15,0,3.9,1.75,3.9,3.9v69.4
					C234.79,218.31,229.59,223.51,223.2,223.51z M154.31,215.71h68.89c2.09,0,3.79-1.7,3.79-3.8v-65.51h-72.67v68.85
					C154.32,215.41,154.32,215.56,154.31,215.71z"/>
			</g>
			<g>
				<path class="st0" d="M139.35,223.4c-8.19,0-14.85-6.66-14.85-14.85v-57.07c0-2.15,1.75-3.9,3.9-3.9h21.89
					c2.15,0,3.9,1.75,3.9,3.9v57.07C154.2,216.74,147.54,223.4,139.35,223.4z M132.3,155.38v53.17c0,3.89,3.16,7.05,7.05,7.05
					c3.89,0,7.05-3.16,7.05-7.05v-53.17H132.3z"/>
			</g>
		</g>
		<g>
			<g>
				<rect x="190.41" y="176.28" class="st0" width="25.85" height="21.24"/>
			</g>
			<g>
				<path class="st0" d="M212.4,171.32h-43.92c-2.12,0-3.86-1.74-3.86-3.86v0c0-2.12,1.74-3.86,3.86-3.86h43.92
					c2.12,0,3.86,1.74,3.86,3.86v0C216.26,169.58,214.53,171.32,212.4,171.32z"/>
			</g>
			<g>
				<path class="st0" d="M182.02,176.08h-13.54c-2.12,0-3.86,1.74-3.86,3.86l0,0c0,2.12,1.74,3.86,3.86,3.86h13.54
					c2.12,0,3.86-1.74,3.86-3.86l0,0C185.88,177.81,184.14,176.08,182.02,176.08z"/>
			</g>
			<g>
				<path class="st0" d="M182.02,189.67h-13.54c-2.12,0-3.86,1.74-3.86,3.86v0c0,2.12,1.74,3.86,3.86,3.86h13.54
					c2.12,0,3.86-1.74,3.86-3.86v0C185.88,191.41,184.14,189.67,182.02,189.67z"/>
			</g>
		</g>
	</g>
</g>
<g>
</g>
<g>
</g>
<g>
</g>
<g>
</g>
<g>
</g>
<g>
</g>
</svg>
