<?xml version="1.0" encoding="utf-8"?>
<!-- Generator: Adobe Illustrator 25.2.0, SVG Export Plug-In . SVG Version: 6.00 Build 0)  -->
<svg version="1.1" id="ASPOSE.NOTE" xmlns="http://www.w3.org/2000/svg" xmlns:xlink="http://www.w3.org/1999/xlink" x="0px"
	 y="0px" viewBox="0 0 277 277" style="enable-background:new 0 0 277 277;" xml:space="preserve">
<style type="text/css">
	.st0{fill-rule:evenodd;clip-rule:evenodd;fill:#FFFFFF;}
	.st1{fill-rule:evenodd;clip-rule:evenodd;fill:#DE4543;}
	.st2{fill:#DE4543;}
</style>
<g id="JAVA">
	<path id="XMLID_5_" class="st0" d="M180.46,87.48c-25.78,0-47.67,9.07-65.69,27.2c-18.12,18.02-27.18,39.93-27.18,65.72
		s9.06,47.65,27.18,65.56c6.65,6.78,13.85,12.3,21.61,16.56H23.59c-1.8-0.11-3.55-0.62-5.23-1.52c-2.81-1.35-4.22-4-4.22-7.94V23.62
		c0.22-2.03,0.67-3.77,1.35-5.24c1.46-2.82,4.17-4.22,8.1-4.22h229.47l1.52,0.34c1.35,0.23,2.53,0.56,3.55,1.01
		c2.93,1.35,4.39,4.05,4.39,8.11v112.87c-4.26-7.79-9.77-15.06-16.55-21.79C227.74,96.55,205.9,87.48,180.46,87.48z"/>
	<g>
		<path id="XMLID_1_" class="st1" d="M180.46,87.48c25.44,0,47.28,9.07,65.51,27.2c6.78,6.74,12.29,14,16.55,21.79V23.62
			c0-4.06-1.46-6.76-4.39-8.11c-1.01-0.45-2.2-0.79-3.55-1.01l-1.52-0.34H23.59c-3.94,0-6.64,1.41-8.1,4.22
			c-0.68,1.46-1.13,3.21-1.35,5.24v229.45c0,3.94,1.41,6.59,4.22,7.94c1.69,0.9,3.43,1.41,5.23,1.52h112.79
			c-7.76-4.26-14.96-9.78-21.61-16.56c-18.12-17.91-27.18-39.76-27.18-65.56s9.06-47.7,27.18-65.72
			C132.78,96.55,154.68,87.48,180.46,87.48z M259.14,3.68c2.48,0.45,4.39,1.07,5.74,1.86c5.63,2.7,8.44,7.6,8.44,14.7v160.18
			c0,25.68-9.12,47.54-27.36,65.56c-18.23,18.25-40.07,27.37-65.51,27.37H20.21c-2.7,0-5.52-0.67-8.44-2.03
			c-5.63-2.93-8.44-7.88-8.44-14.87V20.24c0-2.82,0.73-5.63,2.19-8.45c2.7-5.63,7.6-8.45,14.69-8.45h236.23L259.14,3.68z"/>
		<g>
			<path class="st1" d="M215.95,130.95c0,33.02,0,65.31,0,97.87c-1.71,0.11-3.13,0.28-4.55,0.28c-24.34,0.02-48.68,0.02-73.02,0
				c-6.84,0-7.61-0.79-7.61-7.5c-0.01-27.75-0.01-55.5,0-83.25c0-6.49,0.87-7.39,7.22-7.4c24.34-0.02,48.68-0.01,73.02-0.01
				C212.46,130.95,213.9,130.95,215.95,130.95z M202.09,165.02c-19.24,0-38.26,0-57.5,0c0.05,1.17,0.1,2.06,0.15,3.16
				c19.15,0,38.03,0,57.19,0C201.98,167.09,202.03,166.2,202.09,165.02z"/>
			<path class="st1" d="M219.65,188.28c3.4,0,6.1,0,8.76,0c0.59,13.86,0.56,15.18-8.76,15.03c0-2.45,0-4.99,0-7.53
				C219.65,193.38,219.65,190.99,219.65,188.28z"/>
			<path class="st1" d="M219.83,152.67c0-5.16,0-9.95,0-15.03c2.97,0,5.76,0,8.54,0C228.34,149.99,229,152.18,219.83,152.67z"/>
			<path class="st1" d="M220.03,162.81c2.95,0,5.52,0,8.05,0c0.3,12.49,0.93,14.72-8.05,15.15
				C220.03,172.93,220.03,167.88,220.03,162.81z"/>
		</g>
		<g>
			<path class="st2" d="M85.03,96.27H73.3L44.51,49.62h-0.32l0.2,2.6c0.37,4.96,0.56,9.5,0.56,13.61v30.43h-8.69V37.73h11.61
				l28.71,46.41h0.24c-0.05-0.61-0.16-2.85-0.32-6.71c-0.16-3.86-0.24-6.87-0.24-9.03V37.73h8.77V96.27z"/>
		</g>
	</g>
	<g>
		<g>
			<rect x="144.59" y="165.02" class="st0" width="57.34" height="3.16"/>
			<rect x="144.59" y="177.73" class="st0" width="57.34" height="3.16"/>
			<rect x="144.59" y="190.41" class="st0" width="57.34" height="3.16"/>
			<rect x="144.78" y="203.2" class="st0" width="57.34" height="3.16"/>
			<rect x="144.59" y="152.13" class="st0" width="57.34" height="3.16"/>
			<path class="st0" d="M219.8,127.66c0.14,1.96,0.04,3.74,0.19,5.76c3.96,0,7.79,0,12.26,0c0,5.85,0.42,11.32-0.15,16.69
				c-0.39,3.68-3.38,5.75-7.2,6.13c-1.67,0.16-3.34,0.29-5,0.44c-0.05,0.65,0.07,2.3,0.02,2.95c4.5,0.09,8.08-0.29,12.51,0.09
				c0,4.52,0.06,8.9-0.02,13.27c-0.1,5.65-2.3,7.76-8.28,8.68c-1.45,0.1-2.89,0.3-4.33,0.46c0.01,0.76,0.25,3.15,0.23,3.86
				c7.43-0.61,0,0,12.36-1.1c0,5.23,0.27,10.24-0.08,15.2c0.17,4.87-3.68,7.67-12.55,7.55c0,4.06,0,8.19,0,12.32
				c0,4.03,0,8.07,0,12.5c-1.94,0.09-3.51,0.24-5.08,0.24c-25.5,0.01-51,0.02-76.5,0.01c-8.28,0-10.89-2.56-10.89-10.69
				c-0.02-28.26-0.02-56.52,0-84.78c0-6.46,2.76-9.75,8.78-9.77c27.29-0.1,54.57-0.03,81.86-0.01
				C218.39,127.5,219.3,127.57,219.8,127.66z M216.04,130.96c-2.06,0-3.5,0-4.94,0c-24.34,0-48.68-0.01-73.02,0.01
				c-6.35,0-7.22,0.91-7.22,7.4c-0.01,27.75-0.01,55.5,0,83.25c0,6.72,0.77,7.5,7.61,7.5c24.34,0.02,48.68,0.01,73.02,0
				c1.42,0,2.84-0.17,4.55-0.28C216.04,196.27,216.04,163.98,216.04,130.96z M219.74,188.28c0,2.71,0,5.1,0,7.5
				c0,2.54,0,5.08,0,7.53c9.29,1.32,10.3-1.35,8.76-15.03C225.84,188.28,223.15,188.28,219.74,188.28z M219.92,152.67
				c9.03,0.57,10.82-2.69,8.54-15.03c-2.78,0-5.57,0-8.54,0C219.92,142.72,219.92,147.51,219.92,152.67z M220.12,162.81
				c0,5.07,0,10.12,0,15.15c8.79,0.75,11.33-4.1,8.05-15.15C225.63,162.81,223.06,162.81,220.12,162.81z"/>
		</g>
	</g>
</g>
</svg>
