<?xml version="1.0" encoding="utf-8"?>
<!-- Generator: Adobe Illustrator 25.2.0, SVG Export Plug-In . SVG Version: 6.00 Build 0)  -->
<svg version="1.1" id="Aspose.GIS" xmlns="http://www.w3.org/2000/svg" xmlns:xlink="http://www.w3.org/1999/xlink" x="0px" y="0px"
	 viewBox="0 0 277 277" style="enable-background:new 0 0 277 277;" xml:space="preserve">
<style type="text/css">
	.st0{fill-rule:evenodd;clip-rule:evenodd;fill:#FFFFFF;}
	.st1{fill-rule:evenodd;clip-rule:evenodd;fill:#A4C547;}
	.st2{fill:#A4C547;}
	.st3{opacity:0.7;fill:#FFFFFF;}
	.st4{fill:#A5C547;}
	.st5{fill:#FFFFFF;}
</style>
<g id="_x2E_NET">
	<path id="XMLID_8_" class="st0" d="M180.46,87.48c-25.78,0-47.67,9.07-65.69,27.2c-18.12,18.02-27.18,39.93-27.18,65.72
		s9.06,47.65,27.18,65.56c6.65,6.78,13.85,12.3,21.61,16.56H23.59c-1.8-0.11-3.55-0.62-5.23-1.52c-2.81-1.35-4.22-4-4.22-7.94V23.62
		c0.22-2.03,0.67-3.77,1.35-5.24c1.46-2.82,4.17-4.22,8.1-4.22h229.47l1.52,0.34c1.35,0.23,2.53,0.56,3.55,1.01
		c2.93,1.35,4.39,4.05,4.39,8.11v112.87c-4.26-7.79-9.77-15.06-16.55-21.79C227.74,96.55,205.9,87.48,180.46,87.48z"/>
	<path id="XMLID_2_" class="st1" d="M180.46,87.48c25.44,0,47.28,9.07,65.51,27.2c6.78,6.74,12.29,14,16.55,21.79V23.62
		c0-4.06-1.46-6.76-4.39-8.11c-1.01-0.45-2.2-0.79-3.55-1.01l-1.52-0.34H23.59c-3.94,0-6.64,1.41-8.1,4.22
		c-0.68,1.46-1.13,3.21-1.35,5.24v229.45c0,3.94,1.41,6.59,4.22,7.94c1.69,0.9,3.43,1.41,5.23,1.52h112.79
		c-7.76-4.26-14.96-9.78-21.61-16.56c-18.12-17.91-27.18-39.76-27.18-65.56s9.06-47.7,27.18-65.72
		C132.78,96.55,154.68,87.48,180.46,87.48z M259.14,3.68c2.48,0.45,4.39,1.07,5.74,1.86c5.63,2.7,8.44,7.6,8.44,14.7v160.18
		c0,25.68-9.12,47.54-27.36,65.56c-18.23,18.25-40.07,27.37-65.51,27.37H20.21c-2.7,0-5.52-0.67-8.44-2.03
		c-5.63-2.93-8.44-7.88-8.44-14.87V20.24c0-2.82,0.73-5.63,2.19-8.45c2.7-5.63,7.6-8.45,14.69-8.45h236.23L259.14,3.68z"/>
	<g>
		<path class="st2" d="M60.21,64.52h21.54v29.39c-3.52,1.15-6.91,1.96-10.15,2.44c-3.24,0.48-6.75,0.72-10.51,0.72
			c-8.86,0-15.7-2.62-20.5-7.87S33.38,76.56,33.38,67c0-9.42,2.71-16.8,8.13-22.12c5.42-5.33,12.88-7.99,22.38-7.99
			c6.11,0,11.9,1.17,17.38,3.52l-3.36,7.97c-4.75-2.19-9.5-3.28-14.25-3.28c-6.25,0-11.18,1.96-14.81,5.89
			c-3.63,3.92-5.45,9.29-5.45,16.1c0,7.15,1.63,12.59,4.91,16.32c3.27,3.72,7.97,5.59,14.11,5.59c3.1,0,6.41-0.39,9.93-1.16V72.73
			H60.21V64.52z"/>
	</g>
	<g>
		<polygon class="st3" points="244.4,181.27 182.41,206.07 120.41,181.27 182.41,156.47 		"/>
		<polygon class="st3" points="244.4,191.07 182.41,215.87 120.41,191.07 182.41,166.27 		"/>
		<polygon class="st3" points="244.4,201.07 182.41,225.87 120.41,201.07 182.41,176.27 		"/>
		<g>
			<path class="st4" d="M182.41,124.61c-10.16,0-18.39,8.23-18.39,18.39c0,10.16,18.72,36.44,18.72,36.44S200.8,153.16,200.8,143
				C200.8,132.84,192.56,124.61,182.41,124.61z M182.81,152.03c-5.77,0-10.45-4.68-10.45-10.45c0-5.77,4.68-10.45,10.45-10.45
				c5.77,0,10.45,4.68,10.45,10.45C193.26,147.35,188.58,152.03,182.81,152.03z"/>
			<path class="st5" d="M182.41,129.67c-8.29,0-15,6.72-15,15c0,8.29,15.27,29.72,15.27,29.72s14.73-21.44,14.73-29.72
				C197.41,136.38,190.69,129.67,182.41,129.67z M182.74,152.03c-4.71,0-8.53-3.82-8.53-8.53c0-4.71,3.82-8.53,8.53-8.53
				c4.71,0,8.53,3.82,8.53,8.53C191.26,148.21,187.44,152.03,182.74,152.03z"/>
		</g>
	</g>
</g>
<g>
</g>
<g>
</g>
<g>
</g>
<g>
</g>
<g>
</g>
<g>
</g>
</svg>
