<svg version="1.1" id="Layer_1" xmlns="http://www.w3.org/2000/svg" x="0" y="0" viewBox="0 0 320 320" style="enable-background:new 0 0 320 320" xml:space="preserve"><style>.st1{fill:#fff}.st2{fill-rule:evenodd;clip-rule:evenodd;fill:#4f5d94}.st4{fill:#4296d2}.st5{fill:#efefef}.st7{fill:#6181b6}</style><circle cx="154.2" cy="163.2" r="123.7" style="fill:none;stroke:#efefef;stroke-linecap:round;stroke-linejoin:round;stroke-miterlimit:10;stroke-dasharray:4,8"/><g id="NET_1_"><path class="st1" d="m290.2 100.5-6.7-4.3h-177l-6.7 6.7v177.6l4.3 5.8h132.3l53.8-68.4z"/><path class="st2" d="M156.8 224.6c0-19.6 6.9-36.2 20.6-50 13.6-13.7 30.3-20.6 50-20.6 19.4 0 36 6.9 49.8 20.6 13.8 13.8 20.7 30.4 20.7 50 0 19.5-6.9 36.1-20.7 49.9-13.8 13.8-30.4 20.8-49.8 20.8-19.7 0-36.3-6.9-50-20.8-13.7-13.8-20.6-30.4-20.6-49.9"/><path class="st2" d="M297.9 224.6h-8.3V105.5c0-3-1.1-5.1-3.3-6.1-.8-.4-1.6-.7-2.6-.9l-1.2-.1H108.2c-3.1 0-5.1 1.1-6.1 3.2-.6 1.2-.9 2.5-1 3.9v174.3c0 3 1.1 5.1 3.2 6.1 1.2.6 2.5 1 3.9 1.1h115.6l3.6 8.3H105.6c-2.1 0-4.3-.5-6.4-1.6-4.3-2.1-6.4-5.9-6.4-11.3V102.9c0-2.1.5-4.3 1.6-6.4 2.1-4.3 5.9-6.4 11.2-6.4h179.5l2 .2c1.6.2 3.1.7 4.4 1.4 4.3 2.1 6.4 5.9 6.4 11.2v121.7z"/><path d="M148.1 145.4c0 3.9-1.4 7-4.2 9.2s-6.7 3.3-11.7 3.3-9-.8-12.2-2.3v-6.8c2 .9 4.1 1.7 6.4 2.2 2.3.5 4.4.8 6.3.8 2.8 0 4.9-.5 6.3-1.6s2-2.5 2-4.4c0-1.6-.6-3-1.9-4.2-1.2-1.1-3.8-2.5-7.7-4.1-4-1.6-6.8-3.5-8.5-5.6-1.6-2.1-2.5-4.6-2.5-7.5 0-3.7 1.3-6.6 3.9-8.7s6.1-3.2 10.5-3.2c4.2 0 8.4.9 12.6 2.8l-2.3 5.9c-3.9-1.6-7.4-2.5-10.5-2.5-2.3 0-4.1.5-5.3 1.5s-1.8 2.4-1.8 4c0 1.1.2 2.1.7 2.9s1.3 1.6 2.4 2.3c1.1.7 3.1 1.7 6 2.9 3.2 1.3 5.6 2.6 7.1 3.8s2.6 2.5 3.3 3.9c.8 1.7 1.1 3.4 1.1 5.4z" style="fill:#4f5d94"/><g id="Symbol"><path class="st1" d="M227.9 211c0 11.9-9.6 21.5-21.5 21.5s-21.5-9.6-21.5-21.5 9.6-21.5 21.5-21.5c.9 0 0 0 0 0V211l19.4-9.5c1.2 1.9 2.1 4.9 2.1 9.5z"/><path class="st1" d="M209 184.7v20.7l18.9-9.3c0 .1-4.7-11.7-18.9-11.4zM235.1 192.5h33.1v1.5h-33.1zM235.1 208h33.1v1.5h-33.1zM235.1 224.7h33.1v1.5h-33.1zM195.3 242.5h72.9v1.5h-72.9zM195.3 258.8h72.9v1.5h-72.9zM184.9 240.6h6.5v6.7h-6.5zM184.9 256.2h6.5v6.7h-6.5z"/></g></g><path class="st4" d="m212.9 47.1 18.3 1.1-1.4 17-7.2 5-7.2-3.5zM159.3 50.4h4.1l1.4-3.3.6-19.4-6.6-3.8h-12.5l-1 14.2.5 11.9zM89 54.9l-6.9-6.2-11.7.4-.5 25.8.8.9H89zM46.5 116.5l-6.2-6.2H28.1v26.9l18.4.4zM51 191.1l-6.1-5.5-16.2-.3-1.5 1.8v21.6l23.3.4zM78.8 247.1l-6-6-14.4-.4.6 27.3h18.7z"/><g><path class="st5" d="M210.8 45.1h22.5l-2.1 23.2-9.2 3.1-9.2-3.1-2-23.2zm18 7.5.3-2.8H215l.7 8.5h9.8l-.4 3.6-3.1.8-3.2-.8-.2-2.2h-2.8l.4 4.4 5.8 1.6h.1l5.7-1.6.8-8.7h-10.3l-.2-2.9 10.7.1zM165.4 27.7c.6.5.8 1.2.8 2v19.5c0 .8-.3 1.4-.8 2-.6.5-1.2.8-2 .8h-16.9c-.8 0-1.4-.3-2-.8s-.8-1.2-.8-2V24.8c0-.8.3-1.4.8-2s1.2-.8 2-.8h11.9c.8 0 1.4.3 2 .8l5 4.9zm-18.8 21.4h16.9V32.2h-6.1c-.4 0-.7-.1-1-.4-.3-.3-.4-.6-.4-1v-6.1h-9.4v24.4zm2.7-16c.6-.5 1.2-.8 2-.8s1.4.3 2 .8.8 1.2.8 2-.3 1.5-.8 2c-.6.5-1.2.8-2 .8s-1.4-.3-2-.8-.8-1.2-.8-2 .2-1.5.8-2zm-.9 13.2v-3.8l2.3-2.3c.3-.3.6-.3.9 0l2.3 2.3 5.2-5.2c.3-.3.6-.3.9 0l1.4 1.4v7.5l-13 .1zm14.8-16.9-4.4-4.4v4.5c0-.1 4.4-.1 4.4-.1zM90 53.4c.6.5.8 1.2.8 2v19.5c0 .8-.3 1.4-.8 2-.6.6-1.2.8-2 .8H71.1c-.8 0-1.4-.3-2-.8-.6-.6-.8-1.2-.8-2V50.5c0-.8.3-1.4.8-2 .6-.5 1.2-.8 2-.8H83c.8 0 1.4.3 2 .8l5 4.9zM71.1 74.8H88V58h-6.1c-.4 0-.7-.1-1-.4-.3-.3-.4-.6-.4-1v-6.1h-9.4v24.3zm12.4-14c.3 0 .5.1.6.3s.1.5 0 .7c-1.4 2.4-2.3 3.9-2.7 4.6l2.7 4.6c.2.2.2.5 0 .7-.1.2-.3.3-.6.3h-1.7c-.3 0-.5-.1-.6-.3-.1-.1-.6-1.2-1.7-3.4-.5 1.1-1 2.2-1.7 3.4-.1.2-.3.3-.6.3h-1.7c-.3 0-.5-.1-.6-.3-.1-.2-.1-.5 0-.7l2.7-4.6-2.6-4.6c-.2-.2-.2-.5 0-.7s.3-.3.6-.3h1.7c.3 0 .5.1.6.3.3.7.9 1.8 1.6 3.4.3-.9.9-2 1.7-3.4.1-.2.3-.3.6-.3h1.7zm4.2-5.6-4.4-4.5v4.5h4.4zM47.5 115c.5.6.8 1.2.8 2v19.4c0 .8-.3 1.4-.8 2s-1.2.8-2 .8H28.6c-.8 0-1.5-.3-2-.8-.5-.6-.8-1.2-.8-2V112c0-.8.3-1.4.8-2s1.2-.8 2-.8h12c.8 0 1.4.3 2 .8l4.9 5zm-18.9 21.5h16.9v-16.9h-6.1c-.4 0-.7-.1-1-.4s-.4-.6-.4-1v-6.1h-9.4v24.4zm12.9-12.2h.9c.2 0 .4.1.6.3.1.2.2.4.2.6-.4 1.5-1.1 4.1-2 8-.1.4-.3.5-.7.5H39c-.4 0-.6-.2-.7-.5-.3-1.1-.6-2.5-1-4.2l-.2-1c0 .3-.1.6-.2 1l-1 4.2c-.1.4-.3.5-.6.5h-1.5c-.4 0-.6-.2-.7-.5-.1-.5-.4-1.8-.9-3.8-.5-2.1-.8-3.5-1-4.1-.1-.2 0-.4.1-.6.2-.2.3-.3.5-.3h1c.4 0 .6.2.7.6.7 3.7 1.1 5.7 1.1 5.8 0 0 0 .1.1.2 0-.2.5-2.3 1.4-6.1.1-.3.3-.5.7-.5h.8c.4 0 .6.2.7.5.9 3.8 1.4 5.7 1.4 5.9v.2c0-.2.5-2.2 1.2-6 0-.5.2-.7.6-.7zm3.8-7.5-4.5-4.4v4.4h4.5zM51.2 190.1c.5.6.8 1.2.8 2v15.7c0 .8-.3 1.4-.8 2s-1.2.8-2 .8H28.6c-.8 0-1.5-.3-2-.8-.5-.6-.8-1.2-.8-2v-20.6c0-.8.3-1.4.8-2s1.2-.8 2-.8h15.7c.8 0 1.4.3 2 .8l4.9 4.9zm-2.3 17.7c.2 0 .3-.1.3-.4v-15.2c0-.1 0-.2-.1-.2l-4.6-4.6v5.9c0 .4-.1.7-.4 1-.3.3-.6.4-1 .4H32.8c-.4 0-.7-.1-1-.4-.3-.3-.4-.6-.4-1v-6.1H29c-.2 0-.4.1-.4.4v19.9c0 .2.1.4.4.4l19.9-.1zm-13.6-10.2c1-1 2.2-1.5 3.6-1.5s2.6.5 3.6 1.5 1.5 2.2 1.5 3.6-.5 2.6-1.5 3.6-2.2 1.5-3.6 1.5-2.6-.5-3.6-1.5-1.5-2.2-1.5-3.6.5-2.6 1.5-3.6zm6.5-10.5h-7.5v4.7h7.5v-4.7zm-4.5 15.8c.5.4 1 .7 1.7.7s1.2-.2 1.7-.7c.5-.4.7-1 .7-1.7s-.2-1.2-.7-1.7c-.5-.4-1-.7-1.7-.7s-1.2.2-1.7.7c-.5.4-.7 1-.7 1.7s.2 1.2.7 1.7zM79.3 245.6c.6.6.8 1.2.8 2V267c0 .8-.3 1.4-.8 2s-1.2.8-2 .8H60.4c-.8 0-1.5-.3-2-.8s-.8-1.2-.8-2v-24.4c0-.8.3-1.4.8-2s1.2-.8 2-.8h12c.8 0 1.4.3 2 .8l4.9 5zm-2 21.4v-16.9h-6.1c-.4 0-.7-.1-1-.4-.3-.3-.4-.6-.4-1v-6.1h-9.4V267h16.9zm-10.9-6.7c.2.2.2.5 0 .8l-1 1c-.1.1-.2.2-.4.2-.1 0-.2-.1-.3-.2l-3.3-3.2c-.3-.2-.3-.5 0-.7l3.3-3.2c.3-.3.5-.3.8 0l1 1v.1c.2.2.2.5 0 .7l-1.9 1.7 1.8 1.8zm3.5-7.9 1.4.4c.3.1.5.3.3.6l-3.2 11c-.1.4-.3.5-.6.4l-1.4-.4c-.3-.1-.5-.3-.3-.6l3.2-11c.1-.4.3-.5.6-.4zm1.4 4.5c-.2-.2-.2-.5 0-.8l1-1.1c.2-.3.5-.3.8 0l3.3 3.2c.3.2.3.5 0 .7l-3.3 3.2c-.3.3-.5.3-.8 0l-1-1v-.1c-.2-.2-.2-.5 0-.7l1.9-1.7-1.9-1.7zm1.3-14v4.4H77l-4.4-4.4z"/></g><g><path class="st5" d="M274.8 141.9c-19 0-34.5-15.5-34.5-34.5s15.5-34.5 34.5-34.5 34.5 15.5 34.5 34.5-15.5 34.5-34.5 34.5z"/><path d="M274.8 74.4c18.2 0 33 14.8 33 33s-14.8 33-33 33-33-14.8-33-33 14.8-33 33-33m0-3c-19.9 0-36 16.1-36 36s16.1 36 36 36 36-16.1 36-36-16.1-36-36-36z" style="fill:#dedfdf"/></g><g><path class="st7" d="M261.1 102.6c1.6 0 2.6.3 3.2.9.5.6.6 1.6.4 3-.3 1.5-.9 2.5-1.7 3.2-.8.6-2.1.9-3.7.9h-2.5l1.5-8h2.8zM251 118.7h4.1l1-5.1h3.6c1.6 0 2.9-.2 3.9-.5s1.9-.9 2.8-1.7c.7-.6 1.3-1.4 1.7-2.1.4-.8.7-1.6.9-2.5.5-2.3.1-4-1-5.3-1.1-1.3-2.9-1.9-5.2-1.9h-8l-3.8 19.1zM272 94.6h4.1l-1 5.1h3.7c2.3 0 3.9.4 4.8 1.2s1.1 2.1.8 3.9l-1.7 8.9h-4.2l1.6-8.4c.2-1 .1-1.6-.2-1.9s-1-.5-2.1-.5h-3.3l-2.1 10.9h-4.1l3.7-19.2zM293.5 102.6c1.6 0 2.6.3 3.2.9.5.6.6 1.6.4 3-.3 1.5-.9 2.5-1.7 3.2-.8.6-2.1.9-3.7.9h-2.5l1.5-8h2.8zm-10.1 16.1h4.1l1-5.1h3.6c1.6 0 2.9-.2 3.9-.5s1.9-.9 2.8-1.7c.7-.6 1.3-1.4 1.7-2.1.4-.8.7-1.6.9-2.5.5-2.3.1-4-1-5.3-1.1-1.3-2.9-1.9-5.2-1.9h-8l-3.8 19.1z"/></g></svg>