<svg xmlns="http://www.w3.org/2000/svg" xml:space="preserve" style="enable-background:new 0 0 170 70" viewBox="0 0 170 70">
  <path d="m47.9-123.4-7.6 30.7-7.6-30.7H10.9v11.3c-2.7-9.9-12.4-12.4-21.1-12.6-10.6-.1-22.4 4.5-22.8 18.5h14.7c0-4.2 3.9-6.7 7.5-6.6 4.5 0 6.6 1.9 6.7 4.9-.2 2.6-1.7 4.4-6.6 4.4h-4.9v10.2h4.5c2.5 0 6.1 1.4 6.2 5 .2 4.3-2.8 6.2-6.5 6.3-6.6-.2-8.3-5.3-8.3-9.7H-35c.1 2.9 0 22.1 23.9 22 11.3.1 19.6-4.7 22-11.3v10.2h14.7V-104l8.1 33.1h13.1L55-104v33.1h15v-52.6l-22.1.1zm-37 30.7c-1.9-3.9-4.5-5.6-6-6.1 3.1-1.4 4.7-3.3 6-7v13.1z" style="fill:red" transform="translate(67.53 132.13)"/>
</svg>
