<svg xmlns="http://www.w3.org/2000/svg" xml:space="preserve" style="enable-background:new 0 0 170 70" viewBox="0 0 170 70">
  <path d="m68.5 27.6 11.2-6.4 12.4 21.6H80.3V46h-3.2v-3.2M65.13 53.81c0 2 1.6 3.7 3.7 3.7 1.9 0 3.7-1.7 3.7-3.7 0-1.9-1.8-3.7-3.7-3.7-2.1.1-3.7 1.8-3.7 3.7m3.5 6.7c-3.7 0-6.6-3-6.6-6.6 0-3.7 2.9-6.6 6.6-6.6 1.4 0 2.7.4 3.9 1.2v-5.4h3.2v17.2h-3.2v-.8c-1.2.6-2.5 1-3.9 1"/>
  <path d="M78.8 60.1V47.2" style="stroke:#000;stroke-width:3.2409;stroke-miterlimit:87.8193"/>
  <path d="M96.7 42.9 81.3 16l11.1-6.5 19.3 33.4m5.22 17.61c-3.5 0-5.6-1.8-5.8-4.4h3.4c0 .9.5 2 2.6 2.1 1.4 0 2.2-.9 2.2-1.5-.2-1-1.4-1.1-2.7-1.3-1.4-.2-2.6-.5-3.4-.9-1.1-.6-1.8-1.8-1.8-3.1 0-2.3 1.9-4.1 5.3-4.1 3.2 0 5.3 1.7 5.5 4.2h-3.2c0-.6-.2-1.7-2.1-1.7-1.3 0-2.1.2-2.2 1.2 0 1.3 2.7 1.2 4.8 1.7 1.9.5 3.2 1.7 3.2 3.5 0 3-2.6 4.3-5.8 4.3M55.5 39.1l11.1-6.4 5.9 10.2H57.6m-7.24 10.91c0 2 1.8 3.7 3.7 3.7a3.7 3.7 0 1 0 0-7.4c-2 .1-3.7 1.8-3.7 3.7m3.5 6.7c-3.5 0-6.6-3-6.6-6.6 0-3.7 3-6.6 6.6-6.6 1.4 0 2.7.4 3.9 1.2v-1h3.2v12.8h-3.2v-.8c-1 .6-2.5 1-3.9 1m66.73-14.31c-.8 0-1.6-.7-1.6-1.6s.8-1.6 1.6-1.6c1 0 1.6.7 1.6 1.6s-.6 1.6-1.6 1.6m0-3c-.8 0-1.3.6-1.3 1.4s.5 1.4 1.3 1.4 1.3-.7 1.3-1.4-.5-1.4-1.3-1.4"/>
  <path d="m120.95 45.43-.3-.7h-.3v.7h-.2v-1.7h.7c.2 0 .5.2.5.5s-.2.4-.3.5l.3.7m-.7-1.5h-.3v.6h.3c.3 0 .3-.1.3-.3 0-.2 0-.3-.3-.3m-21.2 9.88c0 2 1.6 3.7 3.7 3.7 1.9 0 3.7-1.7 3.7-3.7 0-1.9-1.8-3.7-3.7-3.7-2.1.1-3.7 1.8-3.7 3.7m3.5 6.7c-3.7 0-6.6-3-6.6-6.6 0-3.7 2.9-6.6 6.6-6.6 1.4 0 2.7.4 3.9 1.2v-1h3.1v12.8h-3.1v-.8c-1.2.6-2.4 1-3.9 1m-18.27-6.7c0 2 1.8 3.7 3.7 3.7a3.7 3.7 0 1 0 0-7.4c-1.9.1-3.7 1.8-3.7 3.7m7.4-10.8h3.2v17.2h-3.2v-.8c-1 .7-2.3 1.1-3.7 1.1-3.7 0-6.7-3-6.7-6.6 0-3.7 3-6.6 6.7-6.6 1.4 0 2.7.4 3.7 1.2v-5.5z"/>
</svg>
