<svg xmlns="http://www.w3.org/2000/svg" xml:space="preserve" style="enable-background:new 0 0 170 70" viewBox="0 0 170 70">
  <path d="M107 39c-.5-2.3-1.4-4.2-2.7-5.9-2.7-3.5-7-5.8-12.9-5.8-9.2 0-14.8 6.2-16.5 12.8-1.5-4.6-5.5-7.7-9.7-9.1 3.2-2.3 4.9-5.7 4.9-9.4 0-3.5-1.5-6.7-3.9-8.8-3.6-3.1-8.5-3.7-14.6-3.7H39.8v51.1H50c3 0 5.9 0 8.6-.1 8.6-.3 14.5-4.7 16.4-11.2.6 2.9 1.9 5.3 3.5 7 3.3 3.7 8.1 5.1 13 5.1 6 0 10.3-1.7 13.2-4.4l-4.2-5c-2.1 1.6-4.8 2.5-7.9 2.5-6 0-8.7-3.8-8.9-7.5H107V60h8.8V9.3H107V39zM48.7 16h2.4c2.4 0 4.2.3 5.6.8 2.6 1 3.9 3.1 3.9 5.8 0 2.2-.8 5.7-5.5 6.7-.8.2-1.9.2-3.5.2h-2.9V16zm10 36.7c-1.1.2-2.4.2-3.5.2h-6.4V36.2h5.7c1.8 0 3.8.2 5 .5 4 1.1 6.3 3.9 6.3 7.7 0 4-2.1 7.3-7.1 8.3zm25-12.4c.8-3.7 3.5-6.4 7.6-6.4s6.8 2.4 7.5 6.4H83.7zm38-31h8.6v50.8h-8.6z" style="fill:#0067a4"/>
</svg>
