<?xml version="1.0" encoding="utf-8"?>
<!-- Generator: Adobe Illustrator 25.2.0, SVG Export Plug-In . SVG Version: 6.00 Build 0)  -->
<svg version="1.1" id="NET" xmlns="http://www.w3.org/2000/svg" xmlns:xlink="http://www.w3.org/1999/xlink" x="0px" y="0px"
	 viewBox="0 0 512 512" style="enable-background:new 0 0 512 512;" xml:space="preserve">
<style type="text/css">
	.st0{fill:#EF4047;}
</style>
<g id="GroupDocs.Parser">
	<g>
		<path class="st0" d="M361.8,429.2c0,6.4-2.6,12.1-6.8,16.5c-4.2,4.2-10,6.8-16.5,6.8H114.3c-12.7,0-23.3-10.6-23.3-23.3V82.8
			c0-12.7,10.6-23.3,23.3-23.3h224.1c12.7,0,23.3,10.6,23.3,23.3v67.3h54.1V82.8c0-42.4-34.4-76.8-77.3-76.8H114.3
			c-43,0-77.4,34.4-77.4,76.8v346.4c0,42.4,34.4,76.8,77.3,76.8h224.1c36.1,0,66.2-25,74.7-58.2c1.5-5.9,2.1-12.7,2.1-19.1V426H361
			v3.2H361.8z M148.3,275.7c-14.8,0-27,12.1-27,27s12.1,27,27,27h85.3c14.8,0,27-12.1,27-27s-12.1-27-27-27H148.3z M291.3,216.9
			c0-14.8-12.1-27-27-27h-116c-14.8,0-27,12.1-27,27s12.1,27,27,27h116.1C279.2,243.9,291.3,231.6,291.3,216.9z M332.1,127.2
			c0-14.8-12.1-27-27-27H148.3c-14.8,0-27,12.1-27,27c0,14.8,12.1,27,27,27h156.8C320,154.3,332.1,142.2,332.1,127.2z M454.5,203
			c-13.8-11.7-33.5-17-57.7-17h-84.3v190.8h0.6c1.5,11.2,11.7,19.7,23.3,19.7h3.2c11.7,0,21.7-8.5,23.3-19.7h1.5v-74.1h32.3
			c14.8,0,27.6-2.1,38.8-5.9c11.2-3.8,19.1-9.1,24.4-14.8c10.6-12.1,15.3-24.4,15.3-37.1C475.3,228.4,468.3,214.6,454.5,203z
			 M415.3,260.7c-4.7,4.2-10.6,6.4-18.5,6.4h-32.3V221h32.3c7.9,0,13.8,2.1,18.5,6.4c4.7,4.3,6.8,10,6.8,17
			C422.1,251.5,420,256.6,415.3,260.7z"/>
	</g>
</g>
</svg>
