<?xml version="1.0" encoding="utf-8"?>
<!-- Generator: Adobe Illustrator 25.2.0, SVG Export Plug-In . SVG Version: 6.00 Build 0)  -->
<svg version="1.1" id="search" xmlns="http://www.w3.org/2000/svg" xmlns:xlink="http://www.w3.org/1999/xlink" x="0px" y="0px"
	 viewBox="0 0 205.2 205.2" style="enable-background:new 0 0 205.2 205.2;" xml:space="preserve">
<style type="text/css">
	.st0{fill:#FFFFFF;stroke:#FFFFFF;stroke-width:3.2658;stroke-miterlimit:10;}
</style>
<path class="st0" d="M199.5,189.4l-41.3-43.1c-1-1.1-2.4-1.6-3.9-1.6c11.1-13.6,17.6-30.2,18.7-48c1.3-22.4-6.2-44-21.1-60.8
	C137,19.1,116.5,9.2,94.1,7.8C71.6,6.5,50.1,14,33.3,29C16.5,43.9,6.5,64.5,5.2,86.9c-2.7,46.3,32.7,86.1,79,88.9
	c1.7,0.1,3.4,0.1,5,0.1c20.6,0,40.3-7.5,55.8-21.3c1.5-1.3,2.9-2.8,4.3-4.2c0.1,1.1,0.5,2.3,1.4,3.2l41.3,43.1
	c1,1.1,2.4,1.6,3.8,1.6c1.3,0,2.6-0.5,3.6-1.5C201.5,194.8,201.6,191.5,199.5,189.4z M140.7,149.7c-15.5,13.8-35.4,20.7-56.1,19.5
	c-42.7-2.5-75.4-39.3-72.9-81.9C13,66.6,22.1,47.6,37.6,33.8C51.9,21.1,70,14.2,89,14.2c1.5,0,3.1,0,4.6,0.1
	c20.7,1.2,39.6,10.4,53.4,25.9s20.7,35.4,19.5,56.1S156.2,136,140.7,149.7z"/>
</svg>
