<svg xmlns="http://www.w3.org/2000/svg" xml:space="preserve" width="500" height="100">
  <path fill="#FFF" d="M91.4 36.73v10.86h17.55v6.17H91.4v16.3h-6.68V30.5h26.38l-.06 6.23H91.4zm27.51-6.23h6.68v39.57h-6.68V30.5zm17.66 39.57V30.5h6.68v33.23h18.06v6.34h-24.74zM196.4 30.5v6.28h-21.1v10.47h18.95v5.95H175.3v10.58h21.8v6.29h-28.5V30.5h27.8zm15.91 6.23v10.86h17.55v6.17h-17.55v16.3h-6.68V30.5h26.38l-.06 6.23h-19.64zm60.63 27.87c-4 3.91-8.95 5.86-14.83 5.86-5.9 0-10.84-1.95-14.83-5.85-4-3.91-6-8.78-6-14.61s2-10.7 6-14.6c4-3.91 8.94-5.86 14.83-5.86 5.88 0 10.83 1.95 14.83 5.86 4 3.9 6 8.77 6 14.6s-2 10.7-6 14.6zm-4.9-24.76a13.28 13.28 0 0 0-9.94-4.19c-3.92 0-7.23 1.4-9.93 4.19A14.09 14.09 0 0 0 244.12 50c0 3.98 1.35 7.37 4.05 10.16 2.7 2.8 6 4.19 9.94 4.19 3.92 0 7.23-1.4 9.93-4.19A14.1 14.1 0 0 0 272.09 50a14.1 14.1 0 0 0-4.05-10.16zm50.92 3.51c0 6.53-2.85 10.64-8.55 12.34l10.36 14.38h-8.5l-9.44-13.3h-8.78v13.3h-6.68V30.5h14.72c6.04 0 10.36 1.02 12.96 3.06 2.6 2.03 3.9 5.3 3.9 9.79zm-8.89 5.6c1.36-1.17 2.04-3.04 2.04-5.63 0-2.58-.7-4.36-2.1-5.32-1.4-.96-3.88-1.44-7.47-1.44h-8.49V50.7h8.32c3.78 0 6.34-.59 7.7-1.76zm25.19 21.12h-6.68V30.5H339l11.94 24.85L362.9 30.5h10.35v39.57h-6.68V39.16l-13.81 27.46h-3.73l-13.76-27.46v30.9zm54.57-9-3.96 9h-7.14l17.44-39.57h7.13l17.44 39.57h-7.14l-3.96-9h-19.81zm17.1-6.17-7.2-16.3-7.18 16.3h14.38zm31.13-18.29v33.46h-6.68V36.6h-12v-6.1h30.68v6.11h-12z"/>
  <path fill="#29AAE1" d="m69.79 31.63-49.3 6.61V18.17H76.4z"/>
  <path fill="#0277B3" d="m47.13 53.77-26.64 6.61V40.31h33.24z"/>
  <path fill="#3D5E9E" d="m30.51 75.91-10.02 6.6V62.44h16.62z"/>
</svg>
