<svg xmlns="http://www.w3.org/2000/svg" xml:space="preserve" viewBox="0 0 170 70">
  <path fill="#f25022" d="M9.3 18.9h15.3v15.3H9.3z"/>
  <path fill="#7fba00" d="M26.3 18.9h15.3v15.3H26.3z"/>
  <path fill="#00a4ef" d="M9.3 35.8h15.3v15.3H9.3z"/>
  <path fill="#ffb900" d="M26.3 35.8h15.3v15.3H26.3z"/>
  <path fill="#737373" d="M72.3 25.3v19.4h-3.4V29.5l-6 15.2h-2.2l-6.1-15.2v15.2h-3.1V25.3h4.8l5.6 14.3h.1l5.9-14.3h4.4zm2.7 1.5c0-.5.2-1 .6-1.3.4-.4.9-.5 1.4-.5.6 0 1.1.2 1.4.5.4.4.6.8.6 1.3s-.2 1-.6 1.3-.9.5-1.4.5c-.6 0-1-.2-1.4-.5-.3-.4-.6-.8-.6-1.3zm3.7 4v13.9h-3.3V30.8h3.3zm9.9 11.5c.5 0 1-.1 1.6-.4.6-.2 1.1-.5 1.6-.9v3c-.5.3-1.1.5-1.8.7s-1.4.3-2.2.3c-2.1 0-3.7-.6-5-1.9-1.3-1.3-1.9-3-1.9-4.9 0-2.2.7-4.1 2-5.5 1.3-1.4 3.1-2.2 5.6-2.2.6 0 1.3.1 1.8.2.6.1 1.1.4 1.5.5v3.1c-.5-.4-1-.7-1.5-.9s-1.1-.3-1.6-.3c-1.3 0-2.3.4-3.1 1.3-.8.9-1.2 2-1.2 3.4s.4 2.5 1.2 3.3c.7.8 1.7 1.2 3 1.2zm12.5-11.7h.7c.2 0 .4.1.5.1V34c-.2-.1-.4-.3-.8-.4s-.7-.2-1.2-.2c-.8 0-1.5.4-2 1-.5.7-.9 1.7-.9 3.1v7h-3.3V30.8h3.3V33c.3-.8.8-1.3 1.3-1.8.8-.4 1.5-.6 2.4-.6zm1.4 7.4c0-2.3.7-4.1 1.9-5.5 1.3-1.3 3.1-2 5.4-2 2.2 0 3.9.6 5.1 1.9 1.2 1.3 1.8 3 1.8 5.2s-.7 4-1.9 5.4c-1.3 1.3-3 2-5.3 2-2.2 0-3.9-.6-5.1-1.9-1.2-1.2-1.9-3-1.9-5.1zm3.4-.2c0 1.4.3 2.6 1 3.3.7.8 1.6 1.2 2.8 1.2 1.2 0 2.1-.4 2.7-1.2s.9-1.9.9-3.4-.3-2.6-.9-3.4c-.6-.8-1.6-1.2-2.7-1.2-1.2 0-2.1.4-2.8 1.2-.7.9-1 2-1 3.5zm15.7-3.3c0 .4.1.9.4 1.1s.9.6 2 1c1.3.5 2.2 1.1 2.7 1.7.5.7.8 1.4.8 2.4 0 1.3-.5 2.3-1.5 3.1s-2.4 1.2-4.1 1.2c-.6 0-1.2-.1-1.9-.2s-1.3-.3-1.8-.5V41c.6.4 1.3.8 1.9 1s1.3.4 1.9.4c.7 0 1.3-.1 1.6-.3.4-.2.5-.5.5-1 0-.4-.2-.8-.5-1.2-.4-.3-1.1-.7-2.1-1.1-1.2-.5-2.1-1.1-2.6-1.7-.5-.6-.8-1.4-.8-2.4 0-1.3.5-2.3 1.5-3.1 1-.8 2.3-1.2 3.9-1.2.5 0 1 0 1.6.2.6.1 1.1.3 1.5.4v3.2c-.4-.3-.9-.5-1.5-.8-.6-.2-1.2-.3-1.7-.3-.6 0-1.1.1-1.4.4-.2.2-.4.5-.4 1zM129 38c0-2.3.7-4.1 1.9-5.5 1.3-1.3 3.1-2 5.4-2 2.2 0 3.9.6 5.1 1.9 1.2 1.3 1.8 3 1.8 5.2s-.7 4-1.9 5.4c-1.3 1.3-3 2-5.3 2-2.2 0-3.9-.6-5.1-1.9-1.3-1.2-1.9-3-1.9-5.1zm3.4-.2c0 1.4.3 2.6 1 3.3.7.8 1.6 1.2 2.8 1.2s2.1-.4 2.7-1.2c.6-.8.9-1.9.9-3.4s-.3-2.6-.9-3.4c-.6-.8-1.6-1.2-2.7-1.2-1.2 0-2.1.4-2.8 1.2-.7.9-1 2-1 3.5zm21.7-4.3h-4.9v11.2h-3.3V33.5h-2.3v-2.7h2.3v-1.9c0-1.4.5-2.6 1.4-3.6.9-.9 2.2-1.4 3.6-1.4h1.1c.3 0 .6.1.8.2v2.8c-.1 0-.3-.1-.6-.2s-.6-.1-.9-.1c-.7 0-1.2.2-1.6.6-.4.4-.5 1.1-.5 1.9v1.7h4.9v-3.1l3.3-1v4.1h3.3v2.7h-3.3V40c0 .9.2 1.4.4 1.8.3.4.8.5 1.5.5.2 0 .4 0 .7-.1s.5-.2.7-.3v2.7c-.2.1-.5.2-1 .3s-.9.1-1.4.1c-1.4 0-2.4-.4-3.1-1.1-.7-.7-1-1.8-1-3.3l-.1-7.1z"/>
</svg>
