<?xml version="1.0" encoding="utf-8"?>
<!-- Generator: Adobe Illustrator 25.0.1, SVG Export Plug-In . SVG Version: 6.00 Build 0)  -->
<svg version="1.1" id="Layer_1" xmlns="http://www.w3.org/2000/svg" xmlns:xlink="http://www.w3.org/1999/xlink" x="0px" y="0px"
	 viewBox="0 0 512 512" style="enable-background:new 0 0 512 512;" xml:space="preserve">
<style type="text/css">
	.st0{fill:#3A8FC6;}
</style>
<g id="Assembly">
	<path class="st0" d="M348.85,44.34h-195.7c-30.66,0-55.52,24.86-55.52,55.52v34.93h-5.51c-14.82,0-26.83,12.01-26.83,26.83
		c0,14.82,12.01,26.83,26.83,26.83h5.51v29.61h-5.51c-14.82,0-26.83,12.01-26.83,26.83c0,14.82,12.01,26.84,26.83,26.84h5.51v140.41
		c0,30.66,24.86,55.52,55.52,55.52h195.7c30.66,0,55.52-24.86,55.52-55.52V99.85C404.37,69.19,379.51,44.34,348.85,44.34z
		 M364.12,394.9c0,11.58-9.39,20.97-20.96,20.97H158.85c-11.58,0-20.97-9.39-20.97-20.97V117.1c0-11.58,9.39-20.97,20.97-20.97
		h184.31c11.58,0,20.96,9.39,20.96,20.97V394.9z"/>
	<path class="st0" d="M69.23,415.86c-11.58,0-20.97-9.39-20.97-20.97V117.1c0-11.58,9.39-20.97,20.97-20.97h56.07
		c0,0,28.73-48.21,30.42-51.8H63.53c-30.66,0-55.52,24.86-55.52,55.52v312.29c0,30.66,24.86,55.52,55.52,55.52h89.52l-27.76-51.8
		H69.23z"/>
	<path class="st0" d="M442.77,415.86c11.58,0,20.97-9.39,20.97-20.97V117.1c0-11.58-9.39-20.97-20.97-20.97H386.7
		c0,0-28.73-48.21-30.42-51.8h92.18c30.66,0,55.52,24.86,55.52,55.52v312.29c0,30.66-24.86,55.52-55.52,55.52h-89.52l27.76-51.8
		H442.77z"/>
	<g>
		<path class="st0" d="M310.45,134.78H194.33c-14.82,0-26.83,12.01-26.83,26.83c0,14.82,12.01,26.83,26.83,26.83h116.13
			c14.82,0,26.83-12.01,26.83-26.83C337.28,146.8,325.27,134.78,310.45,134.78z"/>
		<path class="st0" d="M310.45,218.06H194.33c-14.82,0-26.83,12.01-26.83,26.83c0,14.82,12.01,26.84,26.83,26.84h116.13
			c14.82,0,26.83-12.02,26.83-26.84C337.28,230.08,325.27,218.06,310.45,218.06z"/>
	</g>
	<g>
		<path class="st0" d="M412.66,134.78h-19.86c-14.82,0-26.83,12.01-26.83,26.83c0,14.82,12.01,26.83,26.83,26.83h19.86
			c14.82,0,26.83-12.01,26.83-26.83C439.5,146.8,427.48,134.78,412.66,134.78z"/>
		<path class="st0" d="M412.66,218.06h-19.86c-14.82,0-26.83,12.01-26.83,26.83c0,14.82,12.01,26.84,26.83,26.84h19.86
			c14.82,0,26.83-12.02,26.83-26.84C439.5,230.08,427.48,218.06,412.66,218.06z"/>
	</g>
</g>
<g>
</g>
<g>
</g>
<g>
</g>
<g>
</g>
<g>
</g>
</svg>
