<?xml version="1.0" encoding="utf-8"?>
<!-- Generator: Adobe Illustrator 25.0.1, SVG Export Plug-In . SVG Version: 6.00 Build 0)  -->
<svg version="1.1" id="Layer_1" xmlns="http://www.w3.org/2000/svg" xmlns:xlink="http://www.w3.org/1999/xlink" x="0px" y="0px"
	 viewBox="0 0 512 512" style="enable-background:new 0 0 512 512;" xml:space="preserve">
<style type="text/css">
	.st0{fill:#3A8FC7;}
</style>
<g id="ODT">
	<g>
		<path class="st0" d="M354.5,433.4c-3.3,5.8-9.6,9.8-16.8,9.8h-212c-10.7,0-19.3-8.6-19.3-19.2V88c0-10.6,8.6-19.2,19.3-19.2h212
			c10.7,0,19.3,8.6,19.3,19.2v58h52.8V88c0-39.7-32.3-72-72.1-72h-212C86,16,53.7,48.3,53.7,88V424c0,39.7,32.3,72,72.1,72h212
			c36.6,0,66.8-27.3,71.5-62.6H354.5z"/>
	</g>
	<g>
		<g>
			<path class="st0" d="M303.8,158.9H159.1c-14.4,0-26-11.6-26-26v0c0-14.4,11.6-26,26-26h144.7c14.4,0,26,11.6,26,26v0
				C329.8,147.3,318.2,158.9,303.8,158.9z"/>
			<path class="st0" d="M253.1,191.7h-94c-14.4,0-26,11.6-26,26v0c0,14.4,11.6,26,26,26h94V191.7z"/>
		</g>
		<g>
			<g>
				<path class="st0" d="M236.8,409.2h-87.3c-9,0-16.2-7.3-16.2-16.2v-98.5c0-9,7.3-16.2,16.2-16.2h87.3c9,0,16.2,7.3,16.2,16.2
					v98.5C253,401.9,245.7,409.2,236.8,409.2z M149.4,290.2c-2.3,0-4.2,1.9-4.2,4.2v98.5c0,2.3,1.9,4.2,4.2,4.2h87.3
					c2.3,0,4.2-1.9,4.2-4.2v-98.5c0-2.3-1.9-4.2-4.2-4.2H149.4z"/>
			</g>
			<g>
				<g>
					<path class="st0" d="M177.6,382.3c-1.4,0-2.8-0.5-3.9-1.5l-14.1-12.3c-1.2-1-1.9-2.5-2-4.1c-0.1-1.6,0.4-3.1,1.5-4.3l48.8-56.1
						c1-1.2,2.5-1.9,4.1-2c1.6-0.1,3.1,0.4,4.3,1.5l14.1,12.3c1.2,1,1.9,2.5,2,4.1c0.1,1.6-0.4,3.1-1.5,4.3l-48.8,56.1
						c-1,1.2-2.5,1.9-4.1,2C177.8,382.3,177.7,382.3,177.6,382.3z M166.3,363.9l11,9.6l46.1-53l-11-9.6L166.3,363.9z"/>
				</g>
				<g>
					<path class="st0" d="M157.9,387.9c-0.7,0-1.4-0.3-2-0.7c-0.8-0.7-1.2-1.7-1-2.7l2.6-21.5c0.1-1.1,0.9-2.1,1.9-2.5
						c1-0.4,2.3-0.2,3.1,0.6l18.3,15.9c0.8,0.7,1.2,1.9,1,3c-0.2,1.1-1.1,2-2.2,2.3l-20.9,5.6C158.5,387.8,158.2,387.9,157.9,387.9z
						 M162.8,369.2l-1.4,11.6l11.3-3L162.8,369.2z"/>
				</g>
			</g>
		</g>
		<g>
			<path class="st0" d="M458.3,293.7c0,33-8.1,58.1-24.3,75.3c-16.2,17.2-39.9,25.8-71.2,25.8c-30.8,0-54.4-8.6-70.8-25.9
				c-16.4-17.3-24.6-42.4-24.6-75.5c0-32.7,8.2-57.6,24.5-74.9c16.3-17.2,40.1-25.8,71.2-25.8c31.2,0,54.9,8.5,71,25.6
				C450.3,235.5,458.3,260.6,458.3,293.7z M323.3,293.7c0,38,13.2,56.9,39.6,56.9c13.4,0,23.4-4.6,29.9-13.8
				c6.5-9.2,9.7-23.6,9.7-43.1c0-19.6-3.3-34.1-9.9-43.4c-6.6-9.4-16.4-14-29.5-14C336.5,236.3,323.3,255.4,323.3,293.7z"/>
		</g>
	</g>
</g>
</svg>
