<?xml version="1.0" encoding="utf-8"?>
<!-- Generator: Adobe Illustrator 25.0.1, SVG Export Plug-In . SVG Version: 6.00 Build 0)  -->
<svg version="1.1" id="Layer_1" xmlns="http://www.w3.org/2000/svg" xmlns:xlink="http://www.w3.org/1999/xlink" x="0px" y="0px"
	 viewBox="0 0 512 512" style="enable-background:new 0 0 512 512;" xml:space="preserve">
<style type="text/css">
	.st0{fill:#3A8FC7;}
</style>
<g id="DOCX">
	<path class="st0" d="M350.8,433.4c-3.3,5.8-9.6,9.8-16.8,9.8h-212c-10.7,0-19.3-8.6-19.3-19.2V88c0-10.6,8.6-19.2,19.3-19.2h212
		c10.7,0,19.3,8.6,19.3,19.2v58h52.8V88c0-39.7-32.3-72-72.1-72h-212C82.3,16,50,48.3,50,88V424c0,39.7,32.3,72,72.1,72h212
		c36.6,0,66.8-27.3,71.5-62.6H350.8z"/>
	<g>
		<g>
			<path class="st0" d="M462,408.3h-66.9l-41.7-66.9L312,408.3h-65.5l71-109.6l-66.8-104.6h64.2l38.7,66.2l37.2-66.2h66.1
				l-67.8,109.1L462,408.3z"/>
		</g>
		<g>
			<path class="st0" d="M298.1,159.2H152.9c-14.2,0-25.8-11.5-25.8-25.8v-0.5c0-14.2,11.5-25.8,25.8-25.8h145.2
				c14.2,0,25.8,11.5,25.8,25.8v0.5C323.9,147.6,312.3,159.2,298.1,159.2z"/>
			<path class="st0" d="M293.2,246.1H148c-14.2,0-25.8-11.5-25.8-25.8v-0.5c0-14.2,11.5-25.8,25.8-25.8h145.2
				c14.2,0,25.8,11.5,25.8,25.8v0.5C319,234.6,307.4,246.1,293.2,246.1z"/>
			<path class="st0" d="M298.1,276.2H148c-14.2,0-25.8,11.5-25.8,25.8v0.5c0,14.2,11.5,25.8,25.8,25.8h117.7L298.1,276.2z"/>
		</g>
	</g>
</g>
</svg>
