<svg version="1.1" id="Layer_1" xmlns="http://www.w3.org/2000/svg" x="0" y="0" viewBox="0 0 512 512" style="enable-background:new 0 0 512 512" xml:space="preserve"><style>.st0{fill:#3a8fc7}</style><g id="LoremIpsum"><path class="st0" d="M344.3 433.4c-3.3 5.8-9.6 9.8-16.8 9.8h-212c-10.7 0-19.3-8.6-19.3-19.2V88c0-10.6 8.6-19.2 19.3-19.2h212c10.7 0 19.3 8.6 19.3 19.2v58h52.8V88c0-39.7-32.3-72-72.1-72h-212c-39.8 0-72.1 32.3-72.1 72v336c0 39.7 32.3 72 72.1 72h212c36.6 0 66.8-27.3 71.5-62.6h-54.7z" id="Doc"/><g id="Text_Lines"><path class="st0" d="M286.6 159.2H151c-14.4 0-26-11.7-26-26 0-14.4 11.7-26 26-26h135.5c14.4 0 26 11.7 26 26 .1 14.4-11.6 26-25.9 26zM227 246.2h-76c-14.4 0-26-11.6-26-26s11.6-26 26-26h76c14.4 0 26 11.6 26 26 0 14.3-11.6 26-26 26zM227 333.1h-76c-14.4 0-26-11.6-26-26s11.6-26 26-26h76c14.4 0 26 11.6 26 26s-11.6 26-26 26z"/></g><path class="st0" d="M270.6 408.3V194.1h57.9v167.4H411v46.7H270.6zM437.6 235.6c0-7.2 2-12.5 6-16s10.4-5.2 19.3-5.2 15.3 1.8 19.4 5.4c4.1 3.6 6.1 8.9 6.1 15.9 0 14-8.5 21-25.5 21-16.9-.2-25.3-7.2-25.3-21.1zm48.9 172.7h-47.7V270h47.7v138.3z"/></g></svg>