<?xml version="1.0" encoding="utf-8"?>
<!-- Generator: Adobe Illustrator 25.0.1, SVG Export Plug-In . SVG Version: 6.00 Build 0)  -->
<svg version="1.1" id="Layer_1" xmlns="http://www.w3.org/2000/svg" xmlns:xlink="http://www.w3.org/1999/xlink" x="0px" y="0px"
	 viewBox="0 0 512 512" style="enable-background:new 0 0 512 512;" xml:space="preserve">
<style type="text/css">
	.st0{fill:#2D93CA;}
	.st1{fill:#2F93CB;}
</style>
<g>
	<path class="st0" d="M420.19,139.38c-17.99,0-35.27,0-53.35,0c0-1.94,0-3.78,0-5.63c0-16.97,0.04-33.93-0.01-50.9
		c-0.04-14.91-9.33-24.27-24.17-24.28c-72.41-0.03-144.82-0.03-217.22,0c-15.18,0.01-24.37,9.28-24.37,24.59
		c-0.02,115.26-0.02,230.52,0,345.77c0,15.34,9.12,24.58,24.39,24.59c72.23,0.04,144.47-0.05,216.7,0.09
		c9.89,0.02,17.14-3.88,22.33-12.29c18.13,0,36.23,0,54.82,0c-1.88,14.19-7.07,26.58-15.76,37.39
		c-15.52,19.29-35.7,29.17-60.57,29.17c-72.58,0-145.17,0.01-217.75,0c-43.09-0.01-77.36-33.38-77.45-76.44
		c-0.24-117.01-0.23-234.01,0.01-351.02C47.86,38,82.01,4.28,124.4,4.2c73.11-0.14,146.22-0.15,219.32,0.01
		c42.28,0.09,76.18,34.16,76.45,76.48C420.29,100.08,420.19,119.46,420.19,139.38z"/>
	<path class="st1" d="M233.6,244.31c-25.35,0-50.7,0.19-76.05-0.06c-21.44-0.21-34.24-22.12-23.91-40.62
		c4.8-8.59,12.35-13.56,22.16-13.59c51.92-0.19,103.84-0.2,155.76-0.03c14.47,0.05,25.8,12.29,25.82,26.97
		c0.02,15.32-11.51,27.15-27.21,27.28C284.65,244.46,259.12,244.31,233.6,244.31z"/>
	<path class="st0" d="M199.03,99.66c13.63,0,27.26-0.05,40.89,0.01c15.81,0.08,27.05,11.38,27.08,27.12
		c0.03,16.04-11.19,27.39-27.3,27.42c-27.26,0.05-54.52,0.05-81.78,0c-16.13-0.03-27.37-11.36-27.35-27.38
		c0.03-15.93,11.34-27.11,27.57-27.17C171.77,99.63,185.4,99.66,199.03,99.66z"/>
	<g>
		<path class="st1" d="M249.88,420.41h-40.61l-25.33-40.61l-25.06,40.61h-39.72l43.1-66.47l-40.52-63.45h38.92l23.46,40.17
			l22.57-40.17h40.08l-41.15,66.21L249.88,420.41z"/>
		<path class="st1" d="M358.74,331.81c0,14.52-4.28,25.73-12.84,33.64c-8.56,7.91-20.72,11.86-36.48,11.86h-9.86v43.1h-35.1V290.49
			h44.97c16.41,0,28.73,3.58,36.97,10.75C354.62,308.41,358.74,318.6,358.74,331.81z M299.56,348.69h6.4
			c5.27,0,9.46-1.48,12.58-4.44c3.11-2.96,4.67-7.05,4.67-12.26c0-8.77-4.86-13.15-14.57-13.15h-9.06V348.69z"/>
		<path class="st1" d="M464.4,380.95c0,8.06-2.04,15.21-6.13,21.46c-4.09,6.25-9.98,11.11-17.68,14.57c-7.7,3.47-16.74,5.2-27.1,5.2
			c-8.65,0-15.91-0.61-21.77-1.82c-5.87-1.21-11.97-3.33-18.31-6.35v-31.28c6.69,3.44,13.66,6.12,20.88,8.04
			c7.23,1.93,13.86,2.89,19.91,2.89c5.21,0,9.03-0.9,11.46-2.71c2.43-1.81,3.64-4.13,3.64-6.98c0-1.78-0.49-3.33-1.47-4.67
			c-0.98-1.33-2.55-2.68-4.71-4.04c-2.16-1.36-7.92-4.15-17.28-8.35c-8.47-3.85-14.83-7.58-19.06-11.2
			c-4.24-3.61-7.38-7.76-9.42-12.44c-2.04-4.68-3.07-10.22-3.07-16.62c0-11.97,4.35-21.3,13.06-27.99
			c8.71-6.69,20.68-10.04,35.9-10.04c13.45,0,27.16,3.11,41.15,9.33l-10.75,27.1c-12.15-5.57-22.63-8.35-31.46-8.35
			c-4.56,0-7.88,0.8-9.95,2.4c-2.07,1.6-3.11,3.58-3.11,5.95c0,2.55,1.32,4.83,3.96,6.84c2.63,2.01,9.79,5.69,21.46,11.02
			c11.2,5.04,18.97,10.44,23.33,16.22C462.23,364.91,464.4,372.18,464.4,380.95z"/>
	</g>
</g>
<g>
</g>
<g>
</g>
<g>
</g>
<g>
</g>
<g>
</g>
</svg>
