<svg version="1.1" id="Layer_1" xmlns="http://www.w3.org/2000/svg" x="0" y="0" viewBox="0 0 512 512" style="enable-background:new 0 0 512 512" xml:space="preserve"><style>.st0{fill-rule:evenodd;clip-rule:evenodd;fill:#3391c9}</style><g id="Rewriter"><path class="st0" d="M305.6 149.9H143.9c-14.9 0-26.9-12-26.9-26.9 0-14.9 12-26.9 26.9-26.9h161.7c14.9 0 26.9 12 26.9 26.9 0 14.9-12 26.9-26.9 26.9zM247.4 239.9H145.1c-14.9 0-26.9-12-26.9-26.9 0-14.9 12-26.9 26.9-26.9h102.3c14.9 0 26.9 12 26.9 26.9 0 14.9-12 26.9-26.9 26.9z"/><path d="M317.6 425.6H195.8c-43.4 0-78.7-33.9-78.7-75.6s35.3-75.6 78.7-75.6h215c12.2 0 22 9.9 22 22 0 12.2-9.9 22-22 22h-215c-19.2 0-34.7 14.2-34.7 31.6 0 17.4 15.6 31.6 34.7 31.6h121.9c12.2 0 22 9.9 22 22s-9.9 22-22.1 22z" style="fill:#3391c9"/><path class="st0" d="m438.6 310.5-60-60c-8.6-8.6-8.6-22.5 0-31.1 8.6-8.6 22.5-8.6 31.1 0l60 60c8.6 8.6 8.6 22.5 0 31.1-8.5 8.6-22.5 8.6-31.1 0z"/><path class="st0" d="m409.8 372.3 60-60c8.6-8.6 8.6-22.5 0-31.1-8.6-8.6-22.5-8.6-31.1 0l-60 60c-8.6 8.6-8.6 22.5 0 31.1 8.6 8.6 22.5 8.6 31.1 0z"/><path class="st0" d="M358 444.6c-4.5 5.7-11.5 9.4-19.4 9.4H113.4C100 454 89 443.3 89 430.1V81.9C89 68.7 100 58 113.4 58h225.2C352 58 363 68.7 363 81.9V165.7h53.2V81.9C416.2 40 381.4 6 338.6 6H113.4C70.6 6 35.8 40 35.8 81.9v348.3c0 41.8 34.8 75.9 77.6 75.9h225.2c37.7 0 69.2-26.5 76.2-61.4H358z"/></g></svg>