<?xml version="1.0" encoding="utf-8"?>
<!-- Generator: Adobe Illustrator 25.0.1, SVG Export Plug-In . SVG Version: 6.00 Build 0)  -->
<svg version="1.1" id="Translation" xmlns="http://www.w3.org/2000/svg" xmlns:xlink="http://www.w3.org/1999/xlink" x="0px"
	 y="0px" viewBox="0 0 512 512" style="enable-background:new 0 0 512 512;" xml:space="preserve">
<style type="text/css">
	.st0{fill:#3890C8;}
	.st1{fill:#3790CA;}
</style>
<g id="PDF">
	<g>
		<path class="st0" d="M243.5,318.1c0,16-4.7,28.3-14.1,37c-9.4,8.7-22.8,13-40.1,13h-10.8v47.4h-38.6V272.7h49.4
			c18,0,31.6,3.9,40.6,11.8C238.9,292.4,243.5,303.6,243.5,318.1z M178.4,336.7h7c5.8,0,10.4-1.6,13.8-4.9c3.4-3.3,5.1-7.7,5.1-13.5
			c0-9.6-5.3-14.5-16-14.5h-10V336.7z"/>
		<path class="st0" d="M387.4,341.1c0,23.8-6.6,42.2-19.7,55.1c-13.1,12.9-31.6,19.3-55.3,19.3h-46.2V272.7h49.4
			c22.9,0,40.6,5.9,53.1,17.6C381.2,302,387.4,319,387.4,341.1z M347.4,342.5c0-13.1-2.6-22.8-7.8-29.1c-5.2-6.3-13-9.5-23.6-9.5
			h-11.2v80h8.6c11.7,0,20.3-3.4,25.8-10.2C344.6,366.9,347.4,356.5,347.4,342.5z"/>
		<path class="st0" d="M451,415.5h-38V272.7h84.4v31H451v27.2h42.8v31H451V415.5z"/>
	</g>
	<g>
		<g>
			<path class="st1" d="M303.2,457H79.6c-13.3,0-24.2-10.9-24.2-24.2V79.2C55.4,65.9,66.3,55,79.6,55h223.6
				c13.3,0,24.2,10.9,24.2,24.2V188l52.8-34.1l0,0V79.2c0-42.5-34.6-77-77-77H79.6c-42.5,0-77,34.6-77,77v353.6
				c0,42.5,34.6,77,77,77h223.6c37.4,0,68.7-26.9,75.6-62.3h-56.4C318,453.3,311,457,303.2,457z"/>
		</g>
		<g>
			<g>
				<polyline class="st1" points="202.4,90.5 173.4,90.5 173.4,106.5 118.4,106.5 118.4,135.5 203.7,135.5 257.4,135.5 257.4,106.5 
					202.4,106.5 202.4,90.5 173.4,90.5 				"/>
			</g>
			<g>
				<path class="st1" d="M233.6,135.5c0,0-8.7,19.4-13.8,27.7c-6.7,11.1-12.2,17.9-12.2,17.9l18.1,18.3l-11,29.5l-15.6-15.3
					l-10.7-11.7l-1.3,1.4l-15.3,15.3l-24.2,23l-21.3-21.3l13-11.7l9.7-9.3l17-18l1.5-1.8c0,0-10.2-12.9-13.5-18.9
					c-3.3-6-8-14.3-9.3-17.7c-1.3-3.3-1.6-4.2-1.6-4.2l30.5-0.2l6.1,12l4,6.6l2.2,3.5l2,2.6c0,0,0,0,2.3-3.7
					c5.3-8.5,5.3-8.5,8.1-13.5c1.9-3.5,5.1-10.5,5.1-10.5H233.6"/>
			</g>
		</g>
	</g>
</g>
</svg>
