<?xml version="1.0" encoding="utf-8"?>
<!-- Generator: Adobe Illustrator 25.0.1, SVG Export Plug-In . SVG Version: 6.00 Build 0)  -->
<svg version="1.1" id="Layer_1" xmlns="http://www.w3.org/2000/svg" xmlns:xlink="http://www.w3.org/1999/xlink" x="0px" y="0px"
	 viewBox="0 0 512 512" style="enable-background:new 0 0 512 512;" xml:space="preserve">
<style type="text/css">
	.st0{fill:#3A8FC7;}
	.st1{fill:#3593C9;}
	.st2{fill:#3593CB;}
</style>
<g id="PPTX">
	<g>
		<path class="st0" d="M331,440H179.7c-10,0-18.5-6.1-22.2-14.8h-53.3c4.6,37.6,36.6,66.8,75.4,66.8h164.5
			c-8.8-10-14.3-24.2-14.3-39.8C329.9,448,330.3,443.9,331,440z"/>
		<path class="st0" d="M384.7,20h-205c-41.9,0-76,34.1-76,76v158.7h52V96c0-13.2,10.8-24,24-24h205c13.2,0,24,10.8,24,24v134
			c21.3,3.2,39.9,16.5,52,35.6V96C460.7,54.1,426.6,20,384.7,20z"/>
	</g>
	<g>
		<path class="st1" d="M282,158c-22.2,0-44.3,0.1-66.5,0c-11-0.1-20.4-6.8-24.2-17c-3.7-10-1-20.9,7.1-28.2
			c4.8-4.3,10.4-6.6,16.8-6.6c44.7,0,89.3-0.1,134,0c14.2,0,25.6,11.9,25.5,26.1c-0.1,14.2-11.4,25.7-25.7,25.8
			C326.6,158.1,304.3,158,282,158z"/>
		<path class="st2" d="M373.1,234.2c-9.8,4.4-18.3,10.4-26,17.7c-16.4,0-32.7,0-49,0c-27.5,0-54.9,0.1-82.4,0
			c-20-0.1-32.4-21.1-22.8-38.4c4.7-8.5,12.2-13.4,21.9-13.4c44.9-0.2,89.9-0.2,134.8,0C366.9,200.2,378.5,217.3,373.1,234.2z"/>
	</g>
	<g id="Conversion_5_">
		<path class="st0" d="M496.2,353l-80.1-80.1c-11.7-11.7-30.8-11.7-42.5,0c-11.7,11.7-11.7,30.8,0,42.5l59.9,59.9l-59.9,59.9
			c-11.7,11.7-11.7,30.8,0,42.5c11.7,11.7,30.8,11.7,42.5,0l80.1-80.1c6.2-6.2,9.1-14.3,8.8-22.4C505.3,367.3,502.4,359.2,496.2,353
			z"/>
	</g>
	<g>
		<path class="st0" d="M76.8,327.8c0,10.8-3.2,19.1-9.5,25c-6.4,5.9-15.4,8.8-27.1,8.8h-7.3v32h-26v-96.4h33.4
			c12.2,0,21.3,2.7,27.4,8C73.7,310.4,76.8,318,76.8,327.8z M32.9,340.3h4.7c3.9,0,7-1.1,9.3-3.3c2.3-2.2,3.5-5.2,3.5-9.1
			c0-6.5-3.6-9.8-10.8-9.8h-6.7V340.3z"/>
		<path class="st0" d="M162.1,327.8c0,10.8-3.2,19.1-9.5,25c-6.4,5.9-15.4,8.8-27.1,8.8h-7.3v32h-26v-96.4h33.4
			c12.2,0,21.3,2.7,27.4,8C159,310.4,162.1,318,162.1,327.8z M118.2,340.3h4.7c3.9,0,7-1.1,9.3-3.3c2.3-2.2,3.5-5.2,3.5-9.1
			c0-6.5-3.6-9.8-10.8-9.8h-6.7V340.3z"/>
		<path class="st0" d="M220,393.5h-26v-75.1h-23.5v-21.3h73v21.3H220V393.5z"/>
		<path class="st0" d="M344,393.5h-30.1l-18.8-30.1l-18.6,30.1h-29.5l32-49.3L249,297.1h28.9l17.4,29.8l16.7-29.8h29.7l-30.5,49.1
			L344,393.5z"/>
	</g>
</g>
</svg>
