<?xml version="1.0" encoding="utf-8"?>
<!-- Generator: Adobe Illustrator 25.0.1, SVG Export Plug-In . SVG Version: 6.00 Build 0)  -->
<svg version="1.1" id="Layer_1" xmlns="http://www.w3.org/2000/svg" xmlns:xlink="http://www.w3.org/1999/xlink" x="0px" y="0px"
	 viewBox="0 0 512 512" style="enable-background:new 0 0 512 512;" xml:space="preserve">
<style type="text/css">
	.st0{fill-rule:evenodd;clip-rule:evenodd;fill:#3A8FC6;}
</style>
<g id="Viewer_1_">
	<path class="st0" d="M256,163.96c-49.18,0-89.05,39.78-89.05,88.87c0,49.08,39.87,88.88,89.05,88.88
		c49.19,0,89.06-39.8,89.06-88.88C345.06,203.74,305.19,163.96,256,163.96z M256,290.92c-21.08,0-38.17-17.05-38.17-38.09
		c0-21.04,17.09-38.09,38.17-38.09c21.08,0,38.16,17.05,38.16,38.09C294.16,273.87,277.07,290.92,256,290.92z M256,100.45
		C87.79,100.45,7.91,252.83,7.91,252.83s80.03,158.72,254.46,158.72c174.42,0,241.73-158.72,241.73-158.72S424.21,100.45,256,100.45
		z M261.18,371.99C119,371.99,53.77,253.63,53.77,253.63s65.11-113.6,202.22-113.6c137.12,0,202.24,113.6,202.24,113.6
		S403.37,371.99,261.18,371.99z"/>
</g>
<g>
</g>
<g>
</g>
<g>
</g>
<g>
</g>
<g>
</g>
</svg>
