<?xml version="1.0" encoding="utf-8"?>
<!-- Generator: Adobe Illustrator 25.0.1, SVG Export Plug-In . SVG Version: 6.00 Build 0)  -->
<svg version="1.1" id="Layer_1" xmlns="http://www.w3.org/2000/svg" xmlns:xlink="http://www.w3.org/1999/xlink" x="0px" y="0px"
	 viewBox="0 0 512 512" style="enable-background:new 0 0 512 512;" xml:space="preserve">
<style type="text/css">
	.st0{fill:#3A8FC7;}
	.st1{fill:#3593C9;}
	.st2{fill:#3593CB;}
</style>
<g id="MSG">
	<g>
		<path class="st0" d="M329,440H177.6c-10,0-18.5-6.1-22.2-14.8h-53.3c4.6,37.6,36.6,66.8,75.4,66.8h164.5
			c-8.8-10-14.3-24.2-14.3-39.8C327.8,448,328.2,443.9,329,440z"/>
		<path class="st0" d="M382.6,20h-205c-41.9,0-76,34.1-76,76v158.7h52V96c0-13.2,10.8-24,24-24h205c13.2,0,24,10.8,24,24v134
			c21.3,3.2,39.9,16.5,52,35.6V96C458.6,54.1,424.5,20,382.6,20z"/>
	</g>
	<g>
		<path class="st1" d="M279.9,158c-22.2,0-44.3,0.1-66.5,0c-11-0.1-20.4-6.8-24.2-17c-3.7-10-1-20.9,7.1-28.2
			c4.8-4.3,10.4-6.6,16.8-6.6c44.7,0,89.3-0.1,134,0c14.2,0,25.6,11.9,25.5,26.1c-0.1,14.2-11.4,25.7-25.7,25.8
			C324.6,158.1,302.2,158,279.9,158z"/>
		<path class="st2" d="M371.1,234.2c-9.8,4.4-18.3,10.4-26,17.7c-16.4,0-32.7,0-49,0c-27.5,0-54.9,0.1-82.4,0
			c-20-0.1-32.4-21.1-22.8-38.4c4.7-8.5,12.2-13.4,21.9-13.4c44.9-0.2,89.9-0.2,134.8,0C364.8,200.2,376.5,217.3,371.1,234.2z"/>
	</g>
	<g id="Conversion_2_">
		<path class="st0" d="M494.1,353l-80.1-80.1c-11.7-11.7-30.8-11.7-42.5,0c-11.7,11.7-11.7,30.8,0,42.5l59.9,59.9l-59.9,59.9
			c-11.7,11.7-11.7,30.8,0,42.5c11.7,11.7,30.8,11.7,42.5,0l80.1-80.1c6.2-6.2,9.1-14.3,8.8-22.4C503.2,367.3,500.3,359.2,494.1,353
			z"/>
	</g>
	<g>
		<path class="st0" d="M54.2,398.5L33,324h-0.6c1,12.7,1.5,22.6,1.5,29.6v45H9.1V295h37.2l21.6,73.5h0.6L89.6,295h37.3v103.5h-25.7
			v-45.4c0-2.4,0-5,0.1-7.9c0.1-2.9,0.4-9.9,1-21.2h-0.6l-20.9,74.4H54.2z"/>
		<path class="st0" d="M216.9,367.1c0,6.4-1.6,12.1-4.9,17.1c-3.3,5-8,8.8-14.1,11.6c-6.1,2.8-13.3,4.1-21.6,4.1
			c-6.9,0-12.7-0.5-17.3-1.5s-9.5-2.7-14.6-5.1v-24.9c5.3,2.7,10.9,4.9,16.6,6.4c5.8,1.5,11,2.3,15.9,2.3c4.2,0,7.2-0.7,9.1-2.2
			c1.9-1.4,2.9-3.3,2.9-5.6c0-1.4-0.4-2.7-1.2-3.7c-0.8-1.1-2-2.1-3.8-3.2c-1.7-1.1-6.3-3.3-13.8-6.7c-6.8-3.1-11.8-6-15.2-8.9
			c-3.4-2.9-5.9-6.2-7.5-9.9c-1.6-3.7-2.4-8.1-2.4-13.2c0-9.5,3.5-17,10.4-22.3c6.9-5.3,16.5-8,28.6-8c10.7,0,21.6,2.5,32.8,7.4
			l-8.6,21.6c-9.7-4.4-18-6.7-25.1-6.7c-3.6,0-6.3,0.6-7.9,1.9c-1.7,1.3-2.5,2.9-2.5,4.7c0,2,1,3.8,3.2,5.5
			c2.1,1.6,7.8,4.5,17.1,8.8c8.9,4,15.1,8.3,18.6,12.9C215.2,354.3,216.9,360.1,216.9,367.1z"/>
		<path class="st0" d="M274.5,337.9h44.7v55.8c-12.1,4.2-25.5,6.2-40,6.2c-16,0-28.3-4.6-37-13.9c-8.7-9.3-13.1-22.4-13.1-39.6
			c0-16.7,4.8-29.7,14.3-39c9.5-9.3,22.9-13.9,40.1-13.9c6.5,0,12.7,0.6,18.4,1.8c5.8,1.2,10.8,2.8,15.1,4.7l-8.9,21.9
			c-7.5-3.7-15.6-5.5-24.6-5.5c-8.2,0-14.5,2.7-18.9,8c-4.5,5.3-6.7,12.9-6.7,22.8c0,9.7,2,17.1,6.1,22.1c4,5.1,9.9,7.6,17.5,7.6
			c4.2,0,8-0.4,11.5-1.2v-16.2h-18.5V337.9z"/>
	</g>
</g>
</svg>
