<?xml version="1.0" encoding="utf-8"?>
<!-- Generator: Adobe Illustrator 25.0.1, SVG Export Plug-In . SVG Version: 6.00 Build 0)  -->
<svg version="1.1" id="Layer_1" xmlns="http://www.w3.org/2000/svg" xmlns:xlink="http://www.w3.org/1999/xlink" x="0px" y="0px"
	 viewBox="0 0 272 272" style="enable-background:new 0 0 272 272;" xml:space="preserve">
<style type="text/css">
	.st0{fill-rule:evenodd;clip-rule:evenodd;fill:#FFFFFF;}
	.st1{fill:#0068B3;}
	.st2{fill-rule:evenodd;clip-rule:evenodd;fill:#0068B3;}
</style>
<g id="Total_1_">
	<g>
		<circle class="st0" cx="136" cy="136" r="127.6"/>
		<path class="st1" d="M136,267.5c-72.5,0-131.5-59-131.5-131.5C4.5,63.5,63.5,4.5,136,4.5s131.5,59,131.5,131.5
			C267.5,208.5,208.5,267.5,136,267.5z M136,12.2C67.7,12.2,12.2,67.7,12.2,136S67.7,259.8,136,259.8c68.3,0,123.8-55.5,123.8-123.8
			S204.3,12.2,136,12.2z"/>
	</g>
	<g>
		<g id="XMLID_1_">
			<path class="st2" d="M136,80.4l-53.5,26.7l53.5,26.7l53.5-26.7L136,80.4z M136,147.2l-79.9-40l79.9-40l79.9,40L136,147.2z
				 M136,161.2l64-32l16,8l-79.9,40l-79.9-40l16-8L136,161.2z M72,159.2l64,32l64-32l16,8l-79.9,40l-79.9-40L72,159.2z"/>
		</g>
	</g>
</g>
</svg>
