<?xml version="1.0" encoding="utf-8"?>
<!-- Generator: Adobe Illustrator 25.0.1, SVG Export Plug-In . SVG Version: 6.00 Build 0)  -->
<svg version="1.1" id="Layer_1" xmlns="http://www.w3.org/2000/svg" xmlns:xlink="http://www.w3.org/1999/xlink" x="0px" y="0px"
	 viewBox="0 0 512 512" style="enable-background:new 0 0 512 512;" xml:space="preserve">
<style type="text/css">
	.st0{fill:#3A8FC7;}
	.st1{fill:#3593C9;}
	.st2{fill:#3593CB;}
</style>
<g id="MPP">
	<g>
		<path class="st0" d="M328.9,440H177.5c-10,0-18.5-6.1-22.2-14.8h-53.3c4.6,37.6,36.6,66.8,75.4,66.8h164.5
			c-8.8-10-14.3-24.2-14.3-39.8C327.7,448,328.1,443.9,328.9,440z"/>
		<path class="st0" d="M382.5,20h-205c-41.9,0-76,34.1-76,76v158.7h52V96c0-13.2,10.8-24,24-24h205c13.2,0,24,10.8,24,24v134
			c21.3,3.2,39.9,16.5,52,35.6V96C458.5,54.1,424.4,20,382.5,20z"/>
	</g>
	<g>
		<path class="st1" d="M279.8,158c-22.2,0-44.3,0.1-66.5,0c-11-0.1-20.4-6.8-24.2-17c-3.7-10-1-20.9,7.1-28.2
			c4.8-4.3,10.4-6.6,16.8-6.6c44.7,0,89.3-0.1,134,0c14.2,0,25.6,11.9,25.5,26.1c-0.1,14.2-11.4,25.7-25.7,25.8
			C324.4,158.1,302.1,158,279.8,158z"/>
		<path class="st2" d="M370.9,234.2c-9.8,4.4-18.3,10.4-26,17.7c-16.4,0-32.7,0-49,0c-27.5,0-54.9,0.1-82.4,0
			c-20-0.1-32.4-21.1-22.8-38.4c4.7-8.5,12.2-13.4,21.9-13.4c44.9-0.2,89.9-0.2,134.8,0C364.7,200.2,376.3,217.3,370.9,234.2z"/>
	</g>
	<g id="Conversion_1_">
		<path class="st0" d="M494,353l-80.1-80.1c-11.7-11.7-30.8-11.7-42.5,0c-11.7,11.7-11.7,30.8,0,42.5l59.9,59.9l-59.9,59.9
			c-11.7,11.7-11.7,30.8,0,42.5c11.7,11.7,30.8,11.7,42.5,0l80.1-80.1c6.2-6.2,9.1-14.3,8.8-22.4C503.1,367.3,500.2,359.2,494,353z"
			/>
	</g>
	<g>
		<path class="st0" d="M54.3,394.2l-21.2-74.6h-0.6c1,12.7,1.5,22.6,1.5,29.6v45H9.2V290.7h37.2L68,364.1h0.6l21.2-73.5h37.3v103.5
			h-25.7v-45.4c0-2.4,0-5,0.1-7.9c0.1-2.9,0.4-9.9,1-21.2h-0.6l-20.9,74.4H54.3z"/>
		<path class="st0" d="M224.5,323.6c0,11.6-3.4,20.5-10.2,26.8c-6.8,6.3-16.5,9.5-29.1,9.5h-7.9v34.3h-28V290.7h35.8
			c13.1,0,22.9,2.9,29.5,8.6C221.2,304.9,224.5,313,224.5,323.6z M177.3,337h5.1c4.2,0,7.5-1.2,10-3.5c2.5-2.4,3.7-5.6,3.7-9.8
			c0-7-3.9-10.5-11.6-10.5h-7.2V337z"/>
		<path class="st0" d="M316.1,323.6c0,11.6-3.4,20.5-10.2,26.8c-6.8,6.3-16.5,9.5-29.1,9.5h-7.9v34.3h-28V290.7h35.8
			c13.1,0,22.9,2.9,29.5,8.6C312.8,304.9,316.1,313,316.1,323.6z M268.9,337h5.1c4.2,0,7.5-1.2,10-3.5c2.5-2.4,3.7-5.6,3.7-9.8
			c0-7-3.9-10.5-11.6-10.5h-7.2V337z"/>
	</g>
</g>
</svg>
