<?xml version="1.0" encoding="utf-8"?>
<!-- Generator: Adobe Illustrator 25.0.1, SVG Export Plug-In . SVG Version: 6.00 Build 0)  -->
<svg version="1.1" id="Layer_1" xmlns="http://www.w3.org/2000/svg" xmlns:xlink="http://www.w3.org/1999/xlink" x="0px" y="0px"
	 viewBox="0 0 512 512" style="enable-background:new 0 0 512 512;" xml:space="preserve">
<style type="text/css">
	.st0{fill:#3A8FC7;}
</style>
<g id="Classification">
	<path class="st0" d="M126,161.6h104v-55.5H124.4c-14.9,0-26.9,12-26.9,26.9v0C97.5,148.8,110.2,161.6,126,161.6z"/>
	<path class="st0" d="M126,256.9h104v-55.5H124.4c-14.9,0-26.9,12-26.9,26.9v0C97.5,244.1,110.2,256.9,126,256.9z"/>
	<g>
		<g>
			<path class="st0" d="M289.8,348.2c-28.1,0-51-22.9-51-51s22.9-51,51-51c28.1,0,51,22.9,51,51S317.9,348.2,289.8,348.2z
				 M289.8,264.4c-18.1,0-32.8,14.7-32.8,32.8c0,18.1,14.7,32.8,32.8,32.8c18.1,0,32.8-14.7,32.8-32.8
				C322.6,279.1,307.9,264.4,289.8,264.4z"/>
		</g>
		<g>
			<path class="st0" d="M424.8,255.8c-31.1,0-56.3-25.3-56.3-56.3s25.3-56.3,56.3-56.3c31.1,0,56.3,25.3,56.3,56.3
				S455.8,255.8,424.8,255.8z M424.8,161.4c-21,0-38.1,17.1-38.1,38.1s17.1,38.1,38.1,38.1s38.1-17.1,38.1-38.1
				S445.8,161.4,424.8,161.4z"/>
		</g>
		<g>
			<path class="st0" d="M279.9,171.5c-22,0-39.9-17.9-39.9-39.9s17.9-39.9,39.9-39.9s39.9,17.9,39.9,39.9S301.9,171.5,279.9,171.5z
				 M279.9,104.7c-14.8,0-26.9,12.1-26.9,26.9s12.1,26.9,26.9,26.9c14.8,0,26.9-12.1,26.9-26.9S294.7,104.7,279.9,104.7z"/>
		</g>
		<g>
			<path class="st0" d="M445.6,420.8c-25,0-45.4-20.4-45.4-45.4c0-25,20.4-45.4,45.4-45.4s45.4,20.4,45.4,45.4
				C491,400.4,470.6,420.8,445.6,420.8z M445.6,348.2c-15,0-27.2,12.2-27.2,27.2c0,15,12.2,27.2,27.2,27.2c15,0,27.2-12.2,27.2-27.2
				C472.8,360.4,460.6,348.2,445.6,348.2z"/>
		</g>
		<g>
			<path class="st0" d="M149.9,360.1c-20,0-36.2-16.2-36.2-36.2s16.2-36.2,36.2-36.2c20,0,36.2,16.2,36.2,36.2
				S169.9,360.1,149.9,360.1z M149.9,300.7c-12.8,0-23.2,10.4-23.2,23.2s10.4,23.2,23.2,23.2s23.2-10.4,23.2-23.2
				S162.7,300.7,149.9,300.7z"/>
		</g>
		<g>
			<path class="st0" d="M305.5,497.4c-23,0-41.8-18.7-41.8-41.8s18.7-41.8,41.8-41.8c23,0,41.8,18.7,41.8,41.8
				S328.5,497.4,305.5,497.4z M305.5,429.5c-14.4,0-26.2,11.7-26.2,26.2s11.7,26.2,26.2,26.2c14.4,0,26.2-11.7,26.2-26.2
				S319.9,429.5,305.5,429.5z"/>
		</g>
		<g>
			
				<rect x="275.7" y="165" transform="matrix(0.999 -4.361646e-02 4.361646e-02 0.999 -8.8909 12.6771)" class="st0" width="20.8" height="90.3"/>
		</g>
		<g>
			
				<rect x="289.3" y="336.9" transform="matrix(0.9977 -6.787572e-02 6.787572e-02 0.9977 -25.1173 21.2227)" class="st0" width="20.8" height="86.6"/>
		</g>
		<g>
			
				<rect x="203.5" y="267.5" transform="matrix(0.2554 0.9668 -0.9668 0.2554 457.5763 22.9835)" class="st0" width="20.8" height="82.1"/>
		</g>
		<g>
			
				<rect x="345.3" y="211.6" transform="matrix(0.631 0.7757 -0.7757 0.631 327.2214 -182.7003)" class="st0" width="20.8" height="82.1"/>
		</g>
		<g>
			
				<rect x="357.3" y="295.4" transform="matrix(-0.4065 0.9136 -0.9136 -0.4065 827.1335 141.058)" class="st0" width="20.8" height="87.6"/>
		</g>
	</g>
	<path class="st0" d="M250.4,445.1H94.9c-12.5,0-22.7-10.1-22.7-22.5V88.1c0-12.4,10.2-22.5,22.7-22.5H309
		c12.5,0,22.7,10.1,22.7,22.5v50.7h51.2V88.1c0-40.5-33.2-73.5-73.9-73.5H94.9C54.2,14.6,21,47.6,21,88.1v334.4
		C21,463,54.2,496,94.9,496h155.4V445.1z"/>
</g>
</svg>
