<?xml version="1.0" encoding="utf-8"?>
<!-- Generator: Adobe Illustrator 25.0.1, SVG Export Plug-In . SVG Version: 6.00 Build 0)  -->
<svg version="1.1" id="Layer_1" xmlns="http://www.w3.org/2000/svg" xmlns:xlink="http://www.w3.org/1999/xlink" x="0px" y="0px"
	 viewBox="0 0 512 512" style="enable-background:new 0 0 512 512;" xml:space="preserve">
<style type="text/css">
	.st0{fill:#3A8FC6;}
	.st1{display:none;}
	.st2{display:inline;fill:#3A8FC6;}
</style>
<g id="Word">
	<path class="st0" d="M265,123.2c0,25.5-20.6,46.1-46.1,46.1h-161c-25.5,0-46.1-20.6-46.1-46.1l0,0c0-25.5,20.6-46.1,46.1-46.1h161
		C244.4,77.1,265,97.7,265,123.2L265,123.2z"/>
	<path class="st0" d="M409.7,256c0,25.5-20.6,46.1-46.1,46.1H57.9c-25.5,0-46.1-20.6-46.1-46.1l0,0c0-25.5,20.6-46.1,46.1-46.1
		h305.7C389.1,209.9,409.7,230.5,409.7,256L409.7,256z"/>
	<path class="st0" d="M500.2,388.8c0,25.5-20.6,46.1-46.1,46.1H57.9c-25.5,0-46.1-20.6-46.1-46.1l0,0c0-25.5,20.6-46.1,46.1-46.1
		h396.1C479.5,342.7,500.2,363.3,500.2,388.8L500.2,388.8z"/>
	<g class="st1">
		<path class="st2" d="M357.8,77.1l9.5,48.5c2.4,12.4,4.9,25.5,6.8,39.1h0.5c2.4-13.6,5.8-27.2,8.7-38.8l12.6-48.8H425l11.9,47.3
			c3.2,13.3,6.3,26.7,8.7,40.3h0.5c1.7-13.6,4.1-26.9,6.8-40.5l10.2-47.1h36.2l-36.4,118.7h-34.7L417,154
			c-2.9-11.6-5.1-22.3-7.5-36.9H409c-2.2,14.8-4.6,25.7-7.8,36.9l-11.9,41.7h-34.7L320.2,77.1H357.8z"/>
	</g>
	<g>
		<path class="st0" d="M384.9,185.7h-69.9V68h69.9v25.5h-38.1V112H382v25.5h-35.3v22.2h38.1V185.7z"/>
	</g>
</g>
</svg>
