<?xml version="1.0" encoding="utf-8"?>
<!-- Generator: Adobe Illustrator 25.0.1, SVG Export Plug-In . SVG Version: 6.00 Build 0)  -->
<svg version="1.1" id="Layer_1" xmlns="http://www.w3.org/2000/svg" xmlns:xlink="http://www.w3.org/1999/xlink" x="0px" y="0px"
	 viewBox="0 0 512 512" style="enable-background:new 0 0 512 512;" xml:space="preserve">
<style type="text/css">
	.st0{fill:#3A8FC7;}
	.st1{fill:#3593C9;}
	.st2{fill:#3593CB;}
</style>
<g id="PNG">
	<g>
		<path class="st0" d="M329.1,440H177.8c-10,0-18.5-6.1-22.2-14.8h-53.3c4.6,37.6,36.6,66.8,75.4,66.8h164.5
			c-8.8-10-14.3-24.2-14.3-39.8C328,448,328.4,443.9,329.1,440z"/>
		<path class="st0" d="M382.8,20h-205c-41.9,0-76,34.1-76,76v158.7h52V96c0-13.2,10.8-24,24-24h205c13.2,0,24,10.8,24,24v134
			c21.3,3.2,39.9,16.5,52,35.6V96C458.8,54.1,424.7,20,382.8,20z"/>
	</g>
	<g>
		<path class="st1" d="M280.1,158c-22.2,0-44.3,0.1-66.5,0c-11-0.1-20.4-6.8-24.2-17c-3.7-10-1-20.9,7.1-28.2
			c4.8-4.3,10.4-6.6,16.8-6.6c44.7,0,89.3-0.1,134,0c14.2,0,25.6,11.9,25.5,26.1c-0.1,14.2-11.4,25.7-25.7,25.8
			C324.7,158.1,302.4,158,280.1,158z"/>
		<path class="st2" d="M371.2,234.2c-9.8,4.4-18.3,10.4-26,17.7c-16.4,0-32.7,0-49,0c-27.5,0-54.9,0.1-82.4,0
			c-20-0.1-32.4-21.1-22.8-38.4c4.7-8.5,12.2-13.4,21.9-13.4c44.9-0.2,89.9-0.2,134.8,0C365,200.2,376.6,217.3,371.2,234.2z"/>
	</g>
	<g id="Conversion_4_">
		<path class="st0" d="M494.3,353l-80.1-80.1c-11.7-11.7-30.8-11.7-42.5,0c-11.7,11.7-11.7,30.8,0,42.5l59.9,59.9l-59.9,59.9
			c-11.7,11.7-11.7,30.8,0,42.5c11.7,11.7,30.8,11.7,42.5,0l80.1-80.1c6.2-6.2,9.1-14.3,8.8-22.4C503.4,367.3,500.5,359.2,494.3,353
			z"/>
	</g>
	<g>
		<path class="st0" d="M84,327.9c0,11.6-3.4,20.5-10.2,26.8c-6.8,6.3-16.5,9.5-29.1,9.5h-7.9v34.3h-28V295h35.8
			c13.1,0,22.9,2.9,29.5,8.6C80.7,309.3,84,317.4,84,327.9z M36.8,341.4h5.1c4.2,0,7.5-1.2,10-3.5c2.5-2.4,3.7-5.6,3.7-9.8
			c0-7-3.9-10.5-11.6-10.5h-7.2V341.4z"/>
		<path class="st0" d="M199.1,398.5h-36.7l-37.8-72.9h-0.6c0.9,11.5,1.3,20.2,1.3,26.3v46.7h-24.8V295H137l37.7,71.9h0.4
			c-0.7-10.4-1-18.8-1-25.1V295h24.9V398.5z"/>
		<path class="st0" d="M263,337.9h44.7v55.8c-12.1,4.2-25.5,6.2-40,6.2c-16,0-28.3-4.6-37-13.9c-8.7-9.3-13.1-22.4-13.1-39.6
			c0-16.7,4.8-29.7,14.3-39c9.5-9.3,22.9-13.9,40.1-13.9c6.5,0,12.7,0.6,18.4,1.8c5.8,1.2,10.8,2.8,15.1,4.7l-8.9,21.9
			c-7.5-3.7-15.6-5.5-24.6-5.5c-8.2,0-14.5,2.7-18.9,8c-4.5,5.3-6.7,12.9-6.7,22.8c0,9.7,2,17.1,6.1,22.1c4,5.1,9.9,7.6,17.5,7.6
			c4.2,0,8-0.4,11.5-1.2v-16.2H263V337.9z"/>
	</g>
</g>
</svg>
