<?xml version="1.0" encoding="utf-8"?>
<!-- Generator: Adobe Illustrator 25.0.1, SVG Export Plug-In . SVG Version: 6.00 Build 0)  -->
<svg version="1.1" id="Layer_1" xmlns="http://www.w3.org/2000/svg" xmlns:xlink="http://www.w3.org/1999/xlink" x="0px" y="0px"
	 viewBox="0 0 512 512" style="enable-background:new 0 0 512 512;" xml:space="preserve">
<style type="text/css">
	.st0{fill:#3A8FC6;}
</style>
<g id="Parser">
	<path class="st0" d="M307.94,92.8c0-22.59-18.31-40.91-40.91-40.91H49.65c-22.59,0-40.91,18.31-40.91,40.91
		c0,22.59,18.31,40.91,40.91,40.91h217.39C289.63,133.71,307.94,115.39,307.94,92.8z"/>
	<path class="st0" d="M210.19,178.49H49.65c-22.59,0-40.91,18.31-40.91,40.91c0,22.59,18.31,40.91,40.91,40.91h160.55
		c22.59,0,40.91-18.32,40.91-40.91C251.1,196.81,232.78,178.49,210.19,178.49z"/>
	<path class="st0" d="M164.98,294.75H49.65c-22.59,0-40.91,18.32-40.91,40.91c0,22.59,18.31,40.91,40.91,40.91h115.33
		c22.59,0,40.91-18.32,40.91-40.91C205.89,313.07,187.57,294.75,164.98,294.75z"/>
	<path class="st0" d="M473.57,193.53c19.79,16.84,29.69,42.69,29.69,77.57c0,34.88-10.17,60.39-30.5,76.56
		c-20.34,16.16-51.38,24.24-93.12,24.24h-37.57v55.53h-63.02V168.28h99.79C422.19,168.28,453.77,176.7,473.57,193.53z
		 M427.31,304.63c7.54-8.48,11.31-20.87,11.31-37.17c0-16.29-4.92-27.88-14.75-34.74c-9.83-6.87-25.12-10.3-45.85-10.3h-35.96v94.94
		h42.42C405.49,317.36,419.77,313.11,427.31,304.63z"/>
	<path class="st0" d="M310.51,318.87c-17.36,0-31.43,14.07-31.43,31.44v78.37c0,17.36,14.07,31.44,31.43,31.44
		c17.36,0,31.43-14.08,31.43-31.44V350.3C341.95,332.94,327.88,318.87,310.51,318.87z"/>
</g>
<g>
</g>
<g>
</g>
<g>
</g>
<g>
</g>
<g>
</g>
</svg>
