<?xml version="1.0" encoding="utf-8"?>
<!-- Generator: Adobe Illustrator 25.0.1, SVG Export Plug-In . SVG Version: 6.00 Build 0)  -->
<svg version="1.1" id="Layer_1" xmlns="http://www.w3.org/2000/svg" xmlns:xlink="http://www.w3.org/1999/xlink" x="0px" y="0px"
	 viewBox="0 0 512 512" style="enable-background:new 0 0 512 512;" xml:space="preserve">
<style type="text/css">
	.st0{fill:#3A8FC6;}
</style>
<g id="TXT">
	<path class="st0" d="M265,123.2c0,25.5-20.6,46.1-46.1,46.1h-161c-25.5,0-46.1-20.6-46.1-46.1l0,0c0-25.5,20.6-46.1,46.1-46.1h161
		C244.4,77.1,265,97.7,265,123.2L265,123.2z"/>
	<path class="st0" d="M409.7,256c0,25.5-20.6,46.1-46.1,46.1H57.9c-25.5,0-46.1-20.6-46.1-46.1l0,0c0-25.5,20.6-46.1,46.1-46.1
		h305.7C389.1,209.9,409.7,230.5,409.7,256L409.7,256z"/>
	<path class="st0" d="M500.2,388.8c0,25.5-20.6,46.1-46.1,46.1H57.9c-25.5,0-46.1-20.6-46.1-46.1l0,0c0-25.5,20.6-46.1,46.1-46.1
		h396.1C479.5,342.7,500.2,363.3,500.2,388.8L500.2,388.8z"/>
	<g>
		<path class="st0" d="M321.1,164.3h-23.1V97.6H277V78.7h64.9v18.9h-20.9V164.3z"/>
		<path class="st0" d="M431.4,164.3h-26.8l-16.7-26.8l-16.5,26.8h-26.2l28.4-43.8l-26.7-41.8h25.7l15.5,26.5l14.9-26.5h26.4
			l-27.1,43.7L431.4,164.3z"/>
		<path class="st0" d="M478.8,164.3h-23.1V97.6h-20.9V78.7h64.9v18.9h-20.9V164.3z"/>
	</g>
</g>
</svg>
