<?xml version="1.0" encoding="utf-8"?>
<!-- Generator: Adobe Illustrator 25.0.1, SVG Export Plug-In . SVG Version: 6.00 Build 0)  -->
<svg version="1.1" id="Translation" xmlns="http://www.w3.org/2000/svg" xmlns:xlink="http://www.w3.org/1999/xlink" x="0px"
	 y="0px" viewBox="0 0 512 512" style="enable-background:new 0 0 512 512;" xml:space="preserve">
<style type="text/css">
	.st0{fill:#3790CA;}
	.st1{fill:#3890C8;}
</style>
<g id="DOCX">
	<g>
		<g>
			<g>
				<path class="st0" d="M303.2,457H79.6c-13.3,0-24.2-10.9-24.2-24.2V79.2C55.4,65.9,66.3,55,79.6,55h223.6
					c13.3,0,24.2,10.9,24.2,24.2V188l52.8-34.1l0,0V79.2c0-42.5-34.6-77-77-77H79.6c-42.5,0-77,34.6-77,77v353.6
					c0,42.5,34.6,77,77,77h223.6c37.4,0,68.7-26.9,75.6-62.3h-56.4C318,453.3,311,457,303.2,457z"/>
			</g>
		</g>
		<g>
			<g>
				<g>
					<polyline class="st0" points="202.4,90.5 173.4,90.5 173.4,106.5 118.4,106.5 118.4,135.5 203.7,135.5 257.4,135.5 
						257.4,106.5 202.4,106.5 202.4,90.5 173.4,90.5 					"/>
				</g>
			</g>
			<g>
				<g>
					<path class="st0" d="M233.6,135.5c0,0-8.7,19.4-13.8,27.7c-6.7,11.1-12.2,17.9-12.2,17.9l18.1,18.3l-11,29.5l-15.6-15.3
						l-10.7-11.7l-1.3,1.4l-15.3,15.3l-24.2,23l-21.3-21.3l13-11.7l9.7-9.3l17-18l1.5-1.8c0,0-10.2-12.9-13.5-18.9
						c-3.3-6-8-14.3-9.3-17.7c-1.3-3.3-1.6-4.2-1.6-4.2l30.5-0.2l6.1,12l4,6.6l2.2,3.5l2,2.6c0,0,0,0,2.3-3.7
						c5.3-8.5,5.3-8.5,8.1-13.5c1.9-3.5,5.1-10.5,5.1-10.5H233.6"/>
				</g>
			</g>
		</g>
	</g>
	<g>
		<path class="st1" d="M202.6,343c0,16.4-4.5,29.1-13.6,38c-9.1,8.9-21.8,13.3-38.2,13.3h-31.9v-98.5H153c15.8,0,28,4,36.6,12.1
			C198.3,316.1,202.6,327.8,202.6,343z M174.9,344c0-9-1.8-15.7-5.4-20.1c-3.6-4.4-9-6.5-16.3-6.5h-7.7v55.2h5.9
			c8.1,0,14-2.3,17.8-7S174.9,353.6,174.9,344z"/>
		<path class="st1" d="M312.4,345c0,16.6-4.1,29.2-12.2,37.8c-8.1,8.6-20,12.9-35.7,12.9c-15.5,0-27.3-4.3-35.5-13
			c-8.2-8.7-12.4-21.3-12.4-37.9c0-16.4,4.1-28.9,12.3-37.6c8.2-8.6,20.1-13,35.7-13c15.7,0,27.6,4.3,35.6,12.9
			C308.4,315.8,312.4,328.4,312.4,345z M244.6,345c0,19,6.6,28.6,19.9,28.6c6.7,0,11.7-2.3,15-6.9c3.3-4.6,4.9-11.8,4.9-21.6
			c0-9.8-1.7-17.1-5-21.8s-8.2-7-14.8-7C251.3,316.1,244.6,325.8,244.6,345z"/>
		<path class="st1" d="M374.1,316.3c-6.3,0-11.3,2.6-14.8,7.8c-3.5,5.2-5.3,12.3-5.3,21.5c0,19,7.2,28.4,21.6,28.4
			c4.4,0,8.6-0.6,12.7-1.8c4.1-1.2,8.2-2.7,12.3-4.4v22.5c-8.2,3.6-17.5,5.5-27.9,5.5c-14.9,0-26.3-4.3-34.2-12.9
			c-7.9-8.6-11.9-21.1-11.9-37.4c0-10.2,1.9-19.2,5.8-26.9c3.8-7.7,9.4-13.7,16.6-17.8s15.7-6.2,25.4-6.2c10.6,0,20.8,2.3,30.5,6.9
			l-8.2,21c-3.6-1.7-7.3-3.1-10.9-4.3C382.1,316.9,378.2,316.3,374.1,316.3z"/>
		<path class="st1" d="M508.5,394.4h-30.8l-19.2-30.8l-19,30.8h-30.1L442,344l-30.7-48.1h29.5l17.8,30.5l17.1-30.5h30.4l-31.2,50.2
			L508.5,394.4z"/>
	</g>
</g>
</svg>
