<?xml version="1.0" encoding="utf-8"?>
<!-- Generator: Adobe Illustrator 25.0.1, SVG Export Plug-In . SVG Version: 6.00 Build 0)  -->
<svg version="1.1" id="Translation" xmlns="http://www.w3.org/2000/svg" xmlns:xlink="http://www.w3.org/1999/xlink" x="0px"
	 y="0px" viewBox="0 0 512 512" style="enable-background:new 0 0 512 512;" xml:space="preserve">
<style type="text/css">
	.st0{fill:#3790CA;}
	.st1{fill:#3890C8;}
</style>
<g id="XLSX">
	<g>
		<g>
			<g>
				<g>
					<path class="st0" d="M303.2,457H79.6c-13.3,0-24.2-10.9-24.2-24.2V79.2C55.4,65.9,66.3,55,79.6,55h223.6
						c13.3,0,24.2,10.9,24.2,24.2V188l52.8-34.1l0,0V79.2c0-42.5-34.6-77-77-77H79.6c-42.5,0-77,34.6-77,77v353.6
						c0,42.5,34.6,77,77,77h223.6c37.4,0,68.7-26.9,75.6-62.3h-56.4C318,453.3,311,457,303.2,457z"/>
				</g>
			</g>
		</g>
		<g>
			<g>
				<g>
					<g>
						<polyline class="st0" points="202.4,90.5 173.4,90.5 173.4,106.5 118.4,106.5 118.4,135.5 203.7,135.5 257.4,135.5 
							257.4,106.5 202.4,106.5 202.4,90.5 173.4,90.5 						"/>
					</g>
				</g>
			</g>
			<g>
				<g>
					<g>
						<path class="st0" d="M233.6,135.5c0,0-8.7,19.4-13.8,27.7c-6.7,11.1-12.2,17.9-12.2,17.9l18.1,18.3l-11,29.5l-15.6-15.3
							l-10.7-11.7l-1.3,1.4l-15.3,15.3l-24.2,23l-21.3-21.3l13-11.7l9.7-9.3l17-18l1.5-1.8c0,0-10.2-12.9-13.5-18.9
							c-3.3-6-8-14.3-9.3-17.7c-1.3-3.3-1.6-4.2-1.6-4.2l30.5-0.2l6.1,12l4,6.6l2.2,3.5l2,2.6c0,0,0,0,2.3-3.7
							c5.3-8.5,5.3-8.5,8.1-13.5c1.9-3.5,5.1-10.5,5.1-10.5H233.6"/>
					</g>
				</g>
			</g>
		</g>
	</g>
	<g>
		<path class="st1" d="M227,397.5h-33.5L172.6,364L152,397.5h-32.7l35.5-54.8l-33.4-52.3h32.1l19.3,33.1l18.6-33.1h33L190.5,345
			L227,397.5z"/>
		<path class="st1" d="M239,397.5V290.4h28.9v83.7h41.2v23.4H239z"/>
		<path class="st1" d="M396.3,365c0,6.6-1.7,12.5-5.1,17.7c-3.4,5.2-8.2,9.2-14.6,12c-6.3,2.9-13.8,4.3-22.3,4.3
			c-7.1,0-13.1-0.5-17.9-1.5c-4.8-1-9.9-2.7-15.1-5.2v-25.8c5.5,2.8,11.3,5,17.2,6.6c6,1.6,11.4,2.4,16.4,2.4c4.3,0,7.4-0.7,9.4-2.2
			s3-3.4,3-5.8c0-1.5-0.4-2.7-1.2-3.8c-0.8-1.1-2.1-2.2-3.9-3.3c-1.8-1.1-6.5-3.4-14.2-6.9c-7-3.2-12.2-6.2-15.7-9.2
			c-3.5-3-6.1-6.4-7.8-10.3c-1.7-3.9-2.5-8.4-2.5-13.7c0-9.9,3.6-17.6,10.8-23.1c7.2-5.5,17-8.3,29.6-8.3c11.1,0,22.4,2.6,33.9,7.7
			l-8.9,22.3c-10-4.6-18.7-6.9-25.9-6.9c-3.8,0-6.5,0.7-8.2,2c-1.7,1.3-2.6,3-2.6,4.9c0,2.1,1.1,4,3.3,5.6c2.2,1.7,8.1,4.7,17.7,9.1
			c9.2,4.2,15.6,8.6,19.2,13.4C394.5,351.7,396.3,357.7,396.3,365z"/>
		<path class="st1" d="M509.3,397.5h-33.5L455,364l-20.7,33.5h-32.7l35.5-54.8l-33.4-52.3h32.1l19.3,33.1l18.6-33.1h33L472.9,345
			L509.3,397.5z"/>
	</g>
</g>
</svg>
