<?xml version="1.0" encoding="utf-8"?>
<!-- Generator: Adobe Illustrator 25.0.1, SVG Export Plug-In . SVG Version: 6.00 Build 0)  -->
<svg version="1.1" id="Layer_1" xmlns="http://www.w3.org/2000/svg" xmlns:xlink="http://www.w3.org/1999/xlink" x="0px" y="0px"
	 viewBox="0 0 512 512" style="enable-background:new 0 0 512 512;" xml:space="preserve">
<style type="text/css">
	.st0{fill:#3A8FC7;}
</style>
<g id="DOCM">
	<g>
		<path class="st0" d="M359.5,433c-3.3,5.8-9.6,9.8-16.8,9.8h-212c-10.7,0-19.3-8.6-19.3-19.2V87.5c0-10.6,8.6-19.2,19.3-19.2h212
			c10.7,0,19.3,8.6,19.3,19.2v58h52.8v-58c0-39.7-32.3-72-72.1-72h-212c-39.8,0-72.1,32.3-72.1,72v336.1c0,39.7,32.3,72,72.1,72h212
			c36.6,0,66.8-27.3,71.5-62.6H359.5z"/>
	</g>
	<g>
		<g>
			<g>
				<path class="st0" d="M309.2,159.7H164.4c-14.3,0-26-11.6-26-26v-0.8c0-14.3,11.6-26,26-26h144.8c14.3,0,26,11.6,26,26v0.8
					C335.2,148,323.5,159.7,309.2,159.7z M164.4,122c-6,0-11,4.9-11,11v0.8c0,6,4.9,11,11,11h144.8c6,0,11-4.9,11-11v-0.8
					c0-6-4.9-11-11-11H164.4z"/>
			</g>
			<g>
				<path class="st0" d="M236.8,197.2h-72.1c-13.6,0-24.6,11.5-24.6,25.8v0.5c0,14.2,11,25.8,24.6,25.8h72.1V197.2z"/>
			</g>
			<g>
				<path class="st0" d="M236.8,277.3h-72.1c-13.6,0-24.6,11.5-24.6,25.8v0.5c0,14.2,11,25.8,24.6,25.8h72.1V277.3z"/>
			</g>
		</g>
		<g>
			<g>
				<path class="st0" d="M328,376.4l-36.5-128.5h-1.1c1.7,21.9,2.6,38.9,2.6,51v77.5h-42.7V198h64.2l37.2,126.7h1L389.1,198h64.3
					v178.5h-44.3v-78.2c0-4.1,0.1-8.6,0.2-13.5c0.1-5,0.7-17.1,1.6-36.5h-1.1l-36,128.3H328z"/>
			</g>
		</g>
	</g>
</g>
</svg>
