<?xml version="1.0" encoding="utf-8"?>
<!-- Generator: Adobe Illustrator 25.2.0, SVG Export Plug-In . SVG Version: 6.00 Build 0)  -->
<svg version="1.1" id="Layer_1" xmlns="http://www.w3.org/2000/svg" xmlns:xlink="http://www.w3.org/1999/xlink" x="0px" y="0px"
	 viewBox="0 0 320 320" style="enable-background:new 0 0 320 320;" xml:space="preserve">
<style type="text/css">
	.st0{fill:none;stroke:#EFEFEF;stroke-linecap:round;stroke-linejoin:round;stroke-miterlimit:10;stroke-dasharray:4,8;}
	.st1{fill:#FFFFFF;}
	.st2{fill-rule:evenodd;clip-rule:evenodd;fill:#A4C648;}
	.st3{fill:#A4C648;}
	.st4{fill-rule:evenodd;clip-rule:evenodd;fill:#FFFFFF;}
	.st5{fill:#EFEFEF;}
	.st6{fill:#DEDFDF;}
	.st7{fill:#4296D2;}
	.st8{fill:#0866AA;}
	.st9{fill:#2178BD;}
	.st10{fill:#4096D2;}
	.st11{display:none;fill:#FFFFFF;}
</style>
<circle class="st0" cx="154.17" cy="163.2" r="123.74"/>
<g id="Cells">
	<polygon class="st1" points="293.62,99.54 286.7,95.1 104.83,95.1 97.92,102 97.92,284.02 102.36,289.94 238.27,289.94 
		293.62,219.89 	"/>
	<path class="st2" d="M157.18,224.46c0-19.56,6.88-36.22,20.62-49.95c13.66-13.73,30.32-20.59,50.01-20.59
		c19.4,0,36.02,6.86,49.87,20.59c13.84,13.73,20.76,30.38,20.76,49.95c0,19.47-6.92,36.07-20.76,49.8
		c-13.85,13.82-30.47,20.74-49.87,20.74c-19.69,0-36.35-6.91-50.01-20.74C164.06,260.53,157.18,243.93,157.18,224.46"/>
	<path class="st2" d="M298.44,224.46h-8.27V105.43c0-3.04-1.1-5.08-3.28-6.13c-0.76-0.38-1.64-0.67-2.65-0.86l-1.21-0.14H108.51
		c-3.1,0-5.13,1.07-6.13,3.2c-0.62,1.23-0.95,2.54-1,3.92v174.19c0,3.04,1.07,5.06,3.21,6.05c1.24,0.61,2.54,0.97,3.92,1.07h115.67
		l3.64,8.26H105.94c-2.14,0-4.27-0.52-6.41-1.56c-4.28-2.13-6.43-5.88-6.43-11.25V102.86c0-2.13,0.55-4.27,1.64-6.41
		c2.14-4.27,5.87-6.41,11.19-6.41h179.67l1.99,0.21c1.62,0.24,3.1,0.71,4.43,1.43c4.28,2.14,6.42,5.87,6.42,11.18L298.44,224.46
		L298.44,224.46z"/>
	<g>
		<path class="st3" d="M137.44,123.08c-4.12,0-7.36,1.46-9.73,4.38c-2.37,2.91-3.54,6.95-3.54,12.08c0,5.37,1.13,9.44,3.41,12.21
			c2.27,2.76,5.56,4.14,9.86,4.14c1.86,0,3.67-0.18,5.4-0.55c1.74-0.37,3.55-0.84,5.43-1.43v6.15c-3.45,1.3-7.35,1.95-11.7,1.95
			c-6.43,0-11.35-1.94-14.8-5.83s-5.16-9.45-5.16-16.69c0-4.55,0.84-8.55,2.51-11.96c1.67-3.42,4.08-6.03,7.25-7.86
			c3.16-1.82,6.88-2.73,11.13-2.73c4.48,0,8.62,0.94,12.43,2.82l-2.58,5.97c-1.48-0.7-3.05-1.31-4.7-1.84
			C141,123.34,139.26,123.08,137.44,123.08z"/>
	</g>
	<g>
		<rect x="191.4" y="192.03" class="st4" width="28.72" height="14.83"/>
		<rect x="191.4" y="218.24" class="st4" width="28.72" height="14.84"/>
		<rect x="191.4" y="242.03" class="st4" width="28.72" height="14.84"/>
		<rect x="235.48" y="192.03" class="st4" width="28.73" height="14.83"/>
		<rect x="235.48" y="218.24" class="st4" width="28.73" height="14.84"/>
	</g>
</g>
<g>
	<path class="st5" d="M274.83,141.96c-19.03,0-34.51-15.48-34.51-34.51s15.48-34.51,34.51-34.51s34.51,15.48,34.51,34.51
		S293.86,141.96,274.83,141.96z"/>
	<path class="st6" d="M274.83,74.45c18.2,0,33.01,14.81,33.01,33.01s-14.81,33.01-33.01,33.01s-33.01-14.81-33.01-33.01
		S256.63,74.45,274.83,74.45 M274.83,71.45c-19.89,0-36.01,16.12-36.01,36.01s16.12,36.01,36.01,36.01s36.01-16.12,36.01-36.01
		S294.72,71.45,274.83,71.45L274.83,71.45z"/>
</g>
<g>
	<g>
		<polygon class="st7" points="212.94,47.07 231.19,48.19 229.78,65.23 222.61,70.15 215.36,66.73 		"/>
		<polygon class="st7" points="159.28,50.4 163.44,50.4 164.78,47.07 165.44,27.68 158.78,23.9 146.28,23.9 145.28,38.07 
			145.78,49.98 		"/>
		<polygon class="st7" points="89.03,54.9 82.11,48.65 70.36,49.07 69.94,74.9 70.69,75.82 89.03,75.82 		"/>
		<polygon class="st7" points="46.53,116.48 40.28,110.32 28.11,110.32 28.11,137.23 46.53,137.57 		"/>
		<polygon class="st7" points="51.03,191.07 44.94,185.65 28.69,185.32 27.19,187.15 27.19,208.69 50.53,209.07 		"/>
		<polygon class="st7" points="78.78,247.15 72.78,241.15 58.44,240.67 59.03,267.98 77.69,267.98 		"/>
	</g>
	<g>
		<g>
			<path class="st5" d="M210.79,45.07h22.5l-2.05,23.2l-9.2,3.05l-9.2-3.05L210.79,45.07z M228.83,52.57l0.29-2.81H215l0.7,8.55
				h9.79l-0.35,3.63l-3.11,0.82l-3.16-0.82l-0.23-2.23h-2.75l0.35,4.45l5.8,1.58h0.06l5.68-1.58l0.82-8.73h-10.31l-0.23-2.87h10.77
				V52.57z"/>
		</g>
		<g>
			<path class="st5" d="M165.44,27.68c0.55,0.55,0.82,1.21,0.82,1.99v19.45c0,0.78-0.27,1.44-0.82,1.99
				c-0.55,0.55-1.21,0.82-1.99,0.82h-16.87c-0.78,0-1.45-0.27-1.99-0.82c-0.55-0.55-0.82-1.21-0.82-1.99V24.75
				c0-0.78,0.27-1.44,0.82-1.99s1.21-0.82,1.99-0.82h11.95c0.78,0,1.44,0.27,1.99,0.82L165.44,27.68z M146.57,49.12h16.87V32.25
				h-6.09c-0.39,0-0.72-0.14-1-0.41c-0.27-0.27-0.41-0.6-0.41-1v-6.09h-9.38v24.37H146.57z M149.27,33.07
				c0.55-0.55,1.21-0.82,1.99-0.82s1.44,0.27,1.99,0.82s0.82,1.21,0.82,1.99c0,0.78-0.27,1.45-0.82,1.99
				c-0.55,0.55-1.21,0.82-1.99,0.82s-1.45-0.27-1.99-0.82c-0.55-0.55-0.82-1.21-0.82-1.99S148.72,33.62,149.27,33.07z M148.45,46.31
				v-3.75l2.34-2.34c0.31-0.31,0.62-0.31,0.94,0l2.34,2.34l5.16-5.16c0.31-0.31,0.62-0.31,0.94,0l1.41,1.41v7.5H148.45z
				 M163.21,29.44l-4.45-4.45v4.45C158.76,29.44,163.21,29.44,163.21,29.44z"/>
		</g>
		<g>
			<path class="st5" d="M89.97,53.39c0.55,0.55,0.82,1.21,0.82,1.99v19.45c0,0.78-0.27,1.44-0.82,1.99
				c-0.55,0.55-1.21,0.82-1.99,0.82H71.1c-0.78,0-1.45-0.27-1.99-0.82c-0.55-0.55-0.82-1.21-0.82-1.99V50.46
				c0-0.78,0.27-1.44,0.82-1.99c0.55-0.55,1.21-0.82,1.99-0.82h11.95c0.78,0,1.44,0.27,1.99,0.82L89.97,53.39z M71.1,74.83h16.88
				V57.96h-6.09c-0.39,0-0.72-0.14-1-0.41c-0.27-0.27-0.41-0.6-0.41-1v-6.09H71.1V74.83z M83.53,60.77c0.27,0,0.48,0.12,0.62,0.35
				s0.13,0.47-0.03,0.7c-1.37,2.38-2.27,3.91-2.7,4.57l2.7,4.57c0.16,0.23,0.17,0.47,0.03,0.7c-0.14,0.23-0.34,0.35-0.62,0.35h-1.7
				c-0.27,0-0.47-0.12-0.59-0.35c-0.08-0.12-0.64-1.25-1.7-3.4c-0.47,1.05-1.04,2.19-1.7,3.4c-0.12,0.23-0.31,0.35-0.59,0.35h-1.7
				c-0.27,0-0.48-0.12-0.62-0.35c-0.14-0.23-0.13-0.47,0.03-0.7l2.7-4.57l-2.7-4.57c-0.16-0.23-0.17-0.47-0.03-0.7
				s0.34-0.35,0.62-0.35h1.7c0.27,0,0.49,0.12,0.64,0.35c0.35,0.7,0.9,1.84,1.64,3.4c0.35-0.86,0.92-1.99,1.7-3.4
				c0.12-0.23,0.31-0.35,0.59-0.35C81.82,60.77,83.53,60.77,83.53,60.77z M87.74,55.15l-4.45-4.45v4.45H87.74z"/>
		</g>
		<g>
			<path class="st5" d="M47.5,115.02c0.55,0.55,0.82,1.21,0.82,1.99v19.45c0,0.78-0.27,1.44-0.82,1.99s-1.21,0.82-1.99,0.82H28.64
				c-0.78,0-1.45-0.27-1.99-0.82c-0.55-0.55-0.82-1.21-0.82-1.99v-24.38c0-0.78,0.27-1.44,0.82-1.99c0.55-0.55,1.21-0.82,1.99-0.82
				h11.95c0.78,0,1.44,0.27,1.99,0.82L47.5,115.02z M28.64,136.47h16.88v-16.88h-6.09c-0.39,0-0.72-0.14-1-0.41
				c-0.27-0.27-0.41-0.6-0.41-1v-6.09h-9.38C28.64,112.09,28.64,136.47,28.64,136.47z M41.53,124.28h0.94
				c0.23,0,0.42,0.09,0.56,0.26c0.14,0.18,0.18,0.38,0.15,0.62c-0.39,1.48-1.08,4.14-2.05,7.97c-0.08,0.35-0.31,0.53-0.7,0.53h-1.41
				c-0.39,0-0.62-0.18-0.7-0.53c-0.27-1.13-0.62-2.54-1.05-4.22l-0.18-1c0,0.31-0.06,0.64-0.18,1l-1.05,4.22
				c-0.08,0.35-0.29,0.53-0.64,0.53h-1.46c-0.39,0-0.62-0.18-0.7-0.53c-0.12-0.47-0.43-1.75-0.94-3.84c-0.51-2.09-0.84-3.47-1-4.13
				c-0.08-0.23-0.04-0.44,0.12-0.62c0.16-0.18,0.33-0.26,0.53-0.26h1c0.39,0,0.62,0.2,0.7,0.59c0.74,3.75,1.11,5.68,1.11,5.8
				c0,0.04,0.02,0.12,0.06,0.23c0-0.23,0.47-2.27,1.41-6.09c0.12-0.35,0.35-0.53,0.7-0.53h0.76c0.39,0,0.62,0.18,0.7,0.53
				c0.9,3.79,1.37,5.74,1.41,5.86c0,0.04,0,0.12,0,0.23c0.04-0.23,0.45-2.25,1.23-6.04C40.9,124.47,41.14,124.28,41.53,124.28z
				 M45.28,116.78l-4.45-4.45v4.45H45.28z"/>
		</g>
		<g>
			<path class="st5" d="M51.25,190.05c0.55,0.55,0.82,1.21,0.82,1.99v15.7c0,0.78-0.27,1.45-0.82,1.99
				c-0.55,0.55-1.21,0.82-1.99,0.82H28.64c-0.78,0-1.45-0.27-1.99-0.82c-0.55-0.55-0.82-1.21-0.82-1.99v-20.62
				c0-0.78,0.27-1.44,0.82-1.99s1.21-0.82,1.99-0.82h15.7c0.78,0,1.44,0.27,1.99,0.82L51.25,190.05z M48.91,207.75
				c0.23,0,0.35-0.12,0.35-0.35v-15.23c0-0.08-0.04-0.16-0.12-0.23l-4.57-4.57v5.86c0,0.39-0.14,0.72-0.41,1
				c-0.27,0.27-0.61,0.41-1,0.41H32.85c-0.39,0-0.72-0.14-1-0.41c-0.27-0.27-0.41-0.6-0.41-1v-6.09h-2.46
				c-0.23,0-0.35,0.12-0.35,0.35v19.92c0,0.23,0.12,0.35,0.35,0.35h19.93V207.75z M35.31,197.55c1.02-1.01,2.23-1.52,3.63-1.52
				s2.62,0.51,3.63,1.52c1.02,1.02,1.52,2.23,1.52,3.63s-0.51,2.62-1.52,3.63c-1.02,1.02-2.23,1.52-3.63,1.52s-2.62-0.51-3.63-1.52
				c-1.02-1.01-1.52-2.23-1.52-3.63S34.3,198.57,35.31,197.55z M41.76,187.12h-7.5v4.69h7.5V187.12z M37.28,202.86
				c0.45,0.45,1,0.67,1.67,0.67c0.66,0,1.22-0.22,1.67-0.67c0.45-0.45,0.67-1,0.67-1.67c0-0.66-0.23-1.22-0.67-1.67
				c-0.45-0.45-1.01-0.67-1.67-0.67c-0.67,0-1.22,0.23-1.67,0.67c-0.45,0.45-0.67,1.01-0.67,1.67
				C36.6,201.85,36.83,202.41,37.28,202.86z"/>
		</g>
		<g>
			<path class="st5" d="M79.3,245.59c0.55,0.55,0.82,1.21,0.82,1.99v19.45c0,0.78-0.27,1.44-0.82,1.99s-1.21,0.82-1.99,0.82H60.44
				c-0.78,0-1.45-0.27-1.99-0.82c-0.55-0.55-0.82-1.21-0.82-1.99v-24.38c0-0.78,0.27-1.45,0.82-1.99c0.55-0.55,1.21-0.82,1.99-0.82
				h11.95c0.78,0,1.44,0.27,1.99,0.82L79.3,245.59z M77.31,267.03v-16.88h-6.09c-0.39,0-0.72-0.14-1-0.41
				c-0.27-0.27-0.41-0.61-0.41-1v-6.09h-9.38v24.38H77.31z M66.41,260.29c0.23,0.23,0.23,0.49,0,0.76l-1,1.05
				c-0.12,0.12-0.25,0.18-0.41,0.18c-0.12,0-0.23-0.06-0.35-0.18l-3.34-3.16c-0.27-0.23-0.27-0.47,0-0.7l3.34-3.16
				c0.27-0.27,0.53-0.27,0.76,0l1,1.05v0.06c0.23,0.23,0.23,0.47,0,0.7l-1.93,1.7L66.41,260.29z M69.93,252.38l1.41,0.41
				c0.35,0.08,0.47,0.29,0.35,0.64l-3.22,11.02c-0.08,0.35-0.29,0.47-0.64,0.35l-1.41-0.41c-0.35-0.08-0.47-0.29-0.35-0.64
				l3.22-11.02C69.36,252.42,69.58,252.31,69.93,252.38z M71.33,256.9c-0.23-0.23-0.23-0.49,0-0.76l1-1.05
				c0.23-0.27,0.49-0.27,0.76,0l3.34,3.16c0.27,0.23,0.27,0.47,0,0.7l-3.34,3.16c-0.27,0.27-0.53,0.27-0.76,0l-1-1.05V261
				c-0.23-0.23-0.23-0.47,0-0.7l1.93-1.7L71.33,256.9z M72.62,242.89v4.45h4.45L72.62,242.89z"/>
		</g>
	</g>
</g>
<g>
	<path class="st8" d="M290.89,92.24l-7.3-3.51c-0.84-0.41-1.85-0.24-2.52,0.43l-23.89,21.78c-0.64,0.59-0.64,1.6,0,2.18l1.95,1.77
		c0.53,0.48,1.32,0.51,1.88,0.08l28.77-21.83c0.97-0.73,2.35-0.04,2.35,1.17v-0.08C292.14,93.38,291.66,92.61,290.89,92.24z"/>
	<g>
		<path class="st9" d="M290.89,120.01l-7.3,3.51c-0.84,0.41-1.85,0.24-2.52-0.43l-23.89-21.78c-0.64-0.59-0.64-1.6,0-2.18l1.95-1.77
			c0.53-0.48,1.32-0.51,1.88-0.08l28.77,21.83c0.97,0.73,2.35,0.04,2.35-1.17v0.08C292.14,118.87,291.66,119.64,290.89,120.01z"/>
	</g>
	<g>
		<path class="st10" d="M283.59,123.53c-0.84,0.41-1.85,0.23-2.52-0.43c0.82,0.82,2.21,0.24,2.21-0.92V90.07
			c0-1.16-1.4-1.73-2.21-0.92c0.66-0.66,1.67-0.83,2.52-0.43l7.3,3.51c0.77,0.37,1.25,1.14,1.25,2v23.79c0,0.85-0.49,1.63-1.25,1.99
			L283.59,123.53z"/>
	</g>
</g>
<g>
	<g>
		<g>
			<circle class="st11" cx="923.49" cy="-48.5" r="8.07"/>
		</g>
	</g>
</g>
</svg>
