<svg xmlns="http://www.w3.org/2000/svg" xml:space="preserve" viewBox="0 0 170 70">
  <path fill="none" stroke="#fff" stroke-miterlimit="124.51" stroke-width="4.38" d="M86.94 60.38H72.47L71.23 49.8l-8.82-6.35a29.2 29.2 0 0 1-.53-5.65c0-15.7 12.7-28.4 28.4-28.4s28.41 12.7 28.41 28.4c0 1.94-.17 3.88-.53 5.65l-8.82 6.35-1.4 10.58H93.45l-.88.7c-.7.54-1.59.9-2.47.9s-1.76-.36-2.47-.9l-.7-.7z"/>
  <path fill="#fbce07" d="M86.94 60.38H72.47L71.23 49.8l-8.82-6.35a29.2 29.2 0 0 1-.53-5.65c0-15.7 12.7-28.4 28.4-28.4s28.41 12.7 28.41 28.4c0 1.94-.17 3.88-.53 5.65l-8.82 6.35-1.4 10.58H93.45l-.88.7c-.7.54-1.59.9-2.47.9s-1.76-.36-2.47-.9l-.7-.7z"/>
  <path fill="#dd1d21" fill-rule="evenodd" d="M86.94 60.38H72.47L71.23 49.8l-8.82-6.35a29.2 29.2 0 0 1-.53-5.65c0-15.7 12.7-28.4 28.4-28.4s28.41 12.7 28.41 28.4c0 1.94-.17 3.88-.53 5.65l-8.82 6.35-1.4 10.58H93.45l-.88.7c-.7.54-1.59.9-2.47.9s-1.76-.36-2.47-.9l-.7-.7zm.35-5.11H76.7l-1.06-8.47L67 40.62c-.18-.88-.35-1.94-.35-3 0-1.76.35-3.35 1.06-4.94l15.34 15.53-14.82-18.35a11.28 11.28 0 0 1 3.7-6.17l13.24 22.93-11.82-25.05a12.6 12.6 0 0 1 6.18-4.24l8.11 28.59-6-29.82a11.73 11.73 0 0 1 6-1.59h1.24L90.1 45.4l1.24-30.88h1.23c2.12 0 4.06.53 6 1.59l-5.82 29.64 8.11-28.58c2.47.7 4.6 2.3 6.18 4.23l-12 25.23 13.41-23.11a11.7 11.7 0 0 1 3.7 6.17L97.36 48.03l15.34-15.52a11.76 11.76 0 0 1 1.06 4.94c0 1.06-.17 1.94-.35 3l-8.64 6.17-1.06 8.47H93.29l-1.59 1.06c-.35.35-.88.35-1.41.35s-.88-.17-1.41-.35l-1.6-.88z" clip-rule="evenodd"/>
</svg>
