<svg id="undraw_connected_world_wuay" xmlns="http://www.w3.org/2000/svg" width="656" height="487.275" viewBox="0 0 656 487.275">
  <path id="Path_414" data-name="Path 414" d="M616.046,131.461C541.593,27.853,384.311-14.174,229.628,31.09,147.853,55.02,69.006,102.968,29.931,195.81c-69.85,165.964,76.809,218.969,172.708,235.862a518.61,518.61,0,0,1,129.956,40.572c71.8,33.611,198.895,63.394,294.73-76.61C696.788,294.159,665.644,200.473,616.046,131.461Z" transform="translate(-11.697 -13.011)" fill="none"/>
  <path id="Path_415" data-name="Path 415" d="M214.513,251.515a19.173,19.173,0,0,0-1.253-4.8,2.172,2.172,0,0,0-1.1-1.36,2.276,2.276,0,0,0-1.1-.012l-5.624.861a2.156,2.156,0,0,0-1.283.5c-.732.77-.011,2.011-.034,3.074a2.889,2.889,0,0,1-2.238,2.486,8.461,8.461,0,0,1-3.557-.044L190.46,251a12.966,12.966,0,0,0,5.949-3.97c1.035-1.226,1.585-3.515.09-4.1a3.672,3.672,0,0,0-1.366-.11c-3.563.028-6.367-2.947-9.7-4.2a10.727,10.727,0,0,0-12.073,3.6l4.189.2a1.859,1.859,0,0,1,1.116.3c.918.754-.223,2.2-.094,3.384.168,1.535,2.206,1.862,3.742,2.017s3.485,1.4,2.746,2.759c-7.72,2.659-15.576-5.2-23.684-4.231a48.117,48.117,0,0,0-5.993,1.558c-12.238,3.1-24.891-5.165-37.393-3.416a47.481,47.481,0,0,0-8.163,2.153,11,11,0,0,0-4.713,2.458c-1.236,1.3-1.707,3.512-.536,4.866a27.391,27.391,0,0,1-9.6-.912,5.377,5.377,0,0,1,2.765,4.739,56.952,56.952,0,0,0-14.589,4.448,24.575,24.575,0,0,0,3.02,4.022l-6.381,4.1a3.642,3.642,0,0,1,2.017,5.319c2.235-.994,3.621-3.567,6.011-4.089,1.566-.342,3.159.3,4.645.9s3.118,1.185,4.656.734,2.672-2.446,1.7-3.716a79.567,79.567,0,0,1,20.212-3.158,2.534,2.534,0,0,1,1.531.29c.891.618.657,1.954.609,3.037s.8,2.507,1.765,2.019c-1.139.988-.165,2.848.928,3.887s2.41,2.472,1.741,3.824c-.175.353-.471.635-.639.991-.5,1.051.292,2.275,1.22,2.973a10.4,10.4,0,0,1,2.712,2.151c.645.966.352,2.657-.8,2.792l-3.28-4.164a8.538,8.538,0,0,0-2.215,4.2,8.809,8.809,0,0,1,1.089,12.05c-1.488,1.748-3.6,2.81-5.45,4.174s-3.556,3.3-3.551,5.6c.008,3.966-.316,7.65,1.17,11.327a174.483,174.483,0,0,0,9.473,19.763c.937,1.676,2.148,3.513,4.047,3.8q-3.6-8.761-6.479-17.8c1.251,0,2.7.1,3.429,1.118.607.839.477,1.98.665,3a9.287,9.287,0,0,0,1.184,2.785l11.457,20.409c.95,1.692,2.039,3.508,3.854,4.193,1.161.438,2.5.355,3.571.986.837.494,1.4,1.372,2.255,1.837,2.413,1.317,5.77-1.208,8.025.364a22.571,22.571,0,0,1,1.649,1.678c2.083,1.8,5.5.6,7.905,1.943,1.55.867,2.353,2.6,3.18,4.174,2.071,3.937,5.421,7.795,9.859,8.108a27.5,27.5,0,0,1,4.18.144c1.363.31,2.7,1.5,2.485,2.879-.375,2.366.794,4.957.48,7.332-.572,4.326-6.708,6.227-7.235,10.559a24.509,24.509,0,0,1-.161,2.856c-.277,1.138-1.131,2.064-1.435,3.2-.575,2.143.96,4.276,2.647,5.718s3.7,2.685,4.621,4.7c.975,2.134.5,4.621.813,6.945.692,5.074,5.074,8.835,9.585,11.26a10.011,10.011,0,0,1,3.739,2.736c1.161,1.673,1.045,3.879,1.433,5.878.949,4.9,5.071,8.93,5.188,13.916.083,3.544-1.887,6.759-3.063,10.1a23.56,23.56,0,0,0,1.924,19.539,31.287,31.287,0,0,1,2.556,4.5c1.111,2.875.751,6.144,1.775,9.052,1.355,3.844,5.077,7.019,4.72,11.079,1.69,3.509,5.421,5.233,9.174,6.278l6.725,1.872a8.64,8.64,0,0,0,3.944.46,2.96,2.96,0,0,0,2.529-2.684c-3.3-.744-6.7-1.534-9.42-3.544s-4.581-5.588-3.549-8.807c.478-1.493,1.5-3.216.528-4.45-.554-.706-1.567-.891-2.191-1.535-.974-1.005-.64-2.693.061-3.905s1.713-2.3,2-3.666a3.825,3.825,0,0,0-1.793-3.98,9.509,9.509,0,0,0,3.329-2.136,3.245,3.245,0,0,0,.591-3.677c2.045.259,4.459.386,5.8-1.178,1.072-1.249,1-3.116.575-4.707a20.1,20.1,0,0,1-1.162-4.781,87.149,87.149,0,0,0,14.135-.479,9.166,9.166,0,0,0-4.3-5.382c2.125-.359,4.06-2.9,4.731-4.95a12.737,12.737,0,0,0,.085-6.392,3.43,3.43,0,0,1-.064-1.675,3.264,3.264,0,0,1,1.681-1.626l10.546-6.056a6.144,6.144,0,0,0,1.686-1.245c1.1-1.3.941-3.257.375-4.865s-1.472-3.12-1.69-4.81c-.652-5.055,4.76-8.683,6.586-13.442a20.253,20.253,0,0,0,1-5.893c.149-2.143.16-4.633-1.486-6.014-1.578-1.324-4.042-1.029-5.693-2.26-1.513-1.129-2.036-3.322-3.689-4.234-1.5-.828-3.384-.3-5.054-.691-2.94-.686-4.791-4.075-7.793-4.388-1.694-.177-3.612.651-5-.335-1.224-.87-1.273-2.617-1.506-4.1a11.45,11.45,0,0,0-9.241-9.271c-1.747-.28-3.648-.174-5.134-1.134-1.5-.972-2.195-2.792-3.377-4.138-1.905-2.17-4.905-2.94-7.716-3.6l-11.433-2.688c-2.029-.477-4.646-.73-5.735,1.048a8.215,8.215,0,0,0-.678,2.133,6.607,6.607,0,0,1-6.213,4.677,7.348,7.348,0,0,0-4.333-3.353,27.006,27.006,0,0,1-3.506-.834,4.925,4.925,0,0,1-2.137-6.831,6.13,6.13,0,0,0-1.048-7.373c-1.944-1.746-4.757-2.167-7.364-1.993-.683-1.49.459-3.171,1.689-4.253s2.724-2.147,2.992-3.764c.421-2.543-2.823-4.475-5.287-3.716s-4.036,3.151-5.076,5.51a16.227,16.227,0,0,1-2.044,3.92,4.017,4.017,0,0,1-3.889,1.592c-2.029-.518-2.812-2.929-3.261-4.974A32.347,32.347,0,0,1,152,343.911a10.9,10.9,0,0,1,3.142-7.588c3.372-3.1,8.546-2.793,13.1-2.3a3.327,3.327,0,0,1,.341-4.394,5,5,0,0,1,4.528-1.112,6.239,6.239,0,0,1,3.508,2.1c1.293,1.577,1.661,3.706,2.639,5.5s3.176,3.316,4.975,2.356c1.554-.829,1.8-2.984,1.414-4.7s-1.208-3.39-1.068-5.146c.267-3.351,3.741-5.367,6.806-6.747s6.575-3.236,7.06-6.562a5.984,5.984,0,0,1,.364-1.907,3.741,3.741,0,0,1,1.372-1.29c8.945-5.911,18.039-11.9,28.263-15.125.532-.168.594.019,1.136-.113.759-.439.256-1.651-.471-2.14s-1.7-.863-1.884-1.72c-.136-.63.235-1.248.332-1.885a2.353,2.353,0,0,0-3.089-2.384c-.821-1.088.8-2.351,2.118-2.713a57.511,57.511,0,0,1,12.082-1.974,2.176,2.176,0,0,1,1.375.234,1.644,1.644,0,0,1,.112,2.244,13.2,13.2,0,0,1-1.849,1.679A5.047,5.047,0,0,0,237,293.291c2.133,1.085,4.452,2.2,6.815,1.82s4.459-3.037,3.349-5.157c-1.034-1.974-4.14-2.419-4.675-4.583-.625-2.533,2.961-4.786,2.153-7.268-.354-1.087-1.437-1.727-2.268-2.511a6.814,6.814,0,0,1-1.491-7.555,8.6,8.6,0,0,1-7.539-2.359c-1.8-1.82-3.242-4.691-5.8-4.609-2.35.075-4.374,2.816-6.571,1.98-.541-.206-1.111-.625-1.634-.379a1.35,1.35,0,0,0-.61,1.012c-.558,2.67.4,5.712-1.053,8.018-1.583,2.51-5.246,2.858-7.165,5.122-1.042,1.229-1.446,2.885-2.4,4.18s-2.991,2.119-4.14.99a5.706,5.706,0,0,0-1.55-6.939,15.226,15.226,0,0,0-3.424-1.665,20.3,20.3,0,0,1-3.825-2.132,3.768,3.768,0,0,1-1.4-1.5,3.424,3.424,0,0,1,.1-2.376,9.716,9.716,0,0,1,7.731-6.408c1.53-.208,3.311-.135,4.324-1.3.536-.617.817-1.55,1.595-1.8a2.353,2.353,0,0,1,1.472.181l5.712,2.011a4.008,4.008,0,0,0,2.035.337,1.38,1.38,0,0,0,1.193-1.45c-.183-.949-1.642-1.4-1.509-2.361a1.576,1.576,0,0,1,.478-.8,20.422,20.422,0,0,1,16.2-6.4c.721,1.184-.419,2.586-1.368,3.6s-1.711,2.817-.564,3.6a3.146,3.146,0,0,0,1.521.343,13.28,13.28,0,0,1,4.048,1.228q2.961,1.289,5.808,2.82a7.364,7.364,0,0,1,.147-3.74,2.533,2.533,0,0,1,3-1.632c1.135.439,1.717,1.942,2.926,2.08,1.613.184,2.249-2.2,1.575-3.676s-2.007-2.713-2.119-4.333c-.075-1.093.341-2.448-.532-3.109a2.375,2.375,0,0,0-1.03-.361l-21.791-4.01c-1.294-.238-3.164-.056-3.221,1.259-.032.734.623,1.46.333,2.134-.31.72-1.328.654-2.069.909a2.828,2.828,0,0,0-1.617,2.972,8.27,8.27,0,0,0,1.365,3.349C218.076,252.217,215.931,252.108,214.513,251.515Z" transform="translate(-41.826 -112.567)" fill="#f8f8f8"/>
  <path id="Path_416" data-name="Path 416" d="M283.71,228.767a7.056,7.056,0,0,0-7.751,2.321,1.552,1.552,0,0,0-.36,1.635c.431.733,1.528.444,2.337.181a5.881,5.881,0,0,1,3.691-.088c.76.261,1.439.722,2.2.973a2.218,2.218,0,0,0,2.261-.33,2.944,2.944,0,0,0,.557-2.112,1.7,1.7,0,0,0-.433-1.4,2.22,2.22,0,0,0-1-.3,3.448,3.448,0,0,1-2.018-1.179" transform="translate(-128.41 -108.317)" fill="#fff"/>
  <path id="Path_417" data-name="Path 417" d="M302.835,225.125a1.795,1.795,0,0,0-1.735,2.528,7.276,7.276,0,0,0,2.9.189,2.479,2.479,0,0,0,2.028-1.859,4.668,4.668,0,0,1-3.3-.631" transform="translate(-139.678 -106.862)" fill="#fff"/>
  <path id="Path_418" data-name="Path 418" d="M345.717,216.686a33.371,33.371,0,0,0-7.439,2.527,5.589,5.589,0,0,1,3.57,5.614,2.924,2.924,0,0,0,.034,1.388c.273.662,1.065.911,1.761,1.081a11.609,11.609,0,0,0,3.862.493,3.934,3.934,0,0,0,3.2-1.953,13.941,13.941,0,0,1,.665-1.571c1.668-2.541,6.624.531,8.415-1.924.631-.865.573-2.167,1.4-2.853a3.136,3.136,0,0,1,1.435-.548,100.766,100.766,0,0,1,10.9-1.552c1.734-.151,3.993-.773,4.007-2.513a30.19,30.19,0,0,0-19.258,2.591c-2.147,1.075-4.986,3.337-7.054,1.912-.774-.534-.736-1.971-1.8-2.571A5.433,5.433,0,0,0,345.717,216.686Z" transform="translate(-156.197 -102.077)" fill="#fff"/>
  <path id="Path_419" data-name="Path 419" d="M389.06,220.42l3.065.589a3.972,3.972,0,0,0-4.133,4.3c2.87.959,6,.026,9.023.153s6.541,2.287,6.025,5.269c-.156.9-.677,1.8-.406,2.677a9.963,9.963,0,0,0,1.035,1.611,3.609,3.609,0,0,1-.675,3.731c-.8,1.069-1.881,1.921-2.585,3.057-1.752,2.825-.756,6.477.287,9.633a8.492,8.492,0,0,0,1.633,3.261c1.546,1.644,4.065,1.787,6.322,1.82,1.642.024,3.523-.057,4.562-1.33,1.356-1.661.408-4.253,1.3-6.2.811-1.771,2.876-2.53,4.748-3.069a71.038,71.038,0,0,0,10.163-3.317c4.025-1.851,7.786-4.736,12.21-4.974a16.756,16.756,0,0,0,3.708-.26,2.819,2.819,0,0,0,2.241-2.613c-.077-1.059-.973-1.837-1.674-2.635s-1.25-2.026-.607-2.871l11.595-2.166c-.822-2.24-1.462-5.19.426-6.648.681-.526,1.594-.736,2.174-1.372.989-1.084.492-2.951-.65-3.873a7.447,7.447,0,0,0-4.147-1.257,111.273,111.273,0,0,0-15.291.136l-29.873,1.637c-2,.11-4.319-.058-6.157.626-1.556.579-2.663,1.642-4.443,2.015C395.65,219.042,392.033,218.575,389.06,220.42Z" transform="translate(-178.187 -101.818)" fill="#f8f8f8"/>
  <path id="Path_420" data-name="Path 420" d="M487.41,267.413a1.233,1.233,0,0,0-.892.2,1.126,1.126,0,0,0-.29.688,4.543,4.543,0,0,0,.66,3.252,3.184,3.184,0,0,0,2.915,1.4c1.38-.176,2.4-1.353,3.666-1.928,1.956-.885,10.26-2.264,4.516-5.367-1.98-1.07-3.259-.125-4.819.579a10.966,10.966,0,0,1-5.754,1.177Z" transform="translate(-221.629 -124.584)" fill="#fff"/>
  <path id="Path_421" data-name="Path 421" d="M577.258,221.032a3.28,3.28,0,0,0-1.6,1.389,1.4,1.4,0,0,0,.526,1.859,2.092,2.092,0,0,0,.783.124l2.727.081c1.159.035,2.606.281,2.918,1.4.231.829-.286,1.895.338,2.487a1.758,1.758,0,0,0,.928.362,6.322,6.322,0,0,0,2.748.089c1.984-.532.942-1.744,1.567-2.822.956-1.65.791-.651,2.476-1.6,1.245-.7,2.853-1.965,1.814-3.746C590.68,217.561,579.924,219.7,577.258,221.032Z" transform="translate(-261.16 -104.182)" fill="#fff"/>
  <path id="Path_422" data-name="Path 422" d="M665.54,219.563l-1.584.211a63.8,63.8,0,0,0-10.6,2.03A17.651,17.651,0,0,0,658,222.944a14.266,14.266,0,0,1,2.6.37c1.519.452,3.05,1.62,4.518,1.022.91-.371,1.207-1.319,1.961-1.821.521-.347,2.5-.908,2.716-1.258C671.577,218.427,666.912,219.38,665.54,219.563Z" transform="translate(-295.607 -104.269)" fill="#fff"/>
  <path id="Path_423" data-name="Path 423" d="M681.9,231.547a29.7,29.7,0,0,0-5.845,4.28,3.538,3.538,0,0,0-1.437,2.589c.09,1.354,1.532,2.14,2.782,2.669l5.063,2.144c.614-.866.052-2.061-.583-2.912s-1.389-1.835-1.109-2.859c.32-1.168,1.745-1.566,2.939-1.768,1.946-.328,7.2-.3,6.565-3.438C689.538,228.557,683.858,230.455,681.9,231.547Z" transform="translate(-305.016 -109.055)" fill="#fff"/>
  <path id="Path_424" data-name="Path 424" d="M685.586,591.039a4.832,4.832,0,0,0,.306,4.258,4.314,4.314,0,0,0,4.428,1.53,7.977,7.977,0,0,0,4.111-2.643,14.159,14.159,0,0,0,2.365-3.626,28.305,28.305,0,0,0,1.753-6.413l1.572-8.254c.351-1.845.338-7.5-3.053-5.657-.926.5-3.071,4.478-4.041,5.6-1.749,2.031-1.981,4-2.9,6.463C688.971,585.383,686.653,587.952,685.586,591.039Z" transform="translate(-309.716 -259.401)" fill="#fff"/>
  <path id="Path_425" data-name="Path 425" d="M1003.188,682.38a24.719,24.719,0,0,1-3.222-1.534,27.166,27.166,0,0,0-1.633,8.9l7.591-4.3c1.142-.646,2.436-1.544,2.412-2.856a.9.9,0,0,0-.42-.822,1.021,1.021,0,0,0-.532-.062,12.84,12.84,0,0,0-3.214,1.033,3.923,3.923,0,0,1-3.278.017" transform="translate(-448.247 -308.504)" fill="#fff"/>
  <path id="Path_426" data-name="Path 426" d="M1069.111,686.066a16.455,16.455,0,0,0-2.435.874c-1.742.886-2.927,2.57-4.495,3.737A17.83,17.83,0,0,1,1057.1,693a1.217,1.217,0,0,0,.285,1.794,3.518,3.518,0,0,0,2,.451,10.588,10.588,0,0,0,5.4-.831,17.018,17.018,0,0,0,2.54-2.016,26.9,26.9,0,0,1,6.393-3.616,7.334,7.334,0,0,0,2.229-1.332c1.409-1.388,1.508-3.53-.523-4C1073.783,683.07,1070.672,685.56,1069.111,686.066Z" transform="translate(-474.123 -309.639)" fill="#fff"/>
  <path id="Path_427" data-name="Path 427" d="M1105.274,663.323a6.333,6.333,0,0,0-1.938-5.189c-.021,1.911-.079,3.947-1.154,5.527-.766,1.126-1.967,1.887-2.806,2.959s-1.211,2.773-.227,3.714a3.689,3.689,0,0,0,2.186.753c1.959.231,4.227.359,5.6-1.056.75-.772,1.115-1.917,2.029-2.485a2.467,2.467,0,0,0,.89-.637c.378-.6-.222-1.391-.9-1.608s-1.42-.115-2.1-.32-1.3-.969-.953-1.587" transform="translate(-492.595 -298.455)" fill="#fff"/>
  <path id="Path_428" data-name="Path 428" d="M1029.82,536.539a8.807,8.807,0,0,1-3.142.185c-1.744-.321-3.1-1.635-4.51-2.713a19.89,19.89,0,0,0-11.622-4.061c-3.826-.072-7.688.964-11.446.241a4.515,4.515,0,0,0,2.661,3c1.247.609,2.623.915,3.875,1.512a9.253,9.253,0,0,1,4.482,4.663,13.159,13.159,0,0,0,1.269,2.789c1.249,1.681,3.617,2.05,5.707,1.913,2.724-.179,5.57-.963,8.1.052,1.939.777,3.327,2.474,4.946,3.793s3.9,2.3,5.759,1.347a9.519,9.519,0,0,1-6.587-9.16c1.823.168,7.075.1,6.792-3C1035.87,534.477,1031.388,536.255,1029.82,536.539Z" transform="translate(-448.587 -241.736)" fill="#fff"/>
  <path id="Path_429" data-name="Path 429" d="M968.2,572.956c.324-1.776,2.095-3.344,1.543-5.062a3.115,3.115,0,0,0-3.007-1.8c-1.248-.029-2.474.342-3.721.377a18.124,18.124,0,0,0-2.437.035c-2.477.407-4,3-6.338,3.926-1.419.561-3.014.454-4.49.842-3.351.881-5.471,4.047-7.813,6.6a27.884,27.884,0,0,1-14.152,8.253c-1.905.441-3.953.723-5.468,1.961-2.005,1.639-2.5,4.448-2.945,7a115.607,115.607,0,0,1-5.627,20.657l7.956,1.016a10.812,10.812,0,0,0,4.538-.066,13.176,13.176,0,0,0,2.984-1.59,29.8,29.8,0,0,1,11.641-4.2,12.359,12.359,0,0,1,6.223.436,5.786,5.786,0,0,1,3.8,4.627,4.888,4.888,0,0,1,4.885,1.188A8.491,8.491,0,0,1,958.1,621.8c.21,1.089.419,2.393,1.429,2.849.824.373,1.769-.029,2.671-.1,3.059-.245,5.6,3.322,8.6,2.708,3.224-.659,4.016-5.488,7.162-6.455,1.807-.556,4.341.12,5.206-1.561.763-1.481-.759-3.191-.6-4.849.193-2.042,2.6-2.909,4.459-3.781,6.4-3,9.441-11.622,6.339-17.978-1.838-3.766-5.455-6.73-6.123-10.867-.514-3.183.741-6.894-1.289-9.4-1.032-1.274-2.78-1.978-3.395-3.5a17.265,17.265,0,0,1-.439-3.054c-.208-1.011-1.09-2.069-2.089-1.807-2.9.761-3.824,9.715-5.376,11.891C972.3,579.209,967.456,577.031,968.2,572.956Z" transform="translate(-410.822 -256.791)" fill="#f8f8f8"/>
  <path id="Path_430" data-name="Path 430" d="M912.052,547.558a4.667,4.667,0,0,0-3.021-.155c-.949.4-1.5,1.79-.742,2.482,5.959-.232,11.955-.463,17.864.347,6.808.932,13.545,3.242,20.382,2.563a103.714,103.714,0,0,0-11.89-2.759l-6.694-1.279a51.737,51.737,0,0,0-5.436-.84C918.7,547.6,915.807,548.61,912.052,547.558Z" transform="translate(-408.248 -249.372)" fill="#fff"/>
  <path id="Path_431" data-name="Path 431" d="M921.493,504.912c-.495-.041-1.107-.077-1.363.348-.245.406.035.943-.1,1.4-.18.623-1,.782-1.638.7a3.137,3.137,0,0,0-1.906.022,1.616,1.616,0,0,0-.625,1.835,4.724,4.724,0,0,0,1.1,1.757,17.946,17.946,0,0,0,2.859,2.867c2.048,1.512,4.823,2.24,6.113,4.435a2.939,2.939,0,0,0,.816,1.1,2.269,2.269,0,0,0,2.094-.211l2.337-1.068a2.656,2.656,0,0,0,1.093-.743,2.4,2.4,0,0,0-.242-2.535,4.357,4.357,0,0,1-.926-2.483c.171-1.6,2.223-2.206,3.066-3.571s.3-3.149.395-4.764c.115-1.888,1.3-4.344-.608-5.755-1.622-1.2-3.173-.091-4.338,1.233C927.17,502.266,926.009,505.289,921.493,504.912Z" transform="translate(-411.723 -227.481)" fill="#fff"/>
  <path id="Path_432" data-name="Path 432" d="M951.125,455.646c.8,1.528,2.462,2.44,3.332,3.927.943,1.613.836,3.7,1.859,5.26,1.05,1.6,3.162,2.455,3.751,4.279.643,1.991-.815,4.412.347,6.152a2.582,2.582,0,0,0,3.788.348,2.779,2.779,0,0,0-.115-3.877c-.688-.627-1.676-.9-2.251-1.632a3.425,3.425,0,0,1-.583-1.42,9.292,9.292,0,0,1,.146-4.454,1.981,1.981,0,0,0,.112-1.165c-.259-.752-1.277-.805-1.991-1.154-1.623-.792-1.584-3.083-1.3-4.867-.189,1.188-4.419-.832-4.862-1.5-.88-1.336-.4-3.914-.575-5.391A4.2,4.2,0,0,0,951.125,455.646Z" transform="translate(-427.169 -206.428)" fill="#fff"/>
  <path id="Path_433" data-name="Path 433" d="M871.979,501.047c-.781-.874-1.957-1.788-3-1.261a1.9,1.9,0,0,0-.705,2.345,5.159,5.159,0,0,0,1.7,2.031,59.435,59.435,0,0,1,6.433,5.514c3.406,3.742,5.21,8.793,8.913,12.24a5,5,0,0,0,2.807,1.519,2.181,2.181,0,0,0,2.415-1.667,3.178,3.178,0,0,0-1.12-2.338c-1.439-1.565-3.014-3.005-4.372-4.641a3.9,3.9,0,0,1-1.118-2.334c-.007-.88.8-1.8,1.649-1.584-1.037-.265-1.807-1.994-3.33-2.319-1.273-.272-1.58.516-3.095-.133C876.268,507.18,874,503.312,871.979,501.047Z" transform="translate(-390.639 -228.322)" fill="#fff"/>
  <path id="Path_434" data-name="Path 434" d="M984.622,348.718a23.926,23.926,0,0,1-2.44-.872c-2.145-.644-4.982.933-4.7,3.153.19,1.476,1.563,2.47,2.322,3.75,1.125,1.9.825,4.305.234,6.431a5.029,5.029,0,0,1-.811,1.83,6.2,6.2,0,0,1-1.922,1.382,25.7,25.7,0,0,0-7.521,6.39,1.842,1.842,0,0,0-.454.856c-.1.75.652,1.3,1.078,1.921.946,1.389.262,3.259.356,4.937a1.4,1.4,0,0,0,.588,1.225c.57.29,1.246-.2,1.556-.763,1.026-1.859.253-4.844,2.178-5.74.364-.17.806-.241,1.048-.561.385-.508.014-1.259.209-1.865.293-.911,1.539-.952,2.495-.911a14.159,14.159,0,0,0,4.864-.648,3.237,3.237,0,0,0,1.61-.932,3.5,3.5,0,0,0,.41-2.652,35.958,35.958,0,0,0-4.248-12.963c1.691.216,3.531.4,4.99-.478.817-.493,1.8-1.969,1.392-2.974C987.218,347.646,986.059,348.983,984.622,348.718Z" transform="translate(-435.412 -161.099)" fill="#fff"/>
  <path id="Path_435" data-name="Path 435" d="M552.766,384.99a6.511,6.511,0,0,1,.046,3.273,2.239,2.239,0,0,1-2.531,1.6c-.82-.249-1.294-1.073-1.876-1.7-3.238-3.5-10.544-1.472-12.545-5.8-.816-1.765-.261-3.88-.818-5.743a5.112,5.112,0,0,0-5.177-3.517,10.636,10.636,0,0,0-2.979.889,75.115,75.115,0,0,1-19.737,4.937,16.218,16.218,0,0,0-3.793.69c-2.781,1.008-4.681,3.586-6.033,6.217s-2.351,5.479-4.163,7.816c-1.905,2.456-4.575,4.177-7.066,6.037a7.208,7.208,0,0,0-2.331,2.443,7.642,7.642,0,0,0-.468,3.63l.509,14.966a13.516,13.516,0,0,0,1.009,5.642c1.076,2.151,3.2,3.56,4.676,5.46a10.694,10.694,0,0,1,2.219,6.83c-.031.991-.13,2.163.642,2.785a2.822,2.822,0,0,0,1.578.454l20.245,1.657c3.561.292,7.508.771,9.833,3.484,1.1,1.281,1.979,3.122,3.66,3.259a13.607,13.607,0,0,0,2.144-.294c1.819-.144,3.418,1.237,4.426,2.758a12.233,12.233,0,0,1,1.965,7.85c-.165,1.735-.7,3.422-.819,5.161-.441,6.617,5.168,12.365,5.277,19,.064,3.9-1.788,7.544-3.593,11,2.913,4.413.528,10.29,1.688,15.45,1.1,4.895,5.182,8.727,6.2,13.64.466,2.249.492,5.017,2.476,6.175a5.643,5.643,0,0,0,2.8.561,36.933,36.933,0,0,0,16.818-3.829c2.452-1.217,4.994-3.034,5.422-5.738.345-2.181-.76-4.62.365-6.519,1.326-2.239,4.724-2.061,6.676-3.782,3.166-2.792.7-8.118,1.98-12.139,1.153-3.615,5.122-5.536,7.09-8.78a15.6,15.6,0,0,0,1.648-4.465,63.691,63.691,0,0,0,1.676-11.388,68.3,68.3,0,0,1,.515-6.976c2.121-13.179,15.15-22,19.38-34.664.4-1.209.594-2.82-.482-3.5a3.08,3.08,0,0,0-2.048-.214l-9.332,1.177a6.425,6.425,0,0,1-3.452-.2,2.215,2.215,0,0,1-1.263-2.851c1.585-2.871-1.675-6.5-3.124-9.442a139.328,139.328,0,0,0-13.874-22.5,2.286,2.286,0,0,1-.608-1.321l2.649.088c-.894-3.208-2.37-6.719-5.486-7.893-1.756-.661-3.7-.433-5.575-.33C563.832,386.622,558.078,385.811,552.766,384.99Z" transform="translate(-220.353 -172.334)" fill="#f8f8f8"/>
  <path id="Path_436" data-name="Path 436" d="M582.85,247.509c1.4,1.492,2.978,3.073,5.011,3.333,3.589.459,6.17-3.253,7.813-6.477a3.165,3.165,0,0,0,3.3,2.928,6.52,6.52,0,0,0,2.484-.971,48.931,48.931,0,0,1,23.182-5.993,2.5,2.5,0,0,1,1.912-2.752c1.648-.327,3.132,1.1,3.927,2.578s1.291,3.2,2.553,4.3,3.708,1.059,4.207-.545c.479-1.54-1.125-2.853-2.458-3.761s-2.738-2.588-1.84-3.928c6.809-1.507,13.661-3.02,20.629-3.32a8.637,8.637,0,0,0,3.472-.6,2.7,2.7,0,0,0,1.622-2.854,7.863,7.863,0,0,1-8.206-3.1c9.668-.8,19.951-1.478,28.52,3.071,1.028,2.207-4.212,4.044-2.81,6.035a2.538,2.538,0,0,0,2.12.724,105.12,105.12,0,0,0,17.83-.68,23.876,23.876,0,0,1,6.484-.526c3.6.444,6.675,2.844,10.214,3.627a5.465,5.465,0,0,0,4.27-.509c1.214-.838,1.736-2.746.741-3.835,3.332-3.266,8.863-2.457,13.26-.893s8.561,4.085,13.214,4.434c3.337.25,6.72-.648,10.017-.077a62.373,62.373,0,0,1,6.025,1.847c3.83,1.071,7.881.845,11.858.9a83.085,83.085,0,0,1,29.609,5.883A8.8,8.8,0,0,1,805.1,248.3a3.227,3.227,0,0,1,.735,3.541l-9.742-1.423c.918,1.807,3.292,2.115,5.221,2.738s3.928,2.753,2.769,4.415c-2.09-.665-3.983,1.424-5.038,3.346s-2.342,4.224-4.531,4.341c-1.961.1-4.332-1.565-5.61-.074a38.262,38.262,0,0,1,4.508,7.207c1.263,2.63,2.162,5.945.455,8.312a2.155,2.155,0,0,1-1.152.893c-1.394.353-2.3-1.352-3.3-2.386-1.26-1.3-3.164-1.671-4.87-2.282s-3.5-1.812-3.636-3.619a7.227,7.227,0,0,1,.948-3.208,12.362,12.362,0,0,0,.939-5.544,6.3,6.3,0,0,0-1.619-4.177,3.242,3.242,0,0,0-4.162-.428c-.549.455-.988,1.184-1.7,1.211-1.259.048-2.225-2.147-3.238-1.4a3.442,3.442,0,0,1-.468,2.3c-3.022,2.628-7.665,1.516-11.561,2.445a21.7,21.7,0,0,0-5.275,2.3,3.4,3.4,0,0,0-1.508,1.266,2.334,2.334,0,0,0,.907,2.784,7.2,7.2,0,0,0,2.991,1.021c4.75.9,9.569,2.292,13.319,5.343s6.209,8.094,5.023,12.781l-9.367-8.95q.534,5.637.606,11.305a5.079,5.079,0,0,1-.3,2.175c-.668,1.475-2.478,1.971-4.064,2.3a3.183,3.183,0,0,0-2.443,4.078c.563,1.837,1.968,3.269,3.255,4.7s2.553,3.048,2.721,4.962-1.276,4.071-3.192,3.938c-1.453-.1-2.531-1.4-3.151-2.719a17.281,17.281,0,0,0-1.92-3.906c-2.818-3.39-9.149-1.937-11.673-5.551a5.71,5.71,0,0,0-1.181,5.434c1.175-.735,2.783-.052,3.665,1.016a25.058,25.058,0,0,1,1.992,3.638c.935,1.619,2.424,3.055,2.554,4.92a16.076,16.076,0,0,0,.036,2.116c.232,1.13,1.187,1.942,1.85,2.887,1.541,2.2,1.465,5.218.472,7.712a23.784,23.784,0,0,1-4.546,6.6,79.587,79.587,0,0,1-9.9,9.969,10.4,10.4,0,0,0-2.81,2.828,3.067,3.067,0,0,0,.316,3.7c-.715.036-2,.388-2.713.423a63.1,63.1,0,0,1-.163-8.629c-2.823-1.355-5.862,2.274-5.5,5.384s2.614,5.605,4.215,8.3a9.8,9.8,0,0,1,1.651,6.518c-.391,2.256-2.4,4.337-4.686,4.138-3.628-.316-5.146-5.525-8.739-6.121a1.468,1.468,0,0,0-.945.094c-.533.293-.626,1.006-.656,1.614-.147,2.982-.274,6.083.89,8.833,1.7,4.023,6.1,7.4,5.18,11.671-4.972-2.311-7.557-7.887-8.731-13.243s-1.369-10.979-3.473-16.042c-1.6,2.048-4.956.355-6.415-1.793-1.384-2.037-2.236-4.393-3.578-6.457s-3.4-3.912-5.859-4.026c-2.579-.119-4.815,1.651-6.782,3.323a15.81,15.81,0,0,0-4.223,4.7c-1.376,2.766-1.016,6.026-1.082,9.115-.072,3.339-.779,6.862-3.055,9.306s-6.476,3.3-8.986,1.093a10.126,10.126,0,0,1-2.51-4.518,221.173,221.173,0,0,1-6.8-24.259c-.422,1.874-2.067,4.288-3.639,3.185a3.26,3.26,0,0,1-.838-1.08c-2.932-4.969-8.361-7.949-13.846-9.736s-11.257-2.621-16.682-4.585a42.254,42.254,0,0,1-8.654-4.311,6.806,6.806,0,0,0-.416,6.962,5.546,5.546,0,0,0,6.257,2.619c1.2-.385,2.222-1.221,3.417-1.634s2.8-.21,3.322.941c.5,1.1-.256,2.435.119,3.586.571,1.753,3.215,1.888,4.139,3.483a3.208,3.208,0,0,1-.86,3.72,15.571,15.571,0,0,1-3.491,2.149c-3.89,2.163-6.655,5.855-10.055,8.728s-8.2,4.97-12.246,3.127c.966-4.89-4.859-8.48-5.93-13.347-.353-1.6-.17-3.3-.673-4.865-.729-2.26-2.734-3.815-4.38-5.528a21.694,21.694,0,0,1-5.951-15.784c.089-2.012.458-4.056,0-6.017s-2.082-3.859-4.093-3.77c-4.595.2-10.383.545-12.794-3.372-.86-1.4-1.235-3.445.009-4.516a4.369,4.369,0,0,1,3.325-.571l10.353,1.018c2.421.238,5.039.435,7.117-.831s2.978-4.626,1.054-6.115c-1.406-1.088-3.924-1.029-4.333-2.759-.34-1.441,1.255-3.076.393-4.28-.618-.863-2.006-.624-2.848.023a18.247,18.247,0,0,1-2.393,2.084c-1.652.86-3.626.041-5.4-.515s-4.16-.6-5.022,1.047c-.964,1.846.855,4.265-.1,6.115-1.265,2.446-5.549,1.053-7.326,3.157-2.039,2.414,1.387,6.014.7,9.1a5.663,5.663,0,0,1-5.579-.313,5.419,5.419,0,0,1-2.342-5.046c.17-1.387.894-2.8.409-4.114a4.828,4.828,0,0,0-2.445-2.238l-10.06-5.559c-.934,1.733.247,3.881,1.724,5.182s3.327,2.282,4.3,3.994a5.243,5.243,0,0,1-1.973,6.912,1.21,1.21,0,0,1-1,.174,1.392,1.392,0,0,1-.647-.87c-1.775-4.542-4.44-9.021-8.7-11.394s-10.383-1.885-13.177,2.112c-.664.949-1.109,2.032-1.687,3.035-3.071,5.333-9.656,7.858-15.808,7.693a3.139,3.139,0,0,1-1.725-.405c-.994-.687-.95-2.144-.8-3.342l.646-5.087a4.041,4.041,0,0,1,1.126-2.788c1.14-.9,2.784-.332,4.235-.353a5.367,5.367,0,0,0,4.872-3.76,6.049,6.049,0,0,0-1.684-6.015c-.665-.625-1.558-1.41-1.207-2.252a1.861,1.861,0,0,1,1.305-.879c2.607-.757,5.362-.956,7.925-1.849s5.05-2.721,5.657-5.367c.186-.811.271-1.793,1-2.2a3,3,0,0,1,1.155-.236,5.619,5.619,0,0,0,4.819-5.857c1.229-.859,2.95-.227,4.139.686s2.238,2.119,3.684,2.513c2.7.734,5.3-1.653,8.093-1.664,1.174,0,2.39.411,3.5.012s1.789-1.519,2.649-2.343,2.368-1.326,3.162-.439l-.676-5.008A9.845,9.845,0,0,0,576.6,261.5l-8.738-2.952a1.9,1.9,0,0,1-.817-.437c-.635-.684,0-1.75.513-2.528,1.236-1.86,1.443-4.924-.589-5.85-1.387-.632-2.979.127-4.311.869l-6.378,3.556c-.2,1.212,1.28,1.9,2.2,2.716a3.686,3.686,0,0,1-2.4,6.441,4.593,4.593,0,0,1,.82,3.894l-4.291.309a1.859,1.859,0,0,1-1.392-.272c-.459-.408-.4-1.122-.5-1.726a3.746,3.746,0,0,0-3.143-2.744,11.055,11.055,0,0,0-4.393.406,2.622,2.622,0,0,1-1.889-.044,1.887,1.887,0,0,1-.747-.943,4.845,4.845,0,0,1,.975-4.651,25.808,25.808,0,0,1,3.658-3.365,21.322,21.322,0,0,0,6.34-9.834c2.362-.99,4.808-2.334,7.17-3.324a21.939,21.939,0,0,1,11.793-2.285l8,.153a19.181,19.181,0,0,1,6.991,1.006c2.19.9,4.114,2.856,4.266,5.22a1.6,1.6,0,0,1-.513,1.465,1.89,1.89,0,0,1-1.011.228C586,246.882,585.059,247.432,582.85,247.509Z" transform="translate(-233.998 -107.153)" fill="#f8f8f8"/>
  <path id="Path_437" data-name="Path 437" d="M517.738,307.622a2.341,2.341,0,0,0,.638-2.354,4.379,4.379,0,0,0-4.534.856,7.643,7.643,0,0,0-1.215,1.606c-1.051,1.715-1.981,3.764-1.372,5.681a1.613,1.613,0,0,0,.739,1.01,1.943,1.943,0,0,0,.861.135,28.86,28.86,0,0,0,3.464-.213c.706-.086,1.526-.286,1.8-.942.359-.863-.509-1.84-.256-2.74a2.993,2.993,0,0,1,.739-1.059,1.4,1.4,0,0,0,.436-1.175c-.1-.422-.749-.662-.981-.295" transform="translate(-232.648 -142.194)" fill="#fff"/>
  <path id="Path_438" data-name="Path 438" d="M530.35,295.564a9.689,9.689,0,0,0-3.139-.2,1.369,1.369,0,0,0-.669.152,1.116,1.116,0,0,0-.412.6,2.966,2.966,0,0,0,1.727,3.634,3.711,3.711,0,0,1,1.071.43c.888.689.322,2.1.49,3.208.189,1.248,1.4,2.3,1.175,3.537-.174.979-1.22,1.754-1.052,2.734.176,1.026,1.479,1.335,2.517,1.417a3.166,3.166,0,0,0,1.783-.2,2.761,2.761,0,0,0,1.125-1.629,10.439,10.439,0,0,0,.526-3.932,3.73,3.73,0,0,0-.443-1.735,9.687,9.687,0,0,0-1.036-1.186C532.022,300.076,534.116,296.626,530.35,295.564Z" transform="translate(-239.255 -137.922)" fill="#fff"/>
  <path id="Path_439" data-name="Path 439" d="M659.031,489.323s-152.321-87.435-217.9-70.868c0,0-138.974,14.956-155.081,47.859,0,0-44.177-138.054-60.284-142.656" transform="translate(-106.417 -150.461)" fill="none" stroke="#6c63ff" stroke-miterlimit="10" stroke-width="2" opacity="0.8"/>
  <path id="Path_440" data-name="Path 440" d="M286.054,465.583c25.54-68.107,255.63-143.576,255.63-143.576-32.673,8.283-100.549,95.717-100.549,95.717s-143.576-104.461-215.365-94.8c0,0,316.144,10.354,433.26,165.665" transform="translate(-106.416 -149.73)" fill="none" stroke="#6c63ff" stroke-miterlimit="10" stroke-width="2" opacity="0.8"/>
  <circle id="Ellipse_13" data-name="Ellipse 13" cx="6.673" cy="6.673" r="6.673" transform="translate(112.681 166.524)" fill="#6c63ff"/>
  <circle id="Ellipse_14" data-name="Ellipse 14" cx="6.673" cy="6.673" r="6.673" transform="translate(172.965 309.18)" fill="#6c63ff"/>
  <circle id="Ellipse_15" data-name="Ellipse 15" cx="6.673" cy="6.673" r="6.673" transform="translate(428.595 165.604)" fill="#6c63ff"/>
  <circle id="Ellipse_16" data-name="Ellipse 16" cx="6.673" cy="6.673" r="6.673" transform="translate(545.941 332.189)" fill="#6c63ff"/>
  <circle id="Ellipse_17" data-name="Ellipse 17" cx="6.673" cy="6.673" r="6.673" transform="translate(328.045 261.321)" fill="#6c63ff"/>
</svg>
