<svg xmlns="http://www.w3.org/2000/svg" xml:space="preserve" width="500" height="100">
  <path fill="#DE5128" d="M59.12 17.57H22.06L3.55 49.87l18.57 32.56h37.54l-9.39-16.34-18.67.02L22.25 50l9.35-16.69h18.5z"/>
  <path fill="#40BFEE" d="M48.42 36.57H32.96L25.18 50l7.73 13.13h15.51L56.1 50z"/>
  <path fill="#3574A1" d="m32.91 63.13 8.01-13.12L56.1 50l-7.68 13.13z"/>
  <path fill="#3695D2" d="m40.92 50.01-7.96-13.44h15.46L56.1 50z"/>
  <path fill="#F58220" d="m22.06 17.57 9.54 15.74h18.5l9.02-15.74zm28.21 48.52-18.67.02-9.48 16.32h37.54z"/>
  <path fill="#FFF" d="m118.94 37.54-3.8 4.73a15.04 15.04 0 0 0-10.72-4.9c-7.7 0-13.75 5.95-13.75 13.53s6.05 13.59 13.75 13.59c3.85 0 7.8-1.76 10.72-4.57l3.85 4.3c-3.9 3.84-9.46 6.32-14.9 6.32-11.27 0-20.02-8.53-20.02-19.58 0-10.94 8.86-19.36 20.24-19.36 5.44 0 10.89 2.26 14.63 5.94zm43.45 13.48c0 11-8.91 19.52-20.4 19.52s-20.4-8.53-20.4-19.52c0-11.06 8.9-19.42 20.4-19.42s20.4 8.42 20.4 19.42zm-34.2 0a13.8 13.8 0 0 0 13.85 13.69c7.53 0 13.7-6.05 13.7-13.7 0-7.64-6.17-13.58-13.7-13.58-7.59 0-13.86 5.94-13.86 13.59zm56.91-19.25c11.55 0 19.91 8.08 19.91 19.25 0 11.1-8.41 19.24-20.07 19.24h-15.62v-38.5h15.78zm-9.29 32.67h9.46c7.48 0 13.2-5.56 13.2-13.37 0-7.86-5.89-13.47-13.47-13.47h-9.19v26.84zm42.63-26.84V48h18.8v5.82h-18.8v10.61h21.66v5.83h-28.15v-38.5h27.5v5.84h-21.01zm44.93-5.83c9.68 0 15.23 4.78 15.23 13.14 0 8.7-5.55 13.75-15.23 13.75h-8.85v11.6h-6.5v-38.5h15.35zm-8.85 21.06h8.57c5.94 0 9.3-2.53 9.3-7.75 0-5.06-3.36-7.48-9.3-7.48h-8.57v15.23zm68.14-1.81c0 11-8.91 19.52-20.4 19.52-11.5 0-20.4-8.53-20.4-19.52 0-11.06 8.9-19.42 20.4-19.42 11.49 0 20.4 8.42 20.4 19.42zm-34.21 0c0 7.64 6.32 13.69 13.86 13.69S316 58.66 316 51c0-7.64-6.17-13.58-13.7-13.58-7.59 0-13.86 5.94-13.86 13.59zm58.52 7.58c-.55.06-1.16.06-1.76.06h-9.13v11.6h-6.49v-38.5h15.62c9.84 0 15.5 4.8 15.5 13.15 0 6.16-2.85 10.5-7.97 12.49l8.64 12.86H354l-7.04-11.66zm-1.76-5.77c5.94 0 9.35-2.53 9.35-7.75 0-5.06-3.41-7.48-9.35-7.48h-9.13v15.23h9.13zm38.22-15.23v32.66h-6.48V37.6h-12.16v-5.83h30.85v5.83h-12.2zm17.77 32.66v-38.5h6.49v38.5h-6.49zm43.61 0-20.51-27.6v27.6h-6.5v-38.5h6.39l20.62 27.67V31.77h6.38v38.5h-6.38zm48.56-18.91v14.18a26.1 26.1 0 0 1-14.95 5c-11.39 0-20.24-8.52-20.24-19.51 0-11 8.96-19.42 20.62-19.42 5.5 0 11 2.1 14.8 5.4l-3.7 4.78a16.73 16.73 0 0 0-11.1-4.4c-7.86 0-14.02 6-14.02 13.64 0 7.7 6.21 13.69 14.08 13.69 2.85 0 6.1-.99 8.85-2.64V51.35h5.66z"/>
</svg>
