<svg xmlns="http://www.w3.org/2000/svg" xmlns:xlink="http://www.w3.org/1999/xlink" version="1.1" width="500" height="100" enable-background="new 0 0 500 100" xml:space="preserve" style=""><rect id="backgroundrect" width="100%" height="100%" x="0" y="0" fill="none" stroke="none"/>




<g class="currentLayer" style=""><title>Layer 1</title><rect x="-17" y="-25" display="none" fill="#231F20" width="552" height="155.5" id="svg_1"/><image display="none" overflow="visible" width="270" height="50" transform="matrix(1.8519,0,0,1.8519,0,3.7036) " id="svg_2" xlink:href="../../aspose-logo-min.png">
</image><g id="CodePorting">
	<polygon fill="#DE5128" points="59.121,17.571 22.063,17.571 3.548,49.865 22.117,82.428 59.659,82.428 50.274,66.086    31.604,66.105 22.251,50 31.604,33.314 50.105,33.314  " id="svg_3"/>
	<polygon fill="#40BFEE" points="48.425,36.571 32.964,36.571 25.175,50 32.905,63.125 48.425,63.125 56.096,50  " id="svg_4"/>
	<polygon fill="#3574A1" points="32.905,63.125 40.916,50.007 56.096,50 48.425,63.125  " id="svg_5"/>
	<polygon fill="#3695D2" points="40.916,50.007 32.964,36.571 48.425,36.571 56.096,50  " id="svg_6"/>
	<polygon fill="#F58220" points="22.063,17.571 31.604,33.314 50.105,33.314 59.121,17.571  " id="svg_7"/>
	<polygon fill="#F58220" points="50.274,66.086 31.604,66.105 22.117,82.428 59.659,82.428  " id="svg_8"/>
</g><g id="svg_9" class="selected" fill="#000000" fill-opacity="1">
	<path fill="#000000" d="M118.938,37.543l-3.795,4.729c-2.805-3.024-6.819-4.895-10.724-4.895c-7.699,0-13.748,5.939-13.748,13.528   s6.049,13.583,13.748,13.583c3.85,0,7.809-1.76,10.724-4.564l3.85,4.29c-3.904,3.85-9.458,6.324-14.903,6.324   c-11.273,0-20.018-8.524-20.018-19.578c0-10.944,8.854-19.357,20.237-19.357C109.754,31.604,115.199,33.858,118.938,37.543z" id="svg_10" fill-opacity="1"/>
	<path fill="#000000" d="M162.387,51.016c0,10.999-8.909,19.523-20.402,19.523s-20.402-8.524-20.402-19.523   c0-11.053,8.909-19.412,20.402-19.412S162.387,40.018,162.387,51.016z M128.182,51.016c0,7.645,6.324,13.693,13.858,13.693   c7.534,0,13.693-6.049,13.693-13.693c0-7.644-6.159-13.583-13.693-13.583C134.451,37.433,128.182,43.372,128.182,51.016z" id="svg_11" fill-opacity="1"/>
	<path fill="#000000" d="M185.105,31.769c11.548,0,19.907,8.084,19.907,19.247c0,11.109-8.414,19.248-20.072,19.248h-15.618V31.769   H185.105z M175.811,64.435h9.459c7.479,0,13.198-5.554,13.198-13.363c0-7.864-5.884-13.473-13.473-13.473h-9.184V64.435z" id="svg_12" fill-opacity="1"/>
	<path fill="#000000" d="M218.436,37.598v10.394h18.808v5.829h-18.808v10.614h21.667v5.829h-28.156V31.769h27.497v5.83H218.436z" id="svg_13" fill-opacity="1"/>
	<path fill="#000000" d="M263.369,31.769c9.679,0,15.232,4.785,15.232,13.144c0,8.689-5.554,13.748-15.232,13.748h-8.854v11.604   h-6.489V31.769H263.369z M254.516,52.831h8.578c5.939,0,9.294-2.53,9.294-7.754c0-5.06-3.354-7.479-9.294-7.479h-8.578V52.831z" id="svg_14" fill-opacity="1"/>
	<path fill="#000000" d="M322.656,51.016c0,10.999-8.909,19.523-20.402,19.523c-11.494,0-20.402-8.524-20.402-19.523   c0-11.053,8.908-19.412,20.402-19.412C313.747,31.604,322.656,40.018,322.656,51.016z M288.45,51.016   c0,7.645,6.324,13.693,13.858,13.693s13.693-6.049,13.693-13.693c0-7.644-6.159-13.583-13.693-13.583   C294.72,37.433,288.45,43.372,288.45,51.016z" id="svg_15" fill-opacity="1"/>
	<path fill="#000000" d="M346.969,58.605c-0.551,0.055-1.155,0.055-1.76,0.055h-9.129v11.604h-6.489V31.769h15.618   c9.843,0,15.508,4.785,15.508,13.144c0,6.159-2.86,10.504-7.975,12.483l8.634,12.868h-7.368L346.969,58.605z M345.209,52.831   c5.938,0,9.349-2.53,9.349-7.754c0-5.06-3.41-7.479-9.349-7.479h-9.129v15.233H345.209z" id="svg_16" fill-opacity="1"/>
	<path fill="#000000" d="M383.434,37.598v32.666h-6.489V37.598h-12.153v-5.83h30.851v5.83H383.434z" id="svg_17" fill-opacity="1"/>
	<path fill="#000000" d="M401.2,70.264V31.769h6.489v38.495H401.2z" id="svg_18" fill-opacity="1"/>
	<path fill="#000000" d="M444.81,70.264l-20.512-27.606v27.606h-6.489V31.769h6.379L444.81,59.43V31.769h6.379v38.495H444.81z" id="svg_19" fill-opacity="1"/>
	<path fill="#000000" d="M493.374,51.346v14.188c-3.905,2.97-9.679,5.005-14.958,5.005c-11.384,0-20.237-8.524-20.237-19.523   c0-10.998,8.964-19.412,20.622-19.412c5.499,0,10.998,2.089,14.793,5.389l-3.685,4.784c-2.97-2.75-7.094-4.399-11.108-4.399   c-7.864,0-14.023,5.994-14.023,13.638c0,7.699,6.214,13.693,14.078,13.693c2.859,0,6.104-0.989,8.854-2.64V51.346H493.374z" id="svg_20" fill-opacity="1"/>
</g></g></svg>