<?xml version="1.0" standalone="no"?>
<!DOCTYPE svg PUBLIC "-//W3C//DTD SVG 20010904//EN"
 "http://www.w3.org/TR/2001/REC-SVG-20010904/DTD/svg10.dtd">
<svg version="1.0" xmlns="http://www.w3.org/2000/svg"
 width="120.000000pt" height="120.000000pt" viewBox="0 0 120.000000 120.000000"
 preserveAspectRatio="xMidYMid meet">
<metadata>
Created by potrace 1.14, written by Peter Selinger 2001-2017
</metadata>
<g transform="translate(0.000000,120.000000) scale(0.100000,-0.100000)"
fill="#000000" stroke="none">
<path d="M475 1189 c-223 -52 -409 -235 -459 -450 -18 -76 -17 -217 2 -289 53
-205 225 -378 427 -430 232 -60 471 19 622 205 90 111 126 212 129 362 5 196
-69 356 -222 481 -58 48 -176 105 -245 119 -61 13 -203 14 -254 2z m304 -59
c115 -38 220 -122 296 -236 101 -151 111 -371 24 -542 -93 -186 -268 -299
-474 -307 -105 -5 -166 6 -253 46 -154 69 -268 204 -313 369 -22 79 -19 229 6
308 53 172 213 325 390 373 92 25 232 20 324 -11z"/>
<path d="M585 1140 c-88 -33 -42 -159 47 -128 45 16 55 84 17 114 -23 18 -43
22 -64 14z m49 -55 c7 -19 -20 -46 -39 -39 -21 8 -26 32 -9 48 16 17 40 12 48
-9z"/>
<path d="M395 1098 c-11 -6 -21 -12 -23 -13 -1 -1 -7 -16 -12 -34 -18 -63 61
-110 110 -66 55 50 -10 148 -75 113z m50 -44 c15 -15 15 -18 0 -35 -9 -9 -23
-15 -30 -13 -21 9 -26 32 -9 49 19 19 19 19 39 -1z"/>
<path d="M745 1088 c-37 -29 -32 -85 10 -110 25 -14 34 -15 55 -5 14 7 31 24
38 39 21 44 -6 83 -65 94 -7 1 -24 -7 -38 -18z m75 -48 c0 -5 -7 -16 -16 -25
-12 -12 -19 -13 -30 -4 -17 14 -18 46 -1 52 15 5 47 -10 47 -23z"/>
<path d="M902 985 c-34 -15 -48 -48 -37 -87 7 -23 7 -23 -21 3 -26 24 -84 59
-109 66 -114 30 -209 26 -292 -11 -31 -15 -65 -34 -75 -43 -17 -15 -18 -14
-18 8 0 80 -110 97 -135 20 -14 -46 38 -100 82 -84 15 5 15 2 -3 -18 -12 -13
-29 -39 -38 -56 -19 -38 -29 -43 -21 -10 9 34 -28 77 -66 77 -65 0 -93 -80
-43 -119 31 -25 53 -26 80 -6 30 23 34 18 20 -23 -34 -97 -2 -264 65 -337 18
-20 17 -20 -14 -22 -59 -2 -87 -68 -47 -111 41 -44 120 -15 120 45 0 24 1 25
18 11 88 -78 267 -98 387 -44 33 15 71 38 85 51 l26 25 -4 -34 c-5 -43 25 -76
68 -76 29 0 70 32 70 54 -1 53 -46 91 -89 75 -23 -9 -23 -9 -7 13 9 13 30 51
47 86 61 123 41 307 -43 399 l-20 22 29 -1 c62 -2 99 48 73 97 -19 35 -50 45
-88 30z m-598 -73 c-14 -22 -34 -22 -48 1 -9 15 -7 21 9 33 17 12 21 12 34 -1
12 -12 13 -19 5 -33z m656 13 c0 -21 -34 -37 -48 -23 -26 26 -2 64 30 47 10
-5 18 -16 18 -24z m-218 -7 c72 -33 142 -103 176 -176 23 -48 27 -71 27 -142
0 -104 -29 -174 -100 -245 -70 -71 -141 -99 -245 -100 -104 0 -174 29 -245
100 -71 71 -100 141 -99 245 0 92 17 147 69 214 95 124 275 169 417 104z
m-545 -124 c8 -21 -19 -46 -40 -38 -17 6 -23 35 -10 47 12 13 44 7 50 -9z
m107 -506 c15 -24 -10 -51 -35 -37 -22 11 -24 30 -7 47 15 15 28 11 42 -10z
m656 -13 c0 -21 -34 -37 -48 -23 -26 26 -2 64 30 47 10 -5 18 -16 18 -24z"/>
<path d="M497 880 c-71 -27 -131 -82 -164 -148 -36 -74 -39 -182 -6 -253 104
-229 430 -235 540 -11 36 74 39 182 6 253 -27 60 -92 125 -152 152 -63 28
-161 31 -224 7z m197 -40 c34 -13 68 -35 90 -60 57 -63 70 -96 70 -180 1 -90
-21 -139 -85 -194 -173 -148 -435 -23 -425 204 3 79 29 134 87 184 77 66 167
81 263 46z"/>
<path d="M434 646 c-3 -7 -4 -33 -2 -57 l3 -44 73 -3 c67 -3 74 -1 79 18 7 26
19 26 26 0 5 -19 12 -21 79 -18 l73 3 0 55 0 55 -73 3 c-67 3 -74 1 -79 -18
-7 -26 -19 -26 -26 0 -5 18 -14 20 -76 20 -52 0 -73 -4 -77 -14z m99 -40 c-4
-17 0 -25 14 -29 10 -3 -6 -5 -34 -6 -52 -1 -53 -1 -53 29 0 28 2 30 39 30 35
0 38 -2 34 -24z m207 -6 c0 -30 -1 -30 -52 -29 -29 1 -45 3 -35 6 9 2 17 13
17 23 0 10 -8 21 -17 23 -10 3 6 5 35 6 51 1 52 1 52 -29z"/>
<path d="M992 827 c-12 -13 -22 -33 -22 -46 0 -28 42 -71 70 -71 28 0 70 43
70 73 0 59 -77 88 -118 44z m76 -43 c4 -27 -26 -40 -46 -20 -21 20 -8 48 20
44 14 -2 24 -11 26 -24z"/>
<path d="M93 658 c-43 -21 -39 -94 7 -118 29 -16 49 -12 75 15 32 31 32 59 0
90 -26 27 -47 30 -82 13z m62 -49 c8 -23 -9 -41 -35 -36 -20 3 -26 37 -8 48
22 14 36 10 43 -12z"/>
<path d="M1035 645 c-14 -13 -25 -33 -25 -45 0 -27 43 -70 69 -70 11 0 32 10
47 23 23 20 26 28 20 59 -4 24 -14 39 -32 46 -37 17 -52 15 -79 -13z m70 -45
c0 -20 -5 -25 -25 -25 -28 0 -41 32 -18 46 23 15 43 5 43 -21z"/>
<path d="M126 469 c-32 -25 -34 -66 -6 -97 29 -31 73 -29 99 4 27 35 26 59 -4
89 -30 30 -54 31 -89 4z m64 -34 c18 -21 5 -47 -22 -43 -26 3 -37 36 -16 49
18 12 24 11 38 -6z"/>
<path d="M995 465 c-31 -30 -32 -65 -2 -93 29 -28 67 -28 95 -2 48 45 13 119
-56 120 -7 0 -24 -11 -37 -25z m63 -24 c21 -13 10 -46 -16 -49 -27 -4 -40 22
-22 43 14 17 20 18 38 6z"/>
<path d="M398 228 c-32 -11 -53 -60 -37 -89 36 -68 129 -49 129 26 0 49 -44
79 -92 63z m52 -68 c0 -24 -26 -32 -45 -14 -19 19 -19 19 1 39 19 18 44 4 44
-25z"/>
<path d="M765 230 c-52 -19 -60 -88 -15 -122 50 -37 121 19 100 77 -14 37 -52
57 -85 45z m39 -45 c8 -9 13 -22 10 -30 -9 -21 -32 -26 -49 -8 -15 14 -14 17
1 34 21 23 19 23 38 4z"/>
<path d="M585 190 c-49 -18 -63 -76 -27 -112 42 -43 112 -13 112 47 0 47 -44
80 -85 65z m39 -46 c21 -21 5 -54 -23 -47 -27 7 -33 29 -15 48 19 19 19 19 38
-1z"/>
</g>
</svg>
