<?xml version="1.0" encoding="utf-8"?>
<!-- Generator: Adobe Illustrator 25.2.0, SVG Export Plug-In . SVG Version: 6.00 Build 0)  -->
<svg version="1.1" id="NET" xmlns="http://www.w3.org/2000/svg" xmlns:xlink="http://www.w3.org/1999/xlink" x="0px" y="0px"
	 viewBox="0 0 512 512" style="enable-background:new 0 0 512 512;" xml:space="preserve">
<style type="text/css">
	.st0{fill:#9DC825;}
</style>
<g>
	<g>
		<g>
			<path class="st0" d="M256,141.5c60.3,0,115.5,21.4,163.8,64.3c21,18.4,36,37.6,45.3,50.2c-9.3,13.1-24.8,31.7-45.9,50.7
				C371,349.1,316,371,256,371c-58.4,0-113.1-21.4-161.7-64.3c-21.4-19-37.6-37.9-47.2-51.2c8.8-12.6,23.8-31.7,44.3-50.2
				C139.1,162.9,194.6,141.5,256,141.5 M256,107.4C83.9,107.4,6,256,6,256s86.2,148.6,250,148.6c166.7,0,250-148.6,250-148.6
				S424.6,107.4,256,107.4L256,107.4z"/>
		</g>
	</g>
	<g>
		<path class="st0" d="M256,217c21,0,38.4,17.1,38.4,38.4c0,21-17.1,38.4-38.4,38.4s-38.4-17.1-38.4-38.4
			C217.6,234.6,234.6,217,256,217 M256,168.2c-48.3,0-87.2,39-87.2,87.2s39,87.2,87.2,87.2s87.2-39,87.2-87.2S303.8,168.2,256,168.2
			L256,168.2z"/>
	</g>
</g>
</svg>
