<?xml version="1.0" encoding="utf-8"?>
<!-- Generator: Adobe Illustrator 25.2.0, SVG Export Plug-In . SVG Version: 6.00 Build 0)  -->
<svg version="1.1" id="Layer_1" xmlns="http://www.w3.org/2000/svg" xmlns:xlink="http://www.w3.org/1999/xlink" x="0px" y="0px"
	 viewBox="0 0 320 320" style="enable-background:new 0 0 320 320;" xml:space="preserve">
<style type="text/css">
	.st0{fill:none;stroke:#EFEFEF;stroke-linecap:round;stroke-linejoin:round;stroke-miterlimit:10;stroke-dasharray:4,8;}
	.st1{fill-rule:evenodd;clip-rule:evenodd;fill:#FFFFFF;}
	.st2{fill-rule:evenodd;clip-rule:evenodd;fill:#A4C547;}
	.st3{fill:#A4C547;}
	.st4{fill:#FFFFFF;}
	.st5{display:none;fill:#FFFFFF;}
	.st6{fill:#EFEFEF;}
	.st7{fill:#DEDFDF;}
	.st8{fill:#4296D2;}
	.st9{fill:#0866AA;}
	.st10{fill:#2178BD;}
	.st11{fill:#4096D2;}
</style>
<circle class="st0" cx="154.17" cy="163.2" r="123.74"/>
<g id="PDF">
	<path id="XMLID_36_" class="st1" d="M227.52,154.45c-19.56,0-36.18,6.88-49.85,20.64c-13.75,13.68-20.63,30.3-20.63,49.87
		s6.88,36.16,20.63,49.75c5.05,5.15,10.51,9.33,16.4,12.57h-85.6c-1.37-0.08-2.69-0.47-3.97-1.15c-2.13-1.02-3.2-3.04-3.2-6.03
		V105.99c0.17-1.54,0.51-2.86,1.02-3.98c1.11-2.14,3.16-3.2,6.15-3.2h174.14l1.15,0.26c1.02,0.17,1.92,0.42,2.69,0.77
		c2.22,1.02,3.33,3.07,3.33,6.15v85.66c-3.23-5.91-7.41-11.43-12.56-16.54C263.4,161.33,246.83,154.45,227.52,154.45z"/>
	<path id="XMLID_33_" class="st2" d="M227.52,154.45c19.31,0,35.88,6.88,49.72,20.64c5.15,5.11,9.33,10.62,12.56,16.54v-85.64
		c0-3.08-1.11-5.13-3.33-6.15c-0.77-0.34-1.67-0.6-2.69-0.77l-1.15-0.26H108.48c-2.99,0-5.04,1.07-6.15,3.2
		c-0.52,1.11-0.86,2.44-1.02,3.98v174.13c0,2.99,1.07,5,3.2,6.03c1.28,0.68,2.6,1.07,3.97,1.15h85.6
		c-5.89-3.23-11.35-7.42-16.4-12.57c-13.75-13.59-20.63-30.17-20.63-49.75s6.88-36.2,20.63-49.87
		C191.34,161.33,207.96,154.45,227.52,154.45z M287.23,90.85c1.88,0.34,3.33,0.81,4.36,1.41c4.27,2.05,6.41,5.77,6.41,11.16v121.56
		c0,19.49-6.92,36.08-20.76,49.75c-13.83,13.85-30.41,20.77-49.72,20.77H105.91c-2.05,0-4.19-0.51-6.41-1.54
		c-4.27-2.22-6.41-5.98-6.41-11.28V103.42c0-2.14,0.55-4.27,1.66-6.41c2.05-4.27,5.77-6.41,11.15-6.41h179.27L287.23,90.85z"/>
	<g>
		<path class="st3" d="M144.47,130.13c0,4.64-1.52,8.2-4.56,10.66c-3.04,2.47-7.36,3.7-12.98,3.7h-4.62v16.62h-7.26v-44.42h12.8
			c5.55,0,9.71,1.14,12.48,3.4C143.09,122.37,144.47,125.71,144.47,130.13z M122.33,138.39h3.86c3.73,0,6.46-0.65,8.2-1.94
			c1.74-1.3,2.61-3.32,2.61-6.08c0-2.55-0.78-4.45-2.34-5.71c-1.56-1.25-3.99-1.88-7.29-1.88h-5.05L122.33,138.39L122.33,138.39z"/>
	</g>
	<g id="_x33__8_">
		<g>
			<g>
				<path class="st4" d="M271.36,230.03h-37.98c-1.28,0-2.33-1.05-2.33-2.33v-24.73c0-1.28,1.05-2.33,2.33-2.33h37.98
					c1.28,0,2.33,1.05,2.33,2.33v24.73C273.69,228.99,272.64,230.03,271.36,230.03z"/>
				<polygon class="st3" points="235.9,224.77 244.71,215.5 250.74,221.39 260,209.11 270.24,224.58 				"/>
				<circle class="st3" cx="238.28" cy="209.84" r="2.38"/>
			</g>
			<g id="Lines_9_">
				<path class="st4" d="M220.05,229.42h-19.7c-2.56,0-4.65-2.09-4.65-4.65l0,0c0-2.56,2.09-4.65,4.65-4.65h19.7
					c2.56,0,4.65,2.09,4.65,4.65l0,0C224.7,227.33,222.61,229.42,220.05,229.42z"/>
				<ellipse class="st4" cx="186.22" cy="224.77" rx="4.64" ry="4.64"/>
				<g>
					<path class="st4" d="M220.05,209.95h-33.82c-2.56,0-4.65-2.09-4.65-4.65l0,0c0-2.56,2.09-4.65,4.65-4.65h33.82
						c2.56,0,4.65,2.09,4.65,4.65l0,0C224.7,207.85,222.61,209.95,220.05,209.95z"/>
					<ellipse class="st5" cx="187.81" cy="250.08" rx="4.64" ry="4.64"/>
				</g>
				<g>
					<path class="st4" d="M236.97,248.69h-50.74c-2.56,0-4.65-2.09-4.65-4.65l0,0c0-2.56,2.09-4.65,4.65-4.65h50.74
						c2.56,0,4.65,2.09,4.65,4.65l0,0C241.62,246.59,239.53,248.69,236.97,248.69z"/>
					<ellipse class="st5" cx="187.81" cy="234.12" rx="4.64" ry="4.64"/>
				</g>
			</g>
		</g>
		<path class="st5" d="M209.64,222.61h-21.61c-2.56,0-4.65-2.09-4.65-4.65l0,0c0-2.56,2.09-4.65,4.65-4.65h21.61
			c2.56,0,4.65,2.09,4.65,4.65l0,0C214.29,220.52,212.19,222.61,209.64,222.61z"/>
		<path class="st5" d="M209.64,202.52h-21.61c-2.56,0-4.65-2.09-4.65-4.65l0,0c0-2.56,2.09-4.65,4.65-4.65h21.61
			c2.56,0,4.65,2.09,4.65,4.65l0,0C214.29,200.43,212.19,202.52,209.64,202.52z"/>
		<path class="st4" d="M236.97,248.69h-1.35c-2.56,0-4.65-2.09-4.65-4.65l0,0c0-2.56,2.09-4.65,4.65-4.65h1.35
			c2.56,0,4.65,2.09,4.65,4.65l0,0C241.62,246.59,239.53,248.69,236.97,248.69z"/>
		<path class="st4" d="M269.04,248.69h-15.92c-2.56,0-4.65-2.09-4.65-4.65l0,0c0-2.56,2.09-4.65,4.65-4.65h15.92
			c2.56,0,4.65,2.09,4.65,4.65l0,0C273.69,246.59,271.6,248.69,269.04,248.69z"/>
	</g>
</g>
<g>
	<path class="st6" d="M274.83,141.96c-19.03,0-34.51-15.48-34.51-34.51s15.48-34.51,34.51-34.51s34.51,15.48,34.51,34.51
		S293.86,141.96,274.83,141.96z"/>
	<path class="st7" d="M274.83,74.45c18.2,0,33.01,14.81,33.01,33.01s-14.81,33.01-33.01,33.01s-33.01-14.81-33.01-33.01
		S256.63,74.45,274.83,74.45 M274.83,71.45c-19.89,0-36.01,16.12-36.01,36.01s16.12,36.01,36.01,36.01s36.01-16.12,36.01-36.01
		S294.72,71.45,274.83,71.45L274.83,71.45z"/>
</g>
<g>
	<g>
		<polygon class="st8" points="212.94,47.07 231.19,48.19 229.78,65.23 222.61,70.15 215.36,66.73 		"/>
		<polygon class="st8" points="159.28,50.4 163.44,50.4 164.78,47.07 165.44,27.68 158.78,23.9 146.28,23.9 145.28,38.07 
			145.78,49.98 		"/>
		<polygon class="st8" points="89.03,54.9 82.11,48.65 70.36,49.07 69.94,74.9 70.69,75.82 89.03,75.82 		"/>
		<polygon class="st8" points="46.53,116.48 40.28,110.32 28.11,110.32 28.11,137.23 46.53,137.57 		"/>
		<polygon class="st8" points="51.03,191.07 44.94,185.65 28.69,185.32 27.19,187.15 27.19,208.69 50.53,209.07 		"/>
		<polygon class="st8" points="78.78,247.15 72.78,241.15 58.44,240.67 59.03,267.98 77.69,267.98 		"/>
	</g>
	<g>
		<g>
			<path class="st6" d="M210.79,45.07h22.5l-2.05,23.2l-9.2,3.05l-9.2-3.05L210.79,45.07z M228.83,52.57l0.29-2.81H215l0.7,8.55
				h9.79l-0.35,3.63l-3.11,0.82l-3.16-0.82l-0.23-2.23h-2.75l0.35,4.45l5.8,1.58h0.06l5.68-1.58l0.82-8.73h-10.31l-0.23-2.87h10.77
				V52.57z"/>
		</g>
		<g>
			<path class="st6" d="M165.44,27.68c0.55,0.55,0.82,1.21,0.82,1.99v19.45c0,0.78-0.27,1.44-0.82,1.99
				c-0.55,0.55-1.21,0.82-1.99,0.82h-16.87c-0.78,0-1.45-0.27-1.99-0.82c-0.55-0.55-0.82-1.21-0.82-1.99V24.75
				c0-0.78,0.27-1.44,0.82-1.99s1.21-0.82,1.99-0.82h11.95c0.78,0,1.44,0.27,1.99,0.82L165.44,27.68z M146.57,49.12h16.87V32.25
				h-6.09c-0.39,0-0.72-0.14-1-0.41c-0.27-0.27-0.41-0.6-0.41-1v-6.09h-9.38v24.37H146.57z M149.27,33.07
				c0.55-0.55,1.21-0.82,1.99-0.82s1.44,0.27,1.99,0.82s0.82,1.21,0.82,1.99c0,0.78-0.27,1.45-0.82,1.99
				c-0.55,0.55-1.21,0.82-1.99,0.82s-1.45-0.27-1.99-0.82c-0.55-0.55-0.82-1.21-0.82-1.99S148.72,33.62,149.27,33.07z M148.45,46.31
				v-3.75l2.34-2.34c0.31-0.31,0.62-0.31,0.94,0l2.34,2.34l5.16-5.16c0.31-0.31,0.62-0.31,0.94,0l1.41,1.41v7.5H148.45z
				 M163.21,29.44l-4.45-4.45v4.45C158.76,29.44,163.21,29.44,163.21,29.44z"/>
		</g>
		<g>
			<path class="st6" d="M89.97,53.39c0.55,0.55,0.82,1.21,0.82,1.99v19.45c0,0.78-0.27,1.44-0.82,1.99
				c-0.55,0.55-1.21,0.82-1.99,0.82H71.1c-0.78,0-1.45-0.27-1.99-0.82c-0.55-0.55-0.82-1.21-0.82-1.99V50.46
				c0-0.78,0.27-1.44,0.82-1.99c0.55-0.55,1.21-0.82,1.99-0.82h11.95c0.78,0,1.44,0.27,1.99,0.82L89.97,53.39z M71.1,74.83h16.88
				V57.96h-6.09c-0.39,0-0.72-0.14-1-0.41c-0.27-0.27-0.41-0.6-0.41-1v-6.09H71.1V74.83z M83.53,60.77c0.27,0,0.48,0.12,0.62,0.35
				s0.13,0.47-0.03,0.7c-1.37,2.38-2.27,3.91-2.7,4.57l2.7,4.57c0.16,0.23,0.17,0.47,0.03,0.7c-0.14,0.23-0.34,0.35-0.62,0.35h-1.7
				c-0.27,0-0.47-0.12-0.59-0.35c-0.08-0.12-0.64-1.25-1.7-3.4c-0.47,1.05-1.04,2.19-1.7,3.4c-0.12,0.23-0.31,0.35-0.59,0.35h-1.7
				c-0.27,0-0.48-0.12-0.62-0.35c-0.14-0.23-0.13-0.47,0.03-0.7l2.7-4.57l-2.7-4.57c-0.16-0.23-0.17-0.47-0.03-0.7
				s0.34-0.35,0.62-0.35h1.7c0.27,0,0.49,0.12,0.64,0.35c0.35,0.7,0.9,1.84,1.64,3.4c0.35-0.86,0.92-1.99,1.7-3.4
				c0.12-0.23,0.31-0.35,0.59-0.35C81.82,60.77,83.53,60.77,83.53,60.77z M87.74,55.15l-4.45-4.45v4.45H87.74z"/>
		</g>
		<g>
			<path class="st6" d="M47.5,115.02c0.55,0.55,0.82,1.21,0.82,1.99v19.45c0,0.78-0.27,1.44-0.82,1.99s-1.21,0.82-1.99,0.82H28.64
				c-0.78,0-1.45-0.27-1.99-0.82c-0.55-0.55-0.82-1.21-0.82-1.99v-24.38c0-0.78,0.27-1.44,0.82-1.99c0.55-0.55,1.21-0.82,1.99-0.82
				h11.95c0.78,0,1.44,0.27,1.99,0.82L47.5,115.02z M28.64,136.47h16.88v-16.88h-6.09c-0.39,0-0.72-0.14-1-0.41
				c-0.27-0.27-0.41-0.6-0.41-1v-6.09h-9.38C28.64,112.09,28.64,136.47,28.64,136.47z M41.53,124.28h0.94
				c0.23,0,0.42,0.09,0.56,0.26c0.14,0.18,0.18,0.38,0.15,0.62c-0.39,1.48-1.08,4.14-2.05,7.97c-0.08,0.35-0.31,0.53-0.7,0.53h-1.41
				c-0.39,0-0.62-0.18-0.7-0.53c-0.27-1.13-0.62-2.54-1.05-4.22l-0.18-1c0,0.31-0.06,0.64-0.18,1l-1.05,4.22
				c-0.08,0.35-0.29,0.53-0.64,0.53h-1.46c-0.39,0-0.62-0.18-0.7-0.53c-0.12-0.47-0.43-1.75-0.94-3.84c-0.51-2.09-0.84-3.47-1-4.13
				c-0.08-0.23-0.04-0.44,0.12-0.62c0.16-0.18,0.33-0.26,0.53-0.26h1c0.39,0,0.62,0.2,0.7,0.59c0.74,3.75,1.11,5.68,1.11,5.8
				c0,0.04,0.02,0.12,0.06,0.23c0-0.23,0.47-2.27,1.41-6.09c0.12-0.35,0.35-0.53,0.7-0.53h0.76c0.39,0,0.62,0.18,0.7,0.53
				c0.9,3.79,1.37,5.74,1.41,5.86c0,0.04,0,0.12,0,0.23c0.04-0.23,0.45-2.25,1.23-6.04C40.9,124.47,41.14,124.28,41.53,124.28z
				 M45.28,116.78l-4.45-4.45v4.45H45.28z"/>
		</g>
		<g>
			<path class="st6" d="M51.25,190.05c0.55,0.55,0.82,1.21,0.82,1.99v15.7c0,0.78-0.27,1.45-0.82,1.99
				c-0.55,0.55-1.21,0.82-1.99,0.82H28.64c-0.78,0-1.45-0.27-1.99-0.82c-0.55-0.55-0.82-1.21-0.82-1.99v-20.62
				c0-0.78,0.27-1.44,0.82-1.99s1.21-0.82,1.99-0.82h15.7c0.78,0,1.44,0.27,1.99,0.82L51.25,190.05z M48.91,207.75
				c0.23,0,0.35-0.12,0.35-0.35v-15.23c0-0.08-0.04-0.16-0.12-0.23l-4.57-4.57v5.86c0,0.39-0.14,0.72-0.41,1
				c-0.27,0.27-0.61,0.41-1,0.41H32.85c-0.39,0-0.72-0.14-1-0.41c-0.27-0.27-0.41-0.6-0.41-1v-6.09h-2.46
				c-0.23,0-0.35,0.12-0.35,0.35v19.92c0,0.23,0.12,0.35,0.35,0.35h19.93V207.75z M35.31,197.55c1.02-1.01,2.23-1.52,3.63-1.52
				s2.62,0.51,3.63,1.52c1.02,1.02,1.52,2.23,1.52,3.63s-0.51,2.62-1.52,3.63c-1.02,1.02-2.23,1.52-3.63,1.52s-2.62-0.51-3.63-1.52
				c-1.02-1.01-1.52-2.23-1.52-3.63S34.3,198.57,35.31,197.55z M41.76,187.12h-7.5v4.69h7.5V187.12z M37.28,202.86
				c0.45,0.45,1,0.67,1.67,0.67c0.66,0,1.22-0.22,1.67-0.67c0.45-0.45,0.67-1,0.67-1.67c0-0.66-0.23-1.22-0.67-1.67
				c-0.45-0.45-1.01-0.67-1.67-0.67c-0.67,0-1.22,0.23-1.67,0.67c-0.45,0.45-0.67,1.01-0.67,1.67
				C36.6,201.85,36.83,202.41,37.28,202.86z"/>
		</g>
		<g>
			<path class="st6" d="M79.3,245.59c0.55,0.55,0.82,1.21,0.82,1.99v19.45c0,0.78-0.27,1.44-0.82,1.99s-1.21,0.82-1.99,0.82H60.44
				c-0.78,0-1.45-0.27-1.99-0.82c-0.55-0.55-0.82-1.21-0.82-1.99v-24.38c0-0.78,0.27-1.45,0.82-1.99c0.55-0.55,1.21-0.82,1.99-0.82
				h11.95c0.78,0,1.44,0.27,1.99,0.82L79.3,245.59z M77.31,267.03v-16.88h-6.09c-0.39,0-0.72-0.14-1-0.41
				c-0.27-0.27-0.41-0.61-0.41-1v-6.09h-9.38v24.38H77.31z M66.41,260.29c0.23,0.23,0.23,0.49,0,0.76l-1,1.05
				c-0.12,0.12-0.25,0.18-0.41,0.18c-0.12,0-0.23-0.06-0.35-0.18l-3.34-3.16c-0.27-0.23-0.27-0.47,0-0.7l3.34-3.16
				c0.27-0.27,0.53-0.27,0.76,0l1,1.05v0.06c0.23,0.23,0.23,0.47,0,0.7l-1.93,1.7L66.41,260.29z M69.93,252.38l1.41,0.41
				c0.35,0.08,0.47,0.29,0.35,0.64l-3.22,11.02c-0.08,0.35-0.29,0.47-0.64,0.35l-1.41-0.41c-0.35-0.08-0.47-0.29-0.35-0.64
				l3.22-11.02C69.36,252.42,69.58,252.31,69.93,252.38z M71.33,256.9c-0.23-0.23-0.23-0.49,0-0.76l1-1.05
				c0.23-0.27,0.49-0.27,0.76,0l3.34,3.16c0.27,0.23,0.27,0.47,0,0.7l-3.34,3.16c-0.27,0.27-0.53,0.27-0.76,0l-1-1.05V261
				c-0.23-0.23-0.23-0.47,0-0.7l1.93-1.7L71.33,256.9z M72.62,242.89v4.45h4.45L72.62,242.89z"/>
		</g>
	</g>
</g>
<g>
	<path class="st9" d="M290.89,92.24l-7.3-3.51c-0.84-0.41-1.85-0.24-2.52,0.43l-23.89,21.78c-0.64,0.59-0.64,1.6,0,2.18l1.95,1.77
		c0.53,0.48,1.32,0.51,1.88,0.08l28.77-21.83c0.97-0.73,2.35-0.04,2.35,1.17v-0.08C292.14,93.38,291.66,92.61,290.89,92.24z"/>
	<g>
		<path class="st10" d="M290.89,120.01l-7.3,3.51c-0.84,0.41-1.85,0.24-2.52-0.43l-23.89-21.78c-0.64-0.59-0.64-1.6,0-2.18
			l1.95-1.77c0.53-0.48,1.32-0.51,1.88-0.08l28.77,21.83c0.97,0.73,2.35,0.04,2.35-1.17v0.08
			C292.14,118.87,291.66,119.64,290.89,120.01z"/>
	</g>
	<g>
		<path class="st11" d="M283.59,123.53c-0.84,0.41-1.85,0.23-2.52-0.43c0.82,0.82,2.21,0.24,2.21-0.92V90.07
			c0-1.16-1.4-1.73-2.21-0.92c0.66-0.66,1.67-0.83,2.52-0.43l7.3,3.51c0.77,0.37,1.25,1.14,1.25,2v23.79c0,0.85-0.49,1.63-1.25,1.99
			L283.59,123.53z"/>
	</g>
</g>
<g>
	<g>
		<g>
			<circle class="st5" cx="923.49" cy="-48.5" r="8.07"/>
		</g>
	</g>
</g>
</svg>
