<svg xmlns="http://www.w3.org/2000/svg" xmlns:xlink="http://www.w3.org/1999/xlink" width="32.047" height="48" viewBox="0 0 32.047 48">
  <defs>
    <linearGradient id="linear-gradient" x1="0.5" x2="0.5" y2="1" gradientUnits="objectBoundingBox">
      <stop offset="0" stop-color="#2864e4"/>
      <stop offset="1" stop-color="#0c2152"/>
    </linearGradient>
  </defs>
  <path id="device2" d="M39.347,2a5.76,5.76,0,0,1,4.235,1.765A5.76,5.76,0,0,1,45.347,8V44a6.025,6.025,0,0,1-6,6H19.3a6.025,6.025,0,0,1-6-6V8a5.76,5.76,0,0,1,1.765-4.235A5.76,5.76,0,0,1,19.3,2ZM17.888,6.588A1.813,1.813,0,0,0,17.324,8V44a2.1,2.1,0,0,0,.565,1.412,1.813,1.813,0,0,0,1.412.565H39.276a2.1,2.1,0,0,0,1.412-.565A1.813,1.813,0,0,0,41.253,44V8a2.1,2.1,0,0,0-.565-1.412,1.721,1.721,0,0,0-1.412-.565H19.3A1.912,1.912,0,0,0,17.888,6.588ZM30.735,40.612a1.813,1.813,0,0,1,.565,1.412,2.1,2.1,0,0,1-.565,1.412A1.721,1.721,0,0,1,29.324,44a2.1,2.1,0,0,1-1.412-.565,1.721,1.721,0,0,1-.565-1.412,2.1,2.1,0,0,1,.565-1.412,1.721,1.721,0,0,1,1.412-.565A1.813,1.813,0,0,1,30.735,40.612Z" transform="translate(-13.3 -2)" fill="url(#linear-gradient)"/>
</svg>
