<svg xmlns="http://www.w3.org/2000/svg" xmlns:xlink="http://www.w3.org/1999/xlink" width="46.8" height="48" viewBox="0 0 46.8 48">
  <defs>
    <linearGradient id="linear-gradient" x1="0.5" y1="1" x2="0.5" gradientUnits="objectBoundingBox">
      <stop offset="0" stop-color="#2762e3"/>
      <stop offset="0.129" stop-color="#255eda"/>
      <stop offset="0.338" stop-color="#2153c2"/>
      <stop offset="0.603" stop-color="#19419a"/>
      <stop offset="0.91" stop-color="#0f2963"/>
      <stop offset="1" stop-color="#0c2152"/>
    </linearGradient>
  </defs>
  <path id="settings2" d="M31.488,2,32.9,8.988a19.863,19.863,0,0,1,4.8,2.824l5.365-1.835,1.412-.494L49.7,18.518l-5.224,4.588.071.494a12.462,12.462,0,0,1,.282,2.4,12.461,12.461,0,0,1-.282,2.4l-.071.494L49.7,33.482l-5.224,9.035-1.412-.494L37.7,40.188a18.611,18.611,0,0,1-4.8,2.824L31.488,50H21.041l-1.412-6.988a19.864,19.864,0,0,1-4.8-2.824L9.465,42.024l-1.412.494L2.9,33.482l5.224-4.588L8.053,28.4A23.033,23.033,0,0,1,7.771,26a12.461,12.461,0,0,1,.282-2.4l.071-.494L2.9,18.518,8.124,9.482l1.412.494L14.9,11.812a18.611,18.611,0,0,1,4.8-2.824l1.129-5.506L21.041,2Zm-8.329,8.471L22.947,11.6l-1.059.353A14.338,14.338,0,0,0,16.312,15.2l-.776.776L9.818,14,7.629,17.741,11.3,21.059l.847.706-.282,1.129a16.339,16.339,0,0,0-.353,3.247,16.339,16.339,0,0,0,.353,3.247l.282,1.129-.847.706L7.629,34.541l2.188,3.741,5.718-1.976.776.776a14.338,14.338,0,0,0,5.576,3.247l1.059.353,1.129,5.859h4.376l1.129-5.859,1.059-.353a14.338,14.338,0,0,0,5.576-3.247l.776-.776,5.718,1.976L44.9,34.541l-4.518-3.953.212-1.129a16.34,16.34,0,0,0,.353-3.247,16.34,16.34,0,0,0-.353-3.247l-.212-1.271.847-.706L44.9,17.671l-2.188-3.741-5.718,1.976-.776-.776a14.338,14.338,0,0,0-5.576-3.247l-1.059-.353L28.453,5.671H24.076Zm7.694,7.553a9.733,9.733,0,0,1,3.388,3.388,8.92,8.92,0,0,1,0,9.176,9.733,9.733,0,0,1-3.388,3.388,8.92,8.92,0,0,1-9.176,0,9.733,9.733,0,0,1-3.388-3.388,8.92,8.92,0,0,1,0-9.176,9.733,9.733,0,0,1,3.388-3.388,8.92,8.92,0,0,1,9.176,0Zm-8.541,4.024A5.434,5.434,0,0,0,20.688,26a5.552,5.552,0,0,0,1.624,3.953,5.434,5.434,0,0,0,3.953,1.624,5.552,5.552,0,0,0,3.953-1.624A5.434,5.434,0,0,0,31.841,26a5.552,5.552,0,0,0-1.624-3.953,5.434,5.434,0,0,0-3.953-1.624A5.552,5.552,0,0,0,22.312,22.047Z" transform="translate(49.7 50) rotate(180)" fill="url(#linear-gradient)"/>
</svg>
