<?xml version="1.0" encoding="utf-8"?>
<!-- Generator: Adobe Illustrator 25.2.0, SVG Export Plug-In . SVG Version: 6.00 Build 0)  -->
<svg version="1.1" id="Total" xmlns="http://www.w3.org/2000/svg" xmlns:xlink="http://www.w3.org/1999/xlink" x="0px" y="0px"
	 viewBox="0 0 410 320" style="enable-background:new 0 0 410 320;" xml:space="preserve">
<style type="text/css">
	.st0{fill:none;stroke:#EDEDED;stroke-miterlimit:10;stroke-dasharray:3.0097,6.0195;}
	.st1{fill:none;stroke:#EDEDED;stroke-miterlimit:10;stroke-dasharray:3.0066,6.0132;}
	.st2{fill:none;stroke:#EDEDED;stroke-miterlimit:10;stroke-dasharray:3.0051,6.0103;}
	.st3{fill:#6BB024;}
	.st4{fill:#B72E1B;}
	.st5{opacity:0.3;fill:#B72E1B;}
	.st6{opacity:0.3;fill:#165C34;}
	.st7{fill:#165C34;}
	.st8{fill:#672862;}
	.st9{opacity:0.3;fill:#672862;}
	.st10{fill:#FFFFFF;}
	.st11{opacity:0.29;fill:#6BB024;}
	.st12{opacity:0.3;fill:#0069B2;}
	.st13{fill:#0069B2;}
	.st14{fill:#296A33;}
	.st15{opacity:0.3;fill:#296A33;}
	.st16{fill:#50453A;}
	.st17{opacity:0.3;fill:#50453A;}
	.st18{fill:#E14644;}
	.st19{opacity:0.3;fill:#E14644;}
	.st20{opacity:0.15;fill:#555555;}
	.st21{fill-rule:evenodd;clip-rule:evenodd;fill:#FFFFFF;}
	.st22{fill-rule:evenodd;clip-rule:evenodd;fill:#FAA932;}
	.st23{fill:#FAA932;}
</style>
<g>
	<g>
		<g>
			<circle class="st0" cx="205" cy="160" r="126.5"/>
		</g>
		<g>
			<circle class="st1" cx="205" cy="160" r="109.1"/>
		</g>
		<g>
			<circle class="st2" cx="205" cy="160" r="140.6"/>
		</g>
	</g>
	<g>
		<g>
			<rect x="15.2" y="28.4" class="st3" width="49.2" height="49.2"/>
			<rect x="15.2" y="100.4" class="st4" width="49.2" height="49.2"/>
			<polygon class="st5" points="64.5,149.6 15.2,149.6 95.5,149.6 64.5,100.4 			"/>
			<polygon class="st6" points="64.5,219.6 95.5,170 15.2,170.4 64.5,170.4 			"/>
			<rect x="15.2" y="170.4" class="st7" width="49.2" height="49.2"/>
			<rect x="15.2" y="242.4" class="st8" width="49.2" height="49.2"/>
			<polygon class="st9" points="64.5,291.6 95.5,242.4 15.2,242.4 64.5,242.4 			"/>
			<g>
				<path class="st10" d="M57.2,64c0.3,0,0.6,0.1,0.8,0.3s0.3,0.5,0.3,0.8v1.1c0,0.3-0.1,0.6-0.3,0.8s-0.5,0.3-0.8,0.3H25.5
					c-0.6,0-1.1-0.2-1.5-0.6c-0.4-0.4-0.6-0.9-0.6-1.5v-23c0-0.3,0.1-0.6,0.3-0.8s0.5-0.3,0.8-0.3h1.1c0.3,0,0.6,0.1,0.8,0.3
					s0.3,0.5,0.3,0.8V64H57.2z M30.7,60.8c-0.2,0-0.4-0.1-0.6-0.3c-0.2-0.2-0.3-0.4-0.3-0.6v-4.8c0-0.2,0.1-0.4,0.3-0.6
					c0.2-0.2,0.4-0.3,0.6-0.3h1.5c0.2,0,0.4,0.1,0.6,0.3c0.2,0.2,0.3,0.4,0.3,0.6v4.8c0,0.2-0.1,0.4-0.3,0.6
					c-0.2,0.2-0.4,0.3-0.6,0.3H30.7z M37.3,60.8c-0.2,0-0.4-0.1-0.6-0.3c-0.2-0.2-0.3-0.4-0.3-0.6V46.3c0-0.2,0.1-0.4,0.3-0.6
					c0.2-0.2,0.4-0.3,0.6-0.3h1.5c0.2,0,0.4,0.1,0.6,0.3c0.2,0.2,0.3,0.4,0.3,0.6v13.5c0,0.2-0.1,0.4-0.3,0.6
					c-0.2,0.2-0.4,0.3-0.6,0.3H37.3z M43.8,60.8c-0.2,0-0.4-0.1-0.6-0.3C43,60.3,43,60.1,43,59.9v-9.2c0-0.2,0.1-0.4,0.3-0.6
					c0.2-0.2,0.4-0.3,0.6-0.3h1.5c0.2,0,0.4,0.1,0.6,0.3c0.2,0.2,0.3,0.4,0.3,0.6v9.2c0,0.2-0.1,0.4-0.3,0.6
					c-0.2,0.2-0.4,0.3-0.6,0.3H43.8z M50.4,60.8c-0.2,0-0.4-0.1-0.6-0.3c-0.2-0.2-0.3-0.4-0.3-0.6V44.2c0-0.2,0.1-0.4,0.3-0.6
					c0.2-0.2,0.4-0.3,0.6-0.3h1.5c0.2,0,0.4,0.1,0.6,0.3c0.2,0.2,0.3,0.4,0.3,0.6v15.7c0,0.2-0.1,0.4-0.3,0.6
					c-0.2,0.2-0.4,0.3-0.6,0.3H50.4z"/>
			</g>
			<g>
				<path class="st10" d="M27.9,118.1c3.3-3.3,7.3-5,11.9-5c4.6,0,8.6,1.7,11.9,5c3.3,3.3,5,7.3,5,11.9c0,3-0.8,5.9-2.3,8.5
					c-0.4,0.6-0.9,0.9-1.6,0.9h-26c-0.7,0-1.2-0.3-1.6-0.9c-1.5-2.6-2.3-5.4-2.3-8.5C23,125.3,24.6,121.4,27.9,118.1z M27.3,133.2
					c0.4,0.4,0.8,0.6,1.3,0.6c0.5,0,0.9-0.2,1.3-0.6c0.4-0.4,0.6-0.8,0.6-1.3c0-0.5-0.2-0.9-0.6-1.3c-0.4-0.4-0.8-0.6-1.3-0.6
					c-0.5,0-0.9,0.2-1.3,0.6c-0.4,0.4-0.6,0.8-0.6,1.3C26.7,132.4,26.9,132.8,27.3,133.2z M30.1,123.8c0.4,0.4,0.8,0.6,1.3,0.6
					c0.5,0,0.9-0.2,1.3-0.6c0.4-0.4,0.6-0.8,0.6-1.3c0-0.5-0.2-0.9-0.6-1.3c-0.4-0.4-0.8-0.6-1.3-0.6c-0.5,0-0.9,0.2-1.3,0.6
					c-0.4,0.4-0.6,0.8-0.6,1.3C29.5,123,29.7,123.4,30.1,123.8z M45.9,120.1c0.1-0.4,0.1-0.8-0.1-1.1s-0.4-0.6-0.8-0.7
					c-0.4-0.1-0.7-0.1-1.1,0.1s-0.6,0.4-0.7,0.8L39.6,130c-1,0.1-1.8,0.5-2.5,1.2c-0.7,0.7-1,1.6-1,2.5c0,0.7,0.2,1.3,0.5,1.9h6.4
					c0.4-0.6,0.5-1.2,0.5-1.9c0-1.1-0.4-2.1-1.3-2.8L45.9,120.1z M39.9,116.9c-0.5,0-0.9,0.2-1.3,0.6c-0.4,0.4-0.6,0.8-0.6,1.3
					c0,0.5,0.2,0.9,0.6,1.3c0.4,0.4,0.8,0.6,1.3,0.6c0.4,0,0.7-0.1,1.1-0.4l0.5-1.6c0,0,0.1-0.2,0.2-0.4c-0.1-0.4-0.3-0.8-0.6-1
					C40.7,117,40.3,116.9,39.9,116.9z M46.7,123.5c0.4,0.6,0.9,0.9,1.6,0.9c0.5,0,0.9-0.2,1.3-0.6c0.4-0.4,0.6-0.8,0.6-1.3
					c0-0.5-0.2-0.9-0.6-1.3c-0.4-0.4-0.8-0.6-1.3-0.6c-0.2,0-0.4,0-0.6,0.1L46.7,123.5z M49.8,133.2c0.4,0.4,0.8,0.6,1.3,0.6
					c0.5,0,0.9-0.2,1.3-0.6c0.4-0.4,0.6-0.8,0.6-1.3c0-0.5-0.2-0.9-0.6-1.3c-0.4-0.4-0.8-0.6-1.3-0.6c-0.5,0-0.9,0.2-1.3,0.6
					c-0.4,0.4-0.6,0.8-0.6,1.3C49.2,132.4,49.4,132.8,49.8,133.2z"/>
			</g>
			<g>
				<path class="st10" d="M50.2,207.5H29.5c-0.8,0-1.4-0.3-2-0.8c-0.5-0.5-0.8-1.2-0.8-2v-20.6c0-0.8,0.3-1.4,0.8-2
					c0.5-0.5,1.2-0.8,2-0.8h20.6c0.8,0,1.4,0.3,2,0.8c0.5,0.5,0.8,1.2,0.8,2v20.6c0,0.8-0.3,1.4-0.8,2
					C51.6,207.3,51,207.5,50.2,207.5z M38.2,201.8L48.9,191c0.5-0.4,0.5-0.9,0-1.3l-1.3-1.3c-0.5-0.5-0.9-0.5-1.3,0l-8.8,8.8
					l-4.1-4.1c-0.4-0.5-0.9-0.5-1.3,0l-1.3,1.3c-0.5,0.5-0.5,0.9,0,1.3l6.1,6.1C37.3,202.2,37.7,202.2,38.2,201.8z"/>
			</g>
			<g>
				<path class="st10" d="M47.4,261.5h-1.9l-12.9,13.8c-0.2,0.2-0.3,0.2-0.5,0.2h-6.5c-0.5,0-0.7-0.2-0.7-0.7v-3.3
					c0-0.5,0.2-0.7,0.7-0.7h4.9l12.9-13.8c0.2-0.2,0.3-0.2,0.5-0.2h3.5v-2.3c0-0.6,0.3-1.1,0.9-1.3s1.1-0.1,1.5,0.3l4.7,4.7
					c0.3,0.3,0.4,0.6,0.4,1c0,0.4-0.1,0.7-0.4,1l-4.7,4.7c-0.4,0.4-0.9,0.5-1.5,0.3s-0.9-0.7-0.9-1.3V261.5z M25.6,261.5
					c-0.5,0-0.7-0.2-0.7-0.7v-3.3c0-0.5,0.2-0.7,0.7-0.7h6.5c0.2,0,0.4,0.1,0.5,0.2l4.1,4.4l-3.1,3.4l-3.1-3.3H25.6z M54.5,272.3
					c0.3,0.3,0.4,0.6,0.4,1c0,0.4-0.1,0.7-0.4,1l-4.7,4.7c-0.4,0.4-0.9,0.5-1.5,0.3s-0.9-0.7-0.9-1.3v-2.3h-3.5
					c-0.2,0-0.4-0.1-0.5-0.2l-4.1-4.4l3.1-3.4l3.1,3.3h1.9v-2.3c0-0.6,0.3-1.1,0.9-1.3s1.1-0.1,1.5,0.3L54.5,272.3z"/>
			</g>
			<polygon class="st11" points="64.5,77.6 15.2,77.6 95.5,77.2 64.5,28.4 			"/>
		</g>
		<g>
			<polygon class="st12" points="394.8,77.6 345.5,77.6 345.5,28.4 315.9,77.6 			"/>
			<rect x="345.5" y="28.4" class="st13" width="49.2" height="49.2"/>
			<rect x="345.5" y="100.4" class="st14" width="49.2" height="49.2"/>
			<polygon class="st15" points="394.8,149.6 345.5,149.6 345.5,100.4 315.9,149.6 			"/>
			<rect x="345.5" y="170.4" class="st16" width="49.2" height="49.2"/>
			<polygon class="st17" points="315.9,170 345.5,219.6 345.5,170.4 394.8,170.4 			"/>
			<rect x="345.5" y="242.4" class="st18" width="49.2" height="49.2"/>
			<polygon class="st19" points="315.9,242.4 345.5,291.6 345.5,242.4 394.8,242.4 			"/>
			<g>
				<path class="st10" d="M384.8,51.1c0.9,0.4,1.3,1,1.3,2v6.4c0,0.9-0.4,1.5-1.2,1.9l-5.9,2.9c-0.6,0.3-1.3,0.3-1.9,0l-6.1-3
					l-6.1,3c-0.6,0.3-1.3,0.3-1.9,0l-5.9-2.9c-0.8-0.4-1.2-1-1.2-1.9v-6.4c0-1,0.4-1.6,1.3-2l5.7-2.1v-6.3c0-1,0.4-1.6,1.3-2
					l5.9-2.2c0.5-0.2,1-0.2,1.5,0l5.9,2.2c0.9,0.4,1.3,1,1.3,2V49L384.8,51.1z M370.1,53.1l-6-2.3l-6,2.3l6,2.5L370.1,53.1z
					 M370.1,59.6v-4.4l-5,2.3v4.6L370.1,59.6z M365.2,42.6L365.2,42.6l6,2.5l6-2.4v-0.1l-6-2.2L365.2,42.6z M377.1,49.1v-4.3l-5,2.1
					v4L377.1,49.1z M384.1,53.1l-6-2.3l-6,2.3l6,2.5L384.1,53.1z M384.1,59.6v-4.4l-5,2.3v4.6L384.1,59.6z"/>
			</g>
			<g>
				<path class="st10" d="M381.6,115.7c0.5,0.5,0.8,1.2,0.8,2v19.5c0,0.8-0.3,1.4-0.8,2c-0.5,0.5-1.2,0.8-2,0.8h-16.9
					c-0.8,0-1.4-0.3-2-0.8c-0.5-0.5-0.8-1.2-0.8-2v-24.4c0-0.8,0.3-1.4,0.8-2c0.5-0.5,1.2-0.8,2-0.8h12c0.8,0,1.4,0.3,2,0.8
					L381.6,115.7z M379.6,137.2v-16.9h-6.1c-0.4,0-0.7-0.1-1-0.4c-0.3-0.3-0.4-0.6-0.4-1v-6.1h-9.4v24.4H379.6z M368.7,130.4
					c0.2,0.2,0.2,0.5,0,0.8l-1,1.1c-0.1,0.1-0.3,0.2-0.4,0.2c-0.1,0-0.2-0.1-0.4-0.2l-3.3-3.2c-0.3-0.2-0.3-0.5,0-0.7l3.3-3.2
					c0.3-0.3,0.5-0.3,0.8,0l1,1.1v0.1c0.2,0.2,0.2,0.5,0,0.7l-1.9,1.7L368.7,130.4z M372.2,122.5l1.4,0.4c0.4,0.1,0.5,0.3,0.4,0.6
					l-3.2,11c-0.1,0.4-0.3,0.5-0.6,0.4l-1.4-0.4c-0.4-0.1-0.5-0.3-0.4-0.6l3.2-11C371.6,122.6,371.8,122.5,372.2,122.5z M373.6,127
					c-0.2-0.2-0.2-0.5,0-0.8l1-1.1c0.2-0.3,0.5-0.3,0.8,0l3.3,3.2c0.3,0.2,0.3,0.5,0,0.7l-3.3,3.2c-0.3,0.3-0.5,0.3-0.8,0l-1-1.1
					v-0.1c-0.2-0.2-0.2-0.5,0-0.7l1.9-1.7L373.6,127z M374.9,113v4.5h4.5L374.9,113z"/>
			</g>
			<g>
				<path class="st10" d="M381.6,185.6c0.5,0.5,0.8,1.2,0.8,2V207c0,0.8-0.3,1.4-0.8,2c-0.5,0.5-1.2,0.8-2,0.8h-16.9
					c-0.8,0-1.4-0.3-2-0.8c-0.5-0.5-0.8-1.2-0.8-2v-24.4c0-0.8,0.3-1.4,0.8-2c0.5-0.5,1.2-0.8,2-0.8h12c0.8,0,1.4,0.3,2,0.8
					L381.6,185.6z M362.7,207h16.9v-16.9h-6.1c-0.4,0-0.7-0.1-1-0.4c-0.3-0.3-0.4-0.6-0.4-1v-6.1h-9.4V207z M365.4,191
					c0.5-0.5,1.2-0.8,2-0.8c0.8,0,1.4,0.3,2,0.8c0.5,0.5,0.8,1.2,0.8,2c0,0.8-0.3,1.4-0.8,2c-0.5,0.5-1.2,0.8-2,0.8
					c-0.8,0-1.4-0.3-2-0.8c-0.5-0.5-0.8-1.2-0.8-2C364.6,192.2,364.8,191.5,365.4,191z M364.6,204.2v-3.7l2.3-2.3
					c0.3-0.3,0.6-0.3,0.9,0l2.3,2.3l5.2-5.2c0.3-0.3,0.6-0.3,0.9,0l1.4,1.4v7.5H364.6z M379.3,187.4l-4.5-4.5v4.5H379.3z"/>
			</g>
			<g>
				<path class="st10" d="M389,275.6c0.3,0,0.5,0.1,0.7,0.3s0.3,0.4,0.3,0.7v0.9c0,1-0.4,1.9-1.1,2.6c-0.7,0.7-1.6,1.1-2.6,1.1h-30
					c-1,0-1.9-0.4-2.6-1.1c-0.7-0.7-1.1-1.6-1.1-2.6v-0.9c0-0.3,0.1-0.5,0.3-0.7s0.4-0.3,0.7-0.3h14c0,0.4,0.2,0.8,0.6,1.3
					c0.4,0.4,0.8,0.6,1.3,0.6h3.6c0.5,0,1-0.2,1.3-0.5c0.4-0.3,0.5-0.8,0.6-1.4H389z M386.1,254v19.7h-30V254c0-0.8,0.3-1.4,0.8-2
					c0.5-0.5,1.2-0.8,2-0.8h24.4c0.8,0,1.4,0.3,2,0.8C385.9,252.6,386.1,253.3,386.1,254z M382.4,270v-15h-22.5v15H382.4z
					 M367.3,266.6l-3.4-3.5c-0.5-0.4-0.5-0.9,0-1.3l3.4-3.5c0.4-0.4,0.9-0.4,1.3,0l0.6,0.7c0.4,0.4,0.4,0.9,0,1.3l-2.1,2.1l2.1,2.1
					c0.4,0.4,0.4,0.9,0,1.3l-0.6,0.7C368.2,267,367.8,267,367.3,266.6z M373,265.9c-0.4-0.4-0.4-0.9,0-1.3l2.1-2.1l-2.1-2.1
					c-0.4-0.4-0.4-0.9,0-1.3l0.6-0.7c0.5-0.4,0.9-0.4,1.3,0l3.4,3.5c0.5,0.4,0.5,0.9,0,1.3l-3.4,3.5c-0.4,0.4-0.9,0.4-1.3,0
					L373,265.9z"/>
			</g>
		</g>
	</g>
	<ellipse class="st20" cx="205" cy="263.1" rx="109.1" ry="3.9"/>
	<g id="_x2E_NET">
		<path id="XMLID_8_" class="st21" d="M237.5,120.7c-19.9,0-36.8,7-50.7,21c-14,13.9-21,30.8-21,50.7s7,36.8,21,50.6
			c5.1,5.2,10.7,9.5,16.7,12.8h-87.1c-1.4-0.1-2.7-0.5-4-1.2c-2.2-1-3.3-3.1-3.3-6.1V71.4c0.2-1.6,0.5-2.9,1-4
			c1.1-2.2,3.2-3.3,6.3-3.3h177.2l1.2,0.3c1,0.2,2,0.4,2.7,0.8c2.3,1,3.4,3.1,3.4,6.3v87.1c-3.3-6-7.5-11.6-12.8-16.8
			C274,127.7,257.2,120.7,237.5,120.7z"/>
		<path id="XMLID_2_" class="st22" d="M237.5,120.7c19.6,0,36.5,7,50.6,21c5.2,5.2,9.5,10.8,12.8,16.8V71.4c0-3.1-1.1-5.2-3.4-6.3
			c-0.8-0.3-1.7-0.6-2.7-0.8l-1.2-0.3H116.4c-3,0-5.1,1.1-6.3,3.3c-0.5,1.1-0.9,2.5-1,4v177.2c0,3,1.1,5.1,3.3,6.1
			c1.3,0.7,2.6,1.1,4,1.2h87.1c-6-3.3-11.6-7.6-16.7-12.8c-14-13.8-21-30.7-21-50.6s7-36.8,21-50.7
			C200.7,127.7,217.6,120.7,237.5,120.7z M298.3,56c1.9,0.3,3.4,0.8,4.4,1.4c4.3,2.1,6.5,5.9,6.5,11.3v123.7
			c0,19.8-7,36.7-21.1,50.6c-14.1,14.1-30.9,21.1-50.6,21.1H113.8c-2.1,0-4.3-0.5-6.5-1.6c-4.3-2.3-6.5-6.1-6.5-11.5V68.8
			c0-2.2,0.6-4.3,1.7-6.5c2.1-4.3,5.9-6.5,11.3-6.5h182.4L298.3,56z"/>
		<g>
			<path class="st23" d="M144.9,127.5h-7.4V88.7h-13.3v-6.3h34v6.3h-13.3V127.5z"/>
		</g>
		<path id="XMLID_3_" class="st21" d="M240.1,162.9l-27.9,14l27.9,14l27.9-14L240.1,162.9z M240.1,197.7l-41.7-20.9l41.7-20.9
			l41.7,20.9L240.1,197.7z M240.1,205l33.4-16.7l8.3,4.2l-41.7,20.9l-41.7-20.9l8.3-4.2L240.1,205z M206.8,204l33.4,16.7l33.4-16.7
			l8.3,4.2L240.1,229l-41.7-20.9L206.8,204z"/>
	</g>
</g>
<g>
</g>
<g>
</g>
<g>
</g>
<g>
</g>
<g>
</g>
<g>
</g>
</svg>
