<?xml version="1.0" encoding="utf-8"?>
<!-- Generator: Adobe Illustrator 25.2.0, SVG Export Plug-In . SVG Version: 6.00 Build 0)  -->
<svg version="1.1" id="Layer_1" xmlns="http://www.w3.org/2000/svg" xmlns:xlink="http://www.w3.org/1999/xlink" x="0px" y="0px"
	 viewBox="0 0 26 903.1" style="enable-background:new 0 0 26 903.1;" xml:space="preserve">
<style type="text/css">
	.st0{fill:#838894;}
	.st1{fill:none;stroke:#838894;stroke-width:1.3;stroke-linecap:round;stroke-linejoin:round;stroke-miterlimit:10;}
	.st2{fill:#FFFFFF;}
	.st3{fill:none;stroke:#FFFFFF;stroke-width:2.4;stroke-linecap:round;stroke-linejoin:round;stroke-miterlimit:10;}
	.st4{fill:none;stroke:#FFFFFF;stroke-width:1.4;stroke-linecap:round;stroke-linejoin:round;stroke-miterlimit:6.2;}
	.st5{fill:none;stroke:#FFFFFF;stroke-width:1.4;stroke-linecap:round;stroke-linejoin:round;}
</style>
<path class="st0" d="M6.5,522.3c2,0,3.8,0.8,5.2,2.2c1.3,1.4,2.1,3.2,2.1,5.1h3c0-5.7-4.6-10.3-10.3-10.3
	C6.5,519.3,6.5,522.3,6.5,522.3z M6.5,517c7,0,12.6,5.7,12.6,12.6h3c-0.1-8.6-7-15.5-15.6-15.6V517z M10.7,527.5
	c0,1.2-0.9,2.1-2.1,2.1s-2.1-0.9-2.1-2.1s0.9-2.1,2.1-2.1S10.7,526.3,10.7,527.5z"/>
<path class="st1" d="M20.2,499.3H8.5c-1,0-1.7-0.7-1.7-1.6V486c0-0.9,0.8-1.6,1.7-1.6h11.7c0.8,0,1.6,0.7,1.6,1.6v11.7
	C21.8,498.7,21,499.3,20.2,499.3L20.2,499.3z"/>
<path class="st0" d="M12,490.7c0-0.7-0.4-1.6-1.7-1.6H8.7v5.6h1.6c1.3,0,1.7-1,1.7-1.6V490.7z M11,493.1c0,0.2,0,0.3-0.2,0.4
	l-0.4,0.2H9.8V490h0.6c0.1,0,0.3,0,0.4,0.2l0.2,0.4v2.4V493.1z M15.4,490h-1.8v1.4h1v1h-1v1.3h1.8v1h-2.1c-0.4,0-0.7-0.3-0.7-0.7
	l0,0v-4.2c0-0.4,0.3-0.7,0.6-0.7h2.2V490L15.4,490z M19,494c-0.5,1-1.3,0.8-1.7,0l-1.3-5h1.1l1,4l1-4h1.1l-1.3,5H19z"/>
<g>
	<path class="st0" d="M14.3,457.7c-2.3,0-4.1,1.8-4.1,4.1s1.8,4.1,4.1,4.1s4.1-1.8,4.1-4.1S16.6,457.7,14.3,457.7z M14.3,464.5
		c-1.4,0-2.6-1.2-2.6-2.6v-0.1c0-1.4,1.2-2.6,2.6-2.6c1.5,0,2.6,1.2,2.6,2.6C16.9,463.3,15.8,464.5,14.3,464.5z M18.6,456.7
		c0.5-0.2,1.1,0,1.3,0.5c0.2,0.5,0,1.1-0.5,1.3c-0.3,0.1-0.6,0.1-0.9,0c-0.5-0.2-0.7-0.8-0.5-1.3C18.2,457,18.4,456.8,18.6,456.7z"
		/>
	<path class="st0" d="M21,455.2c-0.8-0.9-2-1.3-3.4-1.3H11c-2.8,0-4.7,1.8-4.7,4.6v6.6c0,1.4,0.5,2.6,1.4,3.5c0.8,0.8,2,1.2,3.3,1.2
		h6.6c1.4,0,2.5-0.4,3.4-1.2c0.8-0.9,1.3-2.1,1.3-3.4v-6.7C22.3,457.2,21.8,456,21,455.2L21,455.2z M20.9,465.2c0,0.9-0.3,1.7-1,2.3
		c-0.5,0.6-1.3,0.9-2.3,0.9H11c-0.9,0-1.7-0.3-2.3-0.9s-0.9-1.4-0.9-2.4v-6.6c0-1,0.3-1.7,0.9-2.3c0.5-0.6,1.4-0.8,2.3-0.8h6.7
		c1,0,1.7,0.2,2.3,0.8c0.6,0.6,0.9,1.4,0.9,2.3V465.2z"/>
</g>
<path class="st0" d="M16.8,437.4c-0.4,0-0.9-0.1-1.2-0.4c-0.3-0.1-0.4-0.3-0.5-0.6l-0.2-1.8v-4h3.8v-2.5h-3.8v-4.4h-2.4
	c-0.1,0.8-0.3,1.6-0.6,2.3c-0.3,0.5-0.5,1-1,1.4s-1,0.7-1.6,0.9v2.3H11v5.5c0,0.8,0.1,1.3,0.3,1.7c0.1,0.4,0.4,0.8,0.8,1.1
	c0.4,0.4,1,0.7,1.5,0.8c1.2,0.3,2.5,0.3,3.7,0c0.7-0.1,1.4-0.3,2-0.6v-2.5C18.3,437.1,17.6,437.4,16.8,437.4L16.8,437.4z
	 M14.3,393.7c-4.5-0.1-8.2,3.4-8.3,7.8c-0.1,3.4,1.9,6.5,5,7.8c0-0.6,0-1.3,0.2-1.9l1-4.4c0,0-0.2-0.5-0.2-1.3
	c0-1.2,0.7-2.1,1.5-2.1s1.1,0.6,1.1,1.2c0,0.8-0.4,1.9-0.7,2.9c-0.2,0.9,0.4,1.6,1.3,1.6c1.5,0,2.6-2,2.6-4.4c0-1.7-1.2-3-3.4-3
	c-2.5,0-4,1.8-4,3.8c0,0.7,0.2,1.2,0.5,1.6c0.2,0.2,0.2,0.3,0.2,0.5l-0.2,0.6c0,0.2-0.2,0.3-0.4,0.2c-1.1-0.4-1.7-1.7-1.7-3
	c0-2.4,2-5.1,5.8-5.1c3.1,0,5.1,2.2,5.1,4.6c0,3.2-1.7,5.6-4.3,5.6c-0.9,0-1.7-0.5-2-1l-0.6,2.2c-0.1,0.6-0.5,1.2-0.8,1.7
	c4.3,1.2,8.8-1.3,10-5.6c1.2-4.3-1.3-8.8-5.6-10C15.7,393.8,15,393.7,14.3,393.7L14.3,393.7z M17,373c-0.6,0-1,0.7-1,1.5
	c0,0.9,0.4,1.6,1,1.6c0.7,0,1.2-0.7,1.2-1.6C18.2,373.7,17.7,373,17,373z M21,368.9c0-0.3,0-2.1-0.6-3.8c0,0-1.6,0.1-4,1.8
	c-0.4-0.2-1.3-0.2-2.1-0.2l-2.2,0.2c-1.2-0.9-2.5-1.5-4-1.8c-0.5,1.2-0.7,2.5-0.5,3.8c-0.8,0.9-1.3,2.1-1.3,3.4
	c0,6.2,5.2,6.3,6.5,6.3h3c1.3,0,6.4-0.1,6.4-6.3C22.2,370.8,21.8,369.8,21,368.9z M14.3,377.8c-3.3,0-5.8-0.4-5.8-3.6
	c0-0.7,0.2-1.4,0.9-2c1-1,2.8-0.5,4.9-0.5c2,0,3.9-0.5,5,0.5c0.6,0.6,0.8,1.3,0.8,2C20.1,377.4,17.6,377.8,14.3,377.8z M11.5,373
	c-0.6,0-1,0.7-1,1.5c0,0.9,0.4,1.6,1,1.6s1.2-0.7,1.2-1.6C12.7,373.7,12.2,373,11.5,373z M19,348.6v-4.4h1.5v5.8H7.4v-5.8h1.4v4.4
	h10.3H19z M10.3,347.1h7.3v-1.5h-7.3V347.1z M10.5,343.8l7.1,1.5l0.3-1.4l-7.1-1.5C10.8,342.4,10.5,343.8,10.5,343.8z M11.4,340.4
	l6.6,3l0.6-1.3l-6.6-3L11.4,340.4L11.4,340.4z M13.3,337.1l5.6,4.7l0.9-1.1l-5.6-4.7l-1,1.1H13.3z M16.9,333.7l-1.2,0.8l4.3,6l1.2-1
	L16.9,333.7z M22.4,313.6v6H19V314c0-1.4-0.5-2.4-1.7-2.4c-1,0-1.6,0.7-1.8,1.3l-0.1,0.8v6h-3.5V309h3.4v1.5
	c0.5-0.7,1.3-1.7,3.2-1.7c2.3,0,4,1.5,4,4.7L22.4,313.6z M8.1,304c-1.2,0-2,0.7-2,1.8c0,1,0.8,1.8,2,1.8s2-0.8,2-1.8
	S9.3,304,8.1,304z M6.3,319.5h3.5V309H6.3V319.5z M22.4,278.4c-0.1-1.1-1-2-2.1-2.1c-4-0.3-8-0.3-12,0c-1.1,0-2,1-2.1,2
	c-0.2,2.3-0.2,4.7,0,7c0,1.1,1,2,2,2c4,0.3,8,0.4,12,0.1c1.2-0.1,2-1,2.2-2.1c0.2-2.3,0.2-4.7,0-7V278.4z M12.4,284.3v-4.9l4.8,2.4
	L12.4,284.3z M18,219.1h-2.5v-1.6c0-0.6,0.4-0.8,0.7-0.8h1.7V214h-2.4c-2.7,0-3.3,2-3.3,3.3v1.8h-1.5v2.8h1.5v7.8h3.3v-7.8h2.2
	L18,219.1L18,219.1z M21.4,614.9H20v0.4c0,0.5-0.4,0.9-0.8,0.9H19c-0.7-0.1-1.2-0.5-1.5-1.1v-0.2c1.8-1.4,3-3.5,3-6
	c0-4.1-3.5-7.5-8-7.5c-4.2-0.1-7.7,3.3-7.8,7.5c0,4.3,3.5,7.7,7.8,7.6c0.7,0,1.4-0.1,2.1-0.3l0.3,0.6c0.9,1.7,3,2.4,4.7,1.5
	c1.2-0.6,1.9-1.8,1.9-3.2v-0.2H21.4z M12.4,614.9c-1.2,0-2.4-0.6-3-1.6L9,612.7l-0.3-1.3c-0.3-2-0.1-4.2,0-5V606
	c0.3-2.1,2.3-3.5,4.4-3.1c1.6,0.3,2.9,1.5,3.1,3.1c0,0,0.8,4.2-0.2,6.5v0.2l-1-1c-1.4-1.2-3.5-1.3-5-0.2l0.5,1.1
	c0.3-0.1,1.5-0.5,3.2,2.1l-1.2,0.2L12.4,614.9L12.4,614.9z"/>
<path class="st2" d="M21,17.6l-3.4-3.4c0.7-1,1-2.3,1-3.7c0-3.7-3-6.7-6.7-6.7s-6.7,3-6.7,6.7s3,6.7,6.7,6.7c1.3,0,2.6-0.4,3.7-1.1
	l3.5,3.4c0.5,0.5,1.4,0.5,1.9,0S21.5,18.1,21,17.6z M7.3,10.6C7.3,8,9.4,5.9,12,5.9s4.7,2.1,4.7,4.7s-2.1,4.7-4.7,4.7
	S7.3,13.2,7.3,10.6z"/>
<g>
	<path class="st2" d="M16.7,42.1c-1.9,1.7-4.9,1.7-6.8,0c-2.6,1.3-4.3,4-4.3,7c0,0.3,0.2,0.5,0.5,0.5h14.4c0.3,0,0.6-0.2,0.6-0.5
		C21.1,46.1,19.4,43.4,16.7,42.1z"/>
	<circle class="st2" cx="13.3" cy="38.2" r="4.1"/>
</g>
<path class="st2" d="M11.9,197.6c0,0.2,0,0.3,0,0.5v0.3l-0.1,0.2H8c-0.8,0-1.5-0.3-2.1-0.9c-0.6-0.5-1-1.3-1-2.1V188
	c0-0.8,0.4-1.6,1-2.1c0.5-0.6,1.3-1,2.1-1h3.5l0.2,0.2l0.1,0.2c0,0.2,0,0.3,0,0.5v0.2l-0.1,0.3H8c-0.4,0-0.9,0.2-1.2,0.5
	c-0.3,0.3-0.5,0.8-0.5,1.2v7.6c0,0.4,0.2,0.8,0.5,1.2c0.4,0.3,0.8,0.5,1.2,0.5h3.7v0.2L11.9,197.6L11.9,197.6z M21.9,191.8
	c0,0.2-0.1,0.3-0.3,0.5l-5.8,5.8l-0.5,0.2c-0.2,0-0.3,0-0.5-0.2c-0.1-0.1-0.2-0.3-0.2-0.5v-3H9.8l-0.4-0.3c-0.1-0.1-0.2-0.3-0.2-0.5
	v-4c0-0.2,0-0.4,0.2-0.5c0.1-0.2,0.3-0.2,0.4-0.2h4.8V186l0.2-0.5l0.5-0.2c0.2,0,0.4,0,0.5,0.2l5.8,5.8
	C21.8,191.4,21.8,191.6,21.9,191.8L21.9,191.8z"/>
<path class="st3" d="M19.2,158.1L12,165l-3.2-3.2"/>
<path class="st2" d="M19,162.5c-0.4,2.8-2.8,5-5.7,5c-3.2,0-5.7-2.5-5.8-5.7c0-3.2,2.7-5.8,5.9-5.7c1,0,1.9,0.3,2.7,0.7l1-1.1
	c-3.3-2.2-7.8-1.2-10,2.2C6.4,159,6,160.4,6,161.8c0,4,3.3,7.2,7.3,7.2c3.7,0.1,6.8-2.8,7.1-6.5H19z M11.2,138.3
	c0,0.3-0.1,0.6-0.4,0.8c-0.2,0.3-0.5,0.4-0.8,0.4c-0.4,0-0.7-0.1-1-0.4c-0.2-0.2-0.3-0.5-0.3-0.9s0.1-0.6,0.4-0.8
	c0.2-0.3,0.5-0.4,0.9-0.4c0.3,0,0.6,0.1,0.8,0.4C11.1,137.6,11.2,137.9,11.2,138.3L11.2,138.3z M19.9,138.3c0,0.3-0.1,0.6-0.4,0.8
	c-0.2,0.3-0.5,0.4-0.9,0.4s-0.6-0.1-0.8-0.4c-0.3-0.2-0.4-0.5-0.4-0.9s0.1-0.6,0.4-0.8c0.2-0.3,0.5-0.4,0.8-0.4s0.7,0.1,1,0.4
	C19.8,137.6,19.9,137.9,19.9,138.3L19.9,138.3z M21.1,127.7v5l-0.1,0.4l-0.4,0.2l-10.1,1.2v0.7l-0.2,0.6h9c0.1,0,0.3,0,0.4,0.2
	l0.2,0.4c0,0.2,0,0.3-0.2,0.4c-0.1,0.2-0.3,0.2-0.4,0.2h-10c-0.1,0-0.3,0-0.4-0.2c-0.1-0.1-0.2-0.2-0.2-0.4l0.1-0.3l0.2-0.4
	c0.1-0.2,0.2-0.4,0.3-0.6l-1.7-8h-2c-0.1,0-0.3,0-0.4-0.2L5,126.5c0-0.1,0-0.3,0.2-0.5l0.4-0.2h2.5c0.2,0,0.4,0.1,0.5,0.3v0.2
	l0.2,0.3c0,0.2,0,0.3,0,0.5h11.7c0.2,0,0.3,0,0.4,0.2C21.1,127.4,21.1,127.5,21.1,127.7z"/>
<g>
	<path class="st4" d="M19,98.9v10.3H7.7V94.5h6.9"/>
	<path class="st5" d="M18.8,99h-4.1l-0.1-0.1v-4.3l4.5,4.3L18.8,99L18.8,99z"/>
	<path class="st5" d="M10.1,104h6.6 M10.1,101.6h6.6 M10.1,106.4h6.6"/>
</g>
<path class="st2" d="M19.6,70.5l-1.2-0.4l-0.2-0.8l0.5-1c0.1-0.3,0.1-0.6,0-0.9l-1-1c-0.2-0.2-0.6-0.3-0.9-0.1l-1.1,0.6
	c-0.2-0.2-0.4-0.3-0.7-0.3l-0.4-1.2c-0.1-0.3-0.4-0.5-0.7-0.5h-1.3c-0.3,0-0.6,0.2-0.7,0.5l-0.4,1.2l-0.7,0.3l-1.1-0.6
	c-0.3-0.1-0.6-0.1-0.8,0.1l-1,1c-0.2,0.2-0.3,0.5-0.2,0.8l0.6,1.1L8,70.1l-1.2,0.4c-0.3,0-0.4,0.3-0.4,0.6v1.4
	c0,0.3,0.2,0.5,0.4,0.6L8,73.5l0.3,0.8l-0.6,1c0,0.3,0,0.7,0.2,0.9l1,1c0.2,0.2,0.5,0.2,0.8,0l1-0.5l0.8,0.3l0.4,1.2
	c0.1,0.3,0.4,0.5,0.7,0.5h1.3c0.3,0,0.6-0.2,0.7-0.5L15,77l0.7-0.3l1.1,0.6c0.3,0.1,0.6,0,0.8-0.2l1-1c0.2-0.1,0.3-0.5,0.1-0.7
	l-0.5-1.1c0-0.3,0.2-0.5,0.3-0.8l1.1-0.3c0.3-0.1,0.5-0.4,0.5-0.7V71C20.1,70.7,19.9,70.4,19.6,70.5L19.6,70.5z M13.2,74.5
	c-1.5,0.3-3-0.7-3.3-2.2s0.7-3,2.2-3.3c0.3-0.1,0.7-0.1,1.1,0c1.5,0.3,2.5,1.8,2.2,3.3C15.2,73.4,14.3,74.3,13.2,74.5z"/>
<path class="st0" d="M20.2,547.7l-6.8,6.9l-0.3,0.1l-0.3-0.1L6,547.7l-0.2-0.3c0-0.1,0-0.2,0.2-0.3l0.7-0.8l0.3-0.1l0.4,0.1l5.7,5.8
	l5.7-5.8l0.4-0.1l0.3,0.1l0.7,0.8l0.2,0.3C20.4,547.5,20.4,547.7,20.2,547.7z M6,580.9l6.8-6.8l0.3-0.2c0.1,0,0.3,0,0.3,0.2l6.8,6.8
	l0.2,0.3l-0.1,0.3l-0.8,0.8l-0.3,0.1l-0.4-0.1l-5.7-5.8l-5.7,5.8L7,582.4l-0.3-0.1L6,581.5l-0.2-0.3C5.8,581.1,5.8,581,6,580.9z"/>
<g>
	<path class="st0" d="M19.2,245.2c-1.2,1.4-2.4,2.7-3.6,4.1c-0.4,0.5-0.9,1-1.3,1.5c1.8,2.5,3.5,5,5.3,7.6c-0.1,0-0.2,0-0.3,0
		c-1.1,0-2.2,0-3.4,0c-0.2,0-0.3-0.1-0.4-0.2c-1.1-1.6-2.2-3.1-3.3-4.7c-0.1-0.1-0.1-0.1-0.2-0.2c-0.1,0.1-0.1,0.1-0.2,0.2
		c-1.4,1.6-2.8,3.2-4.2,4.8c-0.1,0.1-0.3,0.2-0.4,0.2c-0.3,0-0.6,0-0.9,0c1.7-2,3.4-3.9,5.1-5.9c-1.7-2.5-3.4-4.9-5.2-7.3
		c1.3,0,2.6,0,3.9,0c1.1,1.6,2.3,3.2,3.4,4.9c0.1-0.1,0.1-0.1,0.2-0.2c0.9-1,1.8-2,2.7-3c0.5-0.6,1-1.1,1.4-1.7
		C18.4,245.2,18.8,245.2,19.2,245.2z"/>
</g>
</svg>
