<?xml version="1.0" encoding="utf-8"?>
<!-- Generator: Adobe Illustrator 25.2.0, SVG Export Plug-In . SVG Version: 6.00 Build 0)  -->
<svg version="1.1" id="NET" xmlns="http://www.w3.org/2000/svg" xmlns:xlink="http://www.w3.org/1999/xlink" x="0px" y="0px"
	 viewBox="0 0 512 512" style="enable-background:new 0 0 512 512;" xml:space="preserve">
<style type="text/css">
	.st0{fill:none;stroke:#9DC825;stroke-width:21.0424;stroke-miterlimit:10;}
	.st1{fill:none;stroke:#9DC825;stroke-width:21.041;stroke-linecap:square;stroke-linejoin:bevel;stroke-miterlimit:10;}
	.st2{fill:none;stroke:#9DC825;stroke-width:21.041;stroke-linecap:round;stroke-linejoin:bevel;stroke-miterlimit:10;}
	.st3{fill:none;stroke:#9DC825;stroke-width:31.442;stroke-miterlimit:10;}
	.st4{fill:none;stroke:#9DC825;stroke-width:31.442;stroke-linecap:round;stroke-linejoin:round;stroke-miterlimit:10;}
</style>
<g id="Dark">
	<g id="Assembly-doc-center_5_">
		<path class="st0" d="M410.6,141.6h54.3c18.7,0,33.6,15.1,33.6,33.6v183.1c0,18.7-15.1,33.6-33.6,33.6h-55.5"/>
		<g>
			<line class="st1" x1="421.7" y1="249.9" x2="439.2" y2="249.9"/>
			<line class="st2" x1="426.9" y1="249.9" x2="455.9" y2="249.9"/>
		</g>
		<g>
			<line class="st1" x1="421.7" y1="194.7" x2="439.2" y2="194.7"/>
			<line class="st2" x1="426.9" y1="194.7" x2="455.9" y2="194.7"/>
		</g>
	</g>
	<g id="Assembly-doc-center_4_">
		<path class="st0" d="M101.4,141.6H47.1c-18.7,0-33.6,15.1-33.6,33.6v183.1c0,18.7,15.1,33.6,33.6,33.6h55.5"/>
		<g>
			<line class="st1" x1="90.3" y1="249.9" x2="72.8" y2="249.9"/>
			<line class="st2" x1="85.1" y1="249.9" x2="56.1" y2="249.9"/>
		</g>
		<g>
			<line class="st1" x1="90.3" y1="194.7" x2="72.8" y2="194.7"/>
			<line class="st2" x1="85.1" y1="194.7" x2="56.1" y2="194.7"/>
		</g>
	</g>
	<g id="Assembly-doc-center_3_">
		<path class="st3" d="M373.8,375.7c0,24.5-19.5,44.1-44.1,44.1H179.4c-24.5,0-44.1-19.5-44.1-44.1V136.3
			c0-24.5,19.5-44.1,44.1-44.1h150.7c24.5,0,44.1,19.5,44.1,44.1v239.4H373.8z"/>
		<line class="st4" x1="192.1" y1="164.1" x2="317.9" y2="164.1"/>
		<line class="st4" x1="192.1" y1="233.9" x2="317.9" y2="233.9"/>
	</g>
</g>
</svg>
