<?xml version="1.0" encoding="utf-8"?>
<!-- Generator: Adobe Illustrator 25.0.1, SVG Export Plug-In . SVG Version: 6.00 Build 0)  -->
<svg version="1.1" id="Layer_1" xmlns="http://www.w3.org/2000/svg" xmlns:xlink="http://www.w3.org/1999/xlink" x="0px" y="0px"
	 viewBox="0 0 512 512" style="enable-background:new 0 0 512 512;" xml:space="preserve">
<style type="text/css">
	.st0{fill:#3790CA;}
</style>
<g id="Total">
	<g>
		<path class="st0" d="M435.1,396.5L416.9,337h-91.1l-18.1,59.5h-57.1l88.2-250.9h64.8l88.5,250.9H435.1z M404.3,292.6
			c-16.7-53.9-26.2-84.4-28.3-91.4c-2.1-7.1-3.6-12.6-4.5-16.7c-3.8,14.6-14.5,50.6-32.3,108.2H404.3z"/>
	</g>
	<g>
		<path class="st0" d="M343.8,428.4c0,13-10.9,23.6-24.2,23.6h-223c-13.3,0-24.2-10.6-24.2-23.6V83.6c0-13,10.9-23.6,24.2-23.6h223
			c13.3,0,24.2,10.6,24.2,23.6v36.9h52.7V83.6c0-41.4-34.5-75.1-76.8-75.1h-223c-42.4,0-76.8,33.7-76.8,75.1v344.8
			c0,41.4,34.5,75.1,76.8,75.1h223c42.4,0,76.8-33.7,76.8-75.1v-5.9h-52.7V428.4z"/>
	</g>
	<g>
		<g>
			<polyline class="st0" points="222.8,95.4 182.3,95.4 182.3,117.7 105.4,117.7 105.4,158.3 224.5,158.3 299.6,158.3 299.6,117.7 
				222.8,117.7 222.8,95.4 182.3,95.4 			"/>
		</g>
		<g>
			<path class="st0" d="M266.4,158.3c0,0-12.2,27.1-19.2,38.7c-9.4,15.5-17.1,24.9-17.1,24.9l25.2,25.6L240,288.7l-21.8-21.4
				l-15-16.4l-1.8,1.9L180,274.2l-33.8,32.1l-29.8-29.8l18.2-16.3l13.5-13l23.8-25.2l2.1-2.4c0,0-14.2-18-18.9-26.4
				c-4.7-8.4-11.2-20-13-24.7c-1.9-4.7-2.2-5.8-2.2-5.8l42.6-0.2l8.6,16.8l5.5,9.3l3,4.8l2.8,3.6c0,0,0,0,3.2-5.2
				c7.5-11.9,7.5-11.9,11.3-18.9c2.7-4.9,7.1-14.7,7.1-14.7H266.4"/>
		</g>
	</g>
</g>
</svg>
