<?xml version="1.0" encoding="iso-8859-1"?>
<!-- Generator: Adobe Illustrator 16.0.0, SVG Export Plug-In . SVG Version: 6.00 Build 0)  -->
<!DOCTYPE svg PUBLIC "-//W3C//DTD SVG 1.1//EN" "http://www.w3.org/Graphics/SVG/1.1/DTD/svg11.dtd">
<svg version="1.1" id="Layer_1" xmlns="http://www.w3.org/2000/svg" xmlns:xlink="http://www.w3.org/1999/xlink" x="0px" y="0px"
	 width="512px" height="512px" viewBox="0 0 512 512" style="enable-background:new 0 0 512 512;" xml:space="preserve">
<g id="Email">
	<g>
		<path style="fill:#3A8FC6;stroke:#3A8FC6;stroke-width:4.5;stroke-miterlimit:10;" d="M459.338,423.027
			c0,19.971-16.338,36.31-36.311,36.31H88.971c-19.971,0-36.309-16.339-36.309-36.31v-210.6c0-8.167,3.405-15.885,9.304-21.332
			c46.522-43.118,100.082-80.563,132.307-107.116c15.885-13.163,37.9-31.317,61.503-31.317h0.226c0.227,0,0.227,0,0.227,0
			c23.599,0,45.615,18.154,61.502,31.317c29.955,24.737,86.922,64.906,132.307,107.116c5.9,5.446,9.301,13.164,9.301,21.332V423.027
			z M430.293,212.428c-22.692-21.105-19.291-19.289-124.363-100.534c-11.351-8.85-33.816-30.185-49.701-30.185h-0.227h-0.226
			c-15.888,0-38.354,21.334-49.702,30.185c-105.076,81.245-101.67,79.429-124.365,100.534v210.6c0,3.857,3.404,7.265,7.262,7.265
			h334.056c3.858,0,7.266-3.407,7.266-7.265V212.428z"/>
		<polygon style="fill:#3A8FC6;" points="430.293,212.428 256.002,307.191 81.709,212.428 69.852,437.495 442.152,437.495 		"/>
	</g>
</g>
<g>
</g>
<g>
</g>
<g>
</g>
<g>
</g>
<g>
</g>
<g>
</g>
</svg>
