<?xml version="1.0" encoding="utf-8"?>
<!-- Generator: Adobe Illustrator 25.0.1, SVG Export Plug-In . SVG Version: 6.00 Build 0)  -->
<svg version="1.1" id="Layer_1" xmlns="http://www.w3.org/2000/svg" xmlns:xlink="http://www.w3.org/1999/xlink" x="0px" y="0px"
	 viewBox="0 0 512 512" style="enable-background:new 0 0 512 512;" xml:space="preserve">
<style type="text/css">
	.st0{fill:#3A8FC7;}
</style>
<g id="DOC">
	<path class="st0" d="M367,433.4c-3.3,5.8-9.6,9.8-16.8,9.8h-212c-10.7,0-19.3-8.6-19.3-19.2V88c0-10.6,8.6-19.2,19.3-19.2h212
		c10.7,0,19.3,8.6,19.3,19.2v58h52.8V88c0-39.7-32.3-72-72.1-72h-212c-39.8,0-72.1,32.3-72.1,72V424c0,39.7,32.3,72,72.1,72h212
		c36.6,0,66.8-27.3,71.5-62.6H367z"/>
	<g>
		<g>
			<path class="st0" d="M314.3,159.2H169.1c-14.2,0-25.8-11.5-25.8-25.8v-0.5c0-14.2,11.5-25.8,25.8-25.8h145.2
				c14.2,0,25.8,11.5,25.8,25.8v0.5C340,147.6,328.5,159.2,314.3,159.2z"/>
			<path class="st0" d="M267.8,276.1h-98.7c-14.2,0-25.8,11.5-25.8,25.8v0.5c0,14.2,11.5,25.8,25.8,25.8h98.7V276.1z"/>
			<path class="st0" d="M267.8,194.1h-98.7c-14.2,0-25.8,11.5-25.8,25.8v0.5c0,14.2,11.5,25.8,25.8,25.8h98.7V194.1z"/>
		</g>
		<g>
			<path class="st0" d="M445.8,288.7c0,32.8-9,58-27.1,75.7c-18,17.7-43.4,26.6-76.1,26.6h-63.5V194.7h67.9c31.5,0,55.8,8.1,73,24.2
				C437.3,235,445.8,258.3,445.8,288.7z M390.8,290.6c0-18-3.6-31.3-10.7-40c-7.1-8.7-17.9-13-32.4-13h-15.4v110h11.8
				c16.1,0,27.9-4.7,35.4-14C387,324.2,390.8,309.9,390.8,290.6z"/>
		</g>
	</g>
</g>
</svg>
