<?xml version="1.0" encoding="iso-8859-1"?>
<!-- Generator: Adobe Illustrator 16.0.0, SVG Export Plug-In . SVG Version: 6.00 Build 0)  -->
<!DOCTYPE svg PUBLIC "-//W3C//DTD SVG 1.1//EN" "http://www.w3.org/Graphics/SVG/1.1/DTD/svg11.dtd">
<svg version="1.1" id="Layer_1" xmlns="http://www.w3.org/2000/svg" xmlns:xlink="http://www.w3.org/1999/xlink" x="0px" y="0px"
	 width="512px" height="512px" viewBox="0 0 512 512" style="enable-background:new 0 0 512 512;" xml:space="preserve">
<g id="Word">
	<path style="fill:#3A8FC6;" d="M265.034,123.214c0,25.474-20.649,46.123-46.12,46.123H57.943
		c-25.472,0-46.121-20.649-46.121-46.123l0,0c0-25.471,20.649-46.12,46.121-46.12h160.971
		C244.385,77.094,265.034,97.743,265.034,123.214L265.034,123.214z"/>
	<path style="fill:#3A8FC6;" d="M409.737,256.008c0,25.471-20.648,46.12-46.119,46.12H57.943c-25.472,0-46.121-20.649-46.121-46.12
		l0,0c0-25.472,20.649-46.121,46.121-46.121h305.675C389.089,209.887,409.737,230.536,409.737,256.008L409.737,256.008z"/>
	<path style="fill:#3A8FC6;" d="M500.178,388.801c0,25.47-20.648,46.12-46.118,46.12H57.943c-25.472,0-46.121-20.65-46.121-46.12
		l0,0c0-25.473,20.649-46.122,46.121-46.122H454.06C479.529,342.679,500.178,363.328,500.178,388.801L500.178,388.801z"/>
	<g>
		<path style="fill:#3A8FC6;" d="M357.806,77.079l9.466,48.533c2.425,12.376,4.853,25.479,6.795,39.069h0.485
			c2.424-13.59,5.823-27.179,8.735-38.827l12.617-48.775h29.122l11.89,47.319c3.156,13.347,6.309,26.693,8.736,40.283h0.484
			c1.701-13.59,4.126-26.937,6.797-40.526l10.191-47.076h36.157l-36.4,118.665H428.18l-11.162-41.74
			c-2.911-11.648-5.097-22.325-7.522-36.885h-0.485c-2.184,14.803-4.611,25.723-7.765,36.885l-11.892,41.74h-34.702L320.193,77.079
			H357.806z"/>
	</g>
</g>
<g>
</g>
<g>
</g>
<g>
</g>
<g>
</g>
<g>
</g>
<g>
</g>
</svg>
