<svg version="1.1" id="Layer_1" xmlns="http://www.w3.org/2000/svg" x="0" y="0" viewBox="0 0 512 512" style="enable-background:new 0 0 512 512" xml:space="preserve"><style>.st1{fill-rule:evenodd;clip-rule:evenodd;fill:#3593c9}.st2{fill:#3a91c8}</style><g id="Rewriter_Text_App"><path d="M236.8 223.2h-71.2c-25.4 0-46-19.8-46-44.2s20.6-44.2 46-44.2h125.6c7.1 0 12.9 5.8 12.9 12.9s-5.8 12.9-12.9 12.9H165.7c-11.2 0-20.3 8.3-20.3 18.5s9.1 18.5 20.3 18.5h71.2c7.1 0 12.9 5.8 12.9 12.9s-5.9 12.7-13 12.7z" style="fill:#3593c9"/><path class="st1" d="m307.5 156-35-35c-5-5-5-13.2 0-18.2s13.2-5 18.2 0l35 35c5 5 5 13.2 0 18.2s-13.2 5-18.2 0z"/><path class="st1" d="m290.7 192.1 35-35c5-5 5-13.2 0-18.2s-13.2-5-18.2 0l-35 35c-5 5-5 13.2 0 18.2s13.2 5 18.2 0z"/><g><path class="st2" d="M194.2 402.3h-38.6V291h-34.9v-31.5h108.2V291h-34.8l.1 111.3zM378 402.3h-44.6l-27.8-44.7-27.5 44.6h-43.7l47.4-73-44.5-69.7h42.8l25.8 44.1 24.8-44.1h44l-45.3 72.7 48.6 70.1zM457 402.3h-38.6V291h-34.9v-31.5h108.2V291h-34.8v111.3h.1z"/></g><path class="st1" d="M355.1 440.3c-4.4 5.6-11.3 9.2-19 9.2H115.4c-13.1 0-23.9-10.5-23.9-23.4V84.9c0-12.9 10.8-23.4 23.9-23.4h220.7c13.1 0 23.9 10.5 23.9 23.4V167h52.1V84.9c0-41-34.1-74.3-76-74.3H115.4c-41.9 0-76 33.4-76 74.3v341.3c0 41 34.1 74.3 76 74.3h220.7c37 0 67.8-25.9 74.6-60.2h-55.6z"/></g></svg>