<svg version="1.1" id="GroupDocs.Password_Generatro" xmlns="http://www.w3.org/2000/svg" x="0" y="0" viewBox="0 0 512 512" style="enable-background:new 0 0 512 512" xml:space="preserve"><style>.st2{fill:#3691c9}</style><g id="Password_Generator"><circle cx="114" cy="341" r="88.9" style="fill:#fff"/><path d="M114 438.8c-54 0-97.9-43.9-97.9-97.9S60 243.1 114 243.1s97.9 43.9 97.9 97.9-43.9 97.8-97.9 97.8zm0-177.8c-44.1 0-80 35.9-80 80s35.9 80 80 80 80-35.9 80-80c-.1-44.1-35.9-80-80-80z" style="fill:#3592cb"/><path class="st2" d="m126.6 286 3.2 16.2c3.8 1.5 7.5 3.7 11.1 6.6l12.4-4.3 3.3-1.1 12 20.9-12.2 10.7.1 1.2c.4 2.4.7 4.2.7 5.5 0 1.2-.2 3.1-.7 5.5l-.1 1.2 12.2 10.7-12 20.9-3.3-1.1-12.4-4.3c-3.6 2.9-7.3 5-11.1 6.6l-3.2 16.2h-24.1l-3.2-16.2c-3.8-1.5-7.5-3.7-11.1-6.6l-12.4 4.3-3.3 1.1-12-20.9 12.2-10.7-.1-1.2c-.4-2.4-.7-4.2-.7-5.5 0-1.2.2-3.1.7-5.5l.1-1.2-12.2-10.7 12-20.9 3.3 1.1 12.4 4.3c3.6-2.9 7.3-5 11.1-6.6l2.5-12.7.7-3.5h24.1zm-19.2 19.6-.5 2.5-2.4.8c-4.9 1.5-9.2 4-13 7.5l-1.9 1.7-13.2-4.5-5.1 8.7 8.6 7.6 2 1.6-.7 2.5c-.5 2.4-.8 4.9-.8 7.5 0 2.6.3 5.1.8 7.5l.7 2.5-2 1.6-8.6 7.6 5.1 8.7 13.2-4.5 1.9 1.7c3.7 3.5 8.1 6 13 7.5l2.4.8 2.7 13.6h10.2l2.7-13.6 2.4-.8c4.9-1.5 9.2-4 13-7.5l1.9-1.7 13.2 4.5 5.1-8.7-10.4-9.2.5-2.5c.5-2.4.8-4.9.8-7.5 0-2.6-.3-5.1-.8-7.5l-.7-2.5 2-1.6 8.6-7.6-5.1-8.7-13.2 4.5-1.9-1.7c-3.7-3.5-8.1-6-13-7.5l-2.4-.8-2.7-13.6h-10.2l-2.2 11.1zm17.9 17.5c3.3 1.9 5.9 4.5 7.8 7.8 1.9 3.3 2.9 6.9 2.9 10.7 0 3.8-1 7.4-2.9 10.7-1.9 3.3-4.5 5.9-7.8 7.8-3.3 1.9-6.9 2.9-10.7 2.9-3.8 0-7.4-1-10.7-2.9-3.3-1.9-5.9-4.5-7.8-7.8-1.9-3.3-2.9-6.9-2.9-10.7 0-3.8 1-7.4 2.9-10.7 1.9-3.3 4.5-5.9 7.8-7.8 3.3-1.9 6.9-2.9 10.7-2.9 3.8 0 7.4 1 10.7 2.9zm-19.8 9.4c-2.5 2.5-3.7 5.5-3.7 9.1s1.2 6.6 3.7 9.1 5.5 3.7 9.1 3.7c3.6 0 6.6-1.2 9.1-3.7s3.7-5.5 3.7-9.1c0-3.6-1.2-6.6-3.7-9.1s-5.5-3.7-9.1-3.7c-3.6 0-6.6 1.2-9.1 3.7z"/><path class="st2" d="m150.6 345.4-.8-9.1.9-4.2 3.8-2.8 6.9-4.8-1.3-5.2-4-6.4-1.3-3.2-8.3 1.4-10-.3-6.6-3.2-4.7-3.1-1.3-7.7-1.6-4.1H107l-.3 13.9-17.2 8.8-13.5-2.7-6.1 9.1 1.4 3.3 4.3 3.8 2.6 2.3.7 3.5-.5 8 .7 6.1-.9 2.7-4.7 2.8-5.8 5.6 1.6 5.5 2.8 4.8 2.5 2.6h4.1l7.2-2.4 3.8-2 4.4 3 5.7 3.9 4.2 1.7 2 5.3 1.4 7.4 4.2 2.7h8.3l3.5-2.5 1.7-9.1 1.8-5.2 8.4-3.4 4.3-4.4 5.2 1.6 7.4 2 5.2-1.7 1.9-5.5 1.9-4.5-6.9-6.8-3.7-7.5zm-35.9 9.1c-7.2 0-13-5.8-13-13s5.8-13 13-13 13 5.8 13 13-5.8 13-13 13z"/><g><path class="st2" d="M218.9 285.6h9.4l267.5-.5v-63.5c0-10-8.1-18.2-18.2-18.2h-34.4v-52.6c0-21.9-5.6-42.3-16.7-61.1-11.1-18.8-26.1-33.8-44.9-44.9-18.8-11.1-39.2-16.7-61.1-16.7s-42.3 5.6-61.1 16.7c-18.8 11.1-33.8 26.1-44.9 44.9-11.1 18.8-16.7 39.2-16.7 61.1v52.6h-34.5c-10 0-18.1 8.1-18.1 18.1v9c27 3.8 60.6 25.3 73.7 55.1zm14-134.8c0-15.7 3.9-30.3 11.8-43.8 7.8-13.5 18.5-24.2 32-32 13.5-7.9 28.1-11.8 43.8-11.8 15.7 0 30.3 3.9 43.8 11.8 13.5 7.9 24.2 18.5 32 32 7.9 13.5 11.8 28.1 11.8 43.8v52.6H232.9v-52.6zM237.2 392.5h-18.5c-15.3 37.9-43.6 54.3-73.4 62.4v10.9c0 10 8.1 18.1 18.1 18.1h314.4c10 0 18.1-8.1 18.1-18.1v-73.3H237.2z"/><path class="st2" d="M463.9 273h32v151.7h-32z"/></g><g><path class="st2" d="m265 313.6-2.1 19.6 19.9-5.6 2.1 16.4-17.5 1.2 11.5 15.5-14.5 7.7-8-15.8-6.9 15.7-15.2-7.6 11.5-15.5-17.5-1.4 2.5-16.2 19.4 5.6-2.2-19.6h17zM346 313.6l-2.1 19.6 19.9-5.6 2.1 16.4-17.5 1.2 11.5 15.5-14.5 7.7-8-15.8-6.9 15.7-15.2-7.6 11.5-15.5-17.5-1.4 2.5-16.2 19.4 5.6-2.2-19.6h17zM426.9 313.6l-2.1 19.6 19.9-5.6 2.1 16.4-17.5 1.2 11.5 15.5-14.5 7.7-8-15.8-6.9 15.7-15.2-7.6 11.5-15.5-17.5-1.4 2.5-16.2 19.4 5.6-2.2-19.6h17z"/></g></g></svg>