<?xml version="1.0" encoding="utf-8"?>
<!-- Generator: Adobe Illustrator 25.0.1, SVG Export Plug-In . SVG Version: 6.00 Build 0)  -->
<svg version="1.1" id="Layer_1" xmlns="http://www.w3.org/2000/svg" xmlns:xlink="http://www.w3.org/1999/xlink" x="0px" y="0px"
	 viewBox="0 0 512 512" style="enable-background:new 0 0 512 512;" xml:space="preserve">
<style type="text/css">
	.st0{fill:#3A8FC7;}
</style>
<g id="TXT">
	<g>
		<path class="st0" d="M354.8,433.4c-3.3,5.8-9.6,9.8-16.8,9.8H126c-10.7,0-19.3-8.6-19.3-19.2V88c0-10.6,8.6-19.2,19.3-19.2h212
			c10.7,0,19.3,8.6,19.3,19.2v58h52.8V88c0-39.7-32.3-72-72.1-72H126C86.3,16,54,48.3,54,88V424c0,39.7,32.3,72,72.1,72h212
			c36.6,0,66.8-27.3,71.5-62.6H354.8z"/>
	</g>
	<g>
		<path class="st0" d="M304.1,159.9H159.4c-14.4,0-26-11.6-26-26v0c0-14.4,11.6-26,26-26h144.7c14.4,0,26,11.6,26,26v0
			C330.1,148.3,318.5,159.9,304.1,159.9z"/>
		<path class="st0" d="M278,194.7H159.4c-14.4,0-26,11.6-26,26v0c0,14.4,11.6,26,26,26H278V194.7z"/>
		<path class="st0" d="M302.4,332.1H157.7c-14.4,0-26-11.6-26-26v0c0-14.4,11.6-26,26-26h144.7c14.4,0,26,11.6,26,26v0
			C328.4,320.5,316.8,332.1,302.4,332.1z"/>
		<g>
			<path class="st0" d="M410.2,391h-53V238.1h-47.9v-43.4H458v43.4h-47.8V391z"/>
		</g>
	</g>
</g>
</svg>
