<?xml version="1.0" encoding="utf-8"?>
<!-- Generator: Adobe Illustrator 25.0.1, SVG Export Plug-In . SVG Version: 6.00 Build 0)  -->
<svg version="1.1" id="Layer_1" xmlns="http://www.w3.org/2000/svg" xmlns:xlink="http://www.w3.org/1999/xlink" x="0px" y="0px"
	 viewBox="0 0 512 512" style="enable-background:new 0 0 512 512;" xml:space="preserve">
<style type="text/css">
	.st0{fill:#3A8FC7;}
	.st1{fill:#3593C9;}
	.st2{fill:#3593CB;}
</style>
<g id="XLSX">
	<g>
		<path class="st0" d="M332,440H180.6c-10,0-18.5-6.1-22.2-14.8h-53.3c4.6,37.6,36.6,66.8,75.4,66.8h164.5
			c-8.8-10-14.3-24.2-14.3-39.8C330.8,448,331.3,443.9,332,440z"/>
		<path class="st0" d="M385.6,20h-205c-41.9,0-76,34.1-76,76v158.7h52V96c0-13.2,10.8-24,24-24h205c13.2,0,24,10.8,24,24v134
			c21.3,3.2,39.9,16.5,52,35.6V96C461.6,54.1,427.6,20,385.6,20z"/>
	</g>
	<g>
		<path class="st1" d="M282.9,158c-22.2,0-44.3,0.1-66.5,0c-11-0.1-20.4-6.8-24.2-17c-3.7-10-1-20.9,7.1-28.2
			c4.8-4.3,10.4-6.6,16.8-6.6c44.7,0,89.3-0.1,134,0c14.2,0,25.6,11.9,25.5,26.1c-0.1,14.2-11.4,25.7-25.7,25.8
			C327.6,158.1,305.2,158,282.9,158z"/>
		<path class="st2" d="M374.1,234.2c-9.8,4.4-18.3,10.4-26,17.7c-16.4,0-32.7,0-49,0c-27.5,0-54.9,0.1-82.4,0
			c-20-0.1-32.4-21.1-22.8-38.4c4.7-8.5,12.2-13.4,21.9-13.4c44.9-0.2,89.9-0.2,134.8,0C367.8,200.2,379.5,217.3,374.1,234.2z"/>
	</g>
	<g id="Conversion_7_">
		<path class="st0" d="M497.2,353l-80.1-80.1c-11.7-11.7-30.8-11.7-42.5,0c-11.7,11.7-11.7,30.8,0,42.5l59.9,59.9l-59.9,59.9
			c-11.7,11.7-11.7,30.8,0,42.5c11.7,11.7,30.8,11.7,42.5,0l80.1-80.1c6.2-6.2,9.1-14.3,8.8-22.4C506.2,367.3,503.3,359.2,497.2,353
			z"/>
	</g>
	<g>
		<path class="st0" d="M100.7,393.5H71.2l-18.4-29.5l-18.2,29.5H5.9l31.3-48.2l-29.4-46H36l17,29.1l16.4-29.1h29.1l-29.8,48
			L100.7,393.5z"/>
		<path class="st0" d="M111.3,393.5v-94.2h25.5V373H173v20.6H111.3z"/>
		<path class="st0" d="M249.7,364.9c0,5.8-1.5,11-4.4,15.6c-3,4.5-7.2,8.1-12.8,10.6c-5.6,2.5-12.1,3.8-19.7,3.8
			c-6.3,0-11.5-0.4-15.8-1.3s-8.7-2.4-13.3-4.6v-22.7c4.9,2.5,9.9,4.4,15.1,5.8c5.2,1.4,10.1,2.1,14.4,2.1c3.8,0,6.6-0.7,8.3-2
			c1.8-1.3,2.6-3,2.6-5.1c0-1.3-0.4-2.4-1.1-3.4s-1.8-1.9-3.4-2.9c-1.6-1-5.7-3-12.5-6.1c-6.1-2.8-10.8-5.5-13.8-8.1
			c-3.1-2.6-5.3-5.6-6.8-9c-1.5-3.4-2.2-7.4-2.2-12.1c0-8.7,3.2-15.4,9.5-20.3c6.3-4.9,15-7.3,26-7.3c9.8,0,19.7,2.3,29.8,6.8
			l-7.8,19.7c-8.8-4-16.4-6.1-22.8-6.1c-3.3,0-5.7,0.6-7.2,1.7c-1.5,1.2-2.3,2.6-2.3,4.3c0,1.8,1,3.5,2.9,5c1.9,1.5,7.1,4.1,15.6,8
			c8.1,3.7,13.8,7.6,16.9,11.8S249.7,358.5,249.7,364.9z"/>
		<path class="st0" d="M349.2,393.5h-29.5l-18.4-29.5l-18.2,29.5h-28.8l31.3-48.2l-29.4-46h28.2l17,29.1l16.4-29.1h29.1l-29.8,48
			L349.2,393.5z"/>
	</g>
</g>
</svg>
