<?xml version="1.0" encoding="iso-8859-1"?>
<!-- Generator: Adobe Illustrator 16.0.0, SVG Export Plug-In . SVG Version: 6.00 Build 0)  -->
<!DOCTYPE svg PUBLIC "-//W3C//DTD SVG 1.1//EN" "http://www.w3.org/Graphics/SVG/1.1/DTD/svg11.dtd">
<svg version="1.1" id="Layer_1" xmlns="http://www.w3.org/2000/svg" xmlns:xlink="http://www.w3.org/1999/xlink" x="0px" y="0px"
	 width="512px" height="512px" viewBox="0 0 512 512" style="enable-background:new 0 0 512 512;" xml:space="preserve">
<g>
	<g>
		<path style="fill:#3790C9;" d="M435.054,396.5l-18.115-59.473H325.85L307.734,396.5h-57.08l88.184-250.879h64.771L492.134,396.5
			H435.054z M404.292,292.594c-16.748-53.889-26.177-84.365-28.284-91.431c-2.109-7.063-3.618-12.646-4.528-16.748
			c-3.76,14.585-14.526,50.645-32.3,108.179H404.292z"/>
	</g>
	<path style="fill:#3790C9;" d="M343.795,428.392c0,12.99-10.87,23.616-24.154,23.616H96.667c-13.284,0-24.152-10.626-24.152-23.616
		V83.608c0-12.989,10.868-23.616,24.152-23.616h222.974c13.284,0,24.154,10.626,24.154,23.616V120.5h52.663V83.608
		c0-41.416-34.46-75.108-76.817-75.108H96.667c-42.356,0-76.816,33.693-76.816,75.108v344.783c0,41.416,34.46,75.108,76.816,75.108
		h222.974c42.357,0,76.817-33.692,76.817-75.108V422.5h-52.663V428.392z"/>
	<g>
		<g>
			<polyline style="fill:#3790C9;" points="222.783,95.381 182.26,95.381 182.26,117.738 105.406,117.738 105.406,158.262 
				224.53,158.262 299.637,158.262 299.637,117.738 222.783,117.738 222.783,95.381 182.26,95.381 			"/>
			<path style="fill:#3790C9;" d="M266.381,158.262c0,0-12.197,27.1-19.213,38.661c-9.381,15.457-17.08,24.946-17.08,24.946
				l25.232,25.592l-15.313,41.222l-21.836-21.427l-15.018-16.361l-1.75,1.921l-21.427,21.428l-33.768,32.139l-29.811-29.812
				l18.166-16.302l13.508-13.042l23.755-25.152l2.096-2.445c0,0-14.206-18.05-18.863-26.434
				c-4.658-8.384-11.179-20.028-13.042-24.686c-1.864-4.658-2.213-5.821-2.213-5.821l42.619-0.233l8.56,16.826l5.529,9.257
				l3.029,4.833l2.826,3.579c0,0,0,0,3.227-5.152c7.45-11.89,7.45-11.89,11.297-18.863c2.696-4.886,7.104-14.672,7.104-14.672
				H266.381"/>
		</g>
	</g>
</g>
<g>
</g>
<g>
</g>
<g>
</g>
<g>
</g>
<g>
</g>
<g>
</g>
</svg>
