<?xml version="1.0" encoding="utf-8"?>
<!-- Generator: Adobe Illustrator 25.0.1, SVG Export Plug-In . SVG Version: 6.00 Build 0)  -->
<svg version="1.1" id="Layer_1" xmlns="http://www.w3.org/2000/svg" xmlns:xlink="http://www.w3.org/1999/xlink" x="0px" y="0px"
	 viewBox="0 0 512 512" style="enable-background:new 0 0 512 512;" xml:space="preserve">
<style type="text/css">
	.st0{fill:#3A8FC7;}
	.st1{fill:#3593C9;}
	.st2{fill:#3593CB;}
</style>
<g id="VSD">
	<g>
		<path class="st0" d="M329.3,440H177.9c-10,0-18.5-6.1-22.2-14.8h-53.3c4.6,37.6,36.6,66.8,75.4,66.8h164.5
			c-8.8-10-14.3-24.2-14.3-39.8C328.1,448,328.6,443.9,329.3,440z"/>
		<path class="st0" d="M382.9,20h-205c-41.9,0-76,34.1-76,76v158.7h52V96c0-13.2,10.8-24,24-24h205c13.2,0,24,10.8,24,24v134
			c21.3,3.2,39.9,16.5,52,35.6V96C458.9,54.1,424.9,20,382.9,20z"/>
	</g>
	<g>
		<path class="st1" d="M280.2,158c-22.2,0-44.3,0.1-66.5,0c-11-0.1-20.4-6.8-24.2-17c-3.7-10-1-20.9,7.1-28.2
			c4.8-4.3,10.4-6.6,16.8-6.6c44.7,0,89.3-0.1,134,0c14.2,0,25.6,11.9,25.5,26.1c-0.1,14.2-11.4,25.7-25.7,25.8
			C324.9,158.1,302.5,158,280.2,158z"/>
		<path class="st2" d="M371.4,234.2c-9.8,4.4-18.3,10.4-26,17.7c-16.4,0-32.7,0-49,0c-27.5,0-54.9,0.1-82.4,0
			c-20-0.1-32.4-21.1-22.8-38.4c4.7-8.5,12.2-13.4,21.9-13.4c44.9-0.2,89.9-0.2,134.8,0C365.1,200.2,376.8,217.3,371.4,234.2z"/>
	</g>
	<g id="Conversion_6_">
		<path class="st0" d="M494.5,353l-80.1-80.1c-11.7-11.7-30.8-11.7-42.5,0c-11.7,11.7-11.7,30.8,0,42.5l59.9,59.9l-59.9,59.9
			c-11.7,11.7-11.7,30.8,0,42.5c11.7,11.7,30.8,11.7,42.5,0l80.1-80.1c6.2-6.2,9.1-14.3,8.8-22.4C503.5,367.3,500.6,359.2,494.5,353
			z"/>
	</g>
	<g>
		<path class="st0" d="M78,295h31.3L75.4,398.5H42.5L8.7,295h31.4l14.1,52.5c2.9,11.7,4.5,19.8,4.8,24.4c0.3-3.3,1-7.4,2-12.4
			c1-5,1.9-8.9,2.6-11.7L78,295z"/>
		<path class="st0" d="M188.2,367.1c0,6.4-1.6,12.1-4.9,17.1c-3.3,5-8,8.8-14.1,11.6c-6.1,2.8-13.3,4.1-21.6,4.1
			c-6.9,0-12.7-0.5-17.3-1.5c-4.7-1-9.5-2.7-14.6-5.1v-24.9c5.3,2.7,10.9,4.9,16.6,6.4c5.8,1.5,11,2.3,15.9,2.3
			c4.2,0,7.2-0.7,9.1-2.2c1.9-1.4,2.9-3.3,2.9-5.6c0-1.4-0.4-2.7-1.2-3.7c-0.8-1.1-2-2.1-3.8-3.2c-1.7-1.1-6.3-3.3-13.8-6.7
			c-6.8-3.1-11.8-6-15.2-8.9c-3.4-2.9-5.9-6.2-7.5-9.9c-1.6-3.7-2.4-8.1-2.4-13.2c0-9.5,3.5-17,10.4-22.3c6.9-5.3,16.5-8,28.6-8
			c10.7,0,21.6,2.5,32.8,7.4l-8.6,21.6c-9.7-4.4-18-6.7-25.1-6.7c-3.6,0-6.3,0.6-7.9,1.9c-1.7,1.3-2.5,2.9-2.5,4.7
			c0,2,1,3.8,3.2,5.5c2.1,1.6,7.8,4.5,17.1,8.8c8.9,4,15.1,8.3,18.6,12.9C186.5,354.3,188.2,360.1,188.2,367.1z"/>
		<path class="st0" d="M292.1,344.6c0,17.3-4.8,30.6-14.3,39.9c-9.5,9.3-22.9,14-40.1,14h-33.5V295H240c16.6,0,29.4,4.2,38.5,12.7
			C287.6,316.2,292.1,328.5,292.1,344.6z M263.1,345.6c0-9.5-1.9-16.5-5.6-21.1c-3.8-4.6-9.5-6.9-17.1-6.9h-8.1v58h6.2
			c8.5,0,14.7-2.5,18.7-7.4S263.1,355.7,263.1,345.6z"/>
	</g>
</g>
</svg>
