<?xml version="1.0" encoding="utf-8"?>
<!-- Generator: Adobe Illustrator 25.0.1, SVG Export Plug-In . SVG Version: 6.00 Build 0)  -->
<svg version="1.1" id="Layer_1" xmlns="http://www.w3.org/2000/svg" xmlns:xlink="http://www.w3.org/1999/xlink" x="0px" y="0px"
	 viewBox="0 0 512 512" style="enable-background:new 0 0 512 512;" xml:space="preserve">
<style type="text/css">
	.st0{fill:#3A8FC7;}
</style>
<g id="HTML">
	<path class="st0" d="M183.43,416.77c13.38-41.88,26.73-83.77,40.16-125.64c20.52-63.97,41.09-127.91,61.62-191.88
		c0.52-1.63,0.82-3.34,1.22-5.02c11.1,0,22.2,0,33.29,0c-13.42,41.82-26.81,83.65-40.25,125.47
		c-20.58,64.03-40.55,128.17-61.12,192.2c-0.51,1.6-1.16,3.18-1.62,4.87C205.63,416.77,194.53,416.77,183.43,416.77z"/>
	<path class="st0" d="M510.1,227.45c0.05,18.4,0.1,36.81,0.14,55.21c-22.01,14.13-44,28.3-66.03,42.38
		c-28.33,18.11-56.69,36.15-85.05,54.21c-1.26,0.8-2.6,1.49-4.41,2.52c0-21.62,0-42.66,0-64.32
		c35.53-20.49,71.36-41.15,108.18-62.39c-36.5-20.88-72.29-41.36-108.23-61.92c0-21.19,0-42.22,0-64.21
		c6.71,4.25,12.78,8.1,18.86,11.95c44.52,28.17,89.03,56.34,133.55,84.51C508.12,226.04,509.1,226.76,510.1,227.45z"/>
	<path class="st0" d="M1.13,282.71c0.07-18.43,0.15-36.87,0.22-55.3c33.36-21.15,66.71-42.31,100.07-63.45
		c16.68-10.57,33.38-21.12,50.08-31.68c1.54-0.97,3.1-1.93,5.26-3.27c0,21.94,0,42.99,0,64.89c-35.51,19.89-71.4,40-108.22,60.63
		c36.53,21.24,72.36,42.07,108.28,62.96c0,21.3,0,42.37,0,63.98c-1.28-0.57-2.35-0.9-3.27-1.49
		c-49.87-31.68-99.72-63.39-149.57-95.1C2.98,284.26,2.08,283.45,1.13,282.71z"/>
</g>
<g>
</g>
<g>
</g>
<g>
</g>
<g>
</g>
<g>
</g>
</svg>
