<?xml version="1.0" encoding="utf-8"?>
<!-- Generator: Adobe Illustrator 25.0.1, SVG Export Plug-In . SVG Version: 6.00 Build 0)  -->
<svg version="1.1" id="Layer_1" xmlns="http://www.w3.org/2000/svg" xmlns:xlink="http://www.w3.org/1999/xlink" x="0px" y="0px"
	 viewBox="0 0 512 512" style="enable-background:new 0 0 512 512;" xml:space="preserve">
<style type="text/css">
	.st0{fill-rule:evenodd;clip-rule:evenodd;fill:#3A8FC6;}
</style>
<g id="Merge">
	<path class="st0" d="M414.04,70.99H246.77c-47.91,0-86.74,38.75-86.74,86.56v0.71h60.71v-0.71c0-14.34,11.67-25.97,26.02-25.97
		h167.27c14.37,0,26.02,11.63,26.02,25.97v196.88c0,14.34-11.65,25.99-26.02,25.99H246.77c-14.36,0-26.02-11.66-26.02-25.99v-63.71
		h-60.71v0.16H41.59c-16.77,0-30.35,13.56-30.35,30.28c0,16.74,13.58,30.3,30.35,30.3h118.45v2.96c0,47.84,38.83,86.58,86.74,86.58
		h167.27c47.91,0,86.73-38.74,86.73-86.58V157.55C500.77,109.74,461.95,70.99,414.04,70.99z M41.59,251.68h324.74
		c16.77,0,30.35-13.57,30.35-30.31c0-16.72-13.58-30.28-30.35-30.28H41.59c-16.77,0-30.35,13.56-30.35,30.28
		C11.23,238.11,24.81,251.68,41.59,251.68z"/>
</g>
<g>
</g>
<g>
</g>
<g>
</g>
<g>
</g>
<g>
</g>
</svg>
