<?xml version="1.0" encoding="utf-8"?>
<!-- Generator: Adobe Illustrator 25.0.1, SVG Export Plug-In . SVG Version: 6.00 Build 0)  -->
<svg version="1.1" id="Layer_1" xmlns="http://www.w3.org/2000/svg" xmlns:xlink="http://www.w3.org/1999/xlink" x="0px" y="0px"
	 viewBox="0 0 512 512" style="enable-background:new 0 0 512 512;" xml:space="preserve">
<style type="text/css">
	.st0{fill:#3A8FC7;}
	.st1{fill:#3593C9;}
	.st2{fill:#3593CB;}
</style>
<g id="PDF">
	<g>
		<path class="st0" d="M328.9,440H177.6c-10,0-18.5-6.1-22.2-14.8h-53.3c4.6,37.6,36.6,66.8,75.4,66.8h164.5
			c-8.8-10-14.3-24.2-14.3-39.8C327.8,448,328.2,443.9,328.9,440z"/>
		<path class="st0" d="M382.6,20h-205c-41.9,0-76,34.1-76,76v158.7h52V96c0-13.2,10.8-24,24-24h205c13.2,0,24,10.8,24,24v134
			c21.3,3.2,39.9,16.5,52,35.6V96C458.6,54.1,424.5,20,382.6,20z"/>
	</g>
	<g>
		<path class="st1" d="M279.8,158c-22.2,0-44.3,0.1-66.5,0c-11-0.1-20.4-6.8-24.2-17c-3.7-10-1-20.9,7.1-28.2
			c4.8-4.3,10.4-6.6,16.8-6.6c44.7,0,89.3-0.1,134,0c14.2,0,25.6,11.9,25.5,26.1c-0.1,14.2-11.4,25.7-25.7,25.8
			C324.5,158.1,302.2,158,279.8,158z"/>
		<path class="st2" d="M371,234.2c-9.8,4.4-18.3,10.4-26,17.7c-16.4,0-32.7,0-49,0c-27.5,0-54.9,0.1-82.4,0
			c-20-0.1-32.4-21.1-22.8-38.4c4.7-8.5,12.2-13.4,21.9-13.4c44.9-0.2,89.9-0.2,134.8,0C364.8,200.2,376.4,217.3,371,234.2z"/>
	</g>
	<g id="Conversion_3_">
		<path class="st0" d="M494.1,353L414,272.9c-11.7-11.7-30.8-11.7-42.5,0c-11.7,11.7-11.7,30.8,0,42.5l59.9,59.9l-59.9,59.9
			c-11.7,11.7-11.7,30.8,0,42.5c11.7,11.7,30.8,11.7,42.5,0l80.1-80.1c6.2-6.2,9.1-14.3,8.8-22.4C503.2,367.3,500.2,359.2,494.1,353
			z"/>
	</g>
	<g>
		<path class="st0" d="M84.1,327.9c0,11.6-3.4,20.5-10.2,26.8c-6.8,6.3-16.5,9.5-29.1,9.5h-7.9v34.3H9V295h35.8
			c13.1,0,22.9,2.9,29.5,8.6C80.8,309.3,84.1,317.4,84.1,327.9z M36.9,341.4H42c4.2,0,7.5-1.2,10-3.5c2.5-2.4,3.7-5.6,3.7-9.8
			c0-7-3.9-10.5-11.6-10.5h-7.2V341.4z"/>
		<path class="st0" d="M188.5,344.6c0,17.3-4.8,30.6-14.3,39.9c-9.5,9.3-22.9,14-40.1,14h-33.5V295h35.8c16.6,0,29.4,4.2,38.5,12.7
			C183.9,316.2,188.5,328.5,188.5,344.6z M159.4,345.6c0-9.5-1.9-16.5-5.6-21.1c-3.8-4.6-9.5-6.9-17.1-6.9h-8.1v58h6.2
			c8.5,0,14.7-2.5,18.7-7.4C157.4,363.2,159.4,355.7,159.4,345.6z"/>
		<path class="st0" d="M234.5,398.5H207V295h61.2v22.4h-33.6v19.8h31v22.4h-31V398.5z"/>
	</g>
</g>
</svg>
