<?xml version="1.0" encoding="utf-8"?>
<!-- Generator: Adobe Illustrator 25.0.1, SVG Export Plug-In . SVG Version: 6.00 Build 0)  -->
<svg version="1.1" id="Layer_1" xmlns="http://www.w3.org/2000/svg" xmlns:xlink="http://www.w3.org/1999/xlink" x="0px" y="0px"
	 viewBox="0 0 512 512" style="enable-background:new 0 0 512 512;" xml:space="preserve">
<style type="text/css">
	.st0{fill:#3A8FC7;}
</style>
<g id="DOTX">
	<path class="st0" d="M344.3,433.4c-3.3,5.8-9.6,9.8-16.8,9.8h-212c-10.7,0-19.3-8.6-19.3-19.2V88c0-10.6,8.6-19.2,19.3-19.2h212
		c10.7,0,19.3,8.6,19.3,19.2v58h52.8V88c0-39.7-32.3-72-72.1-72h-212c-39.8,0-72.1,32.3-72.1,72V424c0,39.7,32.3,72,72.1,72h212
		c36.6,0,66.8-27.3,71.5-62.6H344.3z"/>
	<g>
		<g>
			<path class="st0" d="M468.5,408.3h-66.9l-41.7-66.9l-41.3,66.9H253l71-109.6l-66.8-104.6h64.2l38.7,66.2l37.2-66.2h66.1
				l-67.8,109.1L468.5,408.3z"/>
		</g>
		<g>
			<path class="st0" d="M287.9,246.1H149.6c-13.6,0-24.6-11.5-24.6-25.8v-0.5c0-14.2,11-25.8,24.6-25.8h138.4
				c13.6,0,24.6,11.5,24.6,25.8v0.5C312.5,234.6,301.5,246.1,287.9,246.1z"/>
			<path class="st0" d="M227,159.2h-76c-14.4,0-26-11.6-26-26v0c0-14.4,11.6-26,26-26h76c14.4,0,26,11.6,26,26v0
				C253,147.5,241.4,159.2,227,159.2z"/>
			<path class="st0" d="M274.6,330.7h-57.4c-14.4,0-26-11.6-26-26v0c0-14.4,11.6-26,26-26h57.4c14.4,0,26,11.6,26,26v0
				C300.6,319.1,289,330.7,274.6,330.7z"/>
		</g>
	</g>
</g>
</svg>
