<?xml version="1.0" encoding="utf-8"?>
<!-- Generator: Adobe Illustrator 25.0.1, SVG Export Plug-In . SVG Version: 6.00 Build 0)  -->
<svg version="1.1" id="Layer_1" xmlns="http://www.w3.org/2000/svg" xmlns:xlink="http://www.w3.org/1999/xlink" x="0px" y="0px"
	 viewBox="0 0 512 512" style="enable-background:new 0 0 512 512;" xml:space="preserve">
<style type="text/css">
	.st0{fill:#3A8FC7;}
</style>
<g id="RTF">
	<g>
		<path class="st0" d="M356.6,433.4c-3.3,5.8-9.6,9.8-16.8,9.8h-212c-10.7,0-19.3-8.6-19.3-19.2V88c0-10.6,8.6-19.2,19.3-19.2h212
			c10.7,0,19.3,8.6,19.3,19.2v58h52.8V88c0-39.7-32.3-72-72.1-72h-212c-39.8,0-72.1,32.3-72.1,72V424c0,39.7,32.3,72,72.1,72h212
			c36.6,0,66.8-27.3,71.5-62.6H356.6z"/>
	</g>
	<g>
		<path class="st0" d="M306,159.9H161.2c-14.4,0-26-11.6-26-26v0c0-14.4,11.6-26,26-26H306c14.4,0,26,11.6,26,26v0
			C332,148.3,320.3,159.9,306,159.9z"/>
		<path class="st0" d="M306,245.7H161.2c-14.4,0-26-11.6-26-26v0c0-14.4,11.6-26,26-26H306c14.4,0,26,11.6,26,26v0
			C332,234,320.3,245.7,306,245.7z"/>
	</g>
	<g>
		<path class="st0" d="M171.9,363.8v49.4h-36.6V277.6h44.4c36.9,0,55.3,13.4,55.3,40.1c0,15.7-7.7,27.9-23,36.5l39.5,59.1h-41.6
			l-28.8-49.4H171.9z M171.9,336.3h6.9c12.8,0,19.2-5.7,19.2-17c0-9.3-6.3-14-18.8-14h-7.2V336.3z"/>
		<path class="st0" d="M323.6,413.2H287V307.5h-33.1v-30h102.8v30h-33V413.2z"/>
		<path class="st0" d="M412.2,413.2h-36.1V277.6h80.2V307h-44.1v25.9h40.6v29.4h-40.6V413.2z"/>
	</g>
</g>
</svg>
