<?xml version="1.0" encoding="utf-8"?>
<!-- Generator: Adobe Illustrator 25.0.1, SVG Export Plug-In . SVG Version: 6.00 Build 0)  -->
<svg version="1.1" id="Layer_1" xmlns="http://www.w3.org/2000/svg" xmlns:xlink="http://www.w3.org/1999/xlink" x="0px" y="0px"
	 viewBox="0 0 512 512" style="enable-background:new 0 0 512 512;" xml:space="preserve">
<style type="text/css">
	.st0{fill:#3A8FC7;}
	.st1{fill:#3593C9;}
	.st2{fill:#3593CB;}
</style>
<g id="DOC_1_">
	<g>
		<path class="st0" d="M328.9,440H177.5c-10,0-18.5-6.1-22.2-14.8h-53.3c4.6,37.6,36.6,66.8,75.4,66.8h164.5
			c-8.8-10-14.3-24.2-14.3-39.8C327.7,448,328.1,443.9,328.9,440z"/>
		<path class="st0" d="M382.5,20h-205c-41.9,0-76,34.1-76,76v158.7h52V96c0-13.2,10.8-24,24-24h205c13.2,0,24,10.8,24,24v134
			c21.3,3.2,39.9,16.5,52,35.6V96C458.5,54.1,424.4,20,382.5,20z"/>
	</g>
	<g>
		<path class="st1" d="M279.8,158c-22.2,0-44.3,0.1-66.5,0c-11-0.1-20.4-6.8-24.2-17c-3.7-10-1-20.9,7.1-28.2
			c4.8-4.3,10.4-6.6,16.8-6.6c44.7,0,89.3-0.1,134,0c14.2,0,25.6,11.9,25.5,26.1c-0.1,14.2-11.4,25.7-25.7,25.8
			C324.4,158.1,302.1,158,279.8,158z"/>
		<path class="st2" d="M371,234.2c-9.8,4.4-18.3,10.4-26,17.7c-16.4,0-32.7,0-49,0c-27.5,0-54.9,0.1-82.4,0
			c-20-0.1-32.4-21.1-22.8-38.4c4.7-8.5,12.2-13.4,21.9-13.4c44.9-0.2,89.9-0.2,134.8,0C364.7,200.2,376.3,217.3,371,234.2z"/>
	</g>
	<g id="Conversion">
		<path class="st0" d="M494,353L414,272.9c-11.7-11.7-30.8-11.7-42.5,0c-11.7,11.7-11.7,30.8,0,42.5l59.9,59.9l-59.9,59.9
			c-11.7,11.7-11.7,30.8,0,42.5c11.7,11.7,30.8,11.7,42.5,0l80.1-80.1c6.2-6.2,9.1-14.3,8.8-22.4C503.1,367.3,500.2,359.2,494,353z"
			/>
	</g>
	<g>
		<path class="st0" d="M97,344.2c0,17.3-4.8,30.6-14.3,39.9c-9.5,9.3-22.9,14-40.1,14H9.2V294.7H45c16.6,0,29.4,4.2,38.5,12.7
			C92.5,315.9,97,328.2,97,344.2z M68,345.2c0-9.5-1.9-16.5-5.6-21.1c-3.8-4.6-9.5-6.9-17.1-6.9h-8.1v58h6.2
			c8.5,0,14.7-2.5,18.7-7.4C66,362.9,68,355.4,68,345.2z"/>
		<path class="st0" d="M212.4,346.3c0,17.4-4.3,30.7-12.8,39.7c-8.5,9.1-21.1,13.6-37.5,13.6c-16.2,0-28.7-4.6-37.3-13.7
			c-8.7-9.1-13-22.4-13-39.8c0-17.2,4.3-30.4,12.9-39.5c8.6-9.1,21.1-13.6,37.6-13.6c16.5,0,29,4.5,37.5,13.5
			C208.2,315.6,212.4,328.8,212.4,346.3z M141.2,346.3c0,20,7,30,20.9,30c7.1,0,12.3-2.4,15.8-7.3c3.4-4.9,5.1-12.4,5.1-22.7
			c0-10.3-1.7-18-5.2-22.9c-3.5-4.9-8.6-7.4-15.5-7.4C148.2,316,141.2,326.1,141.2,346.3z"/>
		<path class="st0" d="M277.2,316.1c-6.7,0-11.8,2.7-15.6,8.2c-3.7,5.5-5.6,13-5.6,22.6c0,19.9,7.6,29.9,22.7,29.9
			c4.6,0,9-0.6,13.3-1.9s8.6-2.8,13-4.6v23.6c-8.6,3.8-18.4,5.7-29.3,5.7c-15.6,0-27.6-4.5-35.9-13.6c-8.3-9.1-12.5-22.2-12.5-39.3
			c0-10.7,2-20.1,6.1-28.2c4-8.1,9.8-14.4,17.4-18.7c7.6-4.4,16.5-6.5,26.7-6.5c11.2,0,21.9,2.4,32.1,7.3l-8.6,22
			c-3.8-1.8-7.6-3.3-11.5-4.5S281.6,316.1,277.2,316.1z"/>
	</g>
</g>
</svg>
