<?xml version="1.0" encoding="utf-8"?>
<!-- Generator: Adobe Illustrator 25.0.1, SVG Export Plug-In . SVG Version: 6.00 Build 0)  -->
<svg version="1.1" id="Layer_1" xmlns="http://www.w3.org/2000/svg" xmlns:xlink="http://www.w3.org/1999/xlink" x="0px" y="0px"
	 viewBox="0 0 512 512" style="enable-background:new 0 0 512 512;" xml:space="preserve">
<style type="text/css">
	.st0{fill:#3892C9;}
	.st1{fill:#3A92CA;}
</style>
<g>
	<g>
		<g id="Rectangle_6">
			<rect x="11" y="459" class="st0" width="320" height="42"/>
		</g>
		<g id="Rectangle_7">
			<rect x="11" y="181" class="st0" width="125" height="42"/>
		</g>
		<g id="Rectangle_7_copy">
			<rect x="289" y="376" class="st0" width="42" height="125"/>
		</g>
		<g id="Rectangle_6_copy">
			<rect x="11" y="181" class="st0" width="42" height="320"/>
		</g>
		<g id="Rectangle_6_copy_2">
			<rect x="374" y="290" class="st0" width="42" height="125"/>
		</g>
		<g id="Rectangle_8">
			<rect x="96" y="374" class="st0" width="320" height="42"/>
		</g>
		<g id="Rectangle_8_copy">
			<rect x="96" y="96" class="st0" width="42" height="320"/>
		</g>
		<g id="Rectangle_6_copy_3">
			<rect x="96" y="96" class="st0" width="125" height="42"/>
		</g>
		<g id="Rectangle_6_copy_4">
			<rect x="181" y="11" class="st0" width="320" height="42"/>
		</g>
		<g id="Rectangle_9">
			<rect x="181" y="11" class="st0" width="42" height="320"/>
		</g>
		<g id="Rectangle_9_copy">
			<rect x="181" y="289" class="st0" width="320" height="42"/>
		</g>
		<g id="Rectangle_6_copy_5">
			<rect x="459" y="11" class="st0" width="42" height="320"/>
		</g>
	</g>
	<g>
		<g>
			<path class="st1" d="M273.07,236.69c-0.02-0.13-0.03-0.25-0.04-0.38c-0.12-1.42-0.1-2.83,0.07-4.24
				c0.95-8.03,1.78-16.16,2.67-24.17c0.82-7.39,1.43-14.81,2.26-22.21c0.78-7.05,1.75-14.07,2.58-21.11
				c0.54-4.6,0.97-9.21,1.44-13.81c0.39-3.75,1.61-7.03,4.81-9.36c5.16-3.76,9.18-3.55,13.7,0.94c5.2,5.15,10.35,10.35,15.53,15.51
				c1.16,1.15,2.37,2.24,3.76,3.56c1.37-1.27,2.6-2.34,3.75-3.48c10.71-10.69,21.35-21.46,32.16-32.05c0.82-0.8,1.78-1.79,2.8-2.79
				c3.52-3.46,9.23-3.34,12.55,0.32c0.48,0.53,0.95,1.06,1.43,1.57c5.69,6.08,11.73,11.83,17.61,17.73
				c5.12,5.14,5.2,9.43,0.11,14.55c-11.86,11.93-23.79,23.81-35.68,35.71c-0.47,0.47-0.91,0.97-1.62,1.73
				c1.01,1.25,1.55,1.94,2.42,2.91c5.34,5.95,11.27,11.36,16.97,16.96c2.78,2.73,4.5,5.41,2.84,9.66c-1.67,4.29-4.38,7.09-8.78,7.77
				c-7.5,1.17-15.06,1.98-22.61,2.9c-11.16,1.36-22.32,2.69-33.48,4c-8.34,0.98-16.68,1.9-25.02,2.83
				c-1.06,0.12-2.81,0.23-3.87,0.25C276.24,242.06,273.54,240.35,273.07,236.69z"/>
		</g>
		<g id="Rounded_Rectangle_2_copy_2_xA0_Clipping_Path">
			<path class="st0" d="M418.85,113.58l-19.29-19.29c-3.56-3.56-9.34-3.56-12.91,0c-3.56,3.56-3.56,9.34,0,12.9l19.29,19.29
				c3.56,3.56,9.34,3.56,12.9,0C422.41,122.92,422.41,117.15,418.85,113.58z"/>
		</g>
	</g>
</g>
<g>
</g>
<g>
</g>
<g>
</g>
<g>
</g>
<g>
</g>
</svg>
