<?xml version="1.0" encoding="utf-8"?>
<!-- Generator: Adobe Illustrator 25.0.1, SVG Export Plug-In . SVG Version: 6.00 Build 0)  -->
<svg version="1.1" id="Layer_1" xmlns="http://www.w3.org/2000/svg" xmlns:xlink="http://www.w3.org/1999/xlink" x="0px" y="0px"
	 viewBox="0 0 512 512" style="enable-background:new 0 0 512 512;" xml:space="preserve">
<style type="text/css">
	.st0{fill:#3592C7;}
	.st1{fill-rule:evenodd;clip-rule:evenodd;fill:#3592C7;}
</style>
<g id="Editor">
	<g id="LHS">
		<path class="st0" d="M116.95,378.57H50.46c-7.68,0-13.92-6.25-13.92-13.92V144.32c0-7.68,6.25-13.92,13.92-13.92h66.71
			c-0.67-11.19,0.85-22.94,4.38-33h-71.1c-25.87,0-46.92,21.05-46.92,46.92v220.34c0,25.87,21.05,46.92,46.92,46.92h69.93
			C117.64,400.95,116.31,390.15,116.95,378.57z"/>
		<path class="st0" d="M118.65,251.86H76.02c-8.82,0-15.98-7.15-15.98-15.98v-1.96c0-8.86,7.18-16.04,16.04-16.04h42.57V251.86z"/>
		<path class="st0" d="M118.65,189.53H76.02c-8.82,0-15.98-7.15-15.98-15.98v-1.96c0-8.86,7.18-16.04,16.04-16.04h42.57V189.53z"/>
		<path class="st0" d="M118.65,310.6H76.02c-8.82,0-15.98-7.15-15.98-15.98v-1.96c0-8.86,7.18-16.04,16.04-16.04h42.57V310.6z"/>
	</g>
	<g id="RHS">
		<path class="st0" d="M423.85,303.72c-11.06,9.64-28.65,14.27-32.14,15.11v72.97c0,8.12-6.61,14.73-14.73,14.73H199.35
			c-8.12,0-14.73-6.61-14.73-14.73V120.19c0-8.12,6.61-14.73,14.73-14.73h177.64c8.12,0,14.73,6.61,14.73,14.73v12.88
			c10.87-8.08,23.88-17.88,39.43-29.79c-7.21-23.05-28.76-39.83-54.16-39.83H199.35c-31.28,0-56.73,25.45-56.73,56.73v271.62
			c0,31.28,25.45,56.73,56.73,56.73h177.64c31.28,0,56.73-25.45,56.73-56.73v-97.39C429.75,298.31,426.34,301.55,423.85,303.72z"/>
		<path class="st0" d="M341.6,175.77H234.86c-11.44,0-20.71-9.27-20.71-20.71v0c0-11.44,9.27-20.71,20.71-20.71H341.6
			c11.44,0,20.71,9.27,20.71,20.71v0C362.31,166.5,353.04,175.77,341.6,175.77z"/>
	</g>
	<g id="PEN">
		<polygon class="st1" points="298.91,269.8 284.75,283.45 265.92,345.47 328.96,329.11 343.12,315.46 		"/>
		<path class="st1" d="M499.52,120.48c-12.21-12.61-32.35-12.96-44.98-0.77c-12.63,12.19-12.97,32.28-0.77,44.89
			c12.2,12.61,32.34,12.95,44.98,0.77C511.39,153.19,511.73,133.1,499.52,120.48z"/>
		<polygon class="st1" points="454.55,119.71 314.16,255.1 358.36,300.76 498.75,165.37 		"/>
	</g>
</g>
<g>
</g>
<g>
</g>
<g>
</g>
<g>
</g>
<g>
</g>
</svg>
