<?xml version="1.0" encoding="utf-8"?>
<!-- Generator: Adobe Illustrator 25.0.1, SVG Export Plug-In . SVG Version: 6.00 Build 0)  -->
<svg version="1.1" id="Layer_1" xmlns="http://www.w3.org/2000/svg" xmlns:xlink="http://www.w3.org/1999/xlink" x="0px" y="0px"
	 viewBox="0 0 512 512" style="enable-background:new 0 0 512 512;" xml:space="preserve">
<style type="text/css">
	.st0{fill-rule:evenodd;clip-rule:evenodd;fill:#3A8FC6;}
</style>
<g id="annotation">
	<path class="st0" d="M216.11,288.92l73.4-20.4l16.28-16.25l-52.6-52.52l-16.28,16.26L216.11,288.92z M396.5,191.97v148.91
		c0,10.27-8.33,18.58-18.6,18.58h-42.99l-0.41,61.88l-98.6-61.88H74.05c-10.27,0-18.63-8.32-18.63-18.58V161.41
		c0-10.25,8.36-18.56,18.63-18.56h192.22l43.41-43.32H74.05c-34.27,0-62.03,27.71-62.03,61.89v179.47
		c0,34.19,27.76,61.89,62.03,61.89h156.13l147.72,99.03v-99.03c34.25,0,62.02-27.7,62.02-61.89V161.41c0-4.18-0.42-8.26-1.21-12.2
		L396.5,191.97z M484.84,21.08c-14.53-14.51-38.1-14.51-52.63,0L270.72,182.25l52.63,52.52L484.84,73.6
		C499.35,59.09,499.35,35.59,484.84,21.08z M114.34,279c-11.98,0-21.7,9.7-21.7,21.66c0,11.97,9.72,21.68,21.7,21.68h55.83
		c11.98,0,21.69-9.71,21.69-21.68c0-11.96-9.71-21.66-21.69-21.66H114.34z"/>
</g>
<g>
</g>
<g>
</g>
<g>
</g>
<g>
</g>
<g>
</g>
</svg>
