<svg version="1.1" id="Generator" xmlns="http://www.w3.org/2000/svg" x="0" y="0" viewBox="0 0 512 512" style="enable-background:new 0 0 512 512" xml:space="preserve"><style>.st0{fill:#3a8ec6}</style><g id="GroupDocs.Generator"><path class="st0" d="M198.5 310.5c3.6 0 6.4 2.9 6.4 6.4v150.5c0 3.6-2.9 6.4-6.4 6.4H47.9c-3.6 0-6.4-2.9-6.4-6.4V316.9c0-3.6 2.9-6.4 6.4-6.4h150.6m0-34H47.9c-22.3 0-40.4 18.1-40.4 40.4v150.5c0 22.3 18.1 40.4 40.4 40.4h150.5c22.3 0 40.4-18.1 40.4-40.4V316.9c.1-22.3-18-40.4-40.3-40.4z"/><path class="st0" d="M161.2 444.5H85.1c-7.9 0-14.2-6.4-14.2-14.2v-76.1c0-7.9 6.4-14.2 14.2-14.2h76.1c7.9 0 14.2 6.4 14.2 14.2v76.1c.1 7.8-6.3 14.2-14.2 14.2zM198.5 38.1c3.6 0 6.4 2.9 6.4 6.4V195c0 3.6-2.9 6.4-6.4 6.4H47.9c-3.6 0-6.4-2.9-6.4-6.4V44.5c0-3.6 2.9-6.4 6.4-6.4h150.6m0-34H47.9C25.6 4.1 7.5 22.2 7.5 44.5V195c0 22.3 18.1 40.4 40.4 40.4h150.5c22.3 0 40.4-18.1 40.4-40.4V44.5c.1-22.3-18-40.4-40.3-40.4z"/><path class="st0" d="M161.2 172.1H85.1c-7.9 0-14.2-6.4-14.2-14.2V81.7c0-7.9 6.4-14.2 14.2-14.2h76.1c7.9 0 14.2 6.4 14.2 14.2v76.1c.1 7.9-6.3 14.3-14.2 14.3z"/><g><path class="st0" d="M463.7 38.1c3.6 0 6.4 2.9 6.4 6.4V195c0 3.6-2.9 6.4-6.4 6.4H313.1c-3.6 0-6.4-2.9-6.4-6.4V44.5c0-3.6 2.9-6.4 6.4-6.4h150.6m0-34H313.1c-22.3 0-40.4 18.1-40.4 40.4V195c0 22.3 18.1 40.4 40.4 40.4h150.5c22.3 0 40.4-18.1 40.4-40.4V44.5c.1-22.3-18-40.4-40.3-40.4z"/><path class="st0" d="M426.5 172.1h-76.1c-7.9 0-14.2-6.4-14.2-14.2V81.7c0-7.9 6.4-14.2 14.2-14.2h76.1c7.9 0 14.2 6.4 14.2 14.2v76.1c0 7.9-6.4 14.3-14.2 14.3z"/></g><g><path class="st0" d="M424.6 277h29.1v204.2h-29.1zM272.3 277h29.1v230.5h-29.1zM323.1 277h29.1v156.5h-29.1zM374.9 277H404v156.5h-29.1zM475.4 277h29.1v230.6h-29.1zM323.1 457.5h29.1v24.3h-29.1zM374.9 457.5H404v24.3h-29.1z"/></g></g></svg>