<?xml version="1.0" encoding="utf-8"?>
<!-- Generator: Adobe Illustrator 25.0.1, SVG Export Plug-In . SVG Version: 6.00 Build 0)  -->
<svg version="1.1" id="Translation" xmlns="http://www.w3.org/2000/svg" xmlns:xlink="http://www.w3.org/1999/xlink" x="0px"
	 y="0px" viewBox="0 0 512 512" style="enable-background:new 0 0 512 512;" xml:space="preserve">
<style type="text/css">
	.st0{fill:#3790CA;}
	.st1{fill:#378FC7;}
</style>
<g id="PPTX">
	<g>
		<g>
			<g>
				<g>
					<g>
						<path class="st0" d="M303.2,457H79.6c-13.3,0-24.2-10.9-24.2-24.2V79.2C55.4,65.9,66.3,55,79.6,55h223.6
							c13.3,0,24.2,10.9,24.2,24.2V188l52.8-34.1l0,0V79.2c0-42.5-34.6-77-77-77H79.6c-42.5,0-77,34.6-77,77v353.6
							c0,42.5,34.6,77,77,77h223.6c37.4,0,68.7-26.9,75.6-62.3h-56.4C318,453.3,311,457,303.2,457z"/>
					</g>
				</g>
			</g>
		</g>
		<g>
			<g>
				<g>
					<g>
						<g>
							<polyline class="st0" points="202.4,90.5 173.4,90.5 173.4,106.5 118.4,106.5 118.4,135.5 203.7,135.5 257.4,135.5 
								257.4,106.5 202.4,106.5 202.4,90.5 173.4,90.5 							"/>
						</g>
					</g>
				</g>
			</g>
			<g>
				<g>
					<g>
						<g>
							<path class="st0" d="M233.6,135.5c0,0-8.7,19.4-13.8,27.7c-6.7,11.1-12.2,17.9-12.2,17.9l18.1,18.3l-11,29.5l-15.6-15.3
								l-10.7-11.7l-1.3,1.4l-15.3,15.3l-24.2,23l-21.3-21.3l13-11.7l9.7-9.3l17-18l1.5-1.8c0,0-10.2-12.9-13.5-18.9
								s-8-14.3-9.3-17.7c-1.3-3.3-1.6-4.2-1.6-4.2l30.5-0.2l6.1,12l4,6.6l2.2,3.5l2,2.6c0,0,0,0,2.3-3.7c5.3-8.5,5.3-8.5,8.1-13.5
								c1.9-3.5,5.1-10.5,5.1-10.5L233.6,135.5"/>
						</g>
					</g>
				</g>
			</g>
		</g>
	</g>
	<g id="PPTX_1_">
		<path class="st1" d="M208.4,324.5c0,12-3.5,21.2-10.6,27.7c-7.1,6.5-17.1,9.8-30.1,9.8h-8.1v35.5h-28.9V290.4h37.1
			c13.5,0,23.7,3,30.5,8.9C205,305.2,208.4,313.6,208.4,324.5z M159.6,338.4h5.3c4.3,0,7.8-1.2,10.4-3.7c2.6-2.4,3.8-5.8,3.8-10.1
			c0-7.2-4-10.8-12-10.8h-7.5V338.4z"/>
		<path class="st1" d="M303.1,324.5c0,12-3.5,21.2-10.6,27.7c-7.1,6.5-17.1,9.8-30.1,9.8h-8.1v35.5h-28.9V290.4h37.1
			c13.5,0,23.7,3,30.5,8.9C299.7,305.2,303.1,313.6,303.1,324.5z M254.4,338.4h5.3c4.3,0,7.8-1.2,10.4-3.7c2.6-2.4,3.8-5.8,3.8-10.1
			c0-7.2-4-10.8-12-10.8h-7.5V338.4z"/>
		<path class="st1" d="M367.4,397.5h-28.9v-83.4h-26.1v-23.7h81.2v23.7h-26.1V397.5z"/>
		<path class="st1" d="M505.3,397.5h-33.5L450.9,364l-20.7,33.5h-32.7l35.5-54.8l-33.4-52.3h32.1l19.3,33.1l18.6-33.1h33L468.8,345
			L505.3,397.5z"/>
	</g>
</g>
</svg>
