<?xml version="1.0" encoding="utf-8"?>
<!-- Generator: Adobe Illustrator 25.0.1, SVG Export Plug-In . SVG Version: 6.00 Build 0)  -->
<svg xmlns="http://www.w3.org/2000/svg" xmlns:xlink="http://www.w3.org/1999/xlink" version="1.1" id="Layer_1" x="0px" y="0px" viewBox="0 0 335 283" style="enable-background:new 0 0 335 283;" xml:space="preserve">
<style type="text/css">
	.st0{fill:#EEEEEE;}
	
		.st1{fill:none;stroke:#EEEEEE;stroke-width:3;stroke-linecap:round;stroke-linejoin:round;stroke-miterlimit:10;stroke-dasharray:6,8;}
	.st2{fill:none;stroke:#EEEEEE;stroke-width:3;stroke-linecap:round;stroke-linejoin:round;}
	.st3{fill:none;stroke:#EEEEEE;stroke-width:3;stroke-linecap:round;stroke-linejoin:round;stroke-dasharray:6.5303,8.7071;}
	.st4{fill:none;stroke:#EEEEEE;stroke-width:3;stroke-linecap:round;stroke-linejoin:round;stroke-dasharray:5.6936,7.5915;}
	.st5{fill:#68217A;}
	.st6{fill:#DE4444;}
	.st7{fill:#116EAF;}
	.st8{fill:#7BC0CB;}
	.st9{fill:#FFFFFF;}
	.st10{fill:none;stroke:#FFFFFF;stroke-width:2;stroke-miterlimit:10;}
	.st11{fill:#575756;}
	.st12{fill:#3F99D4;}
</style>
<g id="Aspose.Imaging">
	<polygon class="st0" points="146.24,268.67 33.29,260.67 33.29,114.1 146.24,114.1  "/>
	<polygon class="st0" points="152.24,268.67 220.83,260.67 220.83,114.1 152.24,114.1  "/>
	<g id="lines_6_">
		<polyline class="st1" points="234.71,61.21 234.71,95.92 169.49,95.92 169.49,109.69   "/>
		<polyline class="st1" points="293.36,136.56 242.66,136.56 242.66,179.67 218.69,179.67   "/>
		<polyline class="st1" points="296.62,251.3 241.56,251.3 241.56,209.98 218.69,209.98   "/>
		<g>
			<g>
				<line class="st2" x1="102.43" y1="53.49" x2="99.43" y2="53.49"/>
				<line class="st3" x1="90.72" y1="53.49" x2="64.6" y2="53.49"/>
				<polyline class="st2" points="60.24,53.49 57.24,53.49 57.24,56.49     "/>
				<line class="st4" x1="57.24" y1="64.08" x2="57.24" y2="100.14"/>
				<line class="st2" x1="57.24" y1="103.94" x2="57.24" y2="106.94"/>
			</g>
		</g>
	</g>
	<g id="circles_6_">
		<circle class="st5" cx="117.41" cy="54.39" r="33.61"/>
		<circle class="st6" cx="234.71" cy="34.63" r="33.61"/>
		<circle class="st7" cx="300.48" cy="136.56" r="33.61"/>
		<circle class="st8" cx="296.62" cy="248.44" r="33.61"/>
		<g id="java_6_">
			<path id="XMLID_57_" class="st9" d="M234.57,18.98c-1.81,1.27-3.86,2.72-4.96,5.11c-1.91,4.17,3.91,8.71,4.16,8.91     c0.06,0.04,0.13,0.07,0.2,0.07c0.07,0,0.15-0.03,0.21-0.07c0.12-0.1,0.15-0.26,0.08-0.39c-0.02-0.04-2.11-4.1-2.03-7.01     c0.03-1.01,1.45-2.16,2.95-3.38c1.38-1.12,2.94-2.38,3.85-3.86c2-3.26-0.22-6.46-0.25-6.49c-0.09-0.12-0.25-0.17-0.39-0.11     s-0.22,0.21-0.18,0.36c0,0.02,0.44,2.14-0.77,4.32C236.92,17.33,235.83,18.09,234.57,18.98z"/>
			<path id="XMLID_56_" class="st9" d="M242.2,20.42c0.13-0.1,0.17-0.27,0.09-0.41s-0.25-0.2-0.4-0.15     c-0.31,0.12-7.54,2.9-7.54,6.27c0,2.32,0.99,3.55,1.71,4.44c0.28,0.35,0.53,0.65,0.61,0.91c0.23,0.75-0.31,2.09-0.54,2.55     c-0.07,0.13-0.03,0.29,0.08,0.39c0.06,0.05,0.13,0.08,0.21,0.08c0.06,0,0.13-0.02,0.18-0.06c0.12-0.09,3.04-2.15,2.51-4.63     c-0.19-0.94-0.66-1.63-1.07-2.24c-0.63-0.94-1.09-1.62-0.4-2.88C238.48,23.23,242.17,20.45,242.2,20.42z"/>
			<path id="XMLID_54_" class="st9" d="M223.39,34.55c-0.12,0.37-0.07,0.74,0.17,1.06c0.78,1.09,3.56,1.69,7.81,1.69l0,0     c0.58,0,1.19-0.01,1.81-0.03c6.8-0.24,9.33-2.36,9.43-2.45c0.11-0.1,0.14-0.26,0.07-0.39c-0.07-0.13-0.22-0.2-0.37-0.16     c-2.4,0.65-6.87,0.89-9.98,0.89c-3.47,0-5.24-0.25-5.67-0.43c0.22-0.31,1.59-0.85,3.29-1.18c0.16-0.03,0.27-0.18,0.26-0.35     c-0.02-0.16-0.15-0.29-0.32-0.29C228.9,32.89,223.91,32.97,223.39,34.55z"/>
			<path id="XMLID_53_" class="st9" d="M246.16,32.37c-1.4,0-2.73,0.7-2.79,0.73c-0.13,0.07-0.2,0.22-0.16,0.36s0.16,0.24,0.31,0.24     c0.03,0,2.99,0.02,3.26,1.72c0.24,1.46-2.8,3.83-4,4.62c-0.13,0.09-0.18,0.25-0.12,0.39c0.05,0.12,0.17,0.2,0.3,0.2     c0.02,0,0.04,0,0.07-0.01c0.28-0.06,6.92-1.52,6.22-5.39C248.82,32.87,247.33,32.37,246.16,32.37z"/>
			<path id="XMLID_52_" class="st9" d="M241.61,39.57c0.02-0.12-0.03-0.25-0.13-0.32l-1.59-1.11c-0.08-0.05-0.18-0.07-0.27-0.05     c-0.02,0-1.68,0.44-4.1,0.71c-0.96,0.11-2.03,0.16-3.11,0.16c-2.42,0-4-0.28-4.23-0.49c-0.03-0.06-0.02-0.09-0.02-0.1     c0.04-0.12,0.27-0.25,0.41-0.31c0.16-0.06,0.25-0.23,0.2-0.39s-0.22-0.26-0.38-0.22c-1.6,0.39-2.38,0.92-2.32,1.6     c0.1,1.2,2.88,1.82,5.23,1.98c0.34,0.02,0.7,0.03,1.09,0.03l0,0c3.91,0,8.92-1.23,8.97-1.24     C241.49,39.79,241.58,39.69,241.61,39.57z"/>
			<path id="XMLID_51_" class="st9" d="M229.6,42.15c0.12-0.08,0.17-0.23,0.13-0.36c-0.04-0.14-0.17-0.23-0.32-0.23     c-0.21,0.01-2.09,0.09-2.23,1.29c-0.04,0.36,0.06,0.68,0.3,0.97c0.68,0.8,2.5,1.28,5.57,1.45c0.36,0.02,0.73,0.03,1.1,0.03     c3.91,0,6.54-1.22,6.65-1.27s0.18-0.16,0.18-0.27c0.01-0.12-0.05-0.23-0.15-0.29l-2.01-1.23c-0.07-0.04-0.15-0.06-0.23-0.04     c-0.01,0-1.29,0.27-3.22,0.53c-0.36,0.05-0.82,0.07-1.36,0.07c-1.93,0-4.07-0.31-4.48-0.52     C229.54,42.24,229.55,42.19,229.6,42.15z"/>
			<path id="XMLID_50_" class="st9" d="M232.35,48.99c8.95-0.01,13.75-1.6,14.67-2.6c0.33-0.35,0.36-0.69,0.33-0.91     c-0.07-0.54-0.56-0.87-0.62-0.9c-0.13-0.09-0.31-0.06-0.42,0.06c-0.1,0.12-0.11,0.3,0,0.42c0.06,0.07,0.09,0.19-0.08,0.36     c-0.37,0.35-4.1,1.39-10.31,1.71c-0.85,0.04-1.74,0.07-2.65,0.07c-5.56,0-9.63-0.76-10.16-1.21c0.21-0.3,1.65-0.77,3.18-1.04     c0.17-0.03,0.29-0.19,0.26-0.37s-0.19-0.29-0.36-0.27c-0.04,0.01-0.19,0.01-0.36,0.03c-2.53,0.15-5.44,0.5-5.6,1.8     c-0.05,0.4,0.07,0.76,0.35,1.07C221.27,47.97,223.23,48.99,232.35,48.99L232.35,48.99z"/>
			<path id="XMLID_49_" class="st9" d="M248.78,46.68c-0.13-0.06-0.28-0.03-0.37,0.07c-0.01,0.01-1.36,1.42-5.4,2.25     c-1.55,0.31-4.45,0.47-8.64,0.47s-8.18-0.16-8.22-0.17c-0.17-0.01-0.31,0.11-0.33,0.28c-0.02,0.16,0.08,0.32,0.24,0.36     c0.04,0.01,4.22,0.99,9.94,0.99c2.74,0,5.41-0.22,7.93-0.66c4.7-0.82,5.03-3.15,5.04-3.25C248.98,46.87,248.9,46.73,248.78,46.68     z"/>
		</g>
		<path id="NET_6_" class="st9" d="M126.68,51.36h4.7v14.57h1.91V51.36h4.7v-1.73h-11.31V51.36z M118.15,58.51h5.89v-1.73h-5.89    v-5.42h6.36v-1.73h-8.27v16.3h8.64V64.2h-6.72L118.15,58.51L118.15,58.51z M110.73,61.12l0.11,2.4h-0.05    c-0.11-0.22-0.34-0.58-0.66-1.09l-8.16-12.79h-2.48v16.3h1.91V54.16l-0.09-2.24h0.07c0.14,0.37,0.31,0.71,0.51,1.02l8.41,12.99    h2.32v-16.3h-1.9L110.73,61.12L110.73,61.12z M95.44,63.63c-0.35,0-0.64,0.12-0.89,0.38c-0.24,0.25-0.36,0.55-0.36,0.91    c0,0.34,0.13,0.66,0.36,0.9c0.24,0.25,0.54,0.38,0.89,0.38c0.36,0,0.66-0.13,0.91-0.38s0.38-0.56,0.38-0.91S96.6,64.26,96.35,64    c-0.24-0.25-0.57-0.39-0.91-0.38 M133.31,46.37c0,0.87,0.39,1.31,1.16,1.31c0.28,0,0.5-0.05,0.67-0.14v-0.61    c-0.13,0.1-0.3,0.15-0.46,0.14c-0.24,0-0.4-0.06-0.51-0.19c-0.1-0.12-0.15-0.34-0.15-0.63v-2.5h1.12v-0.6h-1.11v-1.31l-0.71,0.23    v1.08h-0.76v0.6h0.76v2.63L133.31,46.37z M130.41,47.58h0.71v-3.83h1.04v-0.6h-1.04v-0.68c0-0.63,0.25-0.94,0.74-0.94    c0.16,0,0.33,0.04,0.47,0.12v-0.64c-0.13-0.06-0.3-0.08-0.52-0.08c-0.38,0-0.7,0.11-0.96,0.36c-0.3,0.28-0.45,0.66-0.45,1.15v0.72    h-0.75v0.6h0.75v3.84L130.41,47.58z M125.56,45.38c0-0.57,0.14-1,0.42-1.31c0.27-0.29,0.62-0.43,1.06-0.43    c0.45,0,0.8,0.14,1.05,0.43c0.26,0.3,0.39,0.73,0.39,1.3c0,0.54-0.11,0.97-0.36,1.26c-0.24,0.3-0.6,0.45-1.07,0.45    c-0.45,0-0.81-0.15-1.08-0.45C125.69,46.33,125.56,45.91,125.56,45.38 M128.6,47.04c0.4-0.43,0.6-0.99,0.6-1.7    c0-0.72-0.19-1.28-0.56-1.7c-0.37-0.41-0.89-0.61-1.55-0.61c-0.67,0-1.21,0.2-1.61,0.59c-0.43,0.42-0.65,1.02-0.65,1.79    c0,0.68,0.19,1.22,0.57,1.63c0.39,0.43,0.92,0.64,1.59,0.64C127.67,47.68,128.21,47.47,128.6,47.04 M123.72,47.29    c0.27-0.22,0.42-0.56,0.41-0.9c0-0.33-0.11-0.6-0.33-0.81c-0.17-0.17-0.44-0.33-0.82-0.49c-0.34-0.14-0.56-0.27-0.67-0.37    c-0.12-0.11-0.18-0.26-0.18-0.46c0-0.18,0.07-0.33,0.21-0.45s0.33-0.17,0.57-0.17c0.38,0,0.71,0.11,1.01,0.32v-0.72    c-0.28-0.14-0.6-0.21-0.95-0.21c-0.45,0-0.84,0.12-1.13,0.37s-0.44,0.55-0.44,0.92c0,0.33,0.09,0.6,0.28,0.8    c0.16,0.17,0.42,0.34,0.79,0.5c0.36,0.16,0.6,0.29,0.73,0.41s0.19,0.26,0.19,0.43c0,0.41-0.28,0.62-0.85,0.62    c-0.42,0-0.81-0.14-1.15-0.43v0.76c0.31,0.18,0.68,0.27,1.1,0.27C123.01,47.68,123.42,47.55,123.72,47.29 M117.38,44.07    c0.26-0.29,0.63-0.43,1.06-0.43c0.45,0,0.8,0.14,1.05,0.43c0.26,0.3,0.38,0.73,0.38,1.3c0,0.54-0.11,0.97-0.36,1.26    c-0.24,0.3-0.6,0.45-1.07,0.45c-0.45,0-0.81-0.15-1.08-0.45s-0.4-0.71-0.4-1.25C116.97,44.81,117.11,44.37,117.38,44.07     M118.4,47.68c0.68,0,1.21-0.21,1.61-0.64s0.6-0.99,0.6-1.7c0-0.72-0.19-1.28-0.56-1.7c-0.37-0.41-0.89-0.61-1.55-0.61    c-0.67,0-1.21,0.2-1.61,0.59c-0.43,0.42-0.65,1.02-0.65,1.79c0,0.68,0.19,1.22,0.57,1.63C117.2,47.46,117.73,47.68,118.4,47.68     M114.82,43.3c-0.22,0.17-0.38,0.43-0.48,0.75h-0.02v-0.92h-0.71v4.44h0.71v-2.25c0-0.52,0.11-0.92,0.33-1.21    c0.2-0.26,0.44-0.39,0.73-0.39c0.24,0,0.42,0.05,0.54,0.14v-0.74c-0.1-0.04-0.24-0.06-0.43-0.06    C115.25,43.07,115.02,43.15,114.82,43.3 M111.32,47.68c0.47,0,0.88-0.1,1.22-0.31V46.7c-0.34,0.25-0.7,0.38-1.09,0.38    c-0.45,0-0.82-0.15-1.1-0.45c-0.27-0.3-0.41-0.71-0.41-1.23c0-0.54,0.15-0.97,0.45-1.29c0.28-0.31,0.65-0.47,1.1-0.47    c0.38,0,0.75,0.12,1.06,0.35v-0.73c-0.3-0.15-0.64-0.23-1.03-0.23c-0.7,0-1.27,0.22-1.68,0.67s-0.63,1.04-0.63,1.76    c0,0.65,0.19,1.18,0.57,1.59C110.17,47.48,110.69,47.69,111.32,47.68 M107.39,47.59h0.71v-4.44h-0.71V47.59L107.39,47.59z     M107.75,42.02c0.12,0,0.24-0.05,0.33-0.14c0.09-0.09,0.14-0.21,0.14-0.33c0-0.12-0.05-0.24-0.14-0.33s-0.21-0.13-0.33-0.13    c-0.13,0-0.24,0.04-0.33,0.13c-0.09,0.09-0.14,0.2-0.14,0.33c0,0.14,0.05,0.25,0.14,0.33C107.51,41.98,107.63,42.02,107.75,42.02     M100.21,43.42l-0.03-1.21h0.02c0.06,0.29,0.13,0.5,0.19,0.64l2.12,4.74h0.36l2.13-4.78c0.05-0.13,0.12-0.33,0.19-0.6h0.02    l-0.06,1.2v4.18h0.73v-6.22h-0.91l-1.95,4.31c-0.08,0.17-0.17,0.42-0.3,0.76h-0.03c-0.05-0.17-0.14-0.42-0.28-0.74l-1.91-4.34    h-0.96v6.22h0.7v-4.16H100.21z M137.57,44.14c-0.2,0.2-0.45,0.3-0.74,0.3c-0.29,0-0.54-0.1-0.74-0.3s-0.31-0.45-0.31-0.75    c0-0.29,0.1-0.54,0.3-0.74c0.2-0.2,0.45-0.3,0.75-0.3c0.28-0.01,0.54,0.1,0.74,0.3s0.31,0.47,0.3,0.75    C137.88,43.7,137.77,43.95,137.57,44.14 M136.84,42.23c-0.32-0.01-0.62,0.11-0.85,0.34c-0.22,0.22-0.35,0.52-0.34,0.84    c0,0.34,0.11,0.61,0.34,0.84s0.51,0.33,0.84,0.33c0.32,0.01,0.62-0.11,0.85-0.34s0.34-0.5,0.34-0.84s-0.11-0.63-0.34-0.84    C137.46,42.34,137.16,42.23,136.84,42.23 M136.81,43.32h-0.23v-0.51h0.19c0.13,0,0.22,0.02,0.28,0.07    c0.05,0.04,0.07,0.1,0.07,0.19C137.12,43.24,137.02,43.32,136.81,43.32 M136.97,43.46L136.97,43.46c0.12-0.03,0.22-0.08,0.28-0.15    c0.07-0.07,0.1-0.17,0.1-0.26c0-0.11-0.04-0.21-0.12-0.28c-0.1-0.09-0.24-0.13-0.43-0.13h-0.42v1.5h0.21v-0.63h0.14    c0.1,0,0.19,0.09,0.27,0.27l0.16,0.36h0.26l-0.2-0.4C137.14,43.57,137.05,43.48,136.97,43.46"/>
		<g id="sharepoint">
			<path class="st10" d="M297.78,123.33c0,0,7.43,2.73,10.59,7.97c4.71,7.8-0.13,15.01-2.97,17.38c-3.96,3.3-8.66,3.74-8.66,3.74"/>
			<circle class="st9" cx="293.47" cy="121" r="6"/>
			<circle class="st9" cx="309.29" cy="137.2" r="6"/>
			<circle class="st9" cx="293.47" cy="153.02" r="6"/>
		</g>
		<g id="jasperreports">
			<path class="st9" d="M308.6,233.51c3.59,0.6,6.16,3.66,6.34,7.24c0.17,3.45-0.82,6.53-2.67,9.33c-5.34,8.11-12.73,13.29-22.36,15     c-2.63,0.47-5.31,0.39-7.86-0.66c-3.66-1.5-5.54-4.78-5.01-8.97c2.33,4.02,6.06,4.04,9.71,3.25c9.08-1.96,16.12-7.04,21.18-14.83     c0.55-0.84,0.95-1.8,1.31-2.74c1.02-2.63,1.09-5.18-0.76-7.53L308.6,233.51z"/>
			<path class="st9" d="M304.91,240.51c-1.16-1.89-2.98-1.76-4.65-1.31c-6.36,1.7-11.45,5.28-15.1,10.78     c-0.95,1.43-1.63,3.03-0.25,4.69c-4.13,0.29-6.37-2.29-5.43-6.23c0.58-2.41,1.91-4.43,3.55-6.24c3.99-4.41,8.75-7.58,14.69-8.72     c0.85-0.16,1.73-0.2,2.6-0.18C304.58,233.4,306.53,236.41,304.91,240.51z"/>
			<path class="st9" d="M308.5,233.6c-0.08-0.05-0.15-0.1-0.23-0.14c0.04-0.03,0.09-0.1,0.1-0.09c0.08,0.04,0.15,0.09,0.22,0.14     C308.6,233.51,308.5,233.6,308.5,233.6z"/>
		</g>
	</g>
	<g>
		<polygon class="st11" points="152.24,240.17 160.68,232.06 172.05,244.69 208.18,203.76 220.83,217.79 220.83,260.67     152.24,268.67   "/>
		<circle class="st11" cx="174.46" cy="200.86" r="13.77"/>
	</g>
	<g>
		<path class="st12" d="M82.17,225.01v-64.25h17.45v64.25H82.17z"/>
	</g>
</g>
<g>
</g>
<g>
</g>
<g>
</g>
<g>
</g>
<g>
</g>
</svg>
