<?xml version="1.0" encoding="utf-8"?>
<!-- Generator: Adobe Illustrator 25.2.0, SVG Export Plug-In . SVG Version: 6.00 Build 0)  -->
<svg version="1.1" id="NET" xmlns="http://www.w3.org/2000/svg" xmlns:xlink="http://www.w3.org/1999/xlink" x="0px" y="0px"
	 viewBox="0 0 512 512" style="enable-background:new 0 0 512 512;" xml:space="preserve">
<style type="text/css">
	.st0{fill:#EF4047;}
</style>
<g id="theme">
	<g>
		<path class="st0" d="M283.9,128.5c0-0.6,0-1.1,0-2.1c0-14.8-11.8-27.2-26.6-27.2H122c-14.4,0-26.6,12.2-26.6,27.2
			s11.8,27.2,26.6,27.2h91.6C234.5,140.3,258.5,131.1,283.9,128.5z M308.5,453.5H89.1c-12.2,0-22.8-10.6-22.8-23.4V81.7
			c0-12.7,10.1-23.4,22.8-23.4H308c12.2,0,22.8,10.6,22.8,23.4v49.6c19.2,4.2,36.7,11.8,52.6,21.9V81.9c0-42.6-34-77.2-75.6-77.2
			H89.1c-41.6,0-75.6,34.6-75.6,77.2v348.2c0,42.6,34,77.2,75.6,77.2H308c41.6,0,75.6-34.6,75.6-77.2v-4.2
			c-18.6,12.2-39.9,20.7-62.9,23.9C317,452.3,312.8,453.5,308.5,453.5z M488.4,434.3L393.2,349c-0.6-0.6-0.6-0.6-1.1-1.1
			c12.7-20.1,20.7-44.3,20.7-70.3c0-70.9-55.9-128.3-124.7-128.3s-124.7,57.6-124.7,128.3S219.5,406,288.3,406
			c25.5,0,49-8,68.6-21.3c0.6,0.6,0.6,0.6,1.1,1.1l83.1,98.1c13.3,13.9,34.6,13.9,47.9,0C501.8,470.4,501.8,448.1,488.4,434.3z
			 M287.8,361.9c-45.2,0-81.5-37.3-81.5-83.6s36.7-83.6,81.5-83.6c45.2,0,81.5,37.3,81.5,83.6C369.3,324,333,361.9,287.8,361.9z
			 M95.4,216.8c0,14.8,11.8,27.2,26.6,27.2h26.6c5.9-19.8,14.8-38.4,27.2-54.4H122C107.2,189.9,95.4,202,95.4,216.8z M281.3,214.2
			h-16c-49,22.4-42,64.4-42,64.4h58c16,0,28.7-14.4,28.7-32.5C309.6,228.6,296.9,214.2,281.3,214.2z"/>
	</g>
</g>
</svg>
