<?xml version="1.0" encoding="utf-8"?>
<!-- Generator: Adobe Illustrator 25.2.0, SVG Export Plug-In . SVG Version: 6.00 Build 0)  -->
<svg version="1.1" id="Layer_1" xmlns="http://www.w3.org/2000/svg" xmlns:xlink="http://www.w3.org/1999/xlink" x="0px" y="0px"
	 viewBox="0 0 277 277" style="enable-background:new 0 0 277 277;" xml:space="preserve">
<style type="text/css">
	.st0{fill:#FFFFFF;}
	.st1{fill-rule:evenodd;clip-rule:evenodd;fill:#F7A71C;}
	.st2{fill:#F7A71C;}
</style>
<g id="ReportingServices_1_">
	<polygon class="st0" points="263.35,17.27 254.48,11.56 21.54,11.56 12.68,20.43 12.68,254.16 18.37,261.76 192.45,261.76 
		263.35,171.81 	"/>
	<path class="st1" d="M87.76,180.57c0-25.77,9.03-47.7,27.11-65.8c17.96-18.08,39.88-27.13,65.76-27.13
		c25.5,0,47.36,9.04,65.57,27.13c18.2,18.1,27.3,40.03,27.3,65.8c0,25.66-9.1,47.52-27.3,65.61
		c-18.21,18.21-40.07,27.32-65.57,27.32c-25.88,0-47.8-9.11-65.76-27.32C96.79,228.09,87.76,206.22,87.76,180.57"/>
	<path class="st1" d="M273.5,180.57h-10.88V23.77c0-4.01-1.43-6.69-4.31-8.07c-0.99-0.5-2.15-0.88-3.47-1.12l-1.6-0.19H23.75
		c-4.07,0-6.75,1.4-8.06,4.21c-0.81,1.63-1.25,3.35-1.31,5.16v229.46c0,4,1.4,6.66,4.22,7.98c1.62,0.81,3.34,1.29,5.16,1.41h152.1
		l4.78,10.89H20.37c-2.81,0-5.62-0.69-8.43-2.07c-5.63-2.81-8.44-7.75-8.44-14.82V20.39c0-2.82,0.72-5.63,2.16-8.45
		C8.47,6.31,13.38,3.5,20.37,3.5h236.25l2.62,0.28c2.13,0.32,4.07,0.94,5.82,1.88c5.62,2.81,8.44,7.72,8.44,14.73V180.57z"/>
	<g>
		<path class="st2" d="M76.32,76.35c0,5.15-1.86,9.19-5.58,12.12s-8.85,4.4-15.4,4.4c-6.54,0-11.9-1.02-16.07-3.05v-8.95
			c2.64,1.24,5.44,2.22,8.41,2.93s5.73,1.07,8.29,1.07c3.75,0,6.51-0.71,8.29-2.14s2.67-3.34,2.67-5.74c0-2.16-0.82-4-2.45-5.5
			c-1.64-1.5-5.01-3.29-10.13-5.35c-5.28-2.14-9-4.58-11.16-7.33s-3.25-6.05-3.25-9.9c0-4.83,1.71-8.63,5.14-11.4
			s8.03-4.16,13.81-4.16c5.54,0,11.05,1.21,16.54,3.64l-3.01,7.72c-5.15-2.16-9.74-3.25-13.77-3.25c-3.06,0-5.38,0.67-6.96,2
			c-1.58,1.33-2.37,3.1-2.37,5.29c0,1.5,0.32,2.79,0.95,3.86s1.67,2.08,3.13,3.03c1.45,0.95,4.06,2.2,7.84,3.76
			c4.25,1.77,7.36,3.42,9.34,4.95s3.43,3.26,4.35,5.19C75.86,71.47,76.32,73.74,76.32,76.35z"/>
	</g>
	<g id="Symbol_5_">
		<path class="st0" d="M181.28,162.7c0,15.61-12.65,28.27-28.25,28.27s-28.25-12.66-28.25-28.27s12.65-28.27,28.25-28.27
			c1.13,0,0,0,0,0v28.27c0,0,0,0,25.54-12.44C180.08,152.73,181.28,156.65,181.28,162.7z"/>
		<path class="st0" d="M156.44,128.1v27.29l24.87-12.18C181.31,143.21,175.19,127.61,156.44,128.1z"/>
		<rect x="190.78" y="138.33" class="st0" width="43.59" height="1.95"/>
		<rect x="190.78" y="158.8" class="st0" width="43.59" height="1.95"/>
		<rect x="190.78" y="180.73" class="st0" width="43.59" height="1.95"/>
		<rect x="138.42" y="204.13" class="st0" width="95.95" height="1.95"/>
		<rect x="138.42" y="225.57" class="st0" width="95.95" height="1.95"/>
		<rect x="124.78" y="201.69" class="st0" width="8.52" height="8.77"/>
		<rect x="124.78" y="222.16" class="st0" width="8.52" height="8.77"/>
	</g>
</g>
</svg>
