<?xml version="1.0" encoding="utf-8"?>
<!-- Generator: Adobe Illustrator 25.2.0, SVG Export Plug-In . SVG Version: 6.00 Build 0)  -->
<svg version="1.1" id="Aspose.OMR" xmlns="http://www.w3.org/2000/svg" xmlns:xlink="http://www.w3.org/1999/xlink" x="0px" y="0px"
	 viewBox="0 0 277 277" style="enable-background:new 0 0 277 277;" xml:space="preserve">
<style type="text/css">
	.st0{fill-rule:evenodd;clip-rule:evenodd;fill:#FFFFFF;}
	.st1{fill-rule:evenodd;clip-rule:evenodd;fill:#DE4443;}
	.st2{fill:#DE4443;}
	.st3{fill-rule:evenodd;clip-rule:evenodd;fill:#FEFDFC;}
	.st4{fill-rule:evenodd;clip-rule:evenodd;fill:#FDFCFB;}
	.st5{fill-rule:evenodd;clip-rule:evenodd;fill:#FDFCFA;}
	.st6{fill-rule:evenodd;clip-rule:evenodd;fill:#F9F6F0;}
	.st7{fill-rule:evenodd;clip-rule:evenodd;fill:#FAF7F4;}
	.st8{fill-rule:evenodd;clip-rule:evenodd;fill:#F9F6F2;}
	.st9{fill-rule:evenodd;clip-rule:evenodd;fill:#FAF6F2;}
	.st10{fill-rule:evenodd;clip-rule:evenodd;fill:#FBF9F5;}
</style>
<g id="Java">
	<path id="XMLID_5_" class="st0" d="M180.46,87.48c-25.78,0-47.67,9.07-65.69,27.2c-18.12,18.02-27.18,39.93-27.18,65.72
		s9.06,47.65,27.18,65.56c6.65,6.78,13.85,12.3,21.61,16.56H23.59c-1.8-0.11-3.55-0.62-5.23-1.52c-2.81-1.35-4.22-4-4.22-7.94V23.62
		c0.22-2.03,0.67-3.77,1.35-5.24c1.46-2.82,4.17-4.22,8.1-4.22h229.47l1.52,0.34c1.35,0.23,2.53,0.56,3.55,1.01
		c2.93,1.35,4.39,4.05,4.39,8.11v112.87c-4.26-7.79-9.77-15.06-16.55-21.79C227.74,96.55,205.9,87.48,180.46,87.48z"/>
	<g>
		<path id="XMLID_1_" class="st1" d="M180.46,87.48c25.44,0,47.28,9.07,65.51,27.2c6.78,6.74,12.29,14,16.55,21.79V23.62
			c0-4.06-1.46-6.76-4.39-8.11c-1.01-0.45-2.2-0.79-3.55-1.01l-1.52-0.34H23.59c-3.94,0-6.64,1.41-8.1,4.22
			c-0.68,1.46-1.13,3.21-1.35,5.24v229.45c0,3.94,1.41,6.59,4.22,7.94c1.69,0.9,3.43,1.41,5.23,1.52h112.79
			c-7.76-4.26-14.96-9.78-21.61-16.56c-18.12-17.91-27.18-39.76-27.18-65.56s9.06-47.7,27.18-65.72
			C132.78,96.55,154.68,87.48,180.46,87.48z M259.14,3.68c2.48,0.45,4.39,1.07,5.74,1.86c5.63,2.7,8.44,7.6,8.44,14.7v160.18
			c0,25.68-9.12,47.54-27.36,65.56c-18.23,18.25-40.07,27.37-65.51,27.37H20.21c-2.7,0-5.52-0.67-8.44-2.03
			c-5.63-2.93-8.44-7.88-8.44-14.87V20.24c0-2.82,0.73-5.63,2.19-8.45c2.7-5.63,7.6-8.45,14.69-8.45h236.23L259.14,3.68z"/>
		<g>
			<path class="st2" d="M116.08,88.27h-6.34V69.95c0-2.27-0.43-3.97-1.29-5.09c-0.86-1.12-2.2-1.68-4.03-1.68
				c-2.43,0-4.22,0.79-5.36,2.38c-1.14,1.58-1.71,4.22-1.71,7.91v14.8h-6.31v-29.7h4.94l0.89,3.89h0.32
				c0.82-1.41,2.02-2.51,3.58-3.28c1.57-0.77,3.29-1.15,5.17-1.15c4.57,0,7.59,1.56,9.08,4.67h0.43c0.88-1.47,2.11-2.61,3.71-3.44
				c1.59-0.82,3.42-1.24,5.48-1.24c3.54,0,6.13,0.9,7.75,2.69c1.62,1.79,2.43,4.52,2.43,8.19v19.36h-6.31V69.95
				c0-2.27-0.43-3.97-1.3-5.09c-0.87-1.12-2.22-1.68-4.04-1.68c-2.45,0-4.25,0.77-5.38,2.3c-1.14,1.53-1.71,3.88-1.71,7.05V88.27z"
				/>
			<path class="st2" d="M154.58,58.03c1.27,0,2.32,0.09,3.14,0.27l-0.62,5.88c-0.89-0.21-1.83-0.32-2.79-0.32
				c-2.52,0-4.57,0.82-6.14,2.47c-1.57,1.65-2.35,3.79-2.35,6.42v15.52h-6.31v-29.7h4.94l0.83,5.24h0.32
				c0.99-1.77,2.27-3.18,3.85-4.22C151.04,58.55,152.75,58.03,154.58,58.03z"/>
		</g>
		<g>
			<path class="st2" d="M86.24,66.92c0,9.53-2.38,16.94-7.15,22.22c-4.76,5.29-11.51,7.93-20.24,7.93c-8.84,0-15.62-2.62-20.36-7.87
				s-7.11-12.7-7.11-22.36c0-9.66,2.38-17.08,7.15-22.26c4.76-5.18,11.56-7.77,20.4-7.77c8.7,0,15.43,2.63,20.18,7.89
				C83.86,49.96,86.24,57.37,86.24,66.92z M41.55,66.92c0,7.21,1.45,12.67,4.36,16.4c2.91,3.72,7.22,5.59,12.93,5.59
				c5.69,0,9.98-1.84,12.87-5.53s4.34-9.17,4.34-16.46c0-7.18-1.44-12.63-4.3-16.34c-2.87-3.71-7.15-5.57-12.83-5.57
				c-5.74,0-10.07,1.86-12.99,5.57C43.02,54.3,41.55,59.74,41.55,66.92z"/>
		</g>
	</g>
	<g>
		<path class="st3" d="M193.42,173.04c-14.65,7.14-30.73,4.71-41.11-6.19c-16.64-17.48-10.64-45.79,10.91-54.98
			c18.45-7.87,39.9,1.05,46.27,21.13c2.72,8.58,1.97,17.14-2.1,25.27c-0.69,1.37-0.78,2.17,0.49,3.34
			c5.76,5.27,11.44,10.63,17.04,16.07c3.83,3.72,3.94,9.42,0.47,13.23c-3.38,3.71-8.97,4.19-13,0.65
			c-6.06-5.33-11.86-10.94-17.73-16.49C194.04,174.47,193.73,173.56,193.42,173.04z M200.14,144.01
			c0.85-12.64-10.71-24.4-24.36-23.91c-11.81,0.42-22.18,10.65-22.77,22.21c-0.77,15.11,11.67,24.71,22.37,25.24
			C189.36,168.24,200.92,156.11,200.14,144.01z"/>
		<path class="st4" d="M181.75,220.15c-4.43-0.03-7.17-2.91-7.15-7.5c0.02-4.44,2.97-7.06,7.89-7.01c3.79,0.04,6.54,3.21,6.78,7.22
			C189.49,216.37,185.83,220.83,181.75,220.15z"/>
		<path class="st4" d="M162.48,225.15c4.16,0.01,7.27,2.97,7.3,6.93c0.03,4.51-2.99,7.55-7.49,7.55c-4.3,0-7.09-2.85-7.09-7.22
			C155.2,227.88,157.96,225.13,162.48,225.15z"/>
		<path class="st5" d="M135.69,193.47c0-4.59,2.7-7.02,7.26-7.38c3.8-0.3,7.47,3.71,7.34,7.26c-0.15,4.2-3.06,7.29-7.21,7.3
			C138.5,200.66,135.69,197.93,135.69,193.47z"/>
		<path class="st6" d="M181.8,239.65c-4.41-0.02-7.32-3-7.27-7.41c0.06-4.4,2.98-7.19,7.52-7.18c4.25,0.01,7.2,3.13,7.16,7.56
			C189.16,236.8,186.12,239.67,181.8,239.65z M177.78,232.4c0,2.39,1.68,4.2,3.97,4.27c2.25,0.07,4.34-2.02,4.33-4.32
			c-0.01-2.2-1.95-4.2-4.12-4.26C179.58,228.03,177.78,229.89,177.78,232.4z"/>
		<path class="st7" d="M162.28,220.15c-4.25-0.01-7.22-2.96-7.27-7.21c-0.05-4.38,2.93-7.3,7.45-7.3c4.12,0,7.31,3.03,7.32,6.95
			C169.79,217.15,166.81,220.15,162.28,220.15z M162.42,208.58c-2.24-0.06-4.09,1.76-4.15,4.1c-0.07,2.52,1.69,4.49,4.02,4.49
			c2.22,0.01,4.18-1.87,4.29-4.11C166.71,210.77,164.73,208.65,162.42,208.58z"/>
		<path class="st7" d="M220.7,220.15c-4.26-0.01-7.17-2.97-7.17-7.28c0-4.25,2.87-7.24,6.93-7.23c4.76,0.01,7.7,2.85,7.84,7.27
			C228.42,216.43,224.83,220.85,220.7,220.15z M220.9,208.58c-2.22-0.06-4.07,1.79-4.12,4.13c-0.06,2.58,1.62,4.44,4.03,4.46
			c2.22,0.02,4.16-1.86,4.26-4.11C225.17,210.77,223.19,208.64,220.9,208.58z"/>
		<path class="st8" d="M142.77,239.65c-4.26-0.01-7.25-3.01-7.23-7.25c0.01-4.45,2.95-7.33,7.44-7.32c4.22,0.01,7.16,3.05,7.32,7.27
			C150.44,235.96,146.96,240.25,142.77,239.65z M142.82,228.1c-2.36,0.03-4.15,1.99-4.08,4.47c0.06,2.27,1.97,4.15,4.19,4.14
			c2.25-0.01,4.28-2.19,4.18-4.51C147.01,230.02,144.97,228.07,142.82,228.1z"/>
		<path class="st9" d="M201.25,239.66c-4.28-0.02-7.22-2.98-7.2-7.26c0.02-4.49,2.88-7.3,7.42-7.3c4.31,0,7.28,3.14,7.31,7.53
			C208.81,236.48,204.91,240.33,201.25,239.66z M205.61,232.28c-0.04-2.27-2.2-4.29-4.47-4.19c-2.23,0.1-3.96,2.03-3.92,4.38
			c0.03,2.35,1.81,4.17,4.1,4.17C203.61,236.66,205.65,234.59,205.61,232.28z"/>
		<path class="st7" d="M201.37,220.16c-4.42,0-7.23-2.91-7.37-7.32c-0.12-3.9,3.12-7.54,7.73-7.27c3.97,0.24,7.03,3.18,7.03,7.24
			C208.76,217.15,205.74,220.15,201.37,220.16z M197.21,212.92c0.02,2.38,1.75,4.2,4.03,4.24c2.36,0.04,4.34-1.91,4.34-4.29
			c0-2.28-2.12-4.34-4.38-4.27C199,208.67,197.19,210.62,197.21,212.92z"/>
		<path class="st7" d="M142.88,205.6c4.31,0.02,7.24,3.03,7.43,7.16c0.16,3.51-3.36,7.87-7.73,7.46c-4.07-0.38-7.03-3.08-7.05-7.23
			C135.53,208.5,138.42,205.58,142.88,205.6z M138.74,212.84c-0.02,2.49,1.81,4.35,4.22,4.31c2.23-0.04,4.1-1.96,4.14-4.23
			c0.03-2.33-1.99-4.36-4.31-4.31C140.55,208.64,138.75,210.52,138.74,212.84z"/>
		<path class="st10" d="M162.25,200.67c-4.26-0.01-7.23-3-7.22-7.26c0.01-4.25,2.87-7.25,6.93-7.26c4.77-0.01,7.79,2.79,7.83,7.24
			C169.82,197.62,166.66,200.68,162.25,200.67z M158.27,193.45c0.02,2.37,1.8,4.27,4.01,4.29c2.24,0.02,4.38-2.15,4.32-4.4
			c-0.06-2.18-2.05-4.21-4.18-4.27C160.09,189.01,158.25,190.96,158.27,193.45z"/>
		<path class="st10" d="M181.73,200.68c-4.26-0.02-7.22-3.01-7.2-7.27c0.02-4.6,2.91-7.33,7.7-7.28c4.04,0.04,6.98,3.1,6.96,7.26
			C189.18,197.77,186.18,200.7,181.73,200.68z M177.78,193.44c0.02,2.35,1.79,4.27,4,4.33c2.19,0.05,4.37-2.17,4.32-4.4
			c-0.05-2.21-2.01-4.24-4.14-4.29C179.59,189.01,177.76,190.93,177.78,193.44z"/>
	</g>
</g>
<g>
</g>
<g>
</g>
<g>
</g>
<g>
</g>
<g>
</g>
<g>
</g>
</svg>
