<svg version="1.1" id="Layer_1" xmlns="http://www.w3.org/2000/svg" x="0" y="0" viewBox="0 0 280 200" style="enable-background:new 0 0 280 200" xml:space="preserve"><style>.st0{fill:#c1c1c1}.st1{fill:#fff}.st2{fill:#eaeaea}.st6{fill:#b5b5b5}</style><g id="Base"><g id="Lines"><path class="st0" d="M176.27 51.09h11.08M176.27 50.59h11.08v1h-11.08zM176.36 167.3h11.04M176.36 166.8h11.04v1h-11.04zM195.36 49.01v4.54M194.86 49.01h1v4.55h-1zM195.36 58.86v21.83M194.86 58.86h1V80.7h-1zM200.76 129.87v39.64M200.26 129.87h1v39.64h-1zM187.4 130.24h13.86"/><path class="st0" d="M187.4 129.74h13.86v1H187.4zM200.76 174.84v6.04M200.26 174.84h1v6.04h-1zM263.85 59.65v4.54M263.35 59.65h1v4.55h-1zM263.85 80.74v4.55M263.35 80.74h1v4.55h-1zM263.85 90.85v29.26M263.35 90.85h1v29.26h-1zM208.34 109.32H187.4M187.4 108.82h20.94v1H187.4zM206.32 88.29H187.4M187.4 87.79h18.92v1H187.4z"/><g><path class="st0" d="M205.87 61.76v27.03M205.37 61.76h1v27.02h-1z"/></g><g><path class="st0" d="M229.27 162.12h-20.93M208.34 161.62h20.94v1h-20.94z"/></g><g><path class="st0" d="M242.82 120.69v65.12M242.32 120.69h1v65.12h-1z"/></g><g><path class="st0" d="M227.16 61.27v16.35M226.66 61.27h1v16.35h-1z"/></g><g><path class="st0" d="M253.62 57.58v4.55M253.12 57.58h1v4.55h-1z"/></g><g><path class="st0" d="M263.85 149.17v4.55M263.35 149.17h1v4.55h-1z"/></g><g><path class="st0" d="M205.38 61.74h13.81M205.38 61.24h13.81v1h-13.81z"/></g><g><path class="st0" d="M227.16 61.76h26.97M227.16 61.26h26.97v1h-26.97z"/></g><g><path class="st0" d="M216.39 74.79v5.19M215.89 74.79h1v5.19h-1z"/></g><g><path class="st0" d="M187.4 98.65h26.97M187.4 98.15h26.97v1H187.4z"/></g><g><path class="st0" d="M187.4 119.6h76.45M187.4 119.1h76.45v1H187.4z"/></g><g><path class="st0" d="M216.48 127.86v53.02M215.98 127.86h1v53.02h-1z"/></g></g><g id="Left_Right_Boxes"><path class="st1" d="m111.64 177.26-95.99-8.25V44.69h95.99z"/><path class="st2" d="m176.56 168.01-58.29 9.25V44.69h58.29z"/></g><g id="Platform_Icons"><circle cx="237.65" cy="157.08" r="25" style="fill:#ea531a"/><path class="st1" d="M224.34 154.39a2.69 2.69 0 0 0-2.69 2.69c0 1.48 1.2 2.68 2.69 2.68 1.48 0 2.68-1.2 2.68-2.68 0-1.48-1.2-2.69-2.68-2.69zm19.17 12.21a2.69 2.69 0 0 0-.98 3.67 2.69 2.69 0 0 0 3.67.98 2.69 2.69 0 0 0 .98-3.67 2.692 2.692 0 0 0-3.67-.98zm-13.34-9.52c0-2.65 1.32-5 3.33-6.42l-1.96-3.29c-2.35 1.57-4.1 3.97-4.82 6.78.85.69 1.39 1.74 1.39 2.92s-.54 2.23-1.39 2.92c.73 2.81 2.47 5.21 4.82 6.78l1.96-3.29a7.792 7.792 0 0 1-3.33-6.4zm7.84-7.84c4.1 0 7.46 3.14 7.81 7.15l3.83-.06c-.19-2.96-1.48-5.61-3.47-7.57a3.777 3.777 0 0 1-5.06-2.92c-.99-.27-2.04-.42-3.12-.42-1.86 0-3.61.44-5.17 1.21l1.87 3.34c1.01-.47 2.13-.73 3.31-.73zm0 15.68c-1.18 0-2.3-.26-3.3-.73l-1.87 3.34c1.56.77 3.31 1.21 5.17 1.21 1.08 0 2.12-.15 3.12-.42a3.777 3.777 0 0 1 5.06-2.92 11.62 11.62 0 0 0 3.47-7.57l-3.83-.06c-.36 4.01-3.72 7.15-7.82 7.15zm5.5-17.36c1.28.74 2.93.3 3.67-.98.74-1.28.3-2.93-.98-3.67-1.28-.74-2.93-.3-3.67.98a2.69 2.69 0 0 0 .98 3.67z" id="Ubuntu_Icon"/><circle cx="237.89" cy="98.1" r="25" style="fill:#444"/><path class="st1" d="M244.21 98.6c.04 4.09 3.58 5.45 3.62 5.46-.03.1-.57 1.94-1.87 3.84-1.13 1.64-2.29 3.28-4.13 3.32-1.81.03-2.39-1.07-4.46-1.07s-2.71 1.04-4.42 1.11c-1.78.07-3.13-1.78-4.26-3.42-2.32-3.35-4.09-9.47-1.71-13.6 1.18-2.05 3.29-3.35 5.59-3.38 1.74-.03 3.39 1.17 4.46 1.17 1.07 0 3.07-1.45 5.17-1.24.88.04 3.35.36 4.94 2.68-.14.07-2.96 1.71-2.93 5.13m-3.39-10.03c.94-1.14 1.58-2.73 1.4-4.31-1.36.05-3 .91-3.98 2.05-.87 1.01-1.64 2.63-1.43 4.18 1.51.11 3.06-.78 4.01-1.92" id="Apple_Icon"/><g><circle cx="237.71" cy="39.19" r="25" style="fill:#0079d8"/><path class="st1" d="M250.15 40.64v12.01c0 .03-.01.05-.01.07-.04.3-.31.51-.61.47l-11.93-1.58a.54.54 0 0 1-.52-.54V40.62h.01c0-.3.24-.55.54-.55l11.93.02h.05c.3 0 .54.25.54.55zm-14.35-.02v10.22c-.04.3-.31.51-.61.47l-11.24-1.4a.551.551 0 0 1-.5-.54v-8.73c0-.3.24-.54.55-.54l11.21-.03h.05c.29 0 .54.24.54.55zm0-12.32v9.96c0 .3-.24.54-.54.54h-11.32c-.3 0-.55-.24-.55-.54v-8.53c0-.27.21-.51.48-.54l11.27-1.42c.04-.01.08-.01.12-.01.29-.01.54.23.54.54zm13.8 10.5h-11.97c-.3 0-.55-.24-.55-.54V28.01h.01c0-.27.2-.5.47-.54l11.93-1.56c.04-.01.08-.01.12-.01.3 0 .55.24.55.55v11.81c-.01.29-.25.54-.56.54z" id="Windows_Icon"/></g></g></g><g id="Aspose.Drawing"><path class="st6" d="M72.79 106.42c0 8.13-2.31 14.35-6.94 18.67-4.62 4.32-11.3 6.48-20.04 6.48H31.83V82.22h15.5c8.06 0 14.31 2.13 18.77 6.38 4.46 4.25 6.69 10.2 6.69 17.82zm-10.87.27c0-10.6-4.68-15.9-14.04-15.9H42.3v32.14h4.49c10.08 0 15.13-5.41 15.13-16.24zM92.03 131.24l-1.35-6.16-1.83-7.78h-.11l-3.21 13.94h-5.17l-5.01-17.61h4.79l2.03 7.8c.33 1.4.66 3.32.99 5.78h.09c.04-.8.23-2.06.55-3.8l.25-1.34 2.17-8.44h5.29l2.06 8.44c.04.23.11.57.2 1.02.09.45.18.93.26 1.44.08.51.16 1.01.23 1.5s.11.88.12 1.17h.09c.09-.76.26-1.79.5-3.11.24-1.32.41-2.21.52-2.67l2.11-7.8h4.71l-5.07 17.61h-5.21z"/><g id="Drawing"><path class="st2" d="M170.46 112.78c0 12-9.73 21.72-21.72 21.72-12 0-21.72-9.73-21.72-21.72 0-12 9.73-21.72 21.72-21.72 12 0 21.72 9.73 21.72 21.72z"/><path class="st6" d="M148.74 135.27c-12.4 0-22.49-10.09-22.49-22.49 0-12.4 10.09-22.49 22.49-22.49 12.4 0 22.49 10.09 22.49 22.49 0 12.41-10.09 22.49-22.49 22.49zm0-43.44c-11.56 0-20.96 9.4-20.96 20.96s9.4 20.96 20.96 20.96 20.96-9.4 20.96-20.96-9.4-20.96-20.96-20.96z"/><g id="Scale"><path transform="rotate(-45.001 143.166 115.204)" class="st6" d="M123.14 109.63h40.06v11.14h-40.06z"/><path transform="rotate(-45.001 152.622 99.791)" class="st2" d="M152.18 98.43h.92v2.73h-.92z"/><path transform="rotate(-45.001 151.766 101.807)" class="st2" d="M151.31 99.63h.92v4.35h-.92z"/><path transform="rotate(-45.001 149.74 102.674)" class="st2" d="M149.29 101.31h.92v2.73h-.92z"/><path transform="rotate(-45.001 148.883 104.69)" class="st2" d="M148.42 102.51h.92v4.35h-.92z"/><path transform="rotate(-45.004 146.86 105.55)" class="st2" d="M146.41 104.19h.92v2.73h-.92z"/><path transform="rotate(-44.996 145.99 107.564)" class="st2" d="M145.54 105.4h.92v4.35h-.92z"/><path transform="rotate(-45.009 143.981 108.442)" class="st2" d="M143.53 107.08h.92v2.73h-.92z"/><path transform="rotate(-45.001 143.116 110.456)" class="st2" d="M142.66 108.28h.92v4.35h-.92z"/><path transform="rotate(-45.001 141.09 111.323)" class="st2" d="M140.64 109.96h.92v2.73h-.92z"/><path transform="rotate(-45.001 140.233 113.34)" class="st2" d="M139.77 111.16h.92v4.35h-.92z"/><g><path transform="rotate(-45.017 138.208 114.206)" class="st2" d="M137.76 112.84h.92v2.73h-.92z"/><path transform="rotate(-45.001 137.35 116.223)" class="st2" d="M136.89 114.05h.92v4.35h-.92z"/></g><g><path transform="rotate(-45.001 135.324 117.089)" class="st2" d="M134.88 115.72h.92v2.73h-.92z"/><path transform="rotate(-45.001 134.466 119.106)" class="st2" d="M134.01 116.93h.92v4.35h-.92z"/></g><g><path transform="rotate(-45.001 132.453 119.976)" class="st2" d="M131.99 118.61h.92v2.73h-.92z"/><path transform="rotate(-45.001 131.587 121.99)" class="st2" d="M131.12 119.81h.92v4.35h-.92z"/></g><g><path transform="rotate(-44.992 129.568 122.859)" class="st2" d="M129.11 121.49h.92v2.73h-.92z"/><path transform="rotate(-45.001 128.704 124.874)" class="st2" d="M128.24 122.7h.92v4.35h-.92z"/></g></g><path class="st6" d="M146 88.02h5.33v5.33H146zM167.67 110.11H173v5.33h-5.33zM124.33 110.11h5.33v5.33h-5.33z"/><path class="st6" d="M132.03 90.24h33.39v.78h-33.39z"/><path class="st6" d="M134.95 90.68a2.67 2.67 0 1 1-2.67-2.67c1.47.01 2.67 1.2 2.67 2.67zM168.09 90.68a2.67 2.67 0 1 1-2.67-2.67c1.47.01 2.67 1.2 2.67 2.67z"/><g id="Pen"><path class="st6" d="M152.65 134.69v-4.49l-2.27-5.23-1.59-3.68-1.64 3.68-2.32 5.23v4.49z"/><path class="st6" d="m146.22 127.82 2.56-5.77 2.5 5.77z"/><path class="st6" d="m148.78 122.81 2.04 4.71h-4.13l2.09-4.71m.01-1.52-3.04 6.84h6l-2.96-6.84zM150.51 134.84v-4.01M148.73 134.84v-4.01M146.94 134.84v-4.01"/></g></g></g></svg>