<svg version="1.1" id="Layer_1" xmlns="http://www.w3.org/2000/svg" x="0" y="0" viewBox="0 0 280 200" style="enable-background:new 0 0 280 200" xml:space="preserve"><style>.st0{fill:#c1c1c1;stroke:#c1c1c1;stroke-miterlimit:10}.st1{fill:#fff}.st6{fill:#b5b5b5}</style><g id="Aspose.PSD_1_"><g id="Base"><g id="Lines"><path class="st0" d="M176.52 51.09h11.08M176.61 167.3h11.04M195.61 49.01v4.54M195.61 58.86v21.83M201.01 129.88v39.63M187.65 130.24h13.86M201.01 174.84v6.04M264.1 59.65v4.54M264.1 80.74v4.55M264.1 90.85v29.26M208.59 109.32h-20.94M206.57 88.29h-18.92M206.12 61.76v27.03M229.52 162.12h-20.93M243.07 120.69v65.12M227.41 61.27v16.35M253.87 57.58v4.55M264.1 149.17v4.55M205.63 61.74h13.81M227.41 61.76h26.97M216.64 74.79v5.19M187.65 98.65h26.97M187.65 119.6h76.45M216.73 127.86v53.02"/></g><g id="Left_Right_Boxes"><path class="st1" d="m111.88 177.27-95.98-8.26V44.69h95.98z"/><path style="fill:#eaeaea" d="m176.81 168.01-58.29 9.26V44.69h58.29z"/></g><g id="Platform_Icons"><circle cx="237.9" cy="157.08" r="25" style="fill:#ea531a"/><path id="Ubuntu_Icon" class="st1" d="M224.59 154.39a2.69 2.69 0 0 0-2.69 2.69c0 1.48 1.2 2.68 2.69 2.68 1.48 0 2.68-1.2 2.68-2.68 0-1.48-1.2-2.69-2.68-2.69zm19.17 12.21a2.69 2.69 0 0 0-.98 3.67 2.69 2.69 0 0 0 3.67.98 2.69 2.69 0 0 0 .98-3.67 2.692 2.692 0 0 0-3.67-.98zm-13.34-9.52c0-2.65 1.32-5 3.33-6.42l-1.96-3.29c-2.35 1.57-4.1 3.97-4.82 6.78.85.69 1.39 1.74 1.39 2.92s-.54 2.23-1.39 2.92c.73 2.81 2.47 5.21 4.82 6.78l1.96-3.29a7.792 7.792 0 0 1-3.33-6.4zm7.84-7.84c4.1 0 7.46 3.14 7.81 7.15l3.83-.06c-.19-2.96-1.48-5.61-3.47-7.57a3.777 3.777 0 0 1-5.06-2.92c-.99-.27-2.04-.42-3.12-.42-1.86 0-3.61.44-5.17 1.21l1.87 3.34c1.01-.47 2.13-.73 3.31-.73zm0 15.68c-1.18 0-2.3-.26-3.3-.73l-1.87 3.34c1.56.77 3.31 1.21 5.17 1.21 1.08 0 2.12-.15 3.12-.42a3.777 3.777 0 0 1 5.06-2.92 11.62 11.62 0 0 0 3.47-7.57l-3.83-.06c-.36 4.01-3.72 7.15-7.82 7.15zm5.5-17.36c1.28.74 2.93.3 3.67-.98.74-1.28.3-2.93-.98-3.67-1.28-.74-2.93-.3-3.67.98a2.69 2.69 0 0 0 .98 3.67z"/><circle cx="238.14" cy="98.1" r="25" style="fill:#444"/><path class="st1" d="M244.46 98.6c.04 4.09 3.58 5.45 3.62 5.46-.03.1-.57 1.94-1.87 3.84-1.13 1.64-2.29 3.28-4.13 3.32-1.81.03-2.39-1.07-4.46-1.07s-2.71 1.04-4.42 1.11c-1.78.07-3.13-1.78-4.26-3.42-2.32-3.35-4.09-9.47-1.71-13.6 1.18-2.05 3.29-3.35 5.59-3.38 1.74-.03 3.39 1.17 4.46 1.17 1.07 0 3.07-1.45 5.17-1.24.88.04 3.35.36 4.94 2.68-.14.07-2.96 1.71-2.93 5.13m-3.4-10.03c.94-1.14 1.58-2.73 1.4-4.31-1.36.05-3 .91-3.98 2.05-.87 1.01-1.64 2.63-1.43 4.18 1.52.11 3.07-.78 4.01-1.92" id="Apple_Icon"/><g><circle cx="237.96" cy="39.19" r="25" style="fill:#0079d8"/><path id="Windows_Icon" class="st1" d="M250.4 40.64v12.01c0 .03-.01.05-.01.07-.04.3-.31.51-.61.47l-11.93-1.58a.54.54 0 0 1-.52-.54V40.62h.01c0-.3.24-.55.54-.55l11.93.02h.05c.3 0 .54.25.54.55zm-14.35-.02v10.22c-.04.3-.31.51-.61.47l-11.24-1.4a.551.551 0 0 1-.5-.54v-8.73c0-.3.24-.54.55-.54l11.21-.03h.05c.29 0 .54.24.54.55zm0-12.32v9.96c0 .3-.24.54-.54.54h-11.32c-.3 0-.55-.24-.55-.54v-8.53c0-.27.21-.51.48-.54l11.27-1.42c.04-.01.08-.01.12-.01.29-.01.54.24.54.54zm13.8 10.5h-11.97c-.3 0-.55-.24-.55-.54V28.01h.01c0-.27.2-.5.47-.54l11.93-1.56c.04-.01.08-.01.12-.01.3 0 .55.24.55.55v11.81c-.01.29-.25.54-.56.54z"/></g></g></g><g id="Aspose.PSD"><path class="st6" d="M63.89 100.95c0 5.34-1.67 9.42-5 12.25-3.34 2.83-8.08 4.24-14.23 4.24h-4.51v17.64H29.63v-49.6h15.84c6.02 0 10.59 1.3 13.72 3.88 3.14 2.6 4.7 6.46 4.7 11.59zm-23.75 7.87h3.46c3.23 0 5.65-.64 7.26-1.92 1.61-1.28 2.41-3.14 2.41-5.58 0-2.46-.67-4.29-2.02-5.46-1.35-1.18-3.46-1.76-6.33-1.76h-4.78v14.72zM78.16 128.36c0 2.08-.75 3.72-2.25 4.92-1.5 1.2-3.59 1.8-6.26 1.8-2.46 0-4.64-.46-6.53-1.39v-4.55c1.56.69 2.87 1.18 3.95 1.47 1.08.28 2.06.43 2.96.43 1.07 0 1.9-.21 2.47-.62.57-.41.86-1.02.86-1.83 0-.45-.13-.85-.38-1.21-.25-.35-.62-.69-1.11-1.02-.49-.33-1.49-.85-2.99-1.56-1.41-.66-2.47-1.3-3.17-1.91a7.077 7.077 0 0 1-1.69-2.13c-.42-.81-.63-1.76-.63-2.84 0-2.04.69-3.65 2.08-4.81 1.38-1.17 3.3-1.75 5.74-1.75 1.2 0 2.34.14 3.43.43 1.09.28 2.23.68 3.42 1.2l-1.58 3.8c-1.23-.51-2.25-.86-3.05-1.06-.8-.2-1.6-.3-2.38-.3-.93 0-1.64.22-2.13.65-.49.43-.74.99-.74 1.69 0 .43.1.81.3 1.13.2.32.52.63.95.93.44.3 1.47.84 3.1 1.62 2.16 1.03 3.64 2.07 4.43 3.1.8 1.03 1.2 2.3 1.2 3.81zM100.48 123c0 3.8-1.08 6.71-3.24 8.73-2.16 2.02-5.28 3.03-9.37 3.03h-6.53v-23.07h7.24c3.77 0 6.69.99 8.78 2.98 2.08 1.99 3.12 4.77 3.12 8.33zm-5.08.13c0-4.96-2.19-7.43-6.57-7.43h-2.6v15.03h2.1c4.71-.01 7.07-2.54 7.07-7.6z"/><g id="PSD"><path class="st6" d="m133.42 126.07 6.49-7.62 5.91 5.18 7.76-13.27 9.01 15.61zM145.82 104.83c-1.41.15 13.76-16.47 14.68-17.3.92-.82 1.69-1.71.3 1.65-1.4 3.36-9.15 16.8-10.9 17.24-2.16.54-.66-1.95-4.08-1.59zM146.25 106.54c-1.82-.81-3.46-.22-5.4 2.87-1.94 3.09-2.15 3.11-3.21 3.74-1.07.64-.18.73.35.81.53.09 7.85.99 9.21-2.58 1.38-3.56-.12-4.47-.95-4.84zM133.52 103.89h-8.98V94.9h8.98v8.99zm-7.09-1.88h5.21v-5.22h-5.21v5.22z"/><path class="st6" d="M133.52 129.83h-8.98v-8.99h8.98v8.99zm-7.09-1.89h5.21v-5.22h-5.21v5.22zM171.87 103.89h-8.98V94.9h8.98v8.99zm-7.09-1.88h5.21v-5.22h-5.21v5.22zM171.87 129.83h-8.98v-8.99h8.98v8.99zm-7.09-1.89h5.21v-5.22h-5.21v5.22zM136.46 129.16h23.51v2.11h-23.51zM139.23 132.92h17.95v2.25h-17.95zM127.69 103.89h2.26v16.95h-2.26zM166.26 103.89h2.26v16.95h-2.26z"/><path transform="rotate(90 147.997 126.38)" class="st6" d="M146.87 111.11h2.26v30.55h-2.26z"/><path class="st6" d="M133.19 100.86V98.6h15.77l-1.87 2.26zM163.11 98.6v2.26h-7.58l1.23-2.26z"/></g></g></g></svg>