<svg version="1.1" id="Layer_1" xmlns="http://www.w3.org/2000/svg" x="0" y="0" viewBox="0 0 280 200" style="enable-background:new 0 0 280 200" xml:space="preserve"><style>.st0{fill:none;stroke:#c1c1c1;stroke-miterlimit:10}.st1{fill:#fff}.st6{fill:#b5b5b5}</style><g id="Base"><g id="Lines"><path class="st0" d="M176.52 51.09h11.08M176.61 167.3h11.04M195.61 49.01v4.54M195.61 58.86v21.83M201.01 129.88v39.63M187.65 130.24h13.86M201.01 174.84v6.04M264.1 59.65v4.54M264.1 80.74v4.55M264.1 90.85v29.26M208.59 109.32h-20.94M206.57 88.29h-18.92M206.12 61.76v27.03M229.52 162.12h-20.93M243.07 120.69v65.12M227.41 61.27v16.35M253.87 57.58v4.55M264.1 149.17v4.55M205.63 61.74h13.81M227.41 61.76h26.97M216.64 74.79v5.19M187.65 98.65h26.97M187.65 119.6h76.45M216.73 127.86v53.02"/></g><g id="Left_Right_Boxes"><path class="st1" d="m111.88 177.27-95.98-8.26V44.69h95.98z"/><path style="fill:#eaeaea" d="m176.81 168.01-58.29 9.26V44.69h58.29z"/></g><g id="Platform_Icons"><circle cx="237.9" cy="157.08" r="25" style="fill:#ea531a"/><path id="Ubuntu_Icon" class="st1" d="M224.59 154.39a2.69 2.69 0 0 0-2.69 2.69c0 1.48 1.2 2.68 2.69 2.68 1.48 0 2.68-1.2 2.68-2.68 0-1.48-1.2-2.69-2.68-2.69zm19.17 12.21a2.69 2.69 0 0 0-.98 3.67 2.69 2.69 0 0 0 3.67.98 2.69 2.69 0 0 0 .98-3.67 2.692 2.692 0 0 0-3.67-.98zm-13.34-9.52c0-2.65 1.32-5 3.33-6.42l-1.96-3.29c-2.35 1.57-4.1 3.97-4.82 6.78.85.69 1.39 1.74 1.39 2.92s-.54 2.23-1.39 2.92c.73 2.81 2.47 5.21 4.82 6.78l1.96-3.29a7.792 7.792 0 0 1-3.33-6.4zm7.84-7.84c4.1 0 7.46 3.14 7.81 7.15l3.83-.06c-.19-2.96-1.48-5.61-3.47-7.57a3.777 3.777 0 0 1-5.06-2.92c-.99-.27-2.04-.42-3.12-.42-1.86 0-3.61.44-5.17 1.21l1.87 3.34c1.01-.47 2.13-.73 3.31-.73zm0 15.68c-1.18 0-2.3-.26-3.3-.73l-1.87 3.34c1.56.77 3.31 1.21 5.17 1.21 1.08 0 2.12-.15 3.12-.42a3.777 3.777 0 0 1 5.06-2.92 11.62 11.62 0 0 0 3.47-7.57l-3.83-.06c-.36 4.01-3.72 7.15-7.82 7.15zm5.5-17.36c1.28.74 2.93.3 3.67-.98s.3-2.93-.98-3.67-2.93-.3-3.67.98a2.69 2.69 0 0 0 .98 3.67z"/><circle transform="rotate(-80.781 238.142 98.096)" cx="238.14" cy="98.1" style="fill:#444" r="25"/><path class="st1" d="M244.46 98.6c.04 4.09 3.58 5.45 3.62 5.46-.03.1-.57 1.94-1.87 3.84-1.13 1.64-2.29 3.28-4.13 3.32-1.81.03-2.39-1.07-4.46-1.07s-2.71 1.04-4.42 1.11c-1.78.07-3.13-1.78-4.26-3.42-2.32-3.35-4.09-9.47-1.71-13.6 1.18-2.05 3.29-3.35 5.59-3.38 1.74-.03 3.39 1.17 4.46 1.17s3.07-1.45 5.17-1.24c.88.04 3.35.36 4.94 2.68-.14.07-2.96 1.71-2.93 5.13m-3.4-10.03c.94-1.14 1.58-2.73 1.4-4.31-1.36.05-3 .91-3.98 2.05-.87 1.01-1.64 2.63-1.43 4.18 1.52.11 3.07-.78 4.01-1.92" id="Apple_Icon"/><g><circle transform="rotate(-78.018 237.963 39.191)" cx="237.96" cy="39.19" style="fill:#0079d8" r="25"/><path id="Windows_Icon" class="st1" d="M250.4 40.64v12.01c0 .03-.01.05-.01.07-.04.3-.31.51-.61.47l-11.93-1.58a.54.54 0 0 1-.52-.54V40.62h.01c0-.3.24-.55.54-.55l11.93.02h.05c.3 0 .54.25.54.55zm-14.35-.02v10.22c-.04.3-.31.51-.61.47l-11.24-1.4a.551.551 0 0 1-.5-.54v-8.73c0-.3.24-.54.55-.54l11.21-.03h.05c.29 0 .54.24.54.55zm0-12.32v9.96c0 .3-.24.54-.54.54h-11.32c-.3 0-.55-.24-.55-.54v-8.53c0-.27.21-.51.48-.54l11.27-1.42c.04-.01.08-.01.12-.01.29-.01.54.24.54.54zm13.8 10.5h-11.97c-.3 0-.55-.24-.55-.54V28.01h.01c0-.27.2-.5.47-.54l11.93-1.56c.04-.01.08-.01.12-.01.3 0 .55.24.55.55v11.81c-.01.29-.25.54-.56.54z"/></g></g></g><g id="Aspose.TeX"><g id="TeX"><path class="st6" d="M154.24 123.14h-12.98v-2.24h1.54c.48 0 .85-.07 1.1-.22.13-.07.23-.2.31-.38.01-.03.11-.33.11-1.68v-15.94h-.74c-1.16 0-2.06.27-2.61.78-.78.73-1.29 1.81-1.5 3.21l-.11.7h-2.14v-7.51h21.08v7.51h-2.05l-.16-.62c-.39-1.55-.76-2.29-1.01-2.64-.34-.48-.79-.85-1.39-1.14-.14-.06-.69-.29-1.76-.29h-.78v15.94c0 1.4.1 1.71.12 1.75.05.1.18.23.37.34.16.09.46.2 1.04.2h1.54v2.23h.02zm-8.81-1.65h4.62c-.12-.15-.21-.3-.29-.47-.13-.28-.25-.79-.25-2.41v-17.1h-3.53v17.1c0 1.59-.12 2.07-.25 2.35-.09.2-.18.37-.3.53zm9.08-19.98c.81.41 1.46.96 1.94 1.64.07.1.14.2.2.32v-1.96h-2.14zm-15.63 0v1.92c.28-.44.6-.84.97-1.19.32-.3.7-.55 1.13-.74h-2.1v.01z"/><path class="st6" d="m140.69 103.01-2.23.75v-2.79l2.83.11zM154.92 103.01l2.23.75v-2.79l-2.84.11zM145.95 101.37h3.64v1.28h-3.64z"/><g><path class="st6" d="M126.54 90.02h6.08v6.08h-6.08z"/><path class="st6" d="M133.38 96.86h-7.6v-7.6h7.6v7.6zm-6.08-1.52h4.56v-4.56h-4.56v4.56zM126.52 126.41h6.08v6.08h-6.08z"/><path class="st6" d="M133.36 133.26h-7.6v-7.6h7.6v7.6zm-6.08-1.53h4.56v-4.56h-4.56v4.56z"/><g><path class="st6" d="M162.93 90.02h6.08v6.08h-6.08z"/><path class="st6" d="M169.78 96.86h-7.6v-7.6h7.6v7.6zm-6.09-1.52h4.56v-4.56h-4.56v4.56z"/></g><g><path class="st6" d="M162.93 126.41h6.08v6.08h-6.08z"/><path class="st6" d="M169.78 133.26h-7.6v-7.6h7.6v7.6zm-6.09-1.53h4.56v-4.56h-4.56v4.56z"/></g><g><path class="st6" d="M134.68 91.75h2.61v2.61h-2.61zM140.58 91.75h2.61v2.61h-2.61zM146.49 91.75h2.61v2.61h-2.61zM152.31 91.75h2.61v2.61h-2.61zM158.31 91.75h2.61v2.61h-2.61z"/><g><path class="st6" d="M134.61 128.15h2.61v2.61h-2.61zM140.51 128.15h2.61v2.61h-2.61zM146.42 128.15h2.61v2.61h-2.61zM152.24 128.15h2.61v2.61h-2.61zM158.23 128.15h2.61v2.61h-2.61z"/></g><g><path class="st6" d="M128.28 121.74h2.61v2.61h-2.61zM128.28 115.84h2.61v2.61h-2.61zM128.28 109.93h2.61v2.61h-2.61zM128.28 104.11h2.61v2.61h-2.61zM128.28 98.11h2.61v2.61h-2.61z"/></g><g><path class="st6" d="M164.67 121.71h2.61v2.61h-2.61zM164.67 115.82h2.61v2.61h-2.61zM164.67 109.91h2.61v2.61h-2.61zM164.67 104.08h2.61v2.61h-2.61zM164.67 98.09h2.61v2.61h-2.61z"/></g></g></g></g><path class="st6" d="M62.27 136.31H46.28V90.2H31.83V77.12h44.85V90.2H62.27v46.11zM84.76 136.31c-4.82 0-8.56-1.28-11.22-3.84s-4-6.21-4-10.94c0-4.88 1.23-8.63 3.7-11.25 2.47-2.61 5.99-3.92 10.57-3.92 4.36 0 7.72 1.14 10.1 3.41 2.37 2.27 3.56 5.54 3.56 9.82v4.44H79.62c.07 1.62.66 2.88 1.77 3.8 1.11.92 2.63 1.38 4.56 1.38 1.75 0 3.37-.17 4.84-.5 1.47-.33 3.07-.9 4.79-1.7v7.17c-1.57.8-3.18 1.35-4.85 1.66-1.67.31-3.66.47-5.97.47zm-.59-23.16c-1.17 0-2.16.37-2.95 1.11-.79.74-1.26 1.9-1.39 3.48h8.58c-.03-1.4-.43-2.51-1.19-3.34-.76-.83-1.78-1.25-3.05-1.25z"/></g></svg>