<svg version="1.1" id="Layer_1" xmlns="http://www.w3.org/2000/svg" x="0" y="0" viewBox="0 0 280 200" style="enable-background:new 0 0 280 200" xml:space="preserve"><style>.st0{fill:#c1c1c1}.st1{fill:#fff}.st6{fill:#b5b5b5}</style><g id="Base"><g id="Lines"><path class="st0" d="M176.52 51.09h11.08M176.52 50.59h11.08v1h-11.08zM176.61 167.3h11.04M176.61 166.8h11.04v1h-11.04zM195.61 49.01v4.54M195.11 49.01h1v4.55h-1zM195.61 58.86v21.83M195.11 58.86h1V80.7h-1zM201.01 129.88v39.63M200.51 129.88h1v39.64h-1zM187.65 130.24h13.86"/><path class="st0" d="M187.65 129.74h13.86v1h-13.86zM201.01 174.84v6.04M200.51 174.84h1v6.04h-1zM264.1 59.65v4.54M263.6 59.65h1v4.55h-1zM264.1 80.74v4.55M263.6 80.74h1v4.55h-1zM264.1 90.85v29.26M263.6 90.85h1v29.26h-1zM208.59 109.32h-20.94M187.65 108.82h20.94v1h-20.94zM206.57 88.29h-18.92M187.65 87.79h18.92v1h-18.92z"/><g><path class="st0" d="M206.12 61.76v27.03M205.62 61.76h1v27.02h-1z"/></g><g><path class="st0" d="M229.52 162.12h-20.93M208.59 161.62h20.94v1h-20.94z"/></g><g><path class="st0" d="M243.07 120.69v65.12M242.57 120.69h1v65.12h-1z"/></g><g><path class="st0" d="M227.41 61.27v16.35M226.91 61.27h1v16.35h-1z"/></g><g><path class="st0" d="M253.87 57.58v4.55M253.37 57.58h1v4.55h-1z"/></g><g><path class="st0" d="M264.1 149.17v4.55M263.6 149.17h1v4.55h-1z"/></g><g><path class="st0" d="M205.63 61.74h13.81M205.63 61.24h13.81v1h-13.81z"/></g><g><path class="st0" d="M227.41 61.76h26.97M227.41 61.26h26.97v1h-26.97z"/></g><g><path class="st0" d="M216.64 74.79v5.19M216.14 74.79h1v5.19h-1z"/></g><g><path class="st0" d="M187.65 98.65h26.97M187.65 98.15h26.97v1h-26.97z"/></g><g><path class="st0" d="M187.65 119.6h76.45M187.65 119.1h76.45v1h-76.45z"/></g><g><path class="st0" d="M216.73 127.86v53.02M216.23 127.86h1v53.02h-1z"/></g></g><g id="Left_Right_Boxes"><path class="st1" d="m111.88 177.27-95.98-8.26V44.69h95.98z"/><path style="fill:#eaeaea" d="m176.81 168.01-58.29 9.26V44.69h58.29z"/></g><g id="Platform_Icons"><circle cx="237.9" cy="157.08" r="25" style="fill:#ea531a"/><path class="st1" d="M224.59 154.39a2.69 2.69 0 0 0-2.69 2.69c0 1.48 1.2 2.68 2.69 2.68 1.48 0 2.68-1.2 2.68-2.68 0-1.48-1.2-2.69-2.68-2.69zm19.17 12.21a2.69 2.69 0 0 0-.98 3.67 2.69 2.69 0 0 0 3.67.98 2.69 2.69 0 0 0 .98-3.67 2.692 2.692 0 0 0-3.67-.98zm-13.34-9.52c0-2.65 1.32-5 3.33-6.42l-1.96-3.29c-2.35 1.57-4.1 3.97-4.82 6.78.85.69 1.39 1.74 1.39 2.92s-.54 2.23-1.39 2.92c.73 2.81 2.47 5.21 4.82 6.78l1.96-3.29a7.792 7.792 0 0 1-3.33-6.4zm7.84-7.84c4.1 0 7.46 3.14 7.81 7.15l3.83-.06c-.19-2.96-1.48-5.61-3.47-7.57a3.777 3.777 0 0 1-5.06-2.92c-.99-.27-2.04-.42-3.12-.42-1.86 0-3.61.44-5.17 1.21l1.87 3.34c1.01-.47 2.13-.73 3.31-.73zm0 15.68c-1.18 0-2.3-.26-3.3-.73l-1.87 3.34c1.56.77 3.31 1.21 5.17 1.21 1.08 0 2.12-.15 3.12-.42a3.777 3.777 0 0 1 5.06-2.92 11.62 11.62 0 0 0 3.47-7.57l-3.83-.06c-.36 4.01-3.72 7.15-7.82 7.15zm5.5-17.36c1.28.74 2.93.3 3.67-.98.74-1.28.3-2.93-.98-3.67-1.28-.74-2.93-.3-3.67.98a2.69 2.69 0 0 0 .98 3.67z" id="Ubuntu_Icon"/><circle cx="238.14" cy="98.1" r="25" style="fill:#444"/><path class="st1" d="M244.46 98.6c.04 4.09 3.58 5.45 3.62 5.46-.03.1-.57 1.94-1.87 3.84-1.13 1.64-2.29 3.28-4.13 3.32-1.81.03-2.39-1.07-4.46-1.07s-2.71 1.04-4.42 1.11c-1.78.07-3.13-1.78-4.26-3.42-2.32-3.35-4.09-9.47-1.71-13.6 1.18-2.05 3.29-3.35 5.59-3.38 1.74-.03 3.39 1.17 4.46 1.17 1.07 0 3.07-1.45 5.17-1.24.88.04 3.35.36 4.94 2.68-.14.07-2.96 1.71-2.93 5.13m-3.4-10.03c.94-1.14 1.58-2.73 1.4-4.31-1.36.05-3 .91-3.98 2.05-.87 1.01-1.64 2.63-1.43 4.18 1.52.11 3.07-.78 4.01-1.92" id="Apple_Icon"/><g><circle cx="237.96" cy="39.19" r="25" style="fill:#0079d8"/><path class="st1" d="M250.4 40.64v12.01c0 .03-.01.05-.01.07-.04.3-.31.51-.61.47l-11.93-1.58a.54.54 0 0 1-.52-.54V40.62h.01c0-.3.24-.55.54-.55l11.93.02h.05c.3 0 .54.25.54.55zm-14.35-.02v10.22c-.04.3-.31.51-.61.47l-11.24-1.4a.551.551 0 0 1-.5-.54v-8.73c0-.3.24-.54.55-.54l11.21-.03h.05c.29 0 .54.24.54.55zm0-12.32v9.96c0 .3-.24.54-.54.54h-11.32c-.3 0-.55-.24-.55-.54v-8.53c0-.27.21-.51.48-.54l11.27-1.42c.04-.01.08-.01.12-.01.29-.01.54.24.54.54zm13.8 10.5h-11.97c-.3 0-.55-.24-.55-.54V28.01h.01c0-.27.2-.5.47-.54l11.93-1.56c.04-.01.08-.01.12-.01.3 0 .55.24.55.55v11.81c-.01.29-.25.54-.56.54z" id="Windows_Icon"/></g></g></g><g id="Aspose.Email"><path class="st6" d="M163.08 79.98h-44.56c.11 3.22-.01 5.16.11 7.75h44.45v6.59c-3.62 2.95-9.39 7.53-21.72 17.19-2.72 2.14-8.1 7.28-11.85 7.22-3.35.05-8-4.04-10.9-6.44-.05 3.28-.08 6.56-.09 9.84 3.16 2.29 6.94 4.37 10.99 4.35 6.89.04 13-6 16.63-8.87 7.99-6.26 13.24-10.39 16.94-13.34v29.96h-44.55l.03 7.75h44.51a7.75 7.75 0 0 0 7.75-7.75v-46.5c.01-4.28-3.46-7.75-7.74-7.75zM82.67 131.02H50.96v-53.4h31.71V89.2H65.39v8.4h16v11.58h-16v10.08h17.28v11.76z"/></g></svg>