<svg version="1.1" id="Layer_1" xmlns="http://www.w3.org/2000/svg" x="0" y="0" viewBox="0 0 280 200" style="enable-background:new 0 0 280 200" xml:space="preserve"><style>.st0{fill:#c1c1c1;stroke:#c1c1c1;stroke-miterlimit:10}.st1{fill:#fff}.st2{fill:#eaeaea}.st6{fill:#b5b5b5}</style><g id="Base"><g id="Lines"><path class="st0" d="M176.52 51.09h11.08M176.61 167.3h11.04M195.61 49.01v4.54M195.61 58.86v21.83M201.01 129.88v39.63M187.65 130.24h13.86M201.01 174.84v6.04M264.1 59.65v4.54M264.1 80.74v4.55M264.1 90.85v29.26M208.59 109.32h-20.94M206.57 88.29h-18.92M206.12 61.76v27.03M229.52 162.12h-20.93M243.07 120.69v65.12M227.41 61.27v16.35M253.87 57.58v4.55M264.1 149.17v4.55M205.63 61.74h13.81M227.41 61.76h26.97M216.64 74.79v5.19M187.65 98.65h26.97M187.65 119.6h76.45M216.73 127.86v53.02"/></g><g id="Left_Right_Boxes"><path class="st1" d="m111.88 177.27-95.98-8.26V44.69h95.98z"/><path class="st2" d="m176.81 168.01-58.29 9.26V44.69h58.29z"/></g><g id="Platform_Icons"><circle cx="237.9" cy="157.08" r="25" style="fill:#ea531a"/><path id="Ubuntu_Icon" class="st1" d="M224.59 154.39a2.69 2.69 0 0 0-2.69 2.69c0 1.48 1.2 2.68 2.69 2.68 1.48 0 2.68-1.2 2.68-2.68 0-1.48-1.2-2.69-2.68-2.69zm19.17 12.21a2.69 2.69 0 0 0-.98 3.67 2.69 2.69 0 0 0 3.67.98 2.69 2.69 0 0 0 .98-3.67 2.692 2.692 0 0 0-3.67-.98zm-13.34-9.52c0-2.65 1.32-5 3.33-6.42l-1.96-3.29c-2.35 1.57-4.1 3.97-4.82 6.78.85.69 1.39 1.74 1.39 2.92s-.54 2.23-1.39 2.92c.73 2.81 2.47 5.21 4.82 6.78l1.96-3.29a7.792 7.792 0 0 1-3.33-6.4zm7.84-7.84c4.1 0 7.46 3.14 7.81 7.15l3.83-.06c-.19-2.96-1.48-5.61-3.47-7.57a3.777 3.777 0 0 1-5.06-2.92c-.99-.27-2.04-.42-3.12-.42-1.86 0-3.61.44-5.17 1.21l1.87 3.34c1.01-.47 2.13-.73 3.31-.73zm0 15.68c-1.18 0-2.3-.26-3.3-.73l-1.87 3.34c1.56.77 3.31 1.21 5.17 1.21 1.08 0 2.12-.15 3.12-.42a3.777 3.777 0 0 1 5.06-2.92 11.62 11.62 0 0 0 3.47-7.57l-3.83-.06c-.36 4.01-3.72 7.15-7.82 7.15zm5.5-17.36c1.28.74 2.93.3 3.67-.98.74-1.28.3-2.93-.98-3.67-1.28-.74-2.93-.3-3.67.98a2.69 2.69 0 0 0 .98 3.67z"/><circle cx="238.14" cy="98.1" r="25" style="fill:#444"/><path class="st1" d="M244.46 98.6c.04 4.09 3.58 5.45 3.62 5.46-.03.1-.57 1.94-1.87 3.84-1.13 1.64-2.29 3.28-4.13 3.32-1.81.03-2.39-1.07-4.46-1.07s-2.71 1.04-4.42 1.11c-1.78.07-3.13-1.78-4.26-3.42-2.32-3.35-4.09-9.47-1.71-13.6 1.18-2.05 3.29-3.35 5.59-3.38 1.74-.03 3.39 1.17 4.46 1.17 1.07 0 3.07-1.45 5.17-1.24.88.04 3.35.36 4.94 2.68-.14.07-2.96 1.71-2.93 5.13m-3.4-10.03c.94-1.14 1.58-2.73 1.4-4.31-1.36.05-3 .91-3.98 2.05-.87 1.01-1.64 2.63-1.43 4.18 1.52.11 3.07-.78 4.01-1.92" id="Apple_Icon"/><g><circle cx="237.96" cy="39.19" r="25" style="fill:#0079d8"/><path id="Windows_Icon" class="st1" d="M250.4 40.64v12.01c0 .03-.01.05-.01.07-.04.3-.31.51-.61.47l-11.93-1.58a.54.54 0 0 1-.52-.54V40.62h.01c0-.3.24-.55.54-.55l11.93.02h.05c.3 0 .54.25.54.55zm-14.35-.02v10.22c-.04.3-.31.51-.61.47l-11.24-1.4a.551.551 0 0 1-.5-.54v-8.73c0-.3.24-.54.55-.54l11.21-.03h.05c.29 0 .54.24.54.55zm0-12.32v9.96c0 .3-.24.54-.54.54h-11.32c-.3 0-.55-.24-.55-.54v-8.53c0-.27.21-.51.48-.54l11.27-1.42c.04-.01.08-.01.12-.01.29-.01.54.24.54.54zm13.8 10.5h-11.97c-.3 0-.55-.24-.55-.54V28.01h.01c0-.27.2-.5.47-.54l11.93-1.56c.04-.01.08-.01.12-.01.3 0 .55.24.55.55v11.81c-.01.29-.25.54-.56.54z"/></g></g></g><g id="Aspose.Font"><path class="st6" d="M62.09 137.5H45.82V76.33h36.15v13.26H62.09v11.67h18.33v13.26H62.09v22.98z"/><g id="Font"><path class="st6" d="M171.39 134.95h-45.66V82.44h45.66v52.51zm-43.91-1.75h42.16V84.19h-42.16v49.01z"/><path class="st2" d="M168.67 81.58h3.48v3.48h-3.48z"/><path class="st6" d="M173.03 85.94h-5.23v-5.23h5.23v5.23zm-3.48-1.75h1.73v-1.73h-1.73v1.73z"/><path class="st2" d="M146.81 81.58h3.48v3.48h-3.48z"/><path class="st6" d="M151.17 85.94h-5.24v-5.23h5.24v5.23zm-3.48-1.75h1.73v-1.73h-1.73v1.73z"/><path class="st2" d="M124.86 81.57h3.48v3.48h-3.48z"/><path class="st6" d="M129.22 85.93h-5.23V80.7h5.23v5.23zm-3.48-1.75h1.73v-1.73h-1.73v1.73z"/><path class="st2" d="M168.67 105.96h3.48v3.48h-3.48z"/><path class="st6" d="M173.03 110.32h-5.23v-5.23h5.23v5.23zm-3.48-1.75h1.73v-1.73h-1.73v1.73z"/><g><path class="st2" d="M124.86 105.96h3.48v3.48h-3.48z"/><path class="st6" d="M129.22 110.32h-5.23v-5.23h5.23v5.23zm-3.48-1.75h1.73v-1.73h-1.73v1.73z"/></g><g><path class="st2" d="M124.86 132.34h3.48v3.48h-3.48z"/><path class="st6" d="M129.22 136.69h-5.23v-5.23h5.23v5.23zm-3.48-1.75h1.73v-1.73h-1.73v1.73z"/></g><g><path class="st2" d="M146.81 132.34h3.48v3.48h-3.48z"/><path class="st6" d="M151.17 136.69h-5.24v-5.23h5.24v5.23zm-3.48-1.75h1.73v-1.73h-1.73v1.73z"/></g><g><path class="st2" d="M168.67 132.34h3.48v3.48h-3.48z"/><path class="st6" d="M173.03 136.69h-5.23v-5.23h5.23v5.23zm-3.48-1.75h1.73v-1.73h-1.73v1.73z"/></g><g><path class="st6" d="M142.11 105.04h-6.55l-.78 1.81c-.26.6-.38 1.1-.38 1.49 0 .52.21.9.63 1.15.25.15.85.26 1.82.33v.51h-6.17v-.51c.67-.1 1.21-.38 1.64-.83.43-.45.96-1.38 1.59-2.8l6.64-14.8h.26l6.69 15.21c.64 1.44 1.16 2.35 1.57 2.72.31.28.75.45 1.31.49v.51h-8.97v-.51h.37c.72 0 1.23-.1 1.52-.3.2-.15.3-.36.3-.63 0-.16-.03-.33-.08-.51-.02-.08-.16-.42-.41-1.03l-1-2.3zm-.46-1.02-2.76-6.39-2.85 6.39h5.61zM159.38 108.43c-1.56 1.38-2.96 2.07-4.2 2.07-.73 0-1.34-.24-1.82-.72s-.73-1.08-.73-1.8c0-.98.42-1.85 1.26-2.63.84-.78 2.67-1.82 5.49-3.11v-1.29c0-.97-.05-1.58-.16-1.83s-.3-.47-.6-.66c-.29-.19-.62-.28-.99-.28-.59 0-1.08.13-1.46.4-.24.16-.36.36-.36.57 0 .19.13.43.38.71.35.39.52.77.52 1.14 0 .45-.17.83-.5 1.14-.33.31-.77.47-1.31.47-.57 0-1.06-.17-1.44-.52-.39-.35-.58-.75-.58-1.22 0-.66.26-1.28.78-1.88.52-.6 1.24-1.06 2.18-1.37.93-.32 1.9-.48 2.9-.48 1.21 0 2.17.26 2.88.77.71.52 1.16 1.07 1.37 1.68.13.38.19 1.26.19 2.64v4.97c0 .58.02.95.07 1.1.05.15.11.26.21.34.09.07.2.11.31.11.24 0 .48-.17.73-.51l.41.33c-.46.68-.93 1.17-1.42 1.47-.49.31-1.04.46-1.66.46-.73 0-1.3-.17-1.71-.51s-.65-.87-.74-1.56zm0-1v-4.28c-1.1.65-1.92 1.34-2.46 2.08-.36.49-.53.99-.53 1.49 0 .42.15.79.45 1.11.23.25.55.37.96.37.45 0 .98-.26 1.58-.77zM143.36 116.48v2.35h-.23c-.14-.54-.29-.93-.46-1.17-.17-.24-.4-.43-.69-.57-.16-.08-.45-.12-.85-.12h-.65v6.71c0 .44.02.72.07.83.05.11.15.21.29.29.14.08.34.12.59.12h.29v.24h-4.55v-.24h.29c.25 0 .45-.04.61-.13.11-.06.2-.16.26-.31.05-.1.07-.37.07-.81v-6.71h-.63c-.59 0-1.01.12-1.28.37-.37.35-.61.84-.71 1.48h-.24v-2.35h7.82zM152.12 116.48v2.35h-.23c-.14-.54-.29-.93-.46-1.17-.17-.24-.4-.43-.69-.57-.16-.08-.45-.12-.85-.12h-.65v6.71c0 .44.02.72.07.83.05.11.15.21.29.29.14.08.34.12.59.12h.29v.24h-4.55v-.24h.29c.25 0 .45-.04.61-.13.11-.06.2-.16.26-.31.05-.1.07-.37.07-.81v-6.71h-.63c-.59 0-1.01.12-1.28.37-.37.35-.61.84-.71 1.48h-.24v-2.35h7.82zM156.2 116.98v3.57h.25c.38 0 .7-.06.94-.17.24-.12.45-.31.62-.58.17-.27.28-.64.33-1.11h.22v4.37h-.22c-.08-.83-.3-1.37-.66-1.63-.36-.26-.77-.39-1.23-.39h-.25v2.66c0 .44.02.72.07.83.05.11.14.21.29.29.14.08.34.12.58.12h.29v.24h-4.55v-.24h.29c.25 0 .46-.04.61-.13.11-.06.2-.16.26-.31.05-.1.07-.37.07-.81v-5.72c0-.44-.02-.72-.07-.83s-.14-.21-.29-.29c-.14-.08-.34-.12-.58-.12h-.29v-.24h7.34v2.5h-.26c-.06-.59-.21-1.02-.46-1.3s-.6-.48-1.07-.6c-.26-.06-.73-.1-1.42-.1h-.81z"/></g></g></g></svg>