<svg version="1.1" id="Aspose.eBook_2_" xmlns="http://www.w3.org/2000/svg" x="0" y="0" viewBox="0 0 280 200" style="enable-background:new 0 0 280 200" xml:space="preserve"><style>.st0{fill:none}.st1{fill:#c1c1c1}.st2{fill:#fff}.st7{fill:#b4b4b4}</style><g id="Aspose.eBook_1_"><g id="Base"><g id="Lines"><path class="st0" d="M176.5 51.1h11.1"/><path class="st1" d="M176.5 50.6h11.1v1h-11.1z"/><path class="st0" d="M176.6 167.3h11"/><path class="st1" d="M176.6 166.8h11v1h-11z"/><path class="st0" d="M195.6 49v4.5"/><path class="st1" d="M195.1 49h1v4.5h-1z"/><path class="st0" d="M195.6 58.9v21.8"/><path class="st1" d="M195.1 58.9h1v21.8h-1z"/><path class="st0" d="M201 129.9v39.6"/><path class="st1" d="M200.5 129.9h1v39.6h-1z"/><path class="st0" d="M187.6 130.2h13.9"/><path class="st1" d="M187.6 129.7h13.9v1h-13.9z"/><path class="st0" d="M201 174.8v6.1"/><path class="st1" d="M200.5 174.8h1v6h-1z"/><path class="st0" d="M264.1 59.7v4.5"/><path class="st1" d="M263.6 59.7h1v4.6h-1z"/><path class="st0" d="M264.1 80.7v4.6"/><path class="st1" d="M263.6 80.7h1v4.6h-1z"/><path class="st0" d="M264.1 90.8v29.3"/><path class="st1" d="M263.6 90.8h1v29.3h-1z"/><path class="st0" d="M208.6 109.3h-21"/><path class="st1" d="M187.6 108.8h20.9v1h-20.9z"/><path class="st0" d="M206.6 88.3h-19"/><path class="st1" d="M187.6 87.8h18.9v1h-18.9z"/><g><path class="st0" d="M206.1 61.8v27"/><path class="st1" d="M205.6 61.8h1v27h-1z"/></g><g><path class="st0" d="M229.5 162.1h-20.9"/><path class="st1" d="M208.6 161.6h20.9v1h-20.9z"/></g><g><path class="st0" d="M243.1 120.7v65.1"/><path class="st1" d="M242.6 120.7h1v65.1h-1z"/></g><g><path class="st0" d="M227.4 61.3v16.3"/><path class="st1" d="M226.9 61.3h1v16.4h-1z"/></g><g><path class="st0" d="M253.9 57.6v4.5"/><path class="st1" d="M253.4 57.6h1v4.5h-1z"/></g><g><path class="st0" d="M264.1 149.2v4.5"/><path class="st1" d="M263.6 149.2h1v4.6h-1z"/></g><g><path class="st0" d="M205.6 61.7h13.8"/><path class="st1" d="M205.6 61.2h13.8v1h-13.8z"/></g><g><path class="st0" d="M227.4 61.8h27"/><path class="st1" d="M227.4 61.3h27v1h-27z"/></g><g><path class="st0" d="M216.6 74.8V80"/><path class="st1" d="M216.1 74.8h1V80h-1z"/></g><g><path class="st0" d="M187.6 98.7h27"/><path class="st1" d="M187.6 98.2h27v1h-27z"/></g><g><path class="st0" d="M187.6 119.6h76.5"/><path class="st1" d="M187.6 119.1H264v1h-76.4z"/></g><g><path class="st0" d="M216.7 127.9v53"/><path class="st1" d="M216.2 127.9h1v53h-1z"/></g></g><g id="Left_Right_Boxes"><path class="st2" d="m111.9 177.3-96-8.3V44.7h96z"/><path style="fill:#eaeaea" d="m176.8 168-58.3 9.3V44.7h58.3z"/></g><g id="Platform_Icons"><circle cx="237.9" cy="157.1" r="25" style="fill:#ea531a"/><path class="st2" d="M224.6 154.4c-1.5 0-2.7 1.2-2.7 2.7 0 1.5 1.2 2.7 2.7 2.7 1.5 0 2.7-1.2 2.7-2.7 0-1.5-1.2-2.7-2.7-2.7zm19.2 12.2c-1.3.7-1.7 2.4-1 3.7.7 1.3 2.4 1.7 3.7 1 1.3-.7 1.7-2.4 1-3.7-.8-1.3-2.5-1.7-3.7-1zm-13.4-9.5c0-2.6 1.3-5 3.3-6.4l-2-3.3c-2.4 1.6-4.1 4-4.8 6.8.9.7 1.4 1.7 1.4 2.9s-.5 2.2-1.4 2.9c.7 2.8 2.5 5.2 4.8 6.8l2-3.3c-2-1.4-3.3-3.8-3.3-6.4zm7.9-7.9c4.1 0 7.5 3.1 7.8 7.1l3.8-.1c-.2-3-1.5-5.6-3.5-7.6-1 .4-2.2.3-3.2-.3s-1.7-1.6-1.8-2.7c-1-.3-2-.4-3.1-.4-1.9 0-3.6.4-5.2 1.2l1.9 3.3c1-.2 2.1-.5 3.3-.5zm0 15.7c-1.2 0-2.3-.3-3.3-.7l-1.9 3.3c1.6.8 3.3 1.2 5.2 1.2 1.1 0 2.1-.1 3.1-.4.2-1.1.8-2.1 1.8-2.7 1-.6 2.2-.6 3.2-.3 2-1.9 3.3-4.6 3.5-7.6l-3.8-.1c-.4 4.2-3.7 7.3-7.8 7.3zm5.5-17.3c1.3.7 2.9.3 3.7-1s.3-2.9-1-3.7-2.9-.3-3.7 1c-.8 1.3-.3 2.9 1 3.7z" id="Ubuntu_Icon"/><circle transform="rotate(-80.781 238.142 98.096)" cx="238.1" cy="98.1" style="fill:#444" r="25"/><path class="st2" d="M244.5 98.6c0 4.1 3.6 5.4 3.6 5.5 0 .1-.6 1.9-1.9 3.8-1.1 1.6-2.3 3.3-4.1 3.3-1.8 0-2.4-1.1-4.5-1.1s-2.7 1-4.4 1.1c-1.8.1-3.1-1.8-4.3-3.4-2.3-3.3-4.1-9.5-1.7-13.6 1.2-2.1 3.3-3.3 5.6-3.4 1.7 0 3.4 1.2 4.5 1.2s3.1-1.4 5.2-1.2c.9 0 3.4.4 4.9 2.7-.2 0-3 1.7-2.9 5.1m-3.4-10c.9-1.1 1.6-2.7 1.4-4.3-1.4.1-3 .9-4 2.1-.9 1-1.6 2.6-1.4 4.2 1.5 0 3-.9 4-2" id="Apple_Icon"/><g><circle transform="rotate(-78.018 237.963 39.191)" cx="238" cy="39.2" style="fill:#0079d8" r="25"/><path class="st2" d="M250.4 40.6v12.1c0 .3-.3.5-.6.5l-11.9-1.6c-.3 0-.5-.2-.5-.5V40.6c0-.3.2-.5.5-.5h12c.3 0 .5.2.5.5zm-14.3 0v10.2c0 .3-.3.5-.6.5l-11.2-1.4c-.3 0-.5-.3-.5-.5v-8.7c0-.3.2-.5.6-.5H235.7c.1-.1.4.1.4.4zm0-12.3v10c0 .3-.2.5-.5.5h-11.3c-.3 0-.6-.2-.6-.5v-8.5c0-.3.2-.5.5-.5l11.3-1.4h.1c.2-.1.5.1.5.4zm13.8 10.5h-12c-.3 0-.6-.2-.6-.5V28c0-.3.2-.5.5-.5l11.9-1.6h.1c.3 0 .6.2.6.5v11.8c0 .3-.2.6-.5.6z" id="Windows_Icon"/></g></g></g><g id="Aspose.eBook"><path class="st7" d="M36.7 131.8c-6.9 0-12.3-1.8-16.1-5.5-3.8-3.7-5.7-8.9-5.7-15.7 0-7 1.8-12.4 5.3-16.1 3.5-3.7 8.6-5.6 15.2-5.6 6.2 0 11.1 1.6 14.5 4.9 3.4 3.3 5.1 8 5.1 14.1v6.4H29.4c.1 2.3.9 4.1 2.5 5.5 1.6 1.3 3.8 2 6.5 2 2.5 0 4.8-.2 6.9-.7 2.1-.5 4.4-1.3 6.9-2.4V129c-2.2 1.1-4.6 1.9-7 2.4-2.3.1-5.2.4-8.5.4zm-.8-33.3c-1.7 0-3.1.5-4.2 1.6s-1.8 2.7-2 5H42c0-2-.6-3.6-1.7-4.8-1.1-1.2-2.6-1.8-4.4-1.8zM60.1 77.5h18.7c7.3 0 12.7 1.1 16.2 3.2 3.5 2.2 5.3 5.5 5.3 10.1 0 3-.8 5.6-2.3 7.7s-3.6 3.5-6.1 4.1v.4c3.3.9 5.7 2.3 7.2 4.4 1.5 2.1 2.2 4.7 2.2 8 0 4.9-1.8 8.7-5.5 11.5-3.7 2.8-8.6 4.2-14.9 4.2H60.1V77.5zM74.6 98H79c2.1 0 3.7-.4 4.8-1.3 1.1-.9 1.7-2.1 1.7-3.8 0-3-2.3-4.5-6.8-4.5h-4.1V98zm0 10.6v11.2h5.1c4.5 0 6.8-1.9 6.8-5.7 0-1.8-.6-3.1-1.8-4.1-1.2-1-3-1.4-5.3-1.4h-4.8zM148.4 120.4h-29.9v-6h29.9c1.6 0 3 1.3 3 3 0 1.6-1.3 3-3 3zm-15.6-12H148.1c1.6 0 3-1.3 3-3 0-1.6-1.3-3-3-3h-29.6v5.9h14.3zm27.8-38.3v77.2c0 2.1-1.7 3.8-3.8 3.8h-38.3v-11.8h34.3c1.7 0 3.2-1.4 3.2-3.2V74.4c0-1.7-1.4-3.2-3.2-3.2h-7v16l-5.5-3.1-5.5 3.1v-16h-16.4v-5H156.6c2.3.1 4 1.8 4 3.9zm-29.5 75.1c0-1.9-1.5-3.4-3.4-3.4s-3.4 1.5-3.4 3.4 1.5 3.4 3.4 3.4 3.4-1.5 3.4-3.4zm1.7-48.7H148c1.5 0 2.8-1.2 3-2.7v-.6c0-.2-.1-.4-.1-.5-.1-.2-.1-.4-.2-.6-.1-.3-.3-.5-.5-.7l-.4-.4c-.3-.2-.5-.3-.9-.4-.1 0-.3-.1-.5-.1h-29.9v5.9h14.3zm14.9 29.5h-16.3c-1.6 0-3 1.3-3 3 0 1.6 1.3 3 3 3h16.3c1.6 0 3-1.3 3-3s-1.3-3-3-3z"/></g></g></svg>