<?xml version="1.0" encoding="utf-8"?>
<!-- Generator: Adobe Illustrator 25.2.0, SVG Export Plug-In . SVG Version: 6.00 Build 0)  -->
<svg version="1.1" id="Layer_1" xmlns="http://www.w3.org/2000/svg" xmlns:xlink="http://www.w3.org/1999/xlink" x="0px" y="0px"
	 viewBox="0 0 320 320" style="enable-background:new 0 0 320 320;" xml:space="preserve">
<style type="text/css">
	.st0{fill:none;stroke:#EFEFEF;stroke-linecap:round;stroke-linejoin:round;stroke-miterlimit:10;stroke-dasharray:4,8;}
	.st1{fill:#FFFFFF;}
	.st2{fill-rule:evenodd;clip-rule:evenodd;fill:#174782;}
	.st3{fill:#174782;}
	.st4{fill-rule:evenodd;clip-rule:evenodd;fill:#FFFFFF;}
	.st5{fill:#EFEFEF;}
	.st6{fill:#DEDFDF;}
	.st7{fill:#4296D2;}
</style>
<circle class="st0" cx="154.17" cy="163.2" r="123.74"/>
<g id="Email">
	<polygon class="st1" points="293.33,98.54 286.42,94.1 104.7,94.1 97.79,101.01 97.79,283.23 102.23,289.15 238.03,289.15 
		293.33,219.03 	"/>
	<g>
		<path class="st2" d="M157.17,224.58c0-19.58,6.87-36.25,20.62-50c13.66-13.74,30.32-20.62,50-20.62
			c19.39,0,36.01,6.87,49.86,20.62c13.84,13.75,20.76,30.42,20.76,50c0,19.5-6.92,36.11-20.76,49.86
			c-13.85,13.84-30.46,20.76-49.86,20.76c-19.68,0-36.35-6.92-50-20.76C164.04,260.69,157.17,244.08,157.17,224.58"/>
		<path class="st2" d="M298.4,224.58h-8.28V105.43c0-3.05-1.09-5.08-3.28-6.13c-0.75-0.38-1.63-0.67-2.64-0.85L283,98.3H108.5
			c-3.09,0-5.14,1.06-6.13,3.2c-0.62,1.24-0.95,2.55-1,3.92v174.36c0,3.04,1.06,5.06,3.21,6.06c1.23,0.62,2.55,0.98,3.92,1.07
			h115.65l3.63,8.28H105.93c-2.14,0-4.28-0.52-6.41-1.57c-4.28-2.14-6.42-5.89-6.42-11.26V102.87c0-2.14,0.55-4.28,1.64-6.42
			c2.14-4.28,5.87-6.41,11.19-6.41h179.64l1.99,0.21c1.62,0.24,3.09,0.71,4.42,1.43c4.27,2.14,6.41,5.87,6.41,11.19L298.4,224.58
			L298.4,224.58z"/>
		<g>
			<path class="st3" d="M148.21,163.28h-24.79v-43.85h24.79v6.06h-17.62v11.93h16.52v6h-16.52v13.77h17.62V163.28z"/>
		</g>
		<path class="st4" d="M205.53,262.81l-21.65-47.78l65.07-29.38l21.64,47.78L205.53,262.81z M248.18,192.31l-10.24,27.09
			l27.13,10.22L248.18,192.31z M190.56,215.81L225,228.78c3.81,1.44,5.7,0.58,7.13-3.22l13-34.39L190.56,215.81z M263.92,232.66
			l-27.13-10.22c-2.01,5.32-3.29,8.93-5.81,10.06c-2.52,1.14-6.07-0.29-11.4-2.29l-10.23,27.09L263.92,232.66z M189.41,218.84
			l16.9,37.31l10.23-27.09L189.41,218.84z"/>
	</g>
</g>
<g>
	<path class="st5" d="M274.83,141.96c-19.03,0-34.51-15.48-34.51-34.51s15.48-34.51,34.51-34.51s34.51,15.48,34.51,34.51
		S293.86,141.96,274.83,141.96z"/>
	<path class="st6" d="M274.83,74.45c18.2,0,33.01,14.81,33.01,33.01s-14.81,33.01-33.01,33.01s-33.01-14.81-33.01-33.01
		S256.63,74.45,274.83,74.45 M274.83,71.45c-19.89,0-36.01,16.12-36.01,36.01s16.12,36.01,36.01,36.01s36.01-16.12,36.01-36.01
		S294.72,71.45,274.83,71.45L274.83,71.45z"/>
</g>
<g>
	<g>
		<polygon class="st7" points="212.94,47.07 231.19,48.19 229.78,65.23 222.61,70.15 215.36,66.73 		"/>
		<polygon class="st7" points="159.28,50.4 163.44,50.4 164.78,47.07 165.44,27.68 158.78,23.9 146.28,23.9 145.28,38.07 
			145.78,49.98 		"/>
		<polygon class="st7" points="89.03,54.9 82.11,48.65 70.36,49.07 69.94,74.9 70.69,75.82 89.03,75.82 		"/>
		<polygon class="st7" points="46.53,116.48 40.28,110.32 28.11,110.32 28.11,137.23 46.53,137.57 		"/>
		<polygon class="st7" points="51.03,191.07 44.94,185.65 28.69,185.32 27.19,187.15 27.19,208.69 50.53,209.07 		"/>
		<polygon class="st7" points="78.78,247.15 72.78,241.15 58.44,240.67 59.03,267.98 77.69,267.98 		"/>
	</g>
	<g>
		<g>
			<path class="st5" d="M210.79,45.07h22.5l-2.05,23.2l-9.2,3.05l-9.2-3.05L210.79,45.07z M228.83,52.57l0.29-2.81H215l0.7,8.55
				h9.79l-0.35,3.63l-3.11,0.82l-3.16-0.82l-0.23-2.23h-2.75l0.35,4.45l5.8,1.58h0.06l5.68-1.58l0.82-8.73h-10.31l-0.23-2.87h10.77
				V52.57z"/>
		</g>
		<g>
			<path class="st5" d="M165.44,27.68c0.55,0.55,0.82,1.21,0.82,1.99v19.45c0,0.78-0.27,1.44-0.82,1.99
				c-0.55,0.55-1.21,0.82-1.99,0.82h-16.87c-0.78,0-1.45-0.27-1.99-0.82c-0.55-0.55-0.82-1.21-0.82-1.99V24.75
				c0-0.78,0.27-1.44,0.82-1.99s1.21-0.82,1.99-0.82h11.95c0.78,0,1.44,0.27,1.99,0.82L165.44,27.68z M146.57,49.12h16.87V32.25
				h-6.09c-0.39,0-0.72-0.14-1-0.41c-0.27-0.27-0.41-0.6-0.41-1v-6.09h-9.38v24.37H146.57z M149.27,33.07
				c0.55-0.55,1.21-0.82,1.99-0.82s1.44,0.27,1.99,0.82s0.82,1.21,0.82,1.99c0,0.78-0.27,1.45-0.82,1.99
				c-0.55,0.55-1.21,0.82-1.99,0.82s-1.45-0.27-1.99-0.82c-0.55-0.55-0.82-1.21-0.82-1.99S148.72,33.62,149.27,33.07z M148.45,46.31
				v-3.75l2.34-2.34c0.31-0.31,0.62-0.31,0.94,0l2.34,2.34l5.16-5.16c0.31-0.31,0.62-0.31,0.94,0l1.41,1.41v7.5H148.45z
				 M163.21,29.44l-4.45-4.45v4.45C158.76,29.44,163.21,29.44,163.21,29.44z"/>
		</g>
		<g>
			<path class="st5" d="M89.97,53.39c0.55,0.55,0.82,1.21,0.82,1.99v19.45c0,0.78-0.27,1.44-0.82,1.99
				c-0.55,0.55-1.21,0.82-1.99,0.82H71.1c-0.78,0-1.45-0.27-1.99-0.82c-0.55-0.55-0.82-1.21-0.82-1.99V50.46
				c0-0.78,0.27-1.44,0.82-1.99c0.55-0.55,1.21-0.82,1.99-0.82h11.95c0.78,0,1.44,0.27,1.99,0.82L89.97,53.39z M71.1,74.83h16.88
				V57.96h-6.09c-0.39,0-0.72-0.14-1-0.41c-0.27-0.27-0.41-0.6-0.41-1v-6.09H71.1V74.83z M83.53,60.77c0.27,0,0.48,0.12,0.62,0.35
				s0.13,0.47-0.03,0.7c-1.37,2.38-2.27,3.91-2.7,4.57l2.7,4.57c0.16,0.23,0.17,0.47,0.03,0.7c-0.14,0.23-0.34,0.35-0.62,0.35h-1.7
				c-0.27,0-0.47-0.12-0.59-0.35c-0.08-0.12-0.64-1.25-1.7-3.4c-0.47,1.05-1.04,2.19-1.7,3.4c-0.12,0.23-0.31,0.35-0.59,0.35h-1.7
				c-0.27,0-0.48-0.12-0.62-0.35c-0.14-0.23-0.13-0.47,0.03-0.7l2.7-4.57l-2.7-4.57c-0.16-0.23-0.17-0.47-0.03-0.7
				s0.34-0.35,0.62-0.35h1.7c0.27,0,0.49,0.12,0.64,0.35c0.35,0.7,0.9,1.84,1.64,3.4c0.35-0.86,0.92-1.99,1.7-3.4
				c0.12-0.23,0.31-0.35,0.59-0.35C81.82,60.77,83.53,60.77,83.53,60.77z M87.74,55.15l-4.45-4.45v4.45H87.74z"/>
		</g>
		<g>
			<path class="st5" d="M47.5,115.02c0.55,0.55,0.82,1.21,0.82,1.99v19.45c0,0.78-0.27,1.44-0.82,1.99s-1.21,0.82-1.99,0.82H28.64
				c-0.78,0-1.45-0.27-1.99-0.82c-0.55-0.55-0.82-1.21-0.82-1.99v-24.38c0-0.78,0.27-1.44,0.82-1.99c0.55-0.55,1.21-0.82,1.99-0.82
				h11.95c0.78,0,1.44,0.27,1.99,0.82L47.5,115.02z M28.64,136.47h16.88v-16.88h-6.09c-0.39,0-0.72-0.14-1-0.41
				c-0.27-0.27-0.41-0.6-0.41-1v-6.09h-9.38C28.64,112.09,28.64,136.47,28.64,136.47z M41.53,124.28h0.94
				c0.23,0,0.42,0.09,0.56,0.26c0.14,0.18,0.18,0.38,0.15,0.62c-0.39,1.48-1.08,4.14-2.05,7.97c-0.08,0.35-0.31,0.53-0.7,0.53h-1.41
				c-0.39,0-0.62-0.18-0.7-0.53c-0.27-1.13-0.62-2.54-1.05-4.22l-0.18-1c0,0.31-0.06,0.64-0.18,1l-1.05,4.22
				c-0.08,0.35-0.29,0.53-0.64,0.53h-1.46c-0.39,0-0.62-0.18-0.7-0.53c-0.12-0.47-0.43-1.75-0.94-3.84c-0.51-2.09-0.84-3.47-1-4.13
				c-0.08-0.23-0.04-0.44,0.12-0.62c0.16-0.18,0.33-0.26,0.53-0.26h1c0.39,0,0.62,0.2,0.7,0.59c0.74,3.75,1.11,5.68,1.11,5.8
				c0,0.04,0.02,0.12,0.06,0.23c0-0.23,0.47-2.27,1.41-6.09c0.12-0.35,0.35-0.53,0.7-0.53h0.76c0.39,0,0.62,0.18,0.7,0.53
				c0.9,3.79,1.37,5.74,1.41,5.86c0,0.04,0,0.12,0,0.23c0.04-0.23,0.45-2.25,1.23-6.04C40.9,124.47,41.14,124.28,41.53,124.28z
				 M45.28,116.78l-4.45-4.45v4.45H45.28z"/>
		</g>
		<g>
			<path class="st5" d="M51.25,190.05c0.55,0.55,0.82,1.21,0.82,1.99v15.7c0,0.78-0.27,1.45-0.82,1.99
				c-0.55,0.55-1.21,0.82-1.99,0.82H28.64c-0.78,0-1.45-0.27-1.99-0.82c-0.55-0.55-0.82-1.21-0.82-1.99v-20.62
				c0-0.78,0.27-1.44,0.82-1.99s1.21-0.82,1.99-0.82h15.7c0.78,0,1.44,0.27,1.99,0.82L51.25,190.05z M48.91,207.75
				c0.23,0,0.35-0.12,0.35-0.35v-15.23c0-0.08-0.04-0.16-0.12-0.23l-4.57-4.57v5.86c0,0.39-0.14,0.72-0.41,1
				c-0.27,0.27-0.61,0.41-1,0.41H32.85c-0.39,0-0.72-0.14-1-0.41c-0.27-0.27-0.41-0.6-0.41-1v-6.09h-2.46
				c-0.23,0-0.35,0.12-0.35,0.35v19.92c0,0.23,0.12,0.35,0.35,0.35h19.93V207.75z M35.31,197.55c1.02-1.01,2.23-1.52,3.63-1.52
				s2.62,0.51,3.63,1.52c1.02,1.02,1.52,2.23,1.52,3.63s-0.51,2.62-1.52,3.63c-1.02,1.02-2.23,1.52-3.63,1.52s-2.62-0.51-3.63-1.52
				c-1.02-1.01-1.52-2.23-1.52-3.63S34.3,198.57,35.31,197.55z M41.76,187.12h-7.5v4.69h7.5V187.12z M37.28,202.86
				c0.45,0.45,1,0.67,1.67,0.67c0.66,0,1.22-0.22,1.67-0.67c0.45-0.45,0.67-1,0.67-1.67c0-0.66-0.23-1.22-0.67-1.67
				c-0.45-0.45-1.01-0.67-1.67-0.67c-0.67,0-1.22,0.23-1.67,0.67c-0.45,0.45-0.67,1.01-0.67,1.67
				C36.6,201.85,36.83,202.41,37.28,202.86z"/>
		</g>
		<g>
			<path class="st5" d="M79.3,245.59c0.55,0.55,0.82,1.21,0.82,1.99v19.45c0,0.78-0.27,1.44-0.82,1.99s-1.21,0.82-1.99,0.82H60.44
				c-0.78,0-1.45-0.27-1.99-0.82c-0.55-0.55-0.82-1.21-0.82-1.99v-24.38c0-0.78,0.27-1.45,0.82-1.99c0.55-0.55,1.21-0.82,1.99-0.82
				h11.95c0.78,0,1.44,0.27,1.99,0.82L79.3,245.59z M77.31,267.03v-16.88h-6.09c-0.39,0-0.72-0.14-1-0.41
				c-0.27-0.27-0.41-0.61-0.41-1v-6.09h-9.38v24.38H77.31z M66.41,260.29c0.23,0.23,0.23,0.49,0,0.76l-1,1.05
				c-0.12,0.12-0.25,0.18-0.41,0.18c-0.12,0-0.23-0.06-0.35-0.18l-3.34-3.16c-0.27-0.23-0.27-0.47,0-0.7l3.34-3.16
				c0.27-0.27,0.53-0.27,0.76,0l1,1.05v0.06c0.23,0.23,0.23,0.47,0,0.7l-1.93,1.7L66.41,260.29z M69.93,252.38l1.41,0.41
				c0.35,0.08,0.47,0.29,0.35,0.64l-3.22,11.02c-0.08,0.35-0.29,0.47-0.64,0.35l-1.41-0.41c-0.35-0.08-0.47-0.29-0.35-0.64
				l3.22-11.02C69.36,252.42,69.58,252.31,69.93,252.38z M71.33,256.9c-0.23-0.23-0.23-0.49,0-0.76l1-1.05
				c0.23-0.27,0.49-0.27,0.76,0l3.34,3.16c0.27,0.23,0.27,0.47,0,0.7l-3.34,3.16c-0.27,0.27-0.53,0.27-0.76,0l-1-1.05V261
				c-0.23-0.23-0.23-0.47,0-0.7l1.93-1.7L71.33,256.9z M72.62,242.89v4.45h4.45L72.62,242.89z"/>
		</g>
	</g>
</g>
<g id="CPP_1_">
	<g>
		<path class="st3" d="M264.28,121.29c-2.83-1.5-5.05-3.6-6.67-6.28c-1.62-2.68-2.43-5.73-2.43-9.12c0-3.4,0.81-6.44,2.43-9.12
			s3.84-4.78,6.67-6.28s6.02-2.26,9.58-2.26c3.11,0,5.9,0.55,8.39,1.65c2.49,1.1,4.56,2.69,6.21,4.75l-6.11,5.53
			c-2.2-2.65-4.87-3.98-8.01-3.98c-1.84,0-3.49,0.4-4.92,1.21c-1.44,0.81-2.56,1.95-3.35,3.42s-1.19,3.16-1.19,5.07
			s0.4,3.6,1.19,5.07s1.91,2.61,3.35,3.42s3.08,1.21,4.92,1.21c3.14,0,5.81-1.33,8.01-3.98l6.11,5.53
			c-1.65,2.07-3.72,3.66-6.21,4.75c-2.49,1.1-5.29,1.65-8.39,1.65C270.3,123.54,267.11,122.79,264.28,121.29z"/>
	</g>
	<g>
		<path class="st3" d="M290.3,106.94h-2.36v2.31h-2.15v-2.31h-2.38v-2.04h2.38v-2.31h2.15v2.31h2.36V106.94z"/>
		<path class="st3" d="M298.93,106.94h-2.36v2.31h-2.15v-2.31h-2.38v-2.04h2.38v-2.31h2.15v2.31h2.36V106.94z"/>
	</g>
</g>
</svg>
