<?xml version="1.0" encoding="utf-8"?>
<!-- Generator: Adobe Illustrator 25.0.1, SVG Export Plug-In . SVG Version: 6.00 Build 0)  -->
<svg version="1.1" id="Layer_1" xmlns="http://www.w3.org/2000/svg" xmlns:xlink="http://www.w3.org/1999/xlink" x="0px" y="0px"
	 viewBox="0 0 512 512" style="enable-background:new 0 0 512 512;" xml:space="preserve">
<style type="text/css">
	.st0{fill:#3892C9;stroke:#3892C9;stroke-width:30;stroke-miterlimit:10;}
	.st1{fill:none;stroke:#3892C9;stroke-width:30;stroke-miterlimit:10;}
	.st2{fill:none;stroke:#3892C9;stroke-width:40;stroke-linecap:round;stroke-linejoin:round;stroke-miterlimit:10;}
	.st3{fill:#3F94CB;}
</style>
<g id="_x34_">
	<g id="_x32__1_">
		
			<rect x="18.62" y="43.19" transform="matrix(-1 -4.490376e-11 4.490376e-11 -1 129.3251 536.5641)" class="st0" width="92.08" height="450.18"/>
	</g>
	<rect x="179.93" y="304.71" class="st1" width="314.53" height="64.94"/>
	<rect x="179.94" y="428.44" class="st1" width="314.53" height="64.94"/>
	<g>
		<path class="st2" d="M235.49,67.26c123.02-12.83,180.62,59.17,175.35,167.55"/>
		<g>
			<path class="st3" d="M243.49,37.09l-39.04,42.03c-6.9,7.43-18.52,7.86-25.95,0.96l0,0c-7.43-6.9-7.86-18.52-0.96-25.95
				l39.04-42.03c6.9-7.43,18.52-7.86,25.95-0.96l0,0C249.96,18.04,250.39,29.66,243.49,37.09z"/>
			<path class="st3" d="M219.31,120.43l-42.03-39.04c-7.43-6.9-7.86-18.52-0.96-25.95l0,0c6.9-7.43,18.52-7.86,25.95-0.96
				l42.03,39.04c7.43,6.9,7.86,18.52,0.96,25.95l0,0C238.36,126.9,226.74,127.33,219.31,120.43z"/>
		</g>
	</g>
</g>
<g>
</g>
<g>
</g>
<g>
</g>
<g>
</g>
<g>
</g>
</svg>
