<svg version="1.1" id="Aspose.Video" xmlns="http://www.w3.org/2000/svg" x="0" y="0" viewBox="0 0 512 512" style="enable-background:new 0 0 512 512" xml:space="preserve"><style>.st0{fill:#3593cb}.st1{fill:#3093cd}.st2{fill:#fff}</style><g id="Video_to_Image"><path class="st0" d="m207.1 185.2-97.6.2c-4 0-7.2-3.2-7.2-7.2l-.2-71.9c0-4 3.2-7.2 7.2-7.2l97.6-.2c4 0 7.2 3.2 7.2 7.2l.2 71.9c0 4-3.2 7.2-7.2 7.2z"/><path class="st0" d="m197.5 145.6 46 39c3 2.5 7.6.4 7.6-3.5l-.2-78.2c0-3.9-4.6-6.1-7.6-3.5l-45.8 39.2c-2.2 1.8-2.2 5.2 0 7z"/><g id="Base_2_"><path class="st0" d="M304.7 281.1H35.3c-17.8 0-32.2-14.4-32.2-32.2v-214c0-17.6 14.4-32 32-32H305c17.6 0 32 14.4 32 32v214c-.1 17.7-14.5 32.2-32.3 32.2zM35.1 30.7c-2.3 0-4.2 1.9-4.2 4.2v214c0 2.4 2 4.4 4.4 4.4h269.4c2.4 0 4.4-2 4.4-4.4v-214c0-2.3-1.9-4.2-4.2-4.2H35.1z"/><path class="st1" d="M25.2 23.4h288.2v47H25.2z"/><path class="st2" d="M272.8 53.2c-1.1 0-2-.9-2-2V20.5c0-1.1.9-2 2-2h30.7c1.1 0 2 .9 2 2v30.7c0 1.1-.9 2-2 2h-30.7zM193.3 53.2c-1.1 0-2-.9-2-2V20.5c0-1.1.9-2 2-2H224c1.1 0 2 .9 2 2v30.7c0 1.1-.9 2-2 2h-30.7zM36.4 53.2c-1.1 0-2-.9-2-2V20.5c0-1.1.9-2 2-2h30.7c1.1 0 2 .9 2 2v30.7c0 1.1-.9 2-2 2H36.4zM113.8 53.2c-1.1 0-2-.9-2-2V20.5c0-1.1.9-2 2-2h30.7c1.1 0 2 .9 2 2v30.7c0 1.1-.9 2-2 2h-30.7z"/><g><path class="st1" d="M25.2 213.5h288.2v47H25.2z"/><path class="st2" d="M272.8 230.7c-1.1 0-2 .9-2 2v30.7c0 1.1.9 2 2 2h30.7c1.1 0 2-.9 2-2v-30.7c0-1.1-.9-2-2-2h-30.7zM193.3 230.7c-1.1 0-2 .9-2 2v30.7c0 1.1.9 2 2 2H224c1.1 0 2-.9 2-2v-30.7c0-1.1-.9-2-2-2h-30.7zM36.4 230.7c-1.1 0-2 .9-2 2v30.7c0 1.1.9 2 2 2h30.7c1.1 0 2-.9 2-2v-30.7c0-1.1-.9-2-2-2H36.4zM113.8 230.7c-1.1 0-2 .9-2 2v30.7c0 1.1.9 2 2 2h30.7c1.1 0 2-.9 2-2v-30.7c0-1.1-.9-2-2-2h-30.7z"/></g></g><g><path class="st0" d="m369.2 331.2-92.5 106.1h185.1z"/><path class="st0" d="m276.7 370.4-49.5 66.9h99z"/><circle class="st0" cx="302.8" cy="325.3" r="16.5"/><g id="Video_Reverse_1_"><path class="st0" d="M476.9 230.9H353v27.8h123.9c2.3 0 4.2 1.9 4.2 4.2v214c0 2.4-2 4.4-4.4 4.4H207.3c-2.4 0-4.4-2-4.4-4.4v-181c-9.3.2-18.6.4-27.8.7V477c0 17.8 14.4 32.2 32.2 32.2h269.4c17.8 0 32.2-14.4 32.2-32.2V263c0-17.7-14.3-32.1-32-32.1z"/></g></g><g><path class="st0" d="M120.2 433.9c-8.8 0-20.8-.8-32.2-4.4-19.2-5.9-35.3-18.1-47.8-36.2-16.3-23.6-12.3-72.8-11.8-78.3.6-6 5.9-10.5 12-9.9 6 .6 10.5 5.9 9.9 12-1.6 17.8-.9 50.9 8 63.8 9.7 14.1 21.6 23.2 36.1 27.6 16.7 5.1 36.1 2.9 36.3 2.9 6-.7 11.5 3.6 12.2 9.6s-3.5 11.5-9.6 12.2c-.3 0-5.5.7-13.1.7z"/><path class="st0" d="M113.3 457.4c3.7 4.2 10 4.5 14.1.8l29.9-27c4.1-3.7 4.5-10.1.9-14.3-3.7-4.2-10-4.5-14.1-.8l-29.9 27c-4.2 3.7-4.6 10.1-.9 14.3z"/><path class="st0" d="M117.7 386c-4.1 3.7-4.5 10.1-.9 14.3l26.4 30.1c3.7 4.2 10 4.5 14.1.8s4.5-10.1.9-14.3l-26.4-30.1c-3.7-4.2-10-4.5-14.1-.8z"/></g></g></svg>