<?xml version="1.0" encoding="utf-8"?>
<!-- Generator: Adobe Illustrator 25.0.1, SVG Export Plug-In . SVG Version: 6.00 Build 0)  -->
<svg version="1.1" id="Layer_1" xmlns="http://www.w3.org/2000/svg" xmlns:xlink="http://www.w3.org/1999/xlink" x="0px" y="0px"
	 viewBox="0 0 512 512" style="enable-background:new 0 0 512 512;" xml:space="preserve">
<style type="text/css">
	.st0{fill:#3890C8;}
</style>
<g id="CSV">
	<g id="Rectangle_1_copy_2_4_">
		<g>
			<rect x="46.5" y="84.5" class="st0" width="168" height="60"/>
		</g>
		<g>
			<path class="st0" d="M202,97v35H59V97H202 M227,72H34v85h193V72L227,72z"/>
		</g>
	</g>
	<g id="Rectangle_1_copy_3_4_">
		<path class="st0" d="M448,102v25H315v-25H448 M478,72H285v85h193V72L478,72z"/>
	</g>
	<g id="Rectangle_1_copy_4">
		<path class="st0" d="M448,244v25H315v-25H448 M478,214H285v85h193V214L478,214z"/>
	</g>
	<g id="Rectangle_1_copy_5">
		<path class="st0" d="M197,244v25H64v-25H197 M227,214H34v85h193V214L227,214z"/>
	</g>
	<g id="Rectangle_1_copy_8">
		<path class="st0" d="M197,385v25H64v-25H197 M227,355H34v85h193V355L227,355z"/>
	</g>
</g>
<g>
</g>
<g>
</g>
<g>
</g>
<g>
</g>
<g>
</g>
</svg>
