<?xml version="1.0" encoding="iso-8859-1"?>
<!-- Generator: Adobe Illustrator 16.0.0, SVG Export Plug-In . SVG Version: 6.00 Build 0)  -->
<!DOCTYPE svg PUBLIC "-//W3C//DTD SVG 1.1//EN" "http://www.w3.org/Graphics/SVG/1.1/DTD/svg11.dtd">
<svg version="1.1" xmlns="http://www.w3.org/2000/svg" xmlns:xlink="http://www.w3.org/1999/xlink" x="0px" y="0px" width="512px"
	 height="512px" viewBox="0 0 512 512" style="enable-background:new 0 0 512 512;" xml:space="preserve">
<g id="Inner_Box_1_">
	<g id="Corners_copy_3_1_">
		<g id="Group_1_1_">
			<g id="Rectangle_11">
				<g>
					<rect x="96" y="96" style="fill:#3691C9;" width="63.25" height="25"/>
				</g>
			</g>
			<g id="Rectangle_11_copy">
				<g>
					<rect x="96" y="96" style="fill:#3691C9;" width="25" height="63"/>
				</g>
			</g>
			<g id="Rectangle_11_copy_2">
				<g>
					<rect x="445.75" y="96" style="fill:#3691C9;" width="63.25" height="25"/>
				</g>
			</g>
			<g id="Rectangle_11_copy_2_1_">
				<g>
					<rect x="484" y="96" style="fill:#3691C9;" width="25" height="63"/>
				</g>
			</g>
			<g id="Rectangle_11_copy_3">
				<g>
					<rect x="445.75" y="484" style="fill:#3691C9;" width="63.25" height="25"/>
				</g>
			</g>
			<g id="Rectangle_11_copy_3_1_">
				<g>
					<rect x="484" y="446" style="fill:#3691C9;" width="25" height="63"/>
				</g>
			</g>
			<g id="Rectangle_11_copy_4">
				<g>
					<rect x="96" y="484" style="fill:#3691C9;" width="63.25" height="25"/>
				</g>
			</g>
			<g id="Rectangle_11_copy_4_1_">
				<g>
					<rect x="96" y="446" style="fill:#3691C9;" width="25" height="63"/>
				</g>
			</g>
		</g>
	</g>
	<g id="Left_1_">
		<g id="Rectangle_10">
			<g>
				<rect x="96" y="364" style="fill:#3691C9;" width="25" height="25"/>
			</g>
		</g>
		<g id="Rectangle_10_copy">
			<g>
				<rect x="96" y="283" style="fill:#3691C9;" width="25" height="25"/>
			</g>
		</g>
		<g id="Rectangle_10_copy_2">
			<g>
				<rect x="96" y="202" style="fill:#3691C9;" width="25" height="25"/>
			</g>
		</g>
	</g>
	<g id="Right_1_">
		<g id="Rectangle_10_1_">
			<g>
				<rect x="484" y="364" style="fill:#3691C9;" width="25" height="25"/>
			</g>
		</g>
		<g id="Rectangle_10_copy_1_">
			<g>
				<rect x="484" y="283" style="fill:#3691C9;" width="25" height="25"/>
			</g>
		</g>
		<g id="Rectangle_10_copy_2_1_">
			<g>
				<rect x="484" y="202" style="fill:#3691C9;" width="25" height="25"/>
			</g>
		</g>
	</g>
	<g id="Top_1_">
		<g id="Rectangle_10_2_">
			<g>
				<rect x="364" y="96" style="fill:#3691C9;" width="25" height="25"/>
			</g>
		</g>
		<g id="Rectangle_10_copy_2_">
			<g>
				<rect x="283" y="96" style="fill:#3691C9;" width="25" height="25"/>
			</g>
		</g>
		<g id="Rectangle_10_copy_2_2_">
			<g>
				<rect x="202" y="96" style="fill:#3691C9;" width="25" height="25"/>
			</g>
		</g>
	</g>
	<g id="Bottom_1_">
		<g id="Rectangle_10_3_">
			<g>
				<rect x="364" y="484" style="fill:#3691C9;" width="25" height="25"/>
			</g>
		</g>
		<g id="Rectangle_10_copy_3_">
			<g>
				<rect x="283" y="484" style="fill:#3691C9;" width="25" height="25"/>
			</g>
		</g>
		<g id="Rectangle_10_copy_2_3_">
			<g>
				<rect x="202" y="484" style="fill:#3691C9;" width="25" height="25"/>
			</g>
		</g>
	</g>
</g>
<g id="A" style="display:none;">
</g>
<g id="Text_Line_Shapes_1_">
	<g>
		<g style="opacity:0.6;">
			<path style="fill:#3691C9;" d="M339.908,379l-11.387-37.383h-57.256L259.879,379H224l55.43-157.695h40.713L375.787,379H339.908z
				 M320.572,313.688c-10.527-33.873-16.454-53.029-17.778-57.471c-1.326-4.439-2.274-7.949-2.847-10.527
				c-2.363,9.168-9.131,31.834-20.303,67.998H320.572z"/>
		</g>
		<g id="Rectangle_8">
			<g>
				<rect x="192" y="192" style="fill:#3691C9;" width="152" height="8"/>
			</g>
		</g>
		<g id="Rectangle_9">
			<g>
				<rect x="193" y="232" style="fill:#3691C9;" width="220" height="8"/>
			</g>
		</g>
		<g id="Rectangle_9_copy">
			<g>
				<rect x="192" y="272" style="fill:#3691C9;" width="224" height="8"/>
			</g>
		</g>
		<g id="Rectangle_9_copy_2">
			<g>
				<rect x="192" y="320" style="fill:#3691C9;" width="224" height="8"/>
			</g>
		</g>
		<g id="Rectangle_9_copy_3">
			<g>
				<rect x="192" y="360" style="fill:#3691C9;" width="224" height="8"/>
			</g>
		</g>
		<g id="Rectangle_9_copy_4">
			<g>
				<rect x="193" y="400" style="fill:#3691C9;" width="220" height="8"/>
			</g>
		</g>
	</g>
</g>
<g id="Outer_Box_1_">
	<g id="Connectors_copy_1_">
		<g id="Rectangle_4">
			<g>
				<rect x="36" y="384" style="fill:#3691C9;" width="85" height="42"/>
			</g>
		</g>
		<g id="Rectangle_4_copy_3">
			<g>
				<rect x="384" y="28" style="fill:#3691C9;" width="42" height="93"/>
			</g>
		</g>
	</g>
	<g id="Box_Outlines_copy_1_">
		<g id="Rectangle_5_copy_4">
			<g>
				<rect x="4" y="4" style="fill:#3691C9;" width="42" height="422"/>
			</g>
		</g>
		<g id="Rectangle_5_copy_4_1_">
			<g>
				<rect x="4" y="4" style="fill:#3691C9;" width="422" height="42"/>
			</g>
		</g>
	</g>
</g>
</svg>
