<svg version="1.1" id="Aspose.ZIP" xmlns="http://www.w3.org/2000/svg" x="0" y="0" viewBox="0 0 512 512" style="enable-background:new 0 0 512 512" xml:space="preserve"><style>.st0{fill:#3490c6}</style><g id="Archive_Viewer"><path class="st0" d="M197.2 200.1v-30h32.5v-30.3h-32.5v-30h32.4V79.6h-32.4V48.4H192c-6.7 0-13.4 0-20.1-.1-13.6-.1-26.5-.1-40.1-.1v31.6h32.7v30.3H132v30h32.4v30.2H132v30.2h32.5v30H132v132.2h97.6V200.1h-32.4zm.4 130.3h-33.5v-33.5h33.5v33.5z"/><path class="st0" d="M378.4 395.8c-18.3 0-35.7-4.3-51-11.9v49.3c0 12.6-10.3 22.9-22.9 22.9H96.6c-12.6 0-22.9-10.3-22.9-22.9V78.7c0-12.6 10.3-22.9 22.9-22.9h207.8c12.6 0 22.9 10.3 22.9 22.9v78.6c15.4-7.6 32.7-11.9 51-11.9h1.3V78.7c0-41.5-33.8-75.2-75.2-75.2H96.6c-41.5 0-75.2 33.8-75.2 75.2v354.5c0 41.5 33.8 75.2 75.2 75.2h207.8c41.5 0 75.2-33.8 75.2-75.2v-37.5c-.3.1-.8.1-1.2.1z"/><path class="st0" d="M377.9 184.1c47.4 0 85.9 38.5 85.9 85.9 0 47.4-38.5 85.9-85.9 85.9s-85.9-38.6-85.9-86c0-47.3 38.6-85.8 85.9-85.8m0-26.9c-62.2 0-112.7 50.5-112.7 112.7s50.5 112.7 112.7 112.7 112.7-50.5 112.7-112.7-50.4-112.7-112.7-112.7z" id="Ellipse_1_copy_3_"/><path class="st0" d="M446.1 272.1c0 1-.4 2.6-.8 3.5-12.8 25-38.3 42-67.4 42-29.1 0-54.5-17-67.4-42-.5-.9-.8-2.4-.8-3.5s.4-2.6.8-3.5c12.8-25 38.3-42 67.4-42 29.1 0 54.5 17 67.4 42 .4.9.8 2.5.8 3.5zm-68.2 34.1c18.8 0 34.1-15.3 34.1-34.1S396.7 238 377.9 238s-34.1 15.3-34.1 34.1 15.3 34.1 34.1 34.1zm.1-56.8c12.5 0 22.7 10.2 22.7 22.7s-10.2 22.7-22.7 22.7-22.7-10.2-22.7-22.7c0-1.7.4-4.3.8-5.9 1.7 1.2 4.7 2.2 6.7 2.2 6.3 0 11.3-5.1 11.3-11.3 0-2.1-1-5.1-2.2-6.7 1.6-.6 4.3-1 6.1-1z"/></g></svg>