<?xml version="1.0" encoding="utf-8"?>
<!-- Generator: Adobe Illustrator 25.0.1, SVG Export Plug-In . SVG Version: 6.00 Build 0)  -->
<svg version="1.1" id="Layer_1" xmlns="http://www.w3.org/2000/svg" xmlns:xlink="http://www.w3.org/1999/xlink" x="0px" y="0px"
	 viewBox="0 0 512 512" style="enable-background:new 0 0 512 512;" xml:space="preserve">
<style type="text/css">
	.st0{fill:#3A8FC6;}
</style>
<g id="MetaData">
	<path class="st0" d="M200.87,149.97c0,16-12.97,28.98-28.98,28.98h-36.76c-16.01,0-28.98-12.98-28.98-28.98l0,0
		c0-16,12.98-28.98,28.98-28.98h36.76C187.89,120.99,200.87,133.97,200.87,149.97L200.87,149.97z"/>
	<path class="st0" d="M306.89,149.97c0,16-12.97,28.98-28.98,28.98h-36.76c-16,0-28.98-12.98-28.98-28.98l0,0
		c0-16,12.98-28.98,28.98-28.98h36.76C293.92,120.99,306.89,133.97,306.89,149.97L306.89,149.97z"/>
	<path class="st0" d="M412.92,149.97c0,16-12.98,28.98-28.98,28.98h-36.75c-16,0-28.98-12.98-28.98-28.98l0,0
		c0-16,12.98-28.98,28.98-28.98h36.75C399.94,120.99,412.92,133.97,412.92,149.97L412.92,149.97z"/>
	<path class="st0" d="M101.91,220.66c0,16.01-12.98,28.98-28.98,28.98H36.17c-16.01,0-28.98-12.98-28.98-28.98l0,0
		c0-16,12.98-28.98,28.98-28.98h36.75C88.93,191.68,101.91,204.65,101.91,220.66L101.91,220.66z"/>
	<path class="st0" d="M207.93,220.66c0,16.01-12.98,28.98-28.98,28.98H142.2c-16.01,0-28.98-12.98-28.98-28.98l0,0
		c0-16,12.97-28.98,28.98-28.98h36.75C194.96,191.68,207.93,204.65,207.93,220.66L207.93,220.66z"/>
	<path class="st0" d="M313.96,220.66c0,16.01-12.97,28.98-28.98,28.98h-36.76c-16.01,0-28.98-12.98-28.98-28.98l0,0
		c0-16,12.98-28.98,28.98-28.98h36.76C300.99,191.68,313.96,204.65,313.96,220.66L313.96,220.66z"/>
	<path class="st0" d="M321.03,220.66c0,16.01-12.97,28.98-28.98,28.98h-36.76c-16,0-28.98-12.98-28.98-28.98l0,0
		c0-16,12.98-28.98,28.98-28.98h36.76C308.05,191.68,321.03,204.65,321.03,220.66L321.03,220.66z"/>
	<path class="st0" d="M321.03,291.34c0,16-12.97,28.98-28.98,28.98h-36.76c-16,0-28.98-12.97-28.98-28.98l0,0
		c0-16.01,12.98-28.98,28.98-28.98h36.76C308.05,262.36,321.03,275.34,321.03,291.34L321.03,291.34z"/>
	<path class="st0" d="M427.06,291.34c0,16-12.98,28.98-28.98,28.98h-36.75c-16.01,0-28.98-12.97-28.98-28.98l0,0
		c0-16.01,12.98-28.98,28.98-28.98h36.75C414.08,262.36,427.06,275.34,427.06,291.34L427.06,291.34z"/>
	<path class="st0" d="M100.49,291.34c0,16-12.98,28.98-28.98,28.98H34.76c-16,0-28.98-12.97-28.98-28.98l0,0
		c0-16.01,12.98-28.98,28.98-28.98h36.76C87.52,262.36,100.49,275.34,100.49,291.34L100.49,291.34z"/>
	<path class="st0" d="M207.93,362.03c0,16-12.98,28.98-28.98,28.98H142.2c-16.01,0-28.98-12.97-28.98-28.98l0,0
		c0-16.01,12.97-28.98,28.98-28.98h36.75C194.96,333.05,207.93,346.02,207.93,362.03L207.93,362.03z"/>
	<path class="st0" d="M427.06,362.03c0,16-12.98,28.98-28.98,28.98h-36.75c-16.01,0-28.98-12.97-28.98-28.98l0,0
		c0-16.01,12.98-28.98,28.98-28.98h36.75C414.08,333.05,427.06,346.02,427.06,362.03L427.06,362.03z"/>
	<path class="st0" d="M506.22,220.66c0,16.01-12.97,28.98-28.98,28.98h-36.75c-16.01,0-28.98-12.98-28.98-28.98l0,0
		c0-16,12.98-28.98,28.98-28.98h36.75C493.25,191.68,506.22,204.65,506.22,220.66L506.22,220.66z"/>
</g>
<g>
</g>
<g>
</g>
<g>
</g>
<g>
</g>
<g>
</g>
</svg>
