<?xml version="1.0" encoding="utf-8"?>
<!-- Generator: Adobe Illustrator 25.0.1, SVG Export Plug-In . SVG Version: 6.00 Build 0)  -->
<svg version="1.1" id="Aspose.Video" xmlns="http://www.w3.org/2000/svg" xmlns:xlink="http://www.w3.org/1999/xlink" x="0px"
	 y="0px" viewBox="0 0 512 512" style="enable-background:new 0 0 512 512;" xml:space="preserve">
<style type="text/css">
	.st0{fill:#3593CB;}
</style>
<g id="Flip_Video">
	<g>
		<g>
			<g>
				<path class="st0" d="M332.9,292.6l-246.3,0.6c-10,0-18.1-8.1-18.1-18.1L68.1,93.7c0-10,8.1-18.1,18.1-18.1L332.4,75
					c10,0,18.1,8.1,18.1,18.1l0.4,181.4C351,284.4,342.9,292.5,332.9,292.6z"/>
			</g>
			<g>
				<path class="st0" d="M308.6,192.7l116.1,98.4c7.6,6.4,19.2,1,19.2-8.9l-0.4-197.4c0-9.9-11.7-15.3-19.2-8.8l-115.7,99
					C303.1,179.6,303.1,188.1,308.6,192.7z"/>
			</g>
		</g>
	</g>
	<g>
		<path class="st0" d="M256,398.1c-65.9,0-128.2-11.4-175.2-32c-51-22.3-79.1-53.6-79.1-87.9c0-21.9,11.7-43.1,33.8-61.2
			c6.4-5.2,15.9-4.3,21.1,2.1c5.2,6.4,4.3,15.9-2.1,21.1c-10.4,8.5-22.8,22-22.8,37.9c0,21.4,22.3,43.4,61.1,60.4
			c43.3,19,101.3,29.5,163.2,29.5c8.3,0,15,6.7,15,15S264.3,398.1,256,398.1z"/>
	</g>
	<g>
		<path class="st0" d="M328.9,393.2c-7.4,0-13.8-5.4-14.8-12.9c-1.1-8.2,4.6-15.8,12.8-16.9c22.4-3.1,43.5-7.8,62.7-13.7
			c56-17.3,90.7-44.7,90.7-71.4c0-8.4-3.4-16.9-10.1-25.3c-3.2-4-7.2-8-11.9-11.9c-6.4-5.3-7.2-14.8-1.9-21.1
			c5.3-6.4,14.8-7.2,21.1-1.9c6.2,5.2,11.6,10.6,16.1,16.3c11.1,13.9,16.7,28.7,16.7,44.1c0,41.5-40.8,78-111.8,100
			c-20.7,6.4-43.4,11.4-67.5,14.8C330.3,393.1,329.6,393.2,328.9,393.2z"/>
	</g>
	<g>
		<g>
			<path class="st0" d="M211.3,331.2L211.3,331.2c6-5.4,15.2-5,20.6,1l39.2,43c5.4,6,5,15.2-1,20.6l0,0c-6,5.4-15.2,5-20.6-1
				l-39.2-43C204.9,345.9,205.3,336.7,211.3,331.2z"/>
		</g>
		<g>
			<path class="st0" d="M271.1,375.2L271.1,375.2c5.4,6,5,15.2-1,20.6l-43,39.2c-6,5.4-15.2,5-20.6-1l0,0c-5.4-6-5-15.2,1-20.6
				l43-39.2C256.4,368.8,265.6,369.2,271.1,375.2z"/>
		</g>
	</g>
</g>
</svg>
