<?xml version="1.0" encoding="utf-8"?>
<!-- Generator: Adobe Illustrator 25.0.1, SVG Export Plug-In . SVG Version: 6.00 Build 0)  -->
<svg version="1.1" id="Layer_1" xmlns="http://www.w3.org/2000/svg" xmlns:xlink="http://www.w3.org/1999/xlink" x="0px" y="0px"
	 viewBox="0 0 512 512" style="enable-background:new 0 0 512 512;" xml:space="preserve">
<style type="text/css">
	.st0{fill:#3A8FC6;}
</style>
<g>
	<g id="Viewer_1_">
		<path class="st0" d="M266.67,148.7c-5.42-0.22-3.4-0.23-7.76-0.22c0.79,6.33,0.49,10.27-0.79,16.69
			c-1.08,5.43-2.23,8.1-3.35,10.48c-1.43,3.05-1.75,3.41-6.65,12.38c1.55-0.01,7.06,0.05,8.14,0.05
			c137.12-0.91,202.24,113.6,202.24,113.6s-54.86,118.35-197.05,118.35c-142.18,0-207.41-118.35-207.41-118.35
			s21.95-38.27,67.17-70.39c-7.15-4.67-9.77-6.66-13.6-10.17c-5.72-5.25-6.92-7.83-13.73-17.2C36.16,247.5,8.17,300.88,8.17,300.88
			S88.21,459.6,262.63,459.6c174.42,0,241.73-158.72,241.73-158.72S434.75,155.5,266.67,148.7z"/>
		<path class="st0" d="M345.33,300.88c0-49.09-39.87-88.87-89.06-88.87c-49.18,0-89.05,39.78-89.05,88.87
			c0,49.08,39.87,88.88,89.05,88.88C305.46,389.77,345.33,349.97,345.33,300.88z M218.09,300.88c0-21.04,17.09-38.09,38.17-38.09
			c21.08,0,38.16,17.05,38.16,38.09c0,21.04-17.08,38.09-38.16,38.09C235.19,338.98,218.09,321.93,218.09,300.88z"/>
	</g>
	<g>
		<path class="st0" d="M97.54,84.69c0,8.47-2.57,15.68-7.7,21.62c-5.13,5.94-12.34,10.02-21.62,12.25v0.56
			c10.95,1.36,19.23,4.69,24.86,9.97c5.63,5.29,8.44,12.42,8.44,21.38c0,13.05-4.73,23.21-14.19,30.48
			c-9.46,7.27-22.98,10.9-40.54,10.9c-14.72,0-27.77-2.44-39.15-7.33v-24.4c5.26,2.66,11.04,4.82,17.35,6.49s12.55,2.5,18.74,2.5
			c9.46,0,16.45-1.61,20.97-4.82c4.51-3.22,6.77-8.38,6.77-15.49c0-6.37-2.6-10.88-7.79-13.54c-5.2-2.66-13.48-3.99-24.86-3.99
			h-10.3v-21.99H39c10.51,0,18.2-1.38,23.05-4.13c4.85-2.75,7.28-7.47,7.28-14.15c0-10.27-6.43-15.4-19.3-15.4
			c-4.45,0-8.98,0.74-13.59,2.23c-4.61,1.48-9.73,4.05-15.35,7.7L7.82,65.76C20.19,56.85,34.94,52.4,52.08,52.4
			c14.04,0,25.13,2.85,33.26,8.54C93.47,66.63,97.54,74.54,97.54,84.69z"/>
		<path class="st0" d="M238.46,120.87c0,22.33-6.35,39.43-19.06,51.3s-31.06,17.81-55.06,17.81h-38.41V54.35h42.58
			c22.14,0,39.34,5.84,51.58,17.53S238.46,99.9,238.46,120.87z M208.59,121.61c0-29.13-12.87-43.7-38.59-43.7h-15.31v88.32h12.34
			C194.73,166.23,208.59,151.36,208.59,121.61z"/>
	</g>
</g>
<g>
</g>
<g>
</g>
<g>
</g>
<g>
</g>
<g>
</g>
</svg>
