<?xml version="1.0" encoding="utf-8"?>
<!-- Generator: Adobe Illustrator 25.0.1, SVG Export Plug-In . SVG Version: 6.00 Build 0)  -->
<svg version="1.1" id="Layer_1" xmlns="http://www.w3.org/2000/svg" xmlns:xlink="http://www.w3.org/1999/xlink" x="0px" y="0px"
	 viewBox="0 0 512 512" style="enable-background:new 0 0 512 512;" xml:space="preserve">
<style type="text/css">
	.st0{fill:#3A8FC6;}
</style>
<g id="reverse">
	<polygon class="st0" points="269.21,211.42 226.37,160.41 154.86,254.26 319.19,254.26 296.81,165.74 	"/>
	<path class="st0" d="M326.52,96.22l42.42-71.71l134.64,229.74H358.71C358.71,254.26,385.05,162.07,326.52,96.22z"/>
	<path class="st0" d="M446.81,409.21L318.63,297.54c-0.47-0.47-1.02-0.8-1.52-1.24c17.49-26.53,27.69-58.29,27.69-92.44
		c0-92.88-75.3-168.18-168.2-168.18c-92.88,0-168.19,75.3-168.19,168.18c0,92.9,75.3,168.2,168.19,168.2
		c34.16,0,65.91-10.21,92.44-27.69c0.44,0.48,0.77,1.04,1.24,1.52l111.67,128.17c17.91,17.9,46.94,17.9,64.85,0
		C464.72,456.15,464.72,427.12,446.81,409.21z M176.61,313.75c-60.68,0-109.88-49.2-109.88-109.89
		c0-60.69,49.2-109.88,109.88-109.88c60.69,0,109.89,49.2,109.89,109.88C286.5,264.55,237.3,313.75,176.61,313.75z"/>
	<path class="st0" d="M143.54,172.21c0,11.78-9.55,21.32-21.32,21.32h-41.7c-11.78,0-21.32-9.55-21.32-21.32l0,0
		c0-11.78,9.55-21.32,21.32-21.32h41.7C133.99,150.89,143.54,160.44,143.54,172.21L143.54,172.21z"/>
	<path class="st0" d="M143.54,230.82c0,11.78-9.55,21.32-21.32,21.32h-41.7c-11.78,0-21.32-9.55-21.32-21.32l0,0
		c0-11.78,9.55-21.32,21.32-21.32h41.7C133.99,209.5,143.54,219.04,143.54,230.82L143.54,230.82z"/>
</g>
<g>
</g>
<g>
</g>
<g>
</g>
<g>
</g>
<g>
</g>
</svg>
