<?xml version="1.0" encoding="utf-8"?>
<!-- Generator: Adobe Illustrator 25.0.1, SVG Export Plug-In . SVG Version: 6.00 Build 0)  -->
<svg version="1.1" id="Layer_1" xmlns="http://www.w3.org/2000/svg" xmlns:xlink="http://www.w3.org/1999/xlink" x="0px" y="0px"
	 viewBox="0 0 512 512" style="enable-background:new 0 0 512 512;" xml:space="preserve">
<style type="text/css">
	.st0{fill:#3A8FC6;}
</style>
<g id="Comparison">
	<path class="st0" d="M75.8,428.04c-12.46,0-22.56-10.1-22.56-22.56V106.52c0-12.46,10.1-22.56,22.56-22.56h60.33
		c0,0,30.92-51.89,32.74-55.74h-99.2c-33,0-59.75,26.75-59.75,59.75v336.07c0,33,26.75,59.75,59.75,59.75h96.34l-29.87-55.74H75.8z"
		/>
	<g>
		<path class="st0" d="M442.33,28.22H231.73c-33,0-59.75,26.75-59.75,59.75v37.59h-45.31c-15.95,0-28.88,12.93-28.88,28.88
			c0,15.95,12.93,28.88,28.88,28.88h45.31v31.86h-45.31c-15.95,0-28.88,12.93-28.88,28.88c0,15.95,12.93,28.88,28.88,28.88h45.31
			v151.11c0,33,26.75,59.75,59.75,59.75h210.61c33,0,59.75-26.75,59.75-59.75V87.96C502.08,54.97,475.33,28.22,442.33,28.22z
			 M458.76,405.48c0,12.46-10.1,22.56-22.56,22.56H237.86c-12.46,0-22.56-10.1-22.56-22.56V106.52c0-12.46,10.1-22.56,22.56-22.56
			H436.2c12.46,0,22.56,10.1,22.56,22.56V405.48z"/>
		<path class="st0" d="M401.01,125.55H276.04c-15.95,0-28.88,12.93-28.88,28.88c0,15.95,12.93,28.88,28.88,28.88h124.97
			c15.95,0,28.88-12.93,28.88-28.88C429.88,138.48,416.96,125.55,401.01,125.55z"/>
		<path class="st0" d="M401.01,215.17H276.04c-15.95,0-28.88,12.93-28.88,28.88c0,15.95,12.93,28.88,28.88,28.88h124.97
			c15.95,0,28.88-12.93,28.88-28.88C429.88,228.1,416.96,215.17,401.01,215.17z"/>
	</g>
</g>
<g>
</g>
<g>
</g>
<g>
</g>
<g>
</g>
<g>
</g>
</svg>
