<svg version="1.1" id="Aspose.3D" xmlns="http://www.w3.org/2000/svg" x="0" y="0" viewBox="0 0 512 512" style="enable-background:new 0 0 512 512" xml:space="preserve"><style>.st0{fill:none}.st1{fill:#3691c9}.st2{fill:url(#New_Pattern_4)}.st4{fill:#fff}.st5{fill:#2b7ea8}.st6{fill:#3593cb}</style><pattern width="146.8" height="49.4" patternUnits="userSpaceOnUse" id="New_Pattern_4" viewBox="8 -69.1 146.8 49.4" style="overflow:visible"><path class="st0" d="M8-69.1h146.8v49.4H8z"/><path class="st1" d="M110.1-8v-23.5c0-4.4 3.6-8 8-8s8 3.6 8 8V-8c0 4.4-3.6 8-8 8s-8-3.6-8-8zM36.7-8v-23.5c0-4.4 3.6-8 8-8s8 3.6 8 8V-8c0 4.4-3.6 8-8 8s-8-3.6-8-8zM146.8-32.7v-23.5c0-4.4 3.6-8 8-8s8 3.6 8 8v23.5c0 4.4-3.6 8-8 8s-8-3.6-8-8zM110.1-57.4v-23.5c0-4.4 3.6-8 8-8s8 3.6 8 8v23.5c0 4.4-3.6 8-8 8s-8-3.6-8-8zM73.4-32.7v-23.5c0-4.4 3.6-8 8-8s8 3.6 8 8v23.5c0 4.4-3.6 8-8 8s-8-3.6-8-8zM36.7-57.4v-23.5c0-4.4 3.6-8 8-8s8 3.6 8 8v23.5c0 4.4-3.6 8-8 8s-8-3.6-8-8zM0-32.7v-23.5c0-4.4 3.6-8 8-8s8 3.6 8 8v23.5c0 4.4-3.6 8-8 8s-8-3.6-8-8z"/></pattern><pattern width="46.5" height="62.6" patternUnits="userSpaceOnUse" id="New_Pattern_5" viewBox="19.2 -70.5 46.5 62.6" style="overflow:visible"><path class="st0" d="M19.2-70.5h46.5v62.6H19.2z"/><path class="st1" d="M77 0H54.4c-4.4 0-8-3.6-8-8s3.6-8 8-8H77c4.4 0 8 3.6 8 8-.1 4.4-3.6 8-8 8zM30.5 0H8C3.6 0 0-3.6 0-8s3.6-8 8-8h22.6c4.4 0 8 3.6 8 8-.1 4.4-3.7 8-8.1 8zM53.8-31.3H31.2c-4.4 0-8-3.6-8-8s3.6-8 8-8h22.6c4.4 0 8 3.6 8 8-.1 4.5-3.7 8-8 8zM77-62.6H54.4c-4.4 0-8-3.6-8-8s3.6-8 8-8H77c4.4 0 8 3.6 8 8-.1 4.5-3.6 8-8 8zM30.5-62.6H8c-4.4 0-8-3.6-8-8s3.6-8 8-8h22.6c4.4 0 8 3.6 8 8-.1 4.5-3.7 8-8.1 8z"/></pattern><g id="_x32_D_to_3D"><path class="st1" d="M196.7 263H16.2V2.3h276.1v182.5l-23 5.7V25.3H39.2V240h157.5z"/><path class="st1" d="M154.2 85.9 65.4 201.5h177.7z"/><circle class="st1" cx="99.7" cy="82.9" r="14.8"/><g><path class="st2" d="m211.5 245.4.3 228.7 136.4 35.6 1.1-226.3z" id="Shape_3_copy_15_2_"/><path d="M353.5 190.1c-48.6 12.5-93.3 26.4-142 39 48.7 14.7 89.9 27.8 138.2 39.3 47.3-12 98.6-24.5 146.1-37.6-47.5-13.9-94.9-27-142.3-40.7z" style="fill:url(#New_Pattern_5)" id="Shape_1_copy_4_1_"/><path class="st2" d="m355.1 283.4 1 226.3 139.5-35.6.2-228.7z" id="Shape_3_copy_15_1_"/><path class="st4" d="M450.8 426.2 353.7 492l-99.1-62.5 100.6-132.3 95.6 129z"/><path class="st1" d="M353.7 322 277 423.4l76.5 48.5 76.9-48.8z"/><path class="st5" d="M353.7 322 327 357.3l-50 66.1 76.5 48.5.2-.1z"/><g><ellipse class="st4" cx="289.3" cy="329.4" rx="26" ry="25.5"/><ellipse class="st5" cx="286.9" cy="329.4" rx="16.5" ry="16.4"/><ellipse class="st1" cx="292.6" cy="331.1" rx="16.4" ry="16.3"/></g></g><g><path class="st6" d="M155.1 418.5c-9.2 0-21.8-.9-33.8-4.6-20.1-6.2-37-18.9-50-37.9-17.1-24.8-12.9-76.3-12.4-82.1.6-6.3 6.2-11 12.5-10.4 6.3.6 11 6.2 10.4 12.5-1.7 18.7-.9 53.4 8.4 66.9 10.2 14.8 22.6 24.3 37.9 29 17.5 5.4 37.8 3 38 3 6.3-.7 12.1 3.7 12.8 10.1.8 6.3-3.7 12.1-10 12.8-.4.1-5.9.7-13.8.7z"/><path class="st6" d="M147.8 443.2c3.8 4.4 10.5 4.7 14.8.8l31.3-28.3c4.3-3.9 4.8-10.6.9-15-3.8-4.4-10.5-4.7-14.8-.8l-31.3 28.3c-4.3 3.9-4.7 10.6-.9 15z"/><path class="st6" d="M152.4 368.4c-4.3 3.9-4.8 10.6-.9 15l27.7 31.5c3.8 4.4 10.5 4.7 14.8.8 4.3-3.9 4.8-10.6.9-15l-27.7-31.5c-3.8-4.4-10.5-4.7-14.8-.8z"/></g></g></svg>