<?xml version="1.0" encoding="utf-8"?>
<!-- Generator: Adobe Illustrator 25.0.1, SVG Export Plug-In . SVG Version: 6.00 Build 0)  -->
<svg version="1.1" id="Layer_1" xmlns="http://www.w3.org/2000/svg" xmlns:xlink="http://www.w3.org/1999/xlink" x="0px" y="0px"
	 viewBox="0 0 512 512" style="enable-background:new 0 0 512 512;" xml:space="preserve">
<style type="text/css">
	.st0{display:none;fill:#3A8FC6;}
	.st1{fill-rule:evenodd;clip-rule:evenodd;fill:#3A8FC6;}
	.st2{fill:#3A8FC6;}
</style>
<g id="Tiff">
	<polygon class="st0" points="95.84,368.89 50.6,315.04 -24.89,414.12 247.7,414.12 155.07,270.88 	"/>
	<path class="st1" d="M307.85,263.86h172.97c11.09,0,20.07,8.98,20.07,20.07v0.79c0,11.08-8.98,20.07-20.07,20.07H307.85
		c-11.09,0-20.07-8.99-20.07-20.07v-0.79C287.78,272.84,296.76,263.86,307.85,263.86z"/>
	<path class="st1" d="M345.43,337.76h135.39c11.09,0,20.07,8.98,20.07,20.07v0.79c0,11.08-8.98,20.07-20.07,20.07H345.43
		c-11.09,0-20.07-8.99-20.07-20.07v-0.79C325.36,346.75,334.34,337.76,345.43,337.76z"/>
	<path class="st2" d="M334.61,215.84c0,10.83-8.78,19.62-19.62,19.62h-24.88c-10.84,0-19.62-8.78-19.62-19.62l0,0
		c0-10.83,8.78-19.62,19.62-19.62h24.88C325.82,196.22,334.61,205.01,334.61,215.84L334.61,215.84z"/>
	<path class="st2" d="M331.89,143.64c0,10.38-8.41,18.79-18.79,18.79h-23.83c-10.38,0-18.79-8.41-18.79-18.79l0,0
		c0-10.38,8.41-18.79,18.79-18.79h23.83C323.48,124.85,331.89,133.26,331.89,143.64L331.89,143.64z"/>
	<path class="st2" d="M416.39,216.67c0,10.38-8.41,18.79-18.79,18.79h-23.83c-10.38,0-18.79-8.41-18.79-18.79l0,0
		c0-10.38,8.41-18.79,18.79-18.79h23.83C407.98,197.88,416.39,206.3,416.39,216.67L416.39,216.67z"/>
	<path class="st2" d="M416.39,143.64c0,10.38-8.41,18.79-18.79,18.79h-23.83c-10.38,0-18.79-8.41-18.79-18.79l0,0
		c0-10.38,8.41-18.79,18.79-18.79h23.83C407.98,124.85,416.39,133.26,416.39,143.64L416.39,143.64z"/>
	<path class="st2" d="M500.89,216.67c0,10.38-8.41,18.79-18.79,18.79h-23.83c-10.38,0-18.79-8.41-18.79-18.79l0,0
		c0-10.38,8.41-18.79,18.79-18.79h23.83C492.48,197.88,500.89,206.3,500.89,216.67L500.89,216.67z"/>
	<path class="st2" d="M500.89,143.64c0,10.38-8.41,18.79-18.79,18.79h-23.83c-10.38,0-18.79-8.41-18.79-18.79l0,0
		c0-10.38,8.41-18.79,18.79-18.79h23.83C492.48,124.85,500.89,133.26,500.89,143.64L500.89,143.64z"/>
	<path class="st2" d="M412,390.48L295.25,288.76c-0.43-0.43-0.93-0.73-1.38-1.13c15.93-24.17,25.22-53.1,25.22-84.2
		c0-84.6-68.6-153.2-153.21-153.2c-84.61,0-153.2,68.59-153.2,153.2c0,84.62,68.59,153.21,153.2,153.21
		c31.12,0,60.03-9.3,84.2-25.22c0.4,0.44,0.7,0.94,1.13,1.38l101.72,116.75c16.31,16.3,42.75,16.3,59.07,0
		C428.32,433.23,428.32,406.79,412,390.48z M165.88,303.52c-55.27,0-100.09-44.81-100.09-100.1c0-55.28,44.82-100.09,100.09-100.09
		c55.28,0,100.1,44.82,100.1,100.09C265.98,258.71,221.16,303.52,165.88,303.52z"/>
	<polygon class="st2" points="66,279.33 112.5,221.34 147.5,259.85 201,162.93 270.49,271.42 210,320 102,320 	"/>
	<circle class="st2" cx="131" cy="154.57" r="30"/>
</g>
<g>
</g>
<g>
</g>
<g>
</g>
<g>
</g>
<g>
</g>
</svg>
