<?xml version="1.0" encoding="utf-8"?>
<!-- Generator: Adobe Illustrator 25.0.1, SVG Export Plug-In . SVG Version: 6.00 Build 0)  -->
<svg version="1.1" id="Layer_1" xmlns="http://www.w3.org/2000/svg" xmlns:xlink="http://www.w3.org/1999/xlink" x="0px" y="0px"
	 viewBox="0 0 512 512" style="enable-background:new 0 0 512 512;" xml:space="preserve">
<style type="text/css">
	.st0{fill:#3A8FC7;}
	.st1{fill:#FFFFFF;}
</style>
<g id="Meme_Creator">
	<g>
		<path class="st0" d="M435.55,65.43c6.09,0,11.02,4.93,11.02,11.02v359.09c0,6.09-4.93,11.02-11.02,11.02H76.45
			c-6.09,0-11.02-4.93-11.02-11.02V76.45c0-6.09,4.93-11.02,11.02-11.02H435.55 M435.55,35.43H76.45
			c-22.62,0-41.02,18.4-41.02,41.02v359.09c0,22.62,18.4,41.02,41.02,41.02h359.09c22.62,0,41.02-18.4,41.02-41.02V76.45
			C476.57,53.84,458.16,35.43,435.55,35.43L435.55,35.43z"/>
	</g>
	<g>
		<rect x="57" y="65.43" class="st0" width="400" height="147.04"/>
	</g>
	<g>
		<path class="st1" d="M222.89,148.49h-36.25l-4.31,9.99c-1.41,3.33-2.12,6.08-2.12,8.25c0,2.88,1.16,5,3.48,6.36
			c1.36,0.81,4.72,1.41,10.07,1.82v2.8h-34.13v-2.8c3.68-0.55,6.71-2.08,9.08-4.58c2.37-2.5,5.3-7.66,8.78-15.48l36.71-81.89h1.44
			l37.01,84.16c3.53,7.97,6.43,12.99,8.7,15.06c1.71,1.56,4.14,2.47,7.27,2.72v2.8h-49.65v-2.8H221c3.99,0,6.79-0.55,8.4-1.67
			c1.11-0.81,1.67-1.97,1.67-3.48c0-0.91-0.15-1.84-0.45-2.8c-0.1-0.45-0.86-2.35-2.27-5.68L222.89,148.49z M220.32,142.89
			l-15.29-35.34l-15.74,35.34H220.32z"/>
		<path class="st1" d="M318.49,167.26c-8.63,7.62-16.37,11.43-23.24,11.43c-4.04,0-7.39-1.32-10.07-3.97
			c-2.68-2.65-4.01-5.97-4.01-9.95c0-5.4,2.32-10.26,6.96-14.57c4.64-4.31,14.76-10.05,30.35-17.22v-7.11
			c0-5.35-0.29-8.72-0.87-10.1c-0.58-1.39-1.68-2.6-3.29-3.63c-1.62-1.03-3.43-1.55-5.45-1.55c-3.28,0-5.98,0.73-8.1,2.19
			c-1.31,0.91-1.97,1.97-1.97,3.18c0,1.06,0.71,2.37,2.12,3.94c1.92,2.17,2.88,4.26,2.88,6.28c0,2.47-0.92,4.58-2.76,6.32
			c-1.84,1.74-4.25,2.61-7.23,2.61c-3.18,0-5.84-0.96-7.98-2.88c-2.14-1.92-3.22-4.16-3.22-6.74c0-3.63,1.44-7.1,4.31-10.41
			c2.88-3.3,6.89-5.84,12.03-7.61c5.15-1.77,10.49-2.65,16.04-2.65c6.71,0,12.02,1.43,15.93,4.28c3.91,2.85,6.45,5.94,7.61,9.27
			c0.71,2.12,1.06,6.99,1.06,14.61v27.47c0,3.23,0.12,5.26,0.38,6.09c0.25,0.83,0.63,1.45,1.13,1.85c0.5,0.4,1.08,0.61,1.74,0.61
			c1.31,0,2.65-0.93,4.01-2.8l2.27,1.82c-2.52,3.73-5.13,6.45-7.83,8.14c-2.7,1.69-5.77,2.54-9.2,2.54c-4.04,0-7.19-0.95-9.46-2.84
			C320.38,173.96,319,171.09,318.49,167.26z M318.49,161.73v-23.69c-6.11,3.58-10.65,7.42-13.62,11.5
			c-1.97,2.72-2.95,5.48-2.95,8.25c0,2.32,0.83,4.36,2.5,6.13c1.26,1.36,3.03,2.04,5.3,2.04
			C312.24,165.97,315.16,164.56,318.49,161.73z"/>
	</g>
	<g>
		<g>
			<polygon class="st0" points="303.35,254.06 183.79,416.41 422.91,416.41 			"/>
		</g>
		<g>
			<polygon class="st0" points="188.54,308.05 81.09,416.41 295.99,416.41 			"/>
		</g>
	</g>
</g>
<g>
</g>
<g>
</g>
<g>
</g>
<g>
</g>
<g>
</g>
</svg>
