<?xml version="1.0" encoding="utf-8"?>
<!-- Generator: Adobe Illustrator 25.0.1, SVG Export Plug-In . SVG Version: 6.00 Build 0)  -->
<svg version="1.1" id="Layer_1" xmlns="http://www.w3.org/2000/svg" xmlns:xlink="http://www.w3.org/1999/xlink" x="0px" y="0px"
	 viewBox="0 0 512 512" style="enable-background:new 0 0 512 512;" xml:space="preserve">
<style type="text/css">
	.st0{fill:#3A8FC6;}
	.st1{fill:#E6E7E8;}
	.st2{fill:#FFFFFF;}
</style>
<g>
	<g>
		<g>
			<path class="st0" d="M492.15,172.39c0,14.1-11.43,25.53-25.53,25.53H45.38c-14.1,0-25.53-11.43-25.53-25.53v-63.83
				c0-14.1,11.43-25.53,25.53-25.53h421.24c14.1,0,25.53,11.43,25.53,25.53V172.39z"/>
			<path class="st1" d="M466.62,201.16H45.38c-15.86,0-28.77-12.91-28.77-28.77v-63.83c0-15.86,12.91-28.77,28.77-28.77h421.24
				c15.86,0,28.77,12.91,28.77,28.77v63.83C495.39,188.25,482.49,201.16,466.62,201.16z M45.38,86.27c-12.29,0-22.29,10-22.29,22.29
				v63.83c0,12.29,10,22.29,22.29,22.29h421.24c12.29,0,22.29-10,22.29-22.29v-63.83c0-12.29-10-22.29-22.29-22.29H45.38z"/>
		</g>
		<g>
			<path class="st0" d="M492.15,288.55c0,14.1-11.43,25.53-25.53,25.53H45.38c-14.1,0-25.53-11.43-25.53-25.53v-63.83
				c0-14.1,11.43-25.53,25.53-25.53h421.24c14.1,0,25.53,11.43,25.53,25.53V288.55z"/>
			<path class="st1" d="M466.62,317.32H45.38c-15.86,0-28.77-12.91-28.77-28.77v-63.83c0-15.86,12.91-28.77,28.77-28.77h421.24
				c15.86,0,28.77,12.91,28.77,28.77v63.83C495.39,304.41,482.49,317.32,466.62,317.32z M45.38,202.44
				c-12.29,0-22.29,10-22.29,22.29v63.83c0,12.29,10,22.29,22.29,22.29h421.24c12.29,0,22.29-10,22.29-22.29v-63.83
				c0-12.29-10-22.29-22.29-22.29H45.38z"/>
		</g>
		<g>
			<path class="st0" d="M492.15,403.44c0,14.1-11.43,25.53-25.53,25.53H45.38c-14.1,0-25.53-11.43-25.53-25.53v-63.82
				c0-14.1,11.43-25.53,25.53-25.53h421.24c14.1,0,25.53,11.43,25.53,25.53V403.44z"/>
			<path class="st1" d="M466.62,432.21H45.38c-15.86,0-28.77-12.91-28.77-28.77v-63.82c0-15.86,12.91-28.77,28.77-28.77h421.24
				c15.86,0,28.77,12.91,28.77,28.77v63.82C495.39,419.3,482.49,432.21,466.62,432.21z M45.38,317.32c-12.29,0-22.29,10-22.29,22.29
				v63.82c0,12.29,10,22.29,22.29,22.29h421.24c12.29,0,22.29-10,22.29-22.29v-63.82c0-12.29-10-22.29-22.29-22.29H45.38z"/>
		</g>
	</g>
	<g>
		<path class="st2" d="M450.03,255.36c0,7.76-6.29,14.04-14.04,14.04c-7.75,0-14.04-6.29-14.04-14.04c0-7.75,6.29-14.04,14.04-14.04
			C443.74,241.32,450.03,247.61,450.03,255.36z"/>
	</g>
	<g>
		<path class="st2" d="M450.03,137.71c0,7.75-6.29,14.04-14.04,14.04c-7.75,0-14.04-6.29-14.04-14.04c0-7.76,6.29-14.04,14.04-14.04
			C443.74,123.67,450.03,129.96,450.03,137.71z"/>
	</g>
	<g>
		<path class="st2" d="M450.03,370.25c0,7.75-6.29,14.04-14.04,14.04c-7.75,0-14.04-6.29-14.04-14.04c0-7.76,6.29-14.04,14.04-14.04
			C443.74,356.2,450.03,362.49,450.03,370.25z"/>
	</g>
	<g>
		<g>
			<path class="st2" d="M126.1,127.71c0,3.52-2.86,6.38-6.38,6.38H68.66c-3.52,0-6.38-2.86-6.38-6.38l0,0
				c0-3.52,2.86-6.38,6.38-6.38h51.06C123.24,121.33,126.1,124.19,126.1,127.71L126.1,127.71z"/>
		</g>
		<g>
			<path class="st2" d="M126.1,153.24c0,3.52-2.86,6.38-6.38,6.38H68.66c-3.52,0-6.38-2.86-6.38-6.38l0,0
				c0-3.52,2.86-6.38,6.38-6.38h51.06C123.24,146.86,126.1,149.72,126.1,153.24L126.1,153.24z"/>
		</g>
	</g>
	<g>
		<g>
			<path class="st2" d="M126.1,242.6c0,3.52-2.86,6.38-6.38,6.38H68.66c-3.52,0-6.38-2.86-6.38-6.38l0,0c0-3.52,2.86-6.38,6.38-6.38
				h51.06C123.24,236.21,126.1,239.07,126.1,242.6L126.1,242.6z"/>
		</g>
		<g>
			<path class="st2" d="M126.1,268.13c0,3.52-2.86,6.38-6.38,6.38H68.66c-3.52,0-6.38-2.86-6.38-6.38l0,0
				c0-3.53,2.86-6.38,6.38-6.38h51.06C123.24,261.74,126.1,264.6,126.1,268.13L126.1,268.13z"/>
		</g>
	</g>
	<g>
		<g>
			<path class="st2" d="M126.1,357.48c0,3.53-2.86,6.38-6.38,6.38H68.66c-3.52,0-6.38-2.86-6.38-6.38l0,0
				c0-3.53,2.86-6.38,6.38-6.38h51.06C123.24,351.1,126.1,353.96,126.1,357.48L126.1,357.48z"/>
		</g>
		<g>
			<path class="st2" d="M126.1,383.01c0,3.53-2.86,6.38-6.38,6.38H68.66c-3.52,0-6.38-2.86-6.38-6.38l0,0
				c0-3.53,2.86-6.38,6.38-6.38h51.06C123.24,376.63,126.1,379.49,126.1,383.01L126.1,383.01z"/>
		</g>
	</g>
</g>
<g>
</g>
<g>
</g>
<g>
</g>
<g>
</g>
<g>
</g>
</svg>
