<?xml version="1.0" encoding="utf-8"?>
<!-- Generator: Adobe Illustrator 25.0.1, SVG Export Plug-In . SVG Version: 6.00 Build 0)  -->
<svg version="1.1" id="eml_1_" xmlns="http://www.w3.org/2000/svg" xmlns:xlink="http://www.w3.org/1999/xlink" x="0px" y="0px"
	 viewBox="0 0 512 512" style="enable-background:new 0 0 512 512;" xml:space="preserve">
<style type="text/css">
	.st0{fill:#3691C9;}
	.st1{fill:#FFFFFF;}
</style>
<g id="Rounded_Rectangle_1">
	<g>
		<path class="st0" d="M147.81,213.7l77.39-63.83c-48.41,0-167.21,0-167.21,0c-17.64,0-31.94,14.29-31.94,31.91
			c0,17.63,14.3,31.91,31.94,31.91C57.98,213.7,108.44,213.7,147.81,213.7z M500.8,247.11c0.82-7.24-1.52-14.77-7.08-20.32
			l-149.3-123.75c-9.67-9.67-24.01-9.22-35.02,0L161.51,225.61c-0.11,0.09-0.22,0.18-0.33,0.27l-1.09,0.91
			c-0.16,0.16-0.29,0.33-0.45,0.49c-6.17,5.88-10.03,14.15-10.03,23.34v5.19c39.5,14.47,67.7,52.42,67.7,96.97
			c0,37.75-20.25,70.76-50.48,88.76c4.48,2.37,9.59,3.71,15.01,3.71h286.91c17.8,0,32.24-14.44,32.24-32.26V250.62
			C501,249.44,500.93,248.27,500.8,247.11z M196.34,352.16c0-43.98-35.66-79.66-79.61-79.66c-43.95,0-79.61,35.68-79.61,79.66
			s35.66,79.66,79.61,79.66C160.68,431.82,196.34,396.14,196.34,352.16z M58,120h176c17.67,0,32-14.33,32-32c0-17.67-14.33-32-32-32
			H58c-17.67,0-32,14.33-32,32C26,105.67,40.33,120,58,120z"/>
	</g>
</g>
<g id="_xF017_">
	<g>
		<path class="st1" d="M123.71,322.62h-4.73c-1.33,0-2.37,1.03-2.37,2.37V351h-16.56c-1.33,0-2.37,1.03-2.37,2.37v4.73
			c0,1.33,1.03,2.37,2.37,2.37h23.65c1.33,0,2.37-1.03,2.37-2.37v-33.11C126.07,323.65,125.04,322.62,123.71,322.62z M116.61,294.24
			c-31.34,0-56.77,25.43-56.77,56.77c0,31.34,25.43,56.77,56.77,56.77c31.34,0,56.77-25.43,56.77-56.77
			C173.38,319.66,147.95,294.24,116.61,294.24z M116.61,391.21c-22.17,0-40.21-18.03-40.21-40.21s18.03-40.21,40.21-40.21
			s40.21,18.03,40.21,40.21S138.78,391.21,116.61,391.21z"/>
	</g>
</g>
<g id="Rounded_Rectangle_3_copy">
	<g>
		<path class="st1" d="M344.42,140.67c-9.67-9.67-25.35-9.67-35.02,0L181.58,242.92l145.01,66.02l145.64-66.02L344.42,140.67z"/>
	</g>
</g>
</svg>
