<?xml version="1.0" encoding="utf-8"?>
<!-- Generator: Adobe Illustrator 25.0.1, SVG Export Plug-In . SVG Version: 6.00 Build 0)  -->
<svg version="1.1" id="Layer_1" xmlns="http://www.w3.org/2000/svg" xmlns:xlink="http://www.w3.org/1999/xlink" x="0px" y="0px"
	 viewBox="0 0 512 512" style="enable-background:new 0 0 512 512;" xml:space="preserve">
<style type="text/css">
	.st0{display:none;fill:none;stroke:#3690C8;stroke-width:20;stroke-miterlimit:10;}
	.st1{display:none;fill:none;stroke:#3690C8;stroke-width:10;stroke-miterlimit:10;}
	.st2{fill:#3690C8;}
	.st3{fill:#FFFFFF;}
</style>
<g id="Mortgage_Calculator">
	<g>
		<g>
			<line class="st0" x1="41" y1="296" x2="471" y2="296"/>
			<rect x="74.5" y="47.53" class="st1" width="363" height="86"/>
			<path id="XMLID_3_" class="st2" d="M433.1,24.06c15.34,0,27.9,12.55,27.9,27.9v408.09c0,15.34-12.55,27.9-27.9,27.9H78.9
				c-15.34,0-27.9-12.55-27.9-27.9V51.96c0-15.34,12.55-27.9,27.9-27.9H433.1 M433.1,4.06H78.9C52.49,4.06,31,25.54,31,51.96v408.09
				c0,26.41,21.49,47.9,47.9,47.9h354.2c26.41,0,47.9-21.49,47.9-47.9V51.96C481,25.54,459.51,4.06,433.1,4.06L433.1,4.06z"/>
		</g>
		<g>
			<path class="st2" d="M222.87,367.35H95.59c-3.36,0-6.09-2.73-6.09-6.09v-38.6c0-3.36,2.73-6.09,6.09-6.09h127.28
				c3.36,0,6.09,2.73,6.09,6.09v38.6C228.96,364.62,226.23,367.35,222.87,367.35z"/>
			<path class="st2" d="M416.54,367.35H288.99c-3.29,0-5.95-2.66-5.95-5.95v-38.88c0-3.29,2.66-5.95,5.95-5.95h127.55
				c3.29,0,5.95,2.66,5.95,5.95v38.88C422.49,364.68,419.83,367.35,416.54,367.35z"/>
			<path class="st2" d="M416.31,455.86H289.22c-3.41,0-6.18-2.77-6.18-6.18v-38.42c0-3.41,2.77-6.18,6.18-6.18h127.09
				c3.41,0,6.18,2.77,6.18,6.18v38.42C422.49,453.09,419.73,455.86,416.31,455.86z"/>
			<path class="st2" d="M222.78,455.86H95.69c-3.41,0-6.18-2.77-6.18-6.18v-38.42c0-3.41,2.77-6.18,6.18-6.18h127.09
				c3.41,0,6.18,2.77,6.18,6.18v38.42C228.96,453.09,226.19,455.86,222.78,455.86z"/>
		</g>
	</g>
	<path class="st2" d="M409.24,274.35H102.76c-7.24,0-13.12-5.87-13.12-13.12V76.77c0-7.24,5.87-13.12,13.12-13.12h306.48
		c7.24,0,13.12,5.87,13.12,13.12v184.46C422.36,268.48,416.49,274.35,409.24,274.35z"/>
	<g id="Home">
		<g>
			<path class="st3" d="M172.42,180.64L172.42,180.64c-3.22-3.22-3.22-8.43,0-11.65l77.75-77.75c3.22-3.22,8.43-3.22,11.65,0l0,0
				c3.22,3.22,3.22,8.43,0,11.65l-77.75,77.75C180.86,183.85,175.64,183.85,172.42,180.64z"/>
			<path class="st3" d="M250.18,91.24L250.18,91.24c-3.22,3.22-3.22,8.43,0,11.65l77.75,77.75c3.22,3.22,8.43,3.22,11.65,0v0
				c3.22-3.22,3.22-8.43,0-11.65l-77.75-77.75C258.61,88.02,253.39,88.02,250.18,91.24z"/>
		</g>
		<path class="st3" d="M255.33,129.68l59.71,60.76l0.73,0.74v50.36c0,1.08-0.88,1.96-1.96,1.96H197.25c-1.14,0-2.07-0.93-2.07-2.07
			v-50.66"/>
		<path class="st3" d="M202.08,151.28L202.08,151.28c-3.81,0-6.91-3.09-6.91-6.91v-29.01c0-3.81,3.09-6.91,6.91-6.91h0
			c3.81,0,6.91,3.09,6.91,6.91v29.01C208.99,148.19,205.9,151.28,202.08,151.28z"/>
	</g>
</g>
<g>
</g>
<g>
</g>
<g>
</g>
<g>
</g>
<g>
</g>
</svg>
