<?xml version="1.0" encoding="utf-8"?>
<!-- Generator: Adobe Illustrator 25.0.1, SVG Export Plug-In . SVG Version: 6.00 Build 0)  -->
<svg version="1.1" id="Aspose_Cutter_App" xmlns="http://www.w3.org/2000/svg" xmlns:xlink="http://www.w3.org/1999/xlink" x="0px"
	 y="0px" viewBox="0 0 512 512" style="enable-background:new 0 0 512 512;" xml:space="preserve">
<style type="text/css">
	.st0{fill:#3593CB;}
	.st1{fill:#3691C9;}
	.st2{fill:#3093CD;}
	.st3{fill:#3193CD;}
	.st4{fill:#FFFFFF;}
</style>
<g id="Cutter">
	<g>
		<g>
			<path class="st0" d="M436.5,506.7h-388c-22.1,0-40-18.3-40-40.8v-419c0-22.9,18.2-41.4,40.6-41.4h387.2c22.2,0,40.2,18.4,40.2,41
				V116h-32V46.3c0-5-3.7-9-8.2-9H49.1c-4.7,0-8.6,4.2-8.6,9.4v419c0,4.9,3.6,8.8,8,8.8h388c4.4,0,8-4,8-8.8V391h32v74.9
				C476.5,488.3,458.6,506.7,436.5,506.7z"/>
		</g>
	</g>
	<g>
		<g>
			<path class="st1" d="M329,330.3c-2.1,2.1-10,10.4-11.2,14.1c14.7,14.7,25.3,8.2,39.9-6.5l63-63l10.5,10
				c-13.4,14.4-13.9,22.6-13.7,28.2c0.8,24.6,19.2,42.9,42.9,42.9c23.7,0,42.9-19.2,42.9-42.9c0-23.7-19.2-42.9-42.9-42.9
				c-2,0-4,0.1-6,0.4l-14.7-14.7l14.7-14.7c2,0.3,3.9,0.4,6,0.4c23.7,0,42.9-19.2,42.9-42.9c0-23.7-19.2-42.9-42.9-42.9
				c-23.7,0-44.8,16.6-42.9,42.9c0.4,5.6,1.9,18.9,13.8,26.9l-10.7,11.1l-62.8-62.7c-14.7-14.7-27-22.5-41.7-7.8
				c-2.1,2.1,10.4,12.6,12.4,14.7l74.7,75.2L329,330.3z M438.2,198.7c0-12.3,10-22.4,22.4-22.4c12.3,0,22.4,10,22.4,22.4
				c0,12.3-10,22.4-22.4,22.4C448.2,221,438.2,211,438.2,198.7z M438.2,313.2c0-12.3,10-22.4,22.4-22.4c12.3,0,22.4,10,22.4,22.4
				c0,12.3-10,22.4-22.4,22.4C448.2,335.5,438.2,325.5,438.2,313.2z"/>
		</g>
	</g>
	<g>
		<g>
			<g>
				<path class="st2" d="M78,295.4L78,295.4c-4.3,0-7.8-3.5-7.8-7.8v-54.9c0-4.3,3.5-7.8,7.8-7.8h0c4.3,0,7.8,3.5,7.8,7.8v54.9
					C85.9,291.9,82.4,295.4,78,295.4z"/>
			</g>
			<g>
				<path class="st3" d="M78,297.9c-5.7,0-10.3-4.6-10.3-10.3v-54.9c0-5.7,4.6-10.3,10.3-10.3s10.3,4.6,10.3,10.3v54.9
					C88.4,293.3,83.7,297.9,78,297.9z M78,227.3c-2.9,0-5.3,2.4-5.3,5.3v54.9c0,2.9,2.4,5.3,5.3,5.3c2.9,0,5.3-2.4,5.3-5.3v-54.9
					C83.4,229.7,81,227.3,78,227.3z"/>
			</g>
		</g>
		<g>
			<g>
				<path class="st2" d="M243.6,297.6L243.6,297.6c-4.3,0-7.8-3.5-7.8-7.8v-54.9c0-4.3,3.5-7.8,7.8-7.8h0c4.3,0,7.8,3.5,7.8,7.8
					v54.9C251.4,294.1,247.9,297.6,243.6,297.6z"/>
			</g>
			<g>
				<path class="st3" d="M243.6,300.1c-5.7,0-10.3-4.6-10.3-10.3v-54.9c0-5.7,4.6-10.3,10.3-10.3s10.3,4.6,10.3,10.3v54.9
					C253.9,295.5,249.3,300.1,243.6,300.1z M243.6,229.6c-2.9,0-5.3,2.4-5.3,5.3v54.9c0,2.9,2.4,5.3,5.3,5.3c2.9,0,5.3-2.4,5.3-5.3
					v-54.9C248.9,231.9,246.5,229.6,243.6,229.6z"/>
			</g>
		</g>
		<g>
			<g>
				<path class="st2" d="M325.3,297.6L325.3,297.6c-4.3,0-7.8-3.5-7.8-7.8v-54.9c0-4.3,3.5-7.8,7.8-7.8h0c4.3,0,7.8,3.5,7.8,7.8
					v54.9C333.1,294.1,329.6,297.6,325.3,297.6z"/>
			</g>
			<g>
				<path class="st3" d="M325.3,300.1c-5.7,0-10.3-4.6-10.3-10.3v-54.9c0-5.7,4.6-10.3,10.3-10.3c5.7,0,10.3,4.6,10.3,10.3v54.9
					C335.6,295.5,331,300.1,325.3,300.1z M325.3,229.6c-2.9,0-5.3,2.4-5.3,5.3v54.9c0,2.9,2.4,5.3,5.3,5.3c2.9,0,5.3-2.4,5.3-5.3
					v-54.9C330.6,231.9,328.2,229.6,325.3,229.6z"/>
			</g>
		</g>
		<g>
			<g>
				<path class="st2" d="M118.8,317.2L118.8,317.2c-4.3,0-7.8-3.5-7.8-7.8V202.5c0-4.3,3.5-7.8,7.8-7.8h0c4.3,0,7.8,3.5,7.8,7.8
					v106.9C126.7,313.7,123.2,317.2,118.8,317.2z"/>
			</g>
			<g>
				<path class="st3" d="M118.8,319.7c-5.7,0-10.3-4.6-10.3-10.3V202.5c0-5.7,4.6-10.3,10.3-10.3s10.3,4.6,10.3,10.3v106.9
					C129.2,315,124.6,319.7,118.8,319.7z M118.8,197.1c-2.9,0-5.3,2.4-5.3,5.3v106.9c0,2.9,2.4,5.3,5.3,5.3h0c2.9,0,5.3-2.4,5.3-5.3
					V202.5C124.2,199.5,121.8,197.1,118.8,197.1z"/>
			</g>
		</g>
		<g>
			<g>
				<path class="st2" d="M204.8,321.4L204.8,321.4c-4.3,0-7.8-3.5-7.8-7.8V206.7c0-4.3,3.5-7.8,7.8-7.8h0c4.3,0,7.8,3.5,7.8,7.8
					v106.9C212.7,317.9,209.2,321.4,204.8,321.4z"/>
			</g>
			<g>
				<path class="st3" d="M204.8,323.9c-5.7,0-10.3-4.6-10.3-10.3V206.7c0-5.7,4.6-10.3,10.3-10.3s10.3,4.6,10.3,10.3v106.9
					C215.2,319.3,210.5,323.9,204.8,323.9z M204.8,201.3c-2.9,0-5.3,2.4-5.3,5.3v106.9c0,2.9,2.4,5.3,5.3,5.3c2.9,0,5.3-2.4,5.3-5.3
					V206.7C210.2,203.7,207.8,201.3,204.8,201.3z"/>
			</g>
		</g>
		<g>
			<g>
				<path class="st2" d="M285.6,317.1L285.6,317.1c-4.3,0-7.8-3.5-7.8-7.8V202.4c0-4.3,3.5-7.8,7.8-7.8h0c4.3,0,7.8,3.5,7.8,7.8
					v106.9C293.4,313.6,289.9,317.1,285.6,317.1z"/>
			</g>
			<g>
				<path class="st3" d="M285.6,319.6c-5.7,0-10.3-4.6-10.3-10.3V202.4c0-5.7,4.6-10.3,10.3-10.3s10.3,4.6,10.3,10.3v106.9
					C295.9,314.9,291.3,319.6,285.6,319.6z M285.6,197c-2.9,0-5.3,2.4-5.3,5.3v106.9c0,2.9,2.4,5.3,5.3,5.3s5.3-2.4,5.3-5.3V202.4
					C290.9,199.4,288.5,197,285.6,197z"/>
			</g>
		</g>
		<g>
			<g>
				<path class="st2" d="M161.8,340.7L161.8,340.7c-4.3,0-7.8-3.5-7.8-7.8V178.9c0-4.3,3.5-7.8,7.8-7.8h0c4.3,0,7.8,3.5,7.8,7.8
					v153.9C169.7,337.2,166.2,340.7,161.8,340.7z"/>
			</g>
			<g>
				<path class="st3" d="M161.8,343.2c-5.7,0-10.3-4.6-10.3-10.3V178.9c0-5.7,4.6-10.3,10.3-10.3s10.3,4.6,10.3,10.3v153.9
					C172.2,338.6,167.5,343.2,161.8,343.2z M161.8,173.6c-2.9,0-5.3,2.4-5.3,5.3v153.9c0,2.9,2.4,5.3,5.3,5.3c2.9,0,5.3-2.4,5.3-5.3
					V178.9C167.2,176,164.8,173.6,161.8,173.6z"/>
			</g>
		</g>
	</g>
	<g>
		<g>
			<g>
				<rect x="26.8" y="391" class="st2" width="440.3" height="89.3"/>
			</g>
		</g>
		<g>
			<g>
				<g>
					<path class="st4" d="M341.4,481.3c-2,0-3.7-1.7-3.7-3.7v-57.2c0-2,1.7-3.7,3.7-3.7h57.2c2,0,3.7,1.7,3.7,3.7v57.2
						c0,2-1.6,3.7-3.7,3.7H341.4z"/>
				</g>
			</g>
			<g>
				<g>
					<path class="st4" d="M213.9,481.3c-2,0-3.7-1.7-3.7-3.7v-57.2c0-2,1.7-3.7,3.7-3.7h57.2c2,0,3.7,1.7,3.7,3.7v57.2
						c0,2-1.7,3.7-3.7,3.7H213.9z"/>
				</g>
			</g>
			<g>
				<g>
					<path class="st4" d="M86.4,481.3c-2,0-3.7-1.7-3.7-3.7v-57.2c0-2,1.7-3.7,3.7-3.7h57.2c2,0,3.7,1.7,3.7,3.7v57.2
						c0,2-1.7,3.7-3.7,3.7H86.4z"/>
				</g>
			</g>
		</g>
	</g>
	<g>
		<g>
			<g>
				<rect x="30.3" y="28.4" class="st2" width="440.3" height="87.5"/>
			</g>
		</g>
		<g>
			<g>
				<g>
					<path class="st4" d="M339.7,95c-2,0-3.7-1.7-3.7-3.7V34.1c0-2,1.7-3.7,3.7-3.7h57.2c2,0,3.7,1.7,3.7,3.7v57.2
						c0,2-1.7,3.7-3.7,3.7H339.7z"/>
				</g>
			</g>
			<g>
				<g>
					<path class="st4" d="M212.2,95c-2,0-3.7-1.7-3.7-3.7V34.1c0-2,1.7-3.7,3.7-3.7h57.2c2,0,3.7,1.7,3.7,3.7v57.2
						c0,2-1.6,3.7-3.7,3.7H212.2z"/>
				</g>
			</g>
			<g>
				<g>
					<path class="st4" d="M84.7,95c-2,0-3.7-1.7-3.7-3.7V34.1c0-2,1.7-3.7,3.7-3.7H142c2,0,3.7,1.7,3.7,3.7v57.2
						c0,2-1.7,3.7-3.7,3.7H84.7z"/>
				</g>
			</g>
		</g>
	</g>
</g>
</svg>
