<?xml version="1.0" encoding="utf-8"?>
<!-- Generator: Adobe Illustrator 25.0.1, SVG Export Plug-In . SVG Version: 6.00 Build 0)  -->
<svg version="1.1" id="Layer_1" xmlns="http://www.w3.org/2000/svg" xmlns:xlink="http://www.w3.org/1999/xlink" x="0px" y="0px"
	 viewBox="0 0 512 512" style="enable-background:new 0 0 512 512;" xml:space="preserve">
<style type="text/css">
	.st0{fill:#3593CB;}
	.st1{fill:#3093CD;}
	.st2{fill:#FFFFFF;}
	.st3{display:none;}
	.st4{display:inline;}
	.st5{opacity:0.65;}
	.st6{opacity:0.9;}
	.st7{opacity:0.7;}
</style>
<g id="Change_Video_Speed">
	<g id="_x34_">
		<g id="Video_Muter_2_">
			<g>
				<path class="st0" d="M458.9,465.4H52.3c-26.8,0-48.6-21.8-48.6-48.6V93.9c0-26.6,21.7-48.3,48.3-48.3h407.2
					c26.6,0,48.3,21.7,48.3,48.3v322.9C507.5,443.6,485.7,465.4,458.9,465.4z M52,87.6c-3.5,0-6.3,2.8-6.3,6.3v322.9
					c0,3.6,3,6.6,6.6,6.6h406.6c3.6,0,6.6-3,6.6-6.6V93.9c0-3.5-2.8-6.3-6.3-6.3H52z"/>
			</g>
			<g>
				<g>
					<g>
						<rect x="37.1" y="76.5" class="st1" width="434.8" height="70.9"/>
					</g>
				</g>
				<g>
					<g>
						<g>
							<path class="st2" d="M410.7,121.5c-1.6,0-3-1.3-3-3V72.2c0-1.6,1.3-3,3-3h46.4c1.6,0,3,1.3,3,3v46.4c0,1.6-1.3,3-3,3H410.7z"
								/>
						</g>
					</g>
					<g>
						<g>
							<path class="st2" d="M290.7,121.5c-1.6,0-3-1.3-3-3V72.2c0-1.6,1.3-3,3-3h46.4c1.6,0,3,1.3,3,3v46.4c0,1.6-1.3,3-3,3H290.7z"
								/>
						</g>
					</g>
					<g>
						<g>
							<path class="st2" d="M54,121.5c-1.6,0-3-1.3-3-3V72.2c0-1.6,1.3-3,3-3h46.4c1.6,0,3,1.3,3,3v46.4c0,1.6-1.3,3-3,3H54z"/>
						</g>
					</g>
					<g>
						<g>
							<path class="st2" d="M170.7,121.5c-1.6,0-3-1.3-3-3V72.2c0-1.6,1.3-3,3-3h46.4c1.6,0,3,1.3,3,3v46.4c0,1.6-1.3,3-3,3H170.7z"
								/>
						</g>
					</g>
				</g>
			</g>
			<g>
				<g>
					<g>
						<rect x="37.1" y="363.4" class="st1" width="434.8" height="70.9"/>
					</g>
				</g>
				<g>
					<g>
						<g>
							<path class="st2" d="M410.7,389.3c-1.6,0-3,1.3-3,3v46.4c0,1.6,1.3,3,3,3h46.4c1.6,0,3-1.3,3-3v-46.4c0-1.6-1.3-3-3-3H410.7z
								"/>
						</g>
					</g>
					<g>
						<g>
							<path class="st2" d="M290.7,389.3c-1.6,0-3,1.3-3,3v46.4c0,1.6,1.3,3,3,3h46.4c1.6,0,3-1.3,3-3v-46.4c0-1.6-1.3-3-3-3H290.7z
								"/>
						</g>
					</g>
					<g>
						<g>
							<path class="st2" d="M54,389.3c-1.6,0-3,1.3-3,3v46.4c0,1.6,1.3,3,3,3h46.4c1.6,0,3-1.3,3-3v-46.4c0-1.6-1.3-3-3-3H54z"/>
						</g>
					</g>
					<g>
						<g>
							<path class="st2" d="M170.7,389.3c-1.6,0-3,1.3-3,3v46.4c0,1.6,1.3,3,3,3h46.4c1.6,0,3-1.3,3-3v-46.4c0-1.6-1.3-3-3-3H170.7z
								"/>
						</g>
					</g>
				</g>
			</g>
			<g class="st3">
				<g class="st4">
					<g>
						<g>
							<path class="st0" d="M184.8,230.9v52.5c0,2,1,3.8,2.6,4.7l79.3,45.6c3.3,1.9,7.2-0.7,7.2-4.7l0.4-147c0-4.1-4-6.7-7.3-4.7
								l-79.7,48.9C185.7,227.2,184.8,229,184.8,230.9z"/>
						</g>
					</g>
					<g>
						<g>
							<path class="st0" d="M172.2,288.3h-20.6c-3.1,0-5.6-2.5-5.6-5.6v-51.3c0-3.1,2.5-5.6,5.6-5.6h20.6c3.1,0,5.6,2.5,5.6,5.6
								v51.3C177.9,285.8,175.3,288.3,172.2,288.3z"/>
						</g>
					</g>
				</g>
				<g class="st4">
					<g>
						<path class="st0" d="M291.9,291L291.9,291c-2.9-2.9-2.9-7.5,0-10.4l60.7-60.7c2.9-2.9,7.5-2.9,10.4,0l0,0
							c2.9,2.9,2.9,7.5,0,10.4L302.3,291C299.4,293.9,294.8,293.9,291.9,291z"/>
						<path class="st0" d="M297.1,295.7c-2.5,0-5-1-6.9-2.9c-3.8-3.8-3.8-10.1,0-13.9l60.7-60.7c3.8-3.8,10.1-3.8,13.9,0
							c3.8,3.8,3.8,10.1,0,13.9L304,292.8C302.1,294.7,299.6,295.7,297.1,295.7z M357.8,220.3c-1.2,0-2.5,0.5-3.4,1.4l-60.7,60.7
							c-1.9,1.9-1.9,4.9,0,6.8c1.9,1.9,4.9,1.9,6.8,0l60.7-60.7c1.9-1.9,1.9-4.9,0-6.8C360.3,220.8,359,220.3,357.8,220.3z"/>
					</g>
					<g>
						<path class="st0" d="M291.9,220L291.9,220c-2.9,2.9-2.9,7.5,0,10.4l60.7,60.7c2.9,2.9,7.5,2.9,10.4,0v0
							c2.9-2.9,2.9-7.5,0-10.4L302.3,220C299.4,217.1,294.8,217.1,291.9,220z"/>
						<path class="st0" d="M357.8,295.7c-2.5,0-5-1-6.9-2.9l-60.7-60.7c-3.8-3.8-3.8-10.1,0-13.9c3.8-3.8,10.1-3.8,13.9,0l60.7,60.7
							c3.8,3.8,3.8,10.1,0,13.9C362.8,294.7,360.3,295.7,357.8,295.7z M297.1,220.3c-1.2,0-2.5,0.5-3.4,1.4c-1.9,1.9-1.9,4.9,0,6.8
							l60.7,60.7c1.9,1.9,4.9,1.9,6.8,0c1.9-1.9,1.9-4.9,0-6.8l-60.7-60.7C299.6,220.8,298.3,220.3,297.1,220.3z"/>
					</g>
				</g>
			</g>
		</g>
		<g>
			<g>
				<g class="st5">
					<g>
						<path class="st0" d="M256,347c-7.2,0-14.3-0.8-21.2-2.5c-4-0.9-6.4-4.9-5.5-8.9c0.9-4,4.9-6.4,8.9-5.5
							c5.8,1.4,11.8,2.1,17.8,2.1c4.1,0,7.4,3.3,7.4,7.4S260.1,347,256,347z"/>
					</g>
					<g>
						<path class="st0" d="M213.1,335.2c-1.3,0-2.6-0.3-3.8-1c-12.6-7.6-23.4-18.2-31.1-30.8c-2.1-3.5-1-8,2.5-10.1
							c3.5-2.1,8-1,10.1,2.5c6.4,10.6,15.4,19.5,26,25.8c3.5,2.1,4.6,6.6,2.5,10.1C218,333.9,215.6,335.2,213.1,335.2z M174.8,283.5
							c-3.3,0-6.3-2.2-7.2-5.6c-1.8-7.1-2.7-14.5-2.7-21.9c0-7.4,0.9-14.7,2.6-21.9c1-4,5-6.4,8.9-5.4c4,1,6.4,5,5.4,8.9
							c-1.5,6-2.2,12.1-2.2,18.3c0,6.2,0.7,12.4,2.2,18.4c1,4-1.4,8-5.4,8.9C176,283.4,175.4,283.5,174.8,283.5z M184.5,219.9
							c-1.3,0-2.6-0.3-3.8-1.1c-3.5-2.1-4.6-6.7-2.5-10.1c7.7-12.6,18.4-23.3,31-30.8c3.5-2.1,8-1,10.1,2.5s1,8-2.5,10.1
							c-10.6,6.4-19.6,15.3-26,25.9C189.4,218.7,187,219.9,184.5,219.9z"/>
					</g>
					<g class="st6">
						<path class="st0" d="M236.5,182c-3.3,0-6.4-2.3-7.2-5.7c-0.9-4,1.5-7.9,5.5-8.9c6.9-1.6,14-2.5,21.2-2.5
							c4.1,0,7.4,3.3,7.4,7.4c0,4.1-3.3,7.4-7.4,7.4c-6,0-12,0.7-17.8,2.1C237.6,182,237.1,182,236.5,182z"/>
					</g>
				</g>
				<g>
					<path class="st0" d="M275.3,344.8c-3.3,0-6.4-2.3-7.2-5.7c-0.9-4,1.5-7.9,5.5-8.9c34.5-8.2,58.6-38.7,58.6-74.2
						c0-35.7-24.3-66.3-59-74.3c-4-0.9-6.4-4.9-5.5-8.8c0.9-4,4.9-6.4,8.8-5.5c19.7,4.5,37.6,15.8,50.4,31.6
						c13,16.1,20.1,36.3,20.1,57c0,20.6-7.1,40.8-19.9,56.9c-12.7,15.8-30.4,27.1-50,31.7C276.5,344.7,275.9,344.8,275.3,344.8z"/>
				</g>
				<g>
					<path class="st0" d="M285.4,253.3L247.5,219c-2.4-2.1-6.2-0.5-6.2,2.7v68.5c0,3.2,3.8,4.9,6.2,2.7l37.9-34.3
						C287,257.3,287,254.7,285.4,253.3z"/>
				</g>
			</g>
			<g>
				<g class="st7">
					<path class="st0" d="M236.5,182c-3.3,0-6.4-2.3-7.2-5.7c-0.9-4,1.5-7.9,5.5-8.9c6.9-1.6,14-2.5,21.2-2.5c4.1,0,7.4,3.3,7.4,7.4
						c0,4.1-3.3,7.4-7.4,7.4c-6,0-12,0.7-17.8,2.1C237.6,182,237.1,182,236.5,182z"/>
				</g>
				<g class="st7">
					<path class="st0" d="M256,347c-7.2,0-14.3-0.8-21.2-2.5c-4-0.9-6.4-4.9-5.5-8.9c0.9-4,4.9-6.4,8.9-5.5
						c5.8,1.4,11.8,2.1,17.8,2.1c4.1,0,7.4,3.3,7.4,7.4S260.1,347,256,347z"/>
				</g>
			</g>
		</g>
	</g>
	<g>
		<path class="st0" d="M131.9,273.6H86.9c-5.5,0-10-4.5-10-10v0c0-5.5,4.5-10,10-10h44.9c5.5,0,10,4.5,10,10v0
			C141.9,269.1,137.4,273.6,131.9,273.6z"/>
		<g>
			<path class="st0" d="M423.9,273.6H379c-5.5,0-10-4.5-10-10v0c0-5.5,4.5-10,10-10h44.9c5.5,0,10,4.5,10,10v0
				C433.9,269.1,429.5,273.6,423.9,273.6z"/>
			<path class="st0" d="M391.5,286.1v-44.9c0-5.5,4.5-10,10-10l0,0c5.5,0,10,4.5,10,10v44.9c0,5.5-4.5,10-10,10l0,0
				C395.9,296.1,391.5,291.6,391.5,286.1z"/>
		</g>
	</g>
</g>
</svg>
