<?xml version="1.0" encoding="utf-8"?>
<!-- Generator: Adobe Illustrator 25.2.0, SVG Export Plug-In . SVG Version: 6.00 Build 0)  -->
<svg version="1.1" id="Email.PasswordStrength" xmlns="http://www.w3.org/2000/svg" xmlns:xlink="http://www.w3.org/1999/xlink"
	 x="0px" y="0px" viewBox="0 0 512 512" style="enable-background:new 0 0 512 512;" xml:space="preserve">
<style type="text/css">
	.st0{fill:#3691C9;}
	.st1{fill:#FFFFFF;}
	.st2{fill:#FFFFFF;stroke:#FFFFFF;stroke-width:2;stroke-linecap:round;stroke-linejoin:round;stroke-miterlimit:10;}
</style>
<g>
	<path class="st0" d="M418,244.1H209.1v-85.8c0-41,33.6-74.6,74.6-74.6h0c41,0,72.7,33.7,72.7,74.8c2.5,5.9,5.5,12.2,12.6,14.7
		c10.9,3.7,25.4,2.3,33.2-1.8c6.8-3.6,8.6-11.7,8.6-11.7c0-70.8-54-131.6-124.8-131.6h0c-70.8,0-128.7,57.9-128.7,128.7v87.5H151
		c-16.5,0-30,13.5-30,30v13.1h284c11,0,20,9,20,20v114.6c0,11-9,20-20,20H121v12.3c0,16.5,13.5,30,30,30h267c16.5,0,30-13.5,30-30
		v-180C448,257.6,434.5,244.1,418,244.1z"/>
	<path class="st0" d="M403,403.1v-76c0-11-9-20-20-20H84c-11,0-20,9-20,20v76c0,11,9,20,20,20h299C394,423.1,403,414.1,403,403.1z"
		/>
</g>
<g>
	<path class="st1" d="M134.8,371.7l-11.3-6.5l11.3-6.5c1.9-1.1,2.6-3.6,1.5-5.5l-3.2-5.6c-1.1-1.9-3.6-2.6-5.5-1.5l-11.3,6.5v-13
		c0-2.2-1.8-4-4-4h-6.4c-2.2,0-4,1.8-4,4v13l-11.3-6.5c-1.9-1.1-4.4-0.4-5.5,1.5l-3.2,5.6c-1.1,1.9-0.4,4.4,1.5,5.5l11.3,6.5
		l-11.3,6.5c-1.9,1.1-2.6,3.6-1.5,5.5l3.2,5.6c1.1,1.9,3.6,2.6,5.5,1.5l11.3-6.5v13c0,2.2,1.8,4,4,4h6.4c2.2,0,4-1.8,4-4v-13
		l11.3,6.5c1.9,1.1,4.4,0.4,5.5-1.5l3.2-5.6C137.4,375.3,136.7,372.8,134.8,371.7z"/>
	<path class="st1" d="M215.1,371.7l-11.3-6.5l11.3-6.5c1.9-1.1,2.6-3.6,1.5-5.5l-3.2-5.6c-1.1-1.9-3.6-2.6-5.5-1.5l-11.3,6.5v-13
		c0-2.2-1.8-4-4-4h-6.4c-2.2,0-4,1.8-4,4v13l-11.3-6.5c-1.9-1.1-4.4-0.4-5.5,1.5l-3.2,5.6c-1.1,1.9-0.4,4.4,1.5,5.5l11.3,6.5
		l-11.3,6.5c-1.9,1.1-2.6,3.6-1.5,5.5l3.2,5.6c1.1,1.9,3.6,2.6,5.5,1.5l11.3-6.5v13c0,2.2,1.8,4,4,4h6.4c2.2,0,4-1.8,4-4v-13
		l11.3,6.5c1.9,1.1,4.4,0.4,5.5-1.5l3.2-5.6C217.6,375.3,217,372.8,215.1,371.7z"/>
	<path class="st1" d="M296.3,371.7l-11.3-6.5l11.3-6.5c1.9-1.1,2.6-3.6,1.5-5.5l-3.2-5.6c-1.1-1.9-3.6-2.6-5.5-1.5l-11.3,6.5v-13
		c0-2.2-1.8-4-4-4h-6.4c-2.2,0-4,1.8-4,4v13l-11.3-6.5c-1.9-1.1-4.4-0.4-5.5,1.5l-3.2,5.6c-1.1,1.9-0.4,4.4,1.5,5.5l11.3,6.5
		l-11.3,6.5c-1.9,1.1-2.6,3.6-1.5,5.5l3.2,5.6c1.1,1.9,3.6,2.6,5.5,1.5l11.3-6.5v13c0,2.2,1.8,4,4,4h6.4c2.2,0,4-1.8,4-4v-13
		l11.3,6.5c1.9,1.1,4.4,0.4,5.5-1.5l3.2-5.6C298.9,375.3,298.2,372.8,296.3,371.7z"/>
	<g>
		<g>
			<path class="st2" d="M343.1,390.1l-21.5-21.6c-0.6-0.6-0.9-1.4-0.9-2.3c0-1,0.3-1.7,0.9-2.3l4.8-4.7c0.6-0.7,1.3-1,2.2-1
				c0.9,0,1.7,0.3,2.4,1l14.4,14.6l30.9-31.2c0.7-0.7,1.5-1,2.4-1c0.9,0,1.6,0.3,2.2,1l4.8,4.7c0.6,0.6,0.9,1.4,0.9,2.3
				c0,1-0.3,1.7-0.9,2.3l-37.9,38.3c-0.6,0.7-1.4,1-2.3,1C344.5,391.1,343.7,390.8,343.1,390.1z"/>
		</g>
	</g>
</g>
</svg>
