<svg version="1.1" id="Aspose.ZIP" xmlns="http://www.w3.org/2000/svg" x="0" y="0" viewBox="0 0 512 512" style="enable-background:new 0 0 512 512" xml:space="preserve"><style>.st0{fill:#3490c6}</style><g id="Encrypt_x2F_Lock"><path class="st0" d="M197.2 200.1v-30h32.5v-30.3h-32.5v-30h32.4V79.6h-32.4V48.4H192c-6.7 0-13.4 0-20.1-.1-13.6-.1-26.5-.1-40.1-.1v31.6h32.7v30.3H132v30h32.4v30.2H132v30.2h32.5v30H132v132.2h97.6V200.1h-32.4zm.4 130.3h-33.5v-33.5h33.5v33.5z"/><path class="st0" d="M378.4 395.8c-18.3 0-35.7-4.3-51-11.9v49.3c0 12.6-10.3 22.9-22.9 22.9H96.6c-12.6 0-22.9-10.3-22.9-22.9V78.7c0-12.6 10.3-22.9 22.9-22.9h207.8c12.6 0 22.9 10.3 22.9 22.9v78.6c15.4-7.6 32.7-11.9 51-11.9h1.3V78.7c0-41.5-33.8-75.2-75.2-75.2H96.6c-41.5 0-75.2 33.8-75.2 75.2v354.5c0 41.5 33.8 75.2 75.2 75.2h207.8c41.5 0 75.2-33.8 75.2-75.2v-37.5c-.3.1-.8.1-1.2.1z"/><path class="st0" d="M377.9 184.1c47.4 0 85.9 38.5 85.9 85.9 0 47.4-38.5 85.9-85.9 85.9s-85.9-38.6-85.9-86c0-47.3 38.6-85.8 85.9-85.8m0-26.9c-62.2 0-112.7 50.5-112.7 112.7s50.5 112.7 112.7 112.7 112.7-50.5 112.7-112.7-50.4-112.7-112.7-112.7z" id="Ellipse_1_copy_4_"/><path class="st0" d="M418.2 227.4 377.7 214l-40.5 13.4c-6.3 2.1-10.5 7.9-10.5 14.5v33.2c0 38.4 46.9 59.6 48.9 60.4l1.8.8 1.9-.6c2-.7 49.4-16.9 49.4-60.6v-33.2c0-6.6-4.2-12.4-10.5-14.5zm-34 46.4v14c0 3.6-2.9 6.5-6.5 6.5s-6.5-2.9-6.5-6.5v-14.2c-4.9-2.5-8.2-7.5-8.2-13.3 0-8.2 6.7-14.9 14.9-14.9s14.9 6.7 14.9 14.9c0 6-3.5 11.1-8.6 13.5z"/></g></svg>