<?xml version="1.0" encoding="utf-8"?>
<!-- Generator: Adobe Illustrator 25.0.1, SVG Export Plug-In . SVG Version: 6.00 Build 0)  -->
<svg version="1.1" id="Layer_1" xmlns="http://www.w3.org/2000/svg" xmlns:xlink="http://www.w3.org/1999/xlink" x="0px" y="0px"
	 viewBox="0 0 512 512" style="enable-background:new 0 0 512 512;" xml:space="preserve">
<style type="text/css">
	.st0{fill:#3A8FC6;}
	.st1{fill:#3593CB;}
</style>
<g id="PDF_to_OCR">
	<g id="PDF_2_">
		<g>
			<g>
				<path class="st0" d="M156.41,185.93h-85.2c-2.81,0-5.11,2.18-5.11,4.86v52.85c0,2.67,2.3,4.86,5.11,4.86h85.2
					c2.81,0,5.11-2.18,5.11-4.86v-52.85C161.52,188.11,159.22,185.93,156.41,185.93z M82.32,200.43c2.95,0,5.34,2.27,5.34,5.08
					c0,2.8-2.39,5.08-5.34,5.08s-5.34-2.27-5.34-5.08C76.98,202.71,79.37,200.43,82.32,200.43z M76.98,237.27l19.72-19.72
					l13.47,12.53l20.71-26.12l22.93,32.91L76.98,237.27z"/>
			</g>
			<g id="Lines_1_">
				<g>
					<g>
						<path class="st0" d="M147.02,166.04h76.68c5.44,0,9.9-4.45,9.9-9.9v0c0-5.44-4.45-9.9-9.9-9.9h-76.68
							c-5.44,0-9.9,4.45-9.9,9.9v0C137.12,161.58,141.57,166.04,147.02,166.04z"/>
					</g>
				</g>
			</g>
		</g>
		<g>
			<path class="st0" d="M76.52,166.04h35.61c5.73,0,10.41-4.45,10.41-9.9l0,0c0-5.44-4.69-9.9-10.41-9.9H76.52
				c-5.73,0-10.41,4.45-10.41,9.9l0,0C66.11,161.58,70.8,166.04,76.52,166.04z"/>
		</g>
		<g>
			<path class="st0" d="M187.14,206.21h35.94c5.78,0,10.51-4.45,10.51-9.9l0,0c0-5.44-4.73-9.9-10.51-9.9h-35.94
				c-5.78,0-10.51,4.45-10.51,9.9l0,0C176.63,201.76,181.36,206.21,187.14,206.21z"/>
		</g>
		<g>
			<path class="st0" d="M187.14,248.49h35.94c5.78,0,10.51-4.45,10.51-9.9l0,0c0-5.44-4.73-9.9-10.51-9.9h-35.94
				c-5.78,0-10.51,4.45-10.51,9.9l0,0C176.63,244.03,181.36,248.49,187.14,248.49z"/>
		</g>
		<g>
			<path class="st0" d="M223.69,290.76H76.01c-5.47,0-9.9-4.43-9.9-9.9v0c0-5.47,4.43-9.9,9.9-9.9h147.68c5.47,0,9.9,4.43,9.9,9.9v0
				C233.59,286.33,229.16,290.76,223.69,290.76z"/>
		</g>
	</g>
	<g>
		<g>
			<path class="st1" d="M445.5,15.48h-188c-35.57,0-64.5,28.93-64.5,64.5v240.89c3.48-0.37,7.01-0.56,10.59-0.56
				c12.12,0,23.72,2.17,34.41,6.12V79.98c0-10.75,8.75-19.5,19.5-19.5h188c10.75,0,19.5,8.75,19.5,19.5v336
				c0,10.75-8.75,19.5-19.5,19.5H298.23c-4,17.27-12.87,32.75-25.13,45H445.5c35.57,0,64.5-28.93,64.5-64.5v-336
				C510,44.41,481.07,15.48,445.5,15.48z"/>
		</g>
		<g>
			<path class="st1" d="M110.3,401.48H69.5c-12.41,0-22.5-10.09-22.5-22.5v-262c0-12.41,10.09-22.5,22.5-22.5h105.6v-6.25
				c0-14.25,1.11-27.53,8.19-38.75H69.5C32.28,49.48,2,79.76,2,116.98v262c0,37.22,30.28,67.5,67.5,67.5h46.65
				C107.82,430.96,110.27,418.45,110.3,401.48z"/>
		</g>
	</g>
	<g>
		<g>
			<path class="st1" d="M290.92,176.11h-3.09c-8.28,0-15-6.72-15-15v0c0-8.28,6.72-15,15-15h3.09c8.28,0,15,6.72,15,15v0
				C305.92,169.4,299.21,176.11,290.92,176.11z"/>
		</g>
		<g>
			<path class="st1" d="M410.23,176.11h-73.77c-8.28,0-15-6.72-15-15v0c0-8.28,6.72-15,15-15h73.77c8.28,0,15,6.72,15,15v0
				C425.23,169.4,418.52,176.11,410.23,176.11z"/>
		</g>
		<g>
			<path class="st1" d="M290.92,238.19h-3.09c-8.28,0-15-6.72-15-15v0c0-8.28,6.72-15,15-15h3.09c8.28,0,15,6.72,15,15v0
				C305.92,231.47,299.21,238.19,290.92,238.19z"/>
		</g>
		<g>
			<path class="st1" d="M350.58,238.19h-3.09c-8.28,0-15-6.72-15-15v0c0-8.28,6.72-15,15-15h3.09c8.28,0,15,6.72,15,15v0
				C365.58,231.47,358.86,238.19,350.58,238.19z"/>
		</g>
		<g>
			<path class="st1" d="M410.23,238.31h-3.09c-8.28,0-15-6.72-15-15v0c0-8.28,6.72-15,15-15h3.09c8.28,0,15,6.72,15,15v0
				C425.23,231.6,418.52,238.31,410.23,238.31z"/>
		</g>
		<g>
			<path class="st1" d="M362.45,296.48h-73.77c-8.28,0-15-6.72-15-15v0c0-8.28,6.72-15,15-15h73.77c8.28,0,15,6.72,15,15v0
				C377.45,289.76,370.74,296.48,362.45,296.48z"/>
		</g>
		<g>
			<path class="st1" d="M415.41,296.52h-3.09c-8.28,0-15-6.72-15-15v0c0-8.28,6.72-15,15-15h3.09c8.28,0,15,6.72,15,15v0
				C430.41,289.8,423.69,296.52,415.41,296.52z"/>
		</g>
		<g>
			<path class="st1" d="M290.92,354.76h-3.09c-8.28,0-15-6.72-15-15v0c0-8.28,6.72-15,15-15h3.09c8.28,0,15,6.72,15,15v0
				C305.92,348.05,299.21,354.76,290.92,354.76z"/>
		</g>
		<g>
			<path class="st1" d="M350.58,354.76h-3.09c-8.28,0-15-6.72-15-15v0c0-8.28,6.72-15,15-15h3.09c8.28,0,15,6.72,15,15v0
				C365.58,348.05,358.86,354.76,350.58,354.76z"/>
		</g>
		<g>
			<path class="st1" d="M410.23,354.89h-3.09c-8.28,0-15-6.72-15-15v0c0-8.28,6.72-15,15-15h3.09c8.28,0,15,6.72,15,15v0
				C425.23,348.17,418.52,354.89,410.23,354.89z"/>
		</g>
	</g>
	<g>
		<g>
			<path class="st1" d="M204.35,496.52c-44.93,0-81.48-36.55-81.48-81.48c0-44.93,36.55-81.48,81.48-81.48
				c44.93,0,81.48,36.55,81.48,81.48C285.83,459.97,249.28,496.52,204.35,496.52z M204.35,355.56c-32.8,0-59.48,26.68-59.48,59.48
				c0,32.8,26.68,59.48,59.48,59.48c32.8,0,59.48-26.68,59.48-59.48C263.83,382.24,237.15,355.56,204.35,355.56z"/>
		</g>
		<g id="Conversion_1_">
			<g>
				<path class="st0" d="M234.01,407.7l-30.86-30.86c-4.53-4.53-11.87-4.53-16.39,0c-4.53,4.53-4.53,11.87,0,16.39l23.09,23.09
					l-23.09,23.09c-4.53,4.53-4.53,11.87,0,16.39c4.53,4.53,11.87,4.53,16.39,0l30.86-30.86c2.37-2.37,3.5-5.52,3.38-8.62
					C237.51,413.23,236.38,410.08,234.01,407.7z"/>
			</g>
		</g>
	</g>
</g>
<g>
</g>
<g>
</g>
<g>
</g>
<g>
</g>
<g>
</g>
</svg>
