<?xml version="1.0" encoding="utf-8"?>
<!-- Generator: Adobe Illustrator 25.0.1, SVG Export Plug-In . SVG Version: 6.00 Build 0)  -->
<svg version="1.1" id="Layer_1" xmlns="http://www.w3.org/2000/svg" xmlns:xlink="http://www.w3.org/1999/xlink" x="0px" y="0px"
	 viewBox="0 0 512 512" style="enable-background:new 0 0 512 512;" xml:space="preserve">
<style type="text/css">
	.st0{fill:#3A8FC6;}
</style>
<g id="Watermark">
	<path class="st0" d="M503.91,142.63V35.6H391.45v39.6H120.55V35.6H8.09v107.02h42.32v226.75H8.09V476.4h112.46v-39.61h270.89v39.61
		h112.46V369.37h-42.32V142.63H503.91z M34.81,117.2V61.03h59.02v56.16H34.81z M93.83,450.97H34.81V394.8h59.02V450.97z
		 M391.45,408.98H120.55v-39.6H78.23V142.63h42.32v-39.61h270.89v39.61h42.32v226.75h-42.32V408.98z M477.19,394.8v56.17h-59.02
		V394.8H477.19z M418.17,117.2V61.03h59.02v56.16H418.17z"/>
	<g>
		<path class="st0" d="M154.39,267.06c-4.1-4.1-4.1-10.75,0-14.85l14.85-14.85c4.1-4.1,10.75-4.1,14.85,0l45.98,45.98l98.48-98.48
			c4.1-4.1,10.75-4.1,14.85,0l14.85,14.85c4.1,4.1,4.1,10.75,0,14.85L237.49,335.31c-4.1,4.1-10.75,4.1-14.85,0L154.39,267.06z"/>
	</g>
</g>
<g>
</g>
<g>
</g>
<g>
</g>
<g>
</g>
<g>
</g>
</svg>
