<?xml version="1.0" encoding="utf-8"?>
<!-- Generator: Adobe Illustrator 25.0.1, SVG Export Plug-In . SVG Version: 6.00 Build 0)  -->
<svg version="1.1" id="Layer_1" xmlns="http://www.w3.org/2000/svg" xmlns:xlink="http://www.w3.org/1999/xlink" x="0px" y="0px"
	 viewBox="0 0 512 512" style="enable-background:new 0 0 512 512;" xml:space="preserve">
<style type="text/css">
	.st0{fill:#3593CB;}
	.st1{fill:#3A8FC6;}
</style>
<g id="IMG_to_Base64">
	<g>
		<g>
			<path class="st0" d="M445.5,15.48h-188c-35.57,0-64.5,28.93-64.5,64.5v240.89c3.48-0.37,7.01-0.56,10.59-0.56
				c12.12,0,23.72,2.17,34.41,6.12V79.98c0-10.75,8.75-19.5,19.5-19.5h188c10.75,0,19.5,8.75,19.5,19.5v336
				c0,10.75-8.75,19.5-19.5,19.5H298.23c-4,17.27-12.87,32.75-25.13,45H445.5c35.57,0,64.5-28.93,64.5-64.5v-336
				C510,44.41,481.07,15.48,445.5,15.48z"/>
		</g>
		<g>
			<path class="st0" d="M110.3,401.48H69.5c-12.41,0-22.5-10.09-22.5-22.5v-262c0-12.41,10.09-22.5,22.5-22.5h105.6v-6.25
				c0-14.25,1.11-27.53,8.19-38.75H69.5C32.28,49.48,2,79.76,2,116.98v262c0,37.22,30.28,67.5,67.5,67.5h46.65
				C107.82,430.96,110.27,418.45,110.3,401.48z"/>
		</g>
	</g>
	<g>
		<g>
			<path class="st0" d="M204.35,496.52c-44.93,0-81.48-36.55-81.48-81.48c0-44.93,36.55-81.48,81.48-81.48
				c44.93,0,81.48,36.55,81.48,81.48C285.83,459.97,249.28,496.52,204.35,496.52z M204.35,355.56c-32.8,0-59.48,26.68-59.48,59.48
				c0,32.8,26.68,59.48,59.48,59.48c32.8,0,59.48-26.68,59.48-59.48C263.83,382.24,237.15,355.56,204.35,355.56z"/>
		</g>
		<g id="Conversion_2_">
			<g>
				<path class="st1" d="M234.01,407.7l-30.86-30.86c-4.53-4.53-11.87-4.53-16.39,0c-4.53,4.53-4.53,11.87,0,16.39l23.09,23.09
					l-23.09,23.09c-4.53,4.53-4.53,11.87,0,16.39c4.53,4.53,11.87,4.53,16.39,0l30.86-30.86c2.37-2.37,3.5-5.52,3.38-8.62
					C237.51,413.23,236.38,410.08,234.01,407.7z"/>
			</g>
		</g>
	</g>
	<g>
		<g>
			<polygon class="st0" points="155.8,167.27 227.22,280.5 84.39,280.5 			"/>
		</g>
		<g>
			<polygon class="st0" points="89.14,194.75 159.09,280.5 19.18,280.5 			"/>
		</g>
		<g>
			<circle class="st0" cx="112.43" cy="167.52" r="17.43"/>
		</g>
	</g>
	<g>
		<g>
			<rect x="399.64" y="121.42" class="st0" width="20.08" height="31.86"/>
		</g>
		<g>
			<rect x="285.26" y="144.82" class="st0" width="20" height="100.67"/>
		</g>
		<g>
			<rect x="285.22" y="89.16" class="st0" width="20.08" height="31.86"/>
		</g>
		<g>
			<rect x="399.64" y="167.29" class="st0" width="20.08" height="31.86"/>
		</g>
		<g>
			<rect x="399.64" y="90.48" class="st0" width="20.08" height="15.93"/>
		</g>
		<g>
			<rect x="341.42" y="89.16" class="st0" width="20" height="100.67"/>
		</g>
		<g>
			<path class="st0" d="M419.68,305.88h-78.26v-88.86h78.26V305.88z M361.42,285.88h38.26v-48.86h-38.26V285.88z"/>
		</g>
		<g>
			<rect x="285.22" y="269.29" class="st0" width="20.08" height="20.08"/>
		</g>
		<g>
			<rect x="341.38" y="325.06" class="st0" width="20.08" height="31.86"/>
		</g>
		<g>
			<rect x="341.38" y="374.93" class="st0" width="20.08" height="31.86"/>
		</g>
		<g>
			<rect x="399.94" y="325.06" class="st0" width="20.08" height="20.08"/>
		</g>
		<g>
			<rect x="399.35" y="372.85" class="st0" width="20.08" height="31.86"/>
		</g>
		<g>
			<rect x="285.22" y="309.13" class="st0" width="20.08" height="31.86"/>
		</g>
	</g>
</g>
<g>
</g>
<g>
</g>
<g>
</g>
<g>
</g>
<g>
</g>
</svg>
