<?xml version="1.0" encoding="utf-8"?>
<!-- Generator: Adobe Illustrator 25.0.1, SVG Export Plug-In . SVG Version: 6.00 Build 0)  -->
<svg version="1.1" id="Layer_1" xmlns="http://www.w3.org/2000/svg" xmlns:xlink="http://www.w3.org/1999/xlink" x="0px" y="0px"
	 viewBox="0 0 512 512" style="enable-background:new 0 0 512 512;" xml:space="preserve">
<style type="text/css">
	.st0{fill:none;stroke:#3B90C6;stroke-width:26.5652;stroke-miterlimit:10;}
	.st1{fill:#3C8FC7;}
</style>
<g>
	<g>
		<g>
			<path class="st0" d="M213.63,148.11c0,40.01-32.42,72.43-72.42,72.43c-40,0-72.42-32.43-72.42-72.43
				c0-40,32.42-72.43,72.42-72.43C181.2,75.69,213.63,108.12,213.63,148.11z"/>
			<g>
				<path class="st1" d="M154.83,171.73l-3.95-12.96h-19.84l-3.95,12.96h-12.43l19.21-54.65h14.11l19.28,54.65H154.83z
					 M148.13,149.09c-3.65-11.74-5.7-18.38-6.16-19.92c-0.46-1.54-0.79-2.75-0.99-3.65c-0.82,3.18-3.16,11.03-7.04,23.57H148.13z"/>
			</g>
		</g>
		<g>
			<path class="st1" d="M443.09,136.9c0,16.77-13.75,30.5-30.55,30.5H290.68c-16.8,0-30.55-13.72-30.55-30.5s13.75-30.5,30.55-30.5
				h121.85C429.34,106.4,443.09,120.12,443.09,136.9z"/>
			<path class="st1" d="M442.84,255.59c0,16.77-13.75,30.5-30.55,30.5H290.43c-16.8,0-30.55-13.72-30.55-30.5s13.75-30.5,30.55-30.5
				h121.85C429.09,225.1,442.84,238.82,442.84,255.59z"/>
		</g>
		<g>
			<path class="st0" d="M213.63,363.88c0,40.01-32.42,72.43-72.43,72.43c-40,0-72.42-32.43-72.42-72.43
				c0-40,32.42-72.43,72.42-72.43C181.2,291.45,213.63,323.88,213.63,363.88z"/>
			<g>
				<path class="st1" d="M123.04,337.64h16.94c7.72,0,13.32,1.1,16.81,3.29c3.49,2.2,5.23,5.69,5.23,10.48c0,3.25-0.76,5.92-2.29,8
					c-1.53,2.08-3.55,3.34-6.09,3.76v0.37c3.45,0.77,5.94,2.21,7.46,4.32s2.29,4.91,2.29,8.41c0,4.96-1.79,8.84-5.38,11.62
					c-3.59,2.78-8.46,4.17-14.61,4.17h-20.36V337.64z M134.57,359.2h6.7c3.13,0,5.39-0.48,6.79-1.45c1.4-0.97,2.1-2.57,2.1-4.8
					c0-2.08-0.76-3.58-2.29-4.49c-1.53-0.91-3.94-1.36-7.24-1.36h-6.07V359.2z M134.57,368.36v14.18h7.52
					c3.18,0,5.52-0.61,7.04-1.82s2.27-3.08,2.27-5.58c0-4.52-3.23-6.78-9.68-6.78H134.57z"/>
			</g>
		</g>
		<g>
			<path class="st1" d="M443.22,375.28c0,16.77-13.75,30.5-30.55,30.5H290.81c-16.8,0-30.55-13.72-30.55-30.5
				c0-16.77,13.75-30.5,30.55-30.5h121.85C429.47,344.79,443.22,358.51,443.22,375.28z"/>
		</g>
	</g>
	<g>
		<polygon class="st1" points="2,2 2,32.34 2,73.91 32.34,73.91 32.34,32.34 73.9,32.34 73.9,2 32.34,2 		"/>
		<polygon class="st1" points="479.66,2 438.1,2 438.1,32.34 479.66,32.34 479.66,73.91 510,73.91 510,32.34 510,2 		"/>
		<polygon class="st1" points="2,510 2,479.66 2,438.09 32.34,438.09 32.34,479.66 73.9,479.66 73.9,510 32.34,510 		"/>
		<polygon class="st1" points="479.66,510 438.1,510 438.1,479.66 479.66,479.66 479.66,438.09 510,438.09 510,479.66 510,510 		"/>
	</g>
</g>
<g>
</g>
<g>
</g>
<g>
</g>
<g>
</g>
<g>
</g>
</svg>
