<svg version="1.1" id="Aspose.ZIP" xmlns="http://www.w3.org/2000/svg" x="0" y="0" viewBox="0 0 512 512" style="enable-background:new 0 0 512 512" xml:space="preserve"><style>.st0{fill:#3490c6}</style><g id="Archive_Unlock"><path class="st0" d="M197.2 200.1v-30h32.5v-30.3h-32.5v-30h32.4V79.6h-32.4V48.4H192c-6.7 0-13.4 0-20.1-.1-13.6-.1-26.5-.1-40.1-.1v31.6h32.7v30.3H132v30h32.4v30.2H132v30.2h32.5v30H132v132.2h97.6V200.1h-32.4zm.4 130.3h-33.5v-33.5h33.5v33.5z"/><path class="st0" d="M378.4 395.8c-18.3 0-35.7-4.3-51-11.9v49.3c0 12.6-10.3 22.9-22.9 22.9H96.6c-12.6 0-22.9-10.3-22.9-22.9V78.7c0-12.6 10.3-22.9 22.9-22.9h207.8c12.6 0 22.9 10.3 22.9 22.9v78.6c15.4-7.6 32.7-11.9 51-11.9h1.3V78.7c0-41.5-33.8-75.2-75.2-75.2H96.6c-41.5 0-75.2 33.8-75.2 75.2v354.5c0 41.5 33.8 75.2 75.2 75.2h207.8c41.5 0 75.2-33.8 75.2-75.2v-37.5c-.3.1-.8.1-1.2.1z"/><path class="st0" d="M377.9 185.1c47.4 0 85.9 38.5 85.9 85.9 0 47.4-38.5 85.9-85.9 85.9s-85.9-38.6-85.9-86c0-47.3 38.6-85.8 85.9-85.8m0-26.9c-62.2 0-112.7 50.5-112.7 112.7s50.5 112.7 112.7 112.7 112.7-50.5 112.7-112.7-50.4-112.7-112.7-112.7z" id="Ellipse_1_copy_1_"/><path class="st0" d="M424.4 254.5V325c0 1.4-1.1 2.5-2.5 2.5h-88.1c-1.4 0-2.5-1.1-2.5-2.5v-70.5c0-1.4 1.1-2.5 2.5-2.5H395c1.4 0 2.5-1.1 2.5-2.5v-8.3c0-3.5-.9-6.8-2.6-9.8-1.7-3-4.2-5.4-7.1-7.1-3-1.7-6.3-2.6-9.8-2.6-4.2 0-7.9 1.2-11.3 3.7-3.4 2.5-5.9 5.7-7.5 9.6-.5 1.3-2 1.9-3.2 1.4l-8.1-3.3c-1.3-.5-1.9-1.9-1.4-3.2 2.6-6.4 6.6-11.6 12.1-15.7 5.8-4.2 12.3-6.2 19.3-6.2 5.9 0 11.5 1.5 16.6 4.5 2.5 1.5 4.8 3.3 6.9 5.3 2 2 3.8 4.3 5.3 6.9 3 5.1 4.5 10.7 4.5 16.6v8.3c0 1.4 1.1 2.5 2.5 2.5h8.3c1.3 0 2.4 1.1 2.4 2.4z"/></g></svg>