<?xml version="1.0" encoding="utf-8"?>
<!-- Generator: Adobe Illustrator 25.0.1, SVG Export Plug-In . SVG Version: 6.00 Build 0)  -->
<svg version="1.1" id="Layer_1" xmlns="http://www.w3.org/2000/svg" xmlns:xlink="http://www.w3.org/1999/xlink" x="0px" y="0px"
	 viewBox="0 0 512 512" style="enable-background:new 0 0 512 512;" xml:space="preserve">
<style type="text/css">
	.st0{fill:#3A8FC6;}
</style>
<g id="Generate">
	<g>
		<path class="st0" d="M243.84,419.02c0,8.01-6.49,14.5-14.5,14.5l0,0c-8.01,0-14.5-6.49-14.5-14.5V277.34
			c0-8.01,6.49-14.5,14.5-14.5l0,0c8.01,0,14.5,6.49,14.5,14.5V419.02z"/>
		<path class="st0" d="M229.34,82c0,8.01-6.49,14.5-14.5,14.5l0,0c-8.01,0-14.5-6.49-14.5-14.5V27.95c0-8.01,6.49-14.5,14.5-14.5
			l0,0c8.01,0,14.5,6.49,14.5,14.5V82z"/>
		<path class="st0" d="M182.34,484.05c0,8.01-6.49,14.5-14.5,14.5l0,0c-8.01,0-14.5-6.49-14.5-14.5v-71.68
			c0-8.01,6.49-14.5,14.5-14.5l0,0c8.01,0,14.5,6.49,14.5,14.5V484.05z"/>
		<path class="st0" d="M23.16,197.29c-8.01,0-14.5-6.49-14.5-14.5l0,0c0-8.01,6.49-14.5,14.5-14.5h91.68c8.01,0,14.5,6.49,14.5,14.5
			l0,0c0,8.01-6.49,14.5-14.5,14.5H23.16z"/>
		<path class="st0" d="M96.49,290.34c0,8.01-6.49,14.5-14.5,14.5l0,0c-8.01,0-14.5-6.49-14.5-14.5v-61.68
			c0-8.01,6.49-14.5,14.5-14.5l0,0c8.01,0,14.5,6.49,14.5,14.5V290.34z"/>
		<path class="st0" d="M214.84,191.29c-8.01,0-14.5-6.49-14.5-14.5l0,0c0-8.01,6.49-14.5,14.5-14.5h61.68
			c8.01,0,14.5,6.49,14.5,14.5l0,0c0,8.01-6.49,14.5-14.5,14.5H214.84z"/>
		<path class="st0" d="M182.34,228.63c0,8.01-6.49,14.5-14.5,14.5l0,0c-8.01,0-14.5-6.49-14.5-14.5V27.95
			c0-8.01,6.49-14.5,14.5-14.5l0,0c8.01,0,14.5,6.49,14.5,14.5V228.63z"/>
		<path class="st0" d="M23.16,314.79c-8.01,0-14.5-6.49-14.5-14.5l0,0c0-8.01,6.49-14.5,14.5-14.5h145.68
			c8.01,0,14.5,6.49,14.5,14.5l0,0c0,8.01-6.49,14.5-14.5,14.5H23.16z"/>
		<g>
			<rect x="45.67" y="425.81" class="st0" width="36.32" height="36.32"/>
			<path class="st0" d="M9.25,389.39v109.16h109.16V389.39H9.25z M96.57,476.72H31.08v-65.49h65.49V476.72z"/>
		</g>
		<g>
			<rect x="45.67" y="49.87" class="st0" width="36.32" height="36.32"/>
			<path class="st0" d="M9.25,13.45v109.16h109.16V13.45H9.25z M96.57,100.77H31.08V35.28h65.49V100.77z"/>
		</g>
	</g>
	<g>
		<path class="st0" d="M282.66,484.05c0,8.01,6.49,14.5,14.5,14.5l0,0c8.01,0,14.5-6.49,14.5-14.5V342.37
			c0-8.01-6.49-14.5-14.5-14.5l0,0c-8.01,0-14.5,6.49-14.5,14.5V484.05z"/>
		<path class="st0" d="M282.66,122c0,8.01,6.49,14.5,14.5,14.5l0,0c8.01,0,14.5-6.49,14.5-14.5V27.95c0-8.01-6.49-14.5-14.5-14.5
			l0,0c-8.01,0-14.5,6.49-14.5,14.5V122z"/>
		<path class="st0" d="M329.66,484.05c0,8.01,6.49,14.5,14.5,14.5l0,0c8.01,0,14.5-6.49,14.5-14.5v-71.68
			c0-8.01-6.49-14.5-14.5-14.5l0,0c-8.01,0-14.5,6.49-14.5,14.5V484.05z"/>
		<path class="st0" d="M488.84,197.29c8.01,0,14.5-6.49,14.5-14.5l0,0c0-8.01-6.49-14.5-14.5-14.5h-91.68
			c-8.01,0-14.5,6.49-14.5,14.5l0,0c0,8.01,6.49,14.5,14.5,14.5H488.84z"/>
		<path class="st0" d="M428.5,279.84c0,8.01,6.49,14.5,14.5,14.5l0,0c8.01,0,14.5-6.49,14.5-14.5v-61.68c0-8.01-6.49-14.5-14.5-14.5
			l0,0c-8.01,0-14.5,6.49-14.5,14.5V279.84z"/>
		<path class="st0" d="M297.16,243.16c8.01,0,14.5-6.49,14.5-14.5l0,0c0-8.01-6.49-14.5-14.5-14.5h-61.68
			c-8.01,0-14.5,6.49-14.5,14.5l0,0c0,8.01,6.49,14.5,14.5,14.5H297.16z"/>
		<path class="st0" d="M381.99,333.68c-8.01,0-14.5,6.49-14.5,14.5l0,0c0,8.01,6.49,14.5,14.5,14.5h61.68
			c8.01,0,14.5-6.49,14.5-14.5l0,0c0-8.01-6.49-14.5-14.5-14.5H381.99z"/>
		<path class="st0" d="M68.33,333.68c-8.01,0-14.5,6.49-14.5,14.5l0,0c0,8.01,6.49,14.5,14.5,14.5h61.68c8.01,0,14.5-6.49,14.5-14.5
			l0,0c0-8.01-6.49-14.5-14.5-14.5H68.33z"/>
		<path class="st0" d="M329.66,228.63c0,8.01,6.49,14.5,14.5,14.5l0,0c8.01,0,14.5-6.49,14.5-14.5V67.95c0-8.01-6.49-14.5-14.5-14.5
			l0,0c-8.01,0-14.5,6.49-14.5,14.5V228.63z"/>
		<path class="st0" d="M443.67,300.29c8.01,0,14.5-6.49,14.5-14.5l0,0c0-8.01-6.49-14.5-14.5-14.5H297.99
			c-8.01,0-14.5,6.49-14.5,14.5l0,0c0,8.01,6.49,14.5,14.5,14.5H443.67z"/>
		<g>
			<rect x="430.01" y="425.81" class="st0" width="36.32" height="36.32"/>
			<path class="st0" d="M393.59,389.39v109.16h109.16V389.39H393.59z M415.43,411.23h65.49v65.49h-65.49V411.23z"/>
		</g>
		<g>
			<rect x="430.01" y="49.87" class="st0" width="36.32" height="36.32"/>
			<path class="st0" d="M393.59,13.45v109.16h109.16V13.45H393.59z M415.43,35.28h65.49v65.49h-65.49V35.28z"/>
		</g>
	</g>
</g>
<g>
</g>
<g>
</g>
<g>
</g>
<g>
</g>
<g>
</g>
</svg>
