<?xml version="1.0" encoding="utf-8"?>
<!-- Generator: Adobe Illustrator 25.0.1, SVG Export Plug-In . SVG Version: 6.00 Build 0)  -->
<svg version="1.1" id="Layer_1" xmlns="http://www.w3.org/2000/svg" xmlns:xlink="http://www.w3.org/1999/xlink" x="0px" y="0px"
	 viewBox="0 0 512 512" style="enable-background:new 0 0 512 512;" xml:space="preserve">
<style type="text/css">
	.st0{fill:#3690C8;}
</style>
<g id="Fishbone">
	<g>
		<g>
			<path class="st0" d="M448.7,278.2H10.5c-2.4,0-4.3-1.9-4.3-4.3v-27.4c0-2.4,1.9-4.3,4.3-4.3h438.2c2.4,0,4.3,1.9,4.3,4.3v27.4
				C453,276.3,451,278.2,448.7,278.2z"/>
			<path class="st0" d="M504.4,256.9l-74.8-67.3c-2.8-2.5-7.2-0.5-7.2,3.2v134.5c0,3.8,4.4,5.7,7.2,3.2l74.8-67.3
				C506.3,261.7,506.3,258.7,504.4,256.9z"/>
		</g>
		<g>
			
				<rect x="213.9" y="162" transform="matrix(-0.6529 -0.7574 0.7574 -0.6529 399.4102 531.0649)" class="st0" width="214.9" height="24"/>
			
				<rect x="11.8" y="162" transform="matrix(-0.6529 -0.7574 0.7574 -0.6529 65.2069 377.9258)" class="st0" width="214.9" height="24"/>
			
				<rect x="11.8" y="322" transform="matrix(0.6529 -0.7574 0.7574 0.6529 -211.6266 206.203)" class="st0" width="214.9" height="24"/>
			
				<rect x="213.9" y="322" transform="matrix(0.6529 -0.7574 0.7574 0.6529 -141.455 359.3421)" class="st0" width="214.9" height="24"/>
		</g>
	</g>
	<g>
		<g>
			<path class="st0" d="M369.9,450.7H239.9c-6.3,0-11.4-5.1-11.4-11.4v-59.5c0-6.3,5.1-11.4,11.4-11.4h129.9
				c6.3,0,11.4,5.1,11.4,11.4v59.5C381.3,445.5,376.2,450.7,369.9,450.7z"/>
		</g>
		<g>
			<path class="st0" d="M161.6,450.7H31.7c-6.3,0-11.4-5.1-11.4-11.4v-59.5c0-6.3,5.1-11.4,11.4-11.4h129.9
				c6.3,0,11.4,5.1,11.4,11.4v59.5C173,445.5,167.9,450.7,161.6,450.7z"/>
		</g>
		<g>
			<path class="st0" d="M369.9,143.8H239.9c-6.3,0-11.4-5.1-11.4-11.4V72.8c0-6.3,5.1-11.4,11.4-11.4h129.9
				c6.3,0,11.4,5.1,11.4,11.4v59.5C381.3,138.6,376.2,143.8,369.9,143.8z"/>
		</g>
		<g>
			<path class="st0" d="M161.6,143.8H31.7c-6.3,0-11.4-5.1-11.4-11.4V72.8c0-6.3,5.1-11.4,11.4-11.4h129.9c6.3,0,11.4,5.1,11.4,11.4
				v59.5C173,138.6,167.9,143.8,161.6,143.8z"/>
		</g>
	</g>
</g>
</svg>
