<?xml version="1.0" encoding="utf-8"?>
<!-- Generator: Adobe Illustrator 25.2.0, SVG Export Plug-In . SVG Version: 6.00 Build 0)  -->
<svg version="1.1" id="Aspose.Video_AudioExtractor"
	 xmlns="http://www.w3.org/2000/svg" xmlns:xlink="http://www.w3.org/1999/xlink" x="0px" y="0px" viewBox="0 0 512 512"
	 style="enable-background:new 0 0 512 512;" xml:space="preserve">
<style type="text/css">
	.st0{display:none;}
	.st1{display:inline;}
	.st2{display:inline;clip-path:url(#SVGID_2_);}
	.st3{fill:#2A93CE;}
	.st4{fill:#FFFFFF;}
	.st5{display:none;fill:#2A93CE;}
	.st6{font-family:'FontAwesome5Free-Solid';}
	.st7{font-size:201.3542px;}
	.st8{fill:#3593CB;}
	.st9{display:inline;fill:#2A93CE;}
	.st10{clip-path:url(#SVGID_4_);}
</style>
<g class="st0">
	<defs>
		<polygon id="SVGID_1_" points="512,512 0,512 0,0 248,0 350.7,40.8 285.3,155.4 254.9,256 457.5,162.1 512,104.6 		"/>
	</defs>
	<clipPath id="SVGID_2_" class="st1">
		<use xlink:href="#SVGID_1_"  style="overflow:visible;"/>
	</clipPath>
	<g id="Muter" class="st2">
		<g>
			<path class="st3" d="M459.3,465.9H52.7c-26.8,0-48.6-21.8-48.6-48.6V94.4c0-26.6,21.7-48.3,48.3-48.3h407.2
				c26.6,0,48.3,21.7,48.3,48.3v322.9C507.9,444.1,486.1,465.9,459.3,465.9z M52.4,88.1c-3.5,0-6.3,2.8-6.3,6.3v322.9
				c0,3.6,3,6.6,6.6,6.6h406.6c3.6,0,6.6-3,6.6-6.6V94.4c0-3.5-2.8-6.3-6.3-6.3H52.4z"/>
		</g>
		<g>
			<g>
				<g>
					<rect x="37.5" y="77" class="st3" width="434.8" height="70.9"/>
				</g>
			</g>
			<g>
				<g>
					<g>
						<path class="st4" d="M411.2,122c-1.6,0-3-1.3-3-3V72.7c0-1.6,1.3-3,3-3h46.4c1.6,0,3,1.3,3,3V119c0,1.6-1.3,3-3,3H411.2z"/>
					</g>
				</g>
				<g>
					<g>
						<path class="st4" d="M291.1,122c-1.6,0-3-1.3-3-3V72.7c0-1.6,1.3-3,3-3h46.4c1.6,0,3,1.3,3,3V119c0,1.6-1.3,3-3,3H291.1z"/>
					</g>
				</g>
				<g>
					<g>
						<path class="st4" d="M54.5,122c-1.6,0-3-1.3-3-3V72.7c0-1.6,1.3-3,3-3h46.4c1.6,0,3,1.3,3,3V119c0,1.6-1.3,3-3,3H54.5z"/>
					</g>
				</g>
				<g>
					<g>
						<path class="st4" d="M171.1,122c-1.6,0-3-1.3-3-3V72.7c0-1.6,1.3-3,3-3h46.4c1.6,0,3,1.3,3,3V119c0,1.6-1.3,3-3,3H171.1z"/>
					</g>
				</g>
			</g>
		</g>
		<g>
			<g>
				<g>
					<rect x="37.5" y="363.9" class="st3" width="434.8" height="70.9"/>
				</g>
			</g>
			<g>
				<g>
					<g>
						<path class="st4" d="M411.2,389.8c-1.6,0-3,1.3-3,3v46.4c0,1.6,1.3,3,3,3h46.4c1.6,0,3-1.3,3-3v-46.4c0-1.6-1.3-3-3-3H411.2z"
							/>
					</g>
				</g>
				<g>
					<g>
						<path class="st4" d="M291.1,389.8c-1.6,0-3,1.3-3,3v46.4c0,1.6,1.3,3,3,3h46.4c1.6,0,3-1.3,3-3v-46.4c0-1.6-1.3-3-3-3H291.1z"
							/>
					</g>
				</g>
				<g>
					<g>
						<path class="st4" d="M54.5,389.8c-1.6,0-3,1.3-3,3v46.4c0,1.6,1.3,3,3,3h46.4c1.6,0,3-1.3,3-3v-46.4c0-1.6-1.3-3-3-3H54.5z"/>
					</g>
				</g>
				<g>
					<g>
						<path class="st4" d="M171.1,389.8c-1.6,0-3,1.3-3,3v46.4c0,1.6,1.3,3,3,3h46.4c1.6,0,3-1.3,3-3v-46.4c0-1.6-1.3-3-3-3H171.1z"
							/>
					</g>
				</g>
			</g>
		</g>
	</g>
</g>
<text transform="matrix(4.489653e-11 -1 -1 -4.489653e-11 327.7725 205.3047)" class="st5 st6 st7"></text>
<g class="st0">
	<path class="st8" d="M97.8,299.1L97.8,299.1c-6,0-10.8-4.9-10.8-10.8v-54.8c0-6,4.9-10.8,10.8-10.8h0c6,0,10.8,4.9,10.8,10.8v54.8
		C108.6,294.2,103.7,299.1,97.8,299.1z"/>
	<path class="st9" d="M128.8,320.1L128.8,320.1c-6,0-10.8-4.9-10.8-10.8V203.4c0-6,4.9-10.8,10.8-10.8h0c6,0,10.8,4.9,10.8,10.8
		v105.8C139.6,315.2,134.7,320.1,128.8,320.1z"/>
	<path class="st9" d="M171.8,344.1L171.8,344.1c-6,0-10.8-4.9-10.8-10.8V179.4c0-6,4.9-10.8,10.8-10.8h0c6,0,10.8,4.9,10.8,10.8
		v153.8C182.6,339.2,177.7,344.1,171.8,344.1z"/>
	<path class="st9" d="M214.8,324.1L214.8,324.1c-6,0-10.8-4.9-10.8-10.8V207.4c0-6,4.9-10.8,10.8-10.8h0c6,0,10.8,4.9,10.8,10.8
		v105.8C225.6,319.2,220.7,324.1,214.8,324.1z"/>
	<path class="st9" d="M253.8,300.1L253.8,300.1c-6,0-10.8-4.9-10.8-10.8v-54.8c0-6,4.9-10.8,10.8-10.8h0c6,0,10.8,4.9,10.8,10.8
		v54.8C264.6,295.2,259.7,300.1,253.8,300.1z"/>
	<path class="st9" d="M88.8,300.1L88.8,300.1c-6,0-10.8-4.9-10.8-10.8v-54.8c0-6,4.9-10.8,10.8-10.8h0c6,0,10.8,4.9,10.8,10.8v54.8
		C99.6,295.2,94.7,300.1,88.8,300.1z"/>
	<path class="st9" d="M295.8,320.1L295.8,320.1c-6,0-10.8-4.9-10.8-10.8V203.4c0-6,4.9-10.8,10.8-10.8l0,0c6,0,10.8,4.9,10.8,10.8
		v105.8C306.6,315.2,301.7,320.1,295.8,320.1z"/>
	<path class="st9" d="M334.8,300.1L334.8,300.1c-6,0-10.8-4.9-10.8-10.8v-53.8c0-6,4.9-10.8,10.8-10.8l0,0c6,0,10.8,4.9,10.8,10.8
		v53.8C345.6,295.2,340.7,300.1,334.8,300.1z"/>
</g>
<g>
	<g>
		<defs>
			<path id="SVGID_3_" d="M512.4,487.6H-0.4V45.8H248l80,10.9c0,0-77,20.8-58.7,117.8c17.6,93-14.5,97.8-14.5,97.8l164-62.8
				l93.5-88.8V487.6z"/>
		</defs>
		<clipPath id="SVGID_4_">
			<use xlink:href="#SVGID_3_"  style="overflow:visible;"/>
		</clipPath>
		<g id="Muter_2_" class="st10">
			<g>
				<path class="st3" d="M459.6,482.4H52.4c-26.8,0-48.7-21.8-48.7-48.7V110.4C3.7,83.7,25.5,62,52.1,62h407.8
					c26.6,0,48.4,21.7,48.4,48.4v323.4C508.3,460.6,486.4,482.4,459.6,482.4z M52.1,104.1c-3.5,0-6.3,2.8-6.3,6.3v323.4
					c0,3.6,3,6.6,6.6,6.6h407.2c3.6,0,6.6-3,6.6-6.6V110.4c0-3.5-2.8-6.3-6.3-6.3H52.1z"/>
			</g>
			<g>
				<g>
					<g>
						<rect x="37.2" y="93" class="st3" width="435.5" height="71"/>
					</g>
				</g>
				<g>
					<g>
						<g>
							<path class="st4" d="M411.4,138c-1.6,0-3-1.3-3-3V88.6c0-1.6,1.3-3,3-3h46.5c1.6,0,3,1.3,3,3V135c0,1.6-1.3,3-3,3H411.4z"/>
						</g>
					</g>
					<g>
						<g>
							<path class="st4" d="M291.2,138c-1.6,0-3-1.3-3-3V88.6c0-1.6,1.3-3,3-3h46.5c1.6,0,3,1.3,3,3V135c0,1.6-1.3,3-3,3H291.2z"/>
						</g>
					</g>
					<g>
						<g>
							<path class="st4" d="M54.2,138c-1.6,0-3-1.3-3-3V88.6c0-1.6,1.3-3,3-3h46.5c1.6,0,3,1.3,3,3V135c0,1.6-1.3,3-3,3H54.2z"/>
						</g>
					</g>
					<g>
						<g>
							<path class="st4" d="M171,138c-1.6,0-3-1.3-3-3V88.6c0-1.6,1.3-3,3-3h46.5c1.6,0,3,1.3,3,3V135c0,1.6-1.3,3-3,3H171z"/>
						</g>
					</g>
				</g>
			</g>
			<g>
				<g>
					<g>
						<rect x="37.2" y="380.3" class="st3" width="435.5" height="71"/>
					</g>
				</g>
				<g>
					<g>
						<g>
							<path class="st4" d="M411.4,406.2c-1.6,0-3,1.3-3,3v46.5c0,1.6,1.3,3,3,3h46.5c1.6,0,3-1.3,3-3v-46.5c0-1.6-1.3-3-3-3H411.4z
								"/>
						</g>
					</g>
					<g>
						<g>
							<path class="st4" d="M291.2,406.2c-1.6,0-3,1.3-3,3v46.5c0,1.6,1.3,3,3,3h46.5c1.6,0,3-1.3,3-3v-46.5c0-1.6-1.3-3-3-3H291.2z
								"/>
						</g>
					</g>
					<g>
						<g>
							<path class="st4" d="M54.2,406.2c-1.6,0-3,1.3-3,3v46.5c0,1.6,1.3,3,3,3h46.5c1.6,0,3-1.3,3-3v-46.5c0-1.6-1.3-3-3-3H54.2z"
								/>
						</g>
					</g>
					<g>
						<g>
							<path class="st4" d="M171,406.2c-1.6,0-3,1.3-3,3v46.5c0,1.6,1.3,3,3,3h46.5c1.6,0,3-1.3,3-3v-46.5c0-1.6-1.3-3-3-3H171z"/>
						</g>
					</g>
				</g>
			</g>
		</g>
	</g>
	<g>
		<path class="st3" d="M495.4,88.2c2.2,1.9,3.2,4.3,3.2,7.3c0,3-1.1,5.4-3.2,7.3l-71.1,61.4c-3.2,2.7-6.7,3.2-10.5,1.4
			c-3.8-1.7-5.7-4.6-5.7-8.7v-35.6c-13.2,0.3-24.4,1.1-33.5,2.6c-9.2,1.5-17.1,3.9-23.8,7.3c-6.7,3.4-11.7,7.9-14.7,13.5
			c-3.1,5.7-4.6,12.8-4.6,21.4c0,8.6,1.7,18.7,5.3,30.3c1.1,3.2,0.2,5.8-2.6,7.7c-2.8,1.9-5.7,1.7-8.7-0.4
			c-9.4-6.7-17.4-15.8-23.8-27.3c-6.5-11.4-9.7-23.1-9.7-34.9c0-11.8,2-22.2,6.1-31.1s9.4-16.1,16.2-21.6c6.7-5.5,15.2-10,25.5-13.3
			c10.2-3.4,20.7-5.7,31.5-6.9c10.8-1.2,23.2-2,37.2-2.2V34.1c0-4,1.9-6.9,5.7-8.7c3.8-1.7,7.3-1.3,10.5,1.4L495.4,88.2z"/>
	</g>
	<path class="st3" d="M98,310L98,310c-5.1,0-9.3-4.2-9.3-9.3v-46.9c0-5.1,4.2-9.3,9.3-9.3h0c5.1,0,9.3,4.2,9.3,9.3v46.9
		C107.2,305.8,103,310,98,310z"/>
	<path class="st3" d="M149.2,327.1L149.2,327.1c-5.1,0-9.3-4.2-9.3-9.3v-90.6c0-5.1,4.2-9.3,9.3-9.3h0c5.1,0,9.3,4.2,9.3,9.3v90.6
		C158.4,322.9,154.3,327.1,149.2,327.1z"/>
	<path class="st3" d="M203,347.6L203,347.6c-5.1,0-9.3-4.2-9.3-9.3V206.7c0-5.1,4.2-9.3,9.3-9.3h0c5.1,0,9.3,4.2,9.3,9.3v131.6
		C212.2,343.4,208.1,347.6,203,347.6z"/>
	<path class="st3" d="M256.8,330.5L256.8,330.5c-5.1,0-9.3-4.2-9.3-9.3v-90.6c0-5.1,4.2-9.3,9.3-9.3h0c5.1,0,9.3,4.2,9.3,9.3v90.6
		C266,326.3,261.9,330.5,256.8,330.5z"/>
	<path class="st3" d="M307.2,310L307.2,310c-5.1,0-9.3-4.2-9.3-9.3v-46.9c0-5.1,4.2-9.3,9.3-9.3h0c5.1,0,9.3,4.2,9.3,9.3v46.9
		C316.4,305.8,312.3,310,307.2,310z"/>
	<path class="st3" d="M360.1,327.1L360.1,327.1c-5.1,0-9.3-4.2-9.3-9.3v-90.6c0-5.1,4.2-9.3,9.3-9.3h0c5.1,0,9.3,4.2,9.3,9.3v90.6
		C369.4,322.9,365.2,327.1,360.1,327.1z"/>
	<path class="st3" d="M410.5,310L410.5,310c-5.1,0-9.3-4.2-9.3-9.3v-46.1c0-5.1,4.2-9.3,9.3-9.3h0c5.1,0,9.3,4.2,9.3,9.3v46.1
		C419.7,305.8,415.6,310,410.5,310z"/>
</g>
</svg>
