<?xml version="1.0" encoding="utf-8"?>
<!-- Generator: Adobe Illustrator 25.0.1, SVG Export Plug-In . SVG Version: 6.00 Build 0)  -->
<svg version="1.1" id="Layer_1" xmlns="http://www.w3.org/2000/svg" xmlns:xlink="http://www.w3.org/1999/xlink" x="0px" y="0px"
	 viewBox="0 0 512 512" style="enable-background:new 0 0 512 512;" xml:space="preserve">
<style type="text/css">
	.st0{fill:#3890C8;}
	.st1{fill:#3991C9;}
	.st2{fill:#3691C9;}
</style>
<g id="Resize_Image">
	<g id="Rectangle_7_2_">
		<g>
			<rect x="91.65" y="23.92" class="st0" width="29.88" height="29.88"/>
		</g>
	</g>
	<g id="Rectangle_7_copy_2_">
		<g>
			<rect x="151.41" y="23.92" class="st0" width="29.88" height="29.88"/>
		</g>
	</g>
	<g id="Rectangle_7_copy_2">
		<g>
			<rect x="211.18" y="23.92" class="st0" width="29.88" height="29.88"/>
		</g>
	</g>
	<g id="Rectangle_7_copy_3">
		<g>
			<rect x="270.94" y="23.92" class="st0" width="29.88" height="29.88"/>
		</g>
	</g>
	<g id="Rectangle_7_copy_4">
		<g>
			<rect x="330.71" y="23.92" class="st0" width="29.88" height="29.88"/>
		</g>
	</g>
	<g id="Rectangle_7_copy_5">
		<g>
			<rect x="390.47" y="23.92" class="st0" width="29.88" height="29.88"/>
		</g>
	</g>
	<g id="Rectangle_8_2_">
		<g>
			<rect x="82.68" y="457.21" class="st0" width="29.88" height="29.88"/>
		</g>
	</g>
	<g id="Rectangle_8_copy_2_">
		<g>
			<rect x="141.45" y="457.21" class="st0" width="29.88" height="29.88"/>
		</g>
	</g>
	<g id="Rectangle_9_2_">
		<g>
			<rect x="2" y="120.54" class="st0" width="29.88" height="29.88"/>
		</g>
	</g>
	<g id="Rectangle_9_copy_2_">
		<g>
			<rect x="2" y="180.3" class="st0" width="29.88" height="29.88"/>
		</g>
	</g>
	<g id="Rectangle_9_copy_2">
		<g>
			<rect x="2" y="240.07" class="st0" width="29.88" height="29.88"/>
		</g>
	</g>
	<g id="Rectangle_9_copy_3">
		<g>
			<rect x="2" y="299.83" class="st0" width="29.88" height="29.88"/>
		</g>
	</g>
	<g id="Rectangle_9_copy_4">
		<g>
			<rect x="2" y="359.6" class="st0" width="29.88" height="29.88"/>
		</g>
	</g>
	<g id="Rectangle_10">
		<g>
			<rect x="480.12" y="120.54" class="st0" width="29.88" height="29.88"/>
		</g>
	</g>
	<g id="Rectangle_10_copy">
		<g>
			<rect x="480.12" y="180.3" class="st0" width="29.88" height="29.88"/>
		</g>
	</g>
	<g id="Rectangle_6_2_">
		<g>
			<path class="st0" d="M510,23.92h-29.88v29.3l0,0v30l0,0c0,0.3,0,0.47,0,0.47H510V23.92L510,23.92z"/>
		</g>
	</g>
	<g id="Rectangle_6_copy_2_">
		<g>
			<polygon class="st0" points="508.01,23.92 478.01,23.92 477.71,23.92 448.9,23.92 448.6,23.92 448.24,23.92 448.24,24.15 
				448.24,24.15 448.24,23.92 448.24,23.92 448.24,24.15 448.24,24.15 448.24,53.8 478.01,53.8 478.01,53.8 508.01,53.8 
				508.01,23.92 			"/>
		</g>
	</g>
	<g id="Rectangle_6_copy_2_3_">
		<g>
			<path class="st0" d="M31.88,23.92H2v29.3l0,0v30l0,0c0,0.3,0,0.47,0,0.47h29.88V23.92L31.88,23.92z"/>
		</g>
	</g>
	<g id="Rectangle_6_copy_2_2_">
		<g>
			<polygon class="st0" points="63.76,23.92 33.76,23.92 32.79,23.92 5.94,23.92 4.34,23.92 3.99,23.92 3.99,24.15 3.99,24.15 
				3.99,23.92 3.99,23.92 3.99,24.15 3.99,24.15 3.99,53.8 33.76,53.8 33.76,53.8 63.76,53.8 63.76,23.92 			"/>
		</g>
	</g>
	<g id="Rectangle_6_copy_3_3_">
		<g>
			<path class="st0" d="M31.88,427.33H2v29.3l0,0v30l0,0c0,0.3,0,0.47,0,0.47h29.88V427.33L31.88,427.33z"/>
		</g>
	</g>
	<g id="Rectangle_6_copy_3_2_">
		<g>
			<polygon class="st0" points="58.78,457.21 28.78,457.21 28.78,462.43 9.32,462.43 9.32,457.21 3.99,457.21 3.99,462.43 
				3.99,462.43 3.99,457.21 3.99,457.21 3.99,462.43 3.99,462.43 3.99,487.09 28.78,487.09 28.78,487.09 58.78,487.09 58.78,457.21 
							"/>
		</g>
	</g>
	<g>
		<g>
			<path class="st1" d="M406.44,470.18c-9.57-0.02-19.14-0.04-28.72-0.05c-56.2-0.29-112.4-0.57-168.6-0.93
				c-1.99-0.01-3.98-0.74-5.97-1.13c26.02-35.27,52.03-70.53,78.52-106.44c16.53,18.22,32.83,36.19,49.63,54.71
				c20.37-32.9,40.45-65.32,61.11-98.68c5.61,8.48,10.82,16.37,16.04,24.24c27.42,41.34,54.85,82.67,82.23,124.02
				c0.87,1.31,1.35,2.88,2.01,4.33c-17.86-0.01-35.72-0.02-53.58-0.03C428.23,470.21,417.33,470.19,406.44,470.18z"/>
		</g>
	</g>
	<g id="Ellipse_1_2_">
		<g>
			
				<ellipse transform="matrix(0.9732 -0.2298 0.2298 0.9732 -61.1156 82.7348)" class="st2" cx="324.73" cy="303.82" rx="24.9" ry="24.9"/>
		</g>
	</g>
	<g id="Rectangle_3">
		<g>
			<path class="st2" d="M484.87,250.13v211.97H211.15V250.13H484.87 M509.87,225.13H186.15v261.97h323.73V225.13L509.87,225.13z"/>
		</g>
	</g>
	<g>
		<path class="st2" d="M172.69,164.51v34.33c0,3.74-3.03,6.77-6.77,6.77h-34.33c-6.03,0-9.05-7.29-4.79-11.56l9.19-9.19
			l-48.65-48.65l-9.19,9.19c-4.27,4.27-11.56,1.24-11.56-4.79v-34.33c0-3.74,3.03-6.77,6.77-6.77h34.33c6.03,0,9.05,7.29,4.79,11.56
			l-9.19,9.19l48.65,48.65l9.19-9.19C165.4,155.46,172.69,158.48,172.69,164.51z"/>
	</g>
</g>
<g>
</g>
<g>
</g>
<g>
</g>
<g>
</g>
<g>
</g>
</svg>
