<?xml version="1.0" encoding="utf-8"?>
<!-- Generator: Adobe Illustrator 25.0.1, SVG Export Plug-In . SVG Version: 6.00 Build 0)  -->
<svg version="1.1" id="Layer_1" xmlns="http://www.w3.org/2000/svg" xmlns:xlink="http://www.w3.org/1999/xlink" x="0px" y="0px"
	 viewBox="0 0 512 512" style="enable-background:new 0 0 512 512;" xml:space="preserve">
<style type="text/css">
	.st0{fill:#3290CA;}
	.st1{fill:#FFFFFF;}
</style>
<g id="Deskew_App">
	<g>
		<g>
			<path class="st0" d="M382.28,435.16c-6.62,0-12.67-4.41-14.47-11.1c-2.16-8,2.58-16.23,10.58-18.39l9.66-2.6l-2.6-9.66
				c-2.16-8,2.58-16.23,10.58-18.39c8-2.16,16.23,2.58,18.39,10.58l6.5,24.14c1.04,3.84,0.5,7.94-1.48,11.38s-5.26,5.97-9.1,7
				l-24.14,6.5C384.88,434.99,383.57,435.16,382.28,435.16z"/>
		</g>
		<g>
			<path class="st0" d="M195.88,485.38c-6.62,0-12.67-4.41-14.47-11.1c-2.16-8,2.58-16.23,10.58-18.39l46.6-12.55
				c8-2.16,16.23,2.58,18.39,10.58c2.16,8-2.58,16.23-10.58,18.39l-46.6,12.55C198.49,485.21,197.17,485.38,195.88,485.38z
				 M289.08,460.27c-6.62,0-12.67-4.41-14.47-11.1c-2.16-8,2.58-16.23,10.58-18.39l46.6-12.55c8-2.16,16.23,2.58,18.39,10.58
				c2.16,8-2.58,16.23-10.58,18.39l-46.6,12.55C291.68,460.1,290.37,460.27,289.08,460.27z"/>
		</g>
		<g>
			<path class="st0" d="M125.16,504.43c-2.6,0-5.19-0.68-7.48-2c-3.45-1.98-5.97-5.26-7-9.1l-6.5-24.14
				c-2.16-8,2.58-16.23,10.58-18.39c8-2.16,16.23,2.58,18.39,10.58l2.6,9.66l9.66-2.6c8-2.16,16.23,2.58,18.39,10.58
				s-2.58,16.23-10.58,18.39l-24.14,6.5C127.77,504.26,126.46,504.43,125.16,504.43z"/>
		</g>
		<g>
			<path class="st0" d="M105.37,431.03c-6.62,0-12.67-4.41-14.47-11.1l-13.27-49.26c-2.16-8,2.58-16.23,10.58-18.39
				c8-2.16,16.23,2.58,18.39,10.58l13.27,49.26c2.16,8-2.58,16.23-10.58,18.39C107.97,430.87,106.66,431.03,105.37,431.03z
				 M78.82,332.51c-6.62,0-12.67-4.41-14.47-11.1l-13.27-49.26c-2.16-8,2.58-16.23,10.58-18.39c8-2.15,16.23,2.58,18.39,10.58
				l13.27,49.26c2.16,8-2.58,16.23-10.58,18.39C81.43,332.34,80.11,332.51,78.82,332.51z M52.28,233.98
				c-6.62,0-12.67-4.41-14.47-11.1l-13.27-49.26c-2.16-8,2.58-16.23,10.58-18.39c8-2.16,16.23,2.58,18.39,10.58l13.27,49.26
				c2.16,8-2.58,16.23-10.58,18.39C54.88,233.81,53.57,233.98,52.28,233.98z"/>
		</g>
		<g>
			<path class="st0" d="M25.73,135.45c-6.62,0-12.67-4.41-14.47-11.1l-6.5-24.14c-2.16-8,2.58-16.23,10.58-18.39l24.14-6.5
				c8-2.15,16.23,2.58,18.39,10.58s-2.58,16.23-10.58,18.39l-9.66,2.6l2.6,9.66c2.16,8-2.58,16.23-10.58,18.39
				C28.34,135.29,27.02,135.45,25.73,135.45z"/>
		</g>
		<g>
			<path class="st0" d="M89.96,92.26c-6.62,0-12.67-4.41-14.47-11.1c-2.16-8,2.58-16.23,10.58-18.39l46.6-12.56
				c8-2.15,16.23,2.58,18.39,10.58s-2.58,16.23-10.58,18.39l-46.6,12.56C92.57,92.09,91.26,92.26,89.96,92.26z M183.16,67.15
				c-6.62,0-12.67-4.41-14.47-11.1c-2.16-8,2.58-16.23,10.58-18.39l46.6-12.56c8-2.15,16.23,2.58,18.39,10.58
				s-2.58,16.23-10.58,18.39l-46.6,12.56C185.77,66.98,184.45,67.15,183.16,67.15z"/>
		</g>
		<g>
			<path class="st0" d="M307,59.67c-6.62,0-12.67-4.41-14.47-11.1l-2.6-9.66l-9.66,2.6c-8,2.16-16.23-2.58-18.39-10.58
				c-2.16-8,2.58-16.23,10.58-18.39l24.14-6.5c3.84-1.04,7.93-0.5,11.38,1.48c3.45,1.98,5.97,5.26,7,9.1l6.5,24.14
				c2.16,8-2.58,16.23-10.58,18.39C309.6,59.5,308.29,59.67,307,59.67z"/>
		</g>
		<g>
			<path class="st0" d="M386.64,355.25c-6.62,0-12.67-4.41-14.47-11.1l-13.27-49.26c-2.16-8,2.58-16.23,10.58-18.39
				c8-2.16,16.23,2.58,18.39,10.58l13.27,49.26c2.16,8-2.58,16.23-10.58,18.39C389.24,355.08,387.93,355.25,386.64,355.25z
				 M360.09,256.73c-6.62,0-12.67-4.41-14.47-11.1l-13.27-49.26c-2.16-8,2.58-16.23,10.58-18.39c8-2.16,16.23,2.58,18.39,10.58
				l13.27,49.26c2.16,8-2.58,16.23-10.58,18.39C362.7,256.56,361.38,256.73,360.09,256.73z M333.55,158.2
				c-6.62,0-12.67-4.41-14.47-11.1L305.8,97.83c-2.16-8,2.58-16.23,10.58-18.39c8-2.16,16.23,2.58,18.39,10.58l13.27,49.26
				c2.16,8-2.58,16.23-10.58,18.39C336.15,158.03,334.84,158.2,333.55,158.2z"/>
		</g>
	</g>
	<g>
		<g>
			<path class="st0" d="M507.77,496.47c0,5.5-4.5,10-10,10h-272c-5.5,0-10-4.5-10-10v-386c0-5.5,4.5-10,10-10h272
				c5.5,0,10,4.5,10,10V496.47z"/>
		</g>
		<g>
			<path class="st1" d="M300.43,222.05h128.68c10.47,0,18.96-8.96,18.96-20c0-11.04-8.49-20-18.96-20H300.43
				c-10.47,0-18.96,8.96-18.96,20C281.47,213.09,289.96,222.05,300.43,222.05z"/>
		</g>
		<g>
			<path class="st1" d="M300.43,299.05h128.68c10.47,0,18.96-8.96,18.96-20c0-11.04-8.49-20-18.96-20H300.43
				c-10.47,0-18.96,8.96-18.96,20C281.47,290.09,289.96,299.05,300.43,299.05z"/>
		</g>
		<g>
			<path class="st1" d="M298.43,376.05h128.68c10.47,0,18.96-8.96,18.96-20c0-11.04-8.49-20-18.96-20H298.43
				c-10.47,0-18.96,8.96-18.96,20C279.47,367.09,287.96,376.05,298.43,376.05z"/>
		</g>
	</g>
</g>
<g>
</g>
<g>
</g>
<g>
</g>
<g>
</g>
<g>
</g>
</svg>
