<?xml version="1.0" encoding="utf-8"?>
<!-- Generator: Adobe Illustrator 25.0.1, SVG Export Plug-In . SVG Version: 6.00 Build 0)  -->
<svg version="1.1" id="Layer_1" xmlns="http://www.w3.org/2000/svg" xmlns:xlink="http://www.w3.org/1999/xlink" x="0px" y="0px"
	 viewBox="0 0 512 512" style="enable-background:new 0 0 512 512;" xml:space="preserve">
<style type="text/css">
	.st0{fill:#3892C9;}
	.st1{fill:#3A8FC6;}
	.st2{fill:#3193CB;}
	.st3{fill:#3F94CB;}
</style>
<g id="Words_Rotate">
	<g>
		<g id="Rounded_Rectangle_1_copy_2_">
			<g>
				<path class="st0" d="M258.5,493.8c-11.04,0-22.21-2.85-32.39-8.84L77.26,397.31c-30.43-17.92-40.61-57.25-22.69-87.68
					L204.21,55.5c8.68-14.74,22.58-25.22,39.14-29.5c16.56-4.29,33.8-1.87,48.54,6.81l148.85,87.65
					c14.74,8.68,25.22,22.58,29.5,39.14s1.87,33.8-6.82,48.54L313.79,462.27C301.86,482.52,280.45,493.8,258.5,493.8z M259.43,67.76
					c-1.7,0-3.41,0.22-5.1,0.65c-5.23,1.35-9.62,4.66-12.36,9.32L92.33,331.86c-5.66,9.61-2.44,22.03,7.17,27.69l148.85,87.65
					c9.61,5.66,22.03,2.44,27.69-7.17L425.67,185.9c2.74-4.66,3.51-10.1,2.15-15.33s-4.66-9.62-9.32-12.36L269.66,70.56
					C266.51,68.71,262.99,67.76,259.43,67.76z"/>
			</g>
		</g>
		<g>
			<g>
				<path class="st1" d="M364.38,183.69l-90.74-53.43c-11.58-6.82-26.49-2.96-33.31,8.62c-6.82,11.58-2.96,26.49,8.62,33.31
					l90.74,53.43c11.58,6.82,26.49,2.96,33.31-8.62C379.81,205.42,375.96,190.51,364.38,183.69z"/>
			</g>
			<g>
				<path class="st1" d="M326.06,248.76l-90.74-53.43c-11.58-6.82-26.49-2.96-33.31,8.62c-6.82,11.58-2.96,26.5,8.62,33.31
					l90.74,53.43c11.58,6.82,26.5,2.96,33.31-8.62C341.5,270.5,337.64,255.58,326.06,248.76z"/>
			</g>
		</g>
	</g>
	<g>
		<g>
			<path class="st2" d="M33.58,219.94c-9.21-9.26-16.55-19.54-21.82-30.56l22.68-10.84c4.05,8.46,9.75,16.43,16.96,23.67
				L33.58,219.94z M4.09,166.75c-2.62-12.53-2.78-25.36-0.45-38.12l24.73,4.5c-1.74,9.55-1.63,19.13,0.33,28.47L4.09,166.75z
				 M10.55,105.9c5.03-11.61,12.04-22.2,20.83-31.46l18.23,17.3c-6.75,7.12-12.14,15.24-15.99,24.14L10.55,105.9z M63.47,80.01
				L49.42,59.17c10.57-7.12,22.19-12.26,34.55-15.26l5.94,24.43C80.46,70.63,71.56,74.56,63.47,80.01z M107.95,65.99l-0.55-25.13
				c12.15-0.27,24.57,1.45,36.9,5.1l-7.13,24.1C127.32,67.14,117.5,65.78,107.95,65.99z"/>
		</g>
		<g>
			
				<rect x="135.14" y="19.08" transform="matrix(0.7981 -0.6025 0.6025 0.7981 2.0249 96.7715)" class="st3" width="20.52" height="52.58"/>
			
				<rect x="116.58" y="58.35" transform="matrix(0.7981 -0.6025 0.6025 0.7981 -12.4943 99.9387)" class="st3" width="52.58" height="20.52"/>
		</g>
	</g>
	<g>
		<g>
			<path class="st2" d="M469.33,280.24c10.23,8.11,18.73,17.46,25.26,27.78l-21.25,13.43c-5.01-7.93-11.62-15.17-19.63-21.52
				L469.33,280.24z M504.87,329.59c4.08,12.14,5.74,24.85,4.93,37.8l-25.09-1.56c0.6-9.69-0.63-19.19-3.67-28.23L504.87,329.59z
				 M505.61,390.78c-3.63,12.13-9.35,23.46-16.99,33.68l-20.14-15.04c5.87-7.86,10.26-16.56,13.05-25.86L505.61,390.78z
				 M456.09,422.7l16.4,19.05c-9.66,8.31-20.6,14.78-32.52,19.21l-8.77-23.56C440.33,434.02,448.7,429.07,456.09,422.7z
				 M413.57,441.86l3.5,24.89c-12.04,1.69-24.57,1.45-37.24-0.72l4.25-24.78C394.19,442.98,404.11,443.19,413.57,441.86z"/>
		</g>
		<g>
			
				<rect x="353.96" y="432.25" transform="matrix(0.7284 -0.6852 0.6852 0.7284 -199.9163 380.7529)" class="st3" width="52.58" height="20.52"/>
			
				<rect x="368.57" y="439.56" transform="matrix(0.7284 -0.6852 0.6852 0.7284 -216.2964 386.1203)" class="st3" width="20.52" height="52.58"/>
		</g>
	</g>
</g>
<g>
</g>
<g>
</g>
<g>
</g>
<g>
</g>
<g>
</g>
</svg>
