<?xml version="1.0" encoding="utf-8"?>
<!-- Generator: Adobe Illustrator 25.0.1, SVG Export Plug-In . SVG Version: 6.00 Build 0)  -->
<svg version="1.1" id="Aspose.Diagram" xmlns="http://www.w3.org/2000/svg" xmlns:xlink="http://www.w3.org/1999/xlink" x="0px"
	 y="0px" viewBox="0 0 512 512" style="enable-background:new 0 0 512 512;" xml:space="preserve">
<style type="text/css">
	.st0{fill:#3593CB;}
</style>
<g id="Mind_Map">
	<g>
		<circle class="st0" cx="255.1" cy="254.5" r="110"/>
	</g>
	<g>
		<g>
			<path class="st0" d="M77.9,135.5c-31.7,0-57.5-25.8-57.5-57.5s25.8-57.5,57.5-57.5s57.5,25.8,57.5,57.5S109.6,135.5,77.9,135.5z
				 M77.9,35.5c-23.4,0-42.5,19.1-42.5,42.5s19.1,42.5,42.5,42.5s42.5-19.1,42.5-42.5S101.4,35.5,77.9,35.5z"/>
		</g>
		<g>
			<circle class="st0" cx="77.9" cy="78" r="27.5"/>
		</g>
	</g>
	<g>
		<g>
			<path class="st0" d="M434.1,135.5c-31.7,0-57.5-25.8-57.5-57.5s25.8-57.5,57.5-57.5s57.5,25.8,57.5,57.5S465.8,135.5,434.1,135.5
				z M434.1,35.5c-23.4,0-42.5,19.1-42.5,42.5s19.1,42.5,42.5,42.5s42.5-19.1,42.5-42.5S457.5,35.5,434.1,35.5z"/>
		</g>
		<g>
			<circle class="st0" cx="434.1" cy="78" r="27.5"/>
		</g>
	</g>
	<g>
		<g>
			<path class="st0" d="M434.1,491.5c-31.7,0-57.5-25.8-57.5-57.5s25.8-57.5,57.5-57.5s57.5,25.8,57.5,57.5S465.8,491.5,434.1,491.5
				z M434.1,391.5c-23.4,0-42.5,19.1-42.5,42.5s19.1,42.5,42.5,42.5s42.5-19.1,42.5-42.5S457.5,391.5,434.1,391.5z"/>
		</g>
		<g>
			<circle class="st0" cx="434.1" cy="434" r="27.5"/>
		</g>
	</g>
	<g>
		<g>
			<path class="st0" d="M77.9,491.5c-31.7,0-57.5-25.8-57.5-57.5s25.8-57.5,57.5-57.5s57.5,25.8,57.5,57.5S109.6,491.5,77.9,491.5z
				 M77.9,391.5c-23.4,0-42.5,19.1-42.5,42.5s19.1,42.5,42.5,42.5s42.5-19.1,42.5-42.5S101.4,391.5,77.9,391.5z"/>
		</g>
		<g>
			<circle class="st0" cx="77.9" cy="434" r="27.5"/>
		</g>
	</g>
	<g>
		<g>
			<path class="st0" d="M355.7,353.6c-4.6,4.6-9.6,8.6-14.8,12.1l25.8,25.8l26.9-26.9l-25.8-25.8C364.4,344,360.3,349,355.7,353.6z"
				/>
		</g>
		<g>
			<path class="st0" d="M156.4,162.2c4.6-4.6,9.6-8.6,14.8-12.1l-25.8-25.8l-26.9,26.9l25.8,25.8
				C147.7,171.8,151.8,166.8,156.4,162.2z"/>
		</g>
		<g>
			<path class="st0" d="M156.4,353.6c-4.6-4.6-8.6-9.6-12.1-14.8l-25.8,25.8l26.9,26.9l25.8-25.8C165.9,362.2,161,358.2,156.4,353.6
				z"/>
		</g>
		<g>
			<path class="st0" d="M355.7,162.2c4.6,4.6,8.6,9.6,12.1,14.8l25.8-25.8l-26.9-26.9L341,150.1
				C346.2,153.6,351.1,157.6,355.7,162.2z"/>
		</g>
		<g>
			<path class="st0" d="M119.1,257.9c0-6.5,0.7-12.9,1.9-19H84.5v38H121C119.8,270.8,119.1,264.4,119.1,257.9z"/>
		</g>
		<g>
			<path class="st0" d="M256,385.9c-6.5,0-12.9-0.7-19-1.9v36.5l38,0l0-36.5C268.9,385.2,262.5,385.9,256,385.9z"/>
		</g>
		<g>
			<path class="st0" d="M390.2,257.5c0,6.5-0.7,12.9-1.9,19h36.5v-38l-36.5,0C389.5,244.6,390.2,251,390.2,257.5z"/>
		</g>
		<g>
			<path class="st0" d="M256,121.9c-6.5,0-12.9,0.7-19,1.9V87.3l38,0l0,36.5C268.9,122.6,262.5,121.9,256,121.9z"/>
		</g>
	</g>
</g>
</svg>
