<?xml version="1.0" encoding="utf-8"?>
<!-- Generator: Adobe Illustrator 25.0.1, SVG Export Plug-In . SVG Version: 6.00 Build 0)  -->
<svg version="1.1" id="Layer_1" xmlns="http://www.w3.org/2000/svg" xmlns:xlink="http://www.w3.org/1999/xlink" x="0px" y="0px"
	 viewBox="0 0 512 512" style="enable-background:new 0 0 512 512;" xml:space="preserve">
<style type="text/css">
	.st0{fill:#3A8FC7;}
</style>
<g id="Mail_Merge">
	<g>
		<path class="st0" d="M65.8,451.63h-6.04c-31.83,0-57.73-25.9-57.73-57.73V59.94c0-31.83,25.9-57.73,57.73-57.73H267.8
			c31.83,0,57.73,25.9,57.73,57.73v157.23h-42V59.94c0-8.67-7.06-15.73-15.73-15.73H59.75c-8.67,0-15.73,7.06-15.73,15.73v333.96
			c0,8.67,7.06,15.73,15.73,15.73h6.04V451.63z"/>
	</g>
	<g>
		<g>
			<path class="st0" d="M225.9,119.82H101.65c-11.05,0-20-8.95-20-20v0c0-11.05,8.95-20,20-20H225.9c11.05,0,20,8.95,20,20v0
				C245.9,110.86,236.94,119.82,225.9,119.82z"/>
		</g>
		<g>
			<path class="st0" d="M225.9,188.64H101.65c-11.05,0-20-8.95-20-20v0c0-11.05,8.95-20,20-20H225.9c11.05,0,20,8.95,20,20v0
				C245.9,179.68,236.94,188.64,225.9,188.64z"/>
		</g>
	</g>
	<g>
		<g>
			<g>
				<path class="st0" d="M463.21,288.02c2.64,0,4.77,2.14,4.77,4.77v170.23c0,2.64-2.14,4.77-4.77,4.77H141.85
					c-2.64,0-4.77-2.14-4.77-4.77V292.79c0-2.64,2.14-4.77,4.77-4.77H463.21 M463.21,246.02H141.85
					c-25.79,0-46.77,20.98-46.77,46.77v170.23c0,25.79,20.98,46.77,46.77,46.77h321.36c25.79,0,46.77-20.98,46.77-46.77V292.79
					C509.98,267,489,246.02,463.21,246.02L463.21,246.02z"/>
			</g>
		</g>
		<g>
			<g>
				<path class="st0" d="M174.57,352.46l116.92,67.5c9.14,5.28,20.83,2.15,26.11-7l0,0c5.28-9.14,2.15-20.83-7-26.11l-116.92-67.5
					c-9.14-5.28-20.83-2.15-26.11,7l0,0C162.29,335.5,165.43,347.19,174.57,352.46z"/>
			</g>
			<g>
				<path class="st0" d="M430.49,352.46l-116.92,67.5c-9.14,5.28-20.83,2.15-26.11-7v0c-5.28-9.14-2.15-20.83,7-26.11l116.92-67.5
					c9.14-5.28,20.83-2.15,26.11,7l0,0C442.76,335.5,439.63,347.19,430.49,352.46z"/>
			</g>
		</g>
	</g>
</g>
<g>
</g>
<g>
</g>
<g>
</g>
<g>
</g>
<g>
</g>
</svg>
