<?xml version="1.0" encoding="utf-8"?>
<!-- Generator: Adobe Illustrator 25.0.1, SVG Export Plug-In . SVG Version: 6.00 Build 0)  -->
<svg version="1.1" id="Layer_1" xmlns="http://www.w3.org/2000/svg" xmlns:xlink="http://www.w3.org/1999/xlink" x="0px" y="0px"
	 viewBox="0 0 512 512" style="enable-background:new 0 0 512 512;" xml:space="preserve">
<style type="text/css">
	.st0{fill:#3791C9;}
	.st1{fill:#3891C9;}
	.st2{fill:#3691C9;}
</style>
<g id="Object_Detection">
	<g>
		<path class="st0" d="M223.35,93c-8.12,0-16.24,0-24.94,0c0-9.41,0-18.46,0-27.89c-9.49,0-18.41,0-28.06,0c0-8.62,0-16.87,0-25.11
			c17.67,0,35.33,0,53,0C223.35,57.67,223.35,75.33,223.35,93z"/>
		<path class="st0" d="M95.35,40c0,8.12,0,16.24,0,24.94c-9.08,0-17.79,0-26.89,0c0,9.49,0,18.41,0,28.06c-8.62,0-16.87,0-25.11,0
			c0-17.58,0-35.17,0-53C60.69,40,78.02,40,95.35,40z"/>
		<path class="st0" d="M170.35,220c0-8.12,0-16.24,0-24.94c9.41,0,18.46,0,27.89,0c0-8.82,0-17.08,0-26.06c8.63,0,16.87,0,25.11,0
			c0,17,0,34,0,51C205.69,220,188.02,220,170.35,220z"/>
		<path class="st0" d="M43.35,169c8.12,0,16.24,0,24.94,0c0,8.74,0,17.13,0,25.89c9.16,0,17.74,0,27.06,0c0,8.62,0,16.87,0,25.11
			c-17.33,0-34.67,0-52,0C43.35,203,43.35,186,43.35,169z"/>
	</g>
	<g>
		<path class="st1" d="M316.89,153.1c0.91,1.59,1.75,2.94,2.83,4.8c48.04,79.82,95.89,160.15,144,239.93
			c14.75,24.45,29.41,48.74,44.29,73.11c0.01,0.02,0.67,0.95,0.64,0.95c-1.75,0-3.34,0.04-4.79,0.04
			c-126.5,0.07-253,0.06-379.5,0.06c47.6-78.61,95.22-157.2,142.77-235.84C283.82,208.54,300.3,180.79,316.89,153.1z"/>
	</g>
	<g>
		<path class="st1" d="M203.35,472c-66.67,0-133.33,0-200,0c32.89-44.87,65.77-89.75,98.7-134.59c0.79-1.08,1.3-1.65,1.93-2.55
			c7.45,9.55,14.75,19.16,22.18,29.27C151.88,400.09,177.62,436.04,203.35,472z"/>
	</g>
	<g id="Ellipse_4">
		<ellipse class="st2" cx="132.02" cy="128.66" rx="37.85" ry="37.16"/>
	</g>
</g>
<g>
</g>
<g>
</g>
<g>
</g>
<g>
</g>
<g>
</g>
</svg>
