<?xml version="1.0" encoding="utf-8"?>
<!-- Generator: Adobe Illustrator 25.0.1, SVG Export Plug-In . SVG Version: 6.00 Build 0)  -->
<svg version="1.1" id="Aspose.Video" xmlns="http://www.w3.org/2000/svg" xmlns:xlink="http://www.w3.org/1999/xlink" x="0px"
	 y="0px" viewBox="0 0 512 512" style="enable-background:new 0 0 512 512;" xml:space="preserve">
<style type="text/css">
	.st0{fill:#3593CB;}
	.st1{fill:#3093CD;}
	.st2{fill:#FFFFFF;}
</style>
<g id="Video_Reverse">
	<g id="Base_8_">
		<g>
			<g>
				<path class="st0" d="M459.3,465.9H52.7c-26.8,0-48.6-21.8-48.6-48.6V94.4c0-26.6,21.7-48.3,48.3-48.3h407.2
					c26.6,0,48.3,21.7,48.3,48.3v322.9C507.9,444.1,486.1,465.9,459.3,465.9z M52.4,88.1c-3.5,0-6.3,2.8-6.3,6.3v322.9
					c0,3.6,3,6.6,6.6,6.6h406.6c3.6,0,6.6-3,6.6-6.6V94.4c0-3.5-2.8-6.3-6.3-6.3H52.4z"/>
			</g>
		</g>
		<g>
			<g>
				<g>
					<g>
						<rect x="37.5" y="77" class="st1" width="434.8" height="70.9"/>
					</g>
				</g>
			</g>
			<g>
				<g>
					<g>
						<g>
							<path class="st2" d="M411.2,122c-1.6,0-3-1.3-3-3V72.7c0-1.6,1.3-3,3-3h46.4c1.6,0,3,1.3,3,3V119c0,1.6-1.3,3-3,3H411.2z"/>
						</g>
					</g>
				</g>
				<g>
					<g>
						<g>
							<path class="st2" d="M291.1,122c-1.6,0-3-1.3-3-3V72.7c0-1.6,1.3-3,3-3h46.4c1.6,0,3,1.3,3,3V119c0,1.6-1.3,3-3,3H291.1z"/>
						</g>
					</g>
				</g>
				<g>
					<g>
						<g>
							<path class="st2" d="M54.5,122c-1.6,0-3-1.3-3-3V72.7c0-1.6,1.3-3,3-3h46.4c1.6,0,3,1.3,3,3V119c0,1.6-1.3,3-3,3H54.5z"/>
						</g>
					</g>
				</g>
				<g>
					<g>
						<g>
							<path class="st2" d="M171.1,122c-1.6,0-3-1.3-3-3V72.7c0-1.6,1.3-3,3-3h46.4c1.6,0,3,1.3,3,3V119c0,1.6-1.3,3-3,3H171.1z"/>
						</g>
					</g>
				</g>
			</g>
		</g>
		<g>
			<g>
				<g>
					<g>
						<rect x="37.5" y="363.9" class="st1" width="434.8" height="70.9"/>
					</g>
				</g>
			</g>
			<g>
				<g>
					<g>
						<g>
							<path class="st2" d="M411.2,389.8c-1.6,0-3,1.3-3,3v46.4c0,1.6,1.3,3,3,3h46.4c1.6,0,3-1.3,3-3v-46.4c0-1.6-1.3-3-3-3H411.2z
								"/>
						</g>
					</g>
				</g>
				<g>
					<g>
						<g>
							<path class="st2" d="M291.1,389.8c-1.6,0-3,1.3-3,3v46.4c0,1.6,1.3,3,3,3h46.4c1.6,0,3-1.3,3-3v-46.4c0-1.6-1.3-3-3-3H291.1z
								"/>
						</g>
					</g>
				</g>
				<g>
					<g>
						<g>
							<path class="st2" d="M54.5,389.8c-1.6,0-3,1.3-3,3v46.4c0,1.6,1.3,3,3,3h46.4c1.6,0,3-1.3,3-3v-46.4c0-1.6-1.3-3-3-3H54.5z"
								/>
						</g>
					</g>
				</g>
				<g>
					<g>
						<g>
							<path class="st2" d="M171.1,389.8c-1.6,0-3,1.3-3,3v46.4c0,1.6,1.3,3,3,3h46.4c1.6,0,3-1.3,3-3v-46.4c0-1.6-1.3-3-3-3H171.1z
								"/>
						</g>
					</g>
				</g>
			</g>
		</g>
	</g>
	<g>
		<g>
			<path class="st0" d="M256,347.5c-50.2,0-91-40.8-91-91c0-50.2,40.8-91,91-91c50.2,0,91,40.8,91,91
				C347.1,306.7,306.2,347.5,256,347.5z M256,180.5c-41.9,0-76,34.1-76,76s34.1,76,76,76s76-34.1,76-76S298,180.5,256,180.5z"/>
		</g>
		<g>
			<path class="st0" d="M201.4,253.4l43.3-39.2c2.7-2.5,7-0.5,7,3.1v78.5c0,3.7-4.3,5.6-7,3.1l-43.3-39.2
				C199.6,257.9,199.6,255,201.4,253.4z"/>
			<path class="st0" d="M244.6,253.4l43.3-39.2c2.7-2.5,7-0.5,7,3.1v78.5c0,3.7-4.3,5.6-7,3.1l-43.3-39.2
				C242.8,257.9,242.8,255,244.6,253.4z"/>
		</g>
	</g>
</g>
</svg>
