<?xml version="1.0" encoding="utf-8"?>
<!-- Generator: Adobe Illustrator 25.0.1, SVG Export Plug-In . SVG Version: 6.00 Build 0)  -->
<svg version="1.1" id="Layer_1" xmlns="http://www.w3.org/2000/svg" xmlns:xlink="http://www.w3.org/1999/xlink" x="0px" y="0px"
	 viewBox="0 0 512 512" style="enable-background:new 0 0 512 512;" xml:space="preserve">
<style type="text/css">
	.st0{fill:#3A8FC6;}
</style>
<g id="Photo_OCR">
	<g>
		<polygon class="st0" points="1.65,480.21 1.65,443.92 1.65,394.21 37.94,394.21 37.94,443.92 87.65,443.92 87.65,480.21 
			37.94,480.21 		"/>
		<polygon class="st0" points="474.15,480.21 424.44,480.21 424.44,443.92 474.15,443.92 474.15,394.21 510.44,394.21 
			510.44,443.92 510.44,480.21 		"/>
		<polygon class="st0" points="1.56,31.79 1.56,68.08 1.56,117.79 37.85,117.79 37.85,68.08 87.56,68.08 87.56,31.79 37.85,31.79 		
			"/>
		<polygon class="st0" points="474.06,31.79 424.35,31.79 424.35,68.08 474.06,68.08 474.06,117.79 510.35,117.79 510.35,68.08 
			510.35,31.79 		"/>
	</g>
	<g>
		<polygon class="st0" points="237.91,311.64 185.32,251.11 97.55,362.48 414.45,362.48 306.77,201.47 		"/>
		<circle class="st0" cx="226.84" cy="215.28" r="23.09"/>
		<path class="st0" d="M402.38,149.52c1.41,0,2.55,1.14,2.55,2.55v201.26c0,1.41-1.14,2.55-2.55,2.55H109.62
			c-1.41,0-2.55-1.14-2.55-2.55V152.07c0-1.41,1.14-2.55,2.55-2.55H402.38 M402.38,124.52H109.62c-15.19,0-27.55,12.36-27.55,27.55
			v201.26c0,15.19,12.36,27.55,27.55,27.55h292.75c15.19,0,27.55-12.36,27.55-27.55V152.07
			C429.93,136.88,417.57,124.52,402.38,124.52L402.38,124.52z"/>
	</g>
</g>
<g>
</g>
<g>
</g>
<g>
</g>
<g>
</g>
<g>
</g>
</svg>
