<?xml version="1.0" encoding="utf-8"?>
<!-- Generator: Adobe Illustrator 25.2.0, SVG Export Plug-In . SVG Version: 6.00 Build 0)  -->
<svg version="1.1" id="OCR" xmlns="http://www.w3.org/2000/svg" xmlns:xlink="http://www.w3.org/1999/xlink" x="0px" y="0px"
	 viewBox="0 0 512 512" style="enable-background:new 0 0 512 512;" xml:space="preserve">
<style type="text/css">
	.st0{fill:#3892C9;}
</style>
<g>
	<path class="st0" d="M374.7,22.9H139.4c-38.5,0-70,31.5-70,70v393h34.5v-22H91.4v-371c0-12.7,5-24.8,14.1-33.9s21.1-14.1,33.9-14.1
		h235.3c12.7,0,24.8,5,33.9,14.1s14.1,21.1,14.1,33.9v371h-16.6v22h38.6v-393C444.7,54.4,413.2,22.9,374.7,22.9z"/>
	<polygon class="st0" points="191.7,487.9 158.4,467.8 129,485.9 70.4,485.9 70.4,463.9 122.7,463.9 158.3,442 191.2,461.9 
		221.6,442 255.8,462 287.3,442 321.1,462 352.6,441.8 386,463.9 442.7,463.9 442.7,485.9 379.4,485.9 352.4,468 321.5,487.8 
		287.7,467.8 256.2,487.8 222.3,467.9 	"/>
	<path class="st0" d="M297.1,229.8H163.8c-5.5,0-10-4.5-10-10s4.5-10,10-10h133.4c5.5,0,10,4.5,10,10S302.7,229.8,297.1,229.8z"/>
	<path class="st0" d="M267.1,269.8H163.8c-5.5,0-10-4.5-10-10c0-5.5,4.5-10,10-10h103.4c5.5,0,10,4.5,10,10
		C277.1,265.3,272.7,269.8,267.1,269.8z"/>
	<path class="st0" d="M267.1,308.8H163.8c-5.5,0-10-4.5-10-10s4.5-10,10-10h103.4c5.5,0,10,4.5,10,10S272.7,308.8,267.1,308.8z"/>
	<path class="st0" d="M348.1,269.8h-18.4c-5.5,0-10-4.5-10-10c0-5.5,4.5-10,10-10h18.4c5.5,0,10,4.5,10,10
		C358.1,265.3,353.7,269.8,348.1,269.8z"/>
	<path class="st0" d="M348.1,229.8h-18.4c-5.5,0-10-4.5-10-10s4.5-10,10-10h18.4c5.5,0,10,4.5,10,10S353.7,229.8,348.1,229.8z"/>
	<path class="st0" d="M348.1,309.8h-18.4c-5.5,0-10-4.5-10-10s4.5-10,10-10h18.4c5.5,0,10,4.5,10,10S353.7,309.8,348.1,309.8z"/>
	<g>
		<path class="st0" d="M378.3,185.9c-5.5,0-10-4.5-10-10v-22H347c-5.5,0-10-4.5-10-10s4.5-10,10-10h31.3c5.5,0,10,4.5,10,10v32
			C388.3,181.4,383.8,185.9,378.3,185.9z"/>
		<path class="st0" d="M378.6,378.9h-32c-5.5,0-10-4.5-10-10s4.5-10,10-10h22v-21.3c0-5.5,4.5-10,10-10s10,4.5,10,10v31.3
			C388.6,374.4,384.1,378.9,378.6,378.9z"/>
	</g>
	<g>
		<path class="st0" d="M136,185.9c-5.5,0-10-4.5-10-10v-32c0-5.5,4.5-10,10-10h31.3c5.5,0,10,4.5,10,10s-4.5,10-10,10H146v22
			C146,181.4,141.5,185.9,136,185.9z"/>
		<path class="st0" d="M167.6,378.9h-32c-5.5,0-10-4.5-10-10v-31.3c0-5.5,4.5-10,10-10s10,4.5,10,10v21.3h22c5.5,0,10,4.5,10,10
			S173.1,378.9,167.6,378.9z"/>
	</g>
</g>
<g>
</g>
<g>
</g>
<g>
</g>
<g>
</g>
<g>
</g>
<g>
</g>
</svg>
