<?xml version="1.0" encoding="utf-8"?>
<!-- Generator: Adobe Illustrator 25.0.1, SVG Export Plug-In . SVG Version: 6.00 Build 0)  -->
<svg version="1.1" id="Layer_1" xmlns="http://www.w3.org/2000/svg" xmlns:xlink="http://www.w3.org/1999/xlink" x="0px" y="0px"
	 viewBox="0 0 512 512" style="enable-background:new 0 0 512 512;" xml:space="preserve">
<style type="text/css">
	.st0{fill:none;stroke:#3892C9;stroke-width:13;stroke-miterlimit:10;}
	.st1{fill:#3292CB;}
	.st2{fill:none;stroke:#3292CB;stroke-width:7;stroke-miterlimit:10;}
	.st3{fill:#3892C9;}
</style>
<g id="Animated_ImageMaker">
	<g>
		<g>
			<g>
				<path class="st0" d="M223.08,26.98c0,0-22.03,7.51-36.1,15.84c-26.96,15.95-47,38.07-54.86,48.71
					c-13.61,18.42-53.32,100.1-53.91,99.91c-1.79-0.58,59.55,36.86,59.55,36.86c-0.2,0.92,57.44-74.56,63.85-84.91
					c6.34-10.25,16.66-33.01,22.91-65.41c3.65-18.91-0.22-50.25-0.22-50.25C224.33,27.09,223.64,26.67,223.08,26.98z"/>
				<path class="st1" d="M227.06,78.44c0,0-19.82-9.31-26.69-13.73c-6.68-4.3-23.76-18.7-23.76-18.7l48.16-20.83L227.06,78.44z"/>
				<circle class="st2" cx="173.77" cy="106.18" r="19.82"/>
			</g>
			<g>
				<polygon class="st1" points="79.87,133.28 114.14,127.38 85.34,173.9 51.07,179.81 				"/>
				<polygon class="st1" points="190.37,202.03 179.94,168.45 151.14,214.98 161.57,248.56 				"/>
				<polygon class="st1" points="121.07,238.78 78.59,212.48 94.22,203.82 121.86,220.93 				"/>
			</g>
		</g>
		<g>
			<g>
				<path class="st1" d="M82.38,265.59c5.3-3.73,10.5-5.83,15.5-9.96c5.15-4.25,8.58-12.35,7.17-18.87
					c-1.41-6.53-9.73-11.17-16.33-10.15c-1.95,0.3-3.27,1.18-5.03,2.09c-4.08,2.12-7.21,6.31-8.79,16.4
					c-1.19,7.6-3.15,17.61-1.96,25.21C76.31,269.09,79.02,267.41,82.38,265.59"/>
			</g>
			<path class="st1" d="M126.34,282.93L126.34,282.93c0.95,0.59,2.19,0.29,2.78-0.65l19.37-31.29c0.59-0.95,0.29-2.19-0.65-2.78l0,0
				c-0.95-0.59-2.19-0.29-2.78,0.65l-19.37,31.29C125.1,281.1,125.4,282.34,126.34,282.93z"/>
			<path class="st1" d="M107.37,285.21L107.37,285.21c0.93,0.61,2.18,0.36,2.79-0.57l13.33-20.2c0.61-0.93,0.36-2.18-0.57-2.79l0,0
				c-0.93-0.61-2.18-0.36-2.79,0.57l-13.33,20.2C106.18,283.34,106.44,284.6,107.37,285.21z"/>
			<path class="st1" d="M59.65,190.24L59.65,190.24c-0.95-0.59-2.19-0.29-2.78,0.65L37.5,222.19c-0.59,0.95-0.29,2.19,0.65,2.78h0
				c0.95,0.59,2.19,0.29,2.78-0.65l19.37-31.29C60.89,192.07,60.59,190.83,59.65,190.24z"/>
			<path class="st1" d="M58.67,219.52L58.67,219.52c-0.93-0.61-2.18-0.36-2.79,0.57l-13.33,20.2c-0.61,0.93-0.36,2.18,0.57,2.79l0,0
				c0.93,0.61,2.18,0.36,2.79-0.57l13.33-20.2C59.86,221.38,59.6,220.13,58.67,219.52z"/>
		</g>
	</g>
	<g>
		<polygon class="st3" points="317.92,169.51 127.25,486.82 508.58,486.82 		"/>
		<polygon class="st3" points="104.08,344.26 3.42,486.82 201.75,486.82 		"/>
	</g>
</g>
<g>
</g>
<g>
</g>
<g>
</g>
<g>
</g>
<g>
</g>
</svg>
