<?xml version="1.0" encoding="utf-8"?>
<!-- Generator: Adobe Illustrator 25.2.0, SVG Export Plug-In . SVG Version: 6.00 Build 0)  -->
<svg version="1.1" id="Group_2_1_" xmlns="http://www.w3.org/2000/svg" xmlns:xlink="http://www.w3.org/1999/xlink" x="0px" y="0px"
	 viewBox="0 0 512 512" style="enable-background:new 0 0 512 512;" xml:space="preserve">
<style type="text/css">
	.st0{fill:#3691C9;}
</style>
<g id="Ellipse_1">
	<g>
		<circle class="st0" cx="257" cy="168" r="109"/>
	</g>
</g>
<g id="Ellipse_1_copy">
	<g>
		<path class="st0" d="M69.6,458c7.7-96.5,88.6-172.7,186.9-172.7c19.6,0,38.6,2.9,56.9,8.8c-26.3,25.6-41.4,60.1-41.4,96.4
			c0,23.9,6.5,47,18.6,67.5H69.6z"/>
	</g>
	<g>
		<path class="st0" d="M256.5,300.3c10,0,19.8,0.8,29.5,2.5c-3.6,4.9-6.9,10-9.9,15.2c-12.5,22.1-19.1,47.2-19.1,72.4
			c0,18.1,3.3,35.8,9.7,52.5H86.6c6-34.7,22.5-66.7,48-92.1C167.1,318.3,210.4,300.3,256.5,300.3 M256.5,270.3
			C144.7,270.3,54,361.1,54,473h266.8c-21-21.9-33.8-50.8-33.8-82.5c0-41.7,22-78.5,55.8-100.9C316.6,277.3,287.4,270.3,256.5,270.3
			L256.5,270.3z"/>
	</g>
</g>
<g id="_xF021_">
	<g>
		<path class="st0" d="M416.2,324.5L394,358.9c-1.8,2.7-4.3,3.8-7.5,3.2c-3.2-0.6-5.2-2.5-5.8-5.6l-3.8-17.7
			c-13.1,3.4-23.3,10.8-30.6,22.1c-6.4,9.9-9.1,20.8-8,32.5c1.1,11.7,5.6,21.9,13.6,30.4c1.3,1.3,1.4,2.9,0.3,4.6l-9.4,14.6
			c-0.7,1-1.6,1.6-2.7,1.7c-1.2,0.1-2.1-0.2-2.9-0.9c-13-12.5-20.7-27.8-22.9-45.9c-2.3-18.1,1.6-34.8,11.5-50.3
			c10.9-17,26.3-27.8,46.1-32.5l-3.3-15.2c-0.7-3.1,0.3-5.6,3-7.5c2.7-1.9,5.4-2,8.1-0.2l34.4,22.2c1.7,1.1,2.8,2.6,3.2,4.6
			C417.7,321,417.3,322.8,416.2,324.5z M401.9,438.6c13.1-3.4,23.3-10.8,30.6-22.1c6.4-9.9,9.1-20.8,8-32.5
			c-1.1-11.7-5.6-21.9-13.6-30.4c-1.3-1.3-1.4-2.9-0.3-4.6l9.4-14.6c0.7-1,1.6-1.6,2.7-1.7c1.2-0.1,2.1,0.2,2.9,0.9
			c13,12.5,20.7,27.8,22.9,45.9c2.3,18.1-1.6,34.8-11.5,50.3c-10.9,17-26.3,27.8-46.1,32.5l3.3,15.2c0.7,3.1-0.3,5.6-3,7.5
			c-2.7,1.9-5.4,2-8.1,0.2L364.7,463c-1.7-1.1-2.8-2.6-3.2-4.6c-0.4-2-0.1-3.8,1-5.5l22.2-34.4c1.8-2.7,4.3-3.8,7.5-3.2
			c3.2,0.6,5.2,2.5,5.8,5.6L401.9,438.6z"/>
	</g>
</g>
</svg>
