<?xml version="1.0" encoding="utf-8"?>
<!-- Generator: Adobe Illustrator 25.0.1, SVG Export Plug-In . SVG Version: 6.00 Build 0)  -->
<svg version="1.1" id="Layer_1" xmlns="http://www.w3.org/2000/svg" xmlns:xlink="http://www.w3.org/1999/xlink" x="0px" y="0px"
	 viewBox="0 0 512 512" style="enable-background:new 0 0 512 512;" xml:space="preserve">
<style type="text/css">
	.st0{fill:#3892C9;}
	.st1{fill:#3992C9;}
</style>
<g>
	<g id="Rectangle_5_copy_4">
		<rect x="3.58" y="3.5" class="st0" width="42" height="320"/>
	</g>
	<g id="Rectangle_5_copy_4_1_">
		<rect x="3.58" y="3.5" class="st0" width="320" height="42"/>
	</g>
	<g id="Rectangle_5_copy_2">
		<rect x="95.58" y="95.5" class="st0" width="42" height="320"/>
	</g>
	<g id="Rectangle_5_copy_3">
		<rect x="95.58" y="95.5" class="st0" width="320" height="42"/>
	</g>
	<g id="Rectangle_4">
		<rect x="108.58" y="373.5" class="st0" width="89.06" height="42"/>
	</g>
	<g id="Rectangle_4_copy">
		<rect x="26.58" y="281.5" class="st0" width="89.06" height="42"/>
	</g>
	<g id="Rectangle_4_copy_2">
		<rect x="281.58" y="9.5" class="st0" width="42" height="89"/>
	</g>
	<g id="Rectangle_4_copy_3">
		<rect x="373.58" y="98.71" class="st0" width="42" height="108.78"/>
	</g>
	<g>
		<path class="st1" d="M188.61,188.5c106.73,0,213.19,0,319.81,0c0,106.67,0,213.33,0,320c-106.52,0-213.15,0-319.81,0
			C188.61,401.9,188.61,295.3,188.61,188.5z M357.1,325.65c-2.45,0-4.27,0-6.09,0c-14.66,0-29.32,0-43.99,0
			c-1.17,0-2.34-0.05-3.5,0.01c-6.77,0.34-9.93,3.65-9.93,10.39c-0.01,9-0.04,17.99,0.01,26.99c0.02,4.8,1.97,7.47,6.56,8.73
			c1.89,0.52,3.94,0.63,5.92,0.64c15.16,0.05,30.32,0.03,45.49,0.03c1.77,0,3.53,0,5.77,0c0,2.32,0,3.95,0,5.58
			c0,7.66-0.05,15.33,0.01,22.99c0.04,5.04,2.14,7.58,7.01,8.9c4.23,1.15,7.85-0.06,11.17-2.71c21.65-17.21,43.34-34.36,64.95-51.61
			c5.39-4.3,5.35-8.89-0.07-13.21c-21.62-17.24-43.29-34.42-65-51.55c-1.65-1.3-3.7-2.38-5.73-2.87
			c-6.89-1.66-12.29,2.65-12.33,9.64c-0.04,7.5,0,15-0.02,22.49C357.33,321.73,357.2,323.36,357.1,325.65z M270.71,348.43
			c0-4.49,0.1-8.98-0.03-13.46c-0.15-5.2-3.81-9-8.6-9.21c-4.94-0.22-9.32,3.68-9.43,8.95c-0.19,9.14-0.18,18.29-0.01,27.43
			c0.1,5.37,4.26,9.31,9.17,9.22c4.99-0.09,8.73-3.98,8.88-9.46C270.81,357.41,270.71,352.91,270.71,348.43z"/>
	</g>
</g>
<g>
</g>
<g>
</g>
<g>
</g>
<g>
</g>
<g>
</g>
</svg>
