<?xml version="1.0" encoding="utf-8"?>
<!-- Generator: Adobe Illustrator 25.0.1, SVG Export Plug-In . SVG Version: 6.00 Build 0)  -->
<svg version="1.1" id="Layer_1" xmlns="http://www.w3.org/2000/svg" xmlns:xlink="http://www.w3.org/1999/xlink" x="0px" y="0px"
	 viewBox="0 0 512 512" style="enable-background:new 0 0 512 512;" xml:space="preserve">
<style type="text/css">
	.st0{fill:#3892C9;}
	.st1{fill:#3492CB;}
	.st2{fill:#FFFFFF;}
</style>
<g id="Remove_Pages">
	<g id="Rounded_Rectangle_1_copy_14_">
		<g>
			<path class="st0" d="M366.09,428.02H147.64c-18.32,0-35.71-5.87-48.96-16.54c-14.18-11.42-22.32-27.58-22.32-44.35V66.91
				c0-16.77,8.13-32.93,22.32-44.35c13.25-10.67,30.64-16.54,48.96-16.54h218.44c18.32,0,35.71,5.87,48.96,16.54
				c14.18,11.42,22.32,27.58,22.32,44.35v300.22c0,27.33-20.55,50.82-51.15,58.44C379.7,427.2,372.93,428.02,366.09,428.02z
				 M147.64,42.02c-19.12,0-35.28,11.4-35.28,24.89v300.22c0,13.49,16.16,24.89,35.28,24.89h218.44c3.91,0,7.75-0.46,11.43-1.38
				c14.04-3.5,23.85-13.17,23.85-23.51V66.91c0-13.49-16.16-24.89-35.28-24.89H147.64z"/>
		</g>
	</g>
	<g>
		<g>
			<g>
				<path class="st1" d="M348.37,106.02c0,9.9-9,18-20,18h-144c-11,0-20-8.1-20-18s9-18,20-18h144
					C339.37,88.02,348.37,96.12,348.37,106.02z"/>
			</g>
			<g>
				<path class="st1" d="M349.37,184.02c0,9.9-9,18-20,18h-144c-11,0-20-8.1-20-18c0-9.9,9-18,20-18h144
					C340.37,166.02,349.37,174.12,349.37,184.02z"/>
			</g>
			<g>
				<path class="st1" d="M348.37,262.02c0,9.9-9,18-20,18h-144c-11,0-20-8.1-20-18s9-18,20-18h144
					C339.37,244.02,348.37,252.12,348.37,262.02z"/>
			</g>
		</g>
		<g>
			<g>
				<circle class="st2" cx="257.87" cy="408.99" r="83"/>
				<g>
					<path class="st0" d="M258.87,506.99c-54.04,0-98-43.96-98-98s43.96-98,98-98c54.04,0,98,43.96,98,98
						S312.9,506.99,258.87,506.99z M258.87,340.99c-37.5,0-68,30.5-68,68s30.5,68,68,68s68-30.5,68-68S296.36,340.99,258.87,340.99z
						"/>
				</g>
			</g>
			<g id="Remove_Sign_4_">
				<g>
					<g>
						<g>
							<path class="st0" d="M297.64,376.63l-5.38-5.38c-2.97-2.97-7.79-2.97-10.76,0l-61.41,61.41c-2.97,2.97-2.97,7.79,0,10.76
								l5.38,5.38c2.97,2.97,7.79,2.97,10.76,0l61.41-61.41C300.61,384.42,300.61,379.6,297.64,376.63z"/>
						</g>
					</g>
				</g>
				<g>
					<g>
						<g>
							<path class="st0" d="M236.23,371.25c-2.97-2.97-7.79-2.97-10.76,0l-5.38,5.38c-2.97,2.97-2.97,7.79,0,10.76l61.41,61.41
								c1.02,1.02,2.27,1.68,3.57,2c2.84-6.98,6.89-13.34,11.88-18.82L236.23,371.25z"/>
						</g>
					</g>
				</g>
				<g>
					<g>
						<g>
							<path class="st0" d="M292.26,448.8l5.38-5.38c2.97-2.97,2.97-7.79,0-10.76l-0.68-0.68c-5,5.48-9.04,11.84-11.88,18.82
								C287.57,451.41,290.31,450.74,292.26,448.8z"/>
						</g>
					</g>
				</g>
			</g>
		</g>
	</g>
</g>
<g>
</g>
<g>
</g>
<g>
</g>
<g>
</g>
<g>
</g>
</svg>
