<?xml version="1.0" encoding="utf-8"?>
<!-- Generator: Adobe Illustrator 25.0.1, SVG Export Plug-In . SVG Version: 6.00 Build 0)  -->
<svg version="1.1" id="Aspose.Video" xmlns="http://www.w3.org/2000/svg" xmlns:xlink="http://www.w3.org/1999/xlink" x="0px"
	 y="0px" viewBox="0 0 512 512" style="enable-background:new 0 0 512 512;" xml:space="preserve">
<style type="text/css">
	.st0{fill:#3593CB;}
	.st1{fill:#3093CD;}
	.st2{fill:#FFFFFF;}
</style>
<g id="Loop_App">
	<g id="Base">
		<g>
			<path class="st0" d="M459.3,465.9H52.7c-26.8,0-48.6-21.8-48.6-48.6V94.4c0-26.6,21.7-48.3,48.3-48.3h407.2
				c26.6,0,48.3,21.7,48.3,48.3v322.9C507.9,444.1,486.1,465.9,459.3,465.9z M52.4,88.1c-3.5,0-6.3,2.8-6.3,6.3v322.9
				c0,3.6,3,6.6,6.6,6.6h406.6c3.6,0,6.6-3,6.6-6.6V94.4c0-3.5-2.8-6.3-6.3-6.3H52.4z"/>
		</g>
		<g>
			<g>
				<g>
					<rect x="37.5" y="77" class="st1" width="434.8" height="70.9"/>
				</g>
			</g>
			<g>
				<g>
					<g>
						<path class="st2" d="M411.2,122c-1.6,0-3-1.3-3-3V72.7c0-1.6,1.3-3,3-3h46.4c1.6,0,3,1.3,3,3V119c0,1.6-1.3,3-3,3H411.2z"/>
					</g>
				</g>
				<g>
					<g>
						<path class="st2" d="M291.1,122c-1.6,0-3-1.3-3-3V72.7c0-1.6,1.3-3,3-3h46.4c1.6,0,3,1.3,3,3V119c0,1.6-1.3,3-3,3H291.1z"/>
					</g>
				</g>
				<g>
					<g>
						<path class="st2" d="M54.5,122c-1.6,0-3-1.3-3-3V72.7c0-1.6,1.3-3,3-3h46.4c1.6,0,3,1.3,3,3V119c0,1.6-1.3,3-3,3H54.5z"/>
					</g>
				</g>
				<g>
					<g>
						<path class="st2" d="M171.1,122c-1.6,0-3-1.3-3-3V72.7c0-1.6,1.3-3,3-3h46.4c1.6,0,3,1.3,3,3V119c0,1.6-1.3,3-3,3H171.1z"/>
					</g>
				</g>
			</g>
		</g>
		<g>
			<g>
				<g>
					<rect x="37.5" y="363.9" class="st1" width="434.8" height="70.9"/>
				</g>
			</g>
			<g>
				<g>
					<g>
						<path class="st2" d="M411.2,389.8c-1.6,0-3,1.3-3,3v46.4c0,1.6,1.3,3,3,3h46.4c1.6,0,3-1.3,3-3v-46.4c0-1.6-1.3-3-3-3H411.2z"
							/>
					</g>
				</g>
				<g>
					<g>
						<path class="st2" d="M291.1,389.8c-1.6,0-3,1.3-3,3v46.4c0,1.6,1.3,3,3,3h46.4c1.6,0,3-1.3,3-3v-46.4c0-1.6-1.3-3-3-3H291.1z"
							/>
					</g>
				</g>
				<g>
					<g>
						<path class="st2" d="M54.5,389.8c-1.6,0-3,1.3-3,3v46.4c0,1.6,1.3,3,3,3h46.4c1.6,0,3-1.3,3-3v-46.4c0-1.6-1.3-3-3-3H54.5z"/>
					</g>
				</g>
				<g>
					<g>
						<path class="st2" d="M171.1,389.8c-1.6,0-3,1.3-3,3v46.4c0,1.6,1.3,3,3,3h46.4c1.6,0,3-1.3,3-3v-46.4c0-1.6-1.3-3-3-3H171.1z"
							/>
					</g>
				</g>
			</g>
		</g>
	</g>
	<g>
		<g>
			<g>
				<path class="st0" d="M346.7,244.4c-1.1-3.1-4.3-5.2-7.8-4.8c-4,0.5-6.9,4.2-6.4,8.2c4.2,35.2-16.2,68.3-49.5,80.6
					c-33.6,12.3-70.6,0-90.1-29.9c-2.2-3.4-6.8-4.4-10.2-2.2c-3.4,2.2-4.4,6.8-2.2,10.2c11.1,17,27.8,29.9,47,36.4
					c19.6,6.6,41,6.4,60.5-0.7c19.4-7.1,35.9-20.7,46.5-38.3c10.5-17.3,15-37.9,12.6-57.9C347.1,245.4,346.9,244.9,346.7,244.4z"/>
			</g>
			<g>
				<path class="st0" d="M333.3,207.6c1.1,3.1,0,6.8-2.9,8.7c-3.4,2.2-8,1.3-10.2-2.1c-19.5-29.6-56.5-41.7-89.8-29.5
					c-33.6,12.3-53.9,45.6-49.5,81c0.5,4-2.4,7.7-6.4,8.2c-4,0.5-7.7-2.4-8.2-6.4c-2.5-20.1,1.9-40.7,12.4-58.2
					c10.7-17.7,27.2-31.4,46.7-38.5c19.4-7.1,40.7-7.4,60.2-0.8c19.2,6.5,35.9,19.3,47,36.1C332.8,206.6,333.1,207.1,333.3,207.6z"
					/>
			</g>
			<g>
				<path class="st0" d="M344.9,244.7l-19.6,17.6c-2.3,2.1-5.9,1.9-8-0.4l0,0c-2.1-2.3-1.9-5.9,0.4-8l19.6-17.6
					c2.3-2.1,5.9-1.9,8,0.4v0C347.4,239.1,347.2,242.6,344.9,244.7z"/>
				<path class="st0" d="M363.1,256.3l-17.6-19.6c-2.1-2.3-5.6-2.5-8-0.4v0c-2.3,2.1-2.5,5.6-0.4,8l17.6,19.6c2.1,2.3,5.6,2.5,8,0.4
					h0C365,262.2,365.2,258.7,363.1,256.3z"/>
			</g>
			<g>
				<path class="st0" d="M168,268.9l19.6-17.6c2.3-2.1,5.9-1.9,8,0.4l0,0c2.1,2.3,1.9,5.9-0.4,8l-19.6,17.6c-2.3,2.1-5.9,1.9-8-0.4
					v0C165.5,274.6,165.7,271,168,268.9z"/>
				<path class="st0" d="M149.7,257.3l17.6,19.6c2.1,2.3,5.6,2.5,8,0.4l0,0c2.3-2.1,2.5-5.6,0.4-8l-17.6-19.6
					c-2.1-2.3-5.6-2.5-8-0.4h0C147.8,251.4,147.6,255,149.7,257.3z"/>
			</g>
		</g>
		<g>
			<path class="st0" d="M287.5,253.7l-40.9-37c-2.6-2.3-6.6-0.5-6.6,2.9v74c0,3.4,4.1,5.3,6.6,2.9l40.9-37
				C289.2,258,289.2,255.2,287.5,253.7z"/>
		</g>
	</g>
</g>
</svg>
