<?xml version="1.0" encoding="utf-8"?>
<!-- Generator: Adobe Illustrator 25.0.1, SVG Export Plug-In . SVG Version: 6.00 Build 0)  -->
<svg version="1.1" id="Aspose.Imaging" xmlns="http://www.w3.org/2000/svg" xmlns:xlink="http://www.w3.org/1999/xlink" x="0px"
	 y="0px" viewBox="0 0 512 512" style="enable-background:new 0 0 512 512;" xml:space="preserve">
<style type="text/css">
	.st0{fill:#3892C9;}
	.st1{opacity:0.4;}
	.st2{fill:#B2DAEE;}
	.st3{opacity:0.5;}
	.st4{fill:#FFFFFF;}
</style>
<g id="Photo_Filter">
	<g>
		<path class="st0" d="M255.5,477.1c-54.4,0-98.6-44.2-98.6-98.6s44.2-98.6,98.6-98.6c54.4,0,98.6,44.2,98.6,98.6
			S309.8,477.1,255.5,477.1z M255.5,299.9c-43.3,0-78.6,35.2-78.6,78.6c0,43.3,35.2,78.6,78.6,78.6c43.3,0,78.6-35.2,78.6-78.6
			C334,335.2,298.8,299.9,255.5,299.9z"/>
	</g>
	<g class="st1">
		<g>
			<path class="st2" d="M255.5,272.1V61.5H29.3v312h120.1C151.9,317.1,198.4,272.1,255.5,272.1z"/>
		</g>
	</g>
	<g>
		<path class="st0" d="M470.6,34.9H41.4c-21.6,0-39.1,17.5-39.1,39.1v279.3c0,21.6,17.5,39.1,39.1,39.1h108.8
			c-0.6-4.6-0.9-9.3-0.9-14.1c0-6.1,0.5-12.1,1.5-17.9H41.4c-3.9,0-7.1-3.2-7.1-7.1V74.1c0-3.9,3.2-7.1,7.1-7.1h429.3
			c3.9,0,7.1,3.2,7.1,7.1v279.3c0,3.9-3.2,7.1-7.1,7.1H360.2c1,5.8,1.5,11.8,1.5,17.9c0,4.8-0.3,9.5-0.9,14.1h109.9
			c21.6,0,39.1-17.5,39.1-39.1V74.1C509.7,52.5,492.2,34.9,470.6,34.9z"/>
	</g>
	<g class="st3">
		<g>
			<path class="st0" d="M255.5,61.5v210.6c57,0,103.5,44.9,106.1,101.3h118v-312H255.5z"/>
		</g>
	</g>
	<g>
		<g>
			
				<ellipse transform="matrix(0.2298 -0.9732 0.9732 0.2298 97.3364 451.6385)" class="st0" cx="334" cy="164.3" rx="25.5" ry="25.5"/>
		</g>
		<g>
			<path class="st0" d="M422.4,184.3c-1.6-2.3-5-2.3-6.6,0L343.6,284l-43.8-47c-1.4-1.5-3.9-1.5-5.3,0l-33.7,35.3
				c51.7,2.5,93.7,42,100.1,92.6h49.9h67.6V261.6L422.4,184.3z"/>
		</g>
		<g>
			
				<ellipse transform="matrix(0.2298 -0.9732 0.9732 0.2298 -74.4287 234.604)" class="st0" cx="111" cy="164.3" rx="25.5" ry="25.5"/>
		</g>
		<g>
			<path class="st0" d="M255.3,272.1v-10.5l-55.9-77.3c-1.6-2.3-5-2.3-6.6,0L120.6,284l-43.8-47c-1.4-1.5-3.9-1.5-5.3,0L9.3,303.7
				v61.1h60.8h80C156.7,312.6,201.3,272.2,255.3,272.1z"/>
		</g>
	</g>
	<g>
		<path class="st0" d="M255.5,272.1c5.4,0,10.8,0.4,16,1.2V42.9h-32v230.4C244.7,272.5,250,272.1,255.5,272.1z"/>
	</g>
	<g>
		<g>
			<path class="st0" d="M222.3,427.2l-9.8-9.8c-1.1-1.1-1.1-2.9,0-4l63.4-63.4c1.1-1.1,2.9-1.1,4,0l9.8,9.8c1.1,1.1,1.1,2.9,0,4
				l-63.4,63.4C225.3,428.3,223.4,428.3,222.3,427.2z"/>
		</g>
		<g>
			
				<rect x="268.2" y="356" transform="matrix(0.7071 0.7071 -0.7071 0.7071 338.5372 -87.3753)" class="st4" width="13.2" height="17.9"/>
		</g>
		<g>
			<polygon class="st0" points="256.3,334.9 265.8,347.1 250.2,343.3 237.6,352.6 241.6,337.1 232.2,324.4 247.2,329 260.4,318.9 
							"/>
		</g>
		<g>
			<polygon class="st0" points="226,367.9 232.4,376.1 221.9,373.5 213.4,379.8 216,369.4 209.7,360.8 219.8,363.9 228.7,357.1 			
				"/>
		</g>
		<g>
			<polygon class="st0" points="307.5,381.9 314.5,390.9 303,388.1 293.7,394.9 296.6,383.5 289.7,374.1 300.7,377.6 310.5,370.1 
							"/>
		</g>
	</g>
</g>
</svg>
