<?xml version="1.0" encoding="utf-8"?>
<!-- Generator: Adobe Illustrator 25.0.1, SVG Export Plug-In . SVG Version: 6.00 Build 0)  -->
<svg version="1.1" id="Layer_1" xmlns="http://www.w3.org/2000/svg" xmlns:xlink="http://www.w3.org/1999/xlink" x="0px" y="0px"
	 viewBox="0 0 512 512" style="enable-background:new 0 0 512 512;" xml:space="preserve">
<style type="text/css">
	.st0{fill:#3892C9;}
	.st1{fill-rule:evenodd;clip-rule:evenodd;fill:#FFFFFF;}
	.st2{fill:#FFFFFF;}
</style>
<g id="PSD_Editor">
	<g id="PSD_Merger_2_">
		<g>
			<rect x="95.55" y="95.37" class="st0" width="410" height="410"/>
		</g>
		<g>
			<path class="st0" d="M428.29,428.11H5.82V5.64h422.48V428.11z M44.29,389.64h345.52V44.11H44.29V389.64z"/>
		</g>
	</g>
	<g id="signature_6_">
		<g>
			<path class="st1" d="M245.83,313.5c-1.96-1.66-4.9-1.42-6.56,0.54l-8.75,10.28c-0.74,0.88-1.14,1.99-1.11,3.14l-3.66,46.37
				c0.07,2.75,2.51,4.84,5.24,4.5l45.73-10.77c1.15-0.15,2.21-0.72,2.96-1.6l8.72-10.25c1.67-1.96,1.43-4.91-0.54-6.57L245.83,313.5
				z M421.87,149.16c-13.58-11.5-33.92-9.84-45.45,3.71c-0.57,0.68-1.11,1.37-1.62,2.08c-0.23,0.16-0.45,0.35-0.64,0.57
				l-123.6,145.26c-1.25,1.47-1.07,3.68,0.4,4.92l43.82,37.14c1.47,1.24,3.67,1.07,4.91-0.4l123.6-145.26
				c0.19-0.23,0.34-0.47,0.46-0.73c0.62-0.62,1.23-1.26,1.8-1.94C437.1,180.97,435.45,160.67,421.87,149.16z"/>
		</g>
	</g>
	<g>
		<g>
			<g>
				<path class="st2" d="M334.17,447.72l-147.63,0c-5.4,0-9.78,4.38-9.78,9.78v0c0,5.56,4.5,10.06,10.06,10.06h147.73v0"/>
			</g>
			<g>
				<path class="st2" d="M261.09,467.56h77.42c14.5,0,27.32-10.18,29.81-24.47c3.22-18.51-11.68-34.56-29.7-34.56h-62.05
					c-5.06,0-9.16,4.1-9.16,9.16v1.47c0,5.09,4.12,9.21,9.21,9.21h62.67c5.37,0,9.73,4.41,9.64,9.87
					c-0.09,5.33-4.74,9.48-10.08,9.48l-77,0"/>
			</g>
		</g>
		<g>
			<path class="st2" d="M237.29,428.77h-3.91c-5.59,0-10.12-4.53-10.12-10.12l0,0c0-5.59,4.53-10.12,10.12-10.12h3.91
				c5.59,0,10.12,4.53,10.12,10.12l0,0C247.41,424.24,242.88,428.77,237.29,428.77z"/>
		</g>
	</g>
</g>
<g>
</g>
<g>
</g>
<g>
</g>
<g>
</g>
<g>
</g>
</svg>
