<?xml version="1.0" encoding="utf-8"?>
<!-- Generator: Adobe Illustrator 25.0.1, SVG Export Plug-In . SVG Version: 6.00 Build 0)  -->
<svg version="1.1" id="Layer_1" xmlns="http://www.w3.org/2000/svg" xmlns:xlink="http://www.w3.org/1999/xlink" x="0px" y="0px"
	 viewBox="0 0 512 512" style="enable-background:new 0 0 512 512;" xml:space="preserve">
<style type="text/css">
	.st0{fill:#3A8FC6;}
</style>
<g id="lock">
	<path class="st0" d="M360.19,122.8C356.01,68.91,310.96,26.48,256,26.48c-57.71,0-104.5,46.79-104.5,104.5v94.41
		c0,37.98,20.27-13.65,50.57,4.65v-98.19c0-29.3,23.75-53.05,53.04-53.05c26.68,0,48.75,19.69,52.48,45.34
		c-0.09,0.91-0.14,1.83-0.14,2.76v105c0,14.65,11.88,26.53,26.53,26.53c14.65,0,26.53-11.88,26.53-26.53v-97.78v-3.15v-4.08
		C360.5,125.51,360.39,124.14,360.19,122.8z"/>
	<g>
		<path class="st0" d="M86.22,272.14v166.22c0,26.04,21.11,47.16,47.16,47.16h245.25c26.04,0,47.16-21.11,47.16-47.16V272.14
			c0-26.05-21.11-47.16-47.16-47.16H133.37C107.33,224.99,86.22,246.1,86.22,272.14z M363.98,259.17c9.83,0,17.81,7.97,17.81,17.81
			v156.54c0,9.84-7.97,17.81-17.81,17.81H148.02c-9.84,0-17.81-7.97-17.81-17.81V276.98c0-9.84,7.97-17.81,17.81-17.81H363.98z"/>
		<g>
			<path class="st0" d="M283.63,324.64c0,15.26-12.37,27.63-27.63,27.63c-15.26,0-27.63-12.37-27.63-27.63
				c0-15.26,12.37-27.63,27.63-27.63C271.26,297.01,283.63,309.38,283.63,324.64z"/>
			<polygon class="st0" points="283.63,410.38 228.37,410.38 252.61,324.64 259.38,324.64 			"/>
		</g>
	</g>
</g>
<g>
</g>
<g>
</g>
<g>
</g>
<g>
</g>
<g>
</g>
</svg>
