<?xml version="1.0" encoding="utf-8"?>
<!-- Generator: Adobe Illustrator 25.0.1, SVG Export Plug-In . SVG Version: 6.00 Build 0)  -->
<svg version="1.1" id="Layer_1" xmlns="http://www.w3.org/2000/svg" xmlns:xlink="http://www.w3.org/1999/xlink" x="0px" y="0px"
	 viewBox="0 0 512 512" style="enable-background:new 0 0 512 512;" xml:space="preserve">
<style type="text/css">
	.st0{fill:#3A8FC6;}
</style>
<g id="Recognize">
	<polygon class="st0" points="9.06,63.21 9.06,92.67 9.06,133.02 38.52,133.02 38.52,92.67 78.87,92.67 78.87,63.21 38.52,63.21 	
		"/>
	<polygon class="st0" points="474.64,63.21 434.28,63.21 434.28,92.67 474.64,92.67 474.64,133.02 504.09,133.02 504.09,92.67 
		504.09,63.21 	"/>
	<polygon class="st0" points="7.91,448.79 7.91,419.33 7.91,378.98 37.36,378.98 37.36,419.33 77.72,419.33 77.72,448.79 
		37.36,448.79 	"/>
	<polygon class="st0" points="473.48,448.79 433.13,448.79 433.13,419.33 473.48,419.33 473.48,378.98 502.94,378.98 502.94,419.33 
		502.94,448.79 	"/>
	<rect x="9.06" y="242.76" class="st0" width="495.04" height="26.47"/>
	<g>
		<rect x="117.16" y="104.73" class="st0" width="23.8" height="120.59"/>
		<rect x="159.47" y="104.73" class="st0" width="23.8" height="120.59"/>
		<rect x="328.73" y="104.73" class="st0" width="23.8" height="120.59"/>
		<rect x="201.79" y="104.73" class="st0" width="23.8" height="120.59"/>
		<rect x="244.1" y="104.73" class="st0" width="23.8" height="120.59"/>
		<rect x="286.41" y="104.73" class="st0" width="23.8" height="120.59"/>
		<rect x="371.04" y="104.73" class="st0" width="23.8" height="120.59"/>
		<rect x="117.16" y="286.68" class="st0" width="23.8" height="120.59"/>
		<rect x="159.47" y="286.68" class="st0" width="23.8" height="110.59"/>
		<rect x="328.73" y="286.68" class="st0" width="23.8" height="110.59"/>
		<rect x="201.79" y="286.68" class="st0" width="23.8" height="110.59"/>
		<rect x="244.1" y="286.68" class="st0" width="23.8" height="110.59"/>
		<rect x="286.41" y="286.68" class="st0" width="23.8" height="110.59"/>
		<rect x="371.04" y="286.68" class="st0" width="23.8" height="120.59"/>
	</g>
</g>
<g>
</g>
<g>
</g>
<g>
</g>
<g>
</g>
<g>
</g>
</svg>
