<?xml version="1.0" encoding="utf-8"?>
<!-- Generator: Adobe Illustrator 25.0.1, SVG Export Plug-In . SVG Version: 6.00 Build 0)  -->
<svg version="1.1" id="Layer_1" xmlns="http://www.w3.org/2000/svg" xmlns:xlink="http://www.w3.org/1999/xlink" x="0px" y="0px"
	 viewBox="0 0 512 512" style="enable-background:new 0 0 512 512;" xml:space="preserve">
<style type="text/css">
	.st0{fill:#3690C8;}
	.st1{fill:#3593CB;}
</style>
<g id="Purchase_Order">
	<g>
		<g id="XMLID_4_">
			<path class="st0" d="M433.1,24.1c15.3,0,27.9,12.6,27.9,27.9V460c0,15.3-12.6,27.9-27.9,27.9H78.9C63.6,487.9,51,475.4,51,460V52
				c0-15.3,12.6-27.9,27.9-27.9H433.1 M433.1,4.1H78.9C52.5,4.1,31,25.5,31,52V460c0,26.4,21.5,47.9,47.9,47.9h354.2
				c26.4,0,47.9-21.5,47.9-47.9V52C481,25.5,459.5,4.1,433.1,4.1L433.1,4.1z"/>
		</g>
	</g>
	<g>
		<g>
			<rect x="77.1" y="243.2" class="st1" width="357.8" height="63.1"/>
		</g>
		<g>
			
				<rect x="186.1" y="359.3" transform="matrix(-1.836970e-16 1 -1 -1.836970e-16 632.5336 111.6879)" class="st1" width="148.7" height="25.7"/>
		</g>
		<g>
			<g>
				
					<rect x="77" y="359.9" transform="matrix(-1 -1.224647e-16 1.224647e-16 -1 511.9162 743.1044)" class="st1" width="358" height="23.3"/>
			</g>
			<g>
				
					<rect x="-14.6" y="334.8" transform="matrix(6.123234e-17 -1 1 6.123234e-17 -257.8163 437.3896)" class="st1" width="208.7" height="25.7"/>
			</g>
			<g>
				
					<rect x="317.8" y="334.8" transform="matrix(6.123234e-17 -1 1 6.123234e-17 74.5265 769.7325)" class="st1" width="208.7" height="25.7"/>
			</g>
			<g>
				
					<rect x="77" y="439.2" transform="matrix(-1 -1.224647e-16 1.224647e-16 -1 512.0838 901.6538)" class="st1" width="358" height="23.3"/>
			</g>
		</g>
	</g>
	<g>
		<g>
			<path class="st1" d="M313.1,170.8h-82.9c-9.5,0-17.6-5.7-19.5-13.7l-29-73c-1.4-5.7,3.7-11.1,10.5-11.1h158.7
				c6.8,0,11.9,5.4,10.5,11.1l-29,73.2C330.5,165.1,322.4,170.8,313.1,170.8z"/>
		</g>
		<g>
			<circle class="st1" cx="243.6" cy="197.2" r="16"/>
		</g>
		<g>
			<circle class="st1" cx="299" cy="197.2" r="16"/>
		</g>
		<g>
			<path class="st1" d="M194.8,96.8L194.8,96.8c-4,1.5-8.6-0.5-10.1-4.5l-13.2-34.5c-1.5-4,0.5-8.6,4.5-10.1l0,0
				c4-1.5,8.6,0.5,10.1,4.5l13.2,34.5C200.8,90.7,198.8,95.3,194.8,96.8z"/>
		</g>
		<g>
			<path class="st1" d="M186.4,54.4L186.4,54.4c0,4.3-3.5,7.8-7.8,7.8l-20.4,0c-4.3,0-7.8-3.5-7.8-7.8v0c0-4.3,3.5-7.8,7.8-7.8
				l20.4,0C182.9,46.6,186.4,50.1,186.4,54.4z"/>
		</g>
	</g>
</g>
</svg>
