<?xml version="1.0" encoding="utf-8"?>
<!-- Generator: Adobe Illustrator 25.0.1, SVG Export Plug-In . SVG Version: 6.00 Build 0)  -->
<svg version="1.1" id="Layer_1" xmlns="http://www.w3.org/2000/svg" xmlns:xlink="http://www.w3.org/1999/xlink" x="0px" y="0px"
	 viewBox="0 0 512 512" style="enable-background:new 0 0 512 512;" xml:space="preserve">
<style type="text/css">
	.st0{fill:#3A8FC6;}
	.st1{display:none;}
	.st2{display:inline;}
</style>
<g id="To_Do_List">
	<g>
		<g>
			<g>
				<path class="st0" d="M465.3,120.2H231.8c-18.1,0-32.8-14.7-32.8-32.8v0c0-18.1,14.7-32.8,32.8-32.8h233.5
					c18.1,0,32.8,14.7,32.8,32.8v0C498.1,105.5,483.4,120.2,465.3,120.2z"/>
			</g>
		</g>
		<g>
			<g>
				<path class="st0" d="M465.3,295.3H231.8c-18.1,0-32.8-14.7-32.8-32.8v0c0-18.1,14.7-32.8,32.8-32.8h233.5
					c18.1,0,32.8,14.7,32.8,32.8v0C498.1,280.6,483.4,295.3,465.3,295.3z"/>
			</g>
		</g>
		<g>
			<g>
				<path class="st0" d="M466,470.4H232.5c-18.1,0-32.8-14.7-32.8-32.8v0c0-18.1,14.7-32.8,32.8-32.8H466
					c18.1,0,32.8,14.7,32.8,32.8v0C498.8,455.7,484.1,470.4,466,470.4z"/>
			</g>
		</g>
	</g>
	<g>
		<g>
			<g>
				<g>
					<g>
						
							<rect x="67.3" y="46.2" transform="matrix(0.6671 -0.745 0.745 0.6671 0.5562 118.2354)" class="st0" width="130.5" height="24.6"/>
					</g>
				</g>
				<g>
					<g>
						
							<rect x="72.8" y="59.3" transform="matrix(0.6671 -0.7449 0.7449 0.6671 -36.7766 92.5303)" class="st0" width="24.6" height="56.2"/>
					</g>
				</g>
			</g>
			<g>
				<path class="st0" d="M86,157.6c-40.1,0-72.8-32.6-72.8-72.8S45.8,12,86,12s72.8,32.6,72.8,72.8S126.1,157.6,86,157.6z M86,44
					c-22.5,0-40.8,18.3-40.8,40.8s18.3,40.8,40.8,40.8s40.8-18.3,40.8-40.8S108.4,44,86,44z"/>
			</g>
		</g>
		<g>
			<g class="st1">
				<g class="st2">
					<g>
						
							<rect x="67.3" y="222.6" transform="matrix(0.6671 -0.745 0.745 0.6671 -130.8429 176.951)" class="st0" width="130.5" height="24.6"/>
					</g>
				</g>
				<g class="st2">
					<g>
						
							<rect x="72.8" y="235.7" transform="matrix(0.6671 -0.7449 0.7449 0.6671 -168.1755 151.2456)" class="st0" width="24.6" height="56.2"/>
					</g>
				</g>
			</g>
			<g>
				<path class="st0" d="M86,333.9c-40.1,0-72.8-32.6-72.8-72.8c0-40.1,32.6-72.8,72.8-72.8s72.8,32.6,72.8,72.8
					C158.7,301.3,126.1,333.9,86,333.9z M86,220.4c-22.5,0-40.8,18.3-40.8,40.8s18.3,40.8,40.8,40.8s40.8-18.3,40.8-40.8
					S108.4,220.4,86,220.4z"/>
			</g>
		</g>
		<g>
			<g class="st1">
				<g class="st2">
					<g>
						
							<rect x="67.3" y="399" transform="matrix(0.6671 -0.745 0.745 0.6671 -262.242 235.6665)" class="st0" width="130.5" height="24.6"/>
					</g>
				</g>
				<g class="st2">
					<g>
						
							<rect x="72.8" y="412.1" transform="matrix(0.6671 -0.7449 0.7449 0.6671 -299.5744 209.961)" class="st0" width="24.6" height="56.2"/>
					</g>
				</g>
			</g>
			<g>
				<path class="st0" d="M86,510.3c-40.1,0-72.8-32.6-72.8-72.8s32.6-72.8,72.8-72.8s72.8,32.6,72.8,72.8S126.1,510.3,86,510.3z
					 M86,396.8c-22.5,0-40.8,18.3-40.8,40.8s18.3,40.8,40.8,40.8s40.8-18.3,40.8-40.8S108.4,396.8,86,396.8z"/>
			</g>
		</g>
	</g>
</g>
</svg>
