<?xml version="1.0" encoding="utf-8"?>
<!-- Generator: Adobe Illustrator 25.0.1, SVG Export Plug-In . SVG Version: 6.00 Build 0)  -->
<svg version="1.1" id="Layer_1" xmlns="http://www.w3.org/2000/svg" xmlns:xlink="http://www.w3.org/1999/xlink" x="0px" y="0px"
	 viewBox="0 0 512 512" style="enable-background:new 0 0 512 512;" xml:space="preserve">
<style type="text/css">
	.st0{fill:#3291C7;}
	.st1{fill:#3391C6;}
</style>
<g>
	<g>
		<path class="st0" d="M250.69,340.18c0,13.56-4,24.03-11.99,31.42c-8,7.39-19.35,11.08-34.07,11.08h-9.21v40.26h-32.79V301.58h42
			c15.33,0,26.84,3.35,34.53,10.04C246.84,318.32,250.69,327.84,250.69,340.18z M195.4,355.95h5.98c4.92,0,8.84-1.38,11.75-4.15
			c2.91-2.77,4.36-6.58,4.36-11.46c0-8.19-4.54-12.29-13.61-12.29h-8.47V355.95z"/>
		<path class="st0" d="M384.72,422.94h-43l-44.33-85.5h-0.75c1.05,13.45,1.58,23.71,1.58,30.8v54.7h-29.05V301.58h42.83l44.16,84.34
			h0.5c-0.78-12.23-1.16-22.05-1.16-29.47v-54.87h29.22V422.94z"/>
		<path class="st0" d="M458.83,351.88h52.38v65.41c-14.22,4.87-29.86,7.3-46.9,7.3c-18.71,0-33.16-5.42-43.37-16.27
			c-10.21-10.85-15.31-26.31-15.31-46.4c0-19.59,5.59-34.83,16.77-45.74c11.18-10.9,26.84-16.35,46.98-16.35
			c7.64,0,14.84,0.72,21.62,2.16c6.78,1.44,12.69,3.27,17.72,5.48l-10.38,25.73c-8.75-4.32-18.34-6.47-28.8-6.47
			c-9.58,0-16.98,3.11-22.21,9.34c-5.23,6.22-7.84,15.12-7.84,26.69c0,11.34,2.37,19.99,7.1,25.94c4.73,5.95,11.55,8.92,20.46,8.92
			c4.87,0,9.35-0.47,13.45-1.41V377.2h-21.67V351.88z"/>
	</g>
	<g id="BG_Shapes">
		<g id="Rounded_Rectangle_6">
			<path class="st0" d="M251.48,146h-25.39c-9.94,0-18,8.06-18,18v1.57c0,9.94,8.06,18,18,18h25.39c9.94,0,18-8.06,18-18V164
				C269.48,154.06,261.43,146,251.48,146z"/>
		</g>
		<g id="Rounded_Rectangle_6_copy">
			<path class="st0" d="M335.48,146h-25.39c-9.94,0-18,8.06-18,18v1.57c0,9.94,8.06,18,18,18h25.39c9.94,0,18-8.06,18-18V164
				C353.48,154.06,345.43,146,335.48,146z"/>
		</g>
		<g id="Rounded_Rectangle_6_copy_2">
			<path class="st0" d="M420.48,146h-25.39c-9.94,0-18,8.06-18,18v1.57c0,9.94,8.06,18,18,18h25.39c9.94,0,18-8.06,18-18V164
				C438.48,154.06,430.43,146,420.48,146z"/>
		</g>
		<g id="Rounded_Rectangle_6_copy_3">
			<path class="st0" d="M251.48,218h-25.39c-9.94,0-18,8.06-18,18v1.57c0,9.94,8.06,18,18,18h25.39c9.94,0,18-8.06,18-18V236
				C269.48,226.06,261.43,218,251.48,218z"/>
		</g>
		<g id="Rounded_Rectangle_6_copy_3_1_">
			<path class="st0" d="M335.48,219h-25.39c-9.94,0-18,8.06-18,18v1.57c0,9.94,8.06,18,18,18h25.39c9.94,0,18-8.06,18-18V237
				C353.48,227.06,345.43,219,335.48,219z"/>
		</g>
		<g id="Rounded_Rectangle_6_copy_3_2_">
			<path class="st0" d="M420.48,219h-25.39c-9.94,0-18,8.06-18,18v1.57c0,9.94,8.06,18,18,18h25.39c9.94,0,18-8.06,18-18V237
				C438.48,227.06,430.43,219,420.48,219z"/>
		</g>
		<g>
			<g>
				<path class="st1" d="M111.09,98.23V78.5c0-13.81,11.19-25,25-25h210c13.81,0,25,11.19,25,25V112h52V78.5c0-42.46-34.54-77-77-77
					h-210c-42.46,0-77,34.54-77,77v23.9C70.13,98.9,81.9,97,94.14,97C99.9,97,105.56,97.42,111.09,98.23z"/>
				<path class="st1" d="M369.13,443.23c-3.79,8.97-12.68,15.27-23.04,15.27h-210c-13.81,0-25-11.19-25-25V315.77
					c-5.53,0.81-11.19,1.23-16.96,1.23c-12.23,0-24.01-1.9-35.04-5.4v121.9c0,42.46,34.54,77,77,77h210
					c39.16,0,71.56-29.39,76.36-67.27H369.13z"/>
			</g>
			<path class="st0" d="M96.09,111.7c-52.63,0-95.3,42.67-95.3,95.3s42.67,95.3,95.3,95.3s95.3-42.67,95.3-95.3
				S148.73,111.7,96.09,111.7z M134.98,220.34l-44.52,44.52c-6.53,6.53-17.12,6.53-23.65,0c-6.53-6.53-6.53-17.12,0-23.65
				l33.32-33.32L66.8,174.57c-6.53-6.53-6.53-17.12,0-23.65c6.53-6.53,17.12-6.53,23.65,0l44.52,44.52
				c3.43,3.43,5.05,7.97,4.88,12.46C140.03,212.38,138.4,216.92,134.98,220.34z"/>
		</g>
	</g>
</g>
<g>
</g>
<g>
</g>
<g>
</g>
<g>
</g>
<g>
</g>
</svg>
