<?xml version="1.0" encoding="utf-8"?>
<!-- Generator: Adobe Illustrator 25.0.1, SVG Export Plug-In . SVG Version: 6.00 Build 0)  -->
<svg version="1.1" id="Layer_1" xmlns="http://www.w3.org/2000/svg" xmlns:xlink="http://www.w3.org/1999/xlink" x="0px" y="0px"
	 viewBox="0 0 512 512" style="enable-background:new 0 0 512 512;" xml:space="preserve">
<style type="text/css">
	.st0{fill:#3A8FC7;}
</style>
<g id="Text_on_Image">
	<path class="st0" d="M436.92,109.95c5.33,0,9.65,4.32,9.65,9.65v272.81c0,5.33-4.32,9.65-9.65,9.65H75.08
		c-5.33,0-9.65-4.32-9.65-9.65V119.59c0-5.33,4.32-9.65,9.65-9.65H436.92 M436.92,79.95H75.08c-21.86,0-39.65,17.79-39.65,39.65
		v272.81c0,21.86,17.79,39.65,39.65,39.65h361.84c21.86,0,39.65-17.79,39.65-39.65V119.59C476.57,97.73,458.78,79.95,436.92,79.95
		L436.92,79.95z"/>
	<g>
		<path class="st0" d="M141.26,197.83h-31.58l-3.76,8.7c-1.23,2.9-1.85,5.3-1.85,7.19c0,2.5,1.01,4.35,3.03,5.54
			c1.19,0.7,4.11,1.23,8.77,1.58v2.44H86.15v-2.44c3.21-0.48,5.84-1.81,7.91-3.99c2.06-2.18,4.61-6.67,7.65-13.48l31.97-71.32h1.25
			l32.23,73.3c3.07,6.94,5.6,11.32,7.58,13.12c1.49,1.36,3.6,2.15,6.33,2.37v2.44h-43.24v-2.44h1.78c3.47,0,5.91-0.48,7.32-1.45
			c0.97-0.7,1.45-1.71,1.45-3.03c0-0.79-0.13-1.6-0.4-2.44c-0.09-0.4-0.75-2.04-1.98-4.94L141.26,197.83z M139.02,192.95
			l-13.31-30.78l-13.71,30.78H139.02z"/>
		<path class="st0" d="M224.52,214.17c-7.52,6.64-14.26,9.95-20.24,9.95c-3.52,0-6.44-1.15-8.77-3.46c-2.33-2.31-3.49-5.2-3.49-8.67
			c0-4.7,2.02-8.93,6.06-12.69c4.04-3.76,12.85-8.76,26.43-15v-6.2c0-4.66-0.25-7.59-0.76-8.8c-0.51-1.21-1.46-2.26-2.87-3.16
			c-1.41-0.9-2.99-1.35-4.75-1.35c-2.86,0-5.21,0.64-7.05,1.91c-1.14,0.79-1.71,1.71-1.71,2.77c0,0.92,0.61,2.07,1.85,3.43
			c1.67,1.89,2.5,3.71,2.5,5.47c0,2.15-0.8,3.99-2.41,5.5c-1.6,1.52-3.7,2.27-6.3,2.27c-2.77,0-5.09-0.83-6.95-2.5
			c-1.87-1.67-2.8-3.63-2.8-5.87c0-3.16,1.25-6.19,3.76-9.06c2.5-2.88,6-5.09,10.48-6.62c4.48-1.54,9.14-2.31,13.97-2.31
			c5.84,0,10.47,1.24,13.88,3.72c3.41,2.48,5.61,5.17,6.62,8.08c0.62,1.85,0.92,6.09,0.92,12.72v23.93c0,2.81,0.11,4.58,0.33,5.31
			c0.22,0.72,0.55,1.26,0.99,1.61c0.44,0.35,0.94,0.53,1.52,0.53c1.14,0,2.31-0.81,3.49-2.44l1.98,1.58
			c-2.2,3.25-4.47,5.61-6.82,7.09c-2.35,1.47-5.02,2.21-8.01,2.21c-3.52,0-6.26-0.82-8.24-2.47
			C226.17,220.01,224.96,217.52,224.52,214.17z M224.52,209.36v-20.63c-5.32,3.12-9.27,6.46-11.87,10.02
			c-1.71,2.37-2.57,4.77-2.57,7.19c0,2.02,0.73,3.8,2.17,5.34c1.1,1.19,2.64,1.78,4.62,1.78
			C219.07,213.05,221.62,211.82,224.52,209.36z"/>
	</g>
	<g>
		<polygon class="st0" points="307.35,216.56 187.79,378.91 426.91,378.91 		"/>
		<polygon class="st0" points="192.54,270.55 85.09,378.91 299.99,378.91 		"/>
	</g>
</g>
<g>
</g>
<g>
</g>
<g>
</g>
<g>
</g>
<g>
</g>
</svg>
