<?xml version="1.0" encoding="utf-8"?>
<!-- Generator: Adobe Illustrator 25.0.1, SVG Export Plug-In . SVG Version: 6.00 Build 0)  -->
<svg version="1.1" id="Layer_1" xmlns="http://www.w3.org/2000/svg" xmlns:xlink="http://www.w3.org/1999/xlink" x="0px" y="0px"
	 viewBox="0 0 512 512" style="enable-background:new 0 0 512 512;" xml:space="preserve">
<style type="text/css">
	.st0{fill:#3593C9;}
	.st1{fill:#3691C9;}
</style>
<g>
	<g>
		<g>
			<g>
				<path class="st0" d="M387.15,160.33c-16.9,0-33.17,0-49.52,0c-0.86-1.89-0.45-3.74-0.46-5.51c-0.03-24.83-0.29-49.67,0.08-74.5
					c0.23-15.34-11.46-26.97-27-26.91c-67,0.26-133.99,0.28-200.99-0.01c-15.66-0.07-27.31,11.59-27.23,27.23
					c0.31,60.83,0.12,121.66,0.12,182.49c0,1.83,0,3.66,0,6.42c-14.93-11.89-31.7-17.4-50.04-12.63c0-2.08,0.06-3.75,0.06-5.39
					c-0.02-57.5-0.05-115,0-172.49c0.03-31.91,18.81-59.16,48.61-70.67c7.82-3.02,15.94-4.78,24.33-4.78
					c69.66-0.04,139.33-0.22,208.99,0.04c35.91,0.14,67.25,28.33,72.2,63.88c0.58,4.15,0.85,8.27,0.85,12.43c0,25,0,50,0,75
					C387.15,156.57,387.15,158.22,387.15,160.33z"/>
			</g>
		</g>
		<g>
			<g>
				<path class="st0" d="M131.84,458.52c2.08,0,3.91,0,5.73,0c57.81,0,115.62,0.01,173.43-0.01c13.15-0.01,22.68-7.57,25.65-20.08
					c0.55-2.31,0.49-4.63,0.49-6.95c0.01-21.66,0.01-43.32,0.01-64.97c0-1.8,0-3.61,0-5.69c16.74,0,33.12,0,49.47,0
					c0.86,1.36,0.51,2.72,0.51,4c0.03,22.99,0.08,45.98,0,68.97c-0.11,32.37-20.91,60.93-51.64,70.99
					c-7.31,2.39-14.8,3.75-22.52,3.75c-68.97-0.01-137.94,0-206.92-0.01c-6.3,0-12.48-0.83-19.12-3.03
					C104.81,492.25,119.64,476.92,131.84,458.52z"/>
			</g>
		</g>
		<g>
			<g>
				<path class="st1" d="M84.98,389.94c-17.15-17.13-33.39-33.39-49.68-49.59c-4.76-4.73-8-10.1-8.45-16.99
					c-0.69-10.43,3.27-18.56,12.15-23.93c8.72-5.27,17.7-5.03,26.47,0.17c2.29,1.36,4.24,3.19,6.13,5.09
					c21.41,21.45,42.86,42.86,64.27,64.31c12.35,12.37,12.3,28.69-0.11,41.11c-21.66,21.67-43.3,43.36-65.01,64.98
					c-8.92,8.88-20.92,10.71-31.09,4.96c-14.69-8.32-17.55-27.77-5.57-40.04c15.36-15.72,31.02-31.15,46.58-46.68
					C81.84,392.16,83.27,391.27,84.98,389.94z"/>
			</g>
		</g>
		<g>
			<g>
				<path class="st0" d="M209.12,149.52c-21.98,0-43.96,0.08-65.93-0.03c-14.78-0.07-26.25-11.89-26.04-26.49
					c0.2-13.62,11.45-25.12,25.09-25.44c7.16-0.17,14.32-0.03,21.48-0.03c37.3,0,74.59-0.03,111.89,0.02
					c14.72,0.02,26.38,11.32,26.54,25.51c0.16,14.64-11.29,26.37-26.09,26.44C253.75,149.6,231.43,149.52,209.12,149.52z"/>
			</g>
		</g>
	</g>
	<g>
		<path class="st0" d="M135.38,224.57c0-3.72,1.04-6.5,3.11-8.32c2.07-1.82,5.42-2.73,10.03-2.73c4.61,0,7.98,0.93,10.09,2.79
			c2.12,1.86,3.17,4.61,3.17,8.25c0,7.28-4.42,10.92-13.27,10.92C139.76,235.49,135.38,231.85,135.38,224.57z M160.83,314.39h-24.82
			v-71.92h24.82V314.39z"/>
		<path class="st0" d="M263.22,314.39h-29.01l-18.09-29.01l-17.9,29.01h-28.37l30.79-47.48l-28.95-45.32h27.8l16.76,28.69
			l16.12-28.69H261l-29.39,47.29L263.22,314.39z"/>
		<path class="st0" d="M273.63,221.59H306c12.61,0,21.97,1.87,28.09,5.62s9.17,9.58,9.17,17.49c0,5.21-1.33,9.65-4,13.33
			c-2.67,3.68-6.18,6.05-10.54,7.11v0.63c5.75,1.52,9.92,4.06,12.5,7.62c2.58,3.55,3.87,8.17,3.87,13.84
			c0,8.42-3.16,15.05-9.49,19.9s-14.95,7.27-25.87,7.27h-36.12V221.59z M298.7,257.2h7.55c3.6,0,6.38-0.74,8.35-2.22
			c1.97-1.48,2.95-3.68,2.95-6.6c0-5.21-3.94-7.81-11.81-7.81h-7.05V257.2z M298.7,275.54v19.49h8.82c7.83,0,11.74-3.3,11.74-9.9
			c0-3.09-1.05-5.46-3.14-7.11s-5.13-2.48-9.11-2.48H298.7z"/>
		<path class="st0" d="M386.3,280.62v33.77h-25.07v-92.8h30.41c25.22,0,37.83,9.14,37.83,27.42c0,10.75-5.25,19.06-15.74,24.95
			l27.04,40.43h-28.44l-19.68-33.77H386.3z M386.3,261.77h4.7c8.76,0,13.14-3.87,13.14-11.62c0-6.39-4.3-9.58-12.89-9.58h-4.95
			V261.77z"/>
		<path class="st0" d="M449.2,314.39v-92.8h25.07v72.55h35.74v20.25H449.2z"/>
	</g>
</g>
<g>
</g>
<g>
</g>
<g>
</g>
<g>
</g>
<g>
</g>
</svg>
