<?xml version="1.0" encoding="utf-8"?>
<!-- Generator: Adobe Illustrator 25.0.1, SVG Export Plug-In . SVG Version: 6.00 Build 0)  -->
<svg version="1.1" id="Layer_1" xmlns="http://www.w3.org/2000/svg" xmlns:xlink="http://www.w3.org/1999/xlink" x="0px" y="0px"
	 viewBox="0 0 512 512" style="enable-background:new 0 0 512 512;" xml:space="preserve">
<style type="text/css">
	.st0{fill:#3593C9;}
	.st1{fill:#3691C9;}
</style>
<g id="iXBRL_to_XLSX">
	<g>
		<g>
			<path class="st0" d="M413.04,255.38c0-2.58,0-4.4,0-6.22c0-56.49,0.01-112.99-0.01-169.48C413.03,66.51,405.51,57,392.96,54
				c-1.98-0.47-3.96-0.49-5.95-0.49c-67.66,0-135.32-0.02-202.98,0.01c-15.29,0.01-25.95,10.77-25.98,26.21
				c-0.04,24.83-0.01,49.66-0.01,74.49c0,1.83,0,3.66,0,5.89c-16.52,0-33.37,0.02-49.95,0.02c0-1.23-0.03-2.36-0.03-3.62
				c-0.03-26-0.13-52,0.01-77.99c0.19-37.8,27.14-68.65,64.48-74.22c3.65-0.54,7.28-0.77,10.94-0.77
				c67.99-0.01,135.99-0.06,203.98,0.01c32.27,0.04,59.46,18.92,70.89,49c2.91,7.67,4.63,15.64,4.64,23.86
				c0.05,65.33,0.04,130.65,0.03,195.98c0,0.77,0.03,1.29,0.03,2.57c-7.01-5.55-15.09-10.54-23.33-14.15
				C431.44,257.16,422.83,254.84,413.04,255.38z"/>
		</g>
		<g>
			<path class="st0" d="M354.11,458.5c1.66,23.06,15.45,37.49,34.02,49.72c-2.12,0.12-3.45,0.27-4.78,0.27
				c-66.65,0.01-133.29,0.05-199.94-0.01c-38-0.03-68.9-26.92-74.58-64.62c-0.45-2.98-0.75-5.94-0.75-8.94
				c-0.01-23.49-0.02-46.99-0.01-70.48c0-1.13-0.04-1.93-0.05-3.67c16.25,0,33.66,0,50.13,0c0,2.31-0.11,3.77-0.11,5.56
				c0.03,21.66,0.36,43.33-0.1,64.98c-0.34,15.84,11.66,27.39,27.13,27.3c54.32-0.31,108.63-0.12,162.95-0.12
				C349.83,458.5,351.65,458.5,354.11,458.5z"/>
		</g>
		<g>
			<path class="st1" d="M448.92,389.46c-0.69-1.62-2.14-2.54-3.28-3.69c-15.4-15.45-30.89-30.81-46.24-46.31
				c-8.89-8.98-10.41-21.33-4.2-31.53c8.21-13.48,26.62-16.3,38.53-5.91c1,0.87,1.93,1.84,2.87,2.78
				c21.32,21.31,42.63,42.62,63.94,63.94c12.64,12.65,12.63,28.82,0,41.46c-21.54,21.56-43.07,43.12-64.65,64.64
				c-9.32,9.29-21.36,11.05-31.89,4.82c-13.78-8.15-16.66-26.82-5.98-38.76c1-1.12,2.08-2.15,3.14-3.21
				c14.83-14.84,29.68-29.67,44.49-44.53C446.8,392,448.26,391.09,448.92,389.46z"/>
		</g>
		<g>
			<path class="st0" d="M288.43,149.5c-22.14,0-44.29,0.09-66.43-0.03c-14.76-0.08-26.19-11.93-25.95-26.57
				c0.23-13.62,11.47-25.1,25.17-25.34c11.82-0.21,23.64-0.06,35.46-0.06c32.63,0,65.27-0.05,97.9,0.02
				c14.72,0.03,26.34,11.38,26.46,25.59c0.12,14.44-11.22,26.25-25.68,26.35C333.06,149.6,310.75,149.5,288.43,149.5z"/>
		</g>
	</g>
	<g>
		<path class="st0" d="M1.98,226.22c0-3.67,1.02-6.4,3.06-8.19c2.04-1.79,5.33-2.69,9.88-2.69c4.54,0,7.85,0.92,9.94,2.75
			c2.08,1.83,3.12,4.54,3.12,8.12c0,7.17-4.35,10.75-13.06,10.75C6.29,236.97,1.98,233.39,1.98,226.22z M27.04,314.66H2.61v-70.81
			h24.44V314.66z"/>
		<path class="st0" d="M127.86,314.66H99.29L81.48,286.1l-17.62,28.56H35.92l30.31-46.75l-28.5-44.62h27.37l16.5,28.25l15.88-28.25
			h28.19l-28.94,46.56L127.86,314.66z"/>
		<path class="st0" d="M138.11,223.28h31.88c12.42,0,21.63,1.84,27.66,5.53c6.02,3.69,9.03,9.43,9.03,17.22
			c0,5.12-1.31,9.5-3.94,13.12c-2.62,3.62-6.08,5.96-10.38,7v0.62c5.67,1.5,9.77,4,12.31,7.5c2.54,3.5,3.81,8.04,3.81,13.62
			c0,8.29-3.12,14.82-9.34,19.59c-6.23,4.77-14.72,7.16-25.47,7.16h-35.56V223.28z M162.79,258.35h7.44c3.54,0,6.28-0.73,8.22-2.19
			c1.94-1.46,2.91-3.62,2.91-6.5c0-5.12-3.88-7.69-11.62-7.69h-6.94V258.35z M162.79,276.41v19.19h8.69
			c7.71,0,11.56-3.25,11.56-9.75c0-3.04-1.03-5.38-3.09-7s-5.05-2.44-8.97-2.44H162.79z"/>
		<path class="st0" d="M249.04,281.41v33.25h-24.69v-91.37h29.94c24.83,0,37.25,9,37.25,27c0,10.58-5.17,18.77-15.5,24.56
			l26.62,39.81h-28l-19.38-33.25H249.04z M249.04,262.85h4.62c8.63,0,12.94-3.81,12.94-11.44c0-6.29-4.23-9.44-12.69-9.44h-4.88
			V262.85z"/>
		<path class="st0" d="M310.98,314.66v-91.37h24.69v71.44h35.19v19.94H310.98z"/>
	</g>
</g>
<g>
</g>
<g>
</g>
<g>
</g>
<g>
</g>
<g>
</g>
</svg>
