<?xml version="1.0" encoding="utf-8"?>
<!-- Generator: Adobe Illustrator 25.0.1, SVG Export Plug-In . SVG Version: 6.00 Build 0)  -->
<svg version="1.1" id="Layer_1" xmlns="http://www.w3.org/2000/svg" xmlns:xlink="http://www.w3.org/1999/xlink" x="0px" y="0px"
	 viewBox="0 0 512 512" style="enable-background:new 0 0 512 512;" xml:space="preserve">
<style type="text/css">
	.st0{fill:#3592C7;}
	.st1{fill:#3491C9;}
</style>
<g id="Task_Downloader">
	<path class="st0" d="M409.09,333.57c0.19,10.5,0.19,18.2,0.04,27.51v56.16H102.87v-56.16c-0.06-9.09-0.18-11.71-0.18-21.97
		c0-2.15,0.04-2.67-0.03-5.45c-18.46,0.07-36.33,0.13-54.78,0.19c0,0.97,0,0.03,0,0.99v108.63c0,15.86,12.9,28.76,28.76,28.76
		h358.74c15.86,0,28.76-12.9,28.76-28.76V334.84c0-0.82-0.04-0.64-0.11-1.44C445.56,333.44,427.56,333.55,409.09,333.57z"/>
	<path class="st1" d="M241.87,260.55h-54.05c-8.04,0-14.55-6.51-14.55-14.55V54.99c0-8.04,6.51-14.55,14.55-14.55h54.05
		c8.04,0,14.55,6.51,14.55,14.55v191.01C256.42,254.04,249.91,260.55,241.87,260.55z"/>
	<path class="st1" d="M203.6,367.4l-97.6-112.89c-6.8-7.87-1.21-20.1,9.19-20.1h200.84c10.42,0,16,12.25,9.18,20.11l-97.96,112.9
		C221.01,374.62,209.83,374.61,203.6,367.4z"/>
	<path class="st1" d="M446.04,73.74H330.72c-9.38,0-16.99-7.61-16.99-16.99v0c0-9.38,7.61-16.99,16.99-16.99h115.33
		c9.38,0,16.99,7.61,16.99,16.99v0C463.03,66.14,455.42,73.74,446.04,73.74z"/>
	<path class="st1" d="M446.04,205.84H330.72c-9.38,0-16.99-7.61-16.99-16.99v0c0-9.38,7.61-16.99,16.99-16.99h115.33
		c9.38,0,16.99,7.61,16.99,16.99v0C463.03,198.23,455.42,205.84,446.04,205.84z"/>
	<path class="st1" d="M446.04,139.79H330.72c-9.38,0-16.99-7.61-16.99-16.99v0c0-9.38,7.61-16.99,16.99-16.99h115.33
		c9.38,0,16.99,7.61,16.99,16.99v0C463.03,132.19,455.42,139.79,446.04,139.79z"/>
</g>
<g>
</g>
<g>
</g>
<g>
</g>
<g>
</g>
<g>
</g>
</svg>
