<?xml version="1.0" encoding="utf-8"?>
<!-- Generator: Adobe Illustrator 25.0.1, SVG Export Plug-In . SVG Version: 6.00 Build 0)  -->
<svg version="1.1" id="Layer_1" xmlns="http://www.w3.org/2000/svg" xmlns:xlink="http://www.w3.org/1999/xlink" x="0px" y="0px"
	 viewBox="0 0 512 512" style="enable-background:new 0 0 512 512;" xml:space="preserve">
<style type="text/css">
	.st0{fill:#3892C9;}
	.st1{fill:#3392CB;}
</style>
<g id="PSD_Resize">
	<g id="PSD_Editor_1_">
		<g id="PSD_Merger_1_">
			<g>
				<g>
					<rect x="105.11" y="105.14" class="st0" width="40" height="40"/>
				</g>
				<g>
					<path class="st0" d="M431.81,145.14h-40.96v-40h40.96V145.14z M360.14,145.14h-40.96v-40h40.96V145.14z M288.46,145.14H247.5
						v-40h40.96V145.14z M216.79,145.14h-40.96v-40h40.96V145.14z"/>
				</g>
				<g>
					<rect x="462.53" y="105.14" class="st0" width="40" height="40"/>
				</g>
				<g>
					<path class="st0" d="M502.53,431.84h-40v-40.96h40V431.84z M502.53,360.17h-40v-40.96h40V360.17z M502.53,288.49h-40v-40.96h40
						V288.49z M502.53,216.82h-40v-40.96h40V216.82z"/>
				</g>
				<g>
					<rect x="462.53" y="462.56" class="st0" width="40" height="40"/>
				</g>
				<g>
					<path class="st0" d="M431.81,502.56h-40.96v-40h40.96V502.56z M360.13,502.56h-40.96v-40h40.96V502.56z M288.46,502.56H247.5
						v-40h40.96V502.56z M216.78,502.56h-40.96v-40h40.96V502.56z"/>
				</g>
				<g>
					<rect x="105.11" y="462.56" class="st0" width="40" height="40"/>
				</g>
				<g>
					<path class="st0" d="M145.11,431.84h-40v-40.96h40V431.84z M145.11,360.17h-40v-40.96h40V360.17z M145.11,288.49h-40v-40.96h40
						V288.49z M145.11,216.82h-40v-40.96h40V216.82z"/>
				</g>
			</g>
		</g>
	</g>
	<g>
		<rect x="308.58" y="308.37" class="st0" width="194.27" height="194.27"/>
		<g>
			<g>
				
					<rect x="209" y="189.92" transform="matrix(0.7071 -0.7071 0.7071 0.7071 -89.179 216.6225)" class="st1" width="15.8" height="52.08"/>
				
					<rect x="169.79" y="202.38" transform="matrix(4.490281e-11 -1 1 4.490281e-11 -15.8345 400.9008)" class="st1" width="45.49" height="11.97"/>
				
					<rect x="186.84" y="185.33" transform="matrix(-1 -8.984603e-11 8.984603e-11 -1 419.1739 382.6278)" class="st1" width="45.49" height="11.97"/>
			</g>
			<g>
				
					<rect x="255.65" y="236.43" transform="matrix(-0.7071 0.7071 -0.7071 -0.7071 635.5009 261.7083)" class="st1" width="15.8" height="52.08"/>
				
					<rect x="265.17" y="264.08" transform="matrix(-8.980656e-11 1 -1 -8.980656e-11 557.9755 -17.8498)" class="st1" width="45.49" height="11.97"/>
				<rect x="248.11" y="281.13" class="st1" width="45.49" height="11.97"/>
			</g>
		</g>
	</g>
	<g>
		<rect x="9.14" y="19.1" class="st0" width="38" height="411.12"/>
		
			<rect x="200.31" y="-181.81" transform="matrix(-1.836970e-16 1 -1 -1.836970e-16 247.6636 -190.9575)" class="st0" width="38" height="420.33"/>
		
			<rect x="380.01" y="20.11" transform="matrix(-1.836970e-16 1 -1 -1.836970e-16 451.6274 -370.6586)" class="st0" width="62.26" height="40.74"/>
		<rect x="9.14" y="390.8" class="st0" width="62.17" height="41.01"/>
	</g>
</g>
<g>
</g>
<g>
</g>
<g>
</g>
<g>
</g>
<g>
</g>
</svg>
