<?xml version="1.0" encoding="utf-8"?>
<!-- Generator: Adobe Illustrator 25.0.1, SVG Export Plug-In . SVG Version: 6.00 Build 0)  -->
<svg version="1.1" id="Layer_1" xmlns="http://www.w3.org/2000/svg" xmlns:xlink="http://www.w3.org/1999/xlink" x="0px" y="0px"
	 viewBox="0 0 512 512" style="enable-background:new 0 0 512 512;" xml:space="preserve">
<style type="text/css">
	.st0{opacity:0.75;}
	.st1{fill:#3690C8;}
	.st2{opacity:0.85;}
	.st3{fill:#FFFFFF;}
</style>
<g id="BMI_Calculator3">
	<g>
		<g>
			<g class="st0">
				<g>
					<path class="st1" d="M172.7,208.6c-2.9,2.6-7.3,2.3-9.8-0.7c-17.3-21.3-26.7-47.8-26.7-75.4c0-31.4,12-61,33.9-83.5l14.4,14
						c-18.2,18.7-28.2,43.4-28.2,69.5c0,23,7.9,45.2,22.3,62.9c2.1,2.5,1.8,6.3-0.7,8.5L172.7,208.6z"/>
				</g>
			</g>
			<g class="st2">
				<path class="st1" d="M329.7,65.3C310.8,44.6,284,32.8,256,32.8c-27.2,0-52.6,10.7-71.5,30.2l-14.4-14
					c22.7-23.4,53.2-36.3,85.9-36.3c33.6,0,65.8,14.2,88.5,39.1L329.7,65.3z"/>
			</g>
			<g>
				<g>
					<path class="st1" d="M334.9,213.8l-5.1-5.3c-2.3-2.4-2.4-6.2-0.1-8.7c16.9-18.4,26.1-42.1,26.1-67.3c0-24.9-9.2-48.8-26-67.2
						l14.8-13.5c20.2,22.1,31.3,50.8,31.3,80.7c0,30.4-11.2,59-31.7,81.1C341.6,216.3,337.4,216.4,334.9,213.8z"/>
				</g>
			</g>
		</g>
		<g>
			<path class="st1" d="M294.3,160.9c9.7,9.7,9.6,25.3,0,35c-9.6,9.6-25.3,9.7-35,0c-1.1-1.1-2.1-2.4-3-3.5c-0.5-0.6-0.8-1-1.4-1.8
				l-42.8-63c-2.7-4-2.2-9.4,1.2-12.8c1.6-1.6,3.6-2.5,5.7-2.7c2.1-0.2,4.2,0.3,6.1,1.6l61.9,41.9
				C288.3,156.4,292.4,159,294.3,160.9z"/>
		</g>
	</g>
	<g>
		<g>
			<path class="st1" d="M425.9,72.9L370.1,65c11.8,19.8,18.6,43,18.6,67.7c0,73.3-59.4,132.6-132.6,132.6s-132.6-59.4-132.6-132.6
				c0-24.7,6.8-47.9,18.6-67.7l-55.9,7.9C47.3,78.7,38.7,92.1,41,118l30,336.2c1.9,25.4,20.2,45.1,45.1,45.1H396
				c24.9,0,42.3-19.3,45.1-45.1L471,118C473.6,93.1,460.3,77.7,425.9,72.9z"/>
		</g>
		<g>
			<g>
				<path class="st3" d="M232.9,350.8H105.6c-3.4,0-6.1-2.7-6.1-6.1v-38.6c0-3.4,2.7-6.1,6.1-6.1h127.3c3.4,0,6.1,2.7,6.1,6.1v38.6
					C239,348.1,236.2,350.8,232.9,350.8z"/>
			</g>
			<g>
				<path class="st3" d="M406.5,350.8H279c-3.3,0-6-2.7-6-6V306c0-3.3,2.7-6,6-6h127.6c3.3,0,6,2.7,6,6v38.9
					C412.5,348.1,409.8,350.8,406.5,350.8z"/>
			</g>
			<g>
				<path class="st3" d="M406.3,439.3H279.2c-3.4,0-6.2-2.8-6.2-6.2v-38.4c0-3.4,2.8-6.2,6.2-6.2h127.1c3.4,0,6.2,2.8,6.2,6.2v38.4
					C412.5,436.5,409.7,439.3,406.3,439.3z"/>
			</g>
			<g>
				<path class="st3" d="M232.8,439.3H105.7c-3.4,0-6.2-2.8-6.2-6.2v-38.4c0-3.4,2.8-6.2,6.2-6.2h127.1c3.4,0,6.2,2.8,6.2,6.2v38.4
					C239,436.5,236.2,439.3,232.8,439.3z"/>
			</g>
		</g>
	</g>
</g>
</svg>
