<?xml version="1.0" encoding="utf-8"?>
<!-- Generator: Adobe Illustrator 25.0.1, SVG Export Plug-In . SVG Version: 6.00 Build 0)  -->
<svg version="1.1" id="Layer_1" xmlns="http://www.w3.org/2000/svg" xmlns:xlink="http://www.w3.org/1999/xlink" x="0px" y="0px"
	 viewBox="0 0 512 512" style="enable-background:new 0 0 512 512;" xml:space="preserve">
<style type="text/css">
	.st0{fill:#3892C9;}
	.st1{fill:#FFFFFF;}
</style>
<g id="Template_Editor">
	<g>
		<g>
			<rect x="437.19" y="16.4" class="st0" width="38" height="474.44"/>
		</g>
		<g>
			<rect x="36.61" y="471.83" class="st0" width="438.58" height="38"/>
		</g>
		<g>
			<rect x="35.81" y="16.4" class="st0" width="38" height="97.27"/>
		</g>
		<g>
			<rect x="35.81" y="2.17" class="st0" width="439.38" height="38"/>
		</g>
		<g>
			<rect x="36.61" y="186.33" class="st0" width="38" height="317.8"/>
		</g>
	</g>
	<g>
		<g>
			<polygon class="st0" points="404.4,383.09 390.8,383.09 390.8,376.72 398.04,376.72 398.04,369.49 404.4,369.49 			"/>
		</g>
		<g>
			<path class="st0" d="M380.08,383.09h-21.77v-6.37h21.77V383.09z M347.59,383.09h-21.77v-6.37h21.77V383.09z M315.11,383.09
				h-21.77v-6.37h21.77V383.09z M282.62,383.09h-21.76v-6.37h21.76V383.09z M250.14,383.09h-21.77v-6.37h21.77V383.09z
				 M217.66,383.09h-21.77v-6.37h21.77V383.09z M185.17,383.09h-21.77v-6.37h21.77V383.09z M152.69,383.09h-21.77v-6.37h21.77
				V383.09z"/>
		</g>
		<g>
			<polygon class="st0" points="120.2,383.09 106.6,383.09 106.6,369.49 112.96,369.49 112.96,376.72 120.2,376.72 			"/>
		</g>
		<g>
			<path class="st0" d="M112.96,358.28h-6.37v-22.76h6.37V358.28z M112.96,324.3h-6.37v-22.76h6.37V324.3z"/>
		</g>
		<g>
			<polygon class="st0" points="112.96,290.33 106.6,290.33 106.6,276.72 120.2,276.72 120.2,283.09 112.96,283.09 			"/>
		</g>
		<g>
			<path class="st0" d="M380.08,283.09h-21.77v-6.37h21.77V283.09z M347.59,283.09h-21.77v-6.37h21.77V283.09z M315.11,283.09
				h-21.77v-6.37h21.77V283.09z M282.62,283.09h-21.76v-6.37h21.76V283.09z M250.14,283.09h-21.77v-6.37h21.77V283.09z
				 M217.66,283.09h-21.77v-6.37h21.77V283.09z M185.17,283.09h-21.77v-6.37h21.77V283.09z M152.69,283.09h-21.77v-6.37h21.77
				V283.09z"/>
		</g>
		<g>
			<polygon class="st0" points="404.4,290.33 398.04,290.33 398.04,283.09 390.8,283.09 390.8,276.72 404.4,276.72 			"/>
		</g>
		<g>
			<path class="st0" d="M404.4,358.28h-6.37v-22.76h6.37V358.28z M404.4,324.3h-6.37v-22.76h6.37V324.3z"/>
		</g>
	</g>
	<g>
		<g>
			<polygon class="st0" points="404.4,181.09 390.8,181.09 390.8,174.72 398.04,174.72 398.04,167.49 404.4,167.49 			"/>
		</g>
		<g>
			<path class="st0" d="M380.08,181.09h-21.77v-6.37h21.77V181.09z M347.59,181.09h-21.77v-6.37h21.77V181.09z M315.11,181.09
				h-21.77v-6.37h21.77V181.09z M282.62,181.09h-21.76v-6.37h21.76V181.09z M250.14,181.09h-21.77v-6.37h21.77V181.09z
				 M217.66,181.09h-21.77v-6.37h21.77V181.09z M185.17,181.09h-21.77v-6.37h21.77V181.09z M152.69,181.09h-21.77v-6.37h21.77
				V181.09z"/>
		</g>
		<g>
			<polygon class="st0" points="120.2,181.09 106.6,181.09 106.6,167.49 112.96,167.49 112.96,174.72 120.2,174.72 			"/>
		</g>
		<g>
			<path class="st0" d="M112.96,156.28h-6.37v-22.76h6.37V156.28z M112.96,122.3h-6.37V99.54h6.37V122.3z"/>
		</g>
		<g>
			<polygon class="st0" points="112.96,88.33 106.6,88.33 106.6,74.72 120.2,74.72 120.2,81.09 112.96,81.09 			"/>
		</g>
		<g>
			<path class="st0" d="M380.08,81.09h-21.77v-6.37h21.77V81.09z M347.59,81.09h-21.77v-6.37h21.77V81.09z M315.11,81.09h-21.77
				v-6.37h21.77V81.09z M282.62,81.09h-21.76v-6.37h21.76V81.09z M250.14,81.09h-21.77v-6.37h21.77V81.09z M217.66,81.09h-21.77
				v-6.37h21.77V81.09z M185.17,81.09h-21.77v-6.37h21.77V81.09z M152.69,81.09h-21.77v-6.37h21.77V81.09z"/>
		</g>
		<g>
			<polygon class="st0" points="404.4,88.33 398.04,88.33 398.04,81.09 390.8,81.09 390.8,74.72 404.4,74.72 			"/>
		</g>
		<g>
			<path class="st0" d="M404.4,156.28h-6.37v-22.76h6.37V156.28z M404.4,122.3h-6.37V99.54h6.37V122.3z"/>
		</g>
	</g>
	<g>
		<g>
			<rect x="219.99" y="326.42" class="st1" width="280" height="100"/>
			<path class="st0" d="M509.99,436.42h-300v-120h300V436.42z M229.99,416.42h260v-80h-260V416.42z"/>
		</g>
		<g>
			<rect x="260.97" y="355.78" class="st0" width="194.23" height="12.36"/>
		</g>
		<g>
			<rect x="260.97" y="386.87" class="st0" width="38.45" height="12.36"/>
		</g>
		<g>
			<rect x="323.08" y="386.87" class="st0" width="132.11" height="12.36"/>
		</g>
	</g>
	<g>
		<g>
			<rect x="12.01" y="122.72" class="st1" width="280" height="100"/>
			<path class="st0" d="M302.01,232.72h-300v-120h300V232.72z M22.01,212.72h260v-80h-260V212.72z"/>
		</g>
		<g>
			<rect x="53.51" y="153.02" class="st0" width="65.8" height="10"/>
		</g>
		<g>
			<rect x="53.51" y="183.21" class="st0" width="65.8" height="10"/>
		</g>
		<g>
			<rect x="142.44" y="153.02" class="st0" width="105.3" height="40.19"/>
		</g>
	</g>
</g>
<g>
</g>
<g>
</g>
<g>
</g>
<g>
</g>
<g>
</g>
</svg>
