<?xml version="1.0" encoding="utf-8"?>
<!-- Generator: Adobe Illustrator 25.0.1, SVG Export Plug-In . SVG Version: 6.00 Build 0)  -->
<svg version="1.1" id="Layer_1" xmlns="http://www.w3.org/2000/svg" xmlns:xlink="http://www.w3.org/1999/xlink" x="0px" y="0px"
	 viewBox="0 0 512 512" style="enable-background:new 0 0 512 512;" xml:space="preserve">
<style type="text/css">
	.st0{fill:#3592C7;}
</style>
<g id="EMF">
	<g id="Base_1_">
		<g>
			<g>
				<path class="st0" d="M438.52,336.96v96.54c0,13.81-11.19,25-25,25h-210c-13.81,0-25-11.19-25-25v-355c0-13.81,11.19-25,25-25
					h210c13.81,0,25,11.19,25,25v51.26l51.72-34.66l0.28-0.33V78.5c0-42.46-34.54-77-77-77h-210c-42.46,0-77,34.54-77,77v355
					c0,42.46,34.54,77,77,77h210c42.46,0,77-34.54,77-77V310.21c0,0-20,12.54-26.94,16.22
					C456.46,330.21,438.52,336.96,438.52,336.96z"/>
			</g>
			<g>
				<path class="st0" d="M309.32,146.05c-24.5,0-48.99,0.09-73.49-0.04c-12.81-0.07-23.2-9.17-25.49-21.85
					c-2.11-11.72,4.96-23.89,16.49-28.35c3.14-1.21,6.38-1.77,9.76-1.77c48.66,0.02,97.32-0.03,145.98,0.04
					c14.99,0.02,26.53,11.53,26.5,26.11c-0.03,14.5-11.66,25.81-26.76,25.85C357.98,146.09,333.65,146.05,309.32,146.05z"/>
			</g>
		</g>
		<g>
			<g>
				<path class="st0" d="M118.24,50.98c-4.08,14.67-4.94,29.63-3.62,44.51c-3.39,0.43-5.1,0.48-7.56,0.5
					c-11.17,0.06-22.33,0.01-33.5,0.03c-16.19,0.04-26.5,10.3-26.53,26.59c-0.06,37.83-0.02,75.66-0.02,113.49
					c0,50.5,0.33,101-0.19,151.49c-0.17,16.99,11.41,29.28,28.51,28.51c11.48-0.51,22.99-0.12,34.49-0.08
					c1.62,0.01,2.56,0,5.26,0.15c-1.9,14.65-1.11,29.82,2.25,44.83c-12.47,0-24.44-0.01-36.42,0c-8.16,0.01-16.28,0.02-24.34-1.82
					c-31.52-7.18-54.41-34.89-54.48-67.25C1.92,301.3,1.89,210.63,2.12,119.97c0.1-38.05,31.28-68.7,69.3-68.94
					c14.17-0.09,28.33-0.02,42.5-0.01C115.23,51.02,116.47,50.96,118.24,50.98z"/>
			</g>
			<g>
				<path class="st0" d="M113.84,247.94c-9.96,0-19.77,0.65-29.45-0.17c-11.15-0.95-18.06-10.82-17.26-22.89
					c0.69-10.47,9.02-18.54,19.66-18.75c8.47-0.17,16.95-0.03,25.42-0.01c0.46,0,0.97,0,1.63,0
					C113.84,219.86,113.84,233.91,113.84,247.94z"/>
			</g>
			<g>
				<path class="st0" d="M113.82,168.9c-9.96,0-19.77,0.65-29.45-0.17c-11.15-0.95-18.06-10.82-17.26-22.89
					c0.69-10.47,9.02-18.54,19.66-18.75c8.47-0.17,16.95-0.03,25.42-0.01c0.46,0,0.97,0,1.63,0
					C113.82,140.82,113.82,154.87,113.82,168.9z"/>
			</g>
			<g>
				<path class="st0" d="M113.87,285.06c0,14.31,0,27.88,0,41.85c-9.95,0-19.75,0.64-29.43-0.17
					c-11.16-0.93-18.09-10.75-17.33-22.83c0.66-10.47,8.97-18.6,19.59-18.82C95.63,284.91,104.57,285.06,113.87,285.06z"/>
			</g>
		</g>
	</g>
	<g>
		<g>
			<path class="st0" d="M490.06,256.19c-5.32,3.06-10.63,6.12-16.08,9.26c-16.83-27.06-40.68-43.42-72.22-47.77
				c-23.82-3.29-46.06,1.8-66.2,14.85c-43.58,28.22-57.92,85.45-32.17,131.19c-5.36,3.09-10.73,6.18-16.11,9.28
				c-0.52-0.9-1.04-1.8-1.56-2.7c0.26-1.45-0.88-2.32-1.44-3.43c-0.52-0.9-1.03-1.79-1.55-2.69c-2.11-4.37-3.81-8.9-5.32-13.51
				c-15.74-48.2,2.73-102.96,44.31-131.41c0.6-0.34,1.2-0.68,1.8-1.02c1.36-0.82,2.99-1.26,3.86-2.76c2.1-1.21,4.21-2.42,6.31-3.63
				c1.45,0.25,2.32-0.88,3.43-1.44c0.89-0.51,1.79-1.03,2.68-1.54c51.11-23.79,112.53-7.51,144.92,38.97
				c0.43,0.75,0.85,1.5,1.28,2.25c0.77,1.19,1.02,2.75,2.5,3.42C489.02,254.39,489.54,255.29,490.06,256.19z"/>
		</g>
		<g id="Rectangle_1_2_">
			
				<rect x="201.88" y="212.21" transform="matrix(0.8665 -0.4991 0.4991 0.8665 -65.9486 196.5235)" class="st0" width="265.22" height="18.72"/>
		</g>
		<g id="Ellipse_2_copy_2">
			<circle class="st0" cx="333.45" cy="219.77" r="31.2"/>
		</g>
		<path class="st0" d="M358.09,249.7l6.23,22.6c0.15,0,0.31,0.01,0.46,0.05c0.96,0.25,1.54,1.23,1.29,2.19
			c-0.25,0.96-1.23,1.54-2.19,1.29c-0.96-0.25-1.54-1.23-1.29-2.19c0.12-0.48,0.43-0.86,0.83-1.09l-6.27-22.73
			c-5.5,21.5-11.11,42.97-16.85,64.41c10.03-5.84,29.42-17.39,29.42-17.39s22.33-0.16,35.62-0.45
			C389.5,280.91,373.75,265.35,358.09,249.7z"/>
		<g id="Rectangle_5">
			
				<rect x="275.63" y="349.32" transform="matrix(0.8665 -0.4991 0.4991 0.8665 -145.1727 197.3524)" class="st0" width="41.6" height="41.6"/>
		</g>
		<g id="Rectangle_5_copy">
			
				<rect x="460.84" y="242.65" transform="matrix(0.8665 -0.4991 0.4991 0.8665 -67.2093 275.5545)" class="st0" width="41.6" height="41.6"/>
		</g>
	</g>
</g>
<g>
</g>
<g>
</g>
<g>
</g>
<g>
</g>
<g>
</g>
</svg>
