<?xml version="1.0" encoding="utf-8"?>
<!-- Generator: Adobe Illustrator 25.0.1, SVG Export Plug-In . SVG Version: 6.00 Build 0)  -->
<svg version="1.1" id="Aspose.Imaging" xmlns="http://www.w3.org/2000/svg" xmlns:xlink="http://www.w3.org/1999/xlink" x="0px"
	 y="0px" viewBox="0 0 512 512" style="enable-background:new 0 0 512 512;" xml:space="preserve">
<style type="text/css">
	.st0{fill:#3593CB;}
	.st1{fill:#3A8FC6;}
</style>
<g id="Image_Editor">
	<g>
		<g>
			<path class="st0" d="M406.1,350.7v36.7c0,6-4.5,10.9-10,10.9H40.5c-5.5,0-10-4.9-10-10.9V123.6c0-6,4.5-10.9,10-10.9h355.6
				c5.5,0,10,4.9,10,10.9v51.4c0.3,0,0.7,0,1,0c9.9,0,19.5,1.5,28.5,4.4v-55.7c0-23.7-17.7-42.9-39.5-42.9H40.5
				C18.7,80.7,1,99.9,1,123.6v263.9c0,23.7,17.7,42.9,39.5,42.9h355.6c21.8,0,39.5-19.2,39.5-42.9v-36c-9,2.8-18.6-0.7-28.5-0.7
				C406.7,350.7,406.4,350.7,406.1,350.7z"/>
		</g>
	</g>
	<g>
		<g>
			<path class="st0" d="M256.1,247.2l132.4,153.5c5.9,6.2,1.5,16.4-7,16.4H129.7c-8.5,0-12.9-10.2-7-16.4L256.1,247.2z"/>
		</g>
		<g>
			<circle class="st0" cx="212.5" cy="181.2" r="27.5"/>
		</g>
		<g>
			<path class="st0" d="M136.1,206.2l123.5,179c6.8,8.9,0.4,21.8-10.8,21.8H23.5c-11.2,0-17.6-12.8-10.8-21.8L136.1,206.2z"/>
		</g>
	</g>
	<g>
		<g>
			<path class="st0" d="M416,355.3c-52.4,0-95.1-42.6-95.1-95.1c0-52.4,42.6-95.1,95.1-95.1c52.4,0,95.1,42.6,95.1,95.1
				C511.1,312.7,468.5,355.3,416,355.3z M416,185.2c-41.4,0-75.1,33.7-75.1,75.1c0,41.4,33.7,75.1,75.1,75.1
				c41.4,0,75.1-33.7,75.1-75.1C491.1,218.8,457.4,185.2,416,185.2z"/>
		</g>
		<g>
			<path class="st1" d="M380.7,277.6l-4.6,4.6c-0.1,0.1-0.2,0.3-0.3,0.5l-6.5,22.8c-0.2,0.9,0.5,1.7,1.4,1.4l23-6.4
				c0.2-0.1,0.4-0.2,0.5-0.3l4.6-4.6c0.5-0.4,0.5-1.2,0-1.6l-16.5-16.4C381.9,277.1,381.1,277.1,380.7,277.6z"/>
			<path class="st1" d="M439.3,232.9l-7-7l-45.9,45.8c-0.5,0.5-0.5,1.2,0,1.7l6.2,6.2L439.3,232.9z"/>
			<path class="st1" d="M441.1,217.1l-4.7,4.7l18.1,18.1l4.7-4.7c5-5,5-13.1,0-18.1C454.2,212.1,446.1,212.1,441.1,217.1z"/>
			<path class="st1" d="M443.4,237l-46.7,46.7l6,6c0.5,0.5,1.3,0.5,1.8,0l45.8-45.7L443.4,237z"/>
		</g>
	</g>
</g>
</svg>
