<?xml version="1.0" encoding="utf-8"?>
<!-- Generator: Adobe Illustrator 25.0.1, SVG Export Plug-In . SVG Version: 6.00 Build 0)  -->
<svg version="1.1" id="Layer_1" xmlns="http://www.w3.org/2000/svg" xmlns:xlink="http://www.w3.org/1999/xlink" x="0px" y="0px"
	 viewBox="0 0 512 512" style="enable-background:new 0 0 512 512;" xml:space="preserve">
<style type="text/css">
	.st0{fill:#3A8FC6;}
	.st1{fill:#3A90C7;}
</style>
<g>
	<g>
		<polygon class="st0" points="3.18,58.62 3.18,88.78 3.18,130.1 33.34,130.1 33.34,88.78 74.65,88.78 74.65,58.62 33.34,58.62 		
			"/>
	</g>
	<g>
		<polygon class="st0" points="479.84,58.62 438.52,58.62 438.52,88.78 479.84,88.78 479.84,130.1 510,130.1 510,88.78 510,58.62 		
			"/>
	</g>
	<g>
		<polygon class="st0" points="2,453.38 2,423.22 2,381.91 32.16,381.91 32.16,423.22 73.47,423.22 73.47,453.38 32.16,453.38 		"/>
	</g>
	<g>
		<polygon class="st0" points="479.84,453.38 438.52,453.38 438.52,423.22 479.84,423.22 479.84,381.91 510,381.91 510,423.22 
			510,453.38 		"/>
	</g>
	<g>
		<rect x="3.18" y="242.45" class="st0" width="506.82" height="27.11"/>
	</g>
	<g>
		<path class="st1" d="M161.08,139.65c-19.17,0-34.77-16.55-34.77-36.89c0-20.34,15.6-36.9,34.77-36.9
			c19.17,0,34.77,16.55,34.77,36.9C195.85,123.1,180.25,139.65,161.08,139.65z M161.08,75.87c-13.65,0-24.76,12.06-24.76,26.89
			c0,14.83,11.11,26.89,24.76,26.89c13.66,0,24.77-12.06,24.77-26.89C185.85,87.93,174.74,75.87,161.08,75.87z"/>
	</g>
	<g>
		<path class="st0" d="M290.29,103.18c0,19.96-15.1,36.14-33.73,36.14c-18.63,0-33.74-16.18-33.74-36.14
			c0-19.96,15.1-36.14,33.74-36.14C275.18,67.03,290.29,83.21,290.29,103.18z"/>
	</g>
	<g>
		<polygon class="st0" points="2,58.62 2,88.78 2,130.1 32.16,130.1 32.16,88.78 73.47,88.78 73.47,58.62 32.16,58.62 		"/>
	</g>
	<g>
		<polygon class="st0" points="479.84,58.62 438.52,58.62 438.52,88.78 479.84,88.78 479.84,130.1 510,130.1 510,88.78 510,58.62 		
			"/>
	</g>
	<g>
		<polygon class="st0" points="2,453.38 2,423.22 2,381.91 32.16,381.91 32.16,423.22 73.47,423.22 73.47,453.38 32.16,453.38 		"/>
	</g>
	<g>
		<polygon class="st0" points="479.84,453.38 438.52,453.38 438.52,423.22 479.84,423.22 479.84,381.91 510,381.91 510,423.22 
			510,453.38 		"/>
	</g>
	<g>
		<rect x="2" y="242.45" class="st0" width="506.82" height="27.11"/>
	</g>
	<g>
		<path class="st1" d="M349.6,139.65c-19.17,0-34.76-16.55-34.76-36.89c0-20.34,15.59-36.9,34.76-36.9
			c19.17,0,34.77,16.55,34.77,36.9C384.37,123.1,368.77,139.65,349.6,139.65z M349.6,75.87c-13.65,0-24.76,12.06-24.76,26.89
			c0,14.83,11.11,26.89,24.76,26.89c13.66,0,24.77-12.06,24.77-26.89C374.36,87.93,363.25,75.87,349.6,75.87z"/>
	</g>
	<g>
		<path class="st0" d="M194.05,190.49c0,19.96-15.1,36.14-33.73,36.14c-18.63,0-33.74-16.18-33.74-36.14
			c0-19.96,15.1-36.14,33.74-36.14C178.94,154.35,194.05,170.53,194.05,190.49z"/>
	</g>
	<g>
		<path class="st1" d="M349.6,227.95c-19.17,0-34.76-16.55-34.76-36.89c0-20.34,15.59-36.9,34.76-36.9
			c19.17,0,34.77,16.55,34.77,36.9C384.37,211.4,368.77,227.95,349.6,227.95z M349.6,164.17c-13.65,0-24.76,12.06-24.76,26.89
			c0,14.83,11.11,26.89,24.76,26.89c13.66,0,24.77-12.06,24.77-26.89C374.36,176.23,363.25,164.17,349.6,164.17z"/>
	</g>
	<g>
		<path class="st1" d="M257.32,226.96c-19.17,0-34.77-16.55-34.77-36.89c0-20.34,15.6-36.9,34.77-36.9
			c19.17,0,34.77,16.55,34.77,36.9C292.09,210.41,276.5,226.96,257.32,226.96z M257.32,163.18c-13.65,0-24.76,12.06-24.76,26.89
			c0,14.83,11.11,26.89,24.76,26.89c13.66,0,24.77-12.06,24.77-26.89C282.09,175.24,270.98,163.18,257.32,163.18z"/>
	</g>
	<g>
		<path class="st1" d="M161.08,360.91c-19.17,0-34.77-16.55-34.77-36.89c0-20.34,15.6-36.89,34.77-36.89
			c19.17,0,34.77,16.55,34.77,36.89C195.85,344.36,180.25,360.91,161.08,360.91z M161.08,297.12c-13.65,0-24.76,12.06-24.76,26.89
			c0,14.83,11.11,26.89,24.76,26.89c13.66,0,24.77-12.06,24.77-26.89C185.85,309.19,174.74,297.12,161.08,297.12z"/>
	</g>
	<g>
		<path class="st1" d="M257.32,360.91c-19.17,0-34.76-16.55-34.76-36.89c0-20.34,15.59-36.89,34.76-36.89
			c19.17,0,34.77,16.55,34.77,36.89C292.09,344.36,276.49,360.91,257.32,360.91z M257.32,297.12c-13.65,0-24.76,12.06-24.76,26.89
			c0,14.83,11.11,26.89,24.76,26.89c13.66,0,24.77-12.06,24.77-26.89C282.09,309.19,270.98,297.12,257.32,297.12z"/>
	</g>
	<g>
		<path class="st1" d="M349.6,448.22c-19.17,0-34.76-16.55-34.76-36.89c0-20.34,15.59-36.89,34.76-36.89
			c19.17,0,34.77,16.55,34.77,36.89C384.37,431.67,368.77,448.22,349.6,448.22z M349.6,384.44c-13.65,0-24.76,12.06-24.76,26.89
			c0,14.83,11.11,26.89,24.76,26.89c13.66,0,24.77-12.06,24.77-26.89C374.36,396.5,363.25,384.44,349.6,384.44z"/>
	</g>
	<g>
		<path class="st1" d="M257.32,448.22c-19.17,0-34.77-16.55-34.77-36.89c0-20.34,15.6-36.89,34.77-36.89
			c19.17,0,34.77,16.55,34.77,36.89C292.09,431.67,276.5,448.22,257.32,448.22z M257.32,384.44c-13.65,0-24.76,12.06-24.76,26.89
			c0,14.83,11.11,26.89,24.76,26.89c13.66,0,24.77-12.06,24.77-26.89C282.09,396.5,270.98,384.44,257.32,384.44z"/>
	</g>
	<g>
		<path class="st0" d="M383.55,324.43c0,19.96-15.1,36.14-33.73,36.14c-18.63,0-33.74-16.18-33.74-36.14
			c0-19.96,15.1-36.14,33.74-36.14C368.45,288.29,383.55,304.47,383.55,324.43z"/>
	</g>
	<g>
		<path class="st1" d="M161.08,448.22c-19.17,0-34.77-16.55-34.77-36.89c0-20.34,15.6-36.89,34.77-36.89
			c19.17,0,34.77,16.55,34.77,36.89C195.85,431.67,180.25,448.22,161.08,448.22z M161.08,384.44c-13.65,0-24.76,12.06-24.76,26.89
			c0,14.83,11.11,26.89,24.76,26.89c13.66,0,24.77-12.06,24.77-26.89C185.85,396.5,174.74,384.44,161.08,384.44z"/>
	</g>
</g>
<g>
</g>
<g>
</g>
<g>
</g>
<g>
</g>
<g>
</g>
</svg>
