<?xml version="1.0" encoding="utf-8"?>
<!-- Generator: Adobe Illustrator 25.0.1, SVG Export Plug-In . SVG Version: 6.00 Build 0)  -->
<svg version="1.1" id="Layer_1" xmlns="http://www.w3.org/2000/svg" xmlns:xlink="http://www.w3.org/1999/xlink" x="0px" y="0px"
	 viewBox="0 0 512 512" style="enable-background:new 0 0 512 512;" xml:space="preserve">
<style type="text/css">
	.st0{fill:#3892C9;}
	.st1{fill:#FFFFFF;}
	.st2{fill:#3392CB;}
</style>
<g id="Remove_Macros">
	<g id="Remove-5">
		<g id="Rounded_Rectangle_1_copy_5_">
			<g>
				<g>
					<path class="st0" d="M365.22,431.3H146.78c-39.3,0-71.28-27.69-71.28-61.73V63.46c0-34.04,31.98-61.73,71.28-61.73h218.44
						c39.3,0,71.28,27.69,71.28,61.73v306.11c0,27.66-20.52,51.46-51.07,59.23C378.89,430.46,372.09,431.3,365.22,431.3z
						 M146.78,37.73c-19.12,0-35.28,11.78-35.28,25.73v306.11c0,13.95,16.16,25.73,35.28,25.73h218.44c3.88,0,7.7-0.47,11.35-1.4
						c14.09-3.58,23.93-13.59,23.93-24.33V63.46c0-13.95-16.16-25.73-35.28-25.73H146.78z"/>
				</g>
			</g>
		</g>
		<g>
			<g>
				<g>
					<g>
						<circle class="st1" cx="258" cy="412.27" r="83"/>
					</g>
					<g>
						<path class="st0" d="M258,510.27c-54.04,0-98-43.96-98-98s43.96-98,98-98c54.04,0,98,43.96,98,98S312.04,510.27,258,510.27z
							 M258,344.27c-37.5,0-68,30.5-68,68s30.5,68,68,68s68-30.5,68-68S295.5,344.27,258,344.27z"/>
					</g>
				</g>
				<g id="Remove_Sign_1_">
					<g>
						<g>
							<path class="st0" d="M296.77,379.91l-5.38-5.38c-2.97-2.97-7.79-2.97-10.76,0l-61.41,61.41c-2.97,2.97-2.97,7.79,0,10.76
								l5.38,5.38c2.97,2.97,7.79,2.97,10.76,0l61.41-61.41C299.74,387.7,299.74,382.88,296.77,379.91z"/>
						</g>
					</g>
					<g>
						<g>
							<path class="st0" d="M291.39,451.96l5.38-5.38c2.97-2.97,2.97-7.79,0-10.76l-61.41-61.41c-2.97-2.97-7.79-2.97-10.76,0
								l-5.38,5.38c-2.97,2.97-2.97,7.79,0,10.76l61.41,61.41C283.61,454.93,288.42,454.93,291.39,451.96z"/>
						</g>
					</g>
				</g>
			</g>
		</g>
	</g>
	<g>
		<g>
			<path class="st2" d="M174.65,239.94c0,6.64,1.9,11.46,5.71,14.45c3.81,2.99,9.39,4.56,16.75,4.69v13.67
				c-12.37-0.13-21.94-2.96-28.71-8.5c-6.77-5.53-10.16-13.31-10.16-23.34v-29.59c0-6.77-2.05-11.6-6.15-14.5
				c-4.1-2.9-10.06-4.35-17.87-4.35v-13.77c8.46-0.13,14.58-1.69,18.36-4.69c3.77-2.99,5.66-7.62,5.66-13.87v-29.88
				c0-10.09,3.52-17.94,10.55-23.54c7.03-5.6,16.47-8.4,28.32-8.4v13.57c-14.98,0.39-22.46,6.87-22.46,19.43v28.81
				c0,14-7.26,22.27-21.78,24.8v1.17c14.52,2.54,21.78,10.81,21.78,24.8V239.94z"/>
			<path class="st2" d="M358.93,184.96c-14.52-2.54-21.78-10.81-21.78-24.8v-28.81c0-12.56-7.39-19.04-22.17-19.43V98.34
				c11.98,0,21.4,2.83,28.27,8.5c6.87,5.66,10.3,13.48,10.3,23.44v29.88c0,6.32,1.92,10.95,5.76,13.92
				c3.84,2.96,9.99,4.51,18.46,4.64v13.77c-7.94,0-13.96,1.45-18.07,4.35c-4.1,2.9-6.15,7.73-6.15,14.5v29.59
				c0,9.96-3.34,17.72-10.01,23.29c-6.67,5.57-16.2,8.41-28.56,8.54v-13.67c7.23-0.13,12.73-1.69,16.5-4.69
				c3.78-3,5.66-7.81,5.66-14.45v-29c0-7.42,1.79-13.09,5.37-16.99c3.58-3.91,9.05-6.51,16.41-7.81V184.96z"/>
		</g>
		<g>
			<g>
				<path class="st2" d="M250.96,241.58h-37.86c-5.52,0-10-4.48-10-10l0,0c0-5.52,4.48-10,10-10h37.86c5.52,0,10,4.48,10,10l0,0
					C260.96,237.1,256.48,241.58,250.96,241.58z"/>
			</g>
			<g>
				<path class="st2" d="M308.72,156.92h-59.35c-5.52,0-10-4.48-10-10v0c0-5.52,4.48-10,10-10h59.35c5.52,0,10,4.48,10,10v0
					C318.72,152.45,314.25,156.92,308.72,156.92z"/>
			</g>
			<g>
				<path class="st2" d="M217.06,156.92h-14.69c-5.52,0-10-4.48-10-10v0c0-5.52,4.48-10,10-10h14.69c5.52,0,10,4.48,10,10v0
					C227.06,152.45,222.58,156.92,217.06,156.92z"/>
			</g>
			<g>
				<path class="st2" d="M217.06,199.25h-14.69c-5.52,0-10-4.48-10-10l0,0c0-5.52,4.48-10,10-10h14.69c5.52,0,10,4.48,10,10l0,0
					C227.06,194.77,222.58,199.25,217.06,199.25z"/>
			</g>
			<g>
				<path class="st2" d="M264.06,199.25h-14.69c-5.52,0-10-4.48-10-10l0,0c0-5.52,4.48-10,10-10h14.69c5.52,0,10,4.48,10,10l0,0
					C274.06,194.77,269.58,199.25,264.06,199.25z"/>
			</g>
			<g>
				<path class="st2" d="M309.4,199.25h-14.69c-5.52,0-10-4.48-10-10l0,0c0-5.52,4.48-10,10-10h14.69c5.52,0,10,4.48,10,10l0,0
					C319.4,194.77,314.92,199.25,309.4,199.25z"/>
			</g>
			<g>
				<path class="st2" d="M300.72,241.58h-14.69c-5.52,0-10-4.48-10-10l0,0c0-5.52,4.48-10,10-10h14.69c5.52,0,10,4.48,10,10l0,0
					C310.72,237.1,306.25,241.58,300.72,241.58z"/>
			</g>
		</g>
	</g>
</g>
<g>
</g>
<g>
</g>
<g>
</g>
<g>
</g>
<g>
</g>
</svg>
