<?xml version="1.0" encoding="utf-8"?>
<!-- Generator: Adobe Illustrator 25.0.1, SVG Export Plug-In . SVG Version: 6.00 Build 0)  -->
<svg version="1.1" id="Layer_1" xmlns="http://www.w3.org/2000/svg" xmlns:xlink="http://www.w3.org/1999/xlink" x="0px" y="0px"
	 viewBox="0 0 512 512" style="enable-background:new 0 0 512 512;" xml:space="preserve">
<style type="text/css">
	.st0{fill:#3596CC;}
	.st1{fill:#3695CC;}
	.st2{fill:#3F94CC;}
	.st3{fill:#BEDCED;}
	.st4{fill:#3594CC;}
	.st5{fill:#3193CB;}
</style>
<g id="Image_Flip_Rotate">
	<g>
		<path class="st0" d="M40.84,207.88c3.73,5.72,7.32,11.22,11.29,17.29c-8.7,5.79-15.7,13.14-21.18,22.76
			c-6.1-3.43-11.91-6.7-18.06-10.16C19.85,225.44,28.87,215.65,40.84,207.88z"/>
		<path class="st0" d="M5.01,256.8c6.89,1.9,13.18,3.63,19.87,5.47c-2.55,10.4-2.65,20.55-0.86,31.12
			c-6.68,1.5-13.04,2.94-19.9,4.48C0.97,284.14,1.38,270.84,5.01,256.8z"/>
		<path class="st0" d="M37.26,348.72C25.66,340.3,17.2,330,10.81,317.38c6.22-3.1,12.09-6.01,18.33-9.12
			c5.18,9.29,11.54,17.22,20.2,23.74C45.22,337.7,41.32,343.11,37.26,348.72z"/>
		<path class="st1" d="M99.29,200.35c-0.05,0.64-0.09,1.28-0.14,1.91c-0.74,4.2-1.47,8.39-2.29,13.04
			c-10.33-0.56-20.54-0.74-30.74,3.12c-2.27-6.52-4.42-12.69-6.72-19.31c6.16-3.08,12.54-4.78,19.01-5.43
			c3.78-0.4,7.12-0.12,10.83,0.03c3.48,0,5.77,0.78,10.58,2.63C99.64,197.68,99.47,199.02,99.29,200.35z"/>
	</g>
	<g id="Rectangle_6_copy_4_3_">
		
			<rect x="73.89" y="206.14" transform="matrix(0.7155 -0.6986 0.6986 0.7155 -122.454 129.5929)" class="st2" width="48.02" height="18.03"/>
	</g>
	<g id="Rectangle_6_copy_5_3_">
		
			<rect x="89.13" y="169.9" transform="matrix(0.7155 -0.6986 0.6986 0.7155 -107.5627 123.7179)" class="st2" width="18.01" height="48.08"/>
	</g>
	<g>
		<path class="st3" d="M510,257.97c-0.31-0.01-0.62,0-0.93,0.03c-0.05-1.32-0.09-2.64-0.14-3.97c0.36-0.02,0.71-0.03,1.07-0.05
			C510,255.31,510,256.64,510,257.97z"/>
		<path class="st0" d="M454.93,334.3c-2.63-6.7-4.97-12.66-7.53-19.18c9.67-4.25,18.16-10.02,25.37-17.94
			c5.25,4.54,10.2,8.82,15.46,13.38C479.07,321.28,468.24,328.9,454.93,334.3z"/>
		<path class="st0" d="M486.71,196.97c9.55,10.44,15.79,22.09,19.48,35.71c-6.25,2.66-12.9,3.46-19.69,5.67
			c-3.07-10.22-7.83-19.18-14.77-27.46C476.73,206.25,481.51,201.81,486.71,196.97z"/>
		<path class="st1" d="M430.59,190.17c0.81-7.22,1.53-13.72,2.29-20.52c14.15,1.44,26.53,6.04,38.3,13.91
			c-3.86,5.82-7.47,11.28-11.31,17.07C450.91,195.11,441.47,191.51,430.59,190.17z"/>
		<path class="st4" d="M508.93,254.03c0.05,1.32,0.09,2.64,0.14,3.97c-0.78,12.3-3.41,24.09-9.46,35.44
			c-6.14-3.15-11.93-6.12-18.01-9.24c4.15-9.78,6.97-19.38,6.73-30.18C495.38,253.76,502.14,253.33,508.93,254.03z"/>
	</g>
	<g id="Rectangle_6_copy_4_2_">
		
			<rect x="420.61" y="304.45" transform="matrix(0.3507 -0.9365 0.9365 0.3507 -4.8745 619.9012)" class="st2" width="48.02" height="18.03"/>
	</g>
	<g id="Rectangle_6_copy_5_2_">
		
			<rect x="445.01" y="309.15" transform="matrix(0.3507 -0.9365 0.9365 0.3507 -17.2422 641.5161)" class="st2" width="18.01" height="48.08"/>
	</g>
	<g id="Shape_3_2_">
		<path class="st5" d="M291.63,186.52L411.5,393.74H291.63V186.52 M266.59,93.22v325.57h188.33L266.59,93.22L266.59,93.22z"/>
	</g>
	<g id="Shape_3_copy">
		<polygon class="st5" points="53.22,418.78 241.54,418.78 241.54,93.22 		"/>
	</g>
</g>
<g>
</g>
<g>
</g>
<g>
</g>
<g>
</g>
<g>
</g>
</svg>
