<?xml version="1.0" encoding="utf-8"?>
<!-- Generator: Adobe Illustrator 25.0.1, SVG Export Plug-In . SVG Version: 6.00 Build 0)  -->
<svg version="1.1" id="Layer_1" xmlns="http://www.w3.org/2000/svg" xmlns:xlink="http://www.w3.org/1999/xlink" x="0px" y="0px"
	 viewBox="0 0 512 512" style="enable-background:new 0 0 512 512;" xml:space="preserve">
<style type="text/css">
	.st0{fill:#3391C9;}
</style>
<g id="Words_Invoice">
	<g>
		<g>
			<g>
				<path class="st0" d="M447.31,473.87v-91.8l0-316.44c0-28.15-20.11-53.36-48.65-53.36h1.74c-0.01,0-0.01,0-0.02,0H119.78
					C90.1,12.92,66,36.37,64.65,65.93v407.95c0.84,7.88,5.76,14.75,12.97,18.1c7.46,3.28,16.17,1.75,22.05-3.88l39.56-35.56
					l47.35,42.02c3.53,3.26,8.16,5.11,12.97,5.17c4.79-0.18,9.38-2.01,12.97-5.17l46.7-42.02l46.7,42.02
					c7.39,6.59,18.56,6.59,25.94,0l47.35-42.02l38.92,35.56c4.71,5.78,12.88,7.41,19.46,3.88
					C444.02,488.29,447.8,481.26,447.31,473.87z M421.37,459.65l-30.48-29.74c-6.87-7-18.08-7.29-25.29-0.65l-47.35,42.02
					l-46.05-42.02c-7.58-6.05-18.36-6.05-25.94,0l-46.7,42.02l-47.35-42.02c-8.18-6.68-20.03-6.41-27.89,0.65l-33.73,29.74V65.93
					c1.3-15.28,13.81-27.2,29.19-27.8h278.89c14.27,0,22.7,13.58,22.7,27.8V459.65z"/>
			</g>
		</g>
		<g>
			<g>
				<path class="st0" d="M199.66,508.73l-0.23,0c-7.02-0.1-13.72-2.75-18.88-7.49l-41.28-36.63l-33.49,30.1
					c-8.54,8.09-21,10.26-31.79,5.51l-0.17-0.08c-10.01-4.66-16.95-14.35-18.12-25.3l-0.05-0.48l0.01-408.84
					c1.57-34.15,29.65-61.5,63.92-62.25l0.2,0H400.7l0.33,0.02l0,0.03c15.2,0.63,29.13,7.38,39.43,19.15
					c10.22,11.68,15.85,27.01,15.85,43.16l0,407.98c0.58,10.63-5,20.88-14.26,26.18l-0.22,0.12c-10.14,5.44-22.73,3.08-30.21-5.56
					l-32.5-29.7l-41.28,36.64c-10.8,9.62-27.1,9.62-37.91-0.01l-40.71-36.63l-40.68,36.61c-5.21,4.59-11.81,7.22-18.66,7.48
					L199.66,508.73z M139.2,440.47l53.49,47.48c1.85,1.71,4.24,2.69,6.76,2.78c2.63-0.15,5.15-1.18,7.13-2.92l52.64-47.38
					l52.72,47.44c3.95,3.52,9.95,3.52,13.93-0.03l53.42-47.42l45.39,41.47l0.42,0.51c1.96,2.41,5.36,3.11,8.12,1.69
					c3.36-1.98,5.37-5.75,5.11-9.63l-0.02-0.59l0-408.25c0-21.81-14.83-44.36-39.65-44.36v0H119.88
					c-24.74,0.59-45,20.27-46.23,44.88v407.19c0.63,4.51,3.54,8.48,7.68,10.44c4.13,1.78,8.87,0.92,12.12-2.18l0.21-0.19
					L139.2,440.47z M318.16,483.39l-51.78-47.25c-4.26-3.25-10.08-3.25-14.33,0.02l-52.45,47.2l-53.21-47.22
					c-4.78-3.8-11.5-3.61-16.06,0.48l-48.74,42.98l0.03-414.42c1.68-19.77,17.93-35.26,37.8-36.03l0.35-0.01h278.89
					c18.07,0,31.7,15.82,31.7,36.8V481l-45.91-44.79c-3.49-3.56-9.11-3.7-12.78-0.33l-0.12,0.11L318.16,483.39z M138.61,415.37
					c6.8,0,13.62,2.3,19.29,6.92l0.28,0.24l41.33,36.68l41.13-36.99c10.94-8.73,26.23-8.73,37.17,0l0.45,0.39l40.07,36.56
					l41.24-36.6c10.84-9.9,27.35-9.49,37.67,0.95l15.13,14.76V65.93c0-9.11-4.8-18.8-13.7-18.8h-278.7
					c-10.62,0.49-19.31,8.7-20.38,19.21v373.37l18.77-16.55C124.13,417.98,131.36,415.37,138.61,415.37z"/>
			</g>
		</g>
	</g>
	<g>
		<g>
			<g>
				<g>
					<path class="st0" d="M369.87,268.33H142.58c-6.62,0-11.99,5.37-11.99,11.99c0,6.62,5.37,11.99,11.99,11.99h227.29
						c6.62,0,11.99-5.37,11.99-11.99C381.86,273.69,376.49,268.33,369.87,268.33z"/>
				</g>
			</g>
		</g>
		<g>
			<g>
				<g>
					<path class="st0" d="M371.41,196.32h-104.1c-5.77,0-10.45,5.37-10.45,11.99c0,6.62,4.68,11.99,10.45,11.99h104.1
						c5.77,0,10.45-5.37,10.45-11.99C381.86,201.69,377.18,196.32,371.41,196.32z"/>
				</g>
			</g>
		</g>
		<g>
			<g>
				<g>
					<path class="st0" d="M369.87,340.26H142.58c-6.62,0-11.99,5.37-11.99,11.99s5.37,11.99,11.99,11.99h227.29
						c6.62,0,11.99-5.37,11.99-11.99S376.49,340.26,369.87,340.26z"/>
				</g>
			</g>
		</g>
		<g>
			<path class="st0" d="M164.94,231.32c-10.69-0.49-21-2.88-30.91-7.18v-24.32c5.66,2.88,11.82,5.29,18.46,7.21
				c6.64,1.93,12.48,2.89,17.5,2.89c4.15,0,7.19-0.5,9.12-1.5c1.93-1,2.89-2.67,2.89-5.02c0-1.61-0.7-2.98-2.09-4.1
				c-1.39-1.12-3.71-2.39-6.96-3.81c-3.25-1.42-7.63-3.12-13.15-5.13c-6.2-2.29-11.21-4.87-15.01-7.73s-6.58-6.05-8.31-9.59
				c-1.73-3.54-2.6-7.95-2.6-13.22c0-8.06,2.59-14.36,7.76-18.9c5.17-4.54,12.94-7.35,23.29-8.42v-10.03h15.16v9.89
				c9.72,0.54,19.51,2.93,29.37,7.18l-8.72,20.87c-10.21-4.59-19.41-6.88-27.61-6.88c-3.91,0-6.65,0.48-8.24,1.43
				s-2.38,2.36-2.38,4.21c0,1.61,0.57,2.94,1.72,3.99c1.15,1.05,3.14,2.22,5.97,3.52c2.83,1.29,6.76,2.8,11.79,4.5
				c10.21,3.61,17.53,7.73,21.97,12.34c4.44,4.61,6.67,10.56,6.67,17.83c0,8.2-2.6,14.87-7.8,20c-5.2,5.13-12.78,8.3-22.74,9.52
				v14.14h-15.16V231.32z"/>
		</g>
		<g>
			<g>
				<g>
					<path class="st0" d="M371.52,124.57H267.43c-5.77,0-10.45,5.37-10.45,11.99c0,6.62,4.68,11.99,10.45,11.99h104.09
						c5.77,0,10.45-5.37,10.45-11.99C381.97,129.94,377.29,124.57,371.52,124.57z"/>
				</g>
			</g>
		</g>
	</g>
</g>
<g>
</g>
<g>
</g>
<g>
</g>
<g>
</g>
<g>
</g>
</svg>
