<?xml version="1.0" encoding="utf-8"?>
<!-- Generator: Adobe Illustrator 25.0.1, SVG Export Plug-In . SVG Version: 6.00 Build 0)  -->
<svg version="1.1" id="Layer_1" xmlns="http://www.w3.org/2000/svg" xmlns:xlink="http://www.w3.org/1999/xlink" x="0px" y="0px"
	 viewBox="0 0 512 512" style="enable-background:new 0 0 512 512;" xml:space="preserve">
<style type="text/css">
	.st0{fill:#3593CB;}
	.st1{fill:#FFFFFF;}
	.st2{display:none;}
	.st3{display:inline;}
</style>
<g id="Travel_Budget">
	<g>
		<path class="st0" d="M213.1,388.3c0-67.9,52.5-123.5,119-128.5v-90.6c0-18.6-15.1-33.6-33.6-33.6H83.7
			c-18.6,0-33.6,15.1-33.6,33.6v282.7c0,18.6,15.1,33.6,33.6,33.6h173.7C230.3,461.9,213.1,427.1,213.1,388.3z"/>
		<g>
			<path class="st0" d="M242.5,196.1H139.8c-16,0-29-13-29-29V32.8c0-16,13-29,29-29h102.7c16,0,29,13,29,29v134.2
				C271.5,183.1,258.5,196.1,242.5,196.1z M139.8,23.8c-5,0-9,4-9,9v134.2c0,5,4,9,9,9h102.7c5,0,9-4,9-9V32.8c0-5-4-9-9-9H139.8z"
				/>
		</g>
		<g>
			<path class="st0" d="M221.1,162.1h-60c-7.8,0-14.2-6.4-14.2-14.2v-27.4c0-7.8,6.4-14.2,14.2-14.2h60c7.8,0,14.2,6.4,14.2,14.2
				v27.4C235.3,155.7,228.9,162.1,221.1,162.1z M161.9,147.1h58.4v-25.8h-58.4V147.1z"/>
		</g>
		<g>
			<circle class="st0" cx="122.1" cy="486" r="21.9"/>
		</g>
		<path class="st0" d="M243.6,471.5c-3.4,3.9-5.4,8.9-5.4,14.4c0,12.1,9.8,21.9,21.9,21.9c6.9,0,13.1-3.2,17.1-8.2
			C264.4,492.3,253.1,482.7,243.6,471.5z"/>
		<g>
			<path class="st1" d="M302.5,232.2c-3.3,0-6-2.7-6-6v-15.8c0-14.8-12.1-26.9-26.9-26.9H112.6c-14.8,0-26.9,12.1-26.9,26.9v15.8
				c0,3.3-2.7,6-6,6s-6-2.7-6-6v-15.8c0-21.4,17.4-38.9,38.9-38.9h157.1c21.4,0,38.9,17.4,38.9,38.9v15.8
				C308.5,229.6,305.8,232.2,302.5,232.2z"/>
		</g>
		<g>
			<path class="st1" d="M219.1,206.9h-55.9c-3.3,0-6,2.7-6,6l0,0c0,3.3,2.7,6,6,6h55.9c3.3,0,6-2.7,6-6l0,0
				C225.1,209.6,222.4,206.9,219.1,206.9z"/>
		</g>
	</g>
	<g class="st2">
		<g class="st3">
			<g>
				<path class="st0" d="M342,508.2c-66.1,0-119.9-53.8-119.9-119.9S275.9,268.4,342,268.4s119.9,53.8,119.9,119.9
					S408.1,508.2,342,508.2z M342,286.8c-56,0-101.5,45.5-101.5,101.5S286.1,489.8,342,489.8s101.5-45.5,101.5-101.5
					S398,286.8,342,286.8z"/>
			</g>
		</g>
		<g class="st3">
			<g>
				<g>
					<path class="st0" d="M271.7,376.7v18.9c0,12.9,31.5,23.4,70.3,23.4s70.3-10.5,70.3-23.4v-18.9c-15.1,12.5-42.8,18.9-70.3,18.9
						S286.8,389.1,271.7,376.7z"/>
				</g>
				<g>
					<path class="st0" d="M271.7,415.1v15.6c0,12.9,31.5,23.4,70.3,23.4s70.3-10.5,70.3-23.4v-15.6c-15.1,10.7-42.8,15.6-70.3,15.6
						S286.8,425.7,271.7,415.1z"/>
				</g>
				<g>
					<ellipse class="st0" cx="342" cy="354.5" rx="70.3" ry="29.3"/>
				</g>
			</g>
			<g>
				<g>
					<g>
						<polygon class="st1" points="303.6,415.1 295.2,413.1 295.2,388.8 303.6,391.4 						"/>
					</g>
					<g>
						<rect x="339.8" y="395.6" class="st1" width="8.3" height="23.4"/>
					</g>
					<g>
						<polygon class="st1" points="388.8,413.1 380.4,415.1 380.4,391.1 388.8,388.8 						"/>
					</g>
				</g>
				<g>
					<g>
						<polygon class="st1" points="303.6,450.2 295.2,448.2 295.2,425.3 303.6,427.2 						"/>
					</g>
					<g>
						<rect x="339.8" y="430.7" class="st1" width="8.3" height="23.4"/>
					</g>
					<g>
						<polygon class="st1" points="388.8,448.2 380.4,450.2 380.4,427.2 388.8,425.3 						"/>
					</g>
				</g>
			</g>
		</g>
	</g>
	<g>
		<g>
			<g>
				<path class="st0" d="M342,508.2c-66.1,0-119.9-53.8-119.9-119.9S275.9,268.4,342,268.4s119.9,53.8,119.9,119.9
					S408.1,508.2,342,508.2z M342,286.8c-56,0-101.5,45.5-101.5,101.5S286.1,489.8,342,489.8s101.5-45.5,101.5-101.5
					S398,286.8,342,286.8z"/>
			</g>
		</g>
		<g>
			<path class="st0" d="M331.8,446.9c-12.7-0.6-24.9-3.4-36.7-8.5v-28.9c6.7,3.4,14,6.3,21.9,8.6c7.9,2.3,14.8,3.4,20.8,3.4
				c4.9,0,8.5-0.6,10.8-1.8c2.3-1.2,3.4-3.2,3.4-6c0-1.9-0.8-3.5-2.5-4.9c-1.7-1.3-4.4-2.8-8.3-4.5c-3.9-1.7-9.1-3.7-15.6-6.1
				c-7.4-2.7-13.3-5.8-17.8-9.2c-4.5-3.4-7.8-7.2-9.9-11.4c-2.1-4.2-3.1-9.4-3.1-15.7c0-9.6,3.1-17,9.2-22.4
				c6.1-5.4,15.4-8.7,27.6-10v-11.9h18v11.7c11.5,0.6,23.1,3.5,34.9,8.5l-10.3,24.8c-12.1-5.4-23-8.2-32.8-8.2
				c-4.6,0-7.9,0.6-9.8,1.7c-1.9,1.1-2.8,2.8-2.8,5c0,1.9,0.7,3.5,2,4.7c1.4,1.2,3.7,2.6,7.1,4.2c3.4,1.5,8,3.3,14,5.3
				c12.1,4.3,20.8,9.2,26.1,14.6c5.3,5.5,7.9,12.5,7.9,21.2c0,9.7-3.1,17.6-9.3,23.7c-6.2,6.1-15.2,9.9-27,11.3v16.8h-18V446.9z"/>
		</g>
	</g>
</g>
</svg>
