<?xml version="1.0" encoding="utf-8"?>
<!-- Generator: Adobe Illustrator 25.0.1, SVG Export Plug-In . SVG Version: 6.00 Build 0)  -->
<svg version="1.1" id="Layer_1" xmlns="http://www.w3.org/2000/svg" xmlns:xlink="http://www.w3.org/1999/xlink" x="0px" y="0px"
	 viewBox="0 0 512 512" style="enable-background:new 0 0 512 512;" xml:space="preserve">
<style type="text/css">
	.st0{fill:#3291C7;}
	.st1{fill:#3391C6;}
</style>
<g>
	<g>
		<path class="st0" d="M255.35,422.94H183.3V301.58h72.05v26.31h-39.26v19.09h36.36v26.31h-36.36v22.91h39.26V422.94z"/>
		<path class="st0" d="M328.63,422.94l-24.82-87.41h-0.75c1.16,14.89,1.74,26.45,1.74,34.7v52.71h-29.05V301.58h43.66l25.32,86.16
			h0.66l24.82-86.16h43.75v121.36h-30.13v-53.21c0-2.77,0.04-5.84,0.12-9.21c0.08-3.38,0.46-11.65,1.12-24.82h-0.75l-24.49,87.24
			H328.63z"/>
		<path class="st0" d="M471.55,422.94h-32.29V301.58h71.72v26.31h-39.43v23.16h36.36v26.31h-36.36V422.94z"/>
	</g>
	<g id="BG_Shapes">
		<g id="Rounded_Rectangle_6">
			<path class="st0" d="M251.72,146h-25.39c-9.94,0-18,8.06-18,18v1.57c0,9.94,8.06,18,18,18h25.39c9.94,0,18-8.06,18-18V164
				C269.72,154.06,261.66,146,251.72,146z"/>
		</g>
		<g id="Rounded_Rectangle_6_copy">
			<path class="st0" d="M335.72,146h-25.39c-9.94,0-18,8.06-18,18v1.57c0,9.94,8.06,18,18,18h25.39c9.94,0,18-8.06,18-18V164
				C353.72,154.06,345.66,146,335.72,146z"/>
		</g>
		<g id="Rounded_Rectangle_6_copy_2">
			<path class="st0" d="M420.72,146h-25.39c-9.94,0-18,8.06-18,18v1.57c0,9.94,8.06,18,18,18h25.39c9.94,0,18-8.06,18-18V164
				C438.72,154.06,430.66,146,420.72,146z"/>
		</g>
		<g id="Rounded_Rectangle_6_copy_3">
			<path class="st0" d="M251.72,218h-25.39c-9.94,0-18,8.06-18,18v1.57c0,9.94,8.06,18,18,18h25.39c9.94,0,18-8.06,18-18V236
				C269.72,226.06,261.66,218,251.72,218z"/>
		</g>
		<g id="Rounded_Rectangle_6_copy_3_1_">
			<path class="st0" d="M335.72,219h-25.39c-9.94,0-18,8.06-18,18v1.57c0,9.94,8.06,18,18,18h25.39c9.94,0,18-8.06,18-18V237
				C353.72,227.06,345.66,219,335.72,219z"/>
		</g>
		<g id="Rounded_Rectangle_6_copy_3_2_">
			<path class="st0" d="M420.72,219h-25.39c-9.94,0-18,8.06-18,18v1.57c0,9.94,8.06,18,18,18h25.39c9.94,0,18-8.06,18-18V237
				C438.72,227.06,430.66,219,420.72,219z"/>
		</g>
		<g>
			<g>
				<path class="st1" d="M111.33,98.23V78.5c0-13.81,11.19-25,25-25h210c13.81,0,25,11.19,25,25V112h52V78.5c0-42.46-34.54-77-77-77
					h-210c-42.46,0-77,34.54-77,77v23.9C70.36,98.9,82.14,97,94.37,97C100.13,97,105.8,97.42,111.33,98.23z"/>
				<path class="st1" d="M369.36,443.23c-3.79,8.97-12.68,15.27-23.04,15.27h-210c-13.81,0-25-11.19-25-25V315.77
					c-5.53,0.81-11.19,1.23-16.96,1.23c-12.23,0-24.01-1.9-35.04-5.4v121.9c0,42.46,34.54,77,77,77h210
					c39.16,0,71.56-29.39,76.36-67.27H369.36z"/>
			</g>
			<path class="st0" d="M96.33,111.7c-52.63,0-95.3,42.67-95.3,95.3s42.67,95.3,95.3,95.3s95.3-42.67,95.3-95.3
				S148.96,111.7,96.33,111.7z M135.21,220.34l-44.52,44.52c-6.53,6.53-17.12,6.53-23.65,0c-6.53-6.53-6.53-17.12,0-23.65
				l33.32-33.32l-33.32-33.32c-6.53-6.53-6.53-17.12,0-23.65c6.53-6.53,17.12-6.53,23.65,0l44.52,44.52
				c3.43,3.43,5.05,7.97,4.88,12.46C140.26,212.38,138.64,216.92,135.21,220.34z"/>
		</g>
	</g>
</g>
<g>
</g>
<g>
</g>
<g>
</g>
<g>
</g>
<g>
</g>
</svg>
