<?xml version="1.0" encoding="utf-8"?>
<!-- Generator: Adobe Illustrator 25.0.1, SVG Export Plug-In . SVG Version: 6.00 Build 0)  -->
<svg xmlns="http://www.w3.org/2000/svg" xmlns:xlink="http://www.w3.org/1999/xlink" version="1.1" id="Layer_1" x="0px" y="0px" viewBox="0 0 335 283" style="enable-background:new 0 0 335 283;" xml:space="preserve">
<style type="text/css">
	.st0{fill:#EEEEEE;}
	
		.st1{fill:none;stroke:#EEEEEE;stroke-width:3;stroke-linecap:round;stroke-linejoin:round;stroke-miterlimit:10;stroke-dasharray:6,8;}
	.st2{fill:none;stroke:#EEEEEE;stroke-width:3;stroke-linecap:round;stroke-linejoin:round;}
	.st3{fill:none;stroke:#EEEEEE;stroke-width:3;stroke-linecap:round;stroke-linejoin:round;stroke-dasharray:6.5303,8.7071;}
	.st4{fill:none;stroke:#EEEEEE;stroke-width:3;stroke-linecap:round;stroke-linejoin:round;stroke-dasharray:5.6936,7.5915;}
	.st5{fill:#68217A;}
	.st6{fill:#DE4444;}
	.st7{fill:#FFFFFF;}
	.st8{fill:#4198D3;}
	.st9{fill:#575756;}
	.st10{fill:#3F3F3F;}
</style>
<g id="Aspose.GIS">
	<polygon class="st0" points="145.16,268.63 32.21,260.63 32.21,114.06 145.16,114.06  "/>
	<polygon class="st0" points="151.16,268.63 219.75,260.63 219.75,114.06 151.16,114.06  "/>
	<g id="lines_15_">
		<polyline class="st1" points="292.28,136.52 241.58,136.52 241.58,179.63 217.61,179.63   "/>
		<g>
			<g>
				<line class="st2" x1="170.35" y1="53.45" x2="167.35" y2="53.45"/>
				<line class="st3" x1="158.64" y1="53.45" x2="132.52" y2="53.45"/>
				<polyline class="st2" points="128.16,53.45 125.16,53.45 125.16,56.45     "/>
				<line class="st4" x1="125.16" y1="64.04" x2="125.16" y2="100.1"/>
				<line class="st2" x1="125.16" y1="103.9" x2="125.16" y2="106.9"/>
			</g>
		</g>
	</g>
	<g id="circles_15_">
		<circle class="st5" cx="185.33" cy="54.35" r="33.61"/>
		<circle class="st6" cx="299.74" cy="136.64" r="33.61"/>
		<g id="java_15_">
			<path id="XMLID_129_" class="st7" d="M299.6,120.99c-1.81,1.27-3.86,2.72-4.96,5.11c-1.91,4.17,3.91,8.71,4.16,8.91     c0.06,0.04,0.13,0.07,0.2,0.07s0.15-0.03,0.21-0.07c0.12-0.1,0.15-0.26,0.08-0.39c-0.02-0.04-2.11-4.1-2.03-7.01     c0.03-1.01,1.45-2.16,2.95-3.38c1.38-1.12,2.94-2.38,3.85-3.86c2-3.26-0.22-6.46-0.25-6.49c-0.09-0.12-0.25-0.17-0.39-0.11     c-0.14,0.06-0.22,0.21-0.18,0.36c0,0.02,0.44,2.14-0.77,4.32C301.95,119.34,300.86,120.1,299.6,120.99z"/>
			<path id="XMLID_128_" class="st7" d="M307.23,122.43c0.13-0.1,0.17-0.27,0.09-0.41c-0.08-0.14-0.25-0.2-0.4-0.15     c-0.31,0.12-7.54,2.9-7.54,6.27c0,2.32,0.99,3.55,1.71,4.44c0.28,0.35,0.53,0.65,0.61,0.91c0.23,0.75-0.31,2.09-0.54,2.55     c-0.07,0.13-0.03,0.29,0.08,0.39c0.06,0.05,0.13,0.08,0.21,0.08c0.06,0,0.13-0.02,0.18-0.06c0.12-0.09,3.04-2.15,2.51-4.63     c-0.19-0.94-0.66-1.63-1.07-2.24c-0.63-0.94-1.09-1.62-0.4-2.88C303.51,125.24,307.2,122.46,307.23,122.43z"/>
			<path id="XMLID_127_" class="st7" d="M288.42,136.56c-0.12,0.37-0.07,0.74,0.17,1.06c0.78,1.09,3.56,1.69,7.81,1.69l0,0     c0.58,0,1.19-0.01,1.81-0.03c6.8-0.24,9.33-2.36,9.43-2.45c0.11-0.1,0.14-0.26,0.07-0.39c-0.07-0.13-0.22-0.2-0.37-0.16     c-2.4,0.65-6.87,0.89-9.98,0.89c-3.47,0-5.24-0.25-5.67-0.43c0.22-0.31,1.59-0.85,3.29-1.18c0.16-0.03,0.27-0.18,0.26-0.35     c-0.02-0.16-0.15-0.29-0.32-0.29C293.93,134.9,288.94,134.98,288.42,136.56z"/>
			<path id="XMLID_126_" class="st7" d="M311.19,134.38c-1.4,0-2.73,0.7-2.79,0.73c-0.13,0.07-0.2,0.22-0.16,0.36     c0.04,0.14,0.16,0.24,0.31,0.24c0.03,0,2.99,0.02,3.26,1.72c0.24,1.46-2.8,3.83-4,4.62c-0.13,0.09-0.18,0.25-0.12,0.39     c0.05,0.12,0.17,0.2,0.3,0.2c0.02,0,0.04,0,0.07-0.01c0.28-0.06,6.92-1.52,6.22-5.39C313.85,134.88,312.36,134.38,311.19,134.38z     "/>
			<path id="XMLID_125_" class="st7" d="M306.64,141.58c0.02-0.12-0.03-0.25-0.13-0.32l-1.59-1.11c-0.08-0.05-0.18-0.07-0.27-0.05     c-0.02,0-1.68,0.44-4.1,0.71c-0.96,0.11-2.03,0.16-3.11,0.16c-2.42,0-4-0.28-4.23-0.49c-0.03-0.06-0.02-0.09-0.02-0.1     c0.04-0.12,0.27-0.25,0.41-0.31c0.16-0.06,0.25-0.23,0.2-0.39c-0.05-0.16-0.22-0.26-0.38-0.22c-1.6,0.39-2.38,0.92-2.32,1.6     c0.1,1.2,2.88,1.82,5.23,1.98c0.34,0.02,0.7,0.03,1.09,0.03l0,0c3.91,0,8.92-1.23,8.97-1.24     C306.52,141.8,306.61,141.7,306.64,141.58z"/>
			<path id="XMLID_124_" class="st7" d="M294.63,144.16c0.12-0.08,0.17-0.23,0.13-0.36c-0.04-0.14-0.17-0.23-0.32-0.23     c-0.21,0.01-2.09,0.09-2.23,1.29c-0.04,0.36,0.06,0.68,0.3,0.97c0.68,0.8,2.5,1.28,5.57,1.45c0.36,0.02,0.73,0.03,1.1,0.03     c3.91,0,6.54-1.22,6.65-1.27c0.11-0.05,0.18-0.16,0.18-0.27c0.01-0.12-0.05-0.23-0.15-0.29l-2.01-1.23     c-0.07-0.04-0.15-0.06-0.23-0.04c-0.01,0-1.29,0.27-3.22,0.53c-0.36,0.05-0.82,0.07-1.36,0.07c-1.93,0-4.07-0.31-4.48-0.52     C294.57,144.25,294.58,144.2,294.63,144.16z"/>
			<path id="XMLID_123_" class="st7" d="M297.38,151c8.95-0.01,13.75-1.6,14.67-2.6c0.33-0.35,0.36-0.69,0.33-0.91     c-0.07-0.54-0.56-0.87-0.62-0.9c-0.13-0.09-0.31-0.06-0.42,0.06c-0.1,0.12-0.11,0.3,0,0.42c0.06,0.07,0.09,0.19-0.08,0.36     c-0.37,0.35-4.1,1.39-10.31,1.71c-0.85,0.04-1.74,0.07-2.65,0.07c-5.56,0-9.63-0.76-10.16-1.21c0.21-0.3,1.65-0.77,3.18-1.04     c0.17-0.03,0.29-0.19,0.26-0.37c-0.03-0.18-0.19-0.29-0.36-0.27c-0.04,0.01-0.19,0.01-0.36,0.03c-2.53,0.15-5.44,0.5-5.6,1.8     c-0.05,0.4,0.07,0.76,0.35,1.07C286.3,149.98,288.26,151,297.38,151L297.38,151z"/>
			<path id="XMLID_122_" class="st7" d="M313.81,148.69c-0.13-0.06-0.28-0.03-0.37,0.07c-0.01,0.01-1.36,1.42-5.4,2.25     c-1.55,0.31-4.45,0.47-8.64,0.47s-8.18-0.16-8.22-0.17c-0.17-0.01-0.31,0.11-0.33,0.28c-0.02,0.16,0.08,0.32,0.24,0.36     c0.04,0.01,4.22,0.99,9.94,0.99c2.74,0,5.41-0.22,7.93-0.66c4.7-0.82,5.03-3.15,5.04-3.25     C314.01,148.88,313.93,148.74,313.81,148.69z"/>
		</g>
		<path id="NET_15_" class="st7" d="M194.6,51.32h4.7v14.57h1.91V51.32h4.7v-1.73H194.6V51.32z M186.07,58.47h5.89v-1.73h-5.89    v-5.42h6.36v-1.73h-8.27v16.3h8.64v-1.73h-6.72L186.07,58.47L186.07,58.47z M178.65,61.08l0.11,2.4h-0.05    c-0.11-0.22-0.34-0.58-0.66-1.09l-8.16-12.79h-2.48v16.3h1.91V54.12l-0.09-2.24h0.07c0.14,0.37,0.31,0.71,0.51,1.02l8.41,12.99    h2.32v-16.3h-1.9L178.65,61.08L178.65,61.08z M163.36,63.59c-0.35,0-0.64,0.12-0.89,0.38c-0.24,0.25-0.36,0.55-0.36,0.91    c0,0.34,0.13,0.66,0.36,0.9c0.24,0.25,0.54,0.38,0.89,0.38c0.36,0,0.66-0.13,0.91-0.38s0.38-0.56,0.38-0.91s-0.13-0.65-0.38-0.91    c-0.24-0.25-0.57-0.39-0.91-0.38 M201.23,46.33c0,0.87,0.39,1.31,1.16,1.31c0.28,0,0.5-0.05,0.67-0.14v-0.61    c-0.13,0.1-0.3,0.15-0.46,0.14c-0.24,0-0.4-0.06-0.51-0.19c-0.1-0.12-0.15-0.34-0.15-0.63v-2.5h1.12v-0.6h-1.11V41.8l-0.71,0.23    v1.08h-0.76v0.6h0.76v2.63L201.23,46.33z M198.33,47.54h0.71v-3.83h1.04v-0.6h-1.04v-0.68c0-0.63,0.25-0.94,0.74-0.94    c0.16,0,0.33,0.04,0.47,0.12v-0.64c-0.13-0.06-0.3-0.08-0.52-0.08c-0.38,0-0.7,0.11-0.96,0.36c-0.3,0.28-0.45,0.66-0.45,1.15v0.72    h-0.75v0.6h0.75v3.84L198.33,47.54z M193.48,45.34c0-0.57,0.14-1,0.42-1.31c0.27-0.29,0.62-0.43,1.06-0.43    c0.45,0,0.8,0.14,1.05,0.43c0.26,0.3,0.39,0.73,0.39,1.3c0,0.54-0.11,0.97-0.36,1.26c-0.24,0.3-0.6,0.45-1.07,0.45    c-0.45,0-0.81-0.15-1.08-0.45C193.61,46.29,193.48,45.87,193.48,45.34 M196.52,47c0.4-0.43,0.6-0.99,0.6-1.7    c0-0.72-0.19-1.28-0.56-1.7c-0.37-0.41-0.89-0.61-1.55-0.61c-0.67,0-1.21,0.2-1.61,0.59c-0.43,0.42-0.65,1.02-0.65,1.79    c0,0.68,0.19,1.22,0.57,1.63c0.39,0.43,0.92,0.64,1.59,0.64C195.59,47.64,196.13,47.43,196.52,47 M191.64,47.25    c0.27-0.22,0.42-0.56,0.41-0.9c0-0.33-0.11-0.6-0.33-0.81c-0.17-0.17-0.44-0.33-0.82-0.49c-0.34-0.14-0.56-0.27-0.67-0.37    c-0.12-0.11-0.18-0.26-0.18-0.46c0-0.18,0.07-0.33,0.21-0.45s0.33-0.17,0.57-0.17c0.38,0,0.71,0.11,1.01,0.32V43.2    c-0.28-0.14-0.6-0.21-0.95-0.21c-0.45,0-0.84,0.12-1.13,0.37c-0.29,0.25-0.44,0.55-0.44,0.92c0,0.33,0.09,0.6,0.28,0.8    c0.16,0.17,0.42,0.34,0.79,0.5c0.36,0.16,0.6,0.29,0.73,0.41s0.19,0.26,0.19,0.43c0,0.41-0.28,0.62-0.85,0.62    c-0.42,0-0.81-0.14-1.15-0.43v0.76c0.31,0.18,0.68,0.27,1.1,0.27C190.93,47.64,191.34,47.51,191.64,47.25 M185.3,44.03    c0.26-0.29,0.63-0.43,1.06-0.43c0.45,0,0.8,0.14,1.05,0.43c0.26,0.3,0.38,0.73,0.38,1.3c0,0.54-0.11,0.97-0.36,1.26    c-0.24,0.3-0.6,0.45-1.07,0.45c-0.45,0-0.81-0.15-1.08-0.45s-0.4-0.71-0.4-1.25C184.89,44.77,185.03,44.33,185.3,44.03     M186.32,47.64c0.68,0,1.21-0.21,1.61-0.64c0.4-0.43,0.6-0.99,0.6-1.7c0-0.72-0.19-1.28-0.56-1.7c-0.37-0.41-0.89-0.61-1.55-0.61    c-0.67,0-1.21,0.2-1.61,0.59c-0.43,0.42-0.65,1.02-0.65,1.79c0,0.68,0.19,1.22,0.57,1.63C185.12,47.42,185.65,47.64,186.32,47.64     M182.74,43.26c-0.22,0.17-0.38,0.43-0.48,0.75h-0.02v-0.92h-0.71v4.44h0.71v-2.25c0-0.52,0.11-0.92,0.33-1.21    c0.2-0.26,0.44-0.39,0.73-0.39c0.24,0,0.42,0.05,0.54,0.14v-0.74c-0.1-0.04-0.24-0.06-0.43-0.06    C183.17,43.03,182.94,43.11,182.74,43.26 M179.24,47.64c0.47,0,0.88-0.1,1.22-0.31v-0.67c-0.34,0.25-0.7,0.38-1.09,0.38    c-0.45,0-0.82-0.15-1.1-0.45c-0.27-0.3-0.41-0.71-0.41-1.23c0-0.54,0.15-0.97,0.45-1.29c0.28-0.31,0.65-0.47,1.1-0.47    c0.38,0,0.75,0.12,1.06,0.35v-0.73c-0.3-0.15-0.64-0.23-1.03-0.23c-0.7,0-1.27,0.22-1.68,0.67s-0.63,1.04-0.63,1.76    c0,0.65,0.19,1.18,0.57,1.59C178.09,47.44,178.61,47.65,179.24,47.64 M175.31,47.55h0.71v-4.44h-0.71V47.55L175.31,47.55z     M175.67,41.98c0.12,0,0.24-0.05,0.33-0.14c0.09-0.09,0.14-0.21,0.14-0.33c0-0.12-0.05-0.24-0.14-0.33s-0.21-0.13-0.33-0.13    c-0.13,0-0.24,0.04-0.33,0.13s-0.14,0.2-0.14,0.33c0,0.14,0.05,0.25,0.14,0.33C175.43,41.94,175.55,41.98,175.67,41.98     M168.13,43.38l-0.03-1.21h0.02c0.06,0.29,0.13,0.5,0.19,0.64l2.12,4.74h0.36l2.13-4.78c0.05-0.13,0.12-0.33,0.19-0.6h0.02    l-0.06,1.2v4.18h0.73v-6.22h-0.91l-1.95,4.31c-0.08,0.17-0.17,0.42-0.3,0.76h-0.03c-0.05-0.17-0.14-0.42-0.28-0.74l-1.91-4.34    h-0.96v6.22h0.7v-4.16H168.13z M205.49,44.1c-0.2,0.2-0.45,0.3-0.74,0.3c-0.29,0-0.54-0.1-0.74-0.3s-0.31-0.45-0.31-0.75    c0-0.29,0.1-0.54,0.3-0.74c0.2-0.2,0.45-0.3,0.75-0.3c0.28-0.01,0.54,0.1,0.74,0.3s0.31,0.47,0.3,0.75    C205.8,43.66,205.69,43.91,205.49,44.1 M204.76,42.19c-0.32-0.01-0.62,0.11-0.85,0.34c-0.22,0.22-0.35,0.52-0.34,0.84    c0,0.34,0.11,0.61,0.34,0.84s0.51,0.33,0.84,0.33c0.32,0.01,0.62-0.11,0.85-0.34s0.34-0.5,0.34-0.84s-0.11-0.63-0.34-0.84    C205.38,42.3,205.08,42.19,204.76,42.19 M204.73,43.28h-0.23v-0.51h0.19c0.13,0,0.22,0.02,0.28,0.07c0.05,0.04,0.07,0.1,0.07,0.19    C205.04,43.2,204.94,43.28,204.73,43.28 M204.89,43.42L204.89,43.42c0.12-0.03,0.22-0.08,0.28-0.15c0.07-0.07,0.1-0.17,0.1-0.26    c0-0.11-0.04-0.21-0.12-0.28c-0.1-0.09-0.24-0.13-0.43-0.13h-0.42v1.5h0.21v-0.63h0.14c0.1,0,0.19,0.09,0.27,0.27l0.16,0.36h0.26    l-0.2-0.4C205.06,43.53,204.97,43.44,204.89,43.42"/>
	</g>
	<g>
		<path class="st8" d="M88.64,184.46h27.73v34.63c-7.53,2.58-15.81,3.87-24.83,3.87c-9.9,0-17.56-2.87-22.96-8.61    s-8.11-13.93-8.11-24.57c0-10.37,2.96-18.44,8.88-24.21c5.92-5.77,14.21-8.66,24.87-8.66c4.04,0,7.86,0.38,11.45,1.14    c3.59,0.76,6.72,1.73,9.38,2.9l-5.49,13.62c-4.63-2.29-9.71-3.43-15.25-3.43c-5.07,0-8.99,1.65-11.76,4.94    c-2.77,3.29-4.15,8-4.15,14.13c0,6.01,1.25,10.58,3.76,13.73s6.12,4.72,10.83,4.72c2.58,0,4.95-0.25,7.12-0.75v-10.06H88.64    V184.46z"/>
	</g>
	<g id="GIS">
		<polygon class="st9" points="163.92,190.27 151.16,195.37 151.16,223.77 163.92,228.87 212.17,209.57   "/>
		<polygon class="st10" points="163.92,182.49 151.16,187.59 151.16,215.99 163.92,221.09 212.17,201.79   "/>
		<polygon class="st9" points="163.92,174.86 151.16,179.96 151.16,208.36 163.92,213.46 212.17,194.16   "/>
		<path class="st0" d="M163.92,166.81c-5.57,0-10.39,3.24-12.75,7.95v13.14c2.37,4.71,7.18,7.95,12.75,7.95    c7.9,0,14.31-6.5,14.31-14.52C178.23,173.31,171.82,166.81,163.92,166.81z"/>
		<g>
			<path class="st0" d="M163.92,150.06c-5.57,0-10.39,3.19-12.75,7.84v12.57c3.76,9.28,13.01,22.27,13.01,22.27     s14.06-20.46,14.06-28.36C178.23,156.47,171.82,150.06,163.92,150.06z M164.23,171.4c-4.49,0-8.14-3.64-8.14-8.14     c0-4.49,3.64-8.14,8.14-8.14c4.49,0,8.14,3.64,8.14,8.14C172.37,167.76,168.72,171.4,164.23,171.4z"/>
		</g>
		<path class="st9" d="M163.92,154c-6.45,0-11.68,5.23-11.68,11.67c0,6.45,11.88,23.13,11.88,23.13s11.47-16.68,11.47-23.13    C175.59,159.23,170.37,154,163.92,154z M164.17,171.4c-3.66,0-6.64-2.97-6.64-6.64c0-3.66,2.97-6.64,6.64-6.64    c3.66,0,6.64,2.97,6.64,6.64C170.81,168.43,167.84,171.4,164.17,171.4z"/>
	</g>
</g>
<g>
</g>
<g>
</g>
<g>
</g>
<g>
</g>
<g>
</g>
</svg>
