<?xml version="1.0" encoding="utf-8"?>
<!-- Generator: Adobe Illustrator 25.2.0, SVG Export Plug-In . SVG Version: 6.00 Build 0)  -->
<svg version="1.1" id="Layer_1" xmlns="http://www.w3.org/2000/svg" xmlns:xlink="http://www.w3.org/1999/xlink" x="0px" y="0px"
	 viewBox="0 0 320 320" style="enable-background:new 0 0 320 320;" xml:space="preserve">
<style type="text/css">
	.st0{fill:none;stroke:#EFEFEF;stroke-linecap:round;stroke-linejoin:round;stroke-miterlimit:10;stroke-dasharray:4,8;}
	.st1{fill:#FFFFFF;}
	.st2{fill-rule:evenodd;clip-rule:evenodd;fill:#539E43;}
	.st3{fill:#539E43;}
	.st4{fill-rule:evenodd;clip-rule:evenodd;fill:#FCFCFB;}
	.st5{fill:#EFEFEF;}
	.st6{fill:#DEDFDF;}
	.st7{fill:#4296D2;}
</style>
<circle class="st0" cx="154.2" cy="163.2" r="123.7"/>
<g id="NET_8_">
	<path class="st1" d="M278.9,266.7c-23.7,28.1-99.2,23.2-99.2,23.2H98.4V96.5h195.8v94.7C294.2,191.2,295.1,247.5,278.9,266.7z"/>
	<g>
		<path class="st2" d="M157.4,224.4c0-19.6,6.8-36.2,20.6-50c13.7-13.7,30.3-20.6,50-20.6c19.4,0,36,6.8,49.8,20.6
			s20.7,30.4,20.7,50c0,19.5-6.9,36.1-20.7,49.8c-13.8,13.8-30.5,20.7-49.8,20.7c-19.7,0-36.3-6.9-50-20.7
			C164.2,260.5,157.4,243.9,157.4,224.4"/>
		<path class="st2" d="M298.5,224.4h-8.3V105.3c0-3-1.1-5.1-3.3-6.2c-0.8-0.4-1.7-0.7-2.7-0.8l-1.2-0.2H108.8
			c-3.1,0-5.2,1.1-6.2,3.2c-0.6,1.2-1,2.6-1,3.9v174.3c0,3,1.1,5.1,3.2,6.1c1.2,0.6,2.5,1,3.9,1.1h115.6l3.6,8.3H106.2
			c-2.1,0-4.3-0.5-6.4-1.6c-4.3-2.1-6.4-5.8-6.4-11.2V102.8c0-2.1,0.5-4.3,1.7-6.4c2.1-4.3,5.8-6.4,11.2-6.4h179.5l2,0.2
			c1.6,0.2,3.1,0.7,4.4,1.4c4.3,2.1,6.4,5.8,6.4,11.2L298.5,224.4L298.5,224.4z"/>
		<g>
			<g>
				<path class="st3" d="M155.8,135.3c0,7.4-2.1,13-6.1,16.9c-4.1,3.9-9.9,5.8-17.6,5.8h-12.5v-44.5h13.7c7.1,0,12.6,1.9,16.5,5.7
					C153.9,123,155.8,128.4,155.8,135.3z M148.2,135.5c0-10.6-5-15.9-15-15.9h-6.3v32.3h5.2C142.9,151.9,148.2,146.4,148.2,135.5z"
					/>
			</g>
		</g>
	</g>
	<g id="Shape">
		<path class="st4" d="M191.6,236.1c0-5,0.2-9.9-0.1-14.8c-0.4-5.3,4-10,9.9-9.8c6,0.2,11.9,0.1,17.9,0.1c0.6,0,1.2,0,2,0
			c0-3.2,0-6.2,0-9.3c-0.3-0.1-0.7-0.2-1.1-0.2c-2.5-0.2-3.9-1.7-3.9-4.2c-0.1-3.6,0-7.4,0-11c0-3.2,1.6-5,4.7-5.1
			c3.7-0.1,7.4-0.1,11.2,0c2.8,0.1,4.4,1.7,4.4,4.5c0.1,3.4,0.1,6.8,0,10.2c-0.2,4.7-0.5,5-4.9,5.9c0,3,0,6,0,9.3c3.6,0,7,0,10.4,0
			c4.2,0.1,8.4-0.1,12.5,0.4c3.9,0.4,6.8,4.3,6.9,8.2c0,5.3,0,10.7,0,16.1c0.7,0.1,1.2,0.2,1.7,0.2c1.9,0.4,3,1.7,3,3.6
			c0,4.1,0.1,8.2,0.1,12.3c0,2.9-1.2,4.3-4.1,4.4c-4,0.1-8,0.1-12.1,0c-2.5-0.1-3.9-1.7-3.9-4.3c0-3.5,0.2-7-0.1-10.4
			c-0.2-3.9,1.2-5.3,4.9-5.8c0-4.6,0-9.3,0-14.2c-6.5,0-12.8,0-19.4,0c0,4.7,0,9.4,0,14c4.6,1.4,4.9,1.8,4.9,6.7c0,3.1,0,6.2,0,9.3
			c0,3.3-1.4,4.6-4.7,4.7c-3.6,0-7.2,0-10.8,0c-3.2,0-4.8-1.7-4.8-4.9c0-3.2,0-6.4,0-9.6c0-4.3,0.8-5.3,5.1-6.2c0-4.6,0-9.3,0-14.1
			c-6.5,0-12.9,0-19.4,0c0,4.8,0,9.5,0,14.1c4.4,1.1,4.9,1.7,4.9,6.5c0,3.2,0,6.4,0,9.6c0,3.1-1.5,4.6-4.6,4.6
			c-3.6,0.1-7.4,0.1-11,0c-3.3,0-4.7-1.5-4.8-4.9c0-3.2,0-6.4,0-9.6C186.5,238,187.3,237.1,191.6,236.1z M221.7,251.4
			c3.3,0,6.4,0,9.6,0c0-3.2,0-6.3,0-9.5c-3.3,0-6.4,0-9.6,0C221.7,245.1,221.7,248.1,221.7,251.4z M221.8,196.3c3.3,0,6.5,0,9.6,0
			c0-3.2,0-6.2,0-9.3c-3.3,0-6.3,0-9.6,0C221.8,190.3,221.8,193.2,221.8,196.3z M192.1,241.9c0,3.3,0,6.4,0,9.4c3.2,0,6.2,0,9.3,0
			c0-3.3,0-6.3,0-9.4C198.2,241.9,195.2,241.9,192.1,241.9z M261,242c-3.2,0-6.2,0-9.2,0c0,3.3,0,6.3,0,9.3c3.1,0,6.1,0,9.2,0
			C261,248.2,261,245.2,261,242z"/>
	</g>
</g>
<g>
	<path class="st5" d="M274.8,142c-19,0-34.5-15.5-34.5-34.5s15.5-34.5,34.5-34.5s34.5,15.5,34.5,34.5S293.9,142,274.8,142z"/>
	<path class="st6" d="M274.8,74.4c18.2,0,33,14.8,33,33s-14.8,33-33,33s-33-14.8-33-33S256.6,74.4,274.8,74.4 M274.8,71.4
		c-19.9,0-36,16.1-36,36s16.1,36,36,36s36-16.1,36-36S294.7,71.4,274.8,71.4L274.8,71.4z"/>
</g>
<g>
	<g>
		<polygon class="st7" points="212.9,47.1 231.2,48.2 229.8,65.2 222.6,70.2 215.4,66.7 		"/>
		<polygon class="st7" points="159.3,50.4 163.4,50.4 164.8,47.1 165.4,27.7 158.8,23.9 146.3,23.9 145.3,38.1 145.8,50 		"/>
		<polygon class="st7" points="51,191.1 44.9,185.6 28.7,185.3 27.2,187.1 27.2,208.7 50.5,209.1 		"/>
		<polygon class="st7" points="78.8,247.1 72.8,241.1 58.4,240.7 59,268 77.7,268 		"/>
	</g>
	<g>
		<g>
			<path class="st7" d="M38.2,132.6c0.4,0.7,1,1.1,1.8,1.2h6.2v1.9c0,0.3-0.1,0.6-0.3,0.8c-0.2,0.2-0.5,0.3-0.8,0.3H28.8
				c-0.3,0-0.6-0.1-0.8-0.3c-0.2-0.2-0.3-0.5-0.3-0.8v-22.6c0-0.3,0.1-0.6,0.3-0.8c0.2-0.2,0.5-0.3,0.8-0.3h9.7v6.6
				c0,0.3,0.1,0.6,0.3,0.8c0.2,0.2,0.5,0.3,0.8,0.3h6.6v2.3l-6.2,6.2v4c-0.2,0-0.3-0.1-0.4-0.3c-0.3-0.6-0.8-0.9-1.5-1.1
				c-0.7-0.1-1.3,0-1.7,0.4l-0.7-2c-0.2-0.6-0.6-0.8-1.1-0.8c-0.6,0-0.9,0.3-1.1,0.8l-0.9,2.6c-0.1,0.3-0.3,0.4-0.5,0.4h-0.6
				c-0.2,0-0.4,0.1-0.6,0.2c-0.1,0.1-0.2,0.3-0.2,0.6c0,0.2,0.1,0.4,0.2,0.6c0.1,0.1,0.3,0.2,0.6,0.2h0.6c0.5,0,0.9-0.1,1.2-0.4
				c0.4-0.3,0.6-0.6,0.8-1.1l0.5-1.5l0.8,2.4c0.1,0.3,0.3,0.5,0.7,0.5c0.4,0,0.6-0.1,0.7-0.4l0.4-0.7c0.1-0.2,0.3-0.3,0.5-0.3
				C38,132.3,38.1,132.4,38.2,132.6z M46.3,117.9v0.3h-6.2v-6.2h0.3c0.3,0,0.6,0.1,0.8,0.3L46,117C46.2,117.3,46.3,117.6,46.3,117.9
				z M55.3,120.1c0.2,0.3,0.3,0.6,0.3,0.9s-0.1,0.6-0.3,0.9l-1.4,1.4l-3.3-3.3l1.4-1.4c0.2-0.2,0.5-0.3,0.9-0.3
				c0.3,0,0.6,0.1,0.9,0.3L55.3,120.1z"/>
		</g>
		<g>
			<polygon class="st7" points="79.5,66.8 79.5,70.4 77.6,71 78.4,74.2 80.5,74.2 99.4,74.2 101.5,74.2 101.5,72.1 100.6,70.5 
				100.5,58.7 98.1,56.2 90.3,56.8 89.6,67.8 88.4,63.7 			"/>
			<polygon class="st7" points="91.3,47.9 88.2,47.9 88.2,50 72.1,50.7 70.4,47.4 68,47.4 66.4,51.5 67.9,51.5 68.3,62.8 67.4,63.7 
				66.4,67.1 65.8,69.2 70,67.9 72.2,67.1 87.9,68 87.6,70 91.3,69.1 91.3,65.4 89.5,65.4 90.3,56.8 96.6,56.8 97.3,57.9 
				102.1,59.5 101.5,57.4 101.5,55.3 99.8,54.6 94.7,55.9 89.1,55.5 92.1,52 			"/>
			<g>
				<path class="st5" d="M102.9,59.5h-0.8V70h0.8c0.5,0,0.8,0.3,0.8,0.8v4.7c0,0.5-0.3,0.8-0.8,0.8h-4.7c-0.5,0-0.8-0.3-0.8-0.8
					v-0.8H82.6v0.8c0,0.5-0.3,0.8-0.8,0.8h-4.7c-0.5,0-0.8-0.3-0.8-0.8v-4.7c0-0.5,0.3-0.8,0.8-0.8h0.8v-1.6h-5.8v0.8
					c0,0.5-0.3,0.8-0.8,0.8h-4.7c-0.5,0-0.8-0.3-0.8-0.8v-4.7c0-0.5,0.3-0.8,0.8-0.8h0.8V53.2h-0.8c-0.5,0-0.8-0.3-0.8-0.8v-4.7
					c0-0.5,0.3-0.8,0.8-0.8h4.7c0.5,0,0.8,0.3,0.8,0.8v0.8h14.7v-0.8c0-0.5,0.3-0.8,0.8-0.8h4.7c0.5,0,0.8,0.3,0.8,0.8v4.7
					c0,0.5-0.3,0.8-0.8,0.8h-0.8v1.6h5.8v-0.8c0-0.5,0.3-0.8,0.8-0.8h4.7c0.5,0,0.8,0.3,0.8,0.8v4.7
					C103.6,59.2,103.4,59.5,102.9,59.5z M70,51.1V49h-2.1v2.1H70z M70,67.9v-2.1h-2.1v2.1H70z M72.1,65.2h14.7v-0.8
					c0-0.5,0.3-0.8,0.8-0.8h0.8V53.2h-0.8c-0.5,0-0.8-0.3-0.8-0.8v-0.8H72.1v0.8c0,0.5-0.3,0.8-0.8,0.8h-0.8v10.5h0.8
					c0.5,0,0.8,0.3,0.8,0.8V65.2z M80.5,74.2v-2.1h-2.1v2.1H80.5z M98.9,70V59.5h-0.8c-0.5,0-0.8-0.3-0.8-0.8v-0.8h-5.8v5.8h0.8
					c0.5,0,0.8,0.3,0.8,0.8v4.7c0,0.5-0.3,0.8-0.8,0.8h-4.7c-0.5,0-0.8-0.3-0.8-0.8v-0.8h-5.8V70h0.8c0.5,0,0.8,0.3,0.8,0.8v0.8
					h14.7v-0.8c0-0.5,0.3-0.8,0.8-0.8H98.9z M88.9,49v2.1H91V49H88.9z M88.9,65.8v2.1H91v-2.1H88.9z M101.5,57.4v-2.1h-2.1v2.1
					H101.5z M101.5,74.2v-2.1h-2.1v2.1H101.5z"/>
			</g>
		</g>
		<g>
			<path class="st5" d="M210.8,45.1h22.5l-2.1,23.2l-9.2,3.1l-9.2-3.1L210.8,45.1z M228.8,52.6l0.3-2.8H215l0.7,8.5h9.8l-0.4,3.6
				l-3.1,0.8l-3.2-0.8l-0.2-2.2h-2.8l0.4,4.4l5.8,1.6h0.1l5.7-1.6l0.8-8.7h-10.3l-0.2-2.9L228.8,52.6L228.8,52.6z"/>
		</g>
		<g>
			<path class="st5" d="M165.4,27.7c0.6,0.5,0.8,1.2,0.8,2v19.5c0,0.8-0.3,1.4-0.8,2c-0.6,0.5-1.2,0.8-2,0.8h-16.9
				c-0.8,0-1.4-0.3-2-0.8c-0.6-0.5-0.8-1.2-0.8-2V24.8c0-0.8,0.3-1.4,0.8-2s1.2-0.8,2-0.8h11.9c0.8,0,1.4,0.3,2,0.8L165.4,27.7z
				 M146.6,49.1h16.9V32.2h-6.1c-0.4,0-0.7-0.1-1-0.4c-0.3-0.3-0.4-0.6-0.4-1v-6.1h-9.4L146.6,49.1
				C146.6,49.1,146.6,49.1,146.6,49.1z M149.3,33.1c0.6-0.5,1.2-0.8,2-0.8s1.4,0.3,2,0.8s0.8,1.2,0.8,2c0,0.8-0.3,1.5-0.8,2
				c-0.6,0.5-1.2,0.8-2,0.8s-1.4-0.3-2-0.8c-0.6-0.5-0.8-1.2-0.8-2S148.7,33.6,149.3,33.1z M148.4,46.3v-3.8l2.3-2.3
				c0.3-0.3,0.6-0.3,0.9,0l2.3,2.3l5.2-5.2c0.3-0.3,0.6-0.3,0.9,0l1.4,1.4v7.5H148.4z M163.2,29.4l-4.4-4.4v4.5
				C158.8,29.4,163.2,29.4,163.2,29.4z"/>
		</g>
		<g>
			<path class="st5" d="M47.5,115c0.5,0.6,0.8,1.2,0.8,2v19.4c0,0.8-0.3,1.4-0.8,2s-1.2,0.8-2,0.8H28.6c-0.8,0-1.5-0.3-2-0.8
				c-0.5-0.6-0.8-1.2-0.8-2v-24.4c0-0.8,0.3-1.4,0.8-2c0.5-0.6,1.2-0.8,2-0.8h12c0.8,0,1.4,0.3,2,0.8L47.5,115z M28.6,136.5h16.9
				v-16.9h-6.1c-0.4,0-0.7-0.1-1-0.4c-0.3-0.3-0.4-0.6-0.4-1v-6.1h-9.4C28.6,112.1,28.6,136.5,28.6,136.5z M45.3,116.8l-4.5-4.4v4.4
				H45.3z"/>
			<polygon class="st7" points="41.6,128.8 49.6,120.9 52.9,124.2 45,132.2 41.6,132.2 			"/>
		</g>
		<g>
			<path class="st5" d="M51.2,190.1c0.5,0.6,0.8,1.2,0.8,2v15.7c0,0.8-0.3,1.4-0.8,2c-0.5,0.6-1.2,0.8-2,0.8H28.6
				c-0.8,0-1.5-0.3-2-0.8c-0.5-0.6-0.8-1.2-0.8-2v-20.6c0-0.8,0.3-1.4,0.8-2s1.2-0.8,2-0.8h15.7c0.8,0,1.4,0.3,2,0.8L51.2,190.1z
				 M48.9,207.8c0.2,0,0.3-0.1,0.3-0.4v-15.2c0-0.1,0-0.2-0.1-0.2l-4.6-4.6v5.9c0,0.4-0.1,0.7-0.4,1c-0.3,0.3-0.6,0.4-1,0.4H32.8
				c-0.4,0-0.7-0.1-1-0.4c-0.3-0.3-0.4-0.6-0.4-1v-6.1H29c-0.2,0-0.4,0.1-0.4,0.4v19.9c0,0.2,0.1,0.4,0.4,0.4L48.9,207.8L48.9,207.8
				z M35.3,197.6c1-1,2.2-1.5,3.6-1.5s2.6,0.5,3.6,1.5c1,1,1.5,2.2,1.5,3.6s-0.5,2.6-1.5,3.6c-1,1-2.2,1.5-3.6,1.5s-2.6-0.5-3.6-1.5
				c-1-1-1.5-2.2-1.5-3.6S34.3,198.6,35.3,197.6z M41.8,187.1h-7.5v4.7h7.5V187.1z M37.3,202.9c0.5,0.4,1,0.7,1.7,0.7
				c0.7,0,1.2-0.2,1.7-0.7c0.5-0.4,0.7-1,0.7-1.7c0-0.7-0.2-1.2-0.7-1.7c-0.5-0.4-1-0.7-1.7-0.7c-0.7,0-1.2,0.2-1.7,0.7
				c-0.5,0.4-0.7,1-0.7,1.7C36.6,201.9,36.8,202.4,37.3,202.9z"/>
		</g>
		<g>
			<path class="st5" d="M79.3,245.6c0.6,0.6,0.8,1.2,0.8,2V267c0,0.8-0.3,1.4-0.8,2s-1.2,0.8-2,0.8H60.4c-0.8,0-1.5-0.3-2-0.8
				c-0.5-0.5-0.8-1.2-0.8-2v-24.4c0-0.8,0.3-1.4,0.8-2c0.5-0.6,1.2-0.8,2-0.8h12c0.8,0,1.4,0.3,2,0.8L79.3,245.6z M77.3,267v-16.9
				h-6.1c-0.4,0-0.7-0.1-1-0.4c-0.3-0.3-0.4-0.6-0.4-1v-6.1h-9.4V267H77.3z M66.4,260.3c0.2,0.2,0.2,0.5,0,0.8l-1,1
				c-0.1,0.1-0.2,0.2-0.4,0.2c-0.1,0-0.2-0.1-0.3-0.2l-3.3-3.2c-0.3-0.2-0.3-0.5,0-0.7l3.3-3.2c0.3-0.3,0.5-0.3,0.8,0l1,1v0.1
				c0.2,0.2,0.2,0.5,0,0.7l-1.9,1.7L66.4,260.3z M69.9,252.4l1.4,0.4c0.3,0.1,0.5,0.3,0.3,0.6l-3.2,11c-0.1,0.4-0.3,0.5-0.6,0.4
				l-1.4-0.4c-0.3-0.1-0.5-0.3-0.3-0.6l3.2-11C69.4,252.4,69.6,252.3,69.9,252.4z M71.3,256.9c-0.2-0.2-0.2-0.5,0-0.8l1-1.1
				c0.2-0.3,0.5-0.3,0.8,0l3.3,3.2c0.3,0.2,0.3,0.5,0,0.7l-3.3,3.2c-0.3,0.3-0.5,0.3-0.8,0l-1-1V261c-0.2-0.2-0.2-0.5,0-0.7l1.9-1.7
				L71.3,256.9z M72.6,242.9v4.4h4.4L72.6,242.9z"/>
		</g>
	</g>
</g>
<g>
	<path class="st3" d="M276.9,129.5c-0.6,0-1.2-0.2-1.8-0.5l-5.5-3.3c-0.8-0.5-0.4-0.6-0.2-0.7c1.1-0.4,1.3-0.5,2.5-1.1
		c0.1-0.1,0.3,0,0.4,0l4.2,2.5c0.2,0.1,0.4,0.1,0.5,0l16.6-9.6c0.2-0.1,0.2-0.2,0.2-0.5V97.2c0-0.2-0.1-0.4-0.2-0.5l-16.6-9.6
		c-0.2-0.1-0.4-0.1-0.5,0L260,96.8c-0.2,0.1-0.2,0.3-0.2,0.5v19.2c0,0.2,0.1,0.4,0.2,0.5l4.5,2.6c2.5,1.2,4-0.2,4-1.7V98.9
		c0-0.2,0.2-0.5,0.5-0.5h2.1c0.2,0,0.5,0.2,0.5,0.5v18.9c0,3.3-1.8,5.2-4.9,5.2c-1,0-1.7,0-3.8-1l-4.4-2.5c-1.1-0.6-1.8-1.8-1.8-3
		V97.3c0-1.2,0.7-2.4,1.8-3l16.6-9.6c1-0.6,2.5-0.6,3.5,0l16.6,9.6c1.1,0.6,1.8,1.8,1.8,3v19.2c0,1.2-0.7,2.4-1.8,3l-16.6,9.6
		C278.1,129.4,277.5,129.5,276.9,129.5L276.9,129.5z M282,116.3c-7.3,0-8.8-3.3-8.8-6.2c0-0.2,0.2-0.5,0.5-0.5h2.2
		c0.2,0,0.5,0.2,0.5,0.4c0.3,2.2,1.3,3.3,5.7,3.3c3.5,0,5-0.8,5-2.7c0-1.1-0.4-1.9-5.9-2.4c-4.5-0.5-7.4-1.5-7.4-5.1
		c0-3.4,2.8-5.4,7.6-5.4c5.3,0,8,1.8,8.3,5.8c0,0.1,0,0.2-0.1,0.4c-0.1,0.1-0.2,0.2-0.3,0.2h-2.2c-0.2,0-0.4-0.2-0.5-0.4
		c-0.5-2.3-1.8-3-5.2-3c-3.8,0-4.3,1.3-4.3,2.3c0,1.2,0.5,1.6,5.7,2.2c5.1,0.7,7.5,1.6,7.5,5.2C290.3,114.2,287.3,116.3,282,116.3
		L282,116.3z"/>
</g>
</svg>
