<?xml version="1.0" standalone="no"?>
<!DOCTYPE svg PUBLIC "-//W3C//DTD SVG 20010904//EN"
 "http://www.w3.org/TR/2001/REC-SVG-20010904/DTD/svg10.dtd">
<svg version="1.0" xmlns="http://www.w3.org/2000/svg"
 width="700.000000pt" height="700.000000pt" viewBox="0 0 700.000000 700.000000"
 preserveAspectRatio="xMidYMid meet">
<metadata>
Created by potrace 1.11, written by Peter Selinger 2001-2013
</metadata>
<g transform="translate(0.000000,700.000000) scale(0.100000,-0.100000)"
fill="#000000" stroke="none">
<path d="M2497 6857 c-43 -71 -92 -157 -157 -272 -40 -71 -80 -138 -88 -147
-8 -10 -12 -18 -8 -18 4 0 -1 -12 -12 -27 -11 -16 -56 -93 -102 -173 -46 -80
-144 -251 -218 -380 -74 -129 -170 -296 -212 -370 -42 -74 -138 -241 -212
-370 -74 -129 -146 -255 -160 -280 -14 -25 -103 -180 -198 -345 -95 -165 -184
-320 -198 -345 -14 -25 -85 -148 -157 -275 -73 -126 -142 -246 -153 -266 -11
-20 -26 -45 -32 -55 -10 -16 -7 -28 18 -70 16 -27 40 -70 54 -95 14 -24 98
-172 188 -329 89 -157 174 -305 188 -330 14 -25 114 -200 222 -390 108 -190
208 -365 222 -390 106 -188 139 -247 147 -260 17 -25 216 -374 220 -385 2 -5
15 -27 28 -47 13 -21 36 -62 52 -90 16 -29 71 -127 123 -218 52 -91 106 -185
120 -210 144 -256 324 -568 335 -582 13 -15 163 -16 1964 -16 1072 0 1949 2
1949 4 0 2 -68 122 -151 266 -84 145 -161 279 -172 298 -11 19 -107 188 -215
375 -107 187 -204 355 -214 374 -124 219 -223 381 -236 385 -9 3 -448 4 -975
3 l-958 -2 -261 450 c-144 247 -357 614 -474 815 -117 201 -218 377 -224 391
-10 22 -7 32 19 78 17 29 46 80 65 114 19 34 63 114 98 177 36 63 79 140 95
170 74 132 144 256 152 270 6 8 20 33 32 55 27 51 242 436 324 580 34 61 75
133 90 160 50 91 79 140 86 145 4 3 438 5 965 5 l957 0 23 35 c49 77 914 1591
914 1602 0 4 -866 7 -1925 7 l-1925 0 -13 -22z"/>
<path d="M3522 4693 c-66 -115 -209 -361 -317 -548 -109 -187 -206 -353 -215
-370 -9 -16 -49 -86 -88 -154 -39 -68 -70 -126 -68 -130 2 -3 28 -47 58 -96
30 -50 66 -111 80 -135 14 -25 106 -180 203 -345 98 -165 188 -319 201 -342
31 -54 202 -343 214 -363 6 -8 18 -30 27 -48 l17 -32 810 2 810 3 278 475
c153 261 332 569 399 683 l121 209 -228 396 c-125 219 -239 420 -255 447 -15
28 -92 163 -171 300 l-143 250 -806 3 -807 2 -120 -207z"/>
</g>
</svg>
