<?xml version="1.0" encoding="utf-8"?>
<!-- Generator: Adobe Illustrator 25.0.1, SVG Export Plug-In . SVG Version: 6.00 Build 0)  -->
<svg version="1.1" id="Layer_1" xmlns="http://www.w3.org/2000/svg" xmlns:xlink="http://www.w3.org/1999/xlink" x="0px" y="0px"
	 viewBox="0 0 277 277" style="enable-background:new 0 0 277 277;" xml:space="preserve">
<style type="text/css">
	.st0{fill:#055BA3;}
	.st1{clip-path:url(#SVGID_2_);fill-rule:evenodd;clip-rule:evenodd;fill:#055BA3;}
	.st2{clip-path:url(#SVGID_2_);fill:#FDFEFF;}
</style>
<g>
	<g>
		<path class="st0" d="M35.42,37.87h9.09l11.07,47.5l12.97-47.5h9.09l13.05,47.5l11.07-47.5h9.09L95.22,98.33h-9.09L73.08,50.18
			L59.45,98.33h-9.09L35.42,37.87z"/>
	</g>
	<g>
		<defs>
			<rect id="SVGID_1_" x="1" y="1" width="275" height="275"/>
		</defs>
		<clipPath id="SVGID_2_">
			<use xlink:href="#SVGID_1_"  style="overflow:visible;"/>
		</clipPath>
		<path class="st1" d="M86.87,181.52c0-26.24,9.21-48.58,27.63-67.02c18.3-18.42,40.64-27.63,67.02-27.63
			c25.99,0,48.27,9.21,66.83,27.63c18.54,18.43,27.82,40.77,27.82,67.02c0,26.13-9.28,48.4-27.82,66.83
			c-18.56,18.55-40.84,27.83-66.83,27.83c-26.38,0-48.72-9.28-67.02-27.83C96.08,229.92,86.87,207.65,86.87,181.52"/>
		<path class="st1" d="M276.17,181.52h-11.09V21.81c0-4.08-1.46-6.82-4.39-8.22c-1.01-0.51-2.19-0.89-3.53-1.14l-1.63-0.19H21.64
			c-4.15,0-6.88,1.43-8.22,4.29c-0.83,1.66-1.28,3.41-1.33,5.26v233.71c0,4.07,1.43,6.79,4.3,8.13c1.65,0.82,3.41,1.31,5.25,1.43
			h155.01l4.87,11.09H18.2c-2.87,0-5.73-0.7-8.59-2.11c-5.74-2.86-8.6-7.89-8.6-15.1V18.37c0-2.87,0.73-5.73,2.2-8.6
			c2.87-5.74,7.87-8.6,15-8.6h240.78l2.67,0.28c2.17,0.32,4.15,0.96,5.93,1.92c5.73,2.86,8.6,7.87,8.6,15V181.52z"/>
		<rect x="123.44" y="134.36" class="st2" width="115.16" height="8.6"/>
		<rect x="123.44" y="164.15" class="st2" width="115.16" height="8.6"/>
		<rect x="123.44" y="192.94" class="st2" width="78.76" height="8.6"/>
		<rect x="123.44" y="222.72" class="st2" width="41.96" height="8.6"/>
	</g>
</g>
<g>
</g>
<g>
</g>
<g>
</g>
<g>
</g>
<g>
</g>
</svg>
