<?xml version="1.0" encoding="utf-8"?>
<!-- Generator: Adobe Illustrator 25.2.0, SVG Export Plug-In . SVG Version: 6.00 Build 0)  -->
<svg version="1.1" id="NET" xmlns="http://www.w3.org/2000/svg" xmlns:xlink="http://www.w3.org/1999/xlink" x="0px" y="0px"
	 viewBox="0 0 512 512" style="enable-background:new 0 0 512 512;" xml:space="preserve">
<style type="text/css">
	.st0{fill:#9DC825;}
</style>
<g id="theme">
	<g>
		<path class="st0" d="M172.3,413.2H75.7c-10.4,0-18.6-8.2-18.6-18.6V117.4c0-10.4,8.2-18.6,18.6-18.6h96.6
			c4.5-16.8,14.1-31.8,26.7-43.1H75.7c-34.5,0-62.2,27.7-62.2,61.7v277.3c0,34,27.7,61.7,62.2,61.7h123.4
			C186.4,445,176.8,430,172.3,413.2z M168.7,129.6h-59c-12.3,0-21.8,9.6-21.8,21.8c0,11.7,9.6,21.8,21.8,21.8h59V129.6z M87.9,231.7
			c0,11.7,9.6,21.8,21.8,21.8h59v-43.1h-59C97.8,210,87.9,219.4,87.9,231.7z M402.3,129.6h-112c-12.3,0-21.8,9.6-21.8,21.8
			c0,11.7,9.6,21.8,21.8,21.8h112c12.3,0,21.8-9.6,21.8-21.8C424.1,139.6,414.2,129.6,402.3,129.6z M436.4,55.7H255.7
			c-34.5,0-62.2,27.7-62.2,61.7v277.3c0,34,27.7,61.7,62.2,61.7h180.5c34.5,0,62.2-27.7,62.2-61.7V117.4
			C499,83.4,470.8,55.7,436.4,55.7z M455.4,394.6c0,10.4-8.2,18.6-18.6,18.6H256.3c-10.4,0-18.6-8.2-18.6-18.6V117.4
			c0-10.4,8.2-18.6,18.6-18.6h180.5c10.4,0,18.6,8.2,18.6,18.6V394.6z M402.3,210h-112c-12.3,0-21.8,9.6-21.8,21.8
			c0,11.7,9.6,21.8,21.8,21.8h112c12.3,0,21.8-9.6,21.8-21.8C424.1,219.4,414.2,210,402.3,210z"/>
	</g>
</g>
</svg>
