<?xml version="1.0" encoding="utf-8"?>
<!-- Generator: Adobe Illustrator 25.0.1, SVG Export Plug-In . SVG Version: 6.00 Build 0)  -->
<svg xmlns="http://www.w3.org/2000/svg" xmlns:xlink="http://www.w3.org/1999/xlink" version="1.1" id="Layer_1" x="0px" y="0px" viewBox="0 0 335 283" style="enable-background:new 0 0 335 283;" xml:space="preserve">
<style type="text/css">
	.st0{fill:#EEEEEE;}
	
		.st1{fill:none;stroke:#EEEEEE;stroke-width:3;stroke-linecap:round;stroke-linejoin:round;stroke-miterlimit:10;stroke-dasharray:6,8;}
	.st2{fill:none;stroke:#EEEEEE;stroke-width:3;stroke-linecap:round;stroke-linejoin:round;}
	.st3{fill:none;stroke:#EEEEEE;stroke-width:3;stroke-linecap:round;stroke-linejoin:round;stroke-dasharray:6.5303,8.7071;}
	.st4{fill:none;stroke:#EEEEEE;stroke-width:3;stroke-linecap:round;stroke-linejoin:round;stroke-dasharray:5.6936,7.5915;}
	.st5{fill:#68217A;}
	.st6{fill:#DE4444;}
	.st7{fill:#FFFFFF;}
	.st8{fill:#004482;}
	.st9{fill:#3F99D4;}
	.st10{fill:#575756;}
</style>
<g id="Aspose.TeX">
	<polygon class="st0" points="145.95,268.96 33,260.96 33,114.39 145.95,114.39  "/>
	<polygon class="st0" points="151.95,268.96 220.54,260.96 220.54,114.39 151.95,114.39  "/>
	<g id="lines_25_">
		<polyline class="st1" points="234.42,61.5 234.42,96.21 169.2,96.21 169.2,109.98   "/>
		<polyline class="st1" points="293.07,136.85 242.37,136.85 242.37,179.96 218.4,179.96   "/>
		<g>
			<g>
				<line class="st2" x1="102.14" y1="53.78" x2="99.14" y2="53.78"/>
				<line class="st3" x1="90.43" y1="53.78" x2="64.31" y2="53.78"/>
				<polyline class="st2" points="59.95,53.78 56.95,53.78 56.95,56.78     "/>
				<line class="st4" x1="56.95" y1="64.37" x2="56.95" y2="100.43"/>
				<line class="st2" x1="56.95" y1="104.23" x2="56.95" y2="107.23"/>
			</g>
		</g>
	</g>
	<g id="circles_25_">
		<circle class="st5" cx="117.12" cy="54.68" r="33.61"/>
		<circle class="st6" cx="234.42" cy="34.92" r="33.61"/>
		<g id="java_21_">
			<path id="XMLID_177_" class="st7" d="M234.28,19.27c-1.81,1.27-3.86,2.72-4.96,5.11c-1.91,4.17,3.91,8.71,4.16,8.91     c0.06,0.04,0.13,0.07,0.2,0.07c0.07,0,0.15-0.03,0.21-0.07c0.12-0.1,0.15-0.26,0.08-0.39c-0.02-0.04-2.11-4.1-2.03-7.01     c0.03-1.01,1.45-2.16,2.95-3.38c1.38-1.12,2.94-2.38,3.85-3.86c2-3.26-0.22-6.46-0.25-6.49c-0.09-0.12-0.25-0.17-0.39-0.11     s-0.22,0.21-0.18,0.36c0,0.02,0.44,2.14-0.77,4.32C236.63,17.62,235.54,18.38,234.28,19.27z"/>
			<path id="XMLID_176_" class="st7" d="M241.91,20.71c0.13-0.1,0.17-0.27,0.09-0.41s-0.25-0.2-0.4-0.15     c-0.31,0.12-7.54,2.9-7.54,6.27c0,2.32,0.99,3.55,1.71,4.44c0.28,0.35,0.53,0.65,0.61,0.91c0.23,0.75-0.31,2.09-0.54,2.55     c-0.07,0.13-0.03,0.29,0.08,0.39c0.06,0.05,0.13,0.08,0.21,0.08c0.06,0,0.13-0.02,0.18-0.06c0.12-0.09,3.04-2.15,2.51-4.63     c-0.19-0.94-0.66-1.63-1.07-2.24c-0.63-0.94-1.09-1.62-0.4-2.88C238.19,23.52,241.88,20.74,241.91,20.71z"/>
			<path id="XMLID_175_" class="st7" d="M223.1,34.84c-0.12,0.37-0.07,0.74,0.17,1.06c0.78,1.09,3.56,1.69,7.81,1.69l0,0     c0.58,0,1.19-0.01,1.81-0.03c6.8-0.24,9.33-2.36,9.43-2.45c0.11-0.1,0.14-0.26,0.07-0.39c-0.07-0.13-0.22-0.2-0.37-0.16     c-2.4,0.65-6.87,0.89-9.98,0.89c-3.47,0-5.24-0.25-5.67-0.43c0.22-0.31,1.59-0.85,3.29-1.18c0.16-0.03,0.27-0.18,0.26-0.35     c-0.02-0.16-0.15-0.29-0.32-0.29C228.61,33.18,223.62,33.26,223.1,34.84z"/>
			<path id="XMLID_174_" class="st7" d="M245.87,32.66c-1.4,0-2.73,0.7-2.79,0.73c-0.13,0.07-0.2,0.22-0.16,0.36     s0.16,0.24,0.31,0.24c0.03,0,2.99,0.02,3.26,1.72c0.24,1.46-2.8,3.83-4,4.62c-0.13,0.09-0.18,0.25-0.12,0.39     c0.05,0.12,0.17,0.2,0.3,0.2c0.02,0,0.04,0,0.07-0.01c0.28-0.06,6.92-1.52,6.22-5.39C248.53,33.16,247.04,32.66,245.87,32.66z"/>
			<path id="XMLID_173_" class="st7" d="M241.32,39.86c0.02-0.12-0.03-0.25-0.13-0.32l-1.59-1.11c-0.08-0.05-0.18-0.07-0.27-0.05     c-0.02,0-1.68,0.44-4.1,0.71c-0.96,0.11-2.03,0.16-3.11,0.16c-2.42,0-4-0.28-4.23-0.49c-0.03-0.06-0.02-0.09-0.02-0.1     c0.04-0.12,0.27-0.25,0.41-0.31c0.16-0.06,0.25-0.23,0.2-0.39s-0.22-0.26-0.38-0.22c-1.6,0.39-2.38,0.92-2.32,1.6     c0.1,1.2,2.88,1.82,5.23,1.98c0.34,0.02,0.7,0.03,1.09,0.03l0,0c3.91,0,8.92-1.23,8.97-1.24     C241.2,40.08,241.29,39.98,241.32,39.86z"/>
			<path id="XMLID_172_" class="st7" d="M229.31,42.44c0.12-0.08,0.17-0.23,0.13-0.36c-0.04-0.14-0.17-0.23-0.32-0.23     c-0.21,0.01-2.09,0.09-2.23,1.29c-0.04,0.36,0.06,0.68,0.3,0.97c0.68,0.8,2.5,1.28,5.57,1.45c0.36,0.02,0.73,0.03,1.1,0.03     c3.91,0,6.54-1.22,6.65-1.27s0.18-0.16,0.18-0.27c0.01-0.12-0.05-0.23-0.15-0.29l-2.01-1.23c-0.07-0.04-0.15-0.06-0.23-0.04     c-0.01,0-1.29,0.27-3.22,0.53c-0.36,0.05-0.82,0.07-1.36,0.07c-1.93,0-4.07-0.31-4.48-0.52     C229.25,42.53,229.26,42.48,229.31,42.44z"/>
			<path id="XMLID_171_" class="st7" d="M232.06,49.28c8.95-0.01,13.75-1.6,14.67-2.6c0.33-0.35,0.36-0.69,0.33-0.91     c-0.07-0.54-0.56-0.87-0.62-0.9c-0.13-0.09-0.31-0.06-0.42,0.06c-0.1,0.12-0.11,0.3,0,0.42c0.06,0.07,0.09,0.19-0.08,0.36     c-0.37,0.35-4.1,1.39-10.31,1.71c-0.85,0.04-1.74,0.07-2.65,0.07c-5.56,0-9.63-0.76-10.16-1.21c0.21-0.3,1.65-0.77,3.18-1.04     c0.17-0.03,0.29-0.19,0.26-0.37s-0.19-0.29-0.36-0.27c-0.04,0.01-0.19,0.01-0.36,0.03c-2.53,0.15-5.44,0.5-5.6,1.8     c-0.05,0.4,0.07,0.76,0.35,1.07C220.98,48.26,222.94,49.28,232.06,49.28L232.06,49.28z"/>
			<path id="XMLID_170_" class="st7" d="M248.49,46.97c-0.13-0.06-0.28-0.03-0.37,0.07c-0.01,0.01-1.36,1.42-5.4,2.25     c-1.55,0.31-4.45,0.47-8.64,0.47s-8.18-0.16-8.22-0.17c-0.17-0.01-0.31,0.11-0.33,0.28c-0.02,0.16,0.08,0.32,0.24,0.36     c0.04,0.01,4.22,0.99,9.94,0.99c2.74,0,5.41-0.22,7.93-0.66c4.7-0.82,5.03-3.15,5.04-3.25     C248.69,47.16,248.61,47.02,248.49,46.97z"/>
		</g>
		<path id="NET_25_" class="st7" d="M126.39,51.65h4.7v14.57H133V51.65h4.7v-1.73h-11.31V51.65z M117.86,58.8h5.89v-1.73h-5.89    v-5.42h6.36v-1.73h-8.27v16.3h8.64v-1.73h-6.72L117.86,58.8L117.86,58.8z M110.44,61.41l0.11,2.4h-0.05    c-0.11-0.22-0.34-0.58-0.66-1.09l-8.16-12.79H99.2v16.3h1.91V54.45l-0.09-2.24h0.07c0.14,0.37,0.31,0.71,0.51,1.02l8.41,12.99    h2.32v-16.3h-1.9L110.44,61.41L110.44,61.41z M95.15,63.92c-0.35,0-0.64,0.12-0.89,0.38c-0.24,0.25-0.36,0.55-0.36,0.91    c0,0.34,0.13,0.66,0.36,0.9c0.24,0.25,0.54,0.38,0.89,0.38c0.36,0,0.66-0.13,0.91-0.38s0.38-0.56,0.38-0.91s-0.13-0.65-0.38-0.91    c-0.24-0.25-0.57-0.39-0.91-0.38 M133.02,46.66c0,0.87,0.39,1.31,1.16,1.31c0.28,0,0.5-0.05,0.67-0.14v-0.61    c-0.13,0.1-0.3,0.15-0.46,0.14c-0.24,0-0.4-0.06-0.51-0.19c-0.1-0.12-0.15-0.34-0.15-0.63v-2.5h1.12v-0.6h-1.11v-1.31l-0.71,0.23    v1.08h-0.76v0.6h0.76v2.63L133.02,46.66z M130.12,47.87h0.71v-3.83h1.04v-0.6h-1.04v-0.68c0-0.63,0.25-0.94,0.74-0.94    c0.16,0,0.33,0.04,0.47,0.12V41.3c-0.13-0.06-0.3-0.08-0.52-0.08c-0.38,0-0.7,0.11-0.96,0.36c-0.3,0.28-0.45,0.66-0.45,1.15v0.72    h-0.75v0.6h0.75v3.84L130.12,47.87z M125.27,45.67c0-0.57,0.14-1,0.42-1.31c0.27-0.29,0.62-0.43,1.06-0.43    c0.45,0,0.8,0.14,1.05,0.43c0.26,0.3,0.39,0.73,0.39,1.3c0,0.54-0.11,0.97-0.36,1.26c-0.24,0.3-0.6,0.45-1.07,0.45    c-0.45,0-0.81-0.15-1.08-0.45C125.4,46.62,125.27,46.2,125.27,45.67 M128.31,47.33c0.4-0.43,0.6-0.99,0.6-1.7    c0-0.72-0.19-1.28-0.56-1.7c-0.37-0.41-0.89-0.61-1.55-0.61c-0.67,0-1.21,0.2-1.61,0.59c-0.43,0.42-0.65,1.02-0.65,1.79    c0,0.68,0.19,1.22,0.57,1.63c0.39,0.43,0.92,0.64,1.59,0.64C127.38,47.97,127.92,47.76,128.31,47.33 M123.43,47.58    c0.27-0.22,0.42-0.56,0.41-0.9c0-0.33-0.11-0.6-0.33-0.81c-0.17-0.17-0.44-0.33-0.82-0.49c-0.34-0.14-0.56-0.27-0.67-0.37    c-0.12-0.11-0.18-0.26-0.18-0.46c0-0.18,0.07-0.33,0.21-0.45s0.33-0.17,0.57-0.17c0.38,0,0.71,0.11,1.01,0.32v-0.72    c-0.28-0.14-0.6-0.21-0.95-0.21c-0.45,0-0.84,0.12-1.13,0.37s-0.44,0.55-0.44,0.92c0,0.33,0.09,0.6,0.28,0.8    c0.16,0.17,0.42,0.34,0.79,0.5c0.36,0.16,0.6,0.29,0.73,0.41s0.19,0.26,0.19,0.43c0,0.41-0.28,0.62-0.85,0.62    c-0.42,0-0.81-0.14-1.15-0.43v0.76c0.31,0.18,0.68,0.27,1.1,0.27C122.72,47.97,123.13,47.84,123.43,47.58 M117.09,44.36    c0.26-0.29,0.63-0.43,1.06-0.43c0.45,0,0.8,0.14,1.05,0.43c0.26,0.3,0.38,0.73,0.38,1.3c0,0.54-0.11,0.97-0.36,1.26    c-0.24,0.3-0.6,0.45-1.07,0.45c-0.45,0-0.81-0.15-1.08-0.45s-0.4-0.71-0.4-1.25C116.68,45.1,116.82,44.66,117.09,44.36     M118.11,47.97c0.68,0,1.21-0.21,1.61-0.64s0.6-0.99,0.6-1.7c0-0.72-0.19-1.28-0.56-1.7c-0.37-0.41-0.89-0.61-1.55-0.61    c-0.67,0-1.21,0.2-1.61,0.59c-0.43,0.42-0.65,1.02-0.65,1.79c0,0.68,0.19,1.22,0.57,1.63C116.91,47.75,117.44,47.97,118.11,47.97     M114.53,43.59c-0.22,0.17-0.38,0.43-0.48,0.75h-0.02v-0.92h-0.71v4.44h0.71v-2.25c0-0.52,0.11-0.92,0.33-1.21    c0.2-0.26,0.44-0.39,0.73-0.39c0.24,0,0.42,0.05,0.54,0.14v-0.74c-0.1-0.04-0.24-0.06-0.43-0.06    C114.96,43.36,114.73,43.44,114.53,43.59 M111.03,47.97c0.47,0,0.88-0.1,1.22-0.31v-0.67c-0.34,0.25-0.7,0.38-1.09,0.38    c-0.45,0-0.82-0.15-1.1-0.45c-0.27-0.3-0.41-0.71-0.41-1.23c0-0.54,0.15-0.97,0.45-1.29c0.28-0.31,0.65-0.47,1.1-0.47    c0.38,0,0.75,0.12,1.06,0.35v-0.73c-0.3-0.15-0.64-0.23-1.03-0.23c-0.7,0-1.27,0.22-1.68,0.67s-0.63,1.04-0.63,1.76    c0,0.65,0.19,1.18,0.57,1.59C109.88,47.77,110.4,47.98,111.03,47.97 M107.1,47.88h0.71v-4.44h-0.71V47.88L107.1,47.88z     M107.46,42.31c0.12,0,0.24-0.05,0.33-0.14c0.09-0.09,0.14-0.21,0.14-0.33c0-0.12-0.05-0.24-0.14-0.33s-0.21-0.13-0.33-0.13    c-0.13,0-0.24,0.04-0.33,0.13c-0.09,0.09-0.14,0.2-0.14,0.33c0,0.14,0.05,0.25,0.14,0.33C107.22,42.27,107.34,42.31,107.46,42.31     M99.92,43.71l-0.03-1.21h0.02c0.06,0.29,0.13,0.5,0.19,0.64l2.12,4.74h0.36l2.13-4.78c0.05-0.13,0.12-0.33,0.19-0.6h0.02    l-0.06,1.2v4.18h0.73v-6.22h-0.91l-1.95,4.31c-0.08,0.17-0.17,0.42-0.3,0.76h-0.03c-0.05-0.17-0.14-0.42-0.28-0.74l-1.91-4.34    h-0.96v6.22h0.7v-4.16H99.92z M137.28,44.43c-0.2,0.2-0.45,0.3-0.74,0.3c-0.29,0-0.54-0.1-0.74-0.3s-0.31-0.45-0.31-0.75    c0-0.29,0.1-0.54,0.3-0.74c0.2-0.2,0.45-0.3,0.75-0.3c0.28-0.01,0.54,0.1,0.74,0.3s0.31,0.47,0.3,0.75    C137.59,43.99,137.48,44.24,137.28,44.43 M136.55,42.52c-0.32-0.01-0.62,0.11-0.85,0.34c-0.22,0.22-0.35,0.52-0.34,0.84    c0,0.34,0.11,0.61,0.34,0.84s0.51,0.33,0.84,0.33c0.32,0.01,0.62-0.11,0.85-0.34c0.23-0.23,0.34-0.5,0.34-0.84    s-0.11-0.63-0.34-0.84C137.17,42.63,136.87,42.52,136.55,42.52 M136.52,43.61h-0.23V43.1h0.19c0.13,0,0.22,0.02,0.28,0.07    c0.05,0.04,0.07,0.1,0.07,0.19C136.83,43.53,136.73,43.61,136.52,43.61 M136.68,43.75L136.68,43.75c0.12-0.03,0.22-0.08,0.28-0.15    c0.07-0.07,0.1-0.17,0.1-0.26c0-0.11-0.04-0.21-0.12-0.28c-0.1-0.09-0.24-0.13-0.43-0.13h-0.42v1.5h0.21V43.8h0.14    c0.1,0,0.19,0.09,0.27,0.27l0.16,0.36h0.26l-0.2-0.4C136.85,43.86,136.76,43.77,136.68,43.75"/>
		
			<ellipse transform="matrix(0.1602 -0.9871 0.9871 0.1602 116.6638 411.2903)" class="st8" cx="300.04" cy="137.08" rx="33.61" ry="33.61"/>
		<g id="CPP_12_">
			<g>
				<path class="st7" d="M289.97,152.08c-2.83-1.5-5.05-3.6-6.67-6.28c-1.62-2.68-2.43-5.73-2.43-9.12c0-3.4,0.81-6.44,2.43-9.12      c1.62-2.68,3.84-4.78,6.67-6.28s6.02-2.26,9.58-2.26c3.11,0,5.9,0.55,8.39,1.65c2.49,1.1,4.56,2.69,6.21,4.75l-6.11,5.53      c-2.2-2.65-4.87-3.98-8.01-3.98c-1.84,0-3.49,0.4-4.92,1.21c-1.44,0.81-2.56,1.95-3.35,3.42s-1.19,3.16-1.19,5.07      c0,1.91,0.4,3.6,1.19,5.07s1.91,2.61,3.35,3.42s3.08,1.21,4.92,1.21c3.14,0,5.81-1.33,8.01-3.98l6.11,5.53      c-1.65,2.07-3.72,3.66-6.21,4.75c-2.49,1.1-5.29,1.65-8.39,1.65C295.99,154.33,292.8,153.58,289.97,152.08z"/>
			</g>
			<g>
				<path class="st7" d="M315.99,137.73h-2.36v2.31h-2.15v-2.31h-2.38v-2.04h2.38v-2.31h2.15v2.31h2.36V137.73z"/>
				<path class="st7" d="M324.62,137.73h-2.36v2.31h-2.15v-2.31h-2.38v-2.04h2.38v-2.31h2.15v2.31h2.36V137.73z"/>
			</g>
		</g>
	</g>
	<g>
		<g>
			<path class="st9" d="M85.74,218.04H68.38v-50.05H52.69v-14.19h48.69v14.19H85.74V218.04z"/>
		</g>
		<g>
			<path class="st9" d="M111.34,218.61c-5.53,0-9.82-1.47-12.88-4.41c-3.06-2.94-4.58-7.12-4.58-12.55c0-5.61,1.42-9.91,4.25-12.91     c2.83-3,6.87-4.5,12.13-4.5c5,0,8.86,1.3,11.59,3.91s4.09,6.36,4.09,11.26v5.1h-20.48c0.08,1.86,0.76,3.31,2.04,4.37     c1.28,1.05,3.02,1.58,5.23,1.58c2.01,0,3.86-0.19,5.55-0.57c1.69-0.38,3.52-1.03,5.49-1.95v8.23c-1.8,0.92-3.65,1.55-5.57,1.9     C116.28,218.43,113.99,218.61,111.34,218.61z M110.66,192.03c-1.35,0-2.48,0.42-3.38,1.27s-1.44,2.18-1.6,4h9.84     c-0.04-1.6-0.49-2.88-1.36-3.84C113.29,192.51,112.13,192.03,110.66,192.03z"/>
		</g>
	</g>
	<g id="TeX">
		<g>
			<g>
				<path class="st10" d="M195.08,207.18h-16.7v-2.89h1.99c0.61,0,1.09-0.1,1.41-0.29c0.17-0.09,0.3-0.25,0.4-0.49      c0.01-0.04,0.14-0.43,0.14-2.16v-20.52h-0.95c-1.49,0-2.65,0.35-3.36,1.01c-1.01,0.94-1.66,2.33-1.93,4.13l-0.14,0.9h-2.76      v-9.66h27.13v9.66h-2.63l-0.2-0.8c-0.5-2-0.98-2.95-1.3-3.4c-0.43-0.62-1.02-1.1-1.79-1.47c-0.18-0.08-0.89-0.37-2.27-0.37      h-1.01v20.52c0,1.8,0.13,2.21,0.15,2.25c0.06,0.13,0.23,0.29,0.48,0.44c0.2,0.12,0.6,0.26,1.34,0.26h1.99V207.18z       M183.74,205.05h5.95c-0.15-0.19-0.28-0.39-0.37-0.6c-0.16-0.37-0.33-1.02-0.33-3.1v-22.01h-4.54v22.01      c0,2.05-0.16,2.67-0.32,3.03C184.01,204.63,183.88,204.85,183.74,205.05z M195.42,179.34c1.05,0.53,1.89,1.24,2.5,2.11      c0.09,0.13,0.18,0.26,0.26,0.41v-2.52H195.42z M175.31,179.34v2.48c0.36-0.57,0.77-1.08,1.25-1.53c0.41-0.39,0.9-0.7,1.46-0.95      H175.31z"/>
			</g>
			<g>
				<g>
					<polygon class="st10" points="177.63,181.27 174.76,182.23 174.76,178.65 178.41,178.79      "/>
				</g>
				<g>
					<polygon class="st10" points="195.95,181.27 198.82,182.23 198.82,178.65 195.17,178.79      "/>
				</g>
				<g>
					<rect x="184.4" y="179.16" class="st10" width="4.68" height="1.65"/>
				</g>
			</g>
		</g>
		<g>
			<g>
				<g>
					<rect x="159.42" y="164.55" class="st10" width="7.83" height="7.83"/>
					<path class="st10" d="M168.23,173.35h-9.79v-9.79h9.79V173.35z M160.4,171.4h5.87v-5.87h-5.87V171.4z"/>
				</g>
				<g>
					<rect x="159.4" y="211.39" class="st10" width="7.83" height="7.83"/>
					<path class="st10" d="M168.2,220.2h-9.79v-9.79h9.79V220.2z M160.37,218.24h5.87v-5.87h-5.87V218.24z"/>
				</g>
				<g>
					<rect x="206.26" y="164.55" class="st10" width="7.83" height="7.83"/>
					<path class="st10" d="M215.07,173.35h-9.79v-9.79h9.79V173.35z M207.24,171.4h5.87v-5.87h-5.87V171.4z"/>
				</g>
				<g>
					<rect x="206.26" y="211.39" class="st10" width="7.83" height="7.83"/>
					<path class="st10" d="M215.07,220.2h-9.79v-9.79h9.79V220.2z M207.24,218.24h5.87v-5.87h-5.87V218.24z"/>
				</g>
			</g>
			<g>
				<g>
					<g>
						<rect x="169.9" y="166.78" class="st10" width="3.36" height="3.36"/>
					</g>
					<g>
						<rect x="177.49" y="166.78" class="st10" width="3.36" height="3.36"/>
					</g>
					<g>
						<rect x="185.1" y="166.78" class="st10" width="3.36" height="3.36"/>
					</g>
					<g>
						<rect x="192.59" y="166.78" class="st10" width="3.36" height="3.36"/>
					</g>
					<g>
						<rect x="200.31" y="166.78" class="st10" width="3.36" height="3.36"/>
					</g>
				</g>
				<g>
					<g>
						<rect x="169.81" y="213.63" class="st10" width="3.36" height="3.36"/>
					</g>
					<g>
						<rect x="177.4" y="213.63" class="st10" width="3.36" height="3.36"/>
					</g>
					<g>
						<rect x="185" y="213.63" class="st10" width="3.36" height="3.36"/>
					</g>
					<g>
						<rect x="192.5" y="213.63" class="st10" width="3.36" height="3.36"/>
					</g>
					<g>
						<rect x="200.22" y="213.63" class="st10" width="3.36" height="3.36"/>
					</g>
				</g>
				<g>
					<g>
						<rect x="161.66" y="205.37" class="st10" width="3.36" height="3.36"/>
					</g>
					<g>
						<rect x="161.66" y="197.79" class="st10" width="3.36" height="3.36"/>
					</g>
					<g>
						<rect x="161.66" y="190.18" class="st10" width="3.36" height="3.36"/>
					</g>
					<g>
						<rect x="161.66" y="182.68" class="st10" width="3.36" height="3.36"/>
					</g>
					<g>
						<rect x="161.66" y="174.97" class="st10" width="3.36" height="3.36"/>
					</g>
				</g>
				<g>
					<g>
						<rect x="208.5" y="205.34" class="st10" width="3.36" height="3.36"/>
					</g>
					<g>
						<rect x="208.5" y="197.75" class="st10" width="3.36" height="3.36"/>
					</g>
					<g>
						<rect x="208.5" y="190.15" class="st10" width="3.36" height="3.36"/>
					</g>
					<g>
						<rect x="208.5" y="182.65" class="st10" width="3.36" height="3.36"/>
					</g>
					<g>
						<rect x="208.5" y="174.93" class="st10" width="3.36" height="3.36"/>
					</g>
				</g>
			</g>
		</g>
	</g>
</g>
<g>
</g>
<g>
</g>
<g>
</g>
<g>
</g>
<g>
</g>
</svg>
