<?xml version="1.0" encoding="utf-8"?>
<!-- Generator: Adobe Illustrator 25.2.0, SVG Export Plug-In . SVG Version: 6.00 Build 0)  -->
<svg version="1.1" id="Aspose.TEX" xmlns="http://www.w3.org/2000/svg" xmlns:xlink="http://www.w3.org/1999/xlink" x="0px" y="0px"
	 viewBox="0 0 277 277" style="enable-background:new 0 0 277 277;" xml:space="preserve">
<style type="text/css">
	.st0{fill:#FFFFFF;}
	.st1{fill:#0B59A1;}
	.st2{fill-rule:evenodd;clip-rule:evenodd;fill:#0B59A1;}
	.st3{fill:none;stroke:#FFFFFF;stroke-width:3.6835;}
	.st4{fill:none;stroke:#FFFFFF;stroke-width:3.3883;stroke-miterlimit:10;}
</style>
<g id="C_x2B__x2B_">
	<polygon class="st0" points="258.69,10.43 14.56,10.43 9.36,18.22 9.36,257.16 13.91,265.6 179.33,265.6 267.13,172.25 
		267.13,20.82 	"/>
	<g id="Aspose.AutoCad">
		<g>
			<path class="st1" d="M55.37,91.12h-9.23V42.57h-16.6v-7.92h42.42v7.92h-16.6L55.37,91.12L55.37,91.12z"/>
			<path class="st1" d="M92.36,91.89c-6.64,0-11.83-1.94-15.58-5.81c-3.74-3.88-5.62-9.21-5.62-16.01c0-6.98,1.74-12.46,5.21-16.45
				s8.25-5.99,14.32-5.99c5.64,0,10.09,1.71,13.36,5.14c3.27,3.42,4.9,8.14,4.9,14.14v4.9H80.51c0.13,4.15,1.25,7.33,3.36,9.56
				c2.11,2.23,5.08,3.34,8.92,3.34c2.52,0,4.87-0.24,7.04-0.71c2.17-0.48,4.51-1.27,7.01-2.38V89c-2.21,1.06-4.45,1.8-6.72,2.24
				S95.27,91.89,92.36,91.89z M90.71,54.5c-2.88,0-5.19,0.91-6.93,2.74s-2.77,4.49-3.11,8h19.38c-0.05-3.53-0.9-6.2-2.55-8.01
				S93.59,54.5,90.71,54.5z"/>
		</g>
		<g id="Layer_9_143_">
			<g>
				<path class="st2" d="M87.5,179.91c0-25.77,9.04-47.71,27.12-65.8c17.96-18.09,39.87-27.13,65.76-27.13
					c25.51,0,47.37,9.04,65.57,27.13s27.3,40.02,27.3,65.8c0,25.65-9.1,47.52-27.3,65.61c-18.21,18.21-40.06,27.32-65.57,27.32
					c-25.89,0-47.79-9.11-65.76-27.32C96.54,227.43,87.5,205.56,87.5,179.91z"/>
			</g>
		</g>
		<g>
			<g id="Layer_3_97_">
				<g>
					<path class="st2" d="M273.25,179.91h-10.88V23.1c0-4-1.44-6.69-4.31-8.07c-1-0.5-2.16-0.88-3.47-1.13L253,13.71H23.5
						c-4.06,0-6.75,1.4-8.06,4.23c-0.82,1.62-1.25,3.34-1.31,5.16v229.47c0,4,1.4,6.66,4.22,7.97c1.62,0.81,3.34,1.28,5.15,1.4
						h152.1l4.78,10.88H20.12c-2.81,0-5.62-0.69-8.44-2.06c-5.63-2.81-8.44-7.75-8.44-14.82V19.72c0-2.81,0.72-5.63,2.16-8.44
						c2.81-5.63,7.72-8.44,14.72-8.44h236.24l2.62,0.28c2.13,0.31,4.06,0.94,5.82,1.88c5.63,2.81,8.44,7.72,8.44,14.73
						L273.25,179.91L273.25,179.91z"/>
				</g>
			</g>
		</g>
	</g>
	<g>
		<g>
			<path class="st3" d="M199.42,157.07v12.71h-1.25c-0.74-2.93-1.56-5.04-2.46-6.32c-0.9-1.28-2.14-2.3-3.71-3.07
				c-0.88-0.42-2.41-0.8-4.61-0.8h-3.5V196c0,2.4,0.13,3.9,0.4,4.5c0.27,0.6,0.78,1.13,1.56,1.58c0.77,0.45,1.83,0.67,3.17,0.67
				h1.56v1.28h-24.59v-1.28h1.56c1.36,0,2.46-0.24,3.29-0.73c0.6-0.32,1.07-0.88,1.42-1.66c0.25-0.55,0.38-2.01,0.38-4.36v-36.41
				h-3.39c-3.16,0-5.46,0.85-6.89,2.19c-2.01,1.87-3.28,4.54-3.81,8h-1.32v-12.71L199.42,157.07L199.42,157.07z"/>
			<g>
				<polygon class="st0" points="162.95,162.12 158.1,163.74 158.1,157.69 164.26,157.93 				"/>
				<polygon class="st0" points="193.85,162.12 198.7,163.74 198.7,157.69 192.54,157.93 				"/>
				<rect x="174.38" y="158.55" class="st0" width="7.9" height="2.79"/>
			</g>
		</g>
		<g>
			<g>
				<rect x="132.22" y="133.9" class="st4" width="13.21" height="13.21"/>
				<rect x="132.18" y="212.93" class="st4" width="13.21" height="13.21"/>
				<rect x="211.26" y="133.9" class="st4" width="13.21" height="13.21"/>
				<rect x="211.26" y="212.93" class="st4" width="13.21" height="13.21"/>
			</g>
			<g>
				<g>
					<rect x="149.91" y="137.67" class="st0" width="5.66" height="5.66"/>
					<rect x="162.71" y="137.67" class="st0" width="5.66" height="5.66"/>
					<rect x="175.54" y="137.67" class="st0" width="5.66" height="5.66"/>
					<rect x="188.19" y="137.67" class="st0" width="5.66" height="5.66"/>
					<rect x="201.21" y="137.67" class="st0" width="5.66" height="5.66"/>
				</g>
				<g>
					<rect x="149.75" y="216.71" class="st0" width="5.66" height="5.66"/>
					<rect x="162.55" y="216.71" class="st0" width="5.66" height="5.66"/>
					<rect x="175.39" y="216.71" class="st0" width="5.66" height="5.66"/>
					<rect x="188.03" y="216.71" class="st0" width="5.66" height="5.66"/>
					<rect x="201.05" y="216.71" class="st0" width="5.66" height="5.66"/>
				</g>
				<g>
					<rect x="136" y="202.78" class="st0" width="5.66" height="5.66"/>
					<rect x="136" y="189.98" class="st0" width="5.66" height="5.66"/>
					<rect x="136" y="177.15" class="st0" width="5.66" height="5.66"/>
					<rect x="136" y="164.5" class="st0" width="5.66" height="5.66"/>
					<rect x="136" y="151.48" class="st0" width="5.66" height="5.66"/>
				</g>
				<g>
					<rect x="215.03" y="202.73" class="st0" width="5.66" height="5.66"/>
					<rect x="215.03" y="189.93" class="st0" width="5.66" height="5.66"/>
					<rect x="215.03" y="177.09" class="st0" width="5.66" height="5.66"/>
					<rect x="215.03" y="164.45" class="st0" width="5.66" height="5.66"/>
					<rect x="215.03" y="151.43" class="st0" width="5.66" height="5.66"/>
				</g>
			</g>
		</g>
	</g>
</g>
</svg>
