<?xml version="1.0" encoding="utf-8"?>
<!-- Generator: Adobe Illustrator 25.2.0, SVG Export Plug-In . SVG Version: 6.00 Build 0)  -->
<svg version="1.1" id="Layer_1" xmlns="http://www.w3.org/2000/svg" xmlns:xlink="http://www.w3.org/1999/xlink" x="0px" y="0px"
	 viewBox="0 0 320 320" style="enable-background:new 0 0 320 320;" xml:space="preserve">
<style type="text/css">
	.st0{fill:none;stroke:#EFEFEF;stroke-linecap:round;stroke-linejoin:round;stroke-miterlimit:10;stroke-dasharray:4,8;}
	.st1{fill-rule:evenodd;clip-rule:evenodd;fill:#FFFFFF;}
	.st2{fill-rule:evenodd;clip-rule:evenodd;fill:#A4C547;}
	.st3{fill:#A4C547;}
	.st4{fill:#EFEFEF;}
	.st5{fill:#DEDFDF;}
	.st6{fill:#4296D2;}
	.st7{fill:#0866AA;}
	.st8{fill:#2178BD;}
	.st9{fill:#4096D2;}
	.st10{display:none;fill:#FFFFFF;}
	.st11{fill:#4296D2;stroke:#EFEFEF;stroke-miterlimit:10;}
</style>
<circle class="st0" cx="154.2" cy="163.2" r="123.7"/>
<g id="_x2E_NET">
	<path id="XMLID_8_" class="st1" d="M227.6,154c-19.6,0-36.3,6.9-50,20.7c-13.8,13.7-20.7,30.3-20.7,49.9s6.9,36.2,20.7,49.8
		c5.1,5.2,10.5,9.3,16.4,12.6h-85.8c-1.4-0.1-2.7-0.5-4-1.2c-2.1-1-3.2-3-3.2-6V105.5c0.2-1.5,0.5-2.9,1-4c1.1-2.1,3.2-3.2,6.2-3.2
		h174.6l1.2,0.3c1,0.2,1.9,0.4,2.7,0.8c2.2,1,3.3,3.1,3.3,6.2v85.8c-3.2-5.9-7.4-11.4-12.6-16.6C263.5,160.9,246.9,154,227.6,154z"
		/>
	<g>
		<path id="XMLID_2_" class="st2" d="M227.6,154c19.4,0,36,6.9,49.8,20.7c5.2,5.1,9.3,10.6,12.6,16.6v-85.8c0-3.1-1.1-5.1-3.3-6.2
			c-0.8-0.3-1.7-0.6-2.7-0.8l-1.2-0.3H108.2c-3,0-5.1,1.1-6.2,3.2c-0.5,1.1-0.9,2.4-1,4v174.4c0,3,1.1,5,3.2,6
			c1.3,0.7,2.6,1.1,4,1.2H194c-5.9-3.2-11.4-7.4-16.4-12.6c-13.8-13.6-20.7-30.2-20.7-49.8s6.9-36.3,20.7-49.9
			C191.3,160.9,207.9,154,227.6,154z M287.4,90.4c1.9,0.3,3.3,0.8,4.4,1.4c4.3,2.1,6.4,5.8,6.4,11.2v121.7
			c0,19.5-6.9,36.1-20.8,49.8c-13.9,13.9-30.5,20.8-49.8,20.8H105.6c-2.1,0-4.2-0.5-6.4-1.5c-4.3-2.2-6.4-6-6.4-11.3V102.9
			c0-2.1,0.6-4.3,1.7-6.4c2.1-4.3,5.8-6.4,11.2-6.4h179.7L287.4,90.4z"/>
		<g>
			<path class="st2" d="M254.6,187.1c0,25.1,0,49.6,0,74.4c-1.3,0.1-2.4,0.2-3.5,0.2c-18.5,0-37,0-55.5,0c-5.2,0-5.8-0.6-5.8-5.7
				c0-21.1,0-42.2,0-63.3c0-4.9,0.7-5.6,5.5-5.6c18.5,0,37,0,55.6,0C251.9,187.1,253,187.1,254.6,187.1z M244,213
				c-14.6,0-29.1,0-43.7,0c0,0.9,0.1,1.6,0.1,2.4c14.6,0,28.9,0,43.5,0C243.9,214.5,244,213.9,244,213z"/>
			<path class="st2" d="M257.4,230.6c2.6,0,4.6,0,6.7,0c0.4,10.5,0.4,11.5-6.7,11.4c0-1.9,0-3.8,0-5.7
				C257.4,234.5,257.4,232.7,257.4,230.6z"/>
			<path class="st2" d="M257.5,203.6c0-3.9,0-7.6,0-11.4c2.3,0,4.4,0,6.5,0C264,201.5,264.5,203.2,257.5,203.6z"/>
			<path class="st2" d="M257.7,211.3c2.2,0,4.2,0,6.1,0c0.2,9.5,0.7,11.2-6.1,11.5C257.7,219,257.7,215.1,257.7,211.3z"/>
		</g>
		<g>
			<path class="st3" d="M155,160.7H146l-21.9-35.5h-0.2l0.2,2c0.3,3.8,0.4,7.2,0.4,10.3v23.1h-6.6v-44.5h8.8l21.8,35.3h0.2
				c0-0.5-0.1-2.2-0.2-5.1s-0.2-5.2-0.2-6.9v-23.3h6.7V160.7z"/>
		</g>
	</g>
	<g>
		<g>
			<rect x="200.3" y="213" class="st1" width="43.6" height="2.4"/>
			<rect x="200.3" y="222.6" class="st1" width="43.6" height="2.4"/>
			<rect x="200.3" y="232.3" class="st1" width="43.6" height="2.4"/>
			<rect x="200.4" y="242" class="st1" width="43.6" height="2.4"/>
			<rect x="200.3" y="203.2" class="st1" width="43.6" height="2.4"/>
			<path class="st1" d="M257.5,184.6c0.1,1.5,0,2.8,0.1,4.4c3,0,5.9,0,9.3,0c0,4.4,0.3,8.6-0.1,12.7c-0.3,2.8-2.6,4.4-5.5,4.7
				c-1.3,0.1-2.5,0.2-3.8,0.3c0,0.5,0.1,1.7,0,2.2c3.4,0.1,6.1-0.2,9.5,0.1c0,3.4,0,6.8,0,10.1c-0.1,4.3-1.7,5.9-6.3,6.6
				c-1.1,0.1-2.2,0.2-3.3,0.3c0,0.6,0.2,2.4,0.2,2.9c5.7-0.5,0,0,9.4-0.8c0,4,0.2,7.8-0.1,11.6c0.1,3.7-2.8,5.8-9.5,5.7
				c0,3.1,0,6.2,0,9.4c0,3.1,0,6.1,0,9.5c-1.5,0.1-2.7,0.2-3.9,0.2c-19.4,0-38.8,0-58.2,0c-6.3,0-8.3-1.9-8.3-8.1
				c0-21.5,0-43,0-64.4c0-4.9,2.1-7.4,6.7-7.4c20.8-0.1,41.5,0,62.3,0C256.4,184.5,257.1,184.5,257.5,184.6z M254.6,187.1
				c-1.6,0-2.7,0-3.8,0c-18.5,0-37,0-55.6,0c-4.8,0-5.5,0.7-5.5,5.6c0,21.1,0,42.2,0,63.3c0,5.1,0.6,5.7,5.8,5.7c18.5,0,37,0,55.6,0
				c1.1,0,2.2-0.1,3.5-0.2C254.6,236.7,254.6,212.2,254.6,187.1z M257.4,230.6c0,2.1,0,3.9,0,5.7c0,1.9,0,3.9,0,5.7
				c7.1,1,7.8-1,6.7-11.4C262.1,230.6,260,230.6,257.4,230.6z M257.6,203.6c6.9,0.4,8.2-2,6.5-11.4c-2.1,0-4.2,0-6.5,0
				C257.6,196,257.6,199.7,257.6,203.6z M257.7,211.3c0,3.9,0,7.7,0,11.5c6.7,0.6,8.6-3.1,6.1-11.5
				C261.9,211.3,260,211.3,257.7,211.3z"/>
		</g>
	</g>
</g>
<g>
	<path class="st4" d="M274.8,142c-19,0-34.5-15.5-34.5-34.5S255.8,73,274.8,73s34.5,15.5,34.5,34.5S293.9,142,274.8,142z"/>
	<path class="st5" d="M274.8,74.4c18.2,0,33,14.8,33,33s-14.8,33-33,33s-33-14.8-33-33S256.6,74.4,274.8,74.4 M274.8,71.4
		c-19.9,0-36,16.1-36,36s16.1,36,36,36s36-16.1,36-36S294.7,71.4,274.8,71.4L274.8,71.4z"/>
</g>
<g>
	<g>
		<polygon class="st6" points="212.9,47.1 231.2,48.2 229.8,65.2 222.6,70.2 215.4,66.7 		"/>
		<polygon class="st6" points="159.3,50.4 163.4,50.4 164.8,47.1 165.4,27.7 158.8,23.9 146.3,23.9 145.3,38.1 145.8,50 		"/>
		<polygon class="st6" points="89,54.9 82.1,48.7 70.4,49.1 69.9,74.9 70.7,75.8 89,75.8 		"/>
		<polygon class="st6" points="51,191.1 44.9,185.6 28.7,185.3 27.2,187.1 27.2,208.7 50.5,209.1 		"/>
		<polygon class="st6" points="78.8,247.1 72.8,241.1 58.4,240.7 59,268 77.7,268 		"/>
	</g>
	<g>
		<g>
			<path class="st4" d="M210.8,45.1h22.5l-2.1,23.2l-9.2,3.1l-9.2-3.1L210.8,45.1z M228.8,52.6l0.3-2.8H215l0.7,8.5h9.8l-0.4,3.6
				l-3.1,0.8l-3.2-0.8l-0.2-2.2h-2.8l0.4,4.4l5.8,1.6h0.1l5.7-1.6l0.8-8.7h-10.3l-0.2-2.9L228.8,52.6L228.8,52.6z"/>
		</g>
		<g>
			<path class="st4" d="M165.4,27.7c0.6,0.5,0.8,1.2,0.8,2v19.5c0,0.8-0.3,1.4-0.8,2c-0.6,0.5-1.2,0.8-2,0.8h-16.9
				c-0.8,0-1.4-0.3-2-0.8s-0.8-1.2-0.8-2V24.8c0-0.8,0.3-1.4,0.8-2s1.2-0.8,2-0.8h11.9c0.8,0,1.4,0.3,2,0.8L165.4,27.7z M146.6,49.1
				h16.9V32.2h-6.1c-0.4,0-0.7-0.1-1-0.4c-0.3-0.3-0.4-0.6-0.4-1v-6.1h-9.4V49.1L146.6,49.1z M149.3,33.1c0.6-0.5,1.2-0.8,2-0.8
				s1.4,0.3,2,0.8s0.8,1.2,0.8,2s-0.3,1.5-0.8,2c-0.6,0.5-1.2,0.8-2,0.8s-1.4-0.3-2-0.8s-0.8-1.2-0.8-2S148.7,33.6,149.3,33.1z
				 M148.4,46.3v-3.8l2.3-2.3c0.3-0.3,0.6-0.3,0.9,0l2.3,2.3l5.2-5.2c0.3-0.3,0.6-0.3,0.9,0l1.4,1.4v7.5L148.4,46.3L148.4,46.3z
				 M163.2,29.4l-4.4-4.4v4.5C158.8,29.4,163.2,29.4,163.2,29.4z"/>
		</g>
		<g>
			<path class="st4" d="M51.2,190.1c0.5,0.6,0.8,1.2,0.8,2v15.7c0,0.8-0.3,1.4-0.8,2s-1.2,0.8-2,0.8H28.6c-0.8,0-1.5-0.3-2-0.8
				c-0.5-0.6-0.8-1.2-0.8-2v-20.6c0-0.8,0.3-1.4,0.8-2s1.2-0.8,2-0.8h15.7c0.8,0,1.4,0.3,2,0.8L51.2,190.1z M48.9,207.8
				c0.2,0,0.3-0.1,0.3-0.4v-15.2c0-0.1,0-0.2-0.1-0.2l-4.6-4.6v5.9c0,0.4-0.1,0.7-0.4,1c-0.3,0.3-0.6,0.4-1,0.4H32.8
				c-0.4,0-0.7-0.1-1-0.4c-0.3-0.3-0.4-0.6-0.4-1v-6.1H29c-0.2,0-0.4,0.1-0.4,0.4v19.9c0,0.2,0.1,0.4,0.4,0.4L48.9,207.8L48.9,207.8
				z M35.3,197.6c1-1,2.2-1.5,3.6-1.5s2.6,0.5,3.6,1.5s1.5,2.2,1.5,3.6s-0.5,2.6-1.5,3.6s-2.2,1.5-3.6,1.5s-2.6-0.5-3.6-1.5
				s-1.5-2.2-1.5-3.6S34.3,198.6,35.3,197.6z M41.8,187.1h-7.5v4.7h7.5V187.1z M37.3,202.9c0.5,0.4,1,0.7,1.7,0.7s1.2-0.2,1.7-0.7
				c0.5-0.4,0.7-1,0.7-1.7s-0.2-1.2-0.7-1.7c-0.5-0.4-1-0.7-1.7-0.7s-1.2,0.2-1.7,0.7c-0.5,0.4-0.7,1-0.7,1.7S36.8,202.4,37.3,202.9
				z"/>
		</g>
		<g>
			<path class="st4" d="M79.3,245.6c0.6,0.6,0.8,1.2,0.8,2V267c0,0.8-0.3,1.4-0.8,2s-1.2,0.8-2,0.8H60.4c-0.8,0-1.5-0.3-2-0.8
				s-0.8-1.2-0.8-2v-24.4c0-0.8,0.3-1.4,0.8-2s1.2-0.8,2-0.8h12c0.8,0,1.4,0.3,2,0.8L79.3,245.6z M77.3,267v-16.9h-6.1
				c-0.4,0-0.7-0.1-1-0.4c-0.3-0.3-0.4-0.6-0.4-1v-6.1h-9.4V267H77.3z M66.4,260.3c0.2,0.2,0.2,0.5,0,0.8l-1,1
				c-0.1,0.1-0.2,0.2-0.4,0.2c-0.1,0-0.2-0.1-0.3-0.2l-3.3-3.2c-0.3-0.2-0.3-0.5,0-0.7l3.3-3.2c0.3-0.3,0.5-0.3,0.8,0l1,1v0.1
				c0.2,0.2,0.2,0.5,0,0.7l-1.9,1.7L66.4,260.3z M69.9,252.4l1.4,0.4c0.3,0.1,0.5,0.3,0.3,0.6l-3.2,11c-0.1,0.4-0.3,0.5-0.6,0.4
				l-1.4-0.4c-0.3-0.1-0.5-0.3-0.3-0.6l3.2-11C69.4,252.4,69.6,252.3,69.9,252.4z M71.3,256.9c-0.2-0.2-0.2-0.5,0-0.8l1-1.1
				c0.2-0.3,0.5-0.3,0.8,0l3.3,3.2c0.3,0.2,0.3,0.5,0,0.7l-3.3,3.2c-0.3,0.3-0.5,0.3-0.8,0l-1-1V261c-0.2-0.2-0.2-0.5,0-0.7l1.9-1.7
				L71.3,256.9z M72.6,242.9v4.4H77L72.6,242.9z"/>
		</g>
	</g>
</g>
<g>
	<path class="st7" d="M290.9,92.2l-7.3-3.5c-0.8-0.4-1.9-0.2-2.5,0.4l-23.9,21.8c-0.6,0.6-0.6,1.6,0,2.2l2,1.8
		c0.5,0.5,1.3,0.5,1.9,0.1l28.8-21.8c1-0.7,2.4,0,2.4,1.2v-0.1C292.1,93.4,291.7,92.6,290.9,92.2z"/>
	<g>
		<path class="st8" d="M290.9,120l-7.3,3.5c-0.8,0.4-1.9,0.2-2.5-0.4l-23.9-21.8c-0.6-0.6-0.6-1.6,0-2.2l2-1.8
			c0.5-0.5,1.3-0.5,1.9-0.1l28.8,21.8c1,0.7,2.4,0,2.4-1.2v0.1C292.1,118.9,291.7,119.6,290.9,120z"/>
	</g>
	<g>
		<path class="st9" d="M283.6,123.5c-0.8,0.4-1.9,0.2-2.5-0.4c0.8,0.8,2.2,0.2,2.2-0.9V90.1c0-1.2-1.4-1.7-2.2-0.9
			c0.7-0.7,1.7-0.8,2.5-0.4l7.3,3.5c0.8,0.4,1.2,1.1,1.2,2V118c0,0.8-0.5,1.6-1.2,2L283.6,123.5z"/>
	</g>
</g>
<g>
	<g>
		<g>
			<circle class="st10" cx="923.5" cy="-48.5" r="8.1"/>
		</g>
	</g>
</g>
<g>
	<g>
		<path class="st11" d="M49.7,124.4c0.5,0.5,0.7,1.1,0.7,1.8c0,0.7-0.2,1.3-0.7,1.8l-10.5,10.5c-0.5,0.5-1.1,0.7-1.8,0.7
			c-0.7,0-1.3-0.2-1.8-0.7l-10.9-10.9c-0.5-0.5-0.7-1.1-0.7-1.8v-10.5c0-0.7,0.2-1.3,0.7-1.8c0.5-0.5,1.1-0.7,1.8-0.7H37
			c0.7,0,1.3,0.2,1.8,0.7L49.7,124.4z M28,120.3c0.5,0.5,1.1,0.7,1.8,0.7c0.7,0,1.3-0.2,1.8-0.7c0.5-0.5,0.7-1.1,0.7-1.8
			c0-0.7-0.2-1.3-0.7-1.8c-0.5-0.5-1.1-0.7-1.8-0.7c-0.7,0-1.3,0.2-1.8,0.7c-0.5,0.5-0.7,1.1-0.7,1.8
			C27.3,119.2,27.6,119.8,28,120.3z M56.3,127.9l-10.5,10.5c-0.5,0.5-1.1,0.7-1.8,0.7c-0.7,0-1.3-0.2-1.8-0.7l9-9
			c0.9-0.9,1.3-2,1.3-3.3s-0.4-2.4-1.3-3.3l-10.1-10.1h2.5c0.7,0,1.3,0.2,1.8,0.7l10.9,10.9c0.5,0.5,0.7,1.1,0.7,1.8
			C57,126.8,56.7,127.4,56.3,127.9z"/>
	</g>
</g>
<g>
	<path class="st4" d="M90.8,55.4v19.1c0,0.8-0.3,1.4-0.8,2c-0.5,0.5-1.2,0.8-2,0.8H71.1c-0.8,0-1.4-0.3-2-0.8
		c-0.5-0.5-0.8-1.2-0.8-2v-24c0-0.8,0.3-1.4,0.8-2c0.5-0.5,1.2-0.8,2-0.8h12c0.8,0,1.4,0.3,2,0.8l4.9,4.8
		C90.5,54,90.8,54.6,90.8,55.4z M88,74.5V57.9h-6.1c-0.4,0-0.7-0.1-1-0.4c-0.3-0.3-0.4-0.6-0.4-1v-6h-9.4v24H88z M85.2,62.1v1.6
		c0,0.5-0.2,0.7-0.7,0.7h-9.8c-0.5,0-0.7-0.2-0.7-0.7v-1.6c0-0.5,0.2-0.7,0.7-0.7h9.8C84.9,61.4,85.2,61.6,85.2,62.1z M84.5,66.2
		c0.5,0,0.7,0.2,0.7,0.7v1.6c0,0.5-0.2,0.7-0.7,0.7h-9.8c-0.5,0-0.7-0.2-0.7-0.7v-1.6c0-0.5,0.2-0.7,0.7-0.7H84.5z M83.3,50.8v4.4
		h4.5L83.3,50.8z"/>
</g>
</svg>
