<?xml version="1.0" encoding="iso-8859-1"?>
<!-- Generator: Adobe Illustrator 16.0.0, SVG Export Plug-In . SVG Version: 6.00 Build 0)  -->
<!DOCTYPE svg PUBLIC "-//W3C//DTD SVG 1.1//EN" "http://www.w3.org/Graphics/SVG/1.1/DTD/svg11.dtd">
<svg version="1.1" id="Layer_1" xmlns="http://www.w3.org/2000/svg" xmlns:xlink="http://www.w3.org/1999/xlink" x="0px" y="0px"
	 width="90px" height="90px" viewBox="0 0 90 90" style="enable-background:new 0 0 90 90;" xml:space="preserve">
<g>
	<ellipse style="fill:#FFFFFF;stroke:#DC4F4F;stroke-width:1.9212;stroke-miterlimit:10;" cx="45" cy="45" rx="43.5" ry="43.5"/>
	<g id="Unlock">
		<path style="fill:#DD504F;" d="M55.895,31.072C55.457,25.437,50.747,21,45,21c-6.035,0-10.927,4.892-10.927,10.927v9.871
			c0,3.972,2.119-1.426,5.288,0.486V32.018c0-3.063,2.483-5.546,5.547-5.546c2.79,0,5.097,2.059,5.488,4.741
			c-0.013,0.095-0.018,0.191-0.018,0.289v3.66c0,1.532,1.242,2.773,2.771,2.773c1.533,0,2.773-1.241,2.773-2.773v-2.905v-0.329
			v-0.426C55.927,31.355,55.916,31.211,55.895,31.072z"/>
		<g>
			<path style="fill:#DD504F;" d="M27.247,46.688v17.381c0,2.725,2.208,4.933,4.931,4.933h25.645c2.723,0,4.931-2.208,4.931-4.933
				V46.688c0-2.724-2.208-4.931-4.931-4.931H32.178C29.455,41.757,27.247,43.965,27.247,46.688z M56.29,45.332
				c1.028,0,1.862,0.834,1.862,1.861v16.369c0,1.027-0.834,1.861-1.862,1.861H33.709c-1.028,0-1.862-0.834-1.862-1.861V47.193
				c0-1.027,0.833-1.861,1.862-1.861H56.29z"/>
			<g>
				<path style="fill:#DD504F;" d="M37.146,61.336h8.223c1.316,0,2.383-1.066,2.383-2.382c0-1.317-1.066-2.384-2.383-2.384h-8.223
					c-1.316,0-2.383,1.064-2.383,2.384C34.763,60.27,35.83,61.336,37.146,61.336z"/>
				<path style="fill:#DD504F;" d="M37.146,53.939h8.223c1.316,0,2.383-1.066,2.383-2.383c0-1.315-1.066-2.385-2.383-2.385h-8.223
					c-1.316,0-2.383,1.067-2.383,2.385C34.763,52.873,35.83,53.939,37.146,53.939z"/>
			</g>
		</g>
	</g>
</g>
</svg>
