<?xml version="1.0" encoding="utf-8"?>
<!-- Generator: Adobe Illustrator 25.0.1, SVG Export Plug-In . SVG Version: 6.00 Build 0)  -->
<svg version="1.1" id="Layer_1" xmlns="http://www.w3.org/2000/svg" xmlns:xlink="http://www.w3.org/1999/xlink" x="0px" y="0px"
	 viewBox="0 0 512 512" style="enable-background:new 0 0 512 512;" xml:space="preserve">
<style type="text/css">
	.st0{fill:#3A8FC7;}
	.st1{fill:#FFFFFF;}
</style>
<g id="_x31_0">
	<g id="Vertical">
		<g id="Scale_11_">
			<rect x="1.37" y="1.53" class="st0" width="114.79" height="508.95"/>
		</g>
		<g>
			<g>
				
					<rect x="33.55" y="61.5" transform="matrix(-1.836970e-16 1 -1 -1.836970e-16 125.6499 46.799)" class="st1" width="11.76" height="49.44"/>
				
					<rect x="33.55" y="316.37" transform="matrix(-1.836970e-16 1 -1 -1.836970e-16 380.5186 301.6671)" class="st1" width="11.76" height="49.44"/>
				
					<rect x="33.55" y="401.37" transform="matrix(-1.836970e-16 1 -1 -1.836970e-16 465.5186 386.6671)" class="st1" width="11.76" height="49.44"/>
				
					<rect x="33.16" y="146.05" transform="matrix(-1.836970e-16 1 -1 -1.836970e-16 209.8097 131.734)" class="st1" width="11.76" height="49.44"/>
				
					<rect x="33.16" y="231.21" transform="matrix(-1.836970e-16 1 -1 -1.836970e-16 294.9702 216.8945)" class="st1" width="11.76" height="49.44"/>
			</g>
			<g>
				
					<rect x="25.23" y="32.52" transform="matrix(-1.836970e-16 1 -1 -1.836970e-16 79.9519 17.7312)" class="st1" width="11.76" height="32.64"/>
				
					<rect x="25.23" y="113.19" transform="matrix(-1.836970e-16 1 -1 -1.836970e-16 160.6215 98.4007)" class="st1" width="11.76" height="32.64"/>
				
					<rect x="25.23" y="199.71" transform="matrix(-1.836970e-16 1 -1 -1.836970e-16 247.1342 184.9135)" class="st1" width="11.76" height="32.64"/>
				
					<rect x="25.23" y="281.84" transform="matrix(-1.836970e-16 1 -1 -1.836970e-16 329.2701 267.0494)" class="st1" width="11.76" height="32.64"/>
				
					<rect x="25.14" y="370.12" transform="matrix(-1.836970e-16 1 -1 -1.836970e-16 417.4639 355.4189)" class="st1" width="11.76" height="32.64"/>
				
					<rect x="25.23" y="451.44" transform="matrix(-1.836970e-16 1 -1 -1.836970e-16 498.8717 436.6509)" class="st1" width="11.76" height="32.64"/>
			</g>
		</g>
	</g>
	<g id="Horizontal">
		<g id="Scale_12_">
			<rect x="1.36" y="1.53" class="st0" width="509.27" height="114.79"/>
		</g>
		<g>
			<g>
				
					<rect x="420.06" y="14.87" transform="matrix(-1 -1.224647e-16 1.224647e-16 -1 851.8737 79.1735)" class="st1" width="11.76" height="49.44"/>
				
					<rect x="165.19" y="14.87" transform="matrix(-1 -1.224647e-16 1.224647e-16 -1 342.1368 79.1741)" class="st1" width="11.76" height="49.44"/>
				
					<rect x="335.51" y="14.48" transform="matrix(-1 -1.224647e-16 1.224647e-16 -1 682.7789 78.3983)" class="st1" width="11.76" height="49.44"/>
				
					<rect x="250.35" y="14.48" transform="matrix(-1 -1.224647e-16 1.224647e-16 -1 512.4578 78.3983)" class="st1" width="11.76" height="49.44"/>
			</g>
			<g>
				
					<rect x="457.44" y="14.95" transform="matrix(-1 -1.224647e-16 1.224647e-16 -1 926.6395 62.5434)" class="st1" width="11.76" height="32.64"/>
				
					<rect x="376.77" y="14.95" transform="matrix(-1 -1.224647e-16 1.224647e-16 -1 765.3004 62.5434)" class="st1" width="11.76" height="32.64"/>
				
					<rect x="290.26" y="14.95" transform="matrix(-1 -1.224647e-16 1.224647e-16 -1 592.275 62.5434)" class="st1" width="11.76" height="32.64"/>
				
					<rect x="208.12" y="14.95" transform="matrix(-1 -1.224647e-16 1.224647e-16 -1 428.0031 62.5434)" class="st1" width="11.76" height="32.64"/>
				
					<rect x="119.84" y="14.87" transform="matrix(-1 -1.224647e-16 1.224647e-16 -1 251.4398 62.3675)" class="st1" width="11.76" height="32.64"/>
			</g>
		</g>
		<circle class="st1" cx="51.4" cy="52.66" r="30.34"/>
	</g>
</g>
<g>
</g>
<g>
</g>
<g>
</g>
<g>
</g>
<g>
</g>
</svg>
