<?xml version="1.0" encoding="utf-8"?>
<!-- Generator: Adobe Illustrator 25.0.1, SVG Export Plug-In . SVG Version: 6.00 Build 0)  -->
<svg version="1.1" id="Layer_1" xmlns="http://www.w3.org/2000/svg" xmlns:xlink="http://www.w3.org/1999/xlink" x="0px" y="0px"
	 viewBox="0 0 512 512" style="enable-background:new 0 0 512 512;" xml:space="preserve">
<style type="text/css">
	.st0{fill:none;}
	.st1{fill:#3691C9;}
	.st2{fill:url(#New_Pattern_3);}
	.st3{fill:url(#New_Pattern_2);}
	.st4{clip-path:url(#SVGID_2_);fill:#2881B3;stroke:#FFFFFF;stroke-width:15;stroke-miterlimit:10;}
	.st5{clip-path:url(#SVGID_4_);fill:#3691C9;stroke:#FFFFFF;stroke-width:15;stroke-miterlimit:10;}
</style>
<pattern  width="46.47" height="62.55" patternUnits="userSpaceOnUse" id="New_Pattern_2" viewBox="19.24 -70.51 46.47 62.55" style="overflow:visible;">
	<g>
		<rect x="19.24" y="-70.51" class="st0" width="46.47" height="62.55"/>
		<path class="st1" d="M76.99,0L54.43,0c-4.4,0-7.96-3.56-7.96-7.96v0c0-4.4,3.56-7.96,7.96-7.96h22.56c4.4,0,7.96,3.56,7.96,7.96v0
			C84.95-3.56,81.38,0,76.99,0z"/>
		<path class="st1" d="M30.52,0L7.96,0C3.56,0,0-3.56,0-7.96v0c0-4.4,3.56-7.96,7.96-7.96h22.56c4.4,0,7.96,3.56,7.96,7.96v0
			C38.47-3.56,34.91,0,30.52,0z"/>
		<path class="st1" d="M53.75-31.28H31.19c-4.4,0-7.96-3.56-7.96-7.96v0c0-4.4,3.56-7.96,7.96-7.96h22.56c4.4,0,7.96,3.56,7.96,7.96
			v0C61.71-34.84,58.15-31.28,53.75-31.28z"/>
		<path class="st1" d="M76.99-62.55H54.43c-4.4,0-7.96-3.56-7.96-7.96v0c0-4.4,3.56-7.96,7.96-7.96h22.56c4.4,0,7.96,3.56,7.96,7.96
			v0C84.95-66.11,81.38-62.55,76.99-62.55z"/>
		<path class="st1" d="M30.52-62.55H7.96c-4.4,0-7.96-3.56-7.96-7.96v0c0-4.4,3.56-7.96,7.96-7.96h22.56c4.4,0,7.96,3.56,7.96,7.96
			v0C38.47-66.11,34.91-62.55,30.52-62.55z"/>
	</g>
</pattern>
<pattern  width="146.79" height="49.41" patternUnits="userSpaceOnUse" id="New_Pattern_3" viewBox="7.96 -69.12 146.79 49.41" style="overflow:visible;">
	<g>
		<rect x="7.96" y="-69.12" class="st0" width="146.79" height="49.41"/>
		<path class="st1" d="M110.1-7.96v-23.49c0-4.4,3.56-7.96,7.96-7.96h0c4.4,0,7.96,3.56,7.96,7.96v23.49c0,4.4-3.56,7.96-7.96,7.96
			l0,0C113.66,0,110.1-3.56,110.1-7.96z"/>
		<path class="st1" d="M36.7-7.96v-23.49c0-4.4,3.56-7.96,7.96-7.96h0c4.4,0,7.96,3.56,7.96,7.96v23.49c0,4.4-3.56,7.96-7.96,7.96
			l0,0C40.26,0,36.7-3.56,36.7-7.96z"/>
		<path class="st1" d="M146.79-32.66v-23.49c0-4.4,3.56-7.96,7.96-7.96h0c4.4,0,7.96,3.56,7.96,7.96v23.49
			c0,4.4-3.56,7.96-7.96,7.96h0C150.36-24.71,146.79-28.27,146.79-32.66z"/>
		<path class="st1" d="M110.1-57.37v-23.49c0-4.4,3.56-7.96,7.96-7.96h0c4.4,0,7.96,3.56,7.96,7.96v23.49c0,4.4-3.56,7.96-7.96,7.96
			h0C113.66-49.41,110.1-52.97,110.1-57.37z"/>
		<path class="st1" d="M73.4-32.66v-23.49c0-4.4,3.56-7.96,7.96-7.96h0c4.4,0,7.96,3.56,7.96,7.96v23.49c0,4.4-3.56,7.96-7.96,7.96
			h0C76.96-24.71,73.4-28.27,73.4-32.66z"/>
		<path class="st1" d="M36.7-57.37v-23.49c0-4.4,3.56-7.96,7.96-7.96h0c4.4,0,7.96,3.56,7.96,7.96v23.49c0,4.4-3.56,7.96-7.96,7.96
			h0C40.26-49.41,36.7-52.97,36.7-57.37z"/>
		<path class="st1" d="M0-32.66l0-23.49c0-4.4,3.56-7.96,7.96-7.96h0c4.4,0,7.96,3.56,7.96,7.96v23.49c0,4.4-3.56,7.96-7.96,7.96h0
			C3.56-24.71,0-28.27,0-32.66z"/>
	</g>
</pattern>
<g id="Point_Cloud_Final">
	<g id="Shape_3_copy_15_12_">
		<polygon class="st2" points="32.64,91.78 33.05,451.24 247.47,507.04 249.09,151.64 		"/>
	</g>
	<g id="Shape_1_copy_4_10_">
		<path class="st3" d="M255.69,4.96C179.26,24.53,109.08,46.49,32.64,66.21c76.47,23.04,141.26,43.61,217.09,61.8
			c74.39-18.86,154.97-38.51,229.63-59.15C404.74,47.03,330.28,26.46,255.69,4.96z"/>
	</g>
	<g id="Shape_3_copy_15_10_">
		<polygon class="st2" points="258.24,151.63 259.89,507.04 478.95,451.24 479.36,91.78 		"/>
	</g>
	<g>
		<defs>
			<path id="SVGID_1_" d="M259.42,449.34H96.73V204.6h162.69V449.34z"/>
		</defs>
		<clipPath id="SVGID_2_">
			<use xlink:href="#SVGID_1_"  style="overflow:visible;"/>
		</clipPath>
		<path class="st4" d="M408.49,351.17c0,31.68-25.52,47.71-57.33,57.33l-91.73,25l-91.73-25c-31.6-9.48-57.33-25.66-57.33-57.33
			c0-27.81,19.78-50.88,46.01-56.19c0-0.36-0.14-0.79-0.14-1.15c0-37.98,30.82-68.8,68.8-68.8c23.01,0,43.22,11.4,55.69,28.67
			c7.45-3.58,15.77-5.73,24.58-5.73c28.09,0,51.31,20.28,56.26,46.94C388.28,299.78,408.49,323.07,408.49,351.17z"/>
	</g>
	<g>
		<defs>
			<rect id="SVGID_3_" x="259.42" y="192.58" width="170.65" height="264.83"/>
		</defs>
		<clipPath id="SVGID_4_">
			<use xlink:href="#SVGID_3_"  style="overflow:visible;"/>
		</clipPath>
		<path class="st5" d="M408.49,351.17c0,31.68-25.52,47.71-57.33,57.33l-91.73,25l-91.73-25c-31.6-9.48-57.33-25.66-57.33-57.33
			c0-27.81,19.78-50.88,46.01-56.19c0-0.36-0.14-0.79-0.14-1.15c0-37.98,30.82-68.8,68.8-68.8c23.01,0,43.22,11.4,55.69,28.67
			c7.45-3.58,15.77-5.73,24.58-5.73c28.09,0,51.31,20.28,56.26,46.94C388.28,299.78,408.49,323.07,408.49,351.17z"/>
	</g>
</g>
<g>
</g>
<g>
</g>
<g>
</g>
<g>
</g>
<g>
</g>
</svg>
