<?xml version="1.0" encoding="utf-8"?>
<!-- Generator: Adobe Illustrator 25.2.0, SVG Export Plug-In . SVG Version: 6.00 Build 0)  -->
<svg version="1.1" id="Aspose" xmlns="http://www.w3.org/2000/svg" xmlns:xlink="http://www.w3.org/1999/xlink" x="0px" y="0px"
	 viewBox="0 0 370 320" style="enable-background:new 0 0 370 320;" xml:space="preserve">
<style type="text/css">
	
		.st0{fill:none;stroke:#EFEEEE;stroke-width:3;stroke-linecap:round;stroke-linejoin:round;stroke-miterlimit:10;stroke-dasharray:6,8;}
	.st1{fill:#1B64AE;stroke:#18599C;stroke-width:3;stroke-miterlimit:10;}
	.st2{fill:#E0F1F9;}
	.st3{fill:#1B64AE;}
	.st4{fill:#4297D3;}
	.st5{fill:#18599C;}
	.st6{fill:#66C7EE;}
	.st7{fill:#FFFFFF;}
	.st8{fill:#F1C410;}
	.st9{fill:#F1940E;}
	.st10{fill:#EEEEEE;}
	.st11{display:none;fill:#4297D3;}
	.st12{fill:#3F99D4;}
</style>
<polyline class="st0" points="134,87.5 96.6,87.5 96.6,132 "/>
<polyline class="st0" points="282.5,120.1 282.5,139.9 239.8,139.9 239.8,169.5 210.2,169.5 "/>
<polyline class="st0" points="282.5,204.7 234.5,204.7 234.5,260.6 219.8,260.6 "/>
<path class="st1" d="M181.5,105.8h-58.1c-1.1,0-2-0.9-2-2V63c0-1.1,0.9-2,2-2l28.1-22.4l30.1,21.7c1.1,0,2,0.9,2,2v41.6
	C183.5,104.9,182.6,105.8,181.5,105.8z"/>
<rect x="133.3" y="86.8" class="st2" width="36.9" height="8.1"/>
<rect x="135.5" y="89.3" class="st3" width="21.6" height="3"/>
<circle class="st3" cx="166.5" cy="90.7" r="2.2"/>
<rect x="133" y="67.1" class="st2" width="36.9" height="8.1"/>
<rect x="135.3" y="69.6" class="st3" width="21.6" height="3"/>
<circle class="st3" cx="166.3" cy="71" r="2.2"/>
<rect x="133" y="77" class="st2" width="36.9" height="8.1"/>
<rect x="135.3" y="79.5" class="st3" width="21.6" height="3"/>
<circle class="st3" cx="166.3" cy="80.9" r="2.2"/>
<g>
	<path class="st4" d="M112.5,74.7c-0.4,0-0.9-0.2-1.2-0.6l-2.9-3.6c-0.5-0.6-0.4-1.6,0.2-2.1l42.1-33.9c0.3-0.2,0.6-0.3,0.9-0.3
		c0.3,0,0.6,0.1,0.9,0.3l16,12.1V35.7c0-0.8,0.7-1.5,1.5-1.5h10.7c0.8,0,1.5,0.7,1.5,1.5v23.1l12.8,9.7c0.3,0.2,0.5,0.6,0.6,1
		s0,0.8-0.3,1.1l-2.7,3.6c-0.2,0.3-0.6,0.5-1,0.6c-0.1,0-0.1,0-0.2,0c-0.3,0-0.7-0.1-0.9-0.3L152,44.1l-38.5,30.3
		C113.2,74.6,112.9,74.7,112.5,74.7z"/>
	<path class="st5" d="M180.8,35.7v23.8l13.4,10.1l-2.7,3.6l-39.6-31l-39.4,31l-2.9-3.6l42.1-33.9l18.4,13.9V35.7H180.8 M151.7,32.7
		c-0.7,0-1.3,0.2-1.9,0.7l-42.1,33.9c-1.3,1-1.5,2.9-0.5,4.2l2.9,3.6c0.6,0.7,1.5,1.1,2.3,1.1c0.6,0,1.3-0.2,1.9-0.6L152,46
		l37.7,29.6c0.5,0.4,1.2,0.6,1.9,0.6c0.1,0,0.3,0,0.4,0c0.8-0.1,1.5-0.5,2-1.2l2.7-3.6c0.5-0.6,0.7-1.4,0.6-2.2
		c-0.1-0.8-0.5-1.5-1.2-2L183.8,58V35.7c0-1.7-1.3-3-3-3h-10.7c-1.7,0-3,1.3-3,3v7.9l-13.6-10.3C153,32.9,152.4,32.7,151.7,32.7
		L151.7,32.7z"/>
</g>
<path class="st6" d="M323.7,107.9c0-7.9-5.4-14.5-12.7-16.5c0.8-1.7,1.3-3.6,1.3-5.5c0-7.2-5.8-13-13-13c-2.6,0-5.1,0.8-7.1,2.1
	c-3.6-7.6-11.3-12.8-20.3-12.8c-12.4,0-22.5,10.1-22.5,22.5c0,0.8,0,1.6,0.1,2.4c-7.1,3-12.1,10-12.1,18.2
	c0,10.9,8.8,19.7,19.7,19.7c0.5,0,1,0,1.5-0.1h46.8c0.5,0,0.9,0.1,1.4,0.1s0.9,0,1.4-0.1h0.1l0,0
	C316.9,124.1,323.7,116.8,323.7,107.9z"/>
<g>
	<path class="st7" d="M264.9,235.6c-4.4,0-8-3.6-8-8v-24.9c0-4.4,3.6-8,8-8h41.7c4.4,0,8,3.6,8,8v24.9c0,4.4-3.6,8-8,8H264.9z"/>
	<path class="st8" d="M306.5,196.7c3.3,0,6,2.7,6,6v24.9c0,3.3-2.7,6-6,6h-41.7c-3.3,0-6-2.7-6-6v-24.9c0-3.3,2.7-6,6-6H306.5
		 M306.5,192.7h-41.7c-5.5,0-10,4.5-10,10v24.9c0,5.5,4.5,10,10,10h41.7c5.5,0,10-4.5,10-10v-24.9
		C316.5,197.2,312,192.7,306.5,192.7L306.5,192.7z"/>
</g>
<path class="st9" d="M327.2,239.9h-15.5c-1.1,0-2-0.9-2-2v-31.1c0-1.1,0.9-2,2-2h15.5c1.1,0,2,0.9,2,2v31.1
	C329.2,239,328.3,239.9,327.2,239.9z"/>
<path class="st7" d="M326.4,233.9h-13.8c-0.6,0-1-0.5-1-1v-21.1c0-0.6,0.4-1,1-1h13.8c0.5,0,1,0.4,1,1v21.1
	C327.4,233.5,326.9,233.9,326.4,233.9z"/>
<path class="st7" d="M321.6,208.9h-4.3c-0.2,0-0.3-0.2-0.3-0.3l0,0c0-0.2,0.2-0.3,0.3-0.3h4.3c0.2,0,0.3,0.2,0.3,0.3l0,0
	C322,208.7,321.8,208.9,321.6,208.9z"/>
<circle class="st7" cx="319.5" cy="236.8" r="1.6"/>
<path class="st9" d="M331.4,241.5v2.8c0,3.8-3.4,6.9-7.5,6.9h-72.2c-4.2,0-7.5-3.1-7.5-6.9v-2.8"/>
<path class="st9" d="M281.2,215.3c0,0.7,0,1.5,0.1,2.3h-4.2c-0.2-0.8-0.3-1.6-0.3-2.3c0-0.8,0.1-1.5,0.3-2.3h4.2
	C281.2,213.8,281.2,214.6,281.2,215.3z M283.2,206.6c-0.9,1.2-1.5,2.9-1.8,5.2h-3.9c0.5-1.2,1.3-2.3,2.3-3.2
	C280.8,207.7,281.9,207,283.2,206.6z M277.5,218.8h3.9c0.4,2.2,1,4,1.8,5.2c-1.3-0.4-2.4-1-3.4-2S278,220.1,277.5,218.8z
	 M282.3,215.3c0-0.8,0-1.6,0.1-2.3h6.8c0.1,0.8,0.1,1.6,0.1,2.3c0,0.8,0,1.6-0.1,2.3h-6.8C282.4,216.9,282.3,216.1,282.3,215.3z
	 M289,211.8h-6.4c0.3-1.7,0.7-3,1.3-4c0.6-1,1.2-1.5,1.9-1.5s1.3,0.5,1.9,1.5S288.8,210.2,289,211.8z M282.6,218.8h6.4
	c-0.3,1.7-0.7,3-1.3,4c-0.6,1-1.2,1.5-1.9,1.5s-1.3-0.5-1.9-1.5C283.3,221.8,282.9,220.5,282.6,218.8z M294.2,211.8h-3.9
	c-0.4-2.2-1-4-1.8-5.2c1.3,0.4,2.4,1,3.4,2C292.9,209.5,293.6,210.6,294.2,211.8z M288.4,224c0.9-1.2,1.5-2.9,1.8-5.2h3.9
	c-0.5,1.2-1.3,2.3-2.3,3.2C290.8,223,289.7,223.6,288.4,224z M294.5,213c0.2,0.8,0.3,1.6,0.3,2.3c0,0.8-0.1,1.6-0.3,2.3h-4.2
	c0.1-0.8,0.1-1.6,0.1-2.3c0-0.8,0-1.5-0.1-2.3H294.5z"/>
<polygon class="st10" points="154.7,284.3 225.1,274.2 225.1,129.4 154.7,129.4 "/>
<polygon class="st10" points="149.1,284.3 38.6,274.2 38.6,129.4 149.1,129.4 "/>
<g id="_x33__4_">
	<g>
		<g>
			<g id="Lines_5_">
				<g>
					<ellipse class="st11" cx="164.3" cy="214.6" rx="3" ry="3"/>
				</g>
				<g>
					<ellipse class="st11" cx="164.3" cy="204.5" rx="3" ry="3"/>
				</g>
			</g>
		</g>
	</g>
</g>
<g>
	<g>
		<path class="st12" d="M91.6,238.9H74.5v-64.2h38v13.9H91.6v12.3h19.2v13.9H91.6V238.9z"/>
	</g>
	<g id="Font">
		<g>
			<g>
				<path class="st4" d="M215.8,236.2h-52.2v-60h52.1L215.8,236.2L215.8,236.2z M165.7,234.2h48.2v-56h-48.1L165.7,234.2
					L165.7,234.2z"/>
			</g>
			<g>
				<g>
					<rect x="212.7" y="175.3" class="st4" width="4" height="4"/>
					<path class="st4" d="M217.7,180.3h-6v-6h6V180.3z M213.7,178.3h2v-2h-2V178.3z"/>
				</g>
				<g>
					<rect x="187.8" y="175.3" class="st4" width="4" height="4"/>
					<path class="st4" d="M192.7,180.3h-6v-6h6V180.3z M188.8,178.3h2v-2h-2V178.3z"/>
				</g>
				<g>
					<rect x="162.7" y="175.3" class="st4" width="4" height="4"/>
					<path class="st4" d="M167.6,180.3h-6v-6h6V180.3z M163.7,178.3h2v-2h-2V178.3z"/>
				</g>
				<g>
					<rect x="212.7" y="203.1" class="st4" width="4" height="4"/>
					<path class="st4" d="M217.7,208.1h-6v-6h6V208.1z M213.7,206.1h2v-2h-2V206.1z"/>
				</g>
				<g>
					<rect x="162.7" y="203.1" class="st4" width="4" height="4"/>
					<path class="st4" d="M167.6,208.1h-6v-6h6V208.1z M163.7,206.1h2v-2h-2V206.1z"/>
				</g>
				<g>
					<rect x="162.7" y="233.3" class="st4" width="4" height="4"/>
					<path class="st4" d="M167.6,238.2h-6v-6h6V238.2z M163.7,236.2h2v-2h-2V236.2z"/>
				</g>
				<g>
					<rect x="187.8" y="233.3" class="st4" width="4" height="4"/>
					<path class="st4" d="M192.7,238.2h-6v-6h6V238.2z M188.8,236.2h2v-2h-2V236.2z"/>
				</g>
				<g>
					<rect x="212.7" y="233.3" class="st4" width="4" height="4"/>
					<path class="st4" d="M217.7,238.2h-6v-6h6V238.2z M213.7,236.2h2v-2h-2V236.2z"/>
				</g>
			</g>
		</g>
		<g>
			<g>
				<path class="st4" d="M182.4,202.1h-7.5l-0.9,2.1c-0.3,0.7-0.4,1.3-0.4,1.7c0,0.6,0.2,1,0.7,1.3c0.3,0.2,1,0.3,2.1,0.4v0.6h-7.1
					v-0.6c0.8-0.1,1.4-0.4,1.9-1c0.5-0.5,1.1-1.6,1.8-3.2l7.6-16.9h0.3l7.6,17.4c0.7,1.6,1.3,2.7,1.8,3.1c0.4,0.3,0.9,0.5,1.5,0.6
					v0.6h-10.2v-0.6h0.4c0.8,0,1.4-0.1,1.7-0.3c0.2-0.2,0.3-0.4,0.3-0.7c0-0.2,0-0.4-0.1-0.6c0-0.1-0.2-0.5-0.5-1.2L182.4,202.1z
					 M181.9,200.9l-3.2-7.3l-3.2,7.3H181.9z"/>
			</g>
			<g>
				<path class="st4" d="M202.1,206c-1.8,1.6-3.4,2.4-4.8,2.4c-0.8,0-1.5-0.3-2.1-0.8c-0.6-0.6-0.8-1.2-0.8-2.1c0-1.1,0.5-2.1,1.4-3
					c1-0.9,3.1-2.1,6.3-3.6v-1.5c0-1.1-0.1-1.8-0.2-2.1c-0.1-0.3-0.4-0.5-0.7-0.8c-0.3-0.2-0.7-0.3-1.1-0.3c-0.7,0-1.2,0.1-1.7,0.5
					c-0.3,0.2-0.4,0.4-0.4,0.7c0,0.2,0.1,0.5,0.4,0.8c0.4,0.4,0.6,0.9,0.6,1.3c0,0.5-0.2,1-0.6,1.3c-0.4,0.4-0.9,0.5-1.5,0.5
					c-0.7,0-1.2-0.2-1.6-0.6c-0.4-0.4-0.7-0.9-0.7-1.4c0-0.8,0.3-1.5,0.9-2.1s1.4-1.2,2.5-1.6c1.1-0.4,2.2-0.6,3.3-0.6
					c1.4,0,2.5,0.3,3.3,0.9s1.3,1.2,1.6,1.9c0.1,0.4,0.2,1.4,0.2,3v5.7c0,0.7,0,1.1,0.1,1.3c0.1,0.2,0.1,0.3,0.2,0.4
					c0.1,0.1,0.2,0.1,0.4,0.1c0.3,0,0.6-0.2,0.8-0.6l0.5,0.4c-0.5,0.8-1.1,1.3-1.6,1.7c-0.6,0.4-1.2,0.5-1.9,0.5
					c-0.8,0-1.5-0.2-1.9-0.6C202.5,207.3,202.2,206.8,202.1,206z M202.1,204.8v-4.9c-1.3,0.7-2.2,1.5-2.8,2.4
					c-0.4,0.6-0.6,1.1-0.6,1.7c0,0.5,0.2,0.9,0.5,1.3c0.3,0.3,0.6,0.4,1.1,0.4C200.8,205.7,201.4,205.4,202.1,204.8z"/>
			</g>
			<g>
				<path class="st4" d="M183.8,215.1v2.7h-0.3c-0.2-0.6-0.3-1.1-0.5-1.3s-0.4-0.5-0.8-0.6c-0.2-0.1-0.5-0.1-1-0.1h-0.7v7.7
					c0,0.5,0,0.8,0.1,1c0.1,0.1,0.2,0.2,0.3,0.3c0.2,0.1,0.4,0.1,0.7,0.1h0.3v0.3h-5.2v-0.3h0.3c0.3,0,0.5-0.1,0.7-0.1
					c0.1-0.1,0.2-0.2,0.3-0.4c0.1-0.1,0.1-0.4,0.1-0.9v-7.7h-0.7c-0.7,0-1.1,0.1-1.5,0.4c-0.4,0.4-0.7,1-0.8,1.7h-0.3v-2.7
					L183.8,215.1L183.8,215.1z"/>
				<path class="st4" d="M193.8,215.1v2.7h-0.3c-0.2-0.6-0.3-1.1-0.5-1.3s-0.4-0.5-0.8-0.6c-0.2-0.1-0.5-0.1-1-0.1h-0.7v7.7
					c0,0.5,0,0.8,0.1,1c0.1,0.1,0.2,0.2,0.3,0.3c0.2,0.1,0.4,0.1,0.7,0.1h0.3v0.3h-5.2v-0.3h0.3c0.3,0,0.5-0.1,0.7-0.1
					c0.1-0.1,0.2-0.2,0.3-0.4c0.1-0.1,0.1-0.4,0.1-0.9v-7.7h-0.7c-0.7,0-1.1,0.1-1.5,0.4c-0.4,0.4-0.7,1-0.8,1.7h-0.3v-2.7
					L193.8,215.1L193.8,215.1z"/>
				<path class="st4" d="M198.5,215.7v4.1h0.3c0.4,0,0.8-0.1,1.1-0.2c0.3-0.1,0.5-0.4,0.7-0.7c0.2-0.3,0.3-0.7,0.4-1.3h0.3v5h-0.3
					c-0.1-0.9-0.4-1.6-0.8-1.9c-0.4-0.3-0.9-0.5-1.4-0.5h-0.3v3c0,0.5,0,0.8,0.1,0.9c0.1,0.1,0.2,0.2,0.3,0.3
					c0.2,0.1,0.4,0.1,0.7,0.1h0.3v0.3h-5.2v-0.3h0.3c0.3,0,0.5,0,0.7-0.1c0.1-0.1,0.2-0.2,0.3-0.4c0.1-0.1,0.1-0.4,0.1-0.9v-6.5
					c0-0.5,0-0.8-0.1-1s-0.2-0.2-0.3-0.3c-0.2-0.1-0.4-0.1-0.7-0.1h-0.3v-0.3h8.4v2.9h-0.3c-0.1-0.7-0.2-1.2-0.5-1.5
					s-0.7-0.5-1.2-0.7c-0.3-0.1-0.8-0.1-1.6-0.1L198.5,215.7L198.5,215.7z"/>
			</g>
		</g>
	</g>
</g>
</svg>
