<?xml version="1.0" encoding="utf-8"?>
<!-- Generator: Adobe Illustrator 25.2.0, SVG Export Plug-In . SVG Version: 6.00 Build 0)  -->
<svg version="1.1" id="NET" xmlns="http://www.w3.org/2000/svg" xmlns:xlink="http://www.w3.org/1999/xlink" x="0px" y="0px"
	 viewBox="0 0 512 512" style="enable-background:new 0 0 512 512;" xml:space="preserve">
<style type="text/css">
	.st0{fill:#9DC825;}
</style>
<g id="light">
	<g>
		<path class="st0" d="M274.7,395.3c0,10.5-8.1,18.6-18.6,18.6H75.6c-10.5,0-18.6-8.1-18.6-18.6V116.7c0-10.5,8.1-18.6,18.6-18.6
			h180.5c10.5,0,18.6,8.1,18.6,18.6v74.4l43.5-43.5v-30.9c0-34-27.7-62.1-62.1-62.1H75.6c-34.4,0-62.1,27.7-62.1,62.1v278.6
			c0,34,27.7,62.1,62.1,62.1h180.5c34.4,0,62.1-27.7,62.1-62.1v-55.8c-6.8,4.9-19.5,12.3-43.5,17.2
			C274.7,356.7,274.7,395.3,274.7,395.3z M487.5,75c-14.5-14.5-38.1-14.5-52.6,0L273,236l52.6,52.6l162.1-161.1
			C502.1,113.2,502.1,89.5,487.5,75z M238.9,270.1l-20.9,73l73.5-20.4l16.3-16.3l-52.6-52.6L238.9,270.1z M116.1,333.2
			c-11.8,0-21.8,9.5-21.8,21.8c0,11.8,9.5,21.8,21.8,21.8h55.8c11.8,0,21.8-9.5,21.8-21.8c0-11.8-9.5-21.8-21.8-21.8H116.1z"/>
	</g>
</g>
</svg>
