<?xml version="1.0" encoding="utf-8"?>
<!-- Generator: Adobe Illustrator 25.2.0, SVG Export Plug-In . SVG Version: 6.00 Build 0)  -->
<svg version="1.1" id="Layer_1" xmlns="http://www.w3.org/2000/svg" xmlns:xlink="http://www.w3.org/1999/xlink" x="0px" y="0px"
	 viewBox="0 0 320 320" style="enable-background:new 0 0 320 320;" xml:space="preserve">
<style type="text/css">
	.st0{fill:none;stroke:#EFEFEF;stroke-linecap:round;stroke-linejoin:round;stroke-miterlimit:10;stroke-dasharray:4,8;}
	.st1{fill:#FFFFFF;}
	.st2{fill-rule:evenodd;clip-rule:evenodd;fill:rgb(255, 205, 56);}
	.st3{fill:rgb(255, 205, 56);}
	.st4{fill:#FEFEFE;}
	.st5{fill:#EFEFEF;}
	.st6{fill:#DEDFDF;}
	.st7{fill:#4296D2;}
</style>
<defs>
<linearGradient id="paint0_linear" x1="1.25961e-08" y1="1.08223e-08" x2="8.81664" y2="7.59597" gradientUnits="userSpaceOnUse">
<stop stop-color="#5A9FD4"/>
<stop offset="1" stop-color="#306998"/>
</linearGradient>
<linearGradient id="paint1_linear" x1="10.0654" y1="13.8872" x2="6.91912" y2="9.42957" gradientUnits="userSpaceOnUse">
<stop stop-color="#FFD43B"/>
<stop offset="1" stop-color="#FFE873"/>
</linearGradient>
</defs>
<circle class="st0" cx="154.17" cy="163.2" r="123.74"/>
<g id="Words">
	<polygon class="st1" points="293.33,98.54 286.42,94.1 104.7,94.1 97.79,101.01 97.79,283.23 102.23,289.15 238.03,289.15 
		293.33,219.03 	"/>
	<g>
		<path class="st2" d="M157.17,224.58c0-19.58,6.87-36.25,20.62-50c13.66-13.74,30.32-20.62,50-20.62
			c19.39,0,36.01,6.87,49.86,20.62c13.84,13.75,20.76,30.42,20.76,50c0,19.5-6.92,36.11-20.76,49.86
			c-13.85,13.84-30.46,20.76-49.86,20.76c-19.68,0-36.35-6.92-50-20.76C164.04,260.69,157.17,244.08,157.17,224.58"/>
		<path class="st2" d="M298.4,224.58h-8.28V105.43c0-3.05-1.09-5.08-3.28-6.13c-0.75-0.38-1.63-0.67-2.64-0.85L283,98.3H108.5
			c-3.09,0-5.14,1.06-6.13,3.2c-0.62,1.24-0.95,2.55-1,3.92v174.36c0,3.04,1.06,5.06,3.21,6.06c1.23,0.62,2.55,0.98,3.92,1.07
			h115.65l3.63,8.28H105.93c-2.14,0-4.28-0.52-6.41-1.57c-4.28-2.14-6.42-5.89-6.42-11.26V102.87c0-2.14,0.55-4.28,1.64-6.42
			c2.14-4.28,5.87-6.41,11.19-6.41h179.64l1.99,0.21c1.62,0.24,3.09,0.71,4.42,1.43c4.27,2.14,6.41,5.87,6.41,11.19L298.4,224.58
			L298.4,224.58z"/>
		<g>
			<path class="st3" d="M164.22,162.52h-7.92l-7.54-26.53c-0.33-1.16-0.73-2.83-1.22-5.01s-0.78-3.69-0.88-4.55
				c-0.21,1.3-0.53,2.98-0.99,5.05c-0.46,2.07-0.84,3.61-1.14,4.63l-7.36,26.41h-7.92l-5.75-22.27l-5.84-22.21h7.42l6.36,25.92
				c1,4.16,1.7,7.83,2.13,11.01c0.22-1.72,0.55-3.65,1-5.78c0.45-2.13,0.85-3.85,1.22-5.17l7.24-25.98h7.21l7.42,26.1
				c0.71,2.42,1.46,6.03,2.25,10.83c0.3-2.9,1.03-6.59,2.19-11.07l6.33-25.86h7.37L164.22,162.52z"/>
		</g>
		<g>
			<rect x="184.45" y="189.4" class="st4" width="85.92" height="6.42"/>
			<rect x="184.45" y="211.62" class="st4" width="85.92" height="6.42"/>
			<rect x="184.45" y="233.1" class="st4" width="58.76" height="6.42"/>
			<rect x="184.45" y="255.32" class="st4" width="31.31" height="6.42"/>
		</g>
	</g>
</g>
<g>
	<path class="st5" d="M274.83,141.96c-19.03,0-34.51-15.48-34.51-34.51c0-19.03,15.48-34.51,34.51-34.51
		c19.03,0,34.51,15.48,34.51,34.51C309.34,126.48,293.86,141.96,274.83,141.96z"/>
	<path class="st6" d="M274.83,74.45c18.2,0,33.01,14.81,33.01,33.01s-14.81,33.01-33.01,33.01s-33.01-14.81-33.01-33.01
		S256.63,74.45,274.83,74.45 M274.83,71.45c-19.89,0-36.01,16.12-36.01,36.01c0,19.89,16.12,36.01,36.01,36.01
		s36.01-16.12,36.01-36.01C310.84,87.57,294.72,71.45,274.83,71.45L274.83,71.45z"/>
</g>
<g>
	<g>
		<polygon class="st7" points="212.94,47.07 231.19,48.19 229.78,65.23 222.61,70.15 215.36,66.73 		"/>
		<polygon class="st7" points="159.28,50.4 163.44,50.4 164.78,47.07 165.44,27.68 158.78,23.9 146.28,23.9 145.28,38.07 
			145.78,49.98 		"/>
		<polygon class="st7" points="89.03,54.9 82.11,48.65 70.36,49.07 69.94,74.9 70.69,75.82 89.03,75.82 		"/>
		<polygon class="st7" points="46.53,116.48 40.28,110.32 28.11,110.32 28.11,137.23 46.53,137.57 		"/>
		<polygon class="st7" points="51.03,191.07 44.94,185.65 28.69,185.32 27.19,187.15 27.19,208.69 50.53,209.07 		"/>
		<polygon class="st7" points="78.78,247.15 72.78,241.15 58.44,240.67 59.03,267.98 77.69,267.98 		"/>
	</g>
	<g>
		<g>
			<path class="st5" d="M210.79,45.07h22.5l-2.05,23.2l-9.2,3.05l-9.2-3.05L210.79,45.07z M228.83,52.57l0.29-2.81H215l0.7,8.55
				h9.79l-0.35,3.63l-3.11,0.82l-3.16-0.82l-0.23-2.23h-2.75l0.35,4.45l5.8,1.58h0.06l5.68-1.58l0.82-8.73h-10.31l-0.23-2.87H228.83
				z"/>
		</g>
		<g>
			<path class="st5" d="M165.44,27.68c0.55,0.55,0.82,1.21,0.82,1.99v19.45c0,0.78-0.27,1.44-0.82,1.99
				c-0.55,0.55-1.21,0.82-1.99,0.82h-16.87c-0.78,0-1.45-0.27-1.99-0.82c-0.55-0.55-0.82-1.21-0.82-1.99V24.75
				c0-0.78,0.27-1.44,0.82-1.99c0.55-0.55,1.21-0.82,1.99-0.82h11.95c0.78,0,1.44,0.27,1.99,0.82L165.44,27.68z M146.57,49.12h16.87
				V32.25h-6.09c-0.39,0-0.72-0.14-1-0.41c-0.27-0.27-0.41-0.6-0.41-1v-6.09h-9.38V49.12z M149.27,33.07
				c0.55-0.55,1.21-0.82,1.99-0.82c0.78,0,1.44,0.27,1.99,0.82c0.55,0.55,0.82,1.21,0.82,1.99c0,0.78-0.27,1.45-0.82,1.99
				c-0.55,0.55-1.21,0.82-1.99,0.82c-0.78,0-1.45-0.27-1.99-0.82c-0.55-0.55-0.82-1.21-0.82-1.99
				C148.45,34.28,148.72,33.62,149.27,33.07z M148.45,46.31v-3.75l2.34-2.34c0.31-0.31,0.62-0.31,0.94,0l2.34,2.34l5.16-5.16
				c0.31-0.31,0.62-0.31,0.94,0l1.41,1.41v7.5H148.45z M163.21,29.44l-4.45-4.45v4.45H163.21z"/>
		</g>
		<g>
			<path class="st5" d="M89.97,53.39c0.55,0.55,0.82,1.21,0.82,1.99v19.45c0,0.78-0.27,1.44-0.82,1.99
				c-0.55,0.55-1.21,0.82-1.99,0.82H71.1c-0.78,0-1.45-0.27-1.99-0.82c-0.55-0.55-0.82-1.21-0.82-1.99V50.46
				c0-0.78,0.27-1.44,0.82-1.99c0.55-0.55,1.21-0.82,1.99-0.82h11.95c0.78,0,1.44,0.27,1.99,0.82L89.97,53.39z M71.1,74.83h16.88
				V57.96h-6.09c-0.39,0-0.72-0.14-1-0.41c-0.27-0.27-0.41-0.6-0.41-1v-6.09H71.1V74.83z M83.53,60.77c0.27,0,0.48,0.12,0.62,0.35
				c0.14,0.23,0.13,0.47-0.03,0.7c-1.37,2.38-2.27,3.91-2.7,4.57l2.7,4.57c0.16,0.23,0.17,0.47,0.03,0.7
				c-0.14,0.23-0.34,0.35-0.62,0.35h-1.7c-0.27,0-0.47-0.12-0.59-0.35c-0.08-0.12-0.64-1.25-1.7-3.4c-0.47,1.05-1.04,2.19-1.7,3.4
				c-0.12,0.23-0.31,0.35-0.59,0.35h-1.7c-0.27,0-0.48-0.12-0.62-0.35c-0.14-0.23-0.13-0.47,0.03-0.7l2.7-4.57l-2.7-4.57
				c-0.16-0.23-0.17-0.47-0.03-0.7c0.14-0.23,0.34-0.35,0.62-0.35h1.7c0.27,0,0.49,0.12,0.64,0.35c0.35,0.7,0.9,1.84,1.64,3.4
				c0.35-0.86,0.92-1.99,1.7-3.4c0.12-0.23,0.31-0.35,0.59-0.35H83.53z M87.74,55.15l-4.45-4.45v4.45H87.74z"/>
		</g>
		<g>
			<path class="st5" d="M47.5,115.02c0.55,0.55,0.82,1.21,0.82,1.99v19.45c0,0.78-0.27,1.44-0.82,1.99
				c-0.55,0.55-1.21,0.82-1.99,0.82H28.64c-0.78,0-1.45-0.27-1.99-0.82c-0.55-0.55-0.82-1.21-0.82-1.99v-24.38
				c0-0.78,0.27-1.44,0.82-1.99c0.55-0.55,1.21-0.82,1.99-0.82h11.95c0.78,0,1.44,0.27,1.99,0.82L47.5,115.02z M28.64,136.47h16.88
				v-16.88h-6.09c-0.39,0-0.72-0.14-1-0.41c-0.27-0.27-0.41-0.6-0.41-1v-6.09h-9.38V136.47z M41.53,124.28h0.94
				c0.23,0,0.42,0.09,0.56,0.26c0.14,0.18,0.18,0.38,0.15,0.62c-0.39,1.48-1.08,4.14-2.05,7.97c-0.08,0.35-0.31,0.53-0.7,0.53h-1.41
				c-0.39,0-0.62-0.18-0.7-0.53c-0.27-1.13-0.62-2.54-1.05-4.22l-0.18-1c0,0.31-0.06,0.64-0.18,1l-1.05,4.22
				c-0.08,0.35-0.29,0.53-0.64,0.53h-1.46c-0.39,0-0.62-0.18-0.7-0.53c-0.12-0.47-0.43-1.75-0.94-3.84c-0.51-2.09-0.84-3.47-1-4.13
				c-0.08-0.23-0.04-0.44,0.12-0.62c0.16-0.18,0.33-0.26,0.53-0.26h1c0.39,0,0.62,0.2,0.7,0.59c0.74,3.75,1.11,5.68,1.11,5.8
				c0,0.04,0.02,0.12,0.06,0.23c0-0.23,0.47-2.27,1.41-6.09c0.12-0.35,0.35-0.53,0.7-0.53h0.76c0.39,0,0.62,0.18,0.7,0.53
				c0.9,3.79,1.37,5.74,1.41,5.86c0,0.04,0,0.12,0,0.23c0.04-0.23,0.45-2.25,1.23-6.04C40.9,124.47,41.14,124.28,41.53,124.28z
				 M45.28,116.78l-4.45-4.45v4.45H45.28z"/>
		</g>
		<g>
			<path class="st5" d="M51.25,190.05c0.55,0.55,0.82,1.21,0.82,1.99v15.7c0,0.78-0.27,1.45-0.82,1.99
				c-0.55,0.55-1.21,0.82-1.99,0.82H28.64c-0.78,0-1.45-0.27-1.99-0.82c-0.55-0.55-0.82-1.21-0.82-1.99v-20.62
				c0-0.78,0.27-1.44,0.82-1.99c0.55-0.55,1.21-0.82,1.99-0.82h15.7c0.78,0,1.44,0.27,1.99,0.82L51.25,190.05z M48.91,207.75
				c0.23,0,0.35-0.12,0.35-0.35v-15.23c0-0.08-0.04-0.16-0.12-0.23l-4.57-4.57v5.86c0,0.39-0.14,0.72-0.41,1
				c-0.27,0.27-0.61,0.41-1,0.41H32.85c-0.39,0-0.72-0.14-1-0.41c-0.27-0.27-0.41-0.6-0.41-1v-6.09h-2.46
				c-0.23,0-0.35,0.12-0.35,0.35v19.92c0,0.23,0.12,0.35,0.35,0.35H48.91z M35.31,197.55c1.02-1.01,2.23-1.52,3.63-1.52
				s2.62,0.51,3.63,1.52c1.02,1.02,1.52,2.23,1.52,3.63s-0.51,2.62-1.52,3.63c-1.02,1.02-2.23,1.52-3.63,1.52s-2.62-0.51-3.63-1.52
				c-1.02-1.01-1.52-2.23-1.52-3.63S34.3,198.57,35.31,197.55z M41.76,187.12h-7.5v4.69h7.5V187.12z M37.28,202.86
				c0.45,0.45,1,0.67,1.67,0.67c0.66,0,1.22-0.22,1.67-0.67c0.45-0.45,0.67-1,0.67-1.67c0-0.66-0.23-1.22-0.67-1.67
				c-0.45-0.45-1.01-0.67-1.67-0.67c-0.67,0-1.22,0.23-1.67,0.67c-0.45,0.45-0.67,1.01-0.67,1.67
				C36.6,201.85,36.83,202.41,37.28,202.86z"/>
		</g>
		<g>
			<path class="st5" d="M79.3,245.59c0.55,0.55,0.82,1.21,0.82,1.99v19.45c0,0.78-0.27,1.44-0.82,1.99
				c-0.55,0.55-1.21,0.82-1.99,0.82H60.44c-0.78,0-1.45-0.27-1.99-0.82c-0.55-0.55-0.82-1.21-0.82-1.99v-24.38
				c0-0.78,0.27-1.45,0.82-1.99c0.55-0.55,1.21-0.82,1.99-0.82h11.95c0.78,0,1.44,0.27,1.99,0.82L79.3,245.59z M77.31,267.03v-16.88
				h-6.09c-0.39,0-0.72-0.14-1-0.41c-0.27-0.27-0.41-0.61-0.41-1v-6.09h-9.38v24.38H77.31z M66.41,260.29
				c0.23,0.23,0.23,0.49,0,0.76l-1,1.05c-0.12,0.12-0.25,0.18-0.41,0.18c-0.12,0-0.23-0.06-0.35-0.18l-3.34-3.16
				c-0.27-0.23-0.27-0.47,0-0.7l3.34-3.16c0.27-0.27,0.53-0.27,0.76,0l1,1.05v0.06c0.23,0.23,0.23,0.47,0,0.7l-1.93,1.7
				L66.41,260.29z M69.93,252.38l1.41,0.41c0.35,0.08,0.47,0.29,0.35,0.64l-3.22,11.02c-0.08,0.35-0.29,0.47-0.64,0.35l-1.41-0.41
				c-0.35-0.08-0.47-0.29-0.35-0.64l3.22-11.02C69.36,252.42,69.58,252.31,69.93,252.38z M71.33,256.9c-0.23-0.23-0.23-0.49,0-0.76
				l1-1.05c0.23-0.27,0.49-0.27,0.76,0l3.34,3.16c0.27,0.23,0.27,0.47,0,0.7l-3.34,3.16c-0.27,0.27-0.53,0.27-0.76,0l-1-1.05V261
				c-0.23-0.23-0.23-0.47,0-0.7l1.93-1.7L71.33,256.9z M72.62,242.89v4.45h4.45L72.62,242.89z"/>
		</g>
	</g>
</g>
<g id="python" transform="translate(255, 87) scale(2.5, 2.5)">
<path d="M7.90472 0.00013087C7.24498 0.00316295 6.61493 0.0588153 6.06056 0.15584C4.42744 0.441207 4.13093 1.0385 4.13093 2.14002V3.59479H7.99018V4.07971H4.13093H2.68259C1.56098 4.07971 0.578874 4.7465 0.271682 6.01495C-0.0826595 7.4689 -0.0983765 8.37618 0.271682 9.89434C0.546011 11.0244 1.20115 11.8296 2.32275 11.8296H3.64965V10.0856C3.64965 8.82574 4.75178 7.71441 6.06056 7.71441H9.91531C10.9883 7.71441 11.8449 6.84056 11.8449 5.77472V2.14002C11.8449 1.10556 10.9626 0.328486 9.91531 0.15584C9.25235 0.046687 8.56447 -0.00290121 7.90472 0.00013087ZM5.81767 1.17017C6.2163 1.17017 6.54184 1.49742 6.54184 1.89978C6.54184 2.30072 6.2163 2.62494 5.81767 2.62494C5.41761 2.62494 5.0935 2.30072 5.0935 1.89978C5.0935 1.49742 5.41761 1.17017 5.81767 1.17017Z" fill="url(#paint0_linear)"/>
<path d="M12.3262 4.07971V5.77472C12.3262 7.08883 11.1998 8.19488 9.9153 8.19488H6.06055C5.00466 8.19488 4.13092 9.0887 4.13092 10.1346V13.7693C4.13092 14.8037 5.04038 15.4122 6.06055 15.709C7.28217 16.0642 8.45364 16.1285 9.9153 15.709C10.8869 15.4307 11.8449 14.8708 11.8449 13.7693V12.3145H7.99017V11.8296H11.8449H13.7746C14.8962 11.8296 15.3141 11.0558 15.7042 9.89434C16.1071 8.69865 16.09 7.5488 15.7042 6.01495C15.427 4.91058 14.8976 4.07971 13.7746 4.07971H12.3262ZM10.1582 13.2843C10.5583 13.2843 10.8824 13.6086 10.8824 14.0095C10.8824 14.4119 10.5583 14.7391 10.1582 14.7391C9.75955 14.7391 9.43402 14.4119 9.43402 14.0095C9.43402 13.6086 9.75955 13.2843 10.1582 13.2843Z" fill="url(#paint1_linear)"/>
</g>
<g>
</g>
<g>
</g>
<g>
</g>
<g>
</g>
<g>
</g>
<g>
</g>
</svg>
