<?xml version="1.0" encoding="utf-8"?>
<!-- Generator: Adobe Illustrator 25.0.1, SVG Export Plug-In . SVG Version: 6.00 Build 0)  -->
<svg xmlns="http://www.w3.org/2000/svg" xmlns:xlink="http://www.w3.org/1999/xlink" version="1.1" id="Layer_1" x="0px" y="0px" viewBox="0 0 335 283" style="enable-background:new 0 0 335 283;" xml:space="preserve">
<style type="text/css">
	.st0{fill:#EEEEEE;}
	.st1{fill:none;stroke:#EEEEEE;stroke-width:3;stroke-linecap:round;stroke-linejoin:round;}
	.st2{fill:none;stroke:#EEEEEE;stroke-width:3;stroke-linecap:round;stroke-linejoin:round;stroke-dasharray:6.5303,8.7071;}
	.st3{fill:none;stroke:#EEEEEE;stroke-width:3;stroke-linecap:round;stroke-linejoin:round;stroke-dasharray:5.6936,7.5915;}
	.st4{fill:#68217A;}
	.st5{fill:#FFFFFF;}
	.st6{fill:#3F99D4;}
	.st7{fill:#575756;}
	.st8{fill-rule:evenodd;clip-rule:evenodd;fill:#575756;}
</style>
<g id="Aspose.Finance">
	<polygon class="st0" points="145.96,268.63 33.01,260.63 33.01,114.06 145.96,114.06  "/>
	<polygon class="st0" points="151.96,268.63 220.55,260.63 220.55,114.06 151.96,114.06  "/>
	<g id="lines_22_">
		<g>
			<g>
				<line class="st1" x1="171.15" y1="53.45" x2="168.15" y2="53.45"/>
				<line class="st2" x1="159.44" y1="53.45" x2="133.32" y2="53.45"/>
				<polyline class="st1" points="128.96,53.45 125.96,53.45 125.96,56.45     "/>
				<line class="st3" x1="125.96" y1="64.04" x2="125.96" y2="100.1"/>
				<line class="st1" x1="125.96" y1="103.9" x2="125.96" y2="106.9"/>
			</g>
		</g>
	</g>
	<g id="circles_22_">
		<circle class="st4" cx="186.13" cy="54.35" r="33.61"/>
		<path id="NET_22_" class="st5" d="M195.4,51.32h4.7v14.57h1.91V51.32h4.7v-1.73H195.4V51.32z M186.87,58.47h5.89v-1.73h-5.89    v-5.42h6.36v-1.73h-8.27v16.3h8.64v-1.73h-6.72L186.87,58.47L186.87,58.47z M179.45,61.08l0.11,2.4h-0.05    c-0.11-0.22-0.34-0.58-0.66-1.09l-8.16-12.79h-2.48v16.3h1.91V54.12l-0.09-2.24h0.07c0.14,0.37,0.31,0.71,0.51,1.02l8.41,12.99    h2.32v-16.3h-1.9L179.45,61.08L179.45,61.08z M164.16,63.59c-0.35,0-0.64,0.12-0.89,0.38c-0.24,0.25-0.36,0.55-0.36,0.91    c0,0.34,0.13,0.66,0.36,0.9c0.24,0.25,0.54,0.38,0.89,0.38c0.36,0,0.66-0.13,0.91-0.38s0.38-0.56,0.38-0.91s-0.13-0.65-0.38-0.91    c-0.24-0.25-0.57-0.39-0.91-0.38 M202.03,46.33c0,0.87,0.39,1.31,1.16,1.31c0.28,0,0.5-0.05,0.67-0.14v-0.61    c-0.13,0.1-0.3,0.15-0.46,0.14c-0.24,0-0.4-0.06-0.51-0.19c-0.1-0.12-0.15-0.34-0.15-0.63v-2.5h1.12v-0.6h-1.11V41.8l-0.71,0.23    v1.08h-0.76v0.6h0.76v2.63L202.03,46.33z M199.13,47.54h0.71v-3.83h1.04v-0.6h-1.04v-0.68c0-0.63,0.25-0.94,0.74-0.94    c0.16,0,0.33,0.04,0.47,0.12v-0.64c-0.13-0.06-0.3-0.08-0.52-0.08c-0.38,0-0.7,0.11-0.96,0.36c-0.3,0.28-0.45,0.66-0.45,1.15v0.72    h-0.75v0.6h0.75v3.84L199.13,47.54z M194.28,45.34c0-0.57,0.14-1,0.42-1.31c0.27-0.29,0.62-0.43,1.06-0.43    c0.45,0,0.8,0.14,1.05,0.43c0.26,0.3,0.39,0.73,0.39,1.3c0,0.54-0.11,0.97-0.36,1.26c-0.24,0.3-0.6,0.45-1.07,0.45    c-0.45,0-0.81-0.15-1.08-0.45C194.41,46.29,194.28,45.87,194.28,45.34 M197.32,47c0.4-0.43,0.6-0.99,0.6-1.7    c0-0.72-0.19-1.28-0.56-1.7c-0.37-0.41-0.89-0.61-1.55-0.61c-0.67,0-1.21,0.2-1.61,0.59c-0.43,0.42-0.65,1.02-0.65,1.79    c0,0.68,0.19,1.22,0.57,1.63c0.39,0.43,0.92,0.64,1.59,0.64C196.39,47.64,196.93,47.43,197.32,47 M192.44,47.25    c0.27-0.22,0.42-0.56,0.41-0.9c0-0.33-0.11-0.6-0.33-0.81c-0.17-0.17-0.44-0.33-0.82-0.49c-0.34-0.14-0.56-0.27-0.67-0.37    c-0.12-0.11-0.18-0.26-0.18-0.46c0-0.18,0.07-0.33,0.21-0.45s0.33-0.17,0.57-0.17c0.38,0,0.71,0.11,1.01,0.32V43.2    c-0.28-0.14-0.6-0.21-0.95-0.21c-0.45,0-0.84,0.12-1.13,0.37c-0.29,0.25-0.44,0.55-0.44,0.92c0,0.33,0.09,0.6,0.28,0.8    c0.16,0.17,0.42,0.34,0.79,0.5c0.36,0.16,0.6,0.29,0.73,0.41s0.19,0.26,0.19,0.43c0,0.41-0.28,0.62-0.85,0.62    c-0.42,0-0.81-0.14-1.15-0.43v0.76c0.31,0.18,0.68,0.27,1.1,0.27C191.73,47.64,192.14,47.51,192.44,47.25 M186.1,44.03    c0.26-0.29,0.63-0.43,1.06-0.43c0.45,0,0.8,0.14,1.05,0.43c0.26,0.3,0.38,0.73,0.38,1.3c0,0.54-0.11,0.97-0.36,1.26    c-0.24,0.3-0.6,0.45-1.07,0.45c-0.45,0-0.81-0.15-1.08-0.45s-0.4-0.71-0.4-1.25C185.69,44.77,185.83,44.33,186.1,44.03     M187.12,47.64c0.68,0,1.21-0.21,1.61-0.64c0.4-0.43,0.6-0.99,0.6-1.7c0-0.72-0.19-1.28-0.56-1.7c-0.37-0.41-0.89-0.61-1.55-0.61    c-0.67,0-1.21,0.2-1.61,0.59c-0.43,0.42-0.65,1.02-0.65,1.79c0,0.68,0.19,1.22,0.57,1.63C185.92,47.42,186.45,47.64,187.12,47.64     M183.54,43.26c-0.22,0.17-0.38,0.43-0.48,0.75h-0.02v-0.92h-0.71v4.44h0.71v-2.25c0-0.52,0.11-0.92,0.33-1.21    c0.2-0.26,0.44-0.39,0.73-0.39c0.24,0,0.42,0.05,0.54,0.14v-0.74c-0.1-0.04-0.24-0.06-0.43-0.06    C183.97,43.03,183.74,43.11,183.54,43.26 M180.04,47.64c0.47,0,0.88-0.1,1.22-0.31v-0.67c-0.34,0.25-0.7,0.38-1.09,0.38    c-0.45,0-0.82-0.15-1.1-0.45c-0.27-0.3-0.41-0.71-0.41-1.23c0-0.54,0.15-0.97,0.45-1.29c0.28-0.31,0.65-0.47,1.1-0.47    c0.38,0,0.75,0.12,1.06,0.35v-0.73c-0.3-0.15-0.64-0.23-1.03-0.23c-0.7,0-1.27,0.22-1.68,0.67s-0.63,1.04-0.63,1.76    c0,0.65,0.19,1.18,0.57,1.59C178.89,47.44,179.41,47.65,180.04,47.64 M176.11,47.55h0.71v-4.44h-0.71V47.55L176.11,47.55z     M176.47,41.98c0.12,0,0.24-0.05,0.33-0.14s0.14-0.21,0.14-0.33c0-0.12-0.05-0.24-0.14-0.33s-0.21-0.13-0.33-0.13    c-0.13,0-0.24,0.04-0.33,0.13c-0.09,0.09-0.14,0.2-0.14,0.33c0,0.14,0.05,0.25,0.14,0.33C176.23,41.94,176.35,41.98,176.47,41.98     M168.93,43.38l-0.03-1.21h0.02c0.06,0.29,0.13,0.5,0.19,0.64l2.12,4.74h0.36l2.13-4.78c0.05-0.13,0.12-0.33,0.19-0.6h0.02    l-0.06,1.2v4.18h0.73v-6.22h-0.91l-1.95,4.31c-0.08,0.17-0.17,0.42-0.3,0.76h-0.03c-0.05-0.17-0.14-0.42-0.28-0.74l-1.91-4.34    h-0.96v6.22h0.7v-4.16H168.93z M206.29,44.1c-0.2,0.2-0.45,0.3-0.74,0.3c-0.29,0-0.54-0.1-0.74-0.3s-0.31-0.45-0.31-0.75    c0-0.29,0.1-0.54,0.3-0.74c0.2-0.2,0.45-0.3,0.75-0.3c0.28-0.01,0.54,0.1,0.74,0.3s0.31,0.47,0.3,0.75    C206.6,43.66,206.49,43.91,206.29,44.1 M205.56,42.19c-0.32-0.01-0.62,0.11-0.85,0.34c-0.22,0.22-0.35,0.52-0.34,0.84    c0,0.34,0.11,0.61,0.34,0.84s0.51,0.33,0.84,0.33c0.32,0.01,0.62-0.11,0.85-0.34c0.23-0.23,0.34-0.5,0.34-0.84    s-0.11-0.63-0.34-0.84C206.18,42.3,205.88,42.19,205.56,42.19 M205.53,43.28h-0.23v-0.51h0.19c0.13,0,0.22,0.02,0.28,0.07    c0.05,0.04,0.07,0.1,0.07,0.19C205.84,43.2,205.74,43.28,205.53,43.28 M205.69,43.42L205.69,43.42c0.12-0.03,0.22-0.08,0.28-0.15    c0.07-0.07,0.1-0.17,0.1-0.26c0-0.11-0.04-0.21-0.12-0.28c-0.1-0.09-0.24-0.13-0.43-0.13h-0.42v1.5h0.21v-0.63h0.14    c0.1,0,0.19,0.09,0.27,0.27l0.16,0.36h0.26l-0.2-0.4C205.86,43.53,205.77,43.44,205.69,43.42"/>
	</g>
	<g>
		<g>
			<path class="st6" d="M63.63,222.06H50.97v-60.68h34.78v10.54H63.63v15.65h20.59v10.5H63.63V222.06z"/>
		</g>
		<g>
			<path class="st6" d="M129.55,222.27h-10.42v-22.32c0-2.76-0.49-4.82-1.47-6.2c-0.98-1.38-2.54-2.07-4.68-2.07     c-2.92,0-5.02,0.97-6.32,2.92c-1.3,1.95-1.95,5.18-1.95,9.69v17.98H94.27v-38.21h7.96l1.4,4.89h0.58     c1.16-1.85,2.76-3.24,4.8-4.19c2.04-0.95,4.36-1.42,6.96-1.42c4.44,0,7.82,1.2,10.12,3.61c2.3,2.4,3.45,5.87,3.45,10.41V222.27z"/>
		</g>
	</g>
	<g>
		<rect x="162.04" y="219.42" class="st7" width="48" height="2.66"/>
		<g>
			<rect x="176.07" y="190.03" class="st8" width="7.09" height="29.54"/>
			<rect x="188.48" y="184.12" class="st8" width="7.09" height="35.45"/>
			<rect x="200.89" y="178.21" class="st8" width="7.09" height="41.36"/>
			<rect x="163.67" y="195.93" class="st8" width="7.09" height="23.63"/>
		</g>
		<g>
			
				<rect x="176.66" y="173.83" transform="matrix(0.8349 -0.5505 0.5505 0.8349 -68.4458 127.4848)" class="st8" width="3.19" height="7.98"/>
			
				<rect x="179.45" y="173.05" transform="matrix(0.8347 -0.5506 0.5506 0.8347 -65.1923 132.0697)" class="st8" width="15.97" height="3.19"/>
			
				<rect x="185.83" y="168.34" transform="matrix(0.8348 -0.5505 0.5505 0.8348 -61.4052 135.1954)" class="st8" width="17.57" height="3.19"/>
			<polygon class="st8" points="198.95,161.36 206.52,161.97 204.41,169.26    "/>
			
				<rect x="163.37" y="177.9" transform="matrix(0.8348 -0.5505 0.5505 0.8348 -70.5164 123.9837)" class="st8" width="15.97" height="3.19"/>
		</g>
	</g>
</g>
<g>
</g>
<g>
</g>
<g>
</g>
<g>
</g>
<g>
</g>
</svg>
