<?xml version="1.0" encoding="utf-8"?>
<!-- Generator: Adobe Illustrator 25.2.0, SVG Export Plug-In . SVG Version: 6.00 Build 0)  -->
<svg version="1.1" id="Aspose.PAGE" xmlns="http://www.w3.org/2000/svg" xmlns:xlink="http://www.w3.org/1999/xlink" x="0px"
	 y="0px" viewBox="0 0 277 277" style="enable-background:new 0 0 277 277;" xml:space="preserve">
<style type="text/css">
	.st0{fill-rule:evenodd;clip-rule:evenodd;fill:#FFFFFF;}
	.st1{fill-rule:evenodd;clip-rule:evenodd;fill:#0959A1;}
	.st2{fill:#FFFFFF;}
	.st3{fill:#0959A1;}
</style>
<g id="CPP">
	<path id="XMLID_5_" class="st0" d="M180.46,87.48c-25.78,0-47.67,9.07-65.69,27.2c-18.12,18.02-27.18,39.93-27.18,65.72
		s9.06,47.65,27.18,65.56c6.65,6.78,13.85,12.3,21.61,16.56H23.59c-1.8-0.11-3.55-0.62-5.23-1.52c-2.81-1.35-4.22-4-4.22-7.94V23.62
		c0.22-2.03,0.67-3.77,1.35-5.24c1.46-2.82,4.17-4.22,8.1-4.22h229.47l1.52,0.34c1.35,0.23,2.53,0.56,3.55,1.01
		c2.93,1.35,4.39,4.05,4.39,8.11v112.87c-4.26-7.79-9.77-15.06-16.55-21.79C227.74,96.55,205.9,87.48,180.46,87.48z"/>
	<path id="XMLID_1_" class="st1" d="M180.46,87.48c25.44,0,47.28,9.07,65.51,27.2c6.78,6.74,12.29,14,16.55,21.79V23.62
		c0-4.06-1.46-6.76-4.39-8.11c-1.01-0.45-2.2-0.79-3.55-1.01l-1.52-0.34H23.59c-3.94,0-6.64,1.41-8.1,4.22
		c-0.68,1.46-1.13,3.21-1.35,5.24v229.45c0,3.94,1.41,6.59,4.22,7.94c1.69,0.9,3.43,1.41,5.23,1.52h112.79
		c-7.76-4.26-14.96-9.78-21.61-16.56c-18.12-17.91-27.18-39.76-27.18-65.56s9.06-47.7,27.18-65.72
		C132.78,96.55,154.68,87.48,180.46,87.48z M259.14,3.68c2.48,0.45,4.39,1.07,5.74,1.86c5.63,2.7,8.44,7.6,8.44,14.7v160.18
		c0,25.68-9.12,47.54-27.36,65.56c-18.23,18.25-40.07,27.37-65.51,27.37H20.21c-2.7,0-5.52-0.67-8.44-2.03
		c-5.63-2.93-8.44-7.88-8.44-14.87V20.24c0-2.82,0.73-5.63,2.19-8.45c2.7-5.63,7.6-8.45,14.69-8.45h236.23L259.14,3.68z"/>
	<g id="Book_1_">
		<polygon class="st2" points="138.62,141.09 147.25,141.09 167.22,143.25 180.89,155.7 186.1,155.7 197.03,148.39 214.88,141.09 
			230.57,138.3 230.57,210.89 214.88,205.86 196.49,210.89 188.67,217.92 184.6,217.92 178.09,217.92 172.68,213.59 161.01,209.26 
			148.33,209.26 138.62,211.43 		"/>
		<path class="st2" d="M184.61,225.18c-0.55,0-1.1-0.11-1.62-0.34c-1.48-0.64-2.44-2.11-2.44-3.72v-53.59
			c0-13.65,8.63-23.69,24.96-29.03c11.76-3.85,23.78-4.05,26.07-4.05l0.28,0c2.22,0.03,4,1.84,4,4.06v73.75c0,1.44-0.76,2.77-2,3.5
			c-1.24,0.73-2.77,0.75-4.03,0.05c-0.05-0.03-6.29-3.37-15.19-3.37c-9.79,0-18.97,3.92-27.28,11.65
			C186.61,224.81,185.62,225.18,184.61,225.18z M227.76,142.71c-10.58,0.64-39.08,4.29-39.08,24.83v45.12
			c8.04-5.53,16.75-8.32,25.98-8.32c5.28,0,9.79,0.95,13.1,1.97V142.71z"/>
		<path class="st2" d="M184.62,225.18c-1.01,0-2-0.37-2.77-1.09c-8.31-7.73-17.48-11.65-27.28-11.65c-8.89,0-15.14,3.34-15.2,3.38
			c-1.26,0.68-2.79,0.66-4.02-0.07c-1.23-0.73-1.99-2.05-1.99-3.49v-73.75c0-2.22,1.79-4.03,4-4.06l0.28,0
			c2.29,0,14.31,0.2,26.07,4.05c16.33,5.34,24.96,15.39,24.96,29.03v53.59c0,1.62-0.96,3.08-2.44,3.72
			C185.71,225.07,185.16,225.18,184.62,225.18z M154.57,204.33c9.23,0,17.94,2.8,25.98,8.32v-45.12c0-20.54-28.51-24.18-39.08-24.83
			v63.59C144.79,205.29,149.3,204.33,154.57,204.33z"/>
	</g>
	<g>
		<path class="st3" d="M71.02,55.43c0,6.11-2,10.8-6.01,14.05c-4,3.26-9.7,4.88-17.1,4.88h-6.09v21.9h-9.57V37.73h16.86
			c7.31,0,12.79,1.5,16.44,4.48C69.2,45.21,71.02,49.61,71.02,55.43z M41.84,66.32h5.08c4.91,0,8.51-0.85,10.81-2.56
			c2.29-1.71,3.44-4.38,3.44-8.01c0-3.36-1.03-5.87-3.08-7.53c-2.06-1.65-5.26-2.48-9.61-2.48h-6.65V66.32z"/>
		<path class="st3" d="M99.07,63.87v3.78l-5.54,1.03c0.51,0.68,0.93,1.52,1.26,2.52s0.5,2.05,0.5,3.16c0,3.34-1.15,5.97-3.46,7.88
			c-2.3,1.91-5.48,2.87-9.52,2.87c-1.04,0-1.97-0.08-2.81-0.23c-1.48,0.92-2.23,1.99-2.23,3.22c0,0.74,0.35,1.3,1.04,1.67
			c0.69,0.37,1.97,0.56,3.82,0.56h5.65c3.57,0,6.29,0.76,8.14,2.29s2.78,3.72,2.78,6.59c0,3.67-1.51,6.5-4.54,8.5
			s-7.4,2.99-13.12,2.99c-4.41,0-7.78-0.78-10.11-2.34c-2.32-1.56-3.49-3.79-3.49-6.68c0-1.99,0.63-3.67,1.89-5.02
			s3.02-2.3,5.29-2.83c-0.92-0.39-1.67-1.02-2.27-1.89c-0.6-0.87-0.89-1.78-0.89-2.74c0-1.21,0.34-2.24,1.03-3.08
			c0.68-0.84,1.7-1.67,3.05-2.49c-1.68-0.72-3.04-1.9-4.09-3.53c-1.04-1.63-1.57-3.54-1.57-5.73c0-3.52,1.11-6.24,3.33-8.17
			s5.38-2.9,9.48-2.9c0.92,0,1.88,0.06,2.89,0.19c1.01,0.13,1.76,0.26,2.27,0.4H99.07z M73.61,101.31c0,1.48,0.67,2.63,2.01,3.43
			c1.34,0.8,3.22,1.2,5.64,1.2c3.75,0,6.54-0.54,8.38-1.61c1.84-1.07,2.75-2.5,2.75-4.28c0-1.41-0.5-2.41-1.51-3
			c-1.01-0.6-2.88-0.89-5.61-0.89h-5.21c-1.97,0-3.54,0.46-4.7,1.39C74.2,98.47,73.61,99.73,73.61,101.31z M76.57,74.36
			c0,2.03,0.52,3.59,1.57,4.69c1.04,1.09,2.54,1.64,4.5,1.64c3.98,0,5.98-2.13,5.98-6.39c0-2.11-0.49-3.74-1.48-4.88
			s-2.49-1.71-4.5-1.71c-1.99,0-3.5,0.57-4.53,1.7C77.09,70.54,76.57,72.19,76.57,74.36z"/>
	</g>
	<g id="shape_1_">
		<g>
			<rect x="198.62" y="158.16" class="st3" width="26" height="3.57"/>
			<rect x="198.62" y="168.98" class="st3" width="26" height="3.57"/>
			<rect x="198.62" y="179.8" class="st3" width="26" height="3.57"/>
			<rect x="198.62" y="190.63" class="st3" width="26" height="3.57"/>
			<path class="st3" d="M164.84,177.14l-6.69,1.02c-0.37,1.21-0.88,2.41-1.5,3.58c1.24,1.72,2.59,3.33,3.84,5.01
				c0.18,0.26,0.29,0.51,0.29,0.84c0,0.29-0.07,0.58-0.26,0.8c-1.53,2.15-4.09,4.42-6.03,6.21c-0.26,0.22-0.58,0.37-0.91,0.37
				c-0.33,0-0.66-0.11-0.88-0.33l-5.19-3.91c-1.06,0.55-2.16,0.99-3.29,1.35l-1.02,6.72c-0.07,0.62-0.66,1.1-1.31,1.1h-8.11
				c-0.39,0-0.72-0.15-0.96-0.4v-19.78c1.45,0.93,3.17,1.48,5.02,1.48c5.15,0,9.35-4.2,9.35-9.35c0-5.15-4.2-9.35-9.35-9.35
				c-1.85,0-3.57,0.55-5.02,1.48v-19.78c0.25-0.25,0.59-0.4,0.96-0.4h8.11c0.66,0,1.17,0.44,1.31,1.02c0.59,2.19,0.8,4.57,1.06,6.8
				c1.13,0.37,2.27,0.84,3.33,1.39l5.04-3.95c0.29-0.18,0.62-0.33,0.95-0.33c1.24,0,6.17,5.37,7.05,6.54
				c0.22,0.26,0.33,0.51,0.33,0.84c0,0.33-0.15,0.66-0.37,0.91c-1.35,1.64-2.67,3.25-3.91,5.04c0.58,1.06,1.02,2.16,1.43,3.33
				l6.76,1.02c0.58,0.11,1.02,0.77,1.02,1.31v8.11C165.9,176.45,165.46,177.03,164.84,177.14z"/>
		</g>
	</g>
</g>
<g>
</g>
<g>
</g>
<g>
</g>
<g>
</g>
<g>
</g>
<g>
</g>
</svg>
