<?xml version="1.0" encoding="utf-8"?>
<!-- Generator: Adobe Illustrator 25.0.1, SVG Export Plug-In . SVG Version: 6.00 Build 0)  -->
<svg xmlns="http://www.w3.org/2000/svg" xmlns:xlink="http://www.w3.org/1999/xlink" version="1.1" id="Layer_1" x="0px" y="0px" viewBox="0 0 335 283" style="enable-background:new 0 0 335 283;" xml:space="preserve">
<style type="text/css">
	.st0{fill:#EEEEEE;}
	
		.st1{fill:none;stroke:#EEEEEE;stroke-width:3;stroke-linecap:round;stroke-linejoin:round;stroke-miterlimit:10;stroke-dasharray:6,8;}
	.st2{fill:none;stroke:#EEEEEE;stroke-width:3;stroke-linecap:round;stroke-linejoin:round;}
	.st3{fill:none;stroke:#EEEEEE;stroke-width:3;stroke-linecap:round;stroke-linejoin:round;stroke-dasharray:6.5303,8.7071;}
	.st4{fill:none;stroke:#EEEEEE;stroke-width:3;stroke-linecap:round;stroke-linejoin:round;stroke-dasharray:5.6936,7.5915;}
	.st5{fill:#68217A;}
	.st6{fill:#DE4444;}
	.st7{fill:#FFFFFF;}
	.st8{fill:#4198D3;}
	.st9{fill:#575756;}
	.st10{opacity:0.5;}
</style>
<g id="Aspose.CAD">
	<polygon class="st0" points="145.07,271.48 32.12,263.48 32.12,116.91 145.07,116.91  "/>
	<polygon class="st0" points="151.07,271.48 219.66,263.48 219.66,116.91 151.07,116.91  "/>
	<g id="lines_12_">
		<polyline class="st1" points="292.19,139.37 241.49,139.37 241.49,182.48 217.52,182.48   "/>
		<g>
			<g>
				<line class="st2" x1="170.26" y1="56.3" x2="167.26" y2="56.3"/>
				<line class="st3" x1="158.55" y1="56.3" x2="132.43" y2="56.3"/>
				<polyline class="st2" points="128.07,56.3 125.07,56.3 125.07,59.3     "/>
				<line class="st4" x1="125.07" y1="66.89" x2="125.07" y2="102.95"/>
				<line class="st2" x1="125.07" y1="106.75" x2="125.07" y2="109.75"/>
			</g>
		</g>
	</g>
	<g id="circles_12_">
		<circle class="st5" cx="185.24" cy="57.2" r="33.61"/>
		<circle class="st6" cx="299.65" cy="139.49" r="33.61"/>
		<g id="java_12_">
			<path id="XMLID_105_" class="st7" d="M299.51,123.84c-1.81,1.27-3.86,2.72-4.96,5.11c-1.91,4.17,3.91,8.71,4.16,8.91     c0.06,0.04,0.13,0.07,0.2,0.07s0.15-0.03,0.21-0.07c0.12-0.1,0.15-0.26,0.08-0.39c-0.02-0.04-2.11-4.1-2.03-7.01     c0.03-1.01,1.45-2.16,2.95-3.38c1.38-1.12,2.94-2.38,3.85-3.86c2-3.26-0.22-6.46-0.25-6.49c-0.09-0.12-0.25-0.17-0.39-0.11     c-0.14,0.06-0.22,0.21-0.18,0.36c0,0.02,0.44,2.14-0.77,4.32C301.86,122.19,300.77,122.95,299.51,123.84z"/>
			<path id="XMLID_104_" class="st7" d="M307.14,125.28c0.13-0.1,0.17-0.27,0.09-0.41c-0.08-0.14-0.25-0.2-0.4-0.15     c-0.31,0.12-7.54,2.9-7.54,6.27c0,2.32,0.99,3.55,1.71,4.44c0.28,0.35,0.53,0.65,0.61,0.91c0.23,0.75-0.31,2.09-0.54,2.55     c-0.07,0.13-0.03,0.29,0.08,0.39c0.06,0.05,0.13,0.08,0.21,0.08c0.06,0,0.13-0.02,0.18-0.06c0.12-0.09,3.04-2.15,2.51-4.63     c-0.19-0.94-0.66-1.63-1.07-2.24c-0.63-0.94-1.09-1.62-0.4-2.88C303.42,128.09,307.11,125.31,307.14,125.28z"/>
			<path id="XMLID_103_" class="st7" d="M288.33,139.41c-0.12,0.37-0.07,0.74,0.17,1.06c0.78,1.09,3.56,1.69,7.81,1.69l0,0     c0.58,0,1.19-0.01,1.81-0.03c6.8-0.24,9.33-2.36,9.43-2.45c0.11-0.1,0.14-0.26,0.07-0.39c-0.07-0.13-0.22-0.2-0.37-0.16     c-2.4,0.65-6.87,0.89-9.98,0.89c-3.47,0-5.24-0.25-5.67-0.43c0.22-0.31,1.59-0.85,3.29-1.18c0.16-0.03,0.27-0.18,0.26-0.35     c-0.02-0.16-0.15-0.29-0.32-0.29C293.84,137.75,288.85,137.83,288.33,139.41z"/>
			<path id="XMLID_102_" class="st7" d="M311.1,137.23c-1.4,0-2.73,0.7-2.79,0.73c-0.13,0.07-0.2,0.22-0.16,0.36     c0.04,0.14,0.16,0.24,0.31,0.24c0.03,0,2.99,0.02,3.26,1.72c0.24,1.46-2.8,3.83-4,4.62c-0.13,0.09-0.18,0.25-0.12,0.39     c0.05,0.12,0.17,0.2,0.3,0.2c0.02,0,0.04,0,0.07-0.01c0.28-0.06,6.92-1.52,6.22-5.39C313.76,137.73,312.27,137.23,311.1,137.23z"/>
			<path id="XMLID_101_" class="st7" d="M306.55,144.43c0.02-0.12-0.03-0.25-0.13-0.32l-1.59-1.11c-0.08-0.05-0.18-0.07-0.27-0.05     c-0.02,0-1.68,0.44-4.1,0.71c-0.96,0.11-2.03,0.16-3.11,0.16c-2.42,0-4-0.28-4.23-0.49c-0.03-0.06-0.02-0.09-0.02-0.1     c0.04-0.12,0.27-0.25,0.41-0.31c0.16-0.06,0.25-0.23,0.2-0.39c-0.05-0.16-0.22-0.26-0.38-0.22c-1.6,0.39-2.38,0.92-2.32,1.6     c0.1,1.2,2.88,1.82,5.23,1.98c0.34,0.02,0.7,0.03,1.09,0.03l0,0c3.91,0,8.92-1.23,8.97-1.24     C306.43,144.65,306.52,144.55,306.55,144.43z"/>
			<path id="XMLID_100_" class="st7" d="M294.54,147.01c0.12-0.08,0.17-0.23,0.13-0.36c-0.04-0.14-0.17-0.23-0.32-0.23     c-0.21,0.01-2.09,0.09-2.23,1.29c-0.04,0.36,0.06,0.68,0.3,0.97c0.68,0.8,2.5,1.28,5.57,1.45c0.36,0.02,0.73,0.03,1.1,0.03     c3.91,0,6.54-1.22,6.65-1.27c0.11-0.05,0.18-0.16,0.18-0.27c0.01-0.12-0.05-0.23-0.15-0.29l-2.01-1.23     c-0.07-0.04-0.15-0.06-0.23-0.04c-0.01,0-1.29,0.27-3.22,0.53c-0.36,0.05-0.82,0.07-1.36,0.07c-1.93,0-4.07-0.31-4.48-0.52     C294.48,147.1,294.49,147.05,294.54,147.01z"/>
			<path id="XMLID_99_" class="st7" d="M297.29,153.85c8.95-0.01,13.75-1.6,14.67-2.6c0.33-0.35,0.36-0.69,0.33-0.91     c-0.07-0.54-0.56-0.87-0.62-0.9c-0.13-0.09-0.31-0.06-0.42,0.06c-0.1,0.12-0.11,0.3,0,0.42c0.06,0.07,0.09,0.19-0.08,0.36     c-0.37,0.35-4.1,1.39-10.31,1.71c-0.85,0.04-1.74,0.07-2.65,0.07c-5.56,0-9.63-0.76-10.16-1.21c0.21-0.3,1.65-0.77,3.18-1.04     c0.17-0.03,0.29-0.19,0.26-0.37c-0.03-0.18-0.19-0.29-0.36-0.27c-0.04,0.01-0.19,0.01-0.36,0.03c-2.53,0.15-5.44,0.5-5.6,1.8     c-0.05,0.4,0.07,0.76,0.35,1.07C286.21,152.83,288.17,153.85,297.29,153.85L297.29,153.85z"/>
			<path id="XMLID_98_" class="st7" d="M313.72,151.54c-0.13-0.06-0.28-0.03-0.37,0.07c-0.01,0.01-1.36,1.42-5.4,2.25     c-1.55,0.31-4.45,0.47-8.64,0.47s-8.18-0.16-8.22-0.17c-0.17-0.01-0.31,0.11-0.33,0.28c-0.02,0.16,0.08,0.32,0.24,0.36     c0.04,0.01,4.22,0.99,9.94,0.99c2.74,0,5.41-0.22,7.93-0.66c4.7-0.82,5.03-3.15,5.04-3.25     C313.92,151.73,313.84,151.59,313.72,151.54z"/>
		</g>
		<path id="NET_12_" class="st7" d="M194.51,54.17h4.7v14.57h1.91V54.17h4.7v-1.73h-11.31V54.17z M185.98,61.32h5.89v-1.73h-5.89    v-5.42h6.36v-1.73h-8.27v16.3h8.64v-1.73h-6.72L185.98,61.32L185.98,61.32z M178.56,63.93l0.11,2.4h-0.05    c-0.11-0.22-0.34-0.58-0.66-1.09l-8.16-12.79h-2.48v16.3h1.91V56.97l-0.09-2.24h0.07c0.14,0.37,0.31,0.71,0.51,1.02l8.41,12.99    h2.32v-16.3h-1.9L178.56,63.93L178.56,63.93z M163.27,66.44c-0.35,0-0.64,0.12-0.89,0.38c-0.24,0.25-0.36,0.55-0.36,0.91    c0,0.34,0.13,0.66,0.36,0.9c0.24,0.25,0.54,0.38,0.89,0.38c0.36,0,0.66-0.13,0.91-0.38s0.38-0.56,0.38-0.91s-0.13-0.65-0.38-0.91    c-0.24-0.25-0.57-0.39-0.91-0.38 M201.14,49.18c0,0.87,0.39,1.31,1.16,1.31c0.28,0,0.5-0.05,0.67-0.14v-0.61    c-0.13,0.1-0.3,0.15-0.46,0.14c-0.24,0-0.4-0.06-0.51-0.19c-0.1-0.12-0.15-0.34-0.15-0.63v-2.5h1.12v-0.6h-1.11v-1.31l-0.71,0.23    v1.08h-0.76v0.6h0.76v2.63L201.14,49.18z M198.24,50.39h0.71v-3.83h1.04v-0.6h-1.04v-0.68c0-0.63,0.25-0.94,0.74-0.94    c0.16,0,0.33,0.04,0.47,0.12v-0.64c-0.13-0.06-0.3-0.08-0.52-0.08c-0.38,0-0.7,0.11-0.96,0.36c-0.3,0.28-0.45,0.66-0.45,1.15v0.72    h-0.75v0.6h0.75v3.84L198.24,50.39z M193.39,48.19c0-0.57,0.14-1,0.42-1.31c0.27-0.29,0.62-0.43,1.06-0.43    c0.45,0,0.8,0.14,1.05,0.43c0.26,0.3,0.39,0.73,0.39,1.3c0,0.54-0.11,0.97-0.36,1.26c-0.24,0.3-0.6,0.45-1.07,0.45    c-0.45,0-0.81-0.15-1.08-0.45C193.52,49.14,193.39,48.72,193.39,48.19 M196.43,49.85c0.4-0.43,0.6-0.99,0.6-1.7    c0-0.72-0.19-1.28-0.56-1.7c-0.37-0.41-0.89-0.61-1.55-0.61c-0.67,0-1.21,0.2-1.61,0.59c-0.43,0.42-0.65,1.02-0.65,1.79    c0,0.68,0.19,1.22,0.57,1.63c0.39,0.43,0.92,0.64,1.59,0.64C195.5,50.49,196.04,50.28,196.43,49.85 M191.55,50.1    c0.27-0.22,0.42-0.56,0.41-0.9c0-0.33-0.11-0.6-0.33-0.81c-0.17-0.17-0.44-0.33-0.82-0.49c-0.34-0.14-0.56-0.27-0.67-0.37    c-0.12-0.11-0.18-0.26-0.18-0.46c0-0.18,0.07-0.33,0.21-0.45s0.33-0.17,0.57-0.17c0.38,0,0.71,0.11,1.01,0.32v-0.72    c-0.28-0.14-0.6-0.21-0.95-0.21c-0.45,0-0.84,0.12-1.13,0.37c-0.29,0.25-0.44,0.55-0.44,0.92c0,0.33,0.09,0.6,0.28,0.8    c0.16,0.17,0.42,0.34,0.79,0.5c0.36,0.16,0.6,0.29,0.73,0.41s0.19,0.26,0.19,0.43c0,0.41-0.28,0.62-0.85,0.62    c-0.42,0-0.81-0.14-1.15-0.43v0.76c0.31,0.18,0.68,0.27,1.1,0.27C190.84,50.49,191.25,50.36,191.55,50.1 M185.21,46.88    c0.26-0.29,0.63-0.43,1.06-0.43c0.45,0,0.8,0.14,1.05,0.43c0.26,0.3,0.38,0.73,0.38,1.3c0,0.54-0.11,0.97-0.36,1.26    c-0.24,0.3-0.6,0.45-1.07,0.45c-0.45,0-0.81-0.15-1.08-0.45s-0.4-0.71-0.4-1.25C184.8,47.62,184.94,47.18,185.21,46.88     M186.23,50.49c0.68,0,1.21-0.21,1.61-0.64c0.4-0.43,0.6-0.99,0.6-1.7c0-0.72-0.19-1.28-0.56-1.7c-0.37-0.41-0.89-0.61-1.55-0.61    c-0.67,0-1.21,0.2-1.61,0.59c-0.43,0.42-0.65,1.02-0.65,1.79c0,0.68,0.19,1.22,0.57,1.63C185.03,50.27,185.56,50.49,186.23,50.49     M182.65,46.11c-0.22,0.17-0.38,0.43-0.48,0.75h-0.02v-0.92h-0.71v4.44h0.71v-2.25c0-0.52,0.11-0.92,0.33-1.21    c0.2-0.26,0.44-0.39,0.73-0.39c0.24,0,0.42,0.05,0.54,0.14v-0.74c-0.1-0.04-0.24-0.06-0.43-0.06    C183.08,45.88,182.85,45.96,182.65,46.11 M179.15,50.49c0.47,0,0.88-0.1,1.22-0.31v-0.67c-0.34,0.25-0.7,0.38-1.09,0.38    c-0.45,0-0.82-0.15-1.1-0.45c-0.27-0.3-0.41-0.71-0.41-1.23c0-0.54,0.15-0.97,0.45-1.29c0.28-0.31,0.65-0.47,1.1-0.47    c0.38,0,0.75,0.12,1.06,0.35v-0.73c-0.3-0.15-0.64-0.23-1.03-0.23c-0.7,0-1.27,0.22-1.68,0.67s-0.63,1.04-0.63,1.76    c0,0.65,0.19,1.18,0.57,1.59C178,50.29,178.52,50.5,179.15,50.49 M175.22,50.4h0.71v-4.44h-0.71V50.4L175.22,50.4z M175.58,44.83    c0.12,0,0.24-0.05,0.33-0.14s0.14-0.21,0.14-0.33c0-0.12-0.05-0.24-0.14-0.33s-0.21-0.13-0.33-0.13c-0.13,0-0.24,0.04-0.33,0.13    c-0.09,0.09-0.14,0.2-0.14,0.33c0,0.14,0.05,0.25,0.14,0.33C175.34,44.79,175.46,44.83,175.58,44.83 M168.04,46.23l-0.03-1.21    h0.02c0.06,0.29,0.13,0.5,0.19,0.64l2.12,4.74h0.36l2.13-4.78c0.05-0.13,0.12-0.33,0.19-0.6h0.02l-0.06,1.2v4.18h0.73v-6.22h-0.91    l-1.95,4.31c-0.08,0.17-0.17,0.42-0.3,0.76h-0.03c-0.05-0.17-0.14-0.42-0.28-0.74l-1.91-4.34h-0.96v6.22h0.7v-4.16H168.04z     M205.4,46.95c-0.2,0.2-0.45,0.3-0.74,0.3c-0.29,0-0.54-0.1-0.74-0.3s-0.31-0.45-0.31-0.75c0-0.29,0.1-0.54,0.3-0.74    c0.2-0.2,0.45-0.3,0.75-0.3c0.28-0.01,0.54,0.1,0.74,0.3s0.31,0.47,0.3,0.75C205.71,46.51,205.6,46.76,205.4,46.95 M204.67,45.04    c-0.32-0.01-0.62,0.11-0.85,0.34c-0.22,0.22-0.35,0.52-0.34,0.84c0,0.34,0.11,0.61,0.34,0.84s0.51,0.33,0.84,0.33    c0.32,0.01,0.62-0.11,0.85-0.34c0.23-0.23,0.34-0.5,0.34-0.84s-0.11-0.63-0.34-0.84C205.29,45.15,204.99,45.04,204.67,45.04     M204.64,46.13h-0.23v-0.51h0.19c0.13,0,0.22,0.02,0.28,0.07c0.05,0.04,0.07,0.1,0.07,0.19    C204.95,46.05,204.85,46.13,204.64,46.13 M204.8,46.27L204.8,46.27c0.12-0.03,0.22-0.08,0.28-0.15c0.07-0.07,0.1-0.17,0.1-0.26    c0-0.11-0.04-0.21-0.12-0.28c-0.1-0.09-0.24-0.13-0.43-0.13h-0.42v1.5h0.21v-0.63h0.14c0.1,0,0.19,0.09,0.27,0.27l0.16,0.36h0.26    l-0.2-0.4C204.97,46.38,204.88,46.29,204.8,46.27"/>
	</g>
	<g>
		<g>
			<path class="st8" d="M74.07,175.34c-3.67,0-6.54,1.5-8.59,4.51c-2.06,3.01-3.09,7.16-3.09,12.44c0,10.99,4.18,16.48,12.54,16.48     c2.53,0,4.97-0.35,7.34-1.05c2.37-0.7,4.75-1.55,7.15-2.54v13.05c-4.77,2.11-10.16,3.16-16.17,3.16c-8.62,0-15.23-2.5-19.82-7.5     c-4.6-5-6.89-12.23-6.89-21.68c0-5.91,1.11-11.11,3.34-15.59c2.23-4.48,5.43-7.92,9.61-10.33c4.18-2.41,9.09-3.61,14.75-3.61     c6.17,0,12.07,1.34,17.7,4.02l-4.73,12.15c-2.11-0.99-4.22-1.82-6.33-2.5C78.76,175.68,76.49,175.34,74.07,175.34z"/>
		</g>
		<g>
			<path class="st8" d="M123.33,220.85l-2.02-5.2h-0.27c-1.75,2.21-3.56,3.74-5.42,4.6c-1.86,0.85-4.28,1.28-7.26,1.28     c-3.67,0-6.56-1.05-8.66-3.14c-2.11-2.1-3.16-5.08-3.16-8.96c0-4.06,1.42-7.05,4.26-8.97c2.84-1.92,7.11-2.99,12.83-3.2     l6.63-0.21v-1.67c0-3.87-1.98-5.81-5.95-5.81c-3.05,0-6.64,0.92-10.77,2.77l-3.45-7.04c4.4-2.3,9.27-3.45,14.63-3.45     c5.13,0,9.06,1.12,11.79,3.35c2.73,2.23,4.1,5.63,4.1,10.19v25.46H123.33z M120.25,203.15l-4.03,0.14     c-3.03,0.09-5.29,0.64-6.77,1.64c-1.48,1-2.22,2.53-2.22,4.58c0,2.94,1.69,4.41,5.06,4.41c2.42,0,4.35-0.69,5.79-2.08     c1.45-1.39,2.17-3.24,2.17-5.54V203.15z"/>
		</g>
	</g>
	<g id="CAD">
		<g>
			<g>
				<polygon class="st9" points="212.7,221.52 210.42,221.52 210.42,219.81 210.99,219.81 210.99,219.24 212.7,219.24     "/>
			</g>
			<g>
				<path class="st9" d="M209.31,221.52h-2.78v-1.71h2.78V221.52z M205.41,221.52h-2.78v-1.71h2.78V221.52z M201.52,221.52h-2.78      v-1.71h2.78V221.52z M197.62,221.52h-2.78v-1.71h2.78V221.52z M193.72,221.52h-2.78v-1.71h2.78V221.52z M189.83,221.52h-2.78      v-1.71h2.78V221.52z M185.93,221.52h-2.78v-1.71h2.78V221.52z M182.04,221.52h-2.78v-1.71h2.78V221.52z M178.14,221.52h-2.78      v-1.71h2.78V221.52z M174.24,221.52h-2.78v-1.71h2.78V221.52z M170.35,221.52h-2.78v-1.71h2.78V221.52z M166.45,221.52h-2.78      v-1.71h2.78V221.52z"/>
			</g>
			<g>
				<polygon class="st9" points="162.56,221.52 160.28,221.52 160.28,219.24 161.99,219.24 161.99,219.81 162.56,219.81     "/>
			</g>
			<g>
				<path class="st9" d="M161.99,218.2h-1.71v-2.62h1.71V218.2z M161.99,214.53h-1.71v-2.62h1.71V214.53z M161.99,210.87h-1.71      v-2.62h1.71V210.87z M161.99,207.21h-1.71v-2.62h1.71V207.21z M161.99,203.54h-1.71v-2.62h1.71V203.54z"/>
			</g>
			<g>
				<polygon class="st9" points="161.99,199.88 160.28,199.88 160.28,198.1 161.54,196.85 162.75,198.06 161.99,198.81     "/>
			</g>
			<g>
				<path class="st9" d="M163.56,197.26l-1.2-1.22l2.02-2l1.2,1.22L163.56,197.26z M166.39,194.46l-1.2-1.22l2.02-2l1.2,1.22      L166.39,194.46z M169.22,191.66l-1.2-1.22l2.02-2l1.2,1.22L169.22,191.66z M172.06,188.86l-1.2-1.22l2.02-2l1.2,1.22      L172.06,188.86z M174.89,186.05l-1.2-1.22l2.02-2l1.2,1.21L174.89,186.05z M177.73,183.25l-1.2-1.21l2.02-2l1.2,1.21      L177.73,183.25z M180.56,180.44l-1.2-1.21l2.02-2l1.2,1.21L180.56,180.44z M183.39,177.64l-1.2-1.21l0.9-0.89h2.28v1.71h-1.58      L183.39,177.64z M209.28,177.24h-2.85v-1.71h2.85V177.24z M205.3,177.24h-2.85v-1.71h2.85V177.24z M201.31,177.24h-2.85v-1.71      h2.85V177.24z M197.33,177.24h-2.85v-1.71h2.85V177.24z M193.34,177.24h-2.85v-1.71h2.85V177.24z M189.35,177.24h-2.85v-1.71      h2.85V177.24z"/>
			</g>
			<g>
				<polygon class="st9" points="212.7,177.81 210.99,177.81 210.99,177.24 210.42,177.24 210.42,175.53 212.7,175.53     "/>
			</g>
			<g>
				<path class="st9" d="M212.7,218.09h-1.71v-2.88h1.71V218.09z M212.7,214.07h-1.71v-2.88h1.71V214.07z M212.7,210.04h-1.71v-2.88      h1.71V210.04z M212.7,206.01h-1.71v-2.88h1.71V206.01z M212.7,201.98h-1.71v-2.88h1.71V201.98z M212.7,197.95h-1.71v-2.88h1.71      V197.95z M212.7,193.92h-1.71v-2.88h1.71V193.92z M212.7,189.9h-1.71v-2.88h1.71V189.9z M212.7,185.87h-1.71v-2.88h1.71V185.87z       M212.7,181.84h-1.71v-2.88h1.71V181.84z"/>
			</g>
		</g>
		<g>
			<path class="st9" d="M203.37,203.78h-10.08c-0.47,0-0.85-0.38-0.85-0.85v-8.81c0-0.47,0.38-0.85,0.85-0.85h10.08     c0.47,0,0.85,0.38,0.85,0.85v8.81C204.22,203.4,203.84,203.78,203.37,203.78z M194.14,202.08h8.38v-7.1h-8.38V202.08z"/>
		</g>
		<g>
			<rect x="197.74" y="198.02" class="st9" width="1.17" height="1.02"/>
			<path class="st9" d="M198.91,199.14h-1.17c-0.05,0-0.1-0.04-0.1-0.1v-1.02c0-0.05,0.04-0.1,0.1-0.1h1.17c0.05,0,0.1,0.04,0.1,0.1     v1.02C199.01,199.09,198.97,199.14,198.91,199.14z M197.84,198.94h0.97v-0.82h-0.97V198.94z"/>
		</g>
		<g>
			<path class="st9" d="M156.78,204.79V169.7h35.43L156.78,204.79z M159.63,172.55v25.41l25.66-25.41H159.63z"/>
		</g>
		<g>
			<path class="st9" d="M163.35,190.52v-12.6h12.72L163.35,190.52z M165.06,179.63v6.79l6.86-6.79H165.06z"/>
		</g>
		<g>
			<path class="st9" d="M164.2,174.9c-0.47,0-0.85-0.38-0.85-0.85v-3.07c0-0.47,0.38-0.85,0.85-0.85s0.85,0.38,0.85,0.85v3.07     C165.06,174.52,164.67,174.9,164.2,174.9z"/>
		</g>
		<g>
			<path class="st9" d="M171.65,174.18c-0.31,0-0.57-0.25-0.57-0.57v-2.63c0-0.31,0.26-0.57,0.57-0.57s0.57,0.25,0.57,0.57v2.63     C172.22,173.92,171.97,174.18,171.65,174.18z"/>
		</g>
		<g>
			<path class="st9" d="M175.6,173.59c-0.47,0-0.85-0.38-0.85-0.85v-1.32c0-0.47,0.38-0.85,0.85-0.85c0.47,0,0.85,0.38,0.85,0.85     v1.32C176.45,173.2,176.07,173.59,175.6,173.59z"/>
		</g>
		<g>
			<path class="st9" d="M179.55,173.3c-0.31,0-0.57-0.25-0.57-0.57v-1.32c0-0.31,0.26-0.57,0.57-0.57c0.31,0,0.57,0.25,0.57,0.57     v1.32C180.12,173.05,179.86,173.3,179.55,173.3z"/>
		</g>
		<g>
			<path class="st9" d="M167.71,173.74c-0.31,0-0.57-0.25-0.57-0.57v-1.75c0-0.31,0.26-0.57,0.57-0.57s0.57,0.25,0.57,0.57v1.75     C168.28,173.49,168.02,173.74,167.71,173.74z"/>
		</g>
		<g>
			<path class="st9" d="M198.33,194.98c-0.47,0-0.85-0.38-0.85-0.85v-17.74c0-0.47,0.38-0.85,0.85-0.85s0.85,0.38,0.85,0.85v17.74     C199.18,194.6,198.8,194.98,198.33,194.98z"/>
		</g>
		<g>
			<path class="st9" d="M198.33,221.29c-0.47,0-0.85-0.38-0.85-0.85v-17.3c0-0.47,0.38-0.85,0.85-0.85s0.85,0.38,0.85,0.85v17.3     C199.18,220.9,198.8,221.29,198.33,221.29z"/>
		</g>
		<g>
			<path class="st9" d="M193.28,199.38h-32.15c-0.47,0-0.85-0.38-0.85-0.85c0-0.47,0.38-0.85,0.85-0.85h32.15     c0.47,0,0.85,0.38,0.85,0.85C194.14,199,193.76,199.38,193.28,199.38z"/>
		</g>
		<g>
			<path class="st9" d="M211.85,199.38h-8.48c-0.47,0-0.85-0.38-0.85-0.85c0-0.47,0.38-0.85,0.85-0.85h8.48     c0.47,0,0.85,0.38,0.85,0.85C212.7,199,212.32,199.38,211.85,199.38z"/>
		</g>
		<g class="st10">
			<polygon class="st9" points="198.25,220.67 161.13,220.67 161.13,198.53 193.28,198.53 193.28,202.69 198.25,202.93    "/>
			<path class="st9" d="M198.25,221.24h-37.12c-0.31,0-0.57-0.25-0.57-0.57v-22.14c0-0.31,0.26-0.57,0.57-0.57h32.15     c0.31,0,0.57,0.25,0.57,0.57l0,3.62l4.43,0.21c0.3,0.01,0.54,0.26,0.54,0.57v17.74C198.82,220.98,198.57,221.24,198.25,221.24z      M161.7,220.1h35.98v-16.63l-4.43-0.21c-0.3-0.01-0.54-0.26-0.54-0.57l0-3.6H161.7V220.1z"/>
		</g>
	</g>
</g>
<g>
</g>
<g>
</g>
<g>
</g>
<g>
</g>
<g>
</g>
</svg>
