<?xml version="1.0" encoding="utf-8"?>
<!-- Generator: Adobe Illustrator 25.0.1, SVG Export Plug-In . SVG Version: 6.00 Build 0)  -->
<svg version="1.1" id="Layer_1" xmlns="http://www.w3.org/2000/svg" xmlns:xlink="http://www.w3.org/1999/xlink" x="0px" y="0px"
	 viewBox="0 0 277 277" style="enable-background:new 0 0 277 277;" xml:space="preserve">
<style type="text/css">
	.st0{fill-rule:evenodd;clip-rule:evenodd;fill:#0059A0;}
	.st1{fill:#0059A0;}
	.st2{fill:#FFFFFF;}
</style>
<g id="Pdf">
	<path class="st0" d="M86.32,181.84c0-26.31,9.23-48.7,27.7-67.17c18.34-18.47,40.73-27.7,67.17-27.7c26.05,0,48.38,9.23,66.97,27.7
		c18.58,18.47,27.88,40.86,27.88,67.17c0,26.19-9.3,48.51-27.88,66.97c-18.6,18.59-40.92,27.88-66.97,27.88
		c-26.44,0-48.82-9.29-67.17-27.88C95.56,230.35,86.32,208.03,86.32,181.84"/>
	<path class="st0" d="M276.05,181.84h-11.11V21.77c0-4.09-1.47-6.83-4.41-8.24c-1.03-0.51-2.21-0.89-3.55-1.15l-1.62-0.19H20.95
		c-4.15,0-6.89,1.44-8.23,4.3c-0.83,1.66-1.28,3.41-1.34,5.27v234.24c0,4.08,1.44,6.8,4.31,8.14c1.66,0.83,3.41,1.31,5.27,1.44
		h155.35l4.88,11.11H17.5c-2.87,0-5.74-0.7-8.61-2.11c-5.75-2.87-8.63-7.91-8.63-15.12V18.32c0-2.87,0.74-5.74,2.21-8.62
		c2.88-5.74,7.88-8.62,15.03-8.62h241.31l2.67,0.29c2.18,0.32,4.16,0.96,5.94,1.92c5.75,2.87,8.62,7.89,8.62,15.03V181.84z"/>
	<g>
		<path class="st1" d="M34.14,36.59h27.91c4.24,0,7.9,1.49,10.98,4.46c3.08,2.97,4.62,6.91,4.62,11.81
			c0.05,0.22,0.08,0.43,0.08,0.62c0,0.19,0,0.43,0,0.7c0,0.94-0.1,1.98-0.29,3.14c-0.19,1.16-0.51,2.31-0.95,3.47
			c-0.94,2.59-2.49,4.94-4.67,7.06c-2.18,2.12-5.22,3.18-9.12,3.18H41.9v26.01h-7.76V36.59z M41.9,64.5h20.15
			c0.17,0,0.63-0.21,1.4-0.62c0.77-0.41,1.6-1.03,2.48-1.86c1.1-0.94,2.08-2.17,2.93-3.72c0.85-1.54,1.2-3.36,1.03-5.45
			c-0.33-2.59-1.29-4.65-2.89-6.19c-1.6-1.54-3.69-2.31-6.28-2.31H41.9V64.5z"/>
	</g>
</g>
<g>
	<path class="st2" d="M240.48,169.31c-3.2-1.76-9.17-1.53-17.74,0.69c-5.79,1.52-12.62,3.92-19.66,6.92
		c-3.79-0.97-7.72-2.07-11.04-3.79c-8.92-4.61-17.36-12.09-23.8-21.08c-0.01-1-0.03-1.88-0.07-2.77c0,0-2.12-23.57-5.25-30.87
		c-0.43-1-0.6-1.28-1.11-2.01l-0.59-0.79c-1.77-2.18-4.63-4.23-7.95-3.17l-1.99,0.48l-0.05,0.01c-3.75,1.02-6.28,3.74-6.32,6.78
		c-0.02,9.51,6.1,22.05,15.34,37.94l-0.4,3.11c-1.12,8.72-3.06,17.72-4.76,25.66l-0.22,1.03c-1.8,8.35-3.55,15.49-5.24,21.6
		l-2.76,2.56c-0.2,0.18-4.94,4.57-6.02,5.7c-9.23,9.46-14.51,18.78-14.12,24.93c0.12,1.96,1.06,4.26,3.31,4.83l3.54,0.69
		c1.53,0.3,3.05,0.25,4.51-0.15c7.83-2.14,14.29-14.21,20.94-39.14c13.19-8.58,28.59-16.92,42.43-22.98
		c12.65,3.09,27.32,3.63,35.85,1.31c1.52-0.42,2.78-0.91,3.77-1.48c1.52-0.87,2.65-2.17,3.15-3.64c0.98-2.91,0.4-6.38-1-9.71
		C242.8,170.98,241.62,169.94,240.48,169.31L240.48,169.31z M134.78,242.23c0.38-4.23,3.95-13.37,10.47-22.39
		c0.41-0.56,1.38-2.11,2.26-3.54C142.52,232.4,138.16,239.46,134.78,242.23L134.78,242.23z M153.63,116.55
		c2.51-0.69,5.65,5.17,7.37,10.99c1.72,5.82,1.45,10.31,0.55,13.82c-2.66-4.11-5.28-11.01-6.55-15.65
		C155,125.7,152.48,116.86,153.63,116.55L153.63,116.55z M160.69,200.52c0.91-3.57,1.84-7.32,2.76-11.29
		c2.23-9.7,3.3-17.1,3.95-23.12c6.33,6.45,13.38,11.47,21.02,14.96c0.95,0.43,1.95,0.86,2.99,1.27
		C179.44,188.27,169.32,194.24,160.69,200.52L160.69,200.52z M240.25,178.04c-0.64,0.68-2.77,1.56-4.19,1.95
		c-4.58,1.25-10.81,0.73-19.67-0.45c2.99-1.05,5.76-1.93,8.27-2.62c4.59-1.25,5.95-1.65,10.75-1.74
		C240.21,175.08,240.9,177.36,240.25,178.04L240.25,178.04z"/>
</g>
<g>
</g>
<g>
</g>
<g>
</g>
<g>
</g>
<g>
</g>
<g>
</g>
</svg>
