<?xml version="1.0" encoding="utf-8"?>
<!-- Generator: Adobe Illustrator 25.2.0, SVG Export Plug-In . SVG Version: 6.00 Build 0)  -->
<svg version="1.1" id="NET" xmlns="http://www.w3.org/2000/svg" xmlns:xlink="http://www.w3.org/1999/xlink" x="0px" y="0px"
	 viewBox="0 0 512 512" style="enable-background:new 0 0 512 512;" xml:space="preserve">
<style type="text/css">
	.st0{fill:#EF4047;}
</style>
<g id="light">
	<g>
		<path class="st0" d="M283.9,452H120.8c-12.9,0-23-10.6-23-23V83.1c0-12.4,10.6-23,23-23H345c12.9,0,23,10.6,23,23v147.1
			c14.5,2.6,28.6,9,40,20.6c4.9,4.9,9.5,11.1,12.4,17h1.5V83.1C422,40.6,387.4,6,344.4,6H120.8C78.3,6,43.2,40.6,43.2,83.1v345.8
			c0,42.6,34.6,77.1,77.6,77.1h176C285.5,490,280.9,470.6,283.9,452z M163.2,98.3c-15,0-27.1,12.1-27.1,27.1s12.1,27.1,27.1,27.1
			h139.1c15,0,27.1-12.1,27.1-27.1s-12.1-27.1-27.1-27.1H163.2z M329.4,225.3c0-15-12.1-27.1-27.1-27.1H163.2
			c-15,0-27.1,12.1-27.1,27.1s12.1,27.1,27.1,27.1h139.1l0,0c0.5-0.5,1-1,1.5-2c7-7,15-12.1,23.5-15.5
			C328.9,231.7,329.4,228.8,329.4,225.3z M457.6,355.3c-1.5-1.5-3.1-2.6-4.4-3.6l0.5-0.5l-74.6-74.1c-12.9-12.9-34-12.9-47,0
			s-12.9,34,0,46.5l59.1,58.6l-59.6,59.1c-12.9,12.9-12.9,34,0,47s34,12.9,47,0l74.9-73.9l-0.5-0.5c1.5-1,3.1-2.6,4.4-4.1
			C472.6,395,472.6,370.5,457.6,355.3z"/>
	</g>
</g>
</svg>
