<?xml version="1.0" encoding="utf-8"?>
<!-- Generator: Adobe Illustrator 27.1.1, SVG Export Plug-In . SVG Version: 6.00 Build 0)  -->
<svg version="1.1" id="Layer_1" xmlns="http://www.w3.org/2000/svg" xmlns:xlink="http://www.w3.org/1999/xlink" x="0px" y="0px"
	 viewBox="0 0 700.4 100" style="enable-background:new 0 0 700.4 100;" xml:space="preserve">
<style type="text/css">
	.st0{fill:#29AAE1;}
	.st1{fill:#0277B3;}
	.st2{fill:#3D5E9E;}
	.st3{fill:#1DAEF3;}
	.st4{fill:#F05D28;}
	.st5{clip-path:url(#SVGID_00000076568095662946534630000008145606964303109783_);}
	.st6{fill:#FFFFFF;}
</style>
<path class="st0" d="M-137.7,31.6l-49.3,6.6V18.2h55.9L-137.7,31.6z"/>
<path class="st1" d="M-160.4,53.8l-26.6,6.6V40.3h33.2L-160.4,53.8z"/>
<path class="st2" d="M-177,75.9l-10,6.6V62.4h16.6L-177,75.9z"/>
<g>
	<path class="st3" d="M69.7,66.4c-0.4,0.7-1,0.9-1.5,1.3c-0.8,0.5-1.5,1.1-2.3,1.7c-2.6,1.8-5.2,3.5-8,4.9c-2.2,1.1-4.5,2-6.8,2.9
		c-4.5,1.6-9.2,2.3-14,2.3c-2,0-3.9-0.2-5.9-0.4C24,78,17.6,75,11.7,70.9c-2.9-2-5.5-4.3-8-6.7c-0.5-0.5-0.4-0.7,0.1-1
		c5.4-3.1,10.8-6.2,16.2-9.3c1.8-1,3.6-2.1,5.4-3.1c0.3-0.2,0.5-0.1,0.8,0.2c1.5,1.4,2.9,2.9,4.4,4.2C36.9,60.6,44,64.2,52.1,66
		c4.7,1,9.5,1.1,14.2,0.7c0.9-0.1,1.8-0.2,2.6-0.4C69.2,66.3,69.4,66.3,69.7,66.4z"/>
	<path class="st4" d="M63.8,64.5c-1.9,0.4-3.9,0.2-5.8,0.1c-7.2-0.5-13.7-2.9-19.8-6.8c-4.2-2.7-8-5.9-11.4-9.7
		c-0.3-0.3-0.5-0.4-0.9-0.2c-6,3.5-12.1,7-18.2,10.4c-0.9,0.5-1.9,1-2.9,1.4c0.9-0.6,1.8-1.2,2.7-1.9c4.3-3,8.6-6,13-9
		c1.9-1.3,3.8-2.6,5.7-4c0.5-0.4,0.8-0.4,1.3,0.1c6.5,7.1,13.7,13,22.8,16.6c3.3,1.3,6.8,2.1,10.3,2.6
		C61.7,64.3,62.8,64.2,63.8,64.5C63.9,64.4,63.8,64.4,63.8,64.5z"/>
	<path class="st4" d="M7.1,54.6c0.6-1,1.7-1.5,2.6-2.2c2.5-2,5-3.9,7.6-5.8c3.4-2.6,6.8-5.1,10.1-7.7c0.5-0.4,0.7-0.2,1.1,0.2
		c2.4,2.7,4.8,5.2,7.4,7.7c4.6,4.3,9.5,8.2,15.2,11.1c2.7,1.3,5.5,2.3,8.4,2.9c1.4,0.3,2.9,0.3,4.3,0.5c-0.3,0.4-0.8,0.2-1.2,0.2
		c-7.9-0.1-15-2.7-21.4-7.1c-4.8-3.3-9-7.3-13-11.6c-0.8-0.9-0.8-0.9-1.8-0.3c-5.5,3.5-11,6.9-16.5,10.5C9,53.4,8,54,7.1,54.6z"/>
	<path class="st4" d="M60.2,57.7c-2.8-0.2-5.4-1.1-7.9-2.2c-4.2-1.8-7.9-4.4-11.4-7.4c-2.6-2.2-5.1-4.6-7.5-7.1
		c-1.5-1.6-3-3.2-4.4-4.8c-0.4-0.5-0.8-0.5-1.2-0.1c-5.2,3.5-10.5,7.1-15.7,10.6c-1.5,1-3,2.1-4.6,3.1c1.7-1.4,3.4-2.8,5.2-4.2
		c2.1-1.6,4.1-3.3,6.2-5c2.6-2.1,5.3-4.2,8-6.3c0.5-0.4,1.1-0.9,1.6-1.3c0.5-0.4,1.1-0.4,1.4,0.2c0.6,1.2,1.6,2,2.5,3
		c2.8,3.1,5.7,6.1,8.7,9c3.9,3.7,8,7.2,12.8,9.8c1.9,1,3.8,2,5.9,2.5C59.8,57.4,60,57.6,60.2,57.7L60.2,57.7z"/>
	<g>
		<defs>
			<path id="SVGID_1_" d="M68.7,50c-6.3,7.5-9.5,9.7-22.4-1.1S29.6,35,35.9,27.6s11.6-9.8,24.5,1.1S75,42.6,68.7,50z"/>
		</defs>
		<clipPath id="SVGID_00000014602158694729539190000011326059641929943709_">
			<use xlink:href="#SVGID_1_"  style="overflow:visible;"/>
		</clipPath>
	</g>
	<g>
		<defs>
			<path id="SVGID_00000036241850911339792620000013626121230301077423_" d="M25.6,27c0,0,3.5-0.4,3.4,3.3c-0.1,3.7,8,11,8,11
				l12.5,7.9c0,0-2.5,2.9,1.5,4.5c6.1,2.4,10.3,5.5,16.7,5.2l1.5-36.1l-22.9-9.5l-15.8,4.2L25.6,27z"/>
		</defs>
		<clipPath id="SVGID_00000156586434791324813210000004003028474298898345_">
			<use xlink:href="#SVGID_00000036241850911339792620000013626121230301077423_"  style="overflow:visible;"/>
		</clipPath>
		<g style="clip-path:url(#SVGID_00000156586434791324813210000004003028474298898345_);">
			<path class="st3" d="M40.6,55.9c3.6,1.5,7.2,1.4,10.7-0.2c3-1.4,5.1-3.8,6.4-6.8c2.5-6.2-0.2-13.1-5.8-16.1
				c-5.6-3-12.7-1.6-16.8,4.2c-0.3-0.4-0.7-0.9-1-1.3c-0.4-0.5-0.8-1.1-1.2-1.6c-0.2-0.3-0.3-0.5,0-0.8c0.7-1,1.5-1.9,2.2-2.9
				c0.1-0.1,0.3-0.1,0.5-0.1c1.1,0.4,2.2,0.9,3.3,1.3c0.1,0.1,0.4,0,0.5,0c0.6-0.4,1.1-0.8,1.6-1.1c0.3-0.2,0.3-0.3,0.3-0.6
				c0-1.2,0-2.4,0-3.5c0-0.1,0.1-0.3,0.2-0.3c1.2-0.4,2.4-0.7,3.6-1.1c0.3-0.1,0.4,0,0.5,0.2c0.7,1,1.3,2,2,3
				c0.1,0.1,0.2,0.2,0.3,0.2c0.7,0,1.3,0,2,0.1c0.3,0,0.4-0.1,0.6-0.3c0.7-0.9,1.4-1.9,2-2.8c0.2-0.2,0.3-0.3,0.6-0.2
				c1.1,0.4,2.2,0.8,3.3,1.2c0.3,0.1,0.4,0.3,0.4,0.6c-0.1,1.1-0.1,2.2-0.2,3.3c0,0.3,0,0.5,0.3,0.7c0.5,0.4,1,0.8,1.5,1.2
				c0.1,0.1,0.3,0.1,0.5,0.1c0.4-0.1,0.9-0.2,1.3-0.4c0.7-0.2,1.5-0.5,2.2-0.7c0.2-0.1,0.4,0,0.5,0.2c0.7,1,1.4,2,2.1,3
				c0.1,0.2,0.1,0.4,0,0.6c-0.7,0.9-1.4,1.8-2.2,2.7c-0.2,0.2-0.2,0.4-0.1,0.6c0.2,0.6,0.4,1.2,0.6,1.9c0,0.1,0.2,0.3,0.4,0.4
				c1.1,0.4,2.2,0.7,3.3,1.1c0.3,0.1,0.4,0.2,0.4,0.5c0,1.3-0.1,2.5-0.1,3.8c0,0.1-0.1,0.2-0.2,0.3c-0.5,0.1-1,0.2-1.4,0.4
				c-0.7,0.2-1.5,0.4-2.2,0.6c-0.1,0-0.3,0.2-0.3,0.3c-0.3,0.7-0.5,1.3-0.7,2c0,0.1,0,0.2,0,0.3c0.7,1,1.5,2,2.2,3
				c0.1,0.1,0.1,0.4,0,0.5c-0.8,1-1.6,2-2.3,3c-0.1,0.1-0.2,0.1-0.3,0.1c-1.2-0.4-2.3-0.9-3.5-1.3c-0.1,0-0.3,0-0.5,0
				c-0.6,0.4-1.1,0.7-1.7,1.2c-0.1,0.1-0.2,0.3-0.2,0.5c0,1.2,0,2.4,0,3.5c0,0.1-0.1,0.4-0.2,0.4c-1,0.3-2,0.6-3,0.9
				c-0.1,0-0.2,0-0.4,0.1c-0.6,0.2-0.6,0.1-0.9-0.4c-0.6-1-1.2-1.9-1.9-2.9c-0.1-0.1-0.3-0.2-0.4-0.2c-0.7,0-1.3,0-2-0.1
				c-0.2,0-0.3,0-0.5,0.2c-0.7,1-1.4,2-2.1,3c-0.1,0.2-0.3,0.2-0.5,0.2c-1.2-0.4-2.3-0.8-3.5-1.2c-0.1,0-0.3-0.3-0.3-0.4
				C40.5,58.5,40.5,57.2,40.6,55.9z"/>
			<path class="st3" d="M50.3,53.4c-3,3.6-5.6,3.4-10.8,0.2c-4.4-2.7-6.5-8.6-4.3-13.8c2.1-5.1,7.8-8,13.4-6.3
				c-2.7-0.5-5.3-0.1-7.7,1.4c-2.4,1.4-4,3.6-4.7,6.2c-1.2,4.5,0.4,8.7,3.9,11.3C44.2,55.3,46.3,57,50.3,53.4z"/>
			<path class="st3" d="M33.7,39.6c-0.8,2-1,4.1-0.7,6.2c-1-0.3-1.9-0.6-2.8-0.9c-0.1,0-0.2-0.2-0.2-0.3c0-1.1,0-2.2,0-3.2
				c0-0.7,0.3-0.9,1-1.1C31.9,40.1,32.8,39.9,33.7,39.6z"/>
			<path class="st3" d="M34.1,49.5c0.9,1.9,2.2,3.6,3.9,4.8c0,0,0,0.1,0,0.1c-0.5,0.2-1.1,0.3-1.6,0.5c-0.4,0.1-0.8,0.2-1.2,0.4
				c-0.5,0.3-0.8,0.1-1.1-0.3c-0.6-0.9-1.2-1.9-1.8-2.8c-0.1-0.1,0-0.4,0.1-0.5C32.9,51,33.5,50.3,34.1,49.5z"/>
		</g>
	</g>
</g>
<g>
	<path class="st6" d="M77.9,33.2H93c11.2,0,18.9,6.9,18.9,17.3c0,10.4-7.7,17.3-18.9,17.3H77.9V33.2z M92.7,62.4
		c7.7,0,12.7-4.7,12.7-11.9s-5-11.9-12.7-11.9h-8.4v23.7H92.7z"/>
	<path class="st6" d="M114.3,50.6c0-10.2,7.9-17.8,18.6-17.8c10.7,0,18.6,7.5,18.6,17.8s-7.9,17.8-18.6,17.8
		C122.2,68.4,114.3,60.8,114.3,50.6z M145.1,50.6c0-7.1-5.2-12.2-12.2-12.2s-12.2,5.1-12.2,12.2c0,7.1,5.2,12.2,12.2,12.2
		S145.1,57.6,145.1,50.6z"/>
	<path class="st6" d="M154,50.6c0-10.3,7.9-17.8,18.6-17.8c5.6,0,10.5,2,13.7,5.8l-4.2,3.9c-2.5-2.7-5.6-4.1-9.3-4.1
		c-7.2,0-12.4,5-12.4,12.2s5.2,12.2,12.4,12.2c3.6,0,6.7-1.3,9.3-4.1l4.2,4c-3.2,3.8-8.1,5.8-13.8,5.8C161.9,68.4,154,60.9,154,50.6
		z"/>
	<path class="st6" d="M189.9,52.8V33.2h6.4v19.3c0,7.1,3.2,10.2,8.8,10.2s8.8-3.1,8.8-10.2V33.2h6.3v19.5c0,10.1-5.7,15.6-15.1,15.6
		C195.6,68.4,189.9,62.9,189.9,52.8z"/>
	<path class="st6" d="M259,67.9l0-23l-11.4,19h-2.9l-11.4-18.7v22.7h-6.1V33.2h5.3l13.8,23l13.5-23h5.3l0,34.6H259z"/>
	<path class="st6" d="M298.4,62.5v5.4h-26V33.2h25.3v5.4h-18.8v9h16.7v5.3h-16.7v9.5H298.4z"/>
	<path class="st6" d="M334.4,33.2v34.6h-5.3L310,44.4v23.4h-6.4V33.2h5.3L328,56.7V33.2H334.4z"/>
	<path class="st6" d="M348.7,38.7h-11.5v-5.4h29.4v5.4h-11.5v29.2h-6.4V38.7z"/>
	<path class="st6" d="M410.2,45.6c0,7.6-5.6,12.3-14.7,12.3h-7.8v10h-6.4V33.2h14.2C404.5,33.2,410.2,37.9,410.2,45.6z M403.7,45.6
		c0-4.4-2.9-6.9-8.6-6.9h-7.5v13.8h7.5C400.8,52.4,403.7,49.9,403.7,45.6z"/>
	<path class="st6" d="M437.3,67.9l-7.1-10.1c-0.4,0-0.9,0-1.3,0h-7.8v10.1h-6.4V33.2h14.2c9.1,0,14.7,4.7,14.7,12.3
		c0,5.2-2.7,9.1-7.4,10.9l8,11.4H437.3z M428.6,38.7h-7.5v13.8h7.5c5.6,0,8.6-2.6,8.6-6.9C437.1,41.2,434.2,38.7,428.6,38.7z"/>
	<path class="st6" d="M446.3,50.6c0-10.2,7.9-17.8,18.6-17.8s18.6,7.5,18.6,17.8s-7.9,17.8-18.6,17.8S446.3,60.8,446.3,50.6z
		 M477.1,50.6c0-7.1-5.2-12.2-12.2-12.2c-7,0-12.2,5.1-12.2,12.2c0,7.1,5.2,12.2,12.2,12.2C472,62.7,477.1,57.6,477.1,50.6z"/>
	<path class="st6" d="M486,50.6c0-10.3,7.9-17.8,18.6-17.8c5.6,0,10.5,2,13.7,5.8l-4.2,3.9c-2.5-2.7-5.6-4.1-9.2-4.1
		c-7.2,0-12.4,5-12.4,12.2s5.2,12.2,12.4,12.2c3.6,0,6.7-1.3,9.2-4.1l4.2,4c-3.2,3.8-8.1,5.8-13.8,5.8C493.9,68.4,486,60.9,486,50.6
		z"/>
	<path class="st6" d="M548.4,62.5v5.4h-26V33.2h25.3v5.4h-18.8v9h16.7v5.3h-16.7v9.5H548.4z"/>
	<path class="st6" d="M550.7,64.2l2.2-5c2.8,2.2,7.2,3.8,11.4,3.8c5.4,0,7.7-1.9,7.7-4.5c0-7.5-20.6-2.6-20.6-15.4
		c0-5.6,4.5-10.3,14-10.3c4.2,0,8.5,1.1,11.5,3.1l-2,5c-3.1-1.8-6.5-2.7-9.5-2.7c-5.3,0-7.5,2.1-7.5,4.7c0,7.4,20.5,2.6,20.5,15.3
		c0,5.5-4.5,10.3-14,10.3C559,68.4,553.6,66.7,550.7,64.2z"/>
	<path class="st6" d="M579.8,64.2l2.2-5c2.8,2.2,7.2,3.8,11.4,3.8c5.4,0,7.7-1.9,7.7-4.5c0-7.5-20.6-2.6-20.6-15.4
		c0-5.6,4.5-10.3,14-10.3c4.2,0,8.5,1.1,11.5,3.1l-2,5c-3.1-1.8-6.5-2.7-9.5-2.7c-5.3,0-7.5,2.1-7.5,4.7c0,7.4,20.5,2.6,20.5,15.3
		c0,5.5-4.5,10.3-14,10.3C588.1,68.4,582.7,66.7,579.8,64.2z"/>
	<path class="st6" d="M611.9,33.2h6.4v34.6h-6.4V33.2z"/>
	<path class="st6" d="M656.5,33.2v34.6h-5.3l-19.1-23.4v23.4h-6.4V33.2h5.3l19.1,23.4V33.2H656.5z"/>
	<path class="st6" d="M687.4,50.2h6.1V64c-3.6,2.9-8.7,4.4-13.6,4.4c-10.7,0-18.7-7.5-18.7-17.8s7.9-17.8,18.7-17.8
		c5.8,0,10.6,1.9,13.9,5.6l-4.1,4c-2.7-2.7-5.8-4-9.5-4c-7.4,0-12.6,5-12.6,12.2c0,7,5.2,12.2,12.5,12.2c2.5,0,4.9-0.5,7.1-1.8V50.2
		z"/>
</g>
</svg>
