<?xml version="1.0" encoding="utf-8"?>
<!-- Generator: Adobe Illustrator 25.2.0, SVG Export Plug-In . SVG Version: 6.00 Build 0)  -->
<svg version="1.1" id="Layer_1" xmlns="http://www.w3.org/2000/svg" xmlns:xlink="http://www.w3.org/1999/xlink" x="0px" y="0px"
	 viewBox="0 0 335 283" style="enable-background:new 0 0 335 283;" xml:space="preserve">
<style type="text/css">
	.st0{fill:#EEEEEE;}
	
		.st1{fill:none;stroke:#EEEEEE;stroke-width:3;stroke-linecap:round;stroke-linejoin:round;stroke-miterlimit:10;stroke-dasharray:6,8;}
	.st2{fill:none;stroke:#EEEEEE;stroke-width:3;stroke-linecap:round;stroke-linejoin:round;}
	.st3{fill:none;stroke:#EEEEEE;stroke-width:3;stroke-linecap:round;stroke-linejoin:round;stroke-dasharray:6.5303,8.7071;}
	.st4{fill:none;stroke:#EEEEEE;stroke-width:3;stroke-linecap:round;stroke-linejoin:round;stroke-dasharray:5.6936,7.5915;}
	.st5{fill:#68217A;}
	.st6{fill:#DE4444;}
	.st7{fill:#004482;}
	.st8{fill:#2E79D4;}
	.st9{fill:#C1BC30;}
	.st10{fill:#FFFFFF;}
	.st11{fill:#4198D3;}
	.st12{fill-rule:evenodd;clip-rule:evenodd;fill:#575756;}
</style>
<g id="Aspose.Total">
	<polygon class="st0" points="146.15,268.62 33.2,260.62 33.2,114.05 146.15,114.05 	"/>
	<polygon class="st0" points="152.15,268.62 220.74,260.62 220.74,114.05 152.15,114.05 	"/>
	<g id="lines">
		<polyline class="st1" points="181.62,61.16 181.62,95.87 116.4,95.87 116.4,109.64 		"/>
		<polyline class="st1" points="245.88,65.98 211.17,65.98 211.17,109.64 		"/>
		<polyline class="st1" points="293.27,136.51 242.57,136.51 242.57,179.62 218.6,179.62 		"/>
		<polyline class="st1" points="296.53,251.25 241.47,251.25 241.47,209.93 218.6,209.93 		"/>
		<g>
			<g>
				<line class="st2" x1="83.34" y1="53.44" x2="80.34" y2="53.44"/>
				<line class="st3" x1="71.63" y1="53.44" x2="45.51" y2="53.44"/>
				<polyline class="st2" points="41.15,53.44 38.15,53.44 38.15,56.44 				"/>
				<line class="st4" x1="38.15" y1="64.03" x2="38.15" y2="100.09"/>
				<line class="st2" x1="38.15" y1="103.89" x2="38.15" y2="106.89"/>
			</g>
		</g>
	</g>
	<g id="circles">
		<circle class="st5" cx="98.32" cy="54.34" r="33.61"/>
		<circle class="st6" cx="181.62" cy="34.58" r="33.61"/>
		<circle class="st7" cx="271.43" cy="65.98" r="33.61"/>
		<circle class="st8" cx="300.39" cy="136.51" r="33.61"/>
		<circle class="st9" cx="296.53" cy="248.39" r="33.61"/>
		<g id="java">
			<path id="XMLID_8_" class="st10" d="M181.48,18.93c-1.81,1.27-3.86,2.72-4.96,5.11c-1.91,4.17,3.91,8.71,4.16,8.91
				c0.06,0.04,0.13,0.07,0.2,0.07c0.07,0,0.15-0.03,0.21-0.07c0.12-0.1,0.15-0.26,0.08-0.39c-0.02-0.04-2.11-4.1-2.03-7.01
				c0.03-1.01,1.45-2.16,2.95-3.38c1.38-1.12,2.94-2.38,3.85-3.86c2-3.26-0.22-6.46-0.25-6.49c-0.09-0.12-0.25-0.17-0.39-0.11
				c-0.14,0.06-0.22,0.21-0.18,0.36c0,0.02,0.44,2.14-0.77,4.32C183.83,17.28,182.74,18.04,181.48,18.93z"/>
			<path id="XMLID_9_" class="st10" d="M189.11,20.37c0.13-0.1,0.17-0.27,0.09-0.41s-0.25-0.2-0.4-0.15
				c-0.31,0.12-7.54,2.9-7.54,6.27c0,2.32,0.99,3.55,1.71,4.44c0.28,0.35,0.53,0.65,0.61,0.91c0.23,0.75-0.31,2.09-0.54,2.55
				c-0.07,0.13-0.03,0.29,0.08,0.39c0.06,0.05,0.13,0.08,0.21,0.08c0.06,0,0.13-0.02,0.18-0.06c0.12-0.09,3.04-2.15,2.51-4.63
				c-0.19-0.94-0.66-1.63-1.07-2.24c-0.63-0.94-1.09-1.62-0.4-2.88C185.39,23.18,189.08,20.4,189.11,20.37z"/>
			<path id="XMLID_10_" class="st10" d="M170.3,34.5c-0.12,0.37-0.07,0.74,0.17,1.06c0.78,1.09,3.56,1.69,7.81,1.69c0,0,0,0,0,0
				c0.58,0,1.19-0.01,1.81-0.03c6.8-0.24,9.33-2.36,9.43-2.45c0.11-0.1,0.14-0.26,0.07-0.39c-0.07-0.13-0.22-0.2-0.37-0.16
				c-2.4,0.65-6.87,0.89-9.98,0.89c-3.47,0-5.24-0.25-5.67-0.43c0.22-0.31,1.59-0.85,3.29-1.18c0.16-0.03,0.27-0.18,0.26-0.35
				c-0.02-0.16-0.15-0.29-0.32-0.29C175.81,32.84,170.82,32.92,170.3,34.5z"/>
			<path id="XMLID_11_" class="st10" d="M193.07,32.32c-1.4,0-2.73,0.7-2.79,0.73c-0.13,0.07-0.2,0.22-0.16,0.36
				c0.04,0.14,0.16,0.24,0.31,0.24c0.03,0,2.99,0.02,3.26,1.72c0.24,1.46-2.8,3.83-4,4.62c-0.13,0.09-0.18,0.25-0.12,0.39
				c0.05,0.12,0.17,0.2,0.3,0.2c0.02,0,0.04,0,0.07-0.01c0.28-0.06,6.92-1.52,6.22-5.39C195.73,32.82,194.24,32.32,193.07,32.32z"/>
			<path id="XMLID_12_" class="st10" d="M188.52,39.52c0.02-0.12-0.03-0.25-0.13-0.32l-1.59-1.11c-0.08-0.05-0.18-0.07-0.27-0.05
				c-0.02,0-1.68,0.44-4.1,0.71c-0.96,0.11-2.03,0.16-3.11,0.16c-2.42,0-4-0.28-4.23-0.49c-0.03-0.06-0.02-0.09-0.02-0.1
				c0.04-0.12,0.27-0.25,0.41-0.31c0.16-0.06,0.25-0.23,0.2-0.39c-0.05-0.16-0.22-0.26-0.38-0.22c-1.6,0.39-2.38,0.92-2.32,1.6
				c0.1,1.2,2.88,1.82,5.23,1.98c0.34,0.02,0.7,0.03,1.09,0.03c0,0,0,0,0,0c3.91,0,8.92-1.23,8.97-1.24
				C188.4,39.74,188.49,39.64,188.52,39.52z"/>
			<path id="XMLID_13_" class="st10" d="M176.51,42.1c0.12-0.08,0.17-0.23,0.13-0.36c-0.04-0.14-0.17-0.23-0.32-0.23
				c-0.21,0.01-2.09,0.09-2.23,1.29c-0.04,0.36,0.06,0.68,0.3,0.97c0.68,0.8,2.5,1.28,5.57,1.45c0.36,0.02,0.73,0.03,1.1,0.03
				c3.91,0,6.54-1.22,6.65-1.27c0.11-0.05,0.18-0.16,0.18-0.27c0.01-0.12-0.05-0.23-0.15-0.29l-2.01-1.23
				c-0.07-0.04-0.15-0.06-0.23-0.04c-0.01,0-1.29,0.27-3.22,0.53c-0.36,0.05-0.82,0.07-1.36,0.07c-1.93,0-4.07-0.31-4.48-0.52
				C176.45,42.19,176.46,42.14,176.51,42.1z"/>
			<path id="XMLID_14_" class="st10" d="M179.26,48.94c8.95-0.01,13.75-1.6,14.67-2.6c0.33-0.35,0.36-0.69,0.33-0.91
				c-0.07-0.54-0.56-0.87-0.62-0.9c-0.13-0.09-0.31-0.06-0.42,0.06c-0.1,0.12-0.11,0.3,0,0.42c0.06,0.07,0.09,0.19-0.08,0.36
				c-0.37,0.35-4.1,1.39-10.31,1.71c-0.85,0.04-1.74,0.07-2.65,0.07c-5.56,0-9.63-0.76-10.16-1.21c0.21-0.3,1.65-0.77,3.18-1.04
				c0.17-0.03,0.29-0.19,0.26-0.37s-0.19-0.29-0.36-0.27c-0.04,0.01-0.19,0.01-0.36,0.03c-2.53,0.15-5.44,0.5-5.6,1.8
				c-0.05,0.4,0.07,0.76,0.35,1.07C168.18,47.92,170.14,48.94,179.26,48.94C179.26,48.94,179.26,48.94,179.26,48.94z"/>
			<path id="XMLID_15_" class="st10" d="M195.69,46.63c-0.13-0.06-0.28-0.03-0.37,0.07c-0.01,0.01-1.36,1.42-5.4,2.25
				c-1.55,0.31-4.45,0.47-8.64,0.47c-4.19,0-8.18-0.16-8.22-0.17c-0.17-0.01-0.31,0.11-0.33,0.28c-0.02,0.16,0.08,0.32,0.24,0.36
				c0.04,0.01,4.22,0.99,9.94,0.99c2.74,0,5.41-0.22,7.93-0.66c4.7-0.82,5.03-3.15,5.04-3.25
				C195.89,46.82,195.81,46.68,195.69,46.63z"/>
		</g>
		<g id="CPP">
			<g>
				<path class="st10" d="M261.36,80.98c-2.83-1.5-5.05-3.6-6.67-6.28c-1.62-2.68-2.43-5.73-2.43-9.12c0-3.4,0.81-6.44,2.43-9.12
					c1.62-2.68,3.84-4.78,6.67-6.28c2.83-1.5,6.02-2.26,9.58-2.26c3.11,0,5.9,0.55,8.39,1.65c2.49,1.1,4.56,2.69,6.21,4.75
					l-6.11,5.53c-2.2-2.65-4.87-3.98-8.01-3.98c-1.84,0-3.49,0.4-4.92,1.21c-1.44,0.81-2.56,1.95-3.35,3.42
					c-0.79,1.47-1.19,3.16-1.19,5.07c0,1.91,0.4,3.6,1.19,5.07c0.79,1.47,1.91,2.61,3.35,3.42c1.44,0.81,3.08,1.21,4.92,1.21
					c3.14,0,5.81-1.33,8.01-3.98l6.11,5.53c-1.65,2.07-3.72,3.66-6.21,4.75c-2.49,1.1-5.29,1.65-8.39,1.65
					C267.38,83.23,264.19,82.48,261.36,80.98z"/>
			</g>
			<g>
				<path class="st10" d="M287.38,66.63h-2.36v2.31h-2.15v-2.31h-2.38v-2.04h2.38v-2.31h2.15v2.31h2.36V66.63z"/>
				<path class="st10" d="M296.01,66.63h-2.36v2.31h-2.15v-2.31h-2.38v-2.04h2.38v-2.31h2.15v2.31h2.36V66.63z"/>
			</g>
		</g>
		<path id="NET" class="st10" d="M107.59,51.31h4.7v14.57h1.91V51.31h4.7v-1.73h-11.31V51.31z M99.06,58.46h5.89v-1.73h-5.89v-5.42
			h6.36v-1.73h-8.27v16.3h8.64v-1.73h-6.72L99.06,58.46L99.06,58.46z M91.64,61.07l0.11,2.4h-0.05c-0.11-0.22-0.34-0.58-0.66-1.09
			l-8.16-12.79h-2.48v16.3h1.91V54.11l-0.09-2.24h0.07c0.14,0.37,0.31,0.71,0.51,1.02l8.41,12.99h2.32v-16.3h-1.9L91.64,61.07
			L91.64,61.07z M76.35,63.58c-0.35,0-0.64,0.12-0.89,0.38c-0.24,0.25-0.36,0.55-0.36,0.91c0,0.34,0.13,0.66,0.36,0.9
			c0.24,0.25,0.54,0.38,0.89,0.38c0.36,0,0.66-0.13,0.91-0.38c0.25-0.25,0.38-0.56,0.38-0.91s-0.13-0.65-0.38-0.91
			c-0.24-0.25-0.57-0.39-0.91-0.38 M114.22,46.32c0,0.87,0.39,1.31,1.16,1.31c0.28,0,0.5-0.05,0.67-0.14v-0.61
			c-0.13,0.1-0.3,0.15-0.46,0.14c-0.24,0-0.4-0.06-0.51-0.19c-0.1-0.12-0.15-0.34-0.15-0.63V43.7h1.12v-0.6h-1.11v-1.31l-0.71,0.23
			v1.08h-0.76v0.6h0.76v2.63L114.22,46.32z M111.32,47.53h0.71V43.7h1.04v-0.6h-1.04v-0.68c0-0.63,0.25-0.94,0.74-0.94
			c0.16,0,0.33,0.04,0.47,0.12v-0.64c-0.13-0.06-0.3-0.08-0.52-0.08c-0.38,0-0.7,0.11-0.96,0.36c-0.3,0.28-0.45,0.66-0.45,1.15v0.72
			h-0.75v0.6h0.75v3.84L111.32,47.53z M106.47,45.33c0-0.57,0.14-1,0.42-1.31c0.27-0.29,0.62-0.43,1.06-0.43
			c0.45,0,0.8,0.14,1.05,0.43c0.26,0.3,0.39,0.73,0.39,1.3c0,0.54-0.11,0.97-0.36,1.26c-0.24,0.3-0.6,0.45-1.07,0.45
			c-0.45,0-0.81-0.15-1.08-0.45C106.6,46.28,106.47,45.86,106.47,45.33 M109.51,46.99c0.4-0.43,0.6-0.99,0.6-1.7
			c0-0.72-0.19-1.28-0.56-1.7c-0.37-0.41-0.89-0.61-1.55-0.61c-0.67,0-1.21,0.2-1.61,0.59c-0.43,0.42-0.65,1.02-0.65,1.79
			c0,0.68,0.19,1.22,0.57,1.63c0.39,0.43,0.92,0.64,1.59,0.64C108.58,47.63,109.12,47.42,109.51,46.99 M104.63,47.24
			c0.27-0.22,0.42-0.56,0.41-0.9c0-0.33-0.11-0.6-0.33-0.81c-0.17-0.17-0.44-0.33-0.82-0.49c-0.34-0.14-0.56-0.27-0.67-0.37
			c-0.12-0.11-0.18-0.26-0.18-0.46c0-0.18,0.07-0.33,0.21-0.45c0.14-0.12,0.33-0.17,0.57-0.17c0.38,0,0.71,0.11,1.01,0.32v-0.72
			c-0.28-0.14-0.6-0.21-0.95-0.21c-0.45,0-0.84,0.12-1.13,0.37c-0.29,0.25-0.44,0.55-0.44,0.92c0,0.33,0.09,0.6,0.28,0.8
			c0.16,0.17,0.42,0.34,0.79,0.5c0.36,0.16,0.6,0.29,0.73,0.41s0.19,0.26,0.19,0.43c0,0.41-0.28,0.62-0.85,0.62
			c-0.42,0-0.81-0.14-1.15-0.43v0.76c0.31,0.18,0.68,0.27,1.1,0.27C103.92,47.63,104.33,47.5,104.63,47.24 M98.29,44.02
			c0.26-0.29,0.63-0.43,1.06-0.43c0.45,0,0.8,0.14,1.05,0.43c0.26,0.3,0.38,0.73,0.38,1.3c0,0.54-0.11,0.97-0.36,1.26
			c-0.24,0.3-0.6,0.45-1.07,0.45c-0.45,0-0.81-0.15-1.08-0.45s-0.4-0.71-0.4-1.25C97.88,44.76,98.02,44.32,98.29,44.02 M99.31,47.63
			c0.68,0,1.21-0.21,1.61-0.64c0.4-0.43,0.6-0.99,0.6-1.7c0-0.72-0.19-1.28-0.56-1.7c-0.37-0.41-0.89-0.61-1.55-0.61
			c-0.67,0-1.21,0.2-1.61,0.59c-0.43,0.42-0.65,1.02-0.65,1.79c0,0.68,0.19,1.22,0.57,1.63C98.11,47.41,98.64,47.63,99.31,47.63
			 M95.73,43.25c-0.22,0.17-0.38,0.43-0.48,0.75h-0.02v-0.92h-0.71v4.44h0.71v-2.25c0-0.52,0.11-0.92,0.33-1.21
			c0.2-0.26,0.44-0.39,0.73-0.39c0.24,0,0.42,0.05,0.54,0.14v-0.74c-0.1-0.04-0.24-0.06-0.43-0.06
			C96.16,43.02,95.93,43.1,95.73,43.25 M92.23,47.63c0.47,0,0.88-0.1,1.22-0.31v-0.67c-0.34,0.25-0.7,0.38-1.09,0.38
			c-0.45,0-0.82-0.15-1.1-0.45c-0.27-0.3-0.41-0.71-0.41-1.23c0-0.54,0.15-0.97,0.45-1.29c0.28-0.31,0.65-0.47,1.1-0.47
			c0.38,0,0.75,0.12,1.06,0.35v-0.73c-0.3-0.15-0.64-0.23-1.03-0.23c-0.7,0-1.27,0.22-1.68,0.67s-0.63,1.04-0.63,1.76
			c0,0.65,0.19,1.18,0.57,1.59C91.08,47.43,91.6,47.64,92.23,47.63 M88.3,47.54h0.71V43.1h-0.71L88.3,47.54L88.3,47.54z
			 M88.66,41.97c0.12,0,0.24-0.05,0.33-0.14c0.09-0.09,0.14-0.21,0.14-0.33c0-0.12-0.05-0.24-0.14-0.33
			c-0.09-0.09-0.21-0.13-0.33-0.13c-0.13,0-0.24,0.04-0.33,0.13c-0.09,0.09-0.14,0.2-0.14,0.33c0,0.14,0.05,0.25,0.14,0.33
			C88.42,41.93,88.54,41.97,88.66,41.97 M81.12,43.37l-0.03-1.21h0.02c0.06,0.29,0.13,0.5,0.19,0.64l2.12,4.74h0.36l2.13-4.78
			c0.05-0.13,0.12-0.33,0.19-0.6h0.02l-0.06,1.2v4.18h0.73v-6.22h-0.91l-1.95,4.31c-0.08,0.17-0.17,0.42-0.3,0.76h-0.03
			c-0.05-0.17-0.14-0.42-0.28-0.74l-1.91-4.34h-0.96v6.22h0.7V43.37z M118.48,44.09c-0.2,0.2-0.45,0.3-0.74,0.3s-0.54-0.1-0.74-0.3
			s-0.31-0.45-0.31-0.75c0-0.29,0.1-0.54,0.3-0.74s0.45-0.3,0.75-0.3c0.28-0.01,0.54,0.1,0.74,0.3c0.2,0.2,0.31,0.47,0.3,0.75
			C118.79,43.65,118.68,43.9,118.48,44.09 M117.75,42.18c-0.32-0.01-0.62,0.11-0.85,0.34c-0.22,0.22-0.35,0.52-0.34,0.84
			c0,0.34,0.11,0.61,0.34,0.84s0.51,0.33,0.84,0.33c0.32,0.01,0.62-0.11,0.85-0.34c0.23-0.23,0.34-0.5,0.34-0.84
			c0-0.34-0.11-0.63-0.34-0.84c-0.22-0.22-0.52-0.33-0.83-0.33 M117.72,43.27h-0.23v-0.51h0.19c0.13,0,0.22,0.02,0.28,0.07
			c0.05,0.04,0.07,0.1,0.07,0.19C118.03,43.19,117.93,43.27,117.72,43.27 M117.88,43.41L117.88,43.41c0.12-0.03,0.22-0.08,0.28-0.15
			c0.07-0.07,0.1-0.17,0.1-0.26c0-0.11-0.04-0.21-0.12-0.28c-0.1-0.09-0.24-0.13-0.43-0.13h-0.42v1.5h0.21v-0.63h0.14
			c0.1,0,0.19,0.09,0.27,0.27l0.16,0.36h0.26l-0.2-0.4C118.05,43.52,117.96,43.43,117.88,43.41"/>
		<g id="Android">
			<g>
				<path class="st10" d="M284,240.52c-0.66,0-1.22,0.23-1.68,0.69s-0.69,1.01-0.69,1.66v9.89c0,0.66,0.23,1.22,0.69,1.68
					c0.46,0.46,1.02,0.69,1.68,0.69c0.66,0,1.21-0.23,1.67-0.69c0.45-0.46,0.68-1.02,0.68-1.68v-9.89c0-0.64-0.23-1.2-0.69-1.66
					C285.2,240.75,284.65,240.52,284,240.52z"/>
				<path class="st10" d="M303.05,231.64l1.63-3.01c0.11-0.2,0.07-0.35-0.11-0.46c-0.2-0.09-0.35-0.05-0.46,0.14l-1.66,3.04
					c-1.46-0.64-3-0.97-4.62-0.97c-1.63,0-3.17,0.32-4.62,0.97l-1.66-3.04c-0.11-0.18-0.26-0.23-0.46-0.14
					c-0.18,0.11-0.22,0.26-0.11,0.46l1.63,3.01c-1.66,0.84-2.97,2.02-3.96,3.53c-0.98,1.51-1.47,3.16-1.47,4.96h21.27
					c0-1.79-0.49-3.45-1.47-4.96C306,233.66,304.69,232.48,303.05,231.64z M293.61,236.02c-0.18,0.18-0.39,0.27-0.63,0.27
					c-0.25,0-0.45-0.09-0.62-0.27c-0.17-0.18-0.25-0.39-0.25-0.63c0-0.25,0.08-0.46,0.25-0.63c0.17-0.18,0.38-0.26,0.62-0.26
					c0.25,0,0.46,0.09,0.63,0.26c0.18,0.18,0.26,0.39,0.26,0.63C293.87,235.63,293.78,235.84,293.61,236.02z M303.3,236.02
					c-0.17,0.18-0.38,0.27-0.62,0.27c-0.25,0-0.46-0.09-0.63-0.27c-0.18-0.18-0.26-0.39-0.26-0.63c0-0.25,0.09-0.46,0.26-0.63
					c0.18-0.18,0.39-0.26,0.63-0.26c0.25,0,0.45,0.09,0.62,0.26c0.17,0.18,0.25,0.39,0.25,0.63
					C303.55,235.63,303.47,235.84,303.3,236.02z"/>
				<path class="st10" d="M287.27,256.27c0,0.71,0.25,1.3,0.74,1.79c0.49,0.49,1.09,0.74,1.79,0.74h1.7l0.02,5.22
					c0,0.66,0.23,1.22,0.69,1.68c0.46,0.46,1.01,0.69,1.66,0.69c0.66,0,1.22-0.23,1.68-0.69c0.46-0.46,0.69-1.02,0.69-1.68v-5.22
					h3.17v5.22c0,0.66,0.23,1.22,0.69,1.68c0.46,0.46,1.02,0.69,1.68,0.69c0.66,0,1.22-0.23,1.68-0.69
					c0.46-0.46,0.69-1.02,0.69-1.68v-5.22h1.72c0.69,0,1.28-0.25,1.77-0.74c0.49-0.49,0.74-1.09,0.74-1.79v-15.32h-21.11V256.27z"/>
				<path class="st10" d="M311.65,240.52c-0.64,0-1.2,0.23-1.66,0.68c-0.46,0.45-0.69,1.01-0.69,1.67v9.89
					c0,0.66,0.23,1.22,0.69,1.68c0.46,0.46,1.01,0.69,1.66,0.69c0.66,0,1.22-0.23,1.68-0.69c0.46-0.46,0.69-1.02,0.69-1.68v-9.89
					c0-0.66-0.23-1.21-0.69-1.67C312.87,240.74,312.31,240.52,311.65,240.52z"/>
			</g>
		</g>
		<g id="X">
			<polygon class="st10" points="310.77,119.24 292.01,119.24 282.63,135.48 292.01,151.73 310.77,151.73 320.15,135.48 			"/>
			<g>
				<path class="st8" d="M307.11,144.67l-5.48-6.62l-5.42,6.62h-4.27l7.5-8.88l-7.1-8.53h4.24l5.16,6.19l5.11-6.19h4.07l-7.07,8.41
					l7.59,9H307.11z"/>
			</g>
		</g>
	</g>
	<g>
		<path class="st11" d="M100.01,225.76H82.64v-50.08h-15.7v-14.2h48.72v14.2h-15.65V225.76z"/>
	</g>
	<g>
		<path id="XMLID_55_" class="st12" d="M187.33,174.61l-18.12,9.06l18.12,9.06l18.12-9.06L187.33,174.61z M187.33,197.23
			l-27.09-13.55l27.09-13.55l27.09,13.55L187.33,197.23z M187.33,201.98L209,191.13l5.42,2.71l-27.09,13.55l-27.09-13.55l5.42-2.71
			L187.33,201.98z M165.65,201.3l21.67,10.84L209,201.3l5.42,2.71l-27.09,13.55l-27.09-13.55L165.65,201.3z"/>
	</g>
</g>
<g>
</g>
<g>
</g>
<g>
</g>
<g>
</g>
<g>
</g>
<g>
</g>
</svg>
