<?xml version="1.0" encoding="utf-8"?>
<!-- Generator: Adobe Illustrator 25.2.0, SVG Export Plug-In . SVG Version: 6.00 Build 0)  -->
<svg version="1.1" id="Layer_1" xmlns="http://www.w3.org/2000/svg" xmlns:xlink="http://www.w3.org/1999/xlink" x="0px" y="0px"
	 viewBox="0 0 320 320" style="enable-background:new 0 0 320 320;" xml:space="preserve">
<style type="text/css">
	.st0{fill:none;stroke:#EFEFEF;stroke-linecap:round;stroke-linejoin:round;stroke-miterlimit:10;stroke-dasharray:4,8;}
	.st1{fill-rule:evenodd;clip-rule:evenodd;fill:#FFFFFF;}
	.st2{fill-rule:evenodd;clip-rule:evenodd;fill:#A4C547;}
	.st3{fill:#FFFFFF;}
	.st4{fill:#A4C547;}
	.st5{fill:#EFEFEF;}
	.st6{fill:#DEDFDF;}
	.st7{fill:#4296D2;}
	.st8{fill:#0866AA;}
	.st9{fill:#2178BD;}
	.st10{fill:#4096D2;}
	.st11{display:none;fill:#FFFFFF;}
</style>
<circle class="st0" cx="154.2" cy="163.2" r="123.7"/>
<g id="_x2E_NET">
	<path id="XMLID_8_" class="st1" d="M227.5,154c-19.5,0-36.1,6.9-49.8,20.7c-13.7,13.7-20.6,30.3-20.6,49.9s6.9,36.2,20.6,49.8
		c5,5.2,10.5,9.3,16.4,12.6h-85.5c-1.4-0.1-2.7-0.5-4-1.2c-2.1-1-3.2-3-3.2-6V105.5c0.2-1.5,0.5-2.9,1-4c1.1-2.1,3.2-3.2,6.1-3.2
		h173.9l1.2,0.3c1,0.2,1.9,0.4,2.7,0.8c2.2,1,3.3,3.1,3.3,6.2v85.8c-3.2-5.9-7.4-11.4-12.5-16.6C263.4,160.9,246.8,154,227.5,154z"
		/>
	<path id="XMLID_2_" class="st2" d="M227.5,154c19.3,0,35.8,6.9,49.7,20.7c5.1,5.1,9.3,10.6,12.5,16.6v-85.8c0-3.1-1.1-5.1-3.3-6.2
		c-0.8-0.3-1.7-0.6-2.7-0.8l-1.2-0.3H108.6c-3,0-5,1.1-6.1,3.2c-0.5,1.1-0.9,2.4-1,4v174.4c0,3,1.1,5,3.2,6c1.3,0.7,2.6,1.1,4,1.2
		h85.5c-5.9-3.2-11.3-7.4-16.4-12.6c-13.7-13.6-20.6-30.2-20.6-49.8s6.9-36.3,20.6-49.9C191.4,160.9,208,154,227.5,154z M287.2,90.4
		c1.9,0.3,3.3,0.8,4.4,1.4c4.3,2.1,6.4,5.8,6.4,11.2v121.7c0,19.5-6.9,36.1-20.7,49.8c-13.8,13.9-30.4,20.8-49.7,20.8H106
		c-2,0-4.2-0.5-6.4-1.5c-4.3-2.2-6.4-6-6.4-11.3V102.9c0-2.1,0.6-4.3,1.7-6.4c2-4.3,5.8-6.4,11.1-6.4h179.1L287.2,90.4z"/>
	<g id="Book">
		<polygon class="st3" points="195.8,194.8 202.3,194.8 217.5,196.4 227.8,205.9 231.8,205.9 240.1,200.3 253.6,194.8 265.5,192.7 
			265.5,247.8 253.6,244 239.7,247.8 233.7,253.2 230.7,253.2 225.7,253.2 221.6,249.9 212.8,246.6 203.2,246.6 195.8,248.2 		"/>
		<path class="st3" d="M230.7,258.7c-0.4,0-0.8-0.1-1.2-0.3c-1.1-0.5-1.8-1.6-1.8-2.8v-40.7c0-10.4,6.5-18,18.9-22.1
			c8.9-2.9,18-3.1,19.8-3.1h0.2c1.7,0,3,1.4,3,3.1v56c0,1.1-0.6,2.1-1.5,2.7s-2.1,0.6-3.1,0c0,0-4.8-2.6-11.5-2.6
			c-7.4,0-14.4,3-20.7,8.9C232.2,258.4,231.4,258.7,230.7,258.7z M263.4,196c-8,0.5-29.6,3.3-29.6,18.9v34.3
			c6.1-4.2,12.7-6.3,19.7-6.3c4,0,7.4,0.7,9.9,1.5V196z"/>
		<path class="st3" d="M230.7,258.7c-0.8,0-1.5-0.3-2.1-0.8c-6.3-5.9-13.2-8.9-20.7-8.9c-6.7,0-11.5,2.5-11.5,2.6
			c-1,0.5-2.1,0.5-3-0.1c-0.9-0.6-1.5-1.6-1.5-2.7v-56c0-1.7,1.4-3.1,3-3.1h0.2c1.7,0,10.8,0.2,19.8,3.1
			c12.4,4.1,18.9,11.7,18.9,22.1v40.7c0,1.2-0.7,2.3-1.8,2.8C231.5,258.6,231.1,258.7,230.7,258.7z M207.9,242.8
			c7,0,13.6,2.1,19.7,6.3v-34.3c0-15.6-21.6-18.4-29.6-18.9v48.3C200.5,243.6,203.9,242.8,207.9,242.8z"/>
	</g>
	<g>
		<path class="st4" d="M144.6,129.7c0,4.6-1.5,8.2-4.6,10.7c-3,2.5-7.4,3.7-13,3.7h-4.6v16.6h-7.3v-44.5H128c5.5,0,9.7,1.1,12.5,3.4
			C143.2,121.9,144.6,125.3,144.6,129.7z M122.4,138h3.9c3.7,0,6.5-0.6,8.2-1.9c1.7-1.3,2.6-3.3,2.6-6.1c0-2.6-0.8-4.5-2.3-5.7
			c-1.6-1.3-4-1.9-7.3-1.9h-5L122.4,138L122.4,138z"/>
		<path class="st4" d="M165.8,136.1v2.9l-4.2,0.8c0.4,0.5,0.7,1.2,1,1.9c0.3,0.8,0.4,1.6,0.4,2.4c0,2.5-0.9,4.5-2.6,6
			c-1.7,1.5-4.2,2.2-7.2,2.2c-0.8,0-1.5-0.1-2.1-0.2c-1.1,0.7-1.7,1.5-1.7,2.4c0,0.6,0.3,1,0.8,1.3s1.5,0.4,2.9,0.4h4.3
			c2.7,0,4.8,0.6,6.2,1.7c1.4,1.2,2.1,2.8,2.1,5c0,2.8-1.1,4.9-3.4,6.5s-5.6,2.3-9.9,2.3c-3.3,0-5.9-0.6-7.7-1.8
			c-1.8-1.2-2.6-2.9-2.6-5.1c0-1.5,0.5-2.8,1.4-3.8c1-1,2.3-1.7,4-2.2c-0.7-0.3-1.3-0.8-1.7-1.4c-0.5-0.7-0.7-1.4-0.7-2.1
			c0-0.9,0.3-1.7,0.8-2.3c0.5-0.6,1.3-1.3,2.3-1.9c-1.3-0.5-2.3-1.4-3.1-2.7c-0.8-1.2-1.2-2.7-1.2-4.4c0-2.7,0.8-4.7,2.5-6.2
			c1.7-1.5,4.1-2.2,7.2-2.2c0.7,0,1.4,0,2.2,0.1c0.8,0.1,1.3,0.2,1.7,0.3L165.8,136.1L165.8,136.1z M146.5,164.6
			c0,1.1,0.5,2,1.5,2.6c1,0.6,2.4,0.9,4.3,0.9c2.8,0,5-0.4,6.4-1.2s2.1-1.9,2.1-3.3c0-1.1-0.4-1.8-1.1-2.3c-0.8-0.5-2.2-0.7-4.3-0.7
			h-3.9c-1.5,0-2.7,0.3-3.6,1.1C147,162.4,146.5,163.4,146.5,164.6z M148.8,144.1c0,1.5,0.4,2.7,1.2,3.6c0.8,0.8,1.9,1.2,3.4,1.2
			c3,0,4.5-1.6,4.5-4.9c0-1.6-0.4-2.8-1.1-3.7c-0.8-0.9-1.9-1.3-3.4-1.3c-1.5,0-2.7,0.4-3.4,1.3
			C149.2,141.2,148.8,142.4,148.8,144.1z"/>
	</g>
	<g id="shape">
		<g>
			<rect x="241.3" y="207.8" class="st4" width="19.7" height="2.7"/>
			<rect x="241.3" y="216" class="st4" width="19.7" height="2.7"/>
			<rect x="241.3" y="224.2" class="st4" width="19.7" height="2.7"/>
			<rect x="241.3" y="232.4" class="st4" width="19.7" height="2.7"/>
			<path class="st4" d="M215.7,222.2l-5.1,0.8c-0.3,0.9-0.7,1.8-1.1,2.7c0.9,1.3,2,2.5,2.9,3.8c0.1,0.2,0.2,0.4,0.2,0.6
				c0,0.2-0.1,0.4-0.2,0.6c-1.2,1.6-3.1,3.4-4.6,4.7c-0.2,0.2-0.4,0.3-0.7,0.3c-0.3,0-0.5-0.1-0.7-0.3l-3.9-3
				c-0.8,0.4-1.6,0.8-2.5,1l-0.8,5.1c-0.1,0.5-0.5,0.8-1,0.8h-6.1c-0.3,0-0.5-0.1-0.7-0.3v-15c1.1,0.7,2.4,1.1,3.8,1.1
				c3.9,0,7.1-3.2,7.1-7.1c0-3.9-3.2-7.1-7.1-7.1c-1.4,0-2.7,0.4-3.8,1.1v-15c0.2-0.2,0.4-0.3,0.7-0.3h6.1c0.5,0,0.9,0.3,1,0.8
				c0.4,1.7,0.6,3.5,0.8,5.2c0.9,0.3,1.7,0.6,2.5,1.1l3.8-3c0.2-0.1,0.5-0.3,0.7-0.3c0.9,0,4.7,4.1,5.3,5c0.2,0.2,0.3,0.4,0.3,0.6
				c0,0.3-0.1,0.5-0.3,0.7c-1,1.2-2,2.5-3,3.8c0.4,0.8,0.8,1.6,1.1,2.5l5.1,0.8c0.4,0.1,0.8,0.6,0.8,1v6.2
				C216.5,221.7,216.1,222.1,215.7,222.2z"/>
		</g>
	</g>
</g>
<g>
	<path class="st5" d="M274.8,142c-19,0-34.5-15.5-34.5-34.5S255.8,73,274.8,73s34.5,15.5,34.5,34.5S293.9,142,274.8,142z"/>
	<path class="st6" d="M274.8,74.4c18.2,0,33,14.8,33,33s-14.8,33-33,33s-33-14.8-33-33S256.6,74.4,274.8,74.4 M274.8,71.4
		c-19.9,0-36,16.1-36,36s16.1,36,36,36s36-16.1,36-36S294.7,71.4,274.8,71.4L274.8,71.4z"/>
</g>
<g>
	<g>
		<polygon class="st7" points="212.9,47.1 231.2,48.2 229.8,65.2 222.6,70.2 215.4,66.7 		"/>
		<polygon class="st7" points="159.3,50.4 163.4,50.4 164.8,47.1 165.4,27.7 158.8,23.9 146.3,23.9 145.3,38.1 145.8,50 		"/>
		<polygon class="st7" points="46.5,116.5 40.3,110.3 28.1,110.3 28.1,137.2 46.5,137.6 		"/>
		<polygon class="st7" points="51,191.1 44.9,185.6 28.7,185.3 27.2,187.1 27.2,208.7 50.5,209.1 		"/>
		<polygon class="st7" points="78.8,247.1 72.8,241.1 58.4,240.7 59,268 77.7,268 		"/>
	</g>
	<g>
		<g>
			<path class="st5" d="M210.8,45.1h22.5l-2.1,23.2l-9.2,3.1l-9.2-3.1L210.8,45.1z M228.8,52.6l0.3-2.8H215l0.7,8.5h9.8l-0.4,3.6
				l-3.1,0.8l-3.2-0.8l-0.2-2.2h-2.8l0.4,4.4l5.8,1.6h0.1l5.7-1.6l0.8-8.7h-10.3l-0.2-2.9L228.8,52.6L228.8,52.6z"/>
		</g>
		<g>
			<path class="st5" d="M165.4,27.7c0.6,0.5,0.8,1.2,0.8,2v19.5c0,0.8-0.3,1.4-0.8,2c-0.6,0.5-1.2,0.8-2,0.8h-16.9
				c-0.8,0-1.4-0.3-2-0.8s-0.8-1.2-0.8-2V24.8c0-0.8,0.3-1.4,0.8-2s1.2-0.8,2-0.8h11.9c0.8,0,1.4,0.3,2,0.8L165.4,27.7z M146.6,49.1
				h16.9V32.2h-6.1c-0.4,0-0.7-0.1-1-0.4c-0.3-0.3-0.4-0.6-0.4-1v-6.1h-9.4V49.1L146.6,49.1z M149.3,33.1c0.6-0.5,1.2-0.8,2-0.8
				s1.4,0.3,2,0.8s0.8,1.2,0.8,2s-0.3,1.5-0.8,2c-0.6,0.5-1.2,0.8-2,0.8s-1.4-0.3-2-0.8s-0.8-1.2-0.8-2S148.7,33.6,149.3,33.1z
				 M148.4,46.3v-3.8l2.3-2.3c0.3-0.3,0.6-0.3,0.9,0l2.3,2.3l5.2-5.2c0.3-0.3,0.6-0.3,0.9,0l1.4,1.4v7.5L148.4,46.3L148.4,46.3z
				 M163.2,29.4l-4.4-4.4v4.5C158.8,29.4,163.2,29.4,163.2,29.4z"/>
		</g>
		<g>
			<path class="st5" d="M51.2,190.1c0.5,0.6,0.8,1.2,0.8,2v15.7c0,0.8-0.3,1.4-0.8,2s-1.2,0.8-2,0.8H28.6c-0.8,0-1.5-0.3-2-0.8
				c-0.5-0.6-0.8-1.2-0.8-2v-20.6c0-0.8,0.3-1.4,0.8-2s1.2-0.8,2-0.8h15.7c0.8,0,1.4,0.3,2,0.8L51.2,190.1z M48.9,207.8
				c0.2,0,0.3-0.1,0.3-0.4v-15.2c0-0.1,0-0.2-0.1-0.2l-4.6-4.6v5.9c0,0.4-0.1,0.7-0.4,1c-0.3,0.3-0.6,0.4-1,0.4H32.8
				c-0.4,0-0.7-0.1-1-0.4c-0.3-0.3-0.4-0.6-0.4-1v-6.1H29c-0.2,0-0.4,0.1-0.4,0.4v19.9c0,0.2,0.1,0.4,0.4,0.4L48.9,207.8L48.9,207.8
				z M35.3,197.6c1-1,2.2-1.5,3.6-1.5s2.6,0.5,3.6,1.5s1.5,2.2,1.5,3.6s-0.5,2.6-1.5,3.6s-2.2,1.5-3.6,1.5s-2.6-0.5-3.6-1.5
				s-1.5-2.2-1.5-3.6S34.3,198.6,35.3,197.6z M41.8,187.1h-7.5v4.7h7.5V187.1z M37.3,202.9c0.5,0.4,1,0.7,1.7,0.7s1.2-0.2,1.7-0.7
				c0.5-0.4,0.7-1,0.7-1.7s-0.2-1.2-0.7-1.7c-0.5-0.4-1-0.7-1.7-0.7s-1.2,0.2-1.7,0.7c-0.5,0.4-0.7,1-0.7,1.7S36.8,202.4,37.3,202.9
				z"/>
		</g>
		<g>
			<path class="st5" d="M79.3,245.6c0.6,0.6,0.8,1.2,0.8,2V267c0,0.8-0.3,1.4-0.8,2s-1.2,0.8-2,0.8H60.4c-0.8,0-1.5-0.3-2-0.8
				s-0.8-1.2-0.8-2v-24.4c0-0.8,0.3-1.4,0.8-2s1.2-0.8,2-0.8h12c0.8,0,1.4,0.3,2,0.8L79.3,245.6z M77.3,267v-16.9h-6.1
				c-0.4,0-0.7-0.1-1-0.4c-0.3-0.3-0.4-0.6-0.4-1v-6.1h-9.4V267H77.3z M66.4,260.3c0.2,0.2,0.2,0.5,0,0.8l-1,1
				c-0.1,0.1-0.2,0.2-0.4,0.2c-0.1,0-0.2-0.1-0.3-0.2l-3.3-3.2c-0.3-0.2-0.3-0.5,0-0.7l3.3-3.2c0.3-0.3,0.5-0.3,0.8,0l1,1v0.1
				c0.2,0.2,0.2,0.5,0,0.7l-1.9,1.7L66.4,260.3z M69.9,252.4l1.4,0.4c0.3,0.1,0.5,0.3,0.3,0.6l-3.2,11c-0.1,0.4-0.3,0.5-0.6,0.4
				l-1.4-0.4c-0.3-0.1-0.5-0.3-0.3-0.6l3.2-11C69.4,252.4,69.6,252.3,69.9,252.4z M71.3,256.9c-0.2-0.2-0.2-0.5,0-0.8l1-1.1
				c0.2-0.3,0.5-0.3,0.8,0l3.3,3.2c0.3,0.2,0.3,0.5,0,0.7l-3.3,3.2c-0.3,0.3-0.5,0.3-0.8,0l-1-1V261c-0.2-0.2-0.2-0.5,0-0.7l1.9-1.7
				L71.3,256.9z M72.6,242.9v4.4H77L72.6,242.9z"/>
		</g>
		<g>
			<path class="st5" d="M48.3,117.1v19c0,0.8-0.3,1.4-0.8,1.9s-1.2,0.8-2,0.8H28.6c-0.8,0-1.4-0.3-2-0.8c-0.5-0.5-0.8-1.2-0.8-1.9
				v-23.7c0-0.8,0.3-1.4,0.8-1.9s1.2-0.8,2-0.8h12c0.8,0,1.4,0.3,2,0.8l4.9,4.8C48,115.7,48.3,116.3,48.3,117.1z M45.5,136.1v-16.4
				h-6.1c-0.4,0-0.7-0.1-1-0.4s-0.4-0.6-0.4-1v-5.9h-9.4v23.7H45.5z M42.7,123.7v1.6c0,0.5-0.2,0.7-0.7,0.7h-9.8
				c-0.5,0-0.7-0.2-0.7-0.7v-1.6c0-0.5,0.2-0.7,0.7-0.7H42C42.4,123,42.7,123.3,42.7,123.7z M42,127.8c0.5,0,0.7,0.2,0.7,0.7v1.6
				c0,0.5-0.2,0.7-0.7,0.7h-9.8c-0.5,0-0.7-0.2-0.7-0.7v-1.6c0-0.5,0.2-0.7,0.7-0.7H42z M40.8,112.5v4.3h4.5L40.8,112.5z"/>
		</g>
	</g>
</g>
<g>
	<path class="st8" d="M290.9,92.2l-7.3-3.5c-0.8-0.4-1.9-0.2-2.5,0.4l-23.9,21.8c-0.6,0.6-0.6,1.6,0,2.2l2,1.8
		c0.5,0.5,1.3,0.5,1.9,0.1l28.8-21.8c1-0.7,2.4,0,2.4,1.2v-0.1C292.1,93.4,291.7,92.6,290.9,92.2z"/>
	<g>
		<path class="st9" d="M290.9,120l-7.3,3.5c-0.8,0.4-1.9,0.2-2.5-0.4l-23.9-21.8c-0.6-0.6-0.6-1.6,0-2.2l2-1.8
			c0.5-0.5,1.3-0.5,1.9-0.1l28.8,21.8c1,0.7,2.4,0,2.4-1.2v0.1C292.1,118.9,291.7,119.6,290.9,120z"/>
	</g>
	<g>
		<path class="st10" d="M283.6,123.5c-0.8,0.4-1.9,0.2-2.5-0.4c0.8,0.8,2.2,0.2,2.2-0.9V90.1c0-1.2-1.4-1.7-2.2-0.9
			c0.7-0.7,1.7-0.8,2.5-0.4l7.3,3.5c0.8,0.4,1.2,1.1,1.2,2V118c0,0.8-0.5,1.6-1.2,2L283.6,123.5z"/>
	</g>
</g>
<g>
	<g>
		<g>
			<circle class="st11" cx="923.5" cy="-48.5" r="8.1"/>
		</g>
	</g>
</g>
<g>
	<g>
		<g>
			<path class="st7" d="M89.8,76.4c-0.6,0-1.1-0.3-1.5-0.7c-0.4,0.5-0.9,0.7-1.5,0.7c-0.2,0-0.4,0-0.6-0.1c0,0-0.1,0-0.1,0
				c-0.7-0.3-1.3-0.6-1.8-1.1c-0.7-0.6-0.9-1.4-0.6-2.2c-0.7-0.1-1.3-0.6-1.5-1.3c-0.3,0.1-0.5,0.1-0.7,0.1c-0.5,0-0.9-0.1-1.3-0.4
				l-0.4-0.2c-0.3,0.2-0.7,0.4-1,0.6v0.5c0,0.6-0.2,1.2-0.6,1.6c-0.4,0.5-1,0.8-1.6,0.9c-0.6,0.1-1.2,0.2-1.9,0.2
				c-0.6,0-1.3-0.1-1.9-0.2c-0.6-0.1-1.2-0.4-1.6-0.9c-0.4-0.5-0.6-1-0.6-1.6v-0.5c-0.4-0.2-0.7-0.4-1-0.6l-0.4,0.2
				c-0.4,0.3-0.9,0.4-1.3,0.4c-0.5,0-1.2-0.2-1.9-0.9c-1.1-1.3-1.8-2.4-2.1-3.4c-0.5-1.2,0-2.4,1.1-3.1l0.6-0.3c0-0.4,0-0.7,0-1.1
				l-0.5-0.3c-1.2-0.7-1.7-1.9-1.1-3.2c0.3-0.9,1-2,2.1-3.3c0.5-0.6,1.2-0.9,1.9-0.9c0.4,0,0.9,0.1,1.3,0.4l0.4,0.2
				c0.3-0.2,0.7-0.4,1.1-0.6v-0.5c0-0.6,0.2-1.2,0.6-1.7c0.4-0.5,0.9-0.8,1.6-0.8c0.6-0.1,1.3-0.2,1.9-0.2c0.6,0,1.3,0.1,2,0.2
				c0.5,0.1,1,0.3,1.5,0.8c0.4,0.5,0.7,1.1,0.7,1.7v0.5c0.4,0.2,0.7,0.4,1,0.6l0.4-0.2c0.4-0.3,0.9-0.4,1.3-0.4c0.2,0,0.5,0,0.7,0.1
				c0.3-0.6,0.8-1,1.5-1.2c-0.3-0.8-0.1-1.7,0.7-2.2c0.5-0.5,1.1-0.8,1.8-1.1c0.3-0.1,0.5-0.2,0.8-0.2c0.6,0,1.1,0.3,1.5,0.7
				c0.4-0.4,0.9-0.7,1.5-0.7c0.3,0,0.5,0.1,0.8,0.2c0.6,0.2,1.3,0.6,1.8,1.1c0.7,0.6,0.9,1.4,0.6,2.2c0.9,0.2,1.5,0.8,1.6,1.7
				c0.1,0.7,0.1,1.4,0,2.1c-0.1,0.9-0.8,1.5-1.6,1.7c0.3,0.9,0,1.7-0.7,2.3c-0.5,0.4-1.1,0.8-1.8,1c0,0-0.1,0-0.1,0
				c-0.2,0.1-0.4,0.1-0.6,0.1c-0.6,0-1.1-0.3-1.5-0.7c-0.4,0.5-0.9,0.7-1.5,0.7c-0.2,0-0.4,0-0.6-0.1c0,0-0.1,0-0.1,0
				c-0.5-0.2-0.9-0.4-1.3-0.7c-0.1,0.1-0.3,0.2-0.5,0.3c0,0-0.6,0.3-0.6,0.3c0,0.3,0,0.7,0,1.1c0,0,0.6,0.3,0.6,0.3
				c0.2,0.1,0.4,0.2,0.5,0.4c0.4-0.3,0.8-0.5,1.3-0.6c0.2-0.1,0.5-0.1,0.7-0.1c0.6,0,1.1,0.3,1.5,0.7c0.4-0.4,0.9-0.7,1.5-0.7
				c0.3,0,0.5,0.1,0.8,0.2c0.6,0.2,1.3,0.6,1.8,1.1c0.7,0.6,0.9,1.4,0.6,2.2c0.9,0.2,1.5,0.8,1.6,1.7c0.1,0.7,0.1,1.4,0,2.1
				c-0.1,0.9-0.8,1.5-1.6,1.7c0.3,0.8,0,1.6-0.6,2.2c-0.6,0.5-1.2,0.8-1.9,1.1c0,0-0.1,0-0.1,0C90.2,76.4,90,76.4,89.8,76.4z
				 M88.3,70.3l0.1,0c0,0,0-0.1-0.1-0.2c0,0,0,0,0,0c0,0,0,0,0,0C88.2,70.1,88.2,70.2,88.3,70.3C88.3,70.3,88.3,70.3,88.3,70.3z
				 M73.2,62.3c-0.3,0.4-0.4,0.7-0.4,1.1c0,0.4,0,0.7,0.2,0.9c0.2,0.3,0.5,0.6,0.8,0.8c0.2,0.1,0.4,0.2,0.7,0.2c0.1,0,0.2,0,0.2,0
				c0.4,0,0.7-0.2,1.1-0.4c0.3-0.4,0.4-0.7,0.4-1.1c0-0.4,0-0.7-0.2-0.9c-0.2-0.3-0.5-0.6-0.8-0.8c-0.2-0.1-0.4-0.2-0.7-0.2
				c-0.1,0-0.1,0-0.2,0C73.9,61.9,73.6,62.1,73.2,62.3z M88.3,57.1l0.1,0c0,0,0-0.1-0.1-0.2c0,0,0,0,0,0c0,0,0,0,0,0
				C88.2,56.9,88.2,57,88.3,57.1C88.3,57.1,88.3,57.1,88.3,57.1z"/>
			<path class="st5" d="M89.8,52.3c0.1,0,0.2,0,0.3,0.1c0.5,0.2,1,0.5,1.4,0.8c0.2,0.2,0.3,0.4,0.1,0.7l-0.4,0.7
				c0.3,0.4,0.5,0.8,0.7,1.2h0.7c0.3,0,0.5,0.1,0.5,0.4c0.1,0.6,0.1,1.1,0,1.6c0,0.3-0.2,0.5-0.5,0.5h-0.7c-0.2,0.4-0.4,0.8-0.7,1.2
				l0.4,0.6c0.1,0.3,0.1,0.5-0.1,0.7c-0.4,0.4-0.9,0.6-1.4,0.8c-0.1,0-0.1,0-0.2,0c-0.2,0-0.3-0.1-0.5-0.3L89,60.8
				c-0.2,0-0.5,0.1-0.7,0.1c-0.2,0-0.5,0-0.7-0.1l-0.4,0.6c-0.1,0.2-0.3,0.3-0.5,0.3c-0.1,0-0.1,0-0.2,0c-0.5-0.2-1-0.5-1.4-0.8
				c-0.2-0.2-0.3-0.4-0.1-0.7l0.4-0.6c-0.3-0.4-0.5-0.8-0.7-1.2H84c-0.3,0-0.5-0.2-0.5-0.5c-0.1-0.5-0.1-1.1,0-1.6
				c0-0.3,0.2-0.4,0.5-0.4h0.7c0.2-0.4,0.4-0.8,0.7-1.2L85,53.8c-0.1-0.3-0.1-0.5,0.1-0.7c0.4-0.4,0.9-0.6,1.4-0.8
				c0.1,0,0.2-0.1,0.3-0.1c0.2,0,0.3,0.1,0.4,0.3l0.4,0.7c0.2,0,0.5-0.1,0.7-0.1c0.2,0,0.5,0,0.7,0.1l0.4-0.7
				C89.5,52.4,89.6,52.3,89.8,52.3 M88.3,58.6c0.2,0,0.3,0,0.5-0.1c0.6-0.2,0.9-0.5,1-1c0.1-0.5,0-1.1-0.4-1.7
				c-0.4-0.3-0.8-0.4-1.1-0.4c-0.2,0-0.3,0-0.5,0.1c-0.6,0.2-0.9,0.5-1,1c-0.1,0.5,0,1.1,0.4,1.7C87.5,58.4,87.9,58.6,88.3,58.6
				 M74.5,53.6c0.6,0,1.1,0.1,1.7,0.2c0.2,0,0.4,0.1,0.6,0.3c0.2,0.2,0.3,0.4,0.3,0.7v1.5c0.9,0.3,1.7,0.8,2.4,1.4l1.3-0.7
				c0.2-0.1,0.4-0.2,0.6-0.2c0.3,0,0.5,0.1,0.7,0.4c0.9,1.1,1.6,2.1,1.9,2.9c0.2,0.6,0.1,1-0.4,1.3L82,62.2c0.2,0.9,0.2,1.8,0,2.8
				l1.5,0.8C84,66,84.2,66.4,84,67c-0.3,0.8-0.9,1.7-1.9,2.9c-0.2,0.3-0.5,0.4-0.8,0.4c-0.2,0-0.4-0.1-0.6-0.2l-1.3-0.8
				c-0.7,0.6-1.5,1.1-2.4,1.4v1.5c0,0.2-0.1,0.5-0.3,0.7c-0.2,0.2-0.4,0.3-0.6,0.4c-0.6,0.1-1.1,0.2-1.7,0.2s-1.1-0.1-1.7-0.2
				c-0.3,0-0.5-0.1-0.6-0.4c-0.2-0.2-0.2-0.4-0.2-0.7v-1.5c-0.9-0.3-1.7-0.8-2.4-1.4l-1.3,0.8c-0.2,0.1-0.4,0.2-0.6,0.2
				c-0.3,0-0.5-0.1-0.8-0.4c-0.9-1.2-1.6-2.1-1.9-2.9c-0.2-0.6-0.1-1,0.4-1.3l1.5-0.8c-0.2-0.9-0.2-1.9,0-2.8l-1.5-0.8
				c-0.5-0.3-0.7-0.7-0.4-1.3c0.3-0.8,0.9-1.8,1.9-2.9c0.2-0.3,0.5-0.4,0.7-0.4c0.2,0,0.4,0.1,0.6,0.2l1.3,0.7
				c0.7-0.6,1.5-1.1,2.4-1.4v-1.5c0-0.3,0.1-0.5,0.2-0.7c0.2-0.2,0.4-0.3,0.6-0.3C73.4,53.7,73.9,53.6,74.5,53.6 M74.4,66.8
				c0.1,0,0.3,0,0.4,0c0.7-0.1,1.4-0.4,2-0.9c0.5-0.6,0.8-1.3,0.8-2c0.1-0.7-0.1-1.3-0.4-1.8c-0.3-0.5-0.7-0.9-1.3-1.3
				c-0.4-0.3-0.9-0.4-1.5-0.4c-0.1,0-0.3,0-0.4,0c-0.7,0.1-1.4,0.4-2,0.9c-0.5,0.6-0.8,1.3-0.8,2c-0.1,0.7,0.1,1.3,0.4,1.8
				c0.3,0.5,0.7,0.9,1.3,1.3C73.4,66.6,73.9,66.8,74.4,66.8 M89.8,65.5c0.1,0,0.2,0,0.3,0.1c0.5,0.2,1,0.4,1.4,0.8
				c0.2,0.2,0.3,0.4,0.1,0.7l-0.4,0.6c0.3,0.4,0.5,0.8,0.7,1.2h0.7c0.3,0,0.5,0.1,0.5,0.4c0.1,0.6,0.1,1.1,0,1.6
				c0,0.3-0.2,0.5-0.5,0.5h-0.7c-0.2,0.4-0.4,0.8-0.7,1.2l0.4,0.6c0.1,0.3,0.1,0.5-0.1,0.7c-0.4,0.4-0.9,0.6-1.4,0.8
				c-0.1,0-0.1,0-0.2,0c-0.2,0-0.3-0.1-0.5-0.3L89,74c-0.2,0-0.5,0.1-0.7,0.1c-0.2,0-0.5,0-0.7-0.1l-0.4,0.6
				c-0.1,0.2-0.3,0.3-0.5,0.3c-0.1,0-0.1,0-0.2,0c-0.5-0.2-1-0.5-1.4-0.8c-0.2-0.2-0.3-0.4-0.1-0.7l0.4-0.6
				c-0.3-0.4-0.5-0.8-0.7-1.2H84c-0.3,0-0.5-0.2-0.5-0.5c-0.1-0.5-0.1-1.1,0-1.6c0-0.3,0.2-0.4,0.5-0.4h0.7c0.2-0.4,0.4-0.9,0.7-1.2
				L85,67.1c-0.1-0.3-0.1-0.5,0.1-0.7c0.4-0.4,0.9-0.6,1.4-0.8c0.1,0,0.2-0.1,0.3-0.1c0.2,0,0.3,0.1,0.4,0.3l0.4,0.7
				c0.2,0,0.5-0.1,0.7-0.1c0.2,0,0.5,0,0.7,0.1l0.4-0.7C89.5,65.6,89.6,65.5,89.8,65.5 M88.3,71.8c0.2,0,0.3,0,0.5-0.1
				c0.6-0.2,0.9-0.5,1-1c0.1-0.5,0-1.1-0.4-1.7c-0.4-0.3-0.8-0.4-1.1-0.4c-0.2,0-0.3,0-0.5,0.1c-0.6,0.2-0.9,0.5-1,1
				c-0.1,0.5,0,1.1,0.4,1.7C87.5,71.7,87.9,71.8,88.3,71.8 M89.8,49.3c-0.5,0-1,0.1-1.5,0.3c-0.5-0.2-1-0.3-1.5-0.3
				c-0.5,0-0.9,0.1-1.4,0.3c-0.8,0.3-1.5,0.8-2.2,1.3c-0.8,0.6-1.3,1.5-1.3,2.5c-0.2,0.1-0.4,0.3-0.6,0.5c0,0,0,0,0,0
				c-0.5,0-0.9,0.1-1.4,0.3c-0.1-0.7-0.5-1.4-1-1.9c-0.6-0.7-1.4-1.1-2.3-1.3c-0.7-0.1-1.4-0.2-2.2-0.2c-0.7,0-1.4,0.1-2.1,0.2
				c-1,0.1-1.8,0.6-2.5,1.4c-0.5,0.5-0.8,1.2-0.9,1.9c-0.5-0.2-0.9-0.2-1.4-0.2c-1.2,0-2.3,0.5-3.1,1.5c-1.1,1.4-1.9,2.6-2.3,3.7
				c-0.7,1.7-0.2,3.4,1.1,4.5c-1.3,1.1-1.7,2.8-1.1,4.5c0.4,1.1,1.2,2.4,2.4,3.8c0,0,0,0,0.1,0.1c0.8,0.9,1.9,1.4,3,1.4
				c0.5,0,0.9-0.1,1.4-0.2c0.1,0.6,0.4,1.2,0.8,1.8c0.6,0.8,1.5,1.3,2.5,1.5c0.7,0.1,1.4,0.2,2.1,0.2c0.7,0,1.4-0.1,2.2-0.2
				c0.9-0.1,1.8-0.6,2.4-1.4c0.5-0.6,0.8-1.2,0.9-1.9c0.4,0.2,0.9,0.2,1.3,0.2c0.2,0.2,0.4,0.4,0.7,0.6c0.1,0.9,0.5,1.7,1.2,2.4
				c0.7,0.6,1.5,1,2.3,1.4c0.1,0,0.2,0.1,0.2,0.1c0.4,0.1,0.7,0.2,1.1,0.2c0.5,0,1.1-0.1,1.5-0.3c0.5,0.2,1,0.3,1.5,0.3
				c0.4,0,0.7-0.1,1.1-0.2c0.1,0,0.2,0,0.2-0.1c0.8-0.3,1.6-0.8,2.3-1.4c0.8-0.7,1.2-1.5,1.3-2.4c0.8-0.5,1.3-1.4,1.5-2.4
				c0.2-0.9,0.2-1.8,0-2.6c-0.2-1-0.7-1.8-1.5-2.3c-0.1-0.9-0.5-1.8-1.2-2.4c-0.2-0.2-0.5-0.4-0.7-0.5c0.2-0.1,0.4-0.3,0.6-0.5
				c0.8-0.6,1.2-1.5,1.3-2.4c0.8-0.5,1.3-1.4,1.5-2.4c0.2-0.9,0.2-1.8,0-2.6c-0.2-1-0.7-1.8-1.5-2.3c-0.1-0.9-0.5-1.8-1.3-2.4
				c-0.7-0.6-1.5-1.1-2.4-1.4C90.6,49.4,90.2,49.3,89.8,49.3L89.8,49.3z M74.3,63.4c0.1,0,0.1,0,0.2,0c0,0,0,0,0,0
				c0.1,0.1,0.1,0.1,0.2,0.2c0,0,0,0,0,0.1c0,0,0,0.1,0,0.1c-0.1,0-0.1,0-0.2,0c0,0,0,0,0,0c-0.1-0.1-0.1-0.1-0.2-0.2c0,0,0,0,0-0.1
				C74.3,63.5,74.3,63.4,74.3,63.4L74.3,63.4z"/>
		</g>
	</g>
</g>
</svg>
