<svg xmlns="http://www.w3.org/2000/svg" xmlns:xlink="http://www.w3.org/1999/xlink" width="48" height="48" viewBox="0 0 48 48">
  <defs>
    <linearGradient id="linear-gradient" x1="0.5" x2="0.5" y2="0.99" gradientUnits="objectBoundingBox">
      <stop offset="0" stop-color="#2761e3"/>
      <stop offset="1" stop-color="#0c2152"/>
    </linearGradient>
  </defs>
  <path id="network-platform2" d="M32,2V14H20V9.976H12.024a1.93,1.93,0,0,0-1.976,1.976v7.976H14v12H2v-12H6.024V12.024A5.76,5.76,0,0,1,7.788,7.788a5.76,5.76,0,0,1,4.235-1.765H20V2ZM6.024,27.976h4.024V23.953H6.024Zm3.953,6v6a1.93,1.93,0,0,0,1.976,1.976h7.976V38h12V50h-12V45.976H12.024a5.76,5.76,0,0,1-4.235-1.765,5.76,5.76,0,0,1-1.765-4.235v-6Zm14.047-24h4.024V6.024H24.024Zm0,36h4.024V41.953H24.024ZM39.976,6.024a5.76,5.76,0,0,1,4.235,1.765,5.76,5.76,0,0,1,1.765,4.235V20H50V32H38V20h4.024V12.024a1.93,1.93,0,0,0-1.976-1.976h-6V6.024Zm6,27.953v6a6.025,6.025,0,0,1-6,6h-6V41.953h6a1.93,1.93,0,0,0,1.976-1.976v-6Zm-3.953-6h4.024V23.953H42.024Z" transform="translate(-2 -2)" fill="url(#linear-gradient)"/>
</svg>
