<?xml version="1.0" encoding="utf-8"?>
<!-- Generator: Adobe Illustrator 25.0.1, SVG Export Plug-In . SVG Version: 6.00 Build 0)  -->
<svg version="1.1" id="Layer_1" xmlns="http://www.w3.org/2000/svg" xmlns:xlink="http://www.w3.org/1999/xlink" x="0px" y="0px"
	 viewBox="0 0 335 283" style="enable-background:new 0 0 335 283;" xml:space="preserve">
<style type="text/css">
	.st0{fill:#EEEEEE;}
	.st1{fill:#DE4444;}
	.st2{fill:#FFFFFF;}
	.st3{fill:#7BC0CB;}
	.st4{fill:#68217A;}
	.st5{fill:#3D9AD5;}
	.st6{fill:#575756;}
</style>
<g id="Aspose.PSD">
	<g>
		<polygon class="st0" points="145.59,268.87 32.64,260.87 32.64,114.3 145.59,114.3 		"/>
	</g>
	<g>
		<polygon class="st0" points="151.59,268.87 220.18,260.87 220.18,114.3 151.59,114.3 		"/>
	</g>
	<g id="lines_18_">
		<g>
			<path class="st0" d="M237.82,181.37h-6c-0.83,0-1.5-0.67-1.5-1.5s0.67-1.5,1.5-1.5h6c0.83,0,1.5,0.67,1.5,1.5
				S238.65,181.37,237.82,181.37z M223.82,181.37h-5.78c-0.83,0-1.5-0.67-1.5-1.5s0.67-1.5,1.5-1.5h5.78c0.83,0,1.5,0.67,1.5,1.5
				S224.65,181.37,223.82,181.37z M242.01,177.56c-0.83,0-1.5-0.67-1.5-1.5v-6c0-0.83,0.67-1.5,1.5-1.5s1.5,0.67,1.5,1.5v6
				C243.51,176.89,242.84,177.56,242.01,177.56z M242.01,163.56c-0.83,0-1.5-0.67-1.5-1.5v-6c0-0.83,0.67-1.5,1.5-1.5
				s1.5,0.67,1.5,1.5v6C243.51,162.89,242.84,163.56,242.01,163.56z M242.01,149.56c-0.83,0-1.5-0.67-1.5-1.5v-6
				c0-0.83,0.67-1.5,1.5-1.5s1.5,0.67,1.5,1.5v6C243.51,148.89,242.84,149.56,242.01,149.56z M292.71,138.26h-6
				c-0.83,0-1.5-0.67-1.5-1.5s0.67-1.5,1.5-1.5h6c0.83,0,1.5,0.67,1.5,1.5S293.54,138.26,292.71,138.26z M278.71,138.26h-6
				c-0.83,0-1.5-0.67-1.5-1.5s0.67-1.5,1.5-1.5h6c0.83,0,1.5,0.67,1.5,1.5S279.54,138.26,278.71,138.26z M264.71,138.26h-6
				c-0.83,0-1.5-0.67-1.5-1.5s0.67-1.5,1.5-1.5h6c0.83,0,1.5,0.67,1.5,1.5S265.54,138.26,264.71,138.26z M250.71,138.26h-6
				c-0.83,0-1.5-0.67-1.5-1.5s0.67-1.5,1.5-1.5h6c0.83,0,1.5,0.67,1.5,1.5S251.54,138.26,250.71,138.26z"/>
		</g>
		<g>
			<path class="st0" d="M168.09,111.04c-0.83,0-1.5-0.67-1.5-1.5v-1.7c0-0.83,0.67-1.5,1.5-1.5c0.83,0,1.5,0.67,1.5,1.5v1.7
				C169.59,110.36,168.92,111.04,168.09,111.04z M168.09,101.34c-0.83,0-1.5-0.67-1.5-1.5v-4.07c0-0.83,0.67-1.5,1.5-1.5h1.93
				c0.83,0,1.5,0.67,1.5,1.5s-0.67,1.5-1.5,1.5h-0.43v2.57C169.59,100.66,168.92,101.34,168.09,101.34z M226.02,97.27h-6
				c-0.83,0-1.5-0.67-1.5-1.5s0.67-1.5,1.5-1.5h6c0.83,0,1.5,0.67,1.5,1.5S226.85,97.27,226.02,97.27z M212.02,97.27h-6
				c-0.83,0-1.5-0.67-1.5-1.5s0.67-1.5,1.5-1.5h6c0.83,0,1.5,0.67,1.5,1.5S212.85,97.27,212.02,97.27z M198.02,97.27h-6
				c-0.83,0-1.5-0.67-1.5-1.5s0.67-1.5,1.5-1.5h6c0.83,0,1.5,0.67,1.5,1.5S198.85,97.27,198.02,97.27z M184.02,97.27h-6
				c-0.83,0-1.5-0.67-1.5-1.5s0.67-1.5,1.5-1.5h6c0.83,0,1.5,0.67,1.5,1.5S184.85,97.27,184.02,97.27z M233.31,96.56
				c-0.83,0-1.5-0.67-1.5-1.5v-6c0-0.83,0.67-1.5,1.5-1.5s1.5,0.67,1.5,1.5v6C234.81,95.88,234.14,96.56,233.31,96.56z
				 M233.31,82.56c-0.83,0-1.5-0.67-1.5-1.5v-6c0-0.83,0.67-1.5,1.5-1.5s1.5,0.67,1.5,1.5v6C234.81,81.88,234.14,82.56,233.31,82.56
				z M233.31,68.56c-0.83,0-1.5-0.67-1.5-1.5v-6c0-0.83,0.67-1.5,1.5-1.5s1.5,0.67,1.5,1.5v6
				C234.81,67.88,234.14,68.56,233.31,68.56z"/>
		</g>
		<g>
			<g>
				<g>
					<path class="st0" d="M101.78,55.19h-3c-0.83,0-1.5-0.67-1.5-1.5s0.67-1.5,1.5-1.5h3c0.83,0,1.5,0.67,1.5,1.5
						S102.61,55.19,101.78,55.19z"/>
				</g>
				<g>
					<path class="st0" d="M90.07,55.19h-6.53c-0.83,0-1.5-0.67-1.5-1.5s0.67-1.5,1.5-1.5h6.53c0.83,0,1.5,0.67,1.5,1.5
						S90.9,55.19,90.07,55.19z M74.84,55.19H68.3c-0.83,0-1.5-0.67-1.5-1.5s0.67-1.5,1.5-1.5h6.53c0.83,0,1.5,0.67,1.5,1.5
						S75.66,55.19,74.84,55.19z"/>
				</g>
				<g>
					<path class="st0" d="M56.59,58.19c-0.83,0-1.5-0.67-1.5-1.5v-3c0-0.83,0.67-1.5,1.5-1.5h3c0.83,0,1.5,0.67,1.5,1.5
						s-0.67,1.5-1.5,1.5h-1.5v1.5C58.09,57.52,57.42,58.19,56.59,58.19z"/>
				</g>
				<g>
					<path class="st0" d="M56.59,98.04c-0.83,0-1.5-0.67-1.5-1.5v-5.69c0-0.83,0.67-1.5,1.5-1.5s1.5,0.67,1.5,1.5v5.69
						C58.09,97.37,57.42,98.04,56.59,98.04z M56.59,84.76c-0.83,0-1.5-0.67-1.5-1.5v-5.69c0-0.83,0.67-1.5,1.5-1.5s1.5,0.67,1.5,1.5
						v5.69C58.09,84.09,57.42,84.76,56.59,84.76z M56.59,71.47c-0.83,0-1.5-0.67-1.5-1.5v-5.69c0-0.83,0.67-1.5,1.5-1.5
						s1.5,0.67,1.5,1.5v5.69C58.09,70.8,57.42,71.47,56.59,71.47z"/>
				</g>
				<g>
					<path class="st0" d="M56.59,108.64c-0.83,0-1.5-0.67-1.5-1.5v-3c0-0.83,0.67-1.5,1.5-1.5s1.5,0.67,1.5,1.5v3
						C58.09,107.97,57.42,108.64,56.59,108.64z"/>
				</g>
			</g>
		</g>
	</g>
	<g id="circles_18_">
		<g>
			<g>
				<circle class="st1" cx="233.39" cy="34.96" r="33.61"/>
			</g>
			<g id="java_17_">
				<g id="XMLID_145_">
					<path class="st2" d="M233.25,19.31c-1.81,1.27-3.86,2.72-4.96,5.11c-1.91,4.17,3.91,8.71,4.16,8.91
						c0.06,0.04,0.13,0.07,0.2,0.07c0.07,0,0.15-0.03,0.21-0.07c0.12-0.1,0.15-0.26,0.08-0.39c-0.02-0.04-2.11-4.1-2.03-7.01
						c0.03-1.01,1.45-2.16,2.95-3.38c1.38-1.12,2.94-2.38,3.85-3.86c2-3.26-0.22-6.46-0.25-6.49c-0.09-0.12-0.25-0.17-0.39-0.11
						s-0.22,0.21-0.18,0.36c0,0.02,0.44,2.14-0.77,4.32C235.6,17.66,234.51,18.42,233.25,19.31z"/>
				</g>
				<g id="XMLID_144_">
					<path class="st2" d="M240.88,20.75c0.13-0.1,0.17-0.27,0.09-0.41s-0.25-0.2-0.4-0.15c-0.31,0.12-7.54,2.9-7.54,6.27
						c0,2.32,0.99,3.55,1.71,4.44c0.28,0.35,0.53,0.65,0.61,0.91c0.23,0.75-0.31,2.09-0.54,2.55c-0.07,0.13-0.03,0.29,0.08,0.39
						c0.06,0.05,0.13,0.08,0.21,0.08c0.06,0,0.13-0.02,0.18-0.06c0.12-0.09,3.04-2.15,2.51-4.63c-0.19-0.94-0.66-1.63-1.07-2.24
						c-0.63-0.94-1.09-1.62-0.4-2.88C237.16,23.56,240.85,20.78,240.88,20.75z"/>
				</g>
				<g id="XMLID_143_">
					<path class="st2" d="M222.07,34.88c-0.12,0.37-0.07,0.74,0.17,1.06c0.78,1.09,3.56,1.69,7.81,1.69l0,0
						c0.58,0,1.19-0.01,1.81-0.03c6.8-0.24,9.33-2.36,9.43-2.45c0.11-0.1,0.14-0.26,0.07-0.39c-0.07-0.13-0.22-0.2-0.37-0.16
						c-2.4,0.65-6.87,0.89-9.98,0.89c-3.47,0-5.24-0.25-5.67-0.43c0.22-0.31,1.59-0.85,3.29-1.18c0.16-0.03,0.27-0.18,0.26-0.35
						c-0.02-0.16-0.15-0.29-0.32-0.29C227.58,33.22,222.59,33.3,222.07,34.88z"/>
				</g>
				<g id="XMLID_142_">
					<path class="st2" d="M244.84,32.7c-1.4,0-2.73,0.7-2.79,0.73c-0.13,0.07-0.2,0.22-0.16,0.36s0.16,0.24,0.31,0.24
						c0.03,0,2.99,0.02,3.26,1.72c0.24,1.46-2.8,3.83-4,4.62c-0.13,0.09-0.18,0.25-0.12,0.39c0.05,0.12,0.17,0.2,0.3,0.2
						c0.02,0,0.04,0,0.07-0.01c0.28-0.06,6.92-1.52,6.22-5.39C247.5,33.2,246.01,32.7,244.84,32.7z"/>
				</g>
				<g id="XMLID_141_">
					<path class="st2" d="M240.29,39.9c0.02-0.12-0.03-0.25-0.13-0.32l-1.59-1.11c-0.08-0.05-0.18-0.07-0.27-0.05
						c-0.02,0-1.68,0.44-4.1,0.71c-0.96,0.11-2.03,0.16-3.11,0.16c-2.42,0-4-0.28-4.23-0.49c-0.03-0.06-0.02-0.09-0.02-0.1
						c0.04-0.12,0.27-0.25,0.41-0.31c0.16-0.06,0.25-0.23,0.2-0.39s-0.22-0.26-0.38-0.22c-1.6,0.39-2.38,0.92-2.32,1.6
						c0.1,1.2,2.88,1.82,5.23,1.98c0.34,0.02,0.7,0.03,1.09,0.03l0,0c3.91,0,8.92-1.23,8.97-1.24
						C240.17,40.12,240.26,40.02,240.29,39.9z"/>
				</g>
				<g id="XMLID_140_">
					<path class="st2" d="M228.28,42.48c0.12-0.08,0.17-0.23,0.13-0.36c-0.04-0.14-0.17-0.23-0.32-0.23
						c-0.21,0.01-2.09,0.09-2.23,1.29c-0.04,0.36,0.06,0.68,0.3,0.97c0.68,0.8,2.5,1.28,5.57,1.45c0.36,0.02,0.73,0.03,1.1,0.03
						c3.91,0,6.54-1.22,6.65-1.27s0.18-0.16,0.18-0.27c0.01-0.12-0.05-0.23-0.15-0.29l-2.01-1.23c-0.07-0.04-0.15-0.06-0.23-0.04
						c-0.01,0-1.29,0.27-3.22,0.53c-0.36,0.05-0.82,0.07-1.36,0.07c-1.93,0-4.07-0.31-4.48-0.52
						C228.22,42.57,228.23,42.52,228.28,42.48z"/>
				</g>
				<g id="XMLID_139_">
					<path class="st2" d="M231.03,49.32c8.95-0.01,13.75-1.6,14.67-2.6c0.33-0.35,0.36-0.69,0.33-0.91
						c-0.07-0.54-0.56-0.87-0.62-0.9c-0.13-0.09-0.31-0.06-0.42,0.06c-0.1,0.12-0.11,0.3,0,0.42c0.06,0.07,0.09,0.19-0.08,0.36
						c-0.37,0.35-4.1,1.39-10.31,1.71c-0.85,0.04-1.74,0.07-2.65,0.07c-5.56,0-9.63-0.76-10.16-1.21c0.21-0.3,1.65-0.77,3.18-1.04
						c0.17-0.03,0.29-0.19,0.26-0.37s-0.19-0.29-0.36-0.27c-0.04,0.01-0.19,0.01-0.36,0.03c-2.53,0.15-5.44,0.5-5.6,1.8
						c-0.05,0.4,0.07,0.76,0.35,1.07C219.95,48.3,221.91,49.32,231.03,49.32L231.03,49.32z"/>
				</g>
				<g id="XMLID_138_">
					<path class="st2" d="M247.46,47.01c-0.13-0.06-0.28-0.03-0.37,0.07c-0.01,0.01-1.36,1.42-5.4,2.25
						c-1.55,0.31-4.45,0.47-8.64,0.47s-8.18-0.16-8.22-0.17c-0.17-0.01-0.31,0.11-0.33,0.28c-0.02,0.16,0.08,0.32,0.24,0.36
						c0.04,0.01,4.22,0.99,9.94,0.99c2.74,0,5.41-0.22,7.93-0.66c4.7-0.82,5.03-3.15,5.04-3.25
						C247.66,47.2,247.58,47.06,247.46,47.01z"/>
				</g>
			</g>
		</g>
		<g>
			<g>
				<circle class="st3" cx="299.61" cy="136.76" r="33.61"/>
			</g>
			<g id="jasperreports_2_">
				<g>
					<path class="st2" d="M311.58,121.83c3.59,0.6,6.16,3.66,6.34,7.24c0.17,3.45-0.82,6.53-2.67,9.33
						c-5.34,8.11-12.73,13.29-22.36,15c-2.63,0.47-5.31,0.39-7.86-0.66c-3.66-1.5-5.54-4.78-5.01-8.97
						c2.33,4.02,6.06,4.04,9.71,3.25c9.08-1.96,16.12-7.04,21.18-14.83c0.55-0.84,0.95-1.8,1.31-2.74c1.02-2.63,1.09-5.18-0.76-7.53
						L311.58,121.83z"/>
				</g>
				<g>
					<path class="st2" d="M307.9,128.83c-1.16-1.89-2.98-1.76-4.65-1.31c-6.36,1.7-11.45,5.28-15.1,10.78
						c-0.95,1.43-1.63,3.03-0.25,4.69c-4.13,0.29-6.37-2.29-5.43-6.23c0.58-2.41,1.91-4.43,3.55-6.24
						c3.99-4.41,8.75-7.58,14.69-8.72c0.85-0.16,1.73-0.2,2.6-0.18C307.57,121.72,309.51,124.73,307.9,128.83z"/>
				</g>
				<g>
					<path class="st2" d="M311.49,121.92c-0.08-0.05-0.15-0.1-0.23-0.14c0.04-0.03,0.09-0.1,0.1-0.09c0.08,0.04,0.15,0.09,0.22,0.14
						C311.58,121.83,311.49,121.92,311.49,121.92z"/>
				</g>
			</g>
		</g>
		<g>
			<g>
				<circle class="st4" cx="115.76" cy="54.59" r="33.61"/>
			</g>
			<g id="NET_18_">
				<path class="st2" d="M125.03,51.56h4.7v14.57h1.91V51.56h4.7v-1.73h-11.31V51.56z M116.5,58.71h5.89v-1.73h-5.89v-5.42h6.36
					v-1.73h-8.27v16.3h8.64V64.4h-6.72L116.5,58.71L116.5,58.71z M109.08,61.32l0.11,2.4h-0.05c-0.11-0.22-0.34-0.58-0.66-1.09
					l-8.16-12.79h-2.48v16.3h1.91V54.36l-0.09-2.24h0.07c0.14,0.37,0.31,0.71,0.51,1.02l8.41,12.99h2.32v-16.3h-1.9L109.08,61.32
					L109.08,61.32z M93.79,63.83c-0.35,0-0.64,0.12-0.89,0.38c-0.24,0.25-0.36,0.55-0.36,0.91c0,0.34,0.13,0.66,0.36,0.9
					c0.24,0.25,0.54,0.38,0.89,0.38c0.36,0,0.66-0.13,0.91-0.38s0.38-0.56,0.38-0.91s-0.13-0.65-0.38-0.91
					c-0.24-0.25-0.57-0.39-0.91-0.38 M131.66,46.57c0,0.87,0.39,1.31,1.16,1.31c0.28,0,0.5-0.05,0.67-0.14v-0.61
					c-0.13,0.1-0.3,0.15-0.46,0.14c-0.24,0-0.4-0.06-0.51-0.19c-0.1-0.12-0.15-0.34-0.15-0.63v-2.5h1.12v-0.6h-1.11v-1.31
					l-0.71,0.23v1.08h-0.76v0.6h0.76v2.63L131.66,46.57z M128.76,47.78h0.71v-3.83h1.04v-0.6h-1.04v-0.68
					c0-0.63,0.25-0.94,0.74-0.94c0.16,0,0.33,0.04,0.47,0.12v-0.64c-0.13-0.06-0.3-0.08-0.52-0.08c-0.38,0-0.7,0.11-0.96,0.36
					c-0.3,0.28-0.45,0.66-0.45,1.15v0.72H128v0.6h0.75v3.84L128.76,47.78z M123.91,45.58c0-0.57,0.14-1,0.42-1.31
					c0.27-0.29,0.62-0.43,1.06-0.43c0.45,0,0.8,0.14,1.05,0.43c0.26,0.3,0.39,0.73,0.39,1.3c0,0.54-0.11,0.97-0.36,1.26
					c-0.24,0.3-0.6,0.45-1.07,0.45c-0.45,0-0.81-0.15-1.08-0.45C124.04,46.53,123.91,46.11,123.91,45.58 M126.95,47.24
					c0.4-0.43,0.6-0.99,0.6-1.7c0-0.72-0.19-1.28-0.56-1.7c-0.37-0.41-0.89-0.61-1.55-0.61c-0.67,0-1.21,0.2-1.61,0.59
					c-0.43,0.42-0.65,1.02-0.65,1.79c0,0.68,0.19,1.22,0.57,1.63c0.39,0.43,0.92,0.64,1.59,0.64
					C126.02,47.88,126.56,47.67,126.95,47.24 M122.07,47.49c0.27-0.22,0.42-0.56,0.41-0.9c0-0.33-0.11-0.6-0.33-0.81
					c-0.17-0.17-0.44-0.33-0.82-0.49c-0.34-0.14-0.56-0.27-0.67-0.37c-0.12-0.11-0.18-0.26-0.18-0.46c0-0.18,0.07-0.33,0.21-0.45
					s0.33-0.17,0.57-0.17c0.38,0,0.71,0.11,1.01,0.32v-0.72c-0.28-0.14-0.6-0.21-0.95-0.21c-0.45,0-0.84,0.12-1.13,0.37
					s-0.44,0.55-0.44,0.92c0,0.33,0.09,0.6,0.28,0.8c0.16,0.17,0.42,0.34,0.79,0.5c0.36,0.16,0.6,0.29,0.73,0.41
					s0.19,0.26,0.19,0.43c0,0.41-0.28,0.62-0.85,0.62c-0.42,0-0.81-0.14-1.15-0.43v0.76c0.31,0.18,0.68,0.27,1.1,0.27
					C121.36,47.88,121.77,47.75,122.07,47.49 M115.73,44.27c0.26-0.29,0.63-0.43,1.06-0.43c0.45,0,0.8,0.14,1.05,0.43
					c0.26,0.3,0.38,0.73,0.38,1.3c0,0.54-0.11,0.97-0.36,1.26c-0.24,0.3-0.6,0.45-1.07,0.45c-0.45,0-0.81-0.15-1.08-0.45
					s-0.4-0.71-0.4-1.25C115.32,45.01,115.46,44.57,115.73,44.27 M116.75,47.88c0.68,0,1.21-0.21,1.61-0.64s0.6-0.99,0.6-1.7
					c0-0.72-0.19-1.28-0.56-1.7c-0.37-0.41-0.89-0.61-1.55-0.61c-0.67,0-1.21,0.2-1.61,0.59c-0.43,0.42-0.65,1.02-0.65,1.79
					c0,0.68,0.19,1.22,0.57,1.63C115.55,47.66,116.08,47.88,116.75,47.88 M113.17,43.5c-0.22,0.17-0.38,0.43-0.48,0.75h-0.02v-0.92
					h-0.71v4.44h0.71v-2.25c0-0.52,0.11-0.92,0.33-1.21c0.2-0.26,0.44-0.39,0.73-0.39c0.24,0,0.42,0.05,0.54,0.14v-0.74
					c-0.1-0.04-0.24-0.06-0.43-0.06C113.6,43.27,113.37,43.35,113.17,43.5 M109.67,47.88c0.47,0,0.88-0.1,1.22-0.31V46.9
					c-0.34,0.25-0.7,0.38-1.09,0.38c-0.45,0-0.82-0.15-1.1-0.45c-0.27-0.3-0.41-0.71-0.41-1.23c0-0.54,0.15-0.97,0.45-1.29
					c0.28-0.31,0.65-0.47,1.1-0.47c0.38,0,0.75,0.12,1.06,0.35v-0.73c-0.3-0.15-0.64-0.23-1.03-0.23c-0.7,0-1.27,0.22-1.68,0.67
					s-0.63,1.04-0.63,1.76c0,0.65,0.19,1.18,0.57,1.59C108.52,47.68,109.04,47.89,109.67,47.88 M105.74,47.79h0.71v-4.44h-0.71
					V47.79L105.74,47.79z M106.1,42.22c0.12,0,0.24-0.05,0.33-0.14c0.09-0.09,0.14-0.21,0.14-0.33c0-0.12-0.05-0.24-0.14-0.33
					s-0.21-0.13-0.33-0.13c-0.13,0-0.24,0.04-0.33,0.13c-0.09,0.09-0.14,0.2-0.14,0.33c0,0.14,0.05,0.25,0.14,0.33
					C105.86,42.18,105.98,42.22,106.1,42.22 M98.56,43.62l-0.03-1.21h0.02c0.06,0.29,0.13,0.5,0.19,0.64l2.12,4.74h0.36l2.13-4.78
					c0.05-0.13,0.12-0.33,0.19-0.6h0.02l-0.06,1.2v4.18h0.73v-6.22h-0.91l-1.95,4.31c-0.08,0.17-0.17,0.42-0.3,0.76h-0.03
					c-0.05-0.17-0.14-0.42-0.28-0.74l-1.91-4.34h-0.96v6.22h0.7v-4.16H98.56z M135.92,44.34c-0.2,0.2-0.45,0.3-0.74,0.3
					c-0.29,0-0.54-0.1-0.74-0.3s-0.31-0.45-0.31-0.75c0-0.29,0.1-0.54,0.3-0.74c0.2-0.2,0.45-0.3,0.75-0.3
					c0.28-0.01,0.54,0.1,0.74,0.3s0.31,0.47,0.3,0.75C136.23,43.9,136.12,44.15,135.92,44.34 M135.19,42.43
					c-0.32-0.01-0.62,0.11-0.85,0.34c-0.22,0.22-0.35,0.52-0.34,0.84c0,0.34,0.11,0.61,0.34,0.84s0.51,0.33,0.84,0.33
					c0.32,0.01,0.62-0.11,0.85-0.34s0.34-0.5,0.34-0.84s-0.11-0.63-0.34-0.84C135.81,42.54,135.51,42.43,135.19,42.43 M135.16,43.52
					h-0.23v-0.51h0.19c0.13,0,0.22,0.02,0.28,0.07c0.05,0.04,0.07,0.1,0.07,0.19C135.47,43.44,135.37,43.52,135.16,43.52
					 M135.32,43.66L135.32,43.66c0.12-0.03,0.22-0.08,0.28-0.15c0.07-0.07,0.1-0.17,0.1-0.26c0-0.11-0.04-0.21-0.12-0.28
					c-0.1-0.09-0.24-0.13-0.43-0.13h-0.42v1.5h0.21v-0.63h0.14c0.1,0,0.19,0.09,0.27,0.27l0.16,0.36h0.26l-0.2-0.4
					C135.49,43.77,135.4,43.68,135.32,43.66"/>
			</g>
		</g>
	</g>
	<g>
		<g>
			<g>
				<path class="st5" d="M86.57,178.95c0,6.15-1.92,10.85-5.76,14.1c-3.84,3.26-9.3,4.88-16.39,4.88h-5.2v20.31H47.12v-57.11h18.24
					c6.93,0,12.19,1.49,15.8,4.47C84.77,168.6,86.57,173.04,86.57,178.95z M59.23,188.01h3.98c3.72,0,6.51-0.74,8.36-2.21
					c1.85-1.47,2.77-3.61,2.77-6.43c0-2.84-0.78-4.93-2.32-6.29c-1.55-1.35-3.98-2.03-7.29-2.03h-5.51V188.01z"/>
			</g>
		</g>
		<g>
			<g>
				<path class="st5" d="M104.28,211.32c0,2.58-0.93,4.61-2.78,6.09s-4.44,2.23-7.74,2.23c-3.05,0-5.74-0.57-8.09-1.72v-5.62
					c1.93,0.86,3.56,1.46,4.89,1.82c1.33,0.35,2.56,0.53,3.66,0.53c1.33,0,2.35-0.25,3.06-0.76c0.71-0.51,1.06-1.26,1.06-2.27
					c0-0.56-0.16-1.06-0.47-1.49s-0.77-0.86-1.38-1.26s-1.84-1.05-3.7-1.93c-1.75-0.82-3.05-1.61-3.93-2.36
					c-0.87-0.75-1.57-1.63-2.09-2.64c-0.52-1-0.78-2.17-0.78-3.52c0-2.53,0.86-4.51,2.57-5.96c1.71-1.45,4.08-2.17,7.1-2.17
					c1.48,0,2.9,0.18,4.25,0.53s2.76,0.85,4.23,1.48l-1.95,4.71c-1.52-0.62-2.78-1.06-3.78-1.31s-1.98-0.37-2.94-0.37
					c-1.15,0-2.02,0.27-2.64,0.8c-0.61,0.53-0.92,1.23-0.92,2.09c0,0.53,0.12,1,0.37,1.4c0.25,0.4,0.64,0.78,1.18,1.15
					c0.54,0.37,1.82,1.04,3.84,2c2.67,1.28,4.5,2.56,5.49,3.84C103.78,207.89,104.28,209.46,104.28,211.32z"/>
			</g>
			<g>
				<path class="st5" d="M133.15,204.7c0,4.7-1.34,8.3-4.01,10.8c-2.68,2.5-6.54,3.75-11.59,3.75h-8.09v-28.55h8.96
					c4.66,0,8.28,1.23,10.86,3.69C131.86,196.85,133.15,200.28,133.15,204.7z M126.86,204.85c0-6.13-2.71-9.2-8.12-9.2h-3.22v18.59
					h2.6C123.94,214.25,126.86,211.12,126.86,204.85z"/>
			</g>
		</g>
	</g>
	<g id="PSD">
		<g>
			<g>
				<polygon class="st6" points="168.48,207.26 176.32,198.06 183.46,204.32 192.82,188.3 203.69,207.14 				"/>
			</g>
		</g>
		<g>
			<g>
				<g>
					<g>
						<g>
							<path class="st6" d="M183.45,181.63c-1.7,0.18,16.61-19.88,17.71-20.87c1.11-0.99,2.04-2.06,0.36,1.99
								c-1.68,4.05-11.04,20.28-13.16,20.81C185.77,184.19,187.58,181.19,183.45,181.63z"/>
						</g>
					</g>
				</g>
				<g>
					<g>
						<g>
							<path class="st6" d="M183.98,183.69c-2.2-0.98-4.18-0.26-6.51,3.46c-2.34,3.73-2.59,3.75-3.88,4.52
								c-1.29,0.77-0.22,0.88,0.43,0.98c0.64,0.11,9.47,1.2,11.12-3.11C186.78,185.24,184.97,184.13,183.98,183.69z"/>
						</g>
					</g>
				</g>
			</g>
		</g>
		<g>
			<g>
				<g>
					<g>
						<path class="st6" d="M168.61,180.49h-10.83v-10.85h10.83V180.49z M160.05,178.22h6.29v-6.3h-6.29V178.22z"/>
					</g>
				</g>
			</g>
			<g>
				<g>
					<g>
						<path class="st6" d="M168.61,211.8h-10.83v-10.85h10.83V211.8z M160.05,209.52h6.29v-6.3h-6.29V209.52z"/>
					</g>
				</g>
			</g>
			<g>
				<g>
					<g>
						<path class="st6" d="M214.9,180.49h-10.83v-10.85h10.83V180.49z M206.34,178.22h6.29v-6.3h-6.29V178.22z"/>
					</g>
				</g>
			</g>
			<g>
				<g>
					<g>
						<path class="st6" d="M214.9,211.8h-10.83v-10.85h10.83V211.8z M206.34,209.52h6.29v-6.3h-6.29V209.52z"/>
					</g>
				</g>
			</g>
		</g>
		<g>
			<g>
				<g>
					<rect x="172.15" y="210.99" class="st6" width="28.37" height="2.54"/>
				</g>
			</g>
		</g>
		<g>
			<g>
				<g>
					<rect x="175.5" y="215.53" class="st6" width="21.67" height="2.72"/>
				</g>
			</g>
		</g>
		<g>
			<rect x="161.57" y="180.49" class="st6" width="2.73" height="20.46"/>
		</g>
		<g>
			<rect x="208.12" y="180.49" class="st6" width="2.73" height="20.46"/>
		</g>
		<g>
			
				<rect x="184.72" y="189.2" transform="matrix(-1.836970e-16 1 -1 -1.836970e-16 393.7152 21.5568)" class="st6" width="2.73" height="36.87"/>
		</g>
		<g>
			<polygon class="st6" points="168.21,176.84 168.21,174.11 187.24,174.11 184.99,176.84 			"/>
		</g>
		<g>
			<polygon class="st6" points="204.32,174.11 204.32,176.84 195.17,176.84 196.65,174.11 			"/>
		</g>
	</g>
</g>
<g>
</g>
<g>
</g>
<g>
</g>
<g>
</g>
<g>
</g>
</svg>
