<?xml version="1.0" encoding="utf-8"?>
<!-- Generator: Adobe Illustrator 25.2.0, SVG Export Plug-In . SVG Version: 6.00 Build 0)  -->
<svg version="1.1" id="Aspose.PSD" xmlns="http://www.w3.org/2000/svg" xmlns:xlink="http://www.w3.org/1999/xlink" x="0px" y="0px"
	 viewBox="0 0 277 277" style="enable-background:new 0 0 277 277;" xml:space="preserve">
<style type="text/css">
	.st0{fill-rule:evenodd;clip-rule:evenodd;fill:#FFFFFF;}
	.st1{fill-rule:evenodd;clip-rule:evenodd;fill:#A4C547;}
	.st2{fill:#A4C547;}
	.st3{fill:none;stroke:#FFFFFF;stroke-width:6;stroke-linecap:round;stroke-linejoin:round;stroke-miterlimit:10;}
	.st4{fill:#FFFFFF;}
	.st5{fill:#9CC53E;}
	.st6{fill:#9CC53E;stroke:#FFFFFF;stroke-width:5;stroke-miterlimit:10;}
</style>
<g id="_x2E_NET">
	<path id="XMLID_8_" class="st0" d="M180.46,87.48c-25.78,0-47.67,9.07-65.69,27.2c-18.12,18.02-27.18,39.93-27.18,65.72
		s9.06,47.65,27.18,65.56c6.65,6.78,13.85,12.3,21.61,16.56H23.59c-1.8-0.11-3.55-0.62-5.23-1.52c-2.81-1.35-4.22-4-4.22-7.94V23.62
		c0.22-2.03,0.67-3.77,1.35-5.24c1.46-2.82,4.17-4.22,8.1-4.22h229.47l1.52,0.34c1.35,0.23,2.53,0.56,3.55,1.01
		c2.93,1.35,4.39,4.05,4.39,8.11v112.87c-4.26-7.79-9.77-15.06-16.55-21.79C227.74,96.55,205.9,87.48,180.46,87.48z"/>
	<g>
		<path id="XMLID_2_" class="st1" d="M180.46,87.48c25.44,0,47.28,9.07,65.51,27.2c6.78,6.74,12.29,14,16.55,21.79V23.62
			c0-4.06-1.46-6.76-4.39-8.11c-1.01-0.45-2.2-0.79-3.55-1.01l-1.52-0.34H23.59c-3.94,0-6.64,1.41-8.1,4.22
			c-0.68,1.46-1.13,3.21-1.35,5.24v229.45c0,3.94,1.41,6.59,4.22,7.94c1.69,0.9,3.43,1.41,5.23,1.52h112.79
			c-7.76-4.26-14.96-9.78-21.61-16.56c-18.12-17.91-27.18-39.76-27.18-65.56s9.06-47.7,27.18-65.72
			C132.78,96.55,154.68,87.48,180.46,87.48z M259.14,3.68c2.48,0.45,4.39,1.07,5.74,1.86c5.63,2.7,8.44,7.6,8.44,14.7v160.18
			c0,25.68-9.12,47.54-27.36,65.56c-18.23,18.25-40.07,27.37-65.51,27.37H20.21c-2.7,0-5.52-0.67-8.44-2.03
			c-5.63-2.93-8.44-7.88-8.44-14.87V20.24c0-2.82,0.73-5.63,2.19-8.45c2.7-5.63,7.6-8.45,14.69-8.45h236.23L259.14,3.68z"/>
		<g>
			<path class="st2" d="M71.02,55.43c0,6.11-2,10.8-6.01,14.05c-4,3.26-9.7,4.88-17.1,4.88h-6.09v21.9h-9.57V37.73h16.86
				c7.31,0,12.79,1.5,16.44,4.48C69.2,45.21,71.02,49.61,71.02,55.43z M41.84,66.32h5.08c4.91,0,8.51-0.85,10.81-2.56
				c2.29-1.71,3.44-4.38,3.44-8.01c0-3.36-1.03-5.87-3.08-7.53c-2.06-1.65-5.26-2.48-9.61-2.48h-6.65V66.32z"/>
			<path class="st2" d="M94.61,85.61c0,3.49-1.26,6.23-3.79,8.22c-2.52,1.99-6.01,2.98-10.45,2.98s-8.07-0.69-10.9-2.07v-6.07
				c1.79,0.84,3.69,1.5,5.71,1.99c2.01,0.48,3.89,0.73,5.63,0.73c2.54,0,4.42-0.48,5.63-1.45c1.21-0.97,1.81-2.26,1.81-3.89
				c0-1.47-0.55-2.71-1.66-3.73c-1.11-1.02-3.4-2.23-6.88-3.63c-3.58-1.45-6.11-3.11-7.57-4.97c-1.47-1.86-2.2-4.1-2.2-6.71
				c0-3.28,1.16-5.85,3.49-7.73c2.33-1.88,5.45-2.82,9.37-2.82c3.76,0,7.5,0.82,11.23,2.47l-2.04,5.24c-3.49-1.47-6.61-2.2-9.35-2.2
				c-2.08,0-3.65,0.45-4.73,1.36c-1.07,0.9-1.61,2.1-1.61,3.58c0,1.02,0.21,1.89,0.64,2.62c0.43,0.73,1.14,1.41,2.12,2.05
				c0.98,0.64,2.76,1.5,5.32,2.55c2.88,1.2,5,2.32,6.34,3.36c1.34,1.04,2.33,2.21,2.96,3.52C94.3,82.3,94.61,83.84,94.61,85.61z"/>
			<path class="st2" d="M128.64,76.26c0,6.48-1.8,11.44-5.4,14.86c-3.6,3.43-8.78,5.14-15.55,5.14H96.71V57.01h12.14
				c6.25,0,11.11,1.68,14.58,5.05C126.91,65.42,128.64,70.16,128.64,76.26z M121.87,76.48c0-9.4-4.4-14.1-13.19-14.1h-5.56v28.49
				h4.57C117.15,90.87,121.87,86.07,121.87,76.48z"/>
		</g>
	</g>
	<g>
		<rect x="129.59" y="147.41" class="st3" width="100.9" height="69.39"/>
		<polygon class="st4" points="141.57,216.05 158.48,196.17 173.9,209.7 194.11,175.11 217.58,215.77 		"/>
		<g>
			<polygon class="st5" points="191.38,133.2 172.89,155.59 195.79,156.6 210.45,129.61 			"/>
			<g>
				<path class="st4" d="M173.89,160.7c-3.68,0.39,35.86-42.92,38.24-45.08c2.39-2.15,4.41-4.46,0.78,4.29
					c-3.63,8.75-23.83,43.79-28.41,44.93C178.89,166.24,182.8,159.74,173.89,160.7z"/>
				<path class="st4" d="M175.02,165.15c-4.75-2.12-9.01-0.57-14.06,7.48c-5.05,8.06-5.6,8.11-8.37,9.76
					c-2.78,1.66-0.47,1.9,0.92,2.12s20.45,2.58,24.02-6.72C181.08,168.48,177.16,166.11,175.02,165.15z"/>
			</g>
		</g>
		<g>
			<rect x="120.91" y="137.28" class="st6" width="18.48" height="18.51"/>
			<rect x="120.91" y="204.87" class="st6" width="18.48" height="18.51"/>
			<rect x="220.85" y="137.28" class="st6" width="18.48" height="18.51"/>
			<rect x="220.85" y="204.87" class="st6" width="18.48" height="18.51"/>
		</g>
		<rect x="149.48" y="224.11" class="st4" width="61.27" height="5.49"/>
		<rect x="156.72" y="233.9" class="st4" width="46.78" height="5.87"/>
	</g>
</g>
<g>
</g>
<g>
</g>
<g>
</g>
<g>
</g>
<g>
</g>
<g>
</g>
</svg>
