<?xml version="1.0" encoding="utf-8"?>
<!-- Generator: Adobe Illustrator 25.0.1, SVG Export Plug-In . SVG Version: 6.00 Build 0)  -->
<svg xmlns="http://www.w3.org/2000/svg" xmlns:xlink="http://www.w3.org/1999/xlink" version="1.1" id="Layer_1" x="0px" y="0px" viewBox="0 0 335 283" style="enable-background:new 0 0 335 283;" xml:space="preserve">
<style type="text/css">
	.st0{fill:#EEEEEE;}
	
		.st1{fill:none;stroke:#EEEEEE;stroke-width:3;stroke-linecap:round;stroke-linejoin:round;stroke-miterlimit:10;stroke-dasharray:6,8;}
	.st2{fill:none;stroke:#EEEEEE;stroke-width:3;stroke-linecap:round;stroke-linejoin:round;}
	.st3{fill:none;stroke:#EEEEEE;stroke-width:3;stroke-linecap:round;stroke-linejoin:round;stroke-dasharray:6.5303,8.7071;}
	.st4{fill:none;stroke:#EEEEEE;stroke-width:3;stroke-linecap:round;stroke-linejoin:round;stroke-dasharray:5.6936,7.5915;}
	.st5{fill:#68217A;}
	.st6{fill:#DE4444;}
	.st7{fill:#004482;}
	.st8{fill:#2E79D4;}
	.st9{fill:#C1BC30;}
	.st10{fill:#FFFFFF;}
	.st11{fill:#575756;}
	.st12{fill:#4198D3;}
</style>
<g id="Aspose.Email">
	<polygon class="st0" points="146.24,268.67 33.29,260.67 33.29,114.1 146.24,114.1  "/>
	<polygon class="st0" points="152.24,268.67 220.83,260.67 220.83,114.1 152.24,114.1  "/>
	<g id="lines_7_">
		<polyline class="st1" points="181.71,61.21 181.71,95.92 116.49,95.92 116.49,109.69   "/>
		<polyline class="st1" points="245.97,66.03 211.26,66.03 211.26,109.69   "/>
		<polyline class="st1" points="293.36,136.56 242.66,136.56 242.66,179.67 218.69,179.67   "/>
		<polyline class="st1" points="296.62,251.3 241.56,251.3 241.56,209.98 218.69,209.98   "/>
		<g>
			<g>
				<line class="st2" x1="83.43" y1="53.49" x2="80.43" y2="53.49"/>
				<line class="st3" x1="71.72" y1="53.49" x2="45.6" y2="53.49"/>
				<polyline class="st2" points="41.24,53.49 38.24,53.49 38.24,56.49     "/>
				<line class="st4" x1="38.24" y1="64.08" x2="38.24" y2="100.14"/>
				<line class="st2" x1="38.24" y1="103.94" x2="38.24" y2="106.94"/>
			</g>
		</g>
	</g>
	<g id="circles_7_">
		<circle class="st5" cx="98.41" cy="54.39" r="33.61"/>
		<circle class="st6" cx="181.71" cy="34.63" r="33.61"/>
		
			<ellipse transform="matrix(0.1602 -0.9871 0.9871 0.1602 162.8503 323.4659)" class="st7" cx="271.52" cy="66.03" rx="33.61" ry="33.61"/>
		<circle class="st8" cx="300.48" cy="136.56" r="33.61"/>
		<circle class="st9" cx="296.62" cy="248.44" r="33.61"/>
		<g id="java_7_">
			<path id="XMLID_66_" class="st10" d="M181.57,18.98c-1.81,1.27-3.86,2.72-4.96,5.11c-1.91,4.17,3.91,8.71,4.16,8.91     c0.06,0.04,0.13,0.07,0.2,0.07c0.07,0,0.15-0.03,0.21-0.07c0.12-0.1,0.15-0.26,0.08-0.39c-0.02-0.04-2.11-4.1-2.03-7.01     c0.03-1.01,1.45-2.16,2.95-3.38c1.38-1.12,2.94-2.38,3.85-3.86c2-3.26-0.22-6.46-0.25-6.49c-0.09-0.12-0.25-0.17-0.39-0.11     s-0.22,0.21-0.18,0.36c0,0.02,0.44,2.14-0.77,4.32C183.92,17.33,182.83,18.09,181.57,18.98z"/>
			<path id="XMLID_65_" class="st10" d="M189.2,20.42c0.13-0.1,0.17-0.27,0.09-0.41s-0.25-0.2-0.4-0.15     c-0.31,0.12-7.54,2.9-7.54,6.27c0,2.32,0.99,3.55,1.71,4.44c0.28,0.35,0.53,0.65,0.61,0.91c0.23,0.75-0.31,2.09-0.54,2.55     c-0.07,0.13-0.03,0.29,0.08,0.39c0.06,0.05,0.13,0.08,0.21,0.08c0.06,0,0.13-0.02,0.18-0.06c0.12-0.09,3.04-2.15,2.51-4.63     c-0.19-0.94-0.66-1.63-1.07-2.24c-0.63-0.94-1.09-1.62-0.4-2.88C185.48,23.23,189.17,20.45,189.2,20.42z"/>
			<path id="XMLID_64_" class="st10" d="M170.39,34.55c-0.12,0.37-0.07,0.74,0.17,1.06c0.78,1.09,3.56,1.69,7.81,1.69l0,0     c0.58,0,1.19-0.01,1.81-0.03c6.8-0.24,9.33-2.36,9.43-2.45c0.11-0.1,0.14-0.26,0.07-0.39c-0.07-0.13-0.22-0.2-0.37-0.16     c-2.4,0.65-6.87,0.89-9.98,0.89c-3.47,0-5.24-0.25-5.67-0.43c0.22-0.31,1.59-0.85,3.29-1.18c0.16-0.03,0.27-0.18,0.26-0.35     c-0.02-0.16-0.15-0.29-0.32-0.29C175.9,32.89,170.91,32.97,170.39,34.55z"/>
			<path id="XMLID_63_" class="st10" d="M193.16,32.37c-1.4,0-2.73,0.7-2.79,0.73c-0.13,0.07-0.2,0.22-0.16,0.36     s0.16,0.24,0.31,0.24c0.03,0,2.99,0.02,3.26,1.72c0.24,1.46-2.8,3.83-4,4.62c-0.13,0.09-0.18,0.25-0.12,0.39     c0.05,0.12,0.17,0.2,0.3,0.2c0.02,0,0.04,0,0.07-0.01c0.28-0.06,6.92-1.52,6.22-5.39C195.82,32.87,194.33,32.37,193.16,32.37z"/>
			<path id="XMLID_62_" class="st10" d="M188.61,39.57c0.02-0.12-0.03-0.25-0.13-0.32l-1.59-1.11c-0.08-0.05-0.18-0.07-0.27-0.05     c-0.02,0-1.68,0.44-4.1,0.71c-0.96,0.11-2.03,0.16-3.11,0.16c-2.42,0-4-0.28-4.23-0.49c-0.03-0.06-0.02-0.09-0.02-0.1     c0.04-0.12,0.27-0.25,0.41-0.31c0.16-0.06,0.25-0.23,0.2-0.39s-0.22-0.26-0.38-0.22c-1.6,0.39-2.38,0.92-2.32,1.6     c0.1,1.2,2.88,1.82,5.23,1.98c0.34,0.02,0.7,0.03,1.09,0.03l0,0c3.91,0,8.92-1.23,8.97-1.24     C188.49,39.79,188.58,39.69,188.61,39.57z"/>
			<path id="XMLID_61_" class="st10" d="M176.6,42.15c0.12-0.08,0.17-0.23,0.13-0.36c-0.04-0.14-0.17-0.23-0.32-0.23     c-0.21,0.01-2.09,0.09-2.23,1.29c-0.04,0.36,0.06,0.68,0.3,0.97c0.68,0.8,2.5,1.28,5.57,1.45c0.36,0.02,0.73,0.03,1.1,0.03     c3.91,0,6.54-1.22,6.65-1.27s0.18-0.16,0.18-0.27c0.01-0.12-0.05-0.23-0.15-0.29l-2.01-1.23c-0.07-0.04-0.15-0.06-0.23-0.04     c-0.01,0-1.29,0.27-3.22,0.53c-0.36,0.05-0.82,0.07-1.36,0.07c-1.93,0-4.07-0.31-4.48-0.52     C176.54,42.24,176.55,42.19,176.6,42.15z"/>
			<path id="XMLID_60_" class="st10" d="M179.35,48.99c8.95-0.01,13.75-1.6,14.67-2.6c0.33-0.35,0.36-0.69,0.33-0.91     c-0.07-0.54-0.56-0.87-0.62-0.9c-0.13-0.09-0.31-0.06-0.42,0.06c-0.1,0.12-0.11,0.3,0,0.42c0.06,0.07,0.09,0.19-0.08,0.36     c-0.37,0.35-4.1,1.39-10.31,1.71c-0.85,0.04-1.74,0.07-2.65,0.07c-5.56,0-9.63-0.76-10.16-1.21c0.21-0.3,1.65-0.77,3.18-1.04     c0.17-0.03,0.29-0.19,0.26-0.37s-0.19-0.29-0.36-0.27c-0.04,0.01-0.19,0.01-0.36,0.03c-2.53,0.15-5.44,0.5-5.6,1.8     c-0.05,0.4,0.07,0.76,0.35,1.07C168.27,47.97,170.23,48.99,179.35,48.99L179.35,48.99z"/>
			<path id="XMLID_59_" class="st10" d="M195.78,46.68c-0.13-0.06-0.28-0.03-0.37,0.07c-0.01,0.01-1.36,1.42-5.4,2.25     c-1.55,0.31-4.45,0.47-8.64,0.47s-8.18-0.16-8.22-0.17c-0.17-0.01-0.31,0.11-0.33,0.28c-0.02,0.16,0.08,0.32,0.24,0.36     c0.04,0.01,4.22,0.99,9.94,0.99c2.74,0,5.41-0.22,7.93-0.66c4.7-0.82,5.03-3.15,5.04-3.25C195.98,46.87,195.9,46.73,195.78,46.68     z"/>
		</g>
		<g id="CPP_7_">
			<g>
				<path class="st10" d="M261.45,81.03c-2.83-1.5-5.05-3.6-6.67-6.28c-1.62-2.68-2.43-5.73-2.43-9.12c0-3.4,0.81-6.44,2.43-9.12      c1.62-2.68,3.84-4.78,6.67-6.28s6.02-2.26,9.58-2.26c3.11,0,5.9,0.55,8.39,1.65c2.49,1.1,4.56,2.69,6.21,4.75l-6.11,5.53      c-2.2-2.65-4.87-3.98-8.01-3.98c-1.84,0-3.49,0.4-4.92,1.21c-1.44,0.81-2.56,1.95-3.35,3.42s-1.19,3.16-1.19,5.07      s0.4,3.6,1.19,5.07s1.91,2.61,3.35,3.42s3.08,1.21,4.92,1.21c3.14,0,5.81-1.33,8.01-3.98l6.11,5.53      c-1.65,2.07-3.72,3.66-6.21,4.75c-2.49,1.1-5.29,1.65-8.39,1.65C267.47,83.28,264.28,82.53,261.45,81.03z"/>
			</g>
			<g>
				<path class="st10" d="M287.47,66.68h-2.36v2.31h-2.15v-2.31h-2.38v-2.04h2.38v-2.31h2.15v2.31h2.36V66.68z"/>
				<path class="st10" d="M296.1,66.68h-2.36v2.31h-2.15v-2.31h-2.38v-2.04h2.38v-2.31h2.15v2.31h2.36V66.68z"/>
			</g>
		</g>
		<path id="NET_7_" class="st10" d="M107.68,51.36h4.7v14.57h1.91V51.36h4.7v-1.73h-11.31V51.36z M99.15,58.51h5.89v-1.73h-5.89    v-5.42h6.36v-1.73h-8.27v16.3h8.64V64.2h-6.72L99.15,58.51L99.15,58.51z M91.73,61.12l0.11,2.4h-0.05    c-0.11-0.22-0.34-0.58-0.66-1.09l-8.16-12.79h-2.48v16.3h1.91V54.16l-0.09-2.24h0.07c0.14,0.37,0.31,0.71,0.51,1.02l8.41,12.99    h2.32v-16.3h-1.9L91.73,61.12L91.73,61.12z M76.44,63.63c-0.35,0-0.64,0.12-0.89,0.38c-0.24,0.25-0.36,0.55-0.36,0.91    c0,0.34,0.13,0.66,0.36,0.9c0.24,0.25,0.54,0.38,0.89,0.38c0.36,0,0.66-0.13,0.91-0.38s0.38-0.56,0.38-0.91S77.6,64.26,77.35,64    c-0.24-0.25-0.57-0.39-0.91-0.38 M114.31,46.37c0,0.87,0.39,1.31,1.16,1.31c0.28,0,0.5-0.05,0.67-0.14v-0.61    c-0.13,0.1-0.3,0.15-0.46,0.14c-0.24,0-0.4-0.06-0.51-0.19c-0.1-0.12-0.15-0.34-0.15-0.63v-2.5h1.12v-0.6h-1.11v-1.31l-0.71,0.23    v1.08h-0.76v0.6h0.76v2.63L114.31,46.37z M111.41,47.58h0.71v-3.83h1.04v-0.6h-1.04v-0.68c0-0.63,0.25-0.94,0.74-0.94    c0.16,0,0.33,0.04,0.47,0.12v-0.64c-0.13-0.06-0.3-0.08-0.52-0.08c-0.38,0-0.7,0.11-0.96,0.36c-0.3,0.28-0.45,0.66-0.45,1.15v0.72    h-0.75v0.6h0.75v3.84L111.41,47.58z M106.56,45.38c0-0.57,0.14-1,0.42-1.31c0.27-0.29,0.62-0.43,1.06-0.43    c0.45,0,0.8,0.14,1.05,0.43c0.26,0.3,0.39,0.73,0.39,1.3c0,0.54-0.11,0.97-0.36,1.26c-0.24,0.3-0.6,0.45-1.07,0.45    c-0.45,0-0.81-0.15-1.08-0.45C106.69,46.33,106.56,45.91,106.56,45.38 M109.6,47.04c0.4-0.43,0.6-0.99,0.6-1.7    c0-0.72-0.19-1.28-0.56-1.7c-0.37-0.41-0.89-0.61-1.55-0.61c-0.67,0-1.21,0.2-1.61,0.59c-0.43,0.42-0.65,1.02-0.65,1.79    c0,0.68,0.19,1.22,0.57,1.63c0.39,0.43,0.92,0.64,1.59,0.64C108.67,47.68,109.21,47.47,109.6,47.04 M104.72,47.29    c0.27-0.22,0.42-0.56,0.41-0.9c0-0.33-0.11-0.6-0.33-0.81c-0.17-0.17-0.44-0.33-0.82-0.49c-0.34-0.14-0.56-0.27-0.67-0.37    c-0.12-0.11-0.18-0.26-0.18-0.46c0-0.18,0.07-0.33,0.21-0.45s0.33-0.17,0.57-0.17c0.38,0,0.71,0.11,1.01,0.32v-0.72    c-0.28-0.14-0.6-0.21-0.95-0.21c-0.45,0-0.84,0.12-1.13,0.37s-0.44,0.55-0.44,0.92c0,0.33,0.09,0.6,0.28,0.8    c0.16,0.17,0.42,0.34,0.79,0.5c0.36,0.16,0.6,0.29,0.73,0.41s0.19,0.26,0.19,0.43c0,0.41-0.28,0.62-0.85,0.62    c-0.42,0-0.81-0.14-1.15-0.43v0.76c0.31,0.18,0.68,0.27,1.1,0.27C104.01,47.68,104.42,47.55,104.72,47.29 M98.38,44.07    c0.26-0.29,0.63-0.43,1.06-0.43c0.45,0,0.8,0.14,1.05,0.43c0.26,0.3,0.38,0.73,0.38,1.3c0,0.54-0.11,0.97-0.36,1.26    c-0.24,0.3-0.6,0.45-1.07,0.45c-0.45,0-0.81-0.15-1.08-0.45s-0.4-0.71-0.4-1.25C97.97,44.81,98.11,44.37,98.38,44.07 M99.4,47.68    c0.68,0,1.21-0.21,1.61-0.64s0.6-0.99,0.6-1.7c0-0.72-0.19-1.28-0.56-1.7c-0.37-0.41-0.89-0.61-1.55-0.61    c-0.67,0-1.21,0.2-1.61,0.59c-0.43,0.42-0.65,1.02-0.65,1.79c0,0.68,0.19,1.22,0.57,1.63C98.2,47.46,98.73,47.68,99.4,47.68     M95.82,43.3c-0.22,0.17-0.38,0.43-0.48,0.75h-0.02v-0.92h-0.71v4.44h0.71v-2.25c0-0.52,0.11-0.92,0.33-1.21    c0.2-0.26,0.44-0.39,0.73-0.39c0.24,0,0.42,0.05,0.54,0.14v-0.74c-0.1-0.04-0.24-0.06-0.43-0.06    C96.25,43.07,96.02,43.15,95.82,43.3 M92.32,47.68c0.47,0,0.88-0.1,1.22-0.31V46.7c-0.34,0.25-0.7,0.38-1.09,0.38    c-0.45,0-0.82-0.15-1.1-0.45c-0.27-0.3-0.41-0.71-0.41-1.23c0-0.54,0.15-0.97,0.45-1.29c0.28-0.31,0.65-0.47,1.1-0.47    c0.38,0,0.75,0.12,1.06,0.35v-0.73c-0.3-0.15-0.64-0.23-1.03-0.23c-0.7,0-1.27,0.22-1.68,0.67s-0.63,1.04-0.63,1.76    c0,0.65,0.19,1.18,0.57,1.59C91.17,47.48,91.69,47.69,92.32,47.68 M88.39,47.59h0.71v-4.44h-0.71V47.59L88.39,47.59z M88.75,42.02    c0.12,0,0.24-0.05,0.33-0.14c0.09-0.09,0.14-0.21,0.14-0.33c0-0.12-0.05-0.24-0.14-0.33s-0.21-0.13-0.33-0.13    c-0.13,0-0.24,0.04-0.33,0.13c-0.09,0.09-0.14,0.2-0.14,0.33c0,0.14,0.05,0.25,0.14,0.33C88.51,41.98,88.63,42.02,88.75,42.02     M81.21,43.42l-0.03-1.21h0.02c0.06,0.29,0.13,0.5,0.19,0.64l2.12,4.74h0.36L86,42.81c0.05-0.13,0.12-0.33,0.19-0.6h0.02    l-0.06,1.2v4.18h0.73v-6.22h-0.91l-1.95,4.31c-0.08,0.17-0.17,0.42-0.3,0.76h-0.03c-0.05-0.17-0.14-0.42-0.28-0.74l-1.91-4.34    h-0.96v6.22h0.7v-4.16H81.21z M118.57,44.14c-0.2,0.2-0.45,0.3-0.74,0.3s-0.54-0.1-0.74-0.3s-0.31-0.45-0.31-0.75    c0-0.29,0.1-0.54,0.3-0.74s0.45-0.3,0.75-0.3c0.28-0.01,0.54,0.1,0.74,0.3s0.31,0.47,0.3,0.75    C118.88,43.7,118.77,43.95,118.57,44.14 M117.84,42.23c-0.32-0.01-0.62,0.11-0.85,0.34c-0.22,0.22-0.35,0.52-0.34,0.84    c0,0.34,0.11,0.61,0.34,0.84s0.51,0.33,0.84,0.33c0.32,0.01,0.62-0.11,0.85-0.34c0.23-0.23,0.34-0.5,0.34-0.84    s-0.11-0.63-0.34-0.84C118.46,42.34,118.16,42.23,117.84,42.23 M117.81,43.32h-0.23v-0.51h0.19c0.13,0,0.22,0.02,0.28,0.07    c0.05,0.04,0.07,0.1,0.07,0.19C118.12,43.24,118.02,43.32,117.81,43.32 M117.97,43.46L117.97,43.46c0.12-0.03,0.22-0.08,0.28-0.15    c0.07-0.07,0.1-0.17,0.1-0.26c0-0.11-0.04-0.21-0.12-0.28c-0.1-0.09-0.24-0.13-0.43-0.13h-0.42v1.5h0.21v-0.63h0.14    c0.1,0,0.19,0.09,0.27,0.27l0.16,0.36h0.26l-0.2-0.4C118.14,43.57,118.05,43.48,117.97,43.46"/>
		<g id="Android_7_">
			<g>
				<path class="st10" d="M284.09,240.57c-0.66,0-1.22,0.23-1.68,0.69s-0.69,1.01-0.69,1.66v9.89c0,0.66,0.23,1.22,0.69,1.68      c0.46,0.46,1.02,0.69,1.68,0.69s1.21-0.23,1.67-0.69c0.45-0.46,0.68-1.02,0.68-1.68v-9.89c0-0.64-0.23-1.2-0.69-1.66      S284.74,240.57,284.09,240.57z"/>
				<path class="st10" d="M303.14,231.69l1.63-3.01c0.11-0.2,0.07-0.35-0.11-0.46c-0.2-0.09-0.35-0.05-0.46,0.14l-1.66,3.04      c-1.46-0.64-3-0.97-4.62-0.97c-1.63,0-3.17,0.32-4.62,0.97l-1.66-3.04c-0.11-0.18-0.26-0.23-0.46-0.14      c-0.18,0.11-0.22,0.26-0.11,0.46l1.63,3.01c-1.66,0.84-2.97,2.02-3.96,3.53c-0.98,1.51-1.47,3.16-1.47,4.96h21.27      c0-1.79-0.49-3.45-1.47-4.96C306.09,233.71,304.78,232.53,303.14,231.69z M293.7,236.07c-0.18,0.18-0.39,0.27-0.63,0.27      c-0.25,0-0.45-0.09-0.62-0.27c-0.17-0.18-0.25-0.39-0.25-0.63c0-0.25,0.08-0.46,0.25-0.63c0.17-0.18,0.38-0.26,0.62-0.26      c0.25,0,0.46,0.09,0.63,0.26c0.18,0.18,0.26,0.39,0.26,0.63S293.87,235.89,293.7,236.07z M303.39,236.07      c-0.17,0.18-0.38,0.27-0.62,0.27c-0.25,0-0.46-0.09-0.63-0.27c-0.18-0.18-0.26-0.39-0.26-0.63c0-0.25,0.09-0.46,0.26-0.63      c0.18-0.18,0.39-0.26,0.63-0.26c0.25,0,0.45,0.09,0.62,0.26c0.17,0.18,0.25,0.39,0.25,0.63S303.56,235.89,303.39,236.07z"/>
				<path class="st10" d="M287.36,256.32c0,0.71,0.25,1.3,0.74,1.79c0.49,0.49,1.09,0.74,1.79,0.74h1.7l0.02,5.22      c0,0.66,0.23,1.22,0.69,1.68s1.01,0.69,1.66,0.69c0.66,0,1.22-0.23,1.68-0.69s0.69-1.02,0.69-1.68v-5.22h3.17v5.22      c0,0.66,0.23,1.22,0.69,1.68s1.02,0.69,1.68,0.69s1.22-0.23,1.68-0.69s0.69-1.02,0.69-1.68v-5.22h1.72      c0.69,0,1.28-0.25,1.77-0.74s0.74-1.09,0.74-1.79V241h-21.11L287.36,256.32L287.36,256.32z"/>
				<path class="st10" d="M311.74,240.57c-0.64,0-1.2,0.23-1.66,0.68s-0.69,1.01-0.69,1.67v9.89c0,0.66,0.23,1.22,0.69,1.68      c0.46,0.46,1.01,0.69,1.66,0.69c0.66,0,1.22-0.23,1.68-0.69s0.69-1.02,0.69-1.68v-9.89c0-0.66-0.23-1.21-0.69-1.67      S312.4,240.57,311.74,240.57z"/>
			</g>
		</g>
		<g id="X_1_">
			<polygon class="st10" points="310.86,119.29 292.1,119.29 282.72,135.53 292.1,151.78 310.86,151.78 320.24,135.53    "/>
			<g>
				<path class="st8" d="M307.2,144.72l-5.48-6.62l-5.42,6.62h-4.27l7.5-8.88l-7.1-8.53h4.24l5.16,6.19l5.11-6.19h4.07l-7.07,8.41      l7.59,9H307.2z"/>
			</g>
		</g>
	</g>
	<g>
		<path class="st11" d="M205.09,156.58h-52.64c0.12,3.81-0.01,6.09,0.12,9.15l52.52,0v7.78c-4.28,3.48-11.09,8.9-25.66,20.31    c-3.21,2.53-9.57,8.59-14,8.52c-3.96,0.06-9.46-4.77-12.87-7.61c-0.06,3.87-0.09,7.75-0.11,11.62c3.73,2.7,8.2,5.16,12.98,5.14    c8.15,0.04,15.35-7.09,19.65-10.48c9.44-7.4,15.64-12.28,20.01-15.76v35.39h-52.62c0.01,3.05,0.03,6.1,0.04,9.15h52.59    c5.05,0,9.15-4.1,9.15-9.15v-54.92C214.24,160.68,210.14,156.58,205.09,156.58z"/>
	</g>
	<g>
		<path class="st12" d="M113.98,221.57H75.83v-64.25h38.14v13.93H93.19v10.11h19.25v13.93H93.19v12.13h20.79V221.57z"/>
	</g>
</g>
<g>
</g>
<g>
</g>
<g>
</g>
<g>
</g>
<g>
</g>
</svg>
