<?xml version="1.0" encoding="utf-8"?>
<!-- Generator: Adobe Illustrator 25.2.0, SVG Export Plug-In . SVG Version: 6.00 Build 0)  -->
<svg version="1.1" id="Layer_1" xmlns="http://www.w3.org/2000/svg" xmlns:xlink="http://www.w3.org/1999/xlink" x="0px" y="0px"
	 viewBox="0 0 1920 499" style="enable-background:new 0 0 1920 499;" xml:space="preserve">
<style type="text/css">
	.st0{fill:url(#Rectangle_80_1_);}
	.st1{opacity:0.6;}
	.st2{fill:url(#Path_6_1_);}
	.st3{opacity:0.6;fill:url(#Path_7_1_);enable-background:new    ;}
</style>
<linearGradient id="Rectangle_80_1_" gradientUnits="userSpaceOnUse" x1="710.1302" y1="500" x2="710.1302" y2="499" gradientTransform="matrix(1920 0 0 -499 -1362490 249500)">
	<stop  offset="0" style="stop-color:#4080FF"/>
	<stop  offset="1" style="stop-color:#224DDD"/>
</linearGradient>
<rect id="Rectangle_80" class="st0" width="1920" height="499"/>
<g id="Group_2" transform="translate(0 0)" class="st1">
	
		<linearGradient id="Path_6_1_" gradientUnits="userSpaceOnUse" x1="709.8823" y1="497.2827" x2="709.8516" y2="496.3542" gradientTransform="matrix(317.2208 0 0 -194.4861 -224496.4844 97389.1094)">
		<stop  offset="0" style="stop-color:#FFFFFF;stop-opacity:0.22"/>
		<stop  offset="1" style="stop-color:#FFFFFF;stop-opacity:9.000000e-02"/>
	</linearGradient>
	<path id="Path_6" class="st2" d="M703-50.8l157.9,66.9c6.8,2.9,7.8,9.5,2.2,14.7l-88.4,82c-5.6,5.2-15.8,7.1-22.6,4.2L594.2,50.2
		c-6.8-2.9-7.8-9.5-2.2-14.7l88.4-82C686.1-51.8,696.2-53.7,703-50.8z"/>
	
		<linearGradient id="Path_7_1_" gradientUnits="userSpaceOnUse" x1="709.8806" y1="497.1223" x2="709.8491" y2="496.1939" gradientTransform="matrix(317.2198 0 0 -194.4857 -224509.7656 97319.75)">
		<stop  offset="0" style="stop-color:#FFFFFF;stop-opacity:0.22"/>
		<stop  offset="1" style="stop-color:#FFFFFF;stop-opacity:9.000000e-02"/>
	</linearGradient>
	<path id="Path_7" class="st3" d="M690.8-111.5l157.9,66.9c6.8,2.9,7.8,9.5,2.2,14.7l-88.4,82c-5.6,5.2-15.8,7.1-22.6,4.2L582-10.5
		c-6.8-2.9-7.8-9.5-2.2-14.7l88.4-82C673.8-112.5,683.9-114.4,690.8-111.5z"/>
</g>
</svg>
