<?xml version="1.0" encoding="utf-8"?>
<!-- Generator: Adobe Illustrator 25.2.0, SVG Export Plug-In . SVG Version: 6.00 Build 0)  -->
<svg version="1.1" id="Aspose.PDF" xmlns="http://www.w3.org/2000/svg" xmlns:xlink="http://www.w3.org/1999/xlink" x="0px" y="0px"
	 viewBox="0 0 277 277" style="enable-background:new 0 0 277 277;" xml:space="preserve">
<style type="text/css">
	.st0{fill-rule:evenodd;clip-rule:evenodd;fill:#FFFFFF;}
	.st1{fill-rule:evenodd;clip-rule:evenodd;fill:#E14544;}
	.st2{fill:#E14544;}
	.st3{fill:#FFFFFF;}
	.st4{display:none;fill:#FFFFFF;}
</style>
<g id="Java">
	<path id="XMLID_32_" class="st0" d="M180.46,87.48c-25.78,0-47.67,9.07-65.69,27.2c-18.12,18.02-27.18,39.93-27.18,65.72
		s9.06,47.65,27.18,65.56c6.65,6.78,13.85,12.3,21.61,16.56H23.59c-1.8-0.11-3.55-0.62-5.23-1.52c-2.81-1.35-4.22-4-4.22-7.94V23.62
		c0.22-2.03,0.67-3.77,1.35-5.24c1.46-2.82,4.17-4.22,8.1-4.22h229.47l1.52,0.34c1.35,0.23,2.53,0.56,3.55,1.01
		c2.93,1.35,4.39,4.05,4.39,8.11v112.87c-4.26-7.79-9.77-15.06-16.55-21.79C227.74,96.55,205.9,87.48,180.46,87.48z"/>
	<path id="XMLID_29_" class="st1" d="M180.46,87.48c25.44,0,47.28,9.07,65.51,27.2c6.78,6.74,12.29,14,16.55,21.79V23.62
		c0-4.06-1.46-6.76-4.39-8.11c-1.01-0.45-2.2-0.79-3.55-1.01l-1.52-0.34H23.59c-3.94,0-6.64,1.41-8.1,4.22
		c-0.68,1.46-1.13,3.21-1.35,5.24v229.45c0,3.94,1.41,6.59,4.22,7.94c1.69,0.9,3.43,1.41,5.23,1.52h112.79
		c-7.76-4.26-14.96-9.78-21.61-16.56c-18.12-17.91-27.18-39.76-27.18-65.56s9.06-47.7,27.18-65.72
		C132.78,96.55,154.68,87.48,180.46,87.48z M259.14,3.68c2.48,0.45,4.39,1.07,5.74,1.86c5.63,2.7,8.44,7.6,8.44,14.7v160.18
		c0,25.68-9.12,47.54-27.36,65.56c-18.23,18.25-40.07,27.37-65.51,27.37H20.21c-2.7,0-5.52-0.67-8.44-2.03
		c-5.63-2.93-8.44-7.88-8.44-14.87V20.24c0-2.82,0.73-5.63,2.19-8.45c2.7-5.63,7.6-8.45,14.69-8.45h236.23L259.14,3.68z"/>
	<g>
		<path class="st2" d="M71.02,55.43c0,6.11-2,10.8-6.01,14.05c-4,3.26-9.7,4.88-17.1,4.88h-6.09v21.9h-9.57V37.73h16.86
			c7.31,0,12.79,1.5,16.44,4.48C69.2,45.21,71.02,49.61,71.02,55.43z M41.84,66.32h5.08c4.91,0,8.51-0.85,10.81-2.56
			c2.29-1.71,3.44-4.38,3.44-8.01c0-3.36-1.03-5.87-3.08-7.53c-2.06-1.65-5.26-2.48-9.61-2.48h-6.65V66.32z"/>
	</g>
	<g id="_x33__7_">
		<g>
			<g>
				<path class="st3" d="M238.22,187.08h-50.05c-1.69,0-3.07-1.38-3.07-3.07v-32.59c0-1.69,1.38-3.07,3.07-3.07h50.05
					c1.69,0,3.07,1.38,3.07,3.07v32.59C241.29,185.7,239.91,187.08,238.22,187.08z"/>
				<polygon class="st2" points="191.5,180.14 203.11,167.93 211.05,175.69 223.25,159.51 236.75,179.89 				"/>
				<circle class="st2" cx="194.64" cy="160.47" r="3.14"/>
			</g>
			<g id="Lines_8_">
				<path class="st3" d="M170.61,186.27h-25.96c-3.37,0-6.13-2.76-6.13-6.13v0c0-3.37,2.76-6.13,6.13-6.13h25.96
					c3.37,0,6.13,2.76,6.13,6.13v0C176.74,183.51,173.98,186.27,170.61,186.27z"/>
				<ellipse class="st3" cx="126.04" cy="180.14" rx="6.12" ry="6.12"/>
				<g>
					<path class="st3" d="M170.61,160.61h-44.57c-3.37,0-6.13-2.76-6.13-6.13v0c0-3.37,2.76-6.13,6.13-6.13h44.57
						c3.37,0,6.13,2.76,6.13,6.13v0C176.74,157.85,173.98,160.61,170.61,160.61z"/>
					<ellipse class="st4" cx="128.13" cy="213.49" rx="6.12" ry="6.12"/>
				</g>
				<g>
					<path class="st3" d="M192.91,211.66h-66.86c-3.37,0-6.13-2.76-6.13-6.13v0c0-3.37,2.76-6.13,6.13-6.13h66.86
						c3.37,0,6.13,2.76,6.13,6.13v0C199.04,208.9,196.28,211.66,192.91,211.66z"/>
					<ellipse class="st4" cx="128.13" cy="192.46" rx="6.12" ry="6.12"/>
				</g>
			</g>
		</g>
		<path class="st4" d="M156.89,177.3h-28.48c-3.37,0-6.13-2.76-6.13-6.13v0c0-3.37,2.76-6.13,6.13-6.13h28.48
			c3.37,0,6.13,2.76,6.13,6.13v0C163.02,174.54,160.26,177.3,156.89,177.3z"/>
		<path class="st4" d="M156.89,150.83h-28.48c-3.37,0-6.13-2.76-6.13-6.13v0c0-3.37,2.76-6.13,6.13-6.13h28.48
			c3.37,0,6.13,2.76,6.13,6.13v0C163.02,148.07,160.26,150.83,156.89,150.83z"/>
		<path class="st3" d="M192.91,211.66h-1.78c-3.37,0-6.13-2.76-6.13-6.13v0c0-3.37,2.76-6.13,6.13-6.13h1.78
			c3.37,0,6.13,2.76,6.13,6.13v0C199.04,208.9,196.28,211.66,192.91,211.66z"/>
		<path class="st3" d="M235.17,211.66h-20.98c-3.37,0-6.13-2.76-6.13-6.13v0c0-3.37,2.76-6.13,6.13-6.13h20.98
			c3.37,0,6.13,2.76,6.13,6.13v0C241.29,208.9,238.54,211.66,235.17,211.66z"/>
	</g>
</g>
<g>
</g>
<g>
</g>
<g>
</g>
<g>
</g>
<g>
</g>
<g>
</g>
</svg>
