<?xml version="1.0" encoding="utf-8"?>
<!-- Generator: Adobe Illustrator 25.2.0, SVG Export Plug-In . SVG Version: 6.00 Build 0)  -->
<svg version="1.1" id="Aspose.Totaly_for_Python_via_Java"
	 xmlns="http://www.w3.org/2000/svg" xmlns:xlink="http://www.w3.org/1999/xlink" x="0px" y="0px" viewBox="0 0 272 272"
	 style="enable-background:new 0 0 272 272;" xml:space="preserve">
<style type="text/css">
	.st0{fill-rule:evenodd;clip-rule:evenodd;fill:#FFFFFF;}
	.st1{fill-rule:evenodd;clip-rule:evenodd;fill:#4F5D94;}
	.st2{fill:#4F5D94;}
	.st3{fill:#DD4443;}
	.st4{fill:#FFFFFF;}
</style>
<g id="Python_via_Java">
	<g id="Python">
		<path id="XMLID_45_" class="st0" d="M151.7,112.6c-21.9,0-40.6,7.8-56,23.2c-15.4,15.3-23.2,34-23.2,56s7.8,40.6,23.2,55.9
			c5.7,5.8,11.9,10.5,18.4,14.2H17.9c-1.6-0.1-2.9-0.5-4.4-1.3c-2.4-1.2-3.6-3.4-3.6-6.7V58.2c0.2-1.7,0.6-3.3,1.2-4.4
			c1.3-2.4,3.6-3.6,6.9-3.6h195.7l1.3,0.2c1.2,0.2,2.1,0.5,3,0.8c2.5,1.2,3.8,3.4,3.8,6.9v96.2c-3.7-6.6-8.4-12.9-14.2-18.6
			C191.9,120.3,173.2,112.6,151.7,112.6L151.7,112.6z"/>
		<path id="XMLID_42_" class="st1" d="M151.7,112.6c21.6,0,40.3,7.8,55.9,23.2c5.8,5.7,10.5,12,14.1,18.6V58.2
			c0-3.5-1.3-5.8-3.8-6.9c-0.8-0.3-1.9-0.6-3-0.8l-1.3-0.2H17.9c-3.4,0-5.7,1.2-6.9,3.6c-0.6,1.3-0.9,2.7-1.2,4.4v195.4
			c0,3.4,1.2,5.7,3.6,6.7c1.5,0.7,2.9,1.2,4.4,1.3H114c-6.6-3.7-12.8-8.4-18.4-14.2c-15.5-15.2-23.2-33.9-23.2-55.9
			s7.8-40.6,23.2-56C110.8,120.3,129.6,112.6,151.7,112.6L151.7,112.6z M218.7,41.2c2.1,0.4,3.8,0.9,4.8,1.6
			c4.7,2.3,7.1,6.5,7.1,12.5v136.5c0,21.9-7.8,40.5-23.3,55.9c-15.5,15.5-34.1,23.3-55.9,23.3H14.9c-2.3,0-4.7-0.6-7.1-1.7
			c-4.7-2.5-7.1-6.7-7.1-12.7V55.2c0-2.4,0.6-4.7,1.9-7.1C4.9,43.4,9.1,41,15.1,41h201.3C216.4,40.9,218.7,41.2,218.7,41.2
			L218.7,41.2z"/>
		<path class="st2" d="M49.2,120.1H41v-43H26.4v-7h37.5v7H49.1v43H49.2z"/>
		<path id="XMLID_37_" class="st0" d="M154.4,159.2l-30.8,15.4l30.8,15.4l30.8-15.4L154.4,159.2z M154.4,197.6l-46-23l46-23l46,23
			L154.4,197.6z M154.4,205.6l36.9-18.4l9.2,4.6l-46,23l-46-23l9.2-4.6L154.4,205.6L154.4,205.6z M117.5,204.5l36.9,18.4l36.9-18.4
			l9.2,4.6l-46,23l-46-23C108.5,209.1,117.5,204.5,117.5,204.5z"/>
	</g>
	<circle class="st3" cx="216.4" cy="56" r="55"/>
	<path class="st4" d="M205.8,73.6c0,0-3.1,1.8,2.2,2.4c6.4,0.7,9.7,0.6,16.8-0.7c0,0,1.8,1.1,4.5,2.2
		C213.4,84.3,193.2,77.1,205.8,73.6 M203.9,64.7c0,0-3.5,2.6,1.8,3.1c6.8,0.7,12.3,0.8,21.6-1c0,0,1.3,1.3,3.4,2
		C211.5,74.5,190.2,69.3,203.9,64.7 M220.2,49.8c3.9,4.5-1,8.5-1,8.5s9.9-5.1,5.4-11.5c-4.2-6-7.5-8.9,10.1-19.2
		C234.6,27.6,206.9,34.5,220.2,49.8"/>
	<path class="st4" d="M241.1,80.2c0,0,2.2,1.9-2.5,3.4c-9.2,2.8-38,3.6-46,0.1c-2.8-1.3,2.5-3,4.2-3.4c1.8-0.3,2.8-0.3,2.8-0.3
		c-3.2-2.2-20.7,4.4-8.9,6.4C222.9,91.5,249.5,83.9,241.1,80.2 M207.2,55.6c0,0-14.7,3.5-5.2,4.7c4,0.5,12,0.4,19.4-0.2
		c6-0.5,12.2-1.6,12.2-1.6s-2.2,0.9-3.7,2c-14.9,3.9-43.8,2.1-35.5-1.9C201.5,55.2,207.2,55.6,207.2,55.6 M233.7,70.4
		c15.2-7.9,8.1-15.5,3.3-14.4c-1.2,0.3-1.7,0.4-1.7,0.4s0.4-0.7,1.3-1c9.7-3.4,17.1,10-3.1,15.4C233.2,70.7,233.6,70.5,233.7,70.4
		 M224.5,11.1c0,0,8.4,8.4-7.9,21.3c-13.1,10.4-3,16.2,0,23.1c-7.7-6.9-13.3-13-9.5-18.6C212.5,28.5,227.9,24.4,224.5,11.1"/>
	<path class="st4" d="M208.8,91.7c14.6,0.9,37-0.5,37.5-7.4c0,0-1,2.6-12,4.7c-12.4,2.3-27.7,2.1-36.9,0.6
		C197.2,89.5,199.2,91.1,208.8,91.7"/>
</g>
</svg>
