<?xml version="1.0" encoding="utf-8"?>
<!-- Generator: Adobe Illustrator 25.2.0, SVG Export Plug-In . SVG Version: 6.00 Build 0)  -->
<svg version="1.1" id="NET" xmlns="http://www.w3.org/2000/svg" xmlns:xlink="http://www.w3.org/1999/xlink" x="0px" y="0px"
	 viewBox="0 0 512 512" style="enable-background:new 0 0 512 512;" xml:space="preserve">
<style type="text/css">
	.st0{fill:#EF4047;}
</style>
<g id="Merge">
	<g>
		<path class="st0" d="M289.8,437.3H84.4c-11.7,0-21.3-9.7-21.3-21.3V97.2c0-11.7,9.7-21.3,21.3-21.3h205.8c3.1,0,6.1,1,9.2,2h59
			C350.2,48,322.8,26,290.4,26H84.6c-39.1,0-71.1,31.5-71.1,70.6v318.6c0,39.1,31.5,70.6,71.1,70.6h205.8
			c33.5,0,61.1-22.8,68.6-53.9h-56C299.3,435.7,294.9,437.3,289.8,437.3z M427.4,105.9H290.6c-39.1,0-71.1,31.5-71.1,70.6v0.5h49.8
			v-0.5c0-11.7,9.7-21.3,21.3-21.3h136.8c11.7,0,21.3,9.7,21.3,21.3v161.3c0,11.7-9.7,21.3-21.3,21.3H290.6
			c-11.7,0-21.3-9.7-21.3-21.3v-51.9h-49.8v3.6h-96.6c-13.8,0-24.8,11.2-24.8,24.8c0,13.8,11.2,24.8,24.8,24.8H220
			c0.5,38.6,32,69.6,70.6,69.6h136.8c39.1,0,71.1-31.5,71.1-70.6V177C498.7,137.3,467.2,105.9,427.4,105.9z M123.1,253.4h265.4
			c13.8,0,24.8-11.2,24.8-24.8s-11.2-24.8-24.8-24.8H123.1c-13.8,0-24.8,11.2-24.8,24.8C98.6,242.6,109.3,253.4,123.1,253.4z"/>
	</g>
</g>
</svg>
