<svg xmlns="http://www.w3.org/2000/svg" xml:space="preserve" id="Layer_1" x="0" y="0" style="enable-background:new 0 0 170 70" version="1.1" viewBox="0 0 170 70">
  <style>
    .st0{fill:#016fd0}.st1{fill:#fff}
  </style>
  <g id="Layer_1_1_">
    <g id="American_E" transform="translate(-55.5 -1002.35)">
      <path id="path3078" d="M114.5 1011.4h52v28.1l-2.6 4 2.6 3.6v16.3h-52V1037l1.6-1.8-1.6-1.8v-22z" class="st0"/>
      <path id="path3082" d="M124.5 1047.6v-8.2h8.6l.9 1.2 1-1.2h31.4v7.6s-.8.6-1.8.6h-17.4l-1-1.3v1.3h-3.4v-2.2s-.5.3-1.5.3h-1.2v1.9H135l-.9-1.2-.9 1.2h-8.7z" class="st1"/>
      <path id="path3080" d="m114.5 1033.3 1.9-4.5h3.4l1.1 2.5v-2.5h4.2l.7 1.8.6-1.8h18.8v.9s1-.9 2.6-.9h6.1l1.1 2.5v-2.5h3.5l1 1.4v-1.4h3.5v8.2h-3.5l-.9-1.4v1.4h-5.1l-.5-1.3h-1.4l-.5 1.3h-3.5c-1.4 0-2.3-.9-2.3-.9v.9H140l-1-1.3v1.3h-19.6l-.5-1.3h-1.4l-.5 1.3h-2.4v-3.7h-.1z" class="st1"/>
      <path id="path3046" d="m117.1 1029.7-2.6 6.1h1.7l.5-1.2h2.8l.5 1.2h1.7l-2.6-6.1h-2zm1 1.5.9 2.1h-1.7l.8-2.1z" class="st0"/>
      <path id="path3048" d="M121.9 1035.8v-6.1h2.4l1.4 3.9 1.4-3.9h2.4v6.1H128v-4.5l-1.6 4.5H125l-1.6-4.5v4.5h-1.5z" class="st0"/>
      <path id="path3050" d="M130.6 1035.8v-6.1h5v1.4h-3.4v1h3.4v1.3h-3.4v1.1h3.4v1.3h-5z" class="st0"/>
      <path id="path3052" d="M136.4 1029.7v6.1h1.5v-2.2h.6l1.8 2.2h1.9l-2-2.3c.8-.1 1.7-.8 1.7-1.9 0-1.3-1-2-2.1-2h-3.4v.1zm1.6 1.4h1.7c.4 0 .7.3.7.6 0 .4-.4.6-.7.6H138v-1.2z" class="st0"/>
      <path id="path3054" d="M144.2 1035.8h-1.6v-6.1h1.6v6.1z" class="st0"/>
      <path id="path3056" d="M147.9 1035.8h-.3c-1.6 0-2.6-1.3-2.6-3 0-1.8 1-3.1 3-3.1h1.7v1.4H148c-.8 0-1.4.7-1.4 1.6 0 1.2.7 1.7 1.6 1.7h.4l-.7 1.4z" class="st0"/>
      <path id="path3058" d="m151.2 1029.7-2.6 6.1h1.7l.5-1.2h2.8l.5 1.2h1.7l-2.6-6.1h-2zm.9 1.5.9 2.1h-1.7l.8-2.1z" class="st0"/>
      <path id="path3060" d="M156 1035.8v-6.1h1.9l2.5 3.8v-3.8h1.5v6.1H160l-2.5-3.9v3.9H156z" class="st0"/>
      <path id="path3062" d="M125.6 1046.5v-6.1h5v1.4h-3.4v1h3.4v1.3h-3.4v1.1h3.4v1.3h-5z" class="st0"/>
      <path id="path3064" d="M150 1046.5v-6.1h5v1.4h-3.4v1h3.3v1.3h-3.3v1.1h3.4v1.3h-5z" class="st0"/>
      <path id="path3066" d="m130.8 1046.5 2.4-3-2.5-3.1h1.9l1.5 1.9 1.5-1.9h1.8l-2.5 3.1 2.4 3.1h-1.9l-1.4-1.9-1.4 1.9-1.8-.1z" class="st0"/>
      <path id="path3068" d="M137.6 1040.4v6.1h1.6v-1.9h1.6c1.4 0 2.4-.7 2.4-2.1 0-1.2-.8-2.1-2.2-2.1h-3.4zm1.6 1.4h1.7c.4 0 .8.3.8.7 0 .4-.3.7-.8.7h-1.7v-1.4z" class="st0"/>
      <path id="path3072" d="M143.8 1040.4v6.1h1.5v-2.2h.6l1.8 2.2h1.9l-2-2.3c.8-.1 1.7-.8 1.7-1.9 0-1.3-1-2-2.1-2h-3.4v.1zm1.6 1.4h1.7c.4 0 .7.3.7.6 0 .4-.4.6-.7.6h-1.8v-1.2h.1z" class="st0"/>
      <path id="path3074" d="M155.7 1046.5v-1.3h3.1c.5 0 .6-.2.6-.5s-.2-.5-.6-.5h-1.4c-1.2 0-1.9-.7-1.9-1.8 0-1 .6-1.9 2.4-1.9h3l-.6 1.4h-2.6c-.5 0-.6.3-.6.5 0 .3.2.5.6.5h1.4c1.3 0 1.9.8 1.9 1.8 0 1.1-.6 1.9-2 1.9l-3.3-.1z" class="st0"/>
      <path id="path3076" d="M161.3 1046.5v-1.3h3.1c.5 0 .6-.2.6-.5s-.2-.5-.6-.5H163c-1.2 0-1.9-.7-1.9-1.8 0-1 .6-1.9 2.4-1.9h3l-.6 1.4h-2.6c-.5 0-.6.3-.6.5 0 .3.2.5.6.5h1.4c1.3 0 1.9.8 1.9 1.8 0 1.1-.6 1.9-2 1.9l-3.3-.1z" class="st0"/>
    </g>
  </g>
</svg>
