<svg xmlns="http://www.w3.org/2000/svg" xml:space="preserve" style="enable-background:new 0 0 170 70" viewBox="0 0 170 70">
  <path d="M115.3 14.9s-2.8 1.1-6.1 4.8-5.2 7.7-3.8 8.8c.5.4 1.8.5 4.1-1.6 2.1-1.8 3.8-4.1 4.8-6.7 1.5-3.6 1-5.2 1-5.3m18.1 6.6c-3.7-1.9-6.3-4.2-9.1-5.6-2.7-1.4-4.4-1.9-6.5-1.6-.3.1-.6.1-.9.2 0 0 1.1 3.8-3.3 10.1-4.5 6.4-8.5 6.4-9.7 4.6-1.2-1.9.4-5.7 3-9.1 2.7-3.5 7.5-6.5 7.5-6.5s-1.5-.9-5.3 1.2c-3.7 2.1-9.9 7-15.8 15.3-5.8 8.3-7 12.9-7.8 16.5s-.1 7.4 3.9 7.4 8.6-6.1 9.9-8.2c2.4-3.9 4-10 .7-9.1-1.6.4-3 2.2-3.8 4-.5 1.1-.9 2.3-1.2 3.5-1.2.5-2.2 1.1-3.2 1.9-1.1.8-2.1 1.7-3.1 2.7 0 0 0-2.9 2.3-7.5s6.5-6.8 8.9-7c2.1-.2 4.9 1.6 2.6 8.4s-9.3 14.9-16.7 15C79 57.7 74.6 49 84 33.9c10.4-16.7 22.7-21.8 26.6-22.3 4-.6 5.3 1.2 5.3 1.2 2.4-1 5-1.4 7.6-1.2 4.8.3 8.6 3.8 13.5 6.2-1.3 1.2-2.5 2.4-3.6 3.7m21.8-5.7c-3.4 2.2-8 4.1-12.5 3.7-1.1 1.2-2.3 2.5-3.6 4 7.7 1.5 14.5-3.3 18.1-7.4 1.3-1.5 2.4-3.1 3.4-4.8a23.1 23.1 0 0 1-5.4 4.5m-10.3 21.9c.1-.1.1-.2.1-.3 0-.4-.3-.6-.7-.7-.7 0-1.7.1-4.4 3-2.2 2.4-4.1 5.1-5.6 8-1.5 2.8-2.1 4.8-1.3 5.3.3.1.6.2.9.1.6-.1 1.3-.7 2.3-1.9.5-.6 1-1.3 1.6-2.2 1.8-2.3 6.2-9.8 7.1-11.3m-27.5 3.2c.4-1.2 1-3.4-.2-4.3-1.3-.9-4.4 1.3-4.5 3.5 0 2.3 2.2 3.4 2.8 3.5.3.1.4.1.6-.2.6-.8 1-1.7 1.3-2.5m-2.4 4.2c-.8-.4-1.5-.8-2.2-1.4-.7-.6-1.2-1.2-1.6-2 0-.1-.1 0-.1 0 0 .1-.2.2-1.9 2.7s-4.3 7.7-2 8.5c1.5.6 4-2.1 5.4-3.9.9-1.2 1.8-2.5 2.5-3.9h-.1m26.9 5.9c-.6 1-1.4 3 .7 1.8 2.6-1.5 6.3-7.1 6.3-7.1h1.7c-1.5 2.3-3.2 4.6-5.1 6.6-2.6 2.9-5.8 5.5-8.1 5.3-2.6-.3-1.8-3.8-1.8-3.8s-3.8 4-6.4 3.7c-3.5-.4-2.4-4.7-2.4-4.7s-4 4.9-6.7 4.7c-4.2-.2-3.2-5.4-2-9.1.6-1.9 1.2-3.5 1.2-3.5s-.4.1-1.3.2c-.5.1-1.3.1-1.3.1s-1.8 3.1-3.2 5c-1.4 1.9-7.4 8.3-11 7-3.3-1.2-2.2-6.2-.3-10.2 2.8-5.8 10.6-14.1 15.1-13 4.7 1.1.1 9.7.1 9.7v.1c.1 0 .3.1.9 0s1.2-.3 1.7-.5c0 0 4.7-9.8 9.9-16.3s15.5-17.5 19.6-14.8c1 .7.5 2.9-.8 5.7-.6.2-1.2.4-1.8.5.9-1.6 1.5-3 1.7-4 .6-3.3-7.2 3.7-12.7 11.2-3.3 4.5-6.3 9.4-8.9 14.4 1-.6 2-1.3 2.9-2 2.5-2.1 4.8-4.2 7-6.6 2.1-2.2 4.1-4.5 6-6.9.6 0 1.2-.1 1.8-.2-2 2.8-4.2 5.4-6.6 7.8-2.2 2.2-4.6 4.6-6.7 6.4-1.9 1.6-3.8 3-5.9 4.4 0 0-4.9 9.8-2.2 10.4 1.6.4 4.6-4.3 4.6-4.3s4-6.1 6.4-8.9c3.3-3.7 6.1-5.9 9-5.9 1.6 0 2.6 1.7 2.6 1.7l.8-1.2h4.8c0 .1-8.9 15.2-9.6 16.3m13.3-35.2c-3.4 2.2-8 4.1-12.5 3.7-1.1 1.2-2.3 2.5-3.6 4 7.7 1.5 14.5-3.3 18.1-7.4 1.3-1.5 2.4-3.1 3.4-4.8a23.1 23.1 0 0 1-5.4 4.5m-67 7.5h-4.5l-2.6 4.1h4.5l2.6-4.1zM66.7 37.6C68.6 35 74 25.7 74 25.7c0-.4-.3-.6-.7-.7-.7 0-2 .2-4.4 3.3s-4.3 5.5-5.7 8c-1.5 2.8-2.2 4.7-1.3 5.2.3.1.6.2.9.1.6-.1 1.3-.7 2.3-1.9.4-.5.9-1.2 1.6-2.1M42.3 25.1c-1.3-.9-4.4 1.3-4.5 3.5 0 2.3 2.9 3 3.2 3.1.1 0 .2 0 .3-.1.1 0 .1-.1.2-.2l.9-2.1c.5-1.1 1.1-3.3-.1-4.2m-1.9 8c-.9-.3-1.7-.7-2.5-1.1-.7-.5-1.3-1.2-1.8-1.9 0-.1-.1 0-.1 0s-.3.4-2 2.9-4.2 7.6-1.9 8.5c1.5.6 4.1-2.1 5.4-3.9 1-1.4 2-2.8 2.9-4.3.2-.2.1-.2 0-.2m37.1 1.5h1.7s-8.3 12.1-13 11.5c-2.6-.3-1.8-3.6-1.8-3.6s-3.7 4.3-7.1 3.4c-3.1-.8-1.1-5.9-1.1-5.9-.3.1-7 7.6-11.7 5.8-4.9-1.9-2.4-8.2-1.4-10.1.8-1.6 1.7-3.1 1.7-3.1l-1.2.3c-.4.1-1.2.2-1.2.2s-2.3 3.8-3.7 5.6-7.4 8.3-11 7-2.7-6.2-.7-10.2c3.2-6.4 10.9-14.2 15.5-13 4.7 1.2.8 8.7.8 8.7s.9.1 3.1-1.4c3.2-2.2 7.4-8.1 12-7.4 2.2.3 4.2 2.5 1.4 6.7-.9 1.3-2.3 2.5-3.5 1.4-.7-.7-.1-2.1.6-3 .6-.8 1.5-1.2 2.5-1.1 0 0 .8-1.7-1.2-1.7-1.6 0-5.5 3.7-7.7 7.3-2 3.4-5.1 9.1-2 10.3 2.8 1.1 8.2-5.3 10.8-8.6 2.5-3.4 8.2-11 13-11.3 1.6-.1 2.6 1.4 2.6 1.4l.6-.9h4.8s-9 15-9.7 16.2c-.6.9-1.3 2.9.7 1.8s6.2-6.3 6.2-6.3m-2.6 24.1c-3.5-2.4-7.7-3.7-12-3.5a7.4 7.4 0 0 0-5.9 3.2c-1.8-3.2-5.4-5.1-11-5.1-9 .1-18 4.3-25 4.3-6.8 0-11.7-4.3-11.6-11.8.2-13.4 11.5-25.4 19.9-30.8 4.8-3.1 8.9-4 11.5-3.7 1.9.2 4.2 2.4 2.8 5.7-2.2 4.8-5.1 4.4-5 2.1.1-1.5 1.1-2.4 1.8-3 .5-.3 1.3-.4 1.8-.4.4-.4.7-3-2.7-2.1s-7.6 4.3-11.6 8.6S17.7 35 16.1 43.7c-.7 4-.2 11.4 9.3 11.3 8.1-.1 20.1-5.4 31.1-5.3 4.3 0 8 1.2 10.9 3 2.9 1.7 6.3 4.3 7.5 6" style="fill:#e61d2b"/>
</svg>
