<?xml version="1.0" encoding="utf-8"?>
<!-- Generator: Adobe Illustrator 25.0.1, SVG Export Plug-In . SVG Version: 6.00 Build 0)  -->
<svg xmlns="http://www.w3.org/2000/svg" xmlns:xlink="http://www.w3.org/1999/xlink" version="1.1" id="Layer_1" x="0px" y="0px" viewBox="0 0 335 283" style="enable-background:new 0 0 335 283;" xml:space="preserve">
<style type="text/css">
	.st0{fill:#EEEEEE;}
	.st1{fill:none;stroke:#EEEEEE;stroke-width:3;stroke-linecap:round;stroke-linejoin:round;}
	.st2{fill:none;stroke:#EEEEEE;stroke-width:3;stroke-linecap:round;stroke-linejoin:round;stroke-dasharray:6.5303,8.7071;}
	.st3{fill:none;stroke:#EEEEEE;stroke-width:3;stroke-linecap:round;stroke-linejoin:round;stroke-dasharray:5.6936,7.5915;}
	.st4{fill:#68217A;}
	.st5{fill:#FFFFFF;}
	.st6{fill:#3F99D4;}
	.st7{fill:#575756;}
</style>
<g id="Aspose.SVG">
	<polygon class="st0" points="141.96,267.63 29.01,259.63 29.01,113.06 141.96,113.06  "/>
	<polygon class="st0" points="147.96,267.63 216.55,259.63 216.55,113.06 147.96,113.06  "/>
	<g id="lines_21_">
		<g>
			<g>
				<line class="st1" x1="167.15" y1="52.45" x2="164.15" y2="52.45"/>
				<line class="st2" x1="155.44" y1="52.45" x2="129.32" y2="52.45"/>
				<polyline class="st1" points="124.96,52.45 121.96,52.45 121.96,55.45     "/>
				<line class="st3" x1="121.96" y1="63.04" x2="121.96" y2="99.1"/>
				<line class="st1" x1="121.96" y1="102.9" x2="121.96" y2="105.9"/>
			</g>
		</g>
	</g>
	<g id="circles_21_">
		<circle class="st4" cx="182.13" cy="53.35" r="33.61"/>
		<path id="NET_21_" class="st5" d="M191.4,50.32h4.7v14.57h1.91V50.32h4.7v-1.73H191.4V50.32z M182.87,57.47h5.89v-1.73h-5.89    v-5.42h6.36v-1.73h-8.27v16.3h8.64v-1.73h-6.72L182.87,57.47L182.87,57.47z M175.45,60.08l0.11,2.4h-0.05    c-0.11-0.22-0.34-0.58-0.66-1.09l-8.16-12.79h-2.48v16.3h1.91V53.12l-0.09-2.24h0.07c0.14,0.37,0.31,0.71,0.51,1.02l8.41,12.99    h2.32v-16.3h-1.9L175.45,60.08L175.45,60.08z M160.16,62.59c-0.35,0-0.64,0.12-0.89,0.38c-0.24,0.25-0.36,0.55-0.36,0.91    c0,0.34,0.13,0.66,0.36,0.9c0.24,0.25,0.54,0.38,0.89,0.38c0.36,0,0.66-0.13,0.91-0.38s0.38-0.56,0.38-0.91    c0-0.35-0.13-0.65-0.38-0.91c-0.24-0.25-0.57-0.39-0.91-0.38 M198.03,45.33c0,0.87,0.39,1.31,1.16,1.31c0.28,0,0.5-0.05,0.67-0.14    v-0.61c-0.13,0.1-0.3,0.15-0.46,0.14c-0.24,0-0.4-0.06-0.51-0.19c-0.1-0.12-0.15-0.34-0.15-0.63v-2.5h1.12v-0.6h-1.11V40.8    l-0.71,0.23v1.08h-0.76v0.6h0.76v2.63L198.03,45.33z M195.13,46.54h0.71v-3.83h1.04v-0.6h-1.04v-0.68c0-0.63,0.25-0.94,0.74-0.94    c0.16,0,0.33,0.04,0.47,0.12v-0.64c-0.13-0.06-0.3-0.08-0.52-0.08c-0.38,0-0.7,0.11-0.96,0.36c-0.3,0.28-0.45,0.66-0.45,1.15v0.72    h-0.75v0.6h0.75v3.84L195.13,46.54z M190.28,44.34c0-0.57,0.14-1,0.42-1.31c0.27-0.29,0.62-0.43,1.06-0.43    c0.45,0,0.8,0.14,1.05,0.43c0.26,0.3,0.39,0.73,0.39,1.3c0,0.54-0.11,0.97-0.36,1.26c-0.24,0.3-0.6,0.45-1.07,0.45    c-0.45,0-0.81-0.15-1.08-0.45C190.41,45.29,190.28,44.87,190.28,44.34 M193.32,46c0.4-0.43,0.6-0.99,0.6-1.7    c0-0.72-0.19-1.28-0.56-1.7c-0.37-0.41-0.89-0.61-1.55-0.61c-0.67,0-1.21,0.2-1.61,0.59c-0.43,0.42-0.65,1.02-0.65,1.79    c0,0.68,0.19,1.22,0.57,1.63c0.39,0.43,0.92,0.64,1.59,0.64C192.39,46.64,192.93,46.43,193.32,46 M188.44,46.25    c0.27-0.22,0.42-0.56,0.41-0.9c0-0.33-0.11-0.6-0.33-0.81c-0.17-0.17-0.44-0.33-0.82-0.49c-0.34-0.14-0.56-0.27-0.67-0.37    c-0.12-0.11-0.18-0.26-0.18-0.46c0-0.18,0.07-0.33,0.21-0.45s0.33-0.17,0.57-0.17c0.38,0,0.71,0.11,1.01,0.32V42.2    c-0.28-0.14-0.6-0.21-0.95-0.21c-0.45,0-0.84,0.12-1.13,0.37c-0.29,0.25-0.44,0.55-0.44,0.92c0,0.33,0.09,0.6,0.28,0.8    c0.16,0.17,0.42,0.34,0.79,0.5c0.36,0.16,0.6,0.29,0.73,0.41s0.19,0.26,0.19,0.43c0,0.41-0.28,0.62-0.85,0.62    c-0.42,0-0.81-0.14-1.15-0.43v0.76c0.31,0.18,0.68,0.27,1.1,0.27C187.73,46.64,188.14,46.51,188.44,46.25 M182.1,43.03    c0.26-0.29,0.63-0.43,1.06-0.43c0.45,0,0.8,0.14,1.05,0.43c0.26,0.3,0.38,0.73,0.38,1.3c0,0.54-0.11,0.97-0.36,1.26    c-0.24,0.3-0.6,0.45-1.07,0.45c-0.45,0-0.81-0.15-1.08-0.45s-0.4-0.71-0.4-1.25C181.69,43.77,181.83,43.33,182.1,43.03     M183.12,46.64c0.68,0,1.21-0.21,1.61-0.64c0.4-0.43,0.6-0.99,0.6-1.7c0-0.72-0.19-1.28-0.56-1.7c-0.37-0.41-0.89-0.61-1.55-0.61    c-0.67,0-1.21,0.2-1.61,0.59c-0.43,0.42-0.65,1.02-0.65,1.79c0,0.68,0.19,1.22,0.57,1.63C181.92,46.42,182.45,46.64,183.12,46.64     M179.54,42.26c-0.22,0.17-0.38,0.43-0.48,0.75h-0.02v-0.92h-0.71v4.44h0.71v-2.25c0-0.52,0.11-0.92,0.33-1.21    c0.2-0.26,0.44-0.39,0.73-0.39c0.24,0,0.42,0.05,0.54,0.14v-0.74c-0.1-0.04-0.24-0.06-0.43-0.06    C179.97,42.03,179.74,42.11,179.54,42.26 M176.04,46.64c0.47,0,0.88-0.1,1.22-0.31v-0.67c-0.34,0.25-0.7,0.38-1.09,0.38    c-0.45,0-0.82-0.15-1.1-0.45c-0.27-0.3-0.41-0.71-0.41-1.23c0-0.54,0.15-0.97,0.45-1.29c0.28-0.31,0.65-0.47,1.1-0.47    c0.38,0,0.75,0.12,1.06,0.35v-0.73c-0.3-0.15-0.64-0.23-1.03-0.23c-0.7,0-1.27,0.22-1.68,0.67s-0.63,1.04-0.63,1.76    c0,0.65,0.19,1.18,0.57,1.59C174.89,46.44,175.41,46.65,176.04,46.64 M172.11,46.55h0.71v-4.44h-0.71V46.55L172.11,46.55z     M172.47,40.98c0.12,0,0.24-0.05,0.33-0.14s0.14-0.21,0.14-0.33c0-0.12-0.05-0.24-0.14-0.33s-0.21-0.13-0.33-0.13    c-0.13,0-0.24,0.04-0.33,0.13c-0.09,0.09-0.14,0.2-0.14,0.33c0,0.14,0.05,0.25,0.14,0.33C172.23,40.94,172.35,40.98,172.47,40.98     M164.93,42.38l-0.03-1.21h0.02c0.06,0.29,0.13,0.5,0.19,0.64l2.12,4.74h0.36l2.13-4.78c0.05-0.13,0.12-0.33,0.19-0.6h0.02    l-0.06,1.2v4.18h0.73v-6.22h-0.91l-1.95,4.31c-0.08,0.17-0.17,0.42-0.3,0.76h-0.03c-0.05-0.17-0.14-0.42-0.28-0.74l-1.91-4.34    h-0.96v6.22h0.7v-4.16H164.93z M202.29,43.1c-0.2,0.2-0.45,0.3-0.74,0.3c-0.29,0-0.54-0.1-0.74-0.3s-0.31-0.45-0.31-0.75    c0-0.29,0.1-0.54,0.3-0.74c0.2-0.2,0.45-0.3,0.75-0.3c0.28-0.01,0.54,0.1,0.74,0.3s0.31,0.47,0.3,0.75    C202.6,42.66,202.49,42.91,202.29,43.1 M201.56,41.19c-0.32-0.01-0.62,0.11-0.85,0.34c-0.22,0.22-0.35,0.52-0.34,0.84    c0,0.34,0.11,0.61,0.34,0.84s0.51,0.33,0.84,0.33c0.32,0.01,0.62-0.11,0.85-0.34c0.23-0.23,0.34-0.5,0.34-0.84    s-0.11-0.63-0.34-0.84C202.18,41.3,201.88,41.19,201.56,41.19 M201.53,42.28h-0.23v-0.51h0.19c0.13,0,0.22,0.02,0.28,0.07    c0.05,0.04,0.07,0.1,0.07,0.19C201.84,42.2,201.74,42.28,201.53,42.28 M201.69,42.42L201.69,42.42c0.12-0.03,0.22-0.08,0.28-0.15    c0.07-0.07,0.1-0.17,0.1-0.26c0-0.11-0.04-0.21-0.12-0.28c-0.1-0.09-0.24-0.13-0.43-0.13h-0.42v1.5h0.21v-0.63h0.14    c0.1,0,0.19,0.09,0.27,0.27l0.16,0.36h0.26l-0.2-0.4C201.86,42.53,201.77,42.44,201.69,42.42"/>
	</g>
	<g>
		<g>
			<path class="st6" d="M90.44,201.8c0,5.8-2.09,10.37-6.26,13.71s-9.98,5.01-17.42,5.01c-6.86,0-12.92-1.29-18.19-3.87V204     c4.34,1.93,8,3.3,11.01,4.09c3,0.79,5.75,1.19,8.24,1.19c2.99,0,5.28-0.57,6.88-1.71c1.6-1.14,2.4-2.84,2.4-5.1     c0-1.26-0.35-2.38-1.05-3.36c-0.7-0.98-1.74-1.93-3.1-2.83s-4.14-2.36-8.33-4.35c-3.93-1.85-6.87-3.62-8.83-5.32     c-1.96-1.7-3.53-3.68-4.7-5.93c-1.17-2.26-1.76-4.89-1.76-7.91c0-5.68,1.93-10.15,5.78-13.4c3.85-3.25,9.18-4.88,15.97-4.88     c3.34,0,6.53,0.4,9.56,1.19s6.2,1.9,9.51,3.34l-4.39,10.59c-3.43-1.41-6.26-2.39-8.5-2.94s-4.45-0.83-6.61-0.83     c-2.58,0-4.56,0.6-5.93,1.8c-1.38,1.2-2.07,2.77-2.07,4.7c0,1.2,0.28,2.25,0.83,3.14c0.56,0.89,1.44,1.76,2.66,2.59     c1.22,0.83,4.09,2.34,8.64,4.5c6.01,2.87,10.12,5.75,12.35,8.63C89.33,194.08,90.44,197.61,90.44,201.8z"/>
		</g>
		<g>
			<path class="st6" d="M98.89,213.85l-6.24-16.38h4.67l3.16,9.33c0.35,1.18,0.57,2.3,0.66,3.35h0.09c0.05-0.94,0.27-2.06,0.66-3.35     l3.15-9.33h4.67l-6.24,16.38H98.89z"/>
			<path class="st6" d="M126.02,197.47v2.27l-2.56,0.66c0.47,0.73,0.7,1.55,0.7,2.46c0,1.76-0.61,3.13-1.84,4.11     c-1.23,0.98-2.93,1.47-5.1,1.47l-0.81-0.04l-0.66-0.07c-0.46,0.35-0.69,0.74-0.69,1.17c0,0.64,0.82,0.97,2.46,0.97h2.78     c1.8,0,3.17,0.39,4.11,1.16s1.41,1.9,1.41,3.4c0,1.91-0.8,3.4-2.4,4.45s-3.89,1.58-6.88,1.58c-2.29,0-4.03-0.4-5.24-1.19     c-1.21-0.8-1.81-1.91-1.81-3.35c0-0.99,0.31-1.81,0.92-2.48s1.52-1.14,2.71-1.42c-0.46-0.2-0.86-0.51-1.2-0.96     s-0.51-0.92-0.51-1.41c0-0.62,0.18-1.14,0.54-1.56c0.36-0.41,0.88-0.82,1.57-1.22c-0.86-0.37-1.54-0.97-2.04-1.79     s-0.75-1.79-0.75-2.9c0-1.79,0.58-3.17,1.74-4.15s2.82-1.46,4.98-1.46c0.46,0,1,0.04,1.63,0.12c0.63,0.08,1.03,0.14,1.21,0.18     H126.02z M113.37,216.16c0,0.62,0.3,1.1,0.89,1.45s1.42,0.53,2.48,0.53c1.6,0,2.86-0.22,3.76-0.66s1.36-1.04,1.36-1.8     c0-0.62-0.27-1.04-0.81-1.27s-1.37-0.35-2.49-0.35h-2.31c-0.82,0-1.51,0.19-2.06,0.58S113.37,215.53,113.37,216.16z M115,202.83     c0,0.89,0.2,1.59,0.61,2.11s1.02,0.78,1.85,0.78c0.84,0,1.46-0.26,1.85-0.78s0.59-1.22,0.59-2.11c0-1.97-0.81-2.96-2.43-2.96     C115.82,199.88,115,200.86,115,202.83z"/>
		</g>
	</g>
	<g id="SVG">
		<g>
			<g>
				<rect x="152.03" y="188.1" class="st7" width="60.19" height="1.41"/>
			</g>
			<g>
				<path class="st7" d="M164.79,207.42c0,2.65-2.15,4.81-4.8,4.81c-2.65,0-4.81-2.15-4.81-4.81c0-2.65,2.15-4.8,4.81-4.8      C162.63,202.62,164.79,204.77,164.79,207.42z"/>
			</g>
			<g>
				<path class="st7" d="M208.64,170.37c0,2.65-2.15,4.81-4.8,4.81c-2.65,0-4.81-2.15-4.81-4.81c0-2.65,2.15-4.8,4.81-4.8      C206.49,165.56,208.64,167.71,208.64,170.37z"/>
			</g>
			<g>
				<rect x="177.21" y="184.09" class="st7" width="9.61" height="9.61"/>
			</g>
			<g>
				<path class="st7" d="M159.83,212.18c-0.55,0-0.99-0.44-0.99-0.99c0-17.16,11.97-23.28,23.18-23.28l0.58,0      c4.92,0.01,11.07,0.02,15.23-4.14c3.33-3.32,5.02-9.03,5.02-16.95c0-0.55,0.44-0.99,0.99-0.99s0.99,0.44,0.99,0.99      c0,8.59-1.83,14.59-5.6,18.36c-4.75,4.74-11.61,4.74-16.64,4.73l-0.57,0c-4.97,0-21.2,1.54-21.2,21.3      C160.82,211.73,160.37,212.18,159.83,212.18z"/>
			</g>
		</g>
	</g>
</g>
<g>
</g>
<g>
</g>
<g>
</g>
<g>
</g>
<g>
</g>
</svg>
