<?xml version="1.0" encoding="utf-8"?>
<!-- Generator: Adobe Illustrator 25.2.0, SVG Export Plug-In . SVG Version: 6.00 Build 0)  -->
<svg version="1.1" id="Layer_1" xmlns="http://www.w3.org/2000/svg" xmlns:xlink="http://www.w3.org/1999/xlink" x="0px" y="0px"
	 viewBox="0 0 320 320" style="enable-background:new 0 0 320 320;" xml:space="preserve">
<style type="text/css">
	.st0{fill:none;stroke:#EFEFEF;stroke-linecap:round;stroke-linejoin:round;stroke-miterlimit:10;stroke-dasharray:4,8;}
	.st1{fill-rule:evenodd;clip-rule:evenodd;fill:#FFFFFF;}
	.st2{fill-rule:evenodd;clip-rule:evenodd;fill:#A4C547;}
	.st3{fill:#A4C547;}
	.st4{fill:#FFFFFF;}
	.st5{fill:none;stroke:#FFFFFF;stroke-width:4.5;stroke-linecap:round;stroke-linejoin:round;stroke-miterlimit:10;}
	.st6{fill:#EFEFEF;}
	.st7{fill:#DEDFDF;}
	.st8{fill:#4296D2;}
	.st9{fill:#0866AA;}
	.st10{fill:#2178BD;}
	.st11{fill:#4096D2;}
	.st12{display:none;fill:#FFFFFF;}
</style>
<circle class="st0" cx="154.2" cy="163.2" r="123.7"/>
<g id="_x2E_NET">
	<path id="XMLID_8_" class="st1" d="M228,153.9c-19.6,0-36.2,6.9-49.9,20.6c-13.8,13.7-20.6,30.3-20.6,49.9s6.9,36.2,20.6,49.8
		c5.1,5.1,10.5,9.3,16.4,12.6h-85.7c-1.4-0.1-2.7-0.5-4-1.2c-2.1-1-3.2-3-3.2-6V105.4c0.2-1.5,0.5-2.9,1-4c1.1-2.1,3.2-3.2,6.2-3.2
		h174.3l1.2,0.3c1,0.2,1.9,0.4,2.7,0.8c2.2,1,3.3,3.1,3.3,6.2V191c-3.2-5.9-7.4-11.4-12.6-16.5C263.9,160.7,247.3,153.9,228,153.9z"
		/>
	<path id="XMLID_2_" class="st2" d="M228,153.9c19.3,0,35.9,6.9,49.8,20.6c5.2,5.1,9.3,10.6,12.6,16.5v-85.6c0-3.1-1.1-5.1-3.3-6.2
		c-0.8-0.3-1.7-0.6-2.7-0.8l-1.2-0.3H108.8c-3,0-5,1.1-6.2,3.2c-0.5,1.1-0.9,2.4-1,4v174.1c0,3,1.1,5,3.2,6c1.3,0.7,2.6,1.1,4,1.2
		h85.7c-5.9-3.2-11.4-7.4-16.4-12.6c-13.8-13.6-20.6-30.2-20.6-49.8s6.9-36.2,20.6-49.9C191.7,160.7,208.4,153.9,228,153.9z
		 M287.7,90.3c1.9,0.3,3.3,0.8,4.4,1.4c4.3,2,6.4,5.8,6.4,11.2v121.6c0,19.5-6.9,36.1-20.8,49.8c-13.8,13.8-30.4,20.8-49.8,20.8
		H106.2c-2.1,0-4.2-0.5-6.4-1.5c-4.3-2.2-6.4-6-6.4-11.3V102.8c0-2.1,0.6-4.3,1.7-6.4c2.1-4.3,5.8-6.4,11.2-6.4h179.5L287.7,90.3z"
		/>
	<g>
		<path class="st3" d="M143.3,146.9c0,4-1.4,7-4.3,9.3s-6.8,3.4-11.8,3.4c-5,0-9.1-0.8-12.4-2.3v-6.9c2,0.9,4.2,1.7,6.5,2.2
			c2.3,0.5,4.4,0.8,6.4,0.8c2.9,0,5-0.5,6.4-1.6c1.4-1.1,2.1-2.6,2.1-4.4c0-1.7-0.6-3.1-1.9-4.2c-1.3-1.2-3.9-2.5-7.8-4.1
			c-4.1-1.6-6.9-3.5-8.6-5.6s-2.5-4.6-2.5-7.6c0-3.7,1.3-6.6,4-8.7c2.6-2.1,6.2-3.2,10.6-3.2c4.3,0,8.5,0.9,12.7,2.8l-2.3,5.9
			c-4-1.7-7.5-2.5-10.6-2.5c-2.4,0-4.1,0.5-5.4,1.5c-1.2,1-1.8,2.4-1.8,4.1c0,1.2,0.2,2.1,0.7,3c0.5,0.8,1.3,1.6,2.4,2.3
			c1.1,0.7,3.1,1.7,6,2.9c3.3,1.4,5.7,2.6,7.2,3.8c1.5,1.2,2.6,2.5,3.3,4C142.9,143.2,143.3,144.9,143.3,146.9z"/>
		<path class="st3" d="M151.5,159l-8.6-22.5h5.1l4.6,13.1c0.8,2.2,1.3,4,1.4,5.3h0.2c0.1-1,0.6-2.8,1.4-5.3l4.6-13.1h5.1l-8.6,22.5
			C156.7,159,151.5,159,151.5,159z"/>
		<path class="st3" d="M185.7,136.5v2.6l-3.9,0.7c0.3,0.5,0.6,1.1,0.9,1.8c0.2,0.7,0.3,1.4,0.3,2.2c0,2.3-0.8,4.2-2.4,5.5
			c-1.6,1.3-3.8,2-6.6,2c-0.7,0-1.4-0.1-2-0.2c-1,0.6-1.5,1.4-1.5,2.2c0,0.5,0.2,0.9,0.7,1.2c0.5,0.3,1.4,0.4,2.7,0.4h3.9
			c2.5,0,4.4,0.5,5.7,1.6c1.3,1.1,1.9,2.6,1.9,4.6c0,2.6-1.1,4.5-3.2,5.9s-5.2,2.1-9.1,2.1c-3.1,0-5.4-0.5-7-1.6s-2.4-2.6-2.4-4.6
			c0-1.4,0.4-2.5,1.3-3.5c0.9-0.9,2.1-1.6,3.7-2c-0.6-0.3-1.2-0.7-1.6-1.3c-0.4-0.6-0.6-1.2-0.6-1.9c0-0.8,0.2-1.6,0.7-2.1
			c0.5-0.6,1.2-1.2,2.1-1.7c-1.2-0.5-2.1-1.3-2.8-2.5c-0.7-1.1-1.1-2.5-1.1-4c0-2.4,0.8-4.3,2.3-5.7c1.5-1.3,3.7-2,6.6-2
			c0.6,0,1.3,0,2,0.1c0.7,0.1,1.2,0.2,1.6,0.3L185.7,136.5L185.7,136.5z M167.9,162.5c0,1,0.5,1.8,1.4,2.4c0.9,0.6,2.2,0.8,3.9,0.8
			c2.6,0,4.6-0.4,5.8-1.1c1.3-0.7,1.9-1.7,1.9-3c0-1-0.3-1.7-1-2.1c-0.7-0.4-2-0.6-3.9-0.6h-3.6c-1.4,0-2.5,0.3-3.3,1
			S167.9,161.4,167.9,162.5z M170,143.8c0,1.4,0.4,2.5,1.1,3.3c0.7,0.8,1.8,1.1,3.1,1.1c2.8,0,4.2-1.5,4.2-4.4c0-1.5-0.3-2.6-1-3.4
			c-0.7-0.8-1.7-1.2-3.1-1.2c-1.4,0-2.4,0.4-3.2,1.2C170.4,141.1,170,142.2,170,143.8z"/>
	</g>
	<g id="SVG">
		<g>
			<rect x="177.1" y="221.7" class="st4" width="101.1" height="2.4"/>
			<path class="st4" d="M198.5,254.1c0,4.5-3.6,8.1-8.1,8.1c-4.5,0-8.1-3.6-8.1-8.1c0-4.5,3.6-8.1,8.1-8.1
				C194.9,246.1,198.5,249.7,198.5,254.1z"/>
			<path class="st4" d="M272.2,191.9c0,4.5-3.6,8.1-8.1,8.1c-4.5,0-8.1-3.6-8.1-8.1c0-4.5,3.6-8.1,8.1-8.1
				C268.6,183.9,272.2,187.5,272.2,191.9z"/>
			<rect x="219.4" y="215" class="st4" width="16.1" height="16.1"/>
			<path class="st5" d="M264.1,185.9c0,38-22.2,37.1-36.7,37.1c-14.5,0-37.3,6.8-37.3,37.4"/>
		</g>
	</g>
</g>
<g>
	<path class="st6" d="M274.8,142c-19,0-34.5-15.5-34.5-34.5S255.8,73,274.8,73s34.5,15.5,34.5,34.5S293.9,142,274.8,142z"/>
	<path class="st7" d="M274.8,74.4c18.2,0,33,14.8,33,33s-14.8,33-33,33s-33-14.8-33-33S256.6,74.4,274.8,74.4 M274.8,71.4
		c-19.9,0-36,16.1-36,36s16.1,36,36,36s36-16.1,36-36S294.7,71.4,274.8,71.4L274.8,71.4z"/>
</g>
<g>
	<g>
		<polygon class="st8" points="212.9,47.1 231.2,48.2 229.8,65.2 222.6,70.2 215.4,66.7 		"/>
		<polygon class="st8" points="159.3,50.4 163.4,50.4 164.8,47.1 165.4,27.7 158.8,23.9 146.3,23.9 145.3,38.1 145.8,50 		"/>
		<polygon class="st8" points="51,191.1 44.9,185.6 28.7,185.3 27.2,187.1 27.2,208.7 50.5,209.1 		"/>
		<polygon class="st8" points="78.8,247.1 72.8,241.1 58.4,240.7 59,268 77.7,268 		"/>
	</g>
	<g>
		<g>
			<path class="st8" d="M38.2,132.6c0.4,0.7,1,1.1,1.8,1.2h6.2v1.9c0,0.3-0.1,0.6-0.3,0.8s-0.5,0.3-0.8,0.3H28.8
				c-0.3,0-0.6-0.1-0.8-0.3c-0.2-0.2-0.3-0.5-0.3-0.8v-22.6c0-0.3,0.1-0.6,0.3-0.8c0.2-0.2,0.5-0.3,0.8-0.3h9.7v6.6
				c0,0.3,0.1,0.6,0.3,0.8c0.2,0.2,0.5,0.3,0.8,0.3h6.6v2.3l-6.2,6.2v4c-0.2,0-0.3-0.1-0.4-0.3c-0.3-0.6-0.8-0.9-1.5-1.1
				c-0.7-0.1-1.3,0-1.7,0.4l-0.7-2c-0.2-0.6-0.6-0.8-1.1-0.8c-0.6,0-0.9,0.3-1.1,0.8l-0.9,2.6c-0.1,0.3-0.3,0.4-0.5,0.4h-0.6
				c-0.2,0-0.4,0.1-0.6,0.2c-0.1,0.1-0.2,0.3-0.2,0.6c0,0.2,0.1,0.4,0.2,0.6c0.1,0.1,0.3,0.2,0.6,0.2h0.6c0.5,0,0.9-0.1,1.2-0.4
				c0.4-0.3,0.6-0.6,0.8-1.1l0.5-1.5l0.8,2.4c0.1,0.3,0.3,0.5,0.7,0.5s0.6-0.1,0.7-0.4l0.4-0.7c0.1-0.2,0.3-0.3,0.5-0.3
				C38,132.3,38.1,132.4,38.2,132.6z M46.3,117.9v0.3h-6.2V112h0.3c0.3,0,0.6,0.1,0.8,0.3L46,117C46.2,117.3,46.3,117.6,46.3,117.9z
				 M55.3,120.1c0.2,0.3,0.3,0.6,0.3,0.9s-0.1,0.6-0.3,0.9l-1.4,1.4l-3.3-3.3l1.4-1.4c0.2-0.2,0.5-0.3,0.9-0.3
				c0.3,0,0.6,0.1,0.9,0.3L55.3,120.1z"/>
		</g>
		<g>
			<polygon class="st8" points="79.5,66.8 79.5,70.4 77.6,71 78.4,74.2 80.5,74.2 99.4,74.2 101.5,74.2 101.5,72.1 100.6,70.5 
				100.5,58.7 98.1,56.2 90.3,56.8 89.6,67.8 88.4,63.7 			"/>
			<polygon class="st8" points="91.3,47.9 88.2,47.9 88.2,50 72.1,50.7 70.4,47.4 68,47.4 66.4,51.5 67.9,51.5 68.3,62.8 67.4,63.7 
				66.4,67.1 65.8,69.2 70,67.9 72.2,67.1 87.9,68 87.6,70 91.3,69.1 91.3,65.4 89.5,65.4 90.3,56.8 96.6,56.8 97.3,57.9 
				102.1,59.5 101.5,57.4 101.5,55.3 99.8,54.6 94.7,55.9 89.1,55.5 92.1,52 			"/>
			<g>
				<path class="st6" d="M102.9,59.5h-0.8V70h0.8c0.5,0,0.8,0.3,0.8,0.8v4.7c0,0.5-0.3,0.8-0.8,0.8h-4.7c-0.5,0-0.8-0.3-0.8-0.8
					v-0.8H82.6v0.8c0,0.5-0.3,0.8-0.8,0.8h-4.7c-0.5,0-0.8-0.3-0.8-0.8v-4.7c0-0.5,0.3-0.8,0.8-0.8h0.8v-1.6h-5.8v0.8
					c0,0.5-0.3,0.8-0.8,0.8h-4.7c-0.5,0-0.8-0.3-0.8-0.8v-4.7c0-0.5,0.3-0.8,0.8-0.8h0.8V53.2h-0.8c-0.5,0-0.8-0.3-0.8-0.8v-4.7
					c0-0.5,0.3-0.8,0.8-0.8h4.7c0.5,0,0.8,0.3,0.8,0.8v0.8h14.7v-0.8c0-0.5,0.3-0.8,0.8-0.8h4.7c0.5,0,0.8,0.3,0.8,0.8v4.7
					c0,0.5-0.3,0.8-0.8,0.8h-0.8v1.6h5.8V54c0-0.5,0.3-0.8,0.8-0.8h4.7c0.5,0,0.8,0.3,0.8,0.8v4.7C103.6,59.2,103.4,59.5,102.9,59.5
					z M70,51.1V49h-2.1v2.1H70z M70,67.9v-2.1h-2.1v2.1H70z M72.1,65.2h14.7v-0.8c0-0.5,0.3-0.8,0.8-0.8h0.8V53.2h-0.8
					c-0.5,0-0.8-0.3-0.8-0.8v-0.8H72.1v0.8c0,0.5-0.3,0.8-0.8,0.8h-0.8v10.5h0.8c0.5,0,0.8,0.3,0.8,0.8V65.2z M80.5,74.2v-2.1h-2.1
					v2.1H80.5z M98.9,70V59.5h-0.8c-0.5,0-0.8-0.3-0.8-0.8v-0.8h-5.8v5.8h0.8c0.5,0,0.8,0.3,0.8,0.8v4.7c0,0.5-0.3,0.8-0.8,0.8h-4.7
					c-0.5,0-0.8-0.3-0.8-0.8v-0.8H81V70h0.8c0.5,0,0.8,0.3,0.8,0.8v0.8h14.7v-0.8c0-0.5,0.3-0.8,0.8-0.8H98.9z M88.9,49v2.1H91V49
					H88.9z M88.9,65.8v2.1H91v-2.1H88.9z M101.5,57.4v-2.1h-2.1v2.1H101.5z M101.5,74.2v-2.1h-2.1v2.1H101.5z"/>
			</g>
		</g>
		<g>
			<path class="st6" d="M210.8,45.1h22.5l-2.1,23.2l-9.2,3.1l-9.2-3.1L210.8,45.1z M228.8,52.6l0.3-2.8H215l0.7,8.5h9.8l-0.4,3.6
				l-3.1,0.8l-3.2-0.8l-0.2-2.2h-2.8l0.4,4.4l5.8,1.6h0.1l5.7-1.6l0.8-8.7h-10.3l-0.2-2.9L228.8,52.6L228.8,52.6z"/>
		</g>
		<g>
			<path class="st6" d="M165.4,27.7c0.6,0.5,0.8,1.2,0.8,2v19.5c0,0.8-0.3,1.4-0.8,2c-0.6,0.5-1.2,0.8-2,0.8h-16.9
				c-0.8,0-1.4-0.3-2-0.8s-0.8-1.2-0.8-2V24.8c0-0.8,0.3-1.4,0.8-2s1.2-0.8,2-0.8h11.9c0.8,0,1.4,0.3,2,0.8L165.4,27.7z M146.6,49.1
				h16.9V32.2h-6.1c-0.4,0-0.7-0.1-1-0.4c-0.3-0.3-0.4-0.6-0.4-1v-6.1h-9.4V49.1L146.6,49.1z M149.3,33.1c0.6-0.5,1.2-0.8,2-0.8
				s1.4,0.3,2,0.8s0.8,1.2,0.8,2s-0.3,1.5-0.8,2c-0.6,0.5-1.2,0.8-2,0.8s-1.4-0.3-2-0.8s-0.8-1.2-0.8-2S148.7,33.6,149.3,33.1z
				 M148.4,46.3v-3.8l2.3-2.3c0.3-0.3,0.6-0.3,0.9,0l2.3,2.3l5.2-5.2c0.3-0.3,0.6-0.3,0.9,0l1.4,1.4v7.5L148.4,46.3L148.4,46.3z
				 M163.2,29.4l-4.4-4.4v4.5C158.8,29.4,163.2,29.4,163.2,29.4z"/>
		</g>
		<g>
			<path class="st6" d="M47.5,115c0.5,0.6,0.8,1.2,0.8,2v19.4c0,0.8-0.3,1.4-0.8,2s-1.2,0.8-2,0.8H28.6c-0.8,0-1.5-0.3-2-0.8
				c-0.5-0.6-0.8-1.2-0.8-2V112c0-0.8,0.3-1.4,0.8-2s1.2-0.8,2-0.8h12c0.8,0,1.4,0.3,2,0.8L47.5,115z M28.6,136.5h16.9v-16.9h-6.1
				c-0.4,0-0.7-0.1-1-0.4s-0.4-0.6-0.4-1v-6.1h-9.4V136.5z M45.3,116.8l-4.5-4.4v4.4H45.3z"/>
			<polygon class="st8" points="41.6,128.8 49.6,120.9 52.9,124.2 45,132.2 41.6,132.2 			"/>
		</g>
		<g>
			<path class="st6" d="M51.2,190.1c0.5,0.6,0.8,1.2,0.8,2v15.7c0,0.8-0.3,1.4-0.8,2s-1.2,0.8-2,0.8H28.6c-0.8,0-1.5-0.3-2-0.8
				c-0.5-0.6-0.8-1.2-0.8-2v-20.6c0-0.8,0.3-1.4,0.8-2s1.2-0.8,2-0.8h15.7c0.8,0,1.4,0.3,2,0.8L51.2,190.1z M48.9,207.8
				c0.2,0,0.3-0.1,0.3-0.4v-15.2c0-0.1,0-0.2-0.1-0.2l-4.6-4.6v5.9c0,0.4-0.1,0.7-0.4,1c-0.3,0.3-0.6,0.4-1,0.4H32.8
				c-0.4,0-0.7-0.1-1-0.4c-0.3-0.3-0.4-0.6-0.4-1v-6.1H29c-0.2,0-0.4,0.1-0.4,0.4v19.9c0,0.2,0.1,0.4,0.4,0.4L48.9,207.8L48.9,207.8
				z M35.3,197.6c1-1,2.2-1.5,3.6-1.5s2.6,0.5,3.6,1.5s1.5,2.2,1.5,3.6s-0.5,2.6-1.5,3.6s-2.2,1.5-3.6,1.5s-2.6-0.5-3.6-1.5
				s-1.5-2.2-1.5-3.6S34.3,198.6,35.3,197.6z M41.8,187.1h-7.5v4.7h7.5V187.1z M37.3,202.9c0.5,0.4,1,0.7,1.7,0.7s1.2-0.2,1.7-0.7
				c0.5-0.4,0.7-1,0.7-1.7s-0.2-1.2-0.7-1.7c-0.5-0.4-1-0.7-1.7-0.7s-1.2,0.2-1.7,0.7c-0.5,0.4-0.7,1-0.7,1.7S36.8,202.4,37.3,202.9
				z"/>
		</g>
		<g>
			<path class="st6" d="M79.3,245.6c0.6,0.6,0.8,1.2,0.8,2V267c0,0.8-0.3,1.4-0.8,2s-1.2,0.8-2,0.8H60.4c-0.8,0-1.5-0.3-2-0.8
				s-0.8-1.2-0.8-2v-24.4c0-0.8,0.3-1.4,0.8-2s1.2-0.8,2-0.8h12c0.8,0,1.4,0.3,2,0.8L79.3,245.6z M77.3,267v-16.9h-6.1
				c-0.4,0-0.7-0.1-1-0.4c-0.3-0.3-0.4-0.6-0.4-1v-6.1h-9.4V267H77.3z M66.4,260.3c0.2,0.2,0.2,0.5,0,0.8l-1,1
				c-0.1,0.1-0.2,0.2-0.4,0.2c-0.1,0-0.2-0.1-0.3-0.2l-3.3-3.2c-0.3-0.2-0.3-0.5,0-0.7l3.3-3.2c0.3-0.3,0.5-0.3,0.8,0l1,1v0.1
				c0.2,0.2,0.2,0.5,0,0.7l-1.9,1.7L66.4,260.3z M69.9,252.4l1.4,0.4c0.3,0.1,0.5,0.3,0.3,0.6l-3.2,11c-0.1,0.4-0.3,0.5-0.6,0.4
				l-1.4-0.4c-0.3-0.1-0.5-0.3-0.3-0.6l3.2-11C69.4,252.4,69.6,252.3,69.9,252.4z M71.3,256.9c-0.2-0.2-0.2-0.5,0-0.8l1-1.1
				c0.2-0.3,0.5-0.3,0.8,0l3.3,3.2c0.3,0.2,0.3,0.5,0,0.7l-3.3,3.2c-0.3,0.3-0.5,0.3-0.8,0l-1-1V261c-0.2-0.2-0.2-0.5,0-0.7l1.9-1.7
				L71.3,256.9z M72.6,242.9v4.4H77L72.6,242.9z"/>
		</g>
	</g>
</g>
<g>
	<path class="st9" d="M290.9,92.2l-7.3-3.5c-0.8-0.4-1.9-0.2-2.5,0.4l-23.9,21.8c-0.6,0.6-0.6,1.6,0,2.2l2,1.8
		c0.5,0.5,1.3,0.5,1.9,0.1l28.8-21.8c1-0.7,2.4,0,2.4,1.2v-0.1C292.1,93.4,291.7,92.6,290.9,92.2z"/>
	<g>
		<path class="st10" d="M290.9,120l-7.3,3.5c-0.8,0.4-1.9,0.2-2.5-0.4l-23.9-21.8c-0.6-0.6-0.6-1.6,0-2.2l2-1.8
			c0.5-0.5,1.3-0.5,1.9-0.1l28.8,21.8c1,0.7,2.4,0,2.4-1.2v0.1C292.1,118.9,291.7,119.6,290.9,120z"/>
	</g>
	<g>
		<path class="st11" d="M283.6,123.5c-0.8,0.4-1.9,0.2-2.5-0.4c0.8,0.8,2.2,0.2,2.2-0.9V90.1c0-1.2-1.4-1.7-2.2-0.9
			c0.7-0.7,1.7-0.8,2.5-0.4l7.3,3.5c0.8,0.4,1.2,1.1,1.2,2V118c0,0.8-0.5,1.6-1.2,2L283.6,123.5z"/>
	</g>
</g>
<g>
	<g>
		<g>
			<circle class="st12" cx="923.5" cy="-48.5" r="8.1"/>
		</g>
	</g>
</g>
</svg>
