<svg xmlns="http://www.w3.org/2000/svg" xml:space="preserve" style="enable-background:new 0 0 170 42" viewBox="0 0 170 42">
  <path d="M62.7 21c-.3-18.8-25.2-25.7-34.8-8.2.5.3 1 .8 1.4 1-.7 1.5-1.3 3.1-1.5 4.6-.1 1-.2 2.1-.2 3.2 0 9.7 7.9 17.6 17.6 17.6s17.6-7.9 17.6-17.6c-.1.1-.1-.6-.1-.6zm-30.8 3.1c-.2 1.9-.1 2.5-.1 2.8l-.5.1c-.1-.3-.6-1.4-.7-2.9-.5-5.7 3.4-10.8 9.3-11.7 5.4-.8 10.5 2.5 11.8 7.3l-.5.1c-.1-.1-.3-.5-1.2-1.4-6.4-6.6-16.7-3.5-18.1 5.7zm16.7 3.2a4.7 4.7 0 0 1-3.9 2.1 4.9 4.9 0 0 1-4.9-4.9c0-2.5 2-4.6 4.5-4.8 1.5-.1 3 .8 3.7 2.1.7 1.5.5 3.2-.7 4.5.5.4 1 .7 1.3 1zm10.1.2c-2.5 5.8-7.8 8.8-13.3 8.7-10.8-.6-13.9-12.9-6.7-17.4l.3.3c-.1.1-.6.5-1.2 1.9-.8 1.6-1 3.1-.9 4.2.6 8.7 12.6 10.4 16.8 1.9 5.2-11.8-8.8-23.8-21.3-14.6l-.2-.3c3.2-5.1 9.6-7.4 15.8-5.9 9.3 2.3 14.4 12 10.7 21.2zM79.9 14v8.1c0 3.2-2 5.7-5.6 5.7s-5.6-2.4-5.6-5.7V14h2.9v7.9c0 2 .9 3.1 2.7 3.1s2.7-1.2 2.7-3.1V14h2.9zm11 9.8c0 2.3-1.9 4.1-4.9 4.1h-4.8V14.2h4.5c2.7 0 4.4 1.3 4.4 3.2 0 1.5-.7 2.4-1.7 2.9 1.5.6 2.5 1.6 2.5 3.5zm-6.6-7v2.9h1.5c.9 0 1.5-.6 1.5-1.4s-.6-1.4-1.5-1.4l-1.5-.1zm1.6 8.4c1.3 0 2-.6 2-1.7 0-1.2-.7-1.7-2-1.7h-1.6v3.4h1.6zm6.2-11H95v13.6h-2.9V14.2zm9.9 5.5c2.3.8 3.5 1.9 3.5 3.9 0 2.8-2.2 4.4-4.8 4.4-2.3 0-4.2-1-4.9-3l2.3-1.7c.5 1.3 1.5 2 2.7 2 .9 0 1.6-.6 1.6-1.4s-.6-1.3-2.4-2c-2.1-.8-3.7-1.9-3.7-4.1s1.9-3.8 4.4-3.8c2.1 0 3.7.8 4.4 2.4l-2.3 1.6c-.5-1-1.2-1.6-2.2-1.6-.9 0-1.5.5-1.5 1.2.2.8 1 1.4 2.9 2.1zm18.2 1.3c0 3.9-2.9 7-7 7-4.2 0-7-3-7-6.5 0-2.3.9-4.1 2.2-5.1l-.5-.5c1-1 2.9-1.9 5.1-1.9a6.8 6.8 0 0 1 7.1 6.4c.1.2.1.4.1.6zm-3 0c0-2.4-1.5-4.2-3.9-4.2-1.4 0-2.4.6-3 1.2l.5.5c-.7.6-1.4 1.4-1.4 2.9 0 2.1 1.5 3.8 3.9 3.8s3.9-1.8 3.9-4.2zm7.2-3.9v3.1h5.8v2.2h-5.8v5.3h-3V14.2h9.3V17h-6.3v.1zm18.1 0h-3.8v10.8h-2.9V17.1h-3.9v-2.9h10.5l.1 2.9z" style="fill:#fff"/>
</svg>
