<?xml version="1.0" encoding="utf-8"?>
<!-- Generator: Adobe Illustrator 25.2.0, SVG Export Plug-In . SVG Version: 6.00 Build 0)  -->
<svg version="1.1" id="Layer_1" xmlns="http://www.w3.org/2000/svg" xmlns:xlink="http://www.w3.org/1999/xlink" x="0px" y="0px"
	 viewBox="0 0 277 277" style="enable-background:new 0 0 277 277;" xml:space="preserve">
<style type="text/css">
	.st0{fill-rule:evenodd;clip-rule:evenodd;fill:#FFFFFF;}
	.st1{fill-rule:evenodd;clip-rule:evenodd;fill:#A4C547;}
	.st2{fill:#A4C547;}
	.st3{fill:#FFFFFF;}
	.st4{fill:none;stroke:#FFFFFF;stroke-width:4.5;stroke-linecap:round;stroke-linejoin:round;stroke-miterlimit:10;}
</style>
<g id="_x2E_NET">
	<path id="XMLID_8_" class="st0" d="M180.46,87.48c-25.78,0-47.67,9.07-65.69,27.2c-18.12,18.02-27.18,39.93-27.18,65.72
		s9.06,47.65,27.18,65.56c6.65,6.78,13.85,12.3,21.61,16.56H23.59c-1.8-0.11-3.55-0.62-5.23-1.52c-2.81-1.35-4.22-4-4.22-7.94V23.62
		c0.22-2.03,0.67-3.77,1.35-5.24c1.46-2.82,4.17-4.22,8.1-4.22h229.47l1.52,0.34c1.35,0.23,2.53,0.56,3.55,1.01
		c2.93,1.35,4.39,4.05,4.39,8.11v112.87c-4.26-7.79-9.77-15.06-16.55-21.79C227.74,96.55,205.9,87.48,180.46,87.48z"/>
	<path id="XMLID_2_" class="st1" d="M180.46,87.48c25.44,0,47.28,9.07,65.51,27.2c6.78,6.74,12.29,14,16.55,21.79V23.62
		c0-4.06-1.46-6.76-4.39-8.11c-1.01-0.45-2.2-0.79-3.55-1.01l-1.52-0.34H23.59c-3.94,0-6.64,1.41-8.1,4.22
		c-0.68,1.46-1.13,3.21-1.35,5.24v229.45c0,3.94,1.41,6.59,4.22,7.94c1.69,0.9,3.43,1.41,5.23,1.52h112.79
		c-7.76-4.26-14.96-9.78-21.61-16.56c-18.12-17.91-27.18-39.76-27.18-65.56s9.06-47.7,27.18-65.72
		C132.78,96.55,154.68,87.48,180.46,87.48z M259.14,3.68c2.48,0.45,4.39,1.07,5.74,1.86c5.63,2.7,8.44,7.6,8.44,14.7v160.18
		c0,25.68-9.12,47.54-27.36,65.56c-18.23,18.25-40.07,27.37-65.51,27.37H20.21c-2.7,0-5.52-0.67-8.44-2.03
		c-5.63-2.93-8.44-7.88-8.44-14.87V20.24c0-2.82,0.73-5.63,2.19-8.45c2.7-5.63,7.6-8.45,14.69-8.45h236.23L259.14,3.68z"/>
	<g>
		<path class="st2" d="M69.02,78.37c0,5.21-1.88,9.29-5.65,12.25s-8.96,4.44-15.58,4.44c-6.62,0-12.04-1.03-16.26-3.08v-9.05
			c2.67,1.25,5.51,2.24,8.51,2.96c3,0.72,5.8,1.08,8.39,1.08c3.79,0,6.59-0.72,8.39-2.16c1.8-1.44,2.7-3.38,2.7-5.81
			c0-2.19-0.83-4.04-2.48-5.57c-1.66-1.52-5.07-3.32-10.25-5.41c-5.34-2.16-9.1-4.63-11.29-7.41c-2.19-2.78-3.28-6.11-3.28-10.01
			c0-4.88,1.73-8.73,5.21-11.53c3.47-2.8,8.13-4.2,13.97-4.2c5.61,0,11.18,1.23,16.74,3.68l-3.04,7.81
			c-5.21-2.19-9.85-3.28-13.93-3.28c-3.1,0-5.45,0.67-7.05,2.02c-1.6,1.35-2.4,3.13-2.4,5.35c0,1.52,0.32,2.82,0.96,3.9
			s1.69,2.1,3.16,3.06c1.47,0.96,4.11,2.23,7.93,3.8c4.3,1.79,7.45,3.46,9.45,5c2,1.55,3.47,3.3,4.4,5.25
			C68.55,73.44,69.02,75.73,69.02,78.37z"/>
		<path class="st2" d="M79.8,94.27l-11.28-29.7h6.66l6.04,17.27c1.04,2.9,1.66,5.25,1.88,7.04h0.21c0.16-1.29,0.79-3.63,1.88-7.04
			l6.04-17.27h6.71l-11.33,29.7H79.8z"/>
		<path class="st2" d="M124.8,64.57v3.46l-5.08,0.94c0.46,0.63,0.85,1.4,1.15,2.31s0.46,1.88,0.46,2.9c0,3.06-1.06,5.47-3.17,7.22
			c-2.11,1.75-5.02,2.63-8.73,2.63c-0.95,0-1.81-0.07-2.58-0.21c-1.36,0.84-2.04,1.83-2.04,2.95c0,0.68,0.32,1.19,0.95,1.53
			c0.64,0.34,1.8,0.51,3.5,0.51h5.18c3.28,0,5.76,0.7,7.46,2.09c1.7,1.4,2.55,3.41,2.55,6.04c0,3.37-1.39,5.96-4.16,7.79
			c-2.77,1.83-6.79,2.74-12.03,2.74c-4.05,0-7.13-0.72-9.26-2.15c-2.13-1.43-3.2-3.47-3.2-6.12c0-1.83,0.58-3.36,1.73-4.61
			c1.16-1.24,2.77-2.11,4.85-2.59c-0.84-0.36-1.54-0.94-2.08-1.73c-0.55-0.8-0.82-1.63-0.82-2.51c0-1.11,0.31-2.05,0.94-2.82
			c0.63-0.77,1.56-1.53,2.79-2.28c-1.54-0.66-2.79-1.74-3.75-3.24c-0.96-1.49-1.44-3.24-1.44-5.25c0-3.22,1.02-5.72,3.05-7.49
			s4.93-2.66,8.69-2.66c0.84,0,1.72,0.06,2.65,0.17c0.92,0.12,1.62,0.24,2.08,0.36H124.8z M101.46,98.89c0,1.36,0.61,2.41,1.84,3.14
			c1.23,0.73,2.95,1.1,5.17,1.1c3.44,0,6-0.49,7.68-1.48c1.68-0.98,2.52-2.29,2.52-3.92c0-1.29-0.46-2.21-1.38-2.75
			c-0.92-0.55-2.64-0.82-5.14-0.82h-4.78c-1.81,0-3.25,0.43-4.31,1.28C102,96.29,101.46,97.44,101.46,98.89z M104.18,74.18
			c0,1.86,0.48,3.29,1.44,4.3c0.96,1,2.33,1.5,4.12,1.5c3.65,0,5.48-1.95,5.48-5.85c0-1.93-0.45-3.42-1.36-4.47
			c-0.9-1.05-2.28-1.57-4.12-1.57c-1.83,0-3.21,0.52-4.15,1.56C104.65,70.68,104.18,72.19,104.18,74.18z"/>
	</g>
	<g id="SVG">
		<g>
			<rect x="113.53" y="176.89" class="st3" width="133.11" height="3.13"/>
			<path class="st3" d="M141.73,219.65c0,5.87-4.76,10.63-10.63,10.63c-5.87,0-10.63-4.76-10.63-10.63
				c0-5.87,4.76-10.63,10.63-10.63C136.98,209.02,141.73,213.78,141.73,219.65z"/>
			<path class="st3" d="M238.73,137.65c0,5.87-4.76,10.63-10.63,10.63c-5.87,0-10.63-4.76-10.63-10.63
				c0-5.87,4.76-10.63,10.63-10.63C233.98,127.02,238.73,131.78,238.73,137.65z"/>
			<rect x="169.21" y="168.02" class="st3" width="21.25" height="21.27"/>
			<path class="st4" d="M228.09,129.77c0,50.05-29.2,48.88-48.25,48.88c-19.04,0-49.07,8.98-49.07,49.32"/>
		</g>
	</g>
</g>
<g>
</g>
<g>
</g>
<g>
</g>
<g>
</g>
<g>
</g>
<g>
</g>
</svg>
