<svg xmlns="http://www.w3.org/2000/svg" xmlns:xlink="http://www.w3.org/1999/xlink" width="43.906" height="48" viewBox="0 0 43.906 48">
  <defs>
    <linearGradient id="linear-gradient" x1="0.5" x2="0.5" y2="0.975" gradientUnits="objectBoundingBox">
      <stop offset="0" stop-color="#2863e4"/>
      <stop offset="1" stop-color="#0c2152"/>
    </linearGradient>
  </defs>
  <path id="shield2" d="M32.429,2.988a27.472,27.472,0,0,1,4.306,2.047l.353.212a27.619,27.619,0,0,0,4.165,1.906,17.471,17.471,0,0,0,5.576.776h1.976V9.906a54.242,54.242,0,0,1-3.247,19.341,40.139,40.139,0,0,1-7.271,12.282,41.123,41.123,0,0,1-3.953,3.882,20.441,20.441,0,0,1-3.459,2.471c-.847.565-1.624.988-2.4,1.412l-.918.424L26.853,50l-.776-.282a21.012,21.012,0,0,1-3.388-1.835,35.032,35.032,0,0,1-7.341-6.424,41.338,41.338,0,0,1-7.2-12.212A54.12,54.12,0,0,1,4.9,9.976V8H6.876a19.712,19.712,0,0,0,5.576-.776,27.619,27.619,0,0,0,4.165-1.906l.353-.282a27.472,27.472,0,0,1,4.306-2.047,16.228,16.228,0,0,1,11.153,0ZM22.688,6.659a38.523,38.523,0,0,0-3.6,1.765l-.494.282a25.045,25.045,0,0,1-9.529,2.965A49.351,49.351,0,0,0,12.171,28.4a33.633,33.633,0,0,0,6.212,10.447,24.758,24.758,0,0,0,8.471,6.706,25.356,25.356,0,0,0,8.471-6.635,33.633,33.633,0,0,0,6.212-10.447,50.1,50.1,0,0,0,3.106-16.8,25.045,25.045,0,0,1-9.529-2.965l-.494-.282a38.524,38.524,0,0,0-3.6-1.765,13.933,13.933,0,0,0-4.165-.706A13.933,13.933,0,0,0,22.688,6.659Z" transform="translate(-4.9 -2)" fill="url(#linear-gradient)"/>
</svg>
